M48
; DRILL file {KiCad (5.99.0-6542-g16b0689841)} date 03/01/21 15:33:56
; FORMAT={-:-/ absolute / inch / decimal}
; #@! TF.CreationDate,2021-03-01T15:33:56-08:00
; #@! TF.GenerationSoftware,Kicad,Pcbnew,(5.99.0-6542-g16b0689841)
; #@! TF.FileFunction,Plated,1,4,PTH
FMAT,2
INCH
T1C0.0118
T2C0.0315
%
G90
G05
T1
X4.0689Y-2.872
X4.0689Y-2.9213
X4.0689Y-2.9665
X4.0689Y-3.0
X4.0709Y-2.2992
X4.0709Y-2.3386
X4.0709Y-2.378
X4.0709Y-2.4173
X4.0709Y-2.4567
X4.0709Y-2.498
X4.0709Y-2.5354
X4.0709Y-2.5728
X4.0709Y-2.6122
X4.0709Y-2.6516
X4.0709Y-2.6909
X4.0709Y-2.7303
X4.0709Y-2.7756
X4.0709Y-2.8228
X4.0728Y-3.0295
X4.0827Y-2.2638
X4.1004Y-2.372
X4.1004Y-2.3957
X4.1004Y-2.4213
X4.1063Y-2.2402
X4.1102Y-2.4567
X4.1102Y-3.0807
X4.1319Y-2.4213
X4.1339Y-2.2244
X4.1339Y-2.5531
X4.1339Y-2.5807
X4.1358Y-3.0945
X4.1496Y-2.5039
X4.1496Y-2.5335
X4.1535Y-2.7205
X4.1535Y-2.748
X4.1575Y-2.6555
X4.1594Y-2.626
X4.1654Y-2.2402
X4.1673Y-3.0984
X4.185Y-2.2283
X4.185Y-2.252
X4.1969Y-3.0984
X4.2087Y-2.8307
X4.2244Y-2.5965
X4.2283Y-2.6672
X4.2302Y-2.7461
X4.2303Y-3.0984
X4.2323Y-2.5197
X4.2323Y-2.6299
X4.2323Y-2.6917
X4.2323Y-2.7165
X4.248Y-2.8898
X4.2598Y-2.3701
X4.2598Y-2.7992
X4.2598Y-3.0984
X4.2815Y-2.4921
X4.2835Y-2.2244
X4.2992Y-2.3386
X4.2992Y-2.3622
X4.3012Y-2.7441
X4.3031Y-2.5669
X4.3031Y-2.6201
X4.3031Y-2.6614
X4.3031Y-2.7047
X4.3051Y-2.8327
X4.315Y-2.3819
X4.315Y-2.4803
X4.3189Y-2.2244
X4.3189Y-2.7618
X4.3248Y-2.8504
X4.3325Y-2.8819
X4.3386Y-2.3425
X4.3399Y-2.4694
X4.3425Y-2.4941
X4.3504Y-2.6575
X4.3543Y-2.6063
X4.3583Y-2.2244
X4.3583Y-2.4528
X4.3583Y-2.7087
X4.3602Y-2.8287
X4.3661Y-3.0984
X4.374Y-2.565
X4.374Y-2.7618
X4.374Y-2.8898
X4.3799Y-2.4941
X4.3898Y-2.3819
X4.3976Y-2.2244
X4.4016Y-2.6654
X4.4055Y-2.6142
X4.4055Y-2.7165
X4.4094Y-2.8858
X4.4173Y-2.5787
X4.4272Y-2.8307
X4.437Y-2.752
X4.4409Y-2.2244
X4.4488Y-2.6063
X4.4488Y-2.7087
X4.4528Y-2.2992
X4.4528Y-2.3425
X4.4567Y-2.8287
X4.4606Y-2.4272
X4.4606Y-2.4941
X4.4606Y-3.0984
X4.4685Y-2.6575
X4.4705Y-2.565
X4.4724Y-2.2441
X4.4882Y-2.4528
X4.4921Y-2.752
X4.502Y-2.2638
X4.502Y-2.6201
X4.502Y-2.7165
X4.5079Y-2.878
X4.5217Y-2.437
X4.5276Y-2.2441
X4.5315Y-2.3307
X4.5512Y-2.4094
X4.5531Y-2.2224
X4.5591Y-3.0984
X4.5669Y-2.3307
X4.5669Y-2.7028
X4.5711Y-2.61
X4.5827Y-2.4724
X4.5846Y-2.4035
X4.6142Y-2.5866
X4.6181Y-2.4724
X4.622Y-2.2205
X4.6378Y-2.5
X4.6398Y-2.7028
X4.6457Y-2.4331
X4.6594Y-2.8425
X4.6614Y-2.2205
X4.6634Y-2.5157
X4.6654Y-3.0984
X4.6772Y-2.3504
X4.6772Y-2.4016
X4.6772Y-2.4331
X4.6772Y-2.4646
X4.7126Y-2.3504
X4.7441Y-2.6732
X4.752Y-2.3504
X4.752Y-2.8425
X4.7539Y-2.5138
X4.7618Y-2.2205
X4.7638Y-3.0984
X4.7736Y-2.7756
X4.7815Y-2.4469
X4.8071Y-2.3504
X4.8209Y-2.878
X4.8268Y-2.689
X4.8346Y-2.3976
X4.8465Y-2.9469
X4.8465Y-2.6122
X4.8504Y-2.5472
X4.8602Y-2.2205
X4.8622Y-3.0984
X4.8878Y-2.689
X4.8898Y-2.6201
X4.8898Y-2.9488
X4.8937Y-2.8228
X4.8957Y-2.4921
X4.8976Y-2.5413
X4.8976Y-2.872
X4.9232Y-2.6181
X4.9272Y-2.687
X4.9291Y-2.3898
X4.9291Y-2.9173
X4.939Y-2.7618
X4.9449Y-2.5807
X4.9547Y-2.6575
X4.9547Y-2.7185
X4.9606Y-2.2205
X4.9606Y-3.0984
X4.9724Y-2.6929
X4.9724Y-2.748
X4.9724Y-2.7795
X4.9744Y-2.8917
X4.9803Y-2.6319
X4.9921Y-2.5512
X4.9921Y-2.5945
X4.9961Y-2.8543
X5.0079Y-2.7795
X5.0197Y-2.6181
X5.0236Y-2.4823
X5.0236Y-2.748
X5.0236Y-2.8622
X5.0236Y-2.8976
X5.0236Y-2.9291
X5.0276Y-2.685
X5.0413Y-2.9528
X5.0433Y-2.7795
X5.0512Y-2.5394
X5.0512Y-2.5669
X5.0512Y-2.5945
X5.0551Y-2.4016
X5.0551Y-2.4843
X5.0551Y-2.8622
X5.0551Y-2.8898
X5.0551Y-2.9213
X5.0591Y-3.0984
X5.061Y-2.2205
X5.063Y-2.748
X5.0787Y-2.7795
X5.0787Y-2.9528
X5.0827Y-2.5394
X5.0866Y-2.4016
X5.0866Y-2.5945
X5.0866Y-2.8622
X5.0906Y-2.4843
X5.0906Y-2.6496
X5.0906Y-2.6929
X5.0906Y-2.8976
X5.0945Y-2.9291
X5.1063Y-2.748
X5.1142Y-2.563
X5.1142Y-2.7795
X5.1142Y-2.9528
X5.1181Y-2.8622
X5.122Y-2.4016
X5.122Y-2.5945
X5.126Y-2.4567
X5.126Y-2.4843
X5.126Y-2.6339
X5.126Y-2.6693
X5.126Y-2.7126
X5.126Y-2.8976
X5.1299Y-2.9331
X5.1417Y-2.5433
X5.1457Y-2.7717
X5.1496Y-2.8425
X5.1496Y-2.878
X5.1496Y-2.9173
X5.1496Y-2.9528
X5.1535Y-2.5748
X5.1535Y-2.6102
X5.1535Y-2.689
X5.1535Y-2.7323
X5.1575Y-2.4016
X5.1575Y-2.4567
X5.1575Y-2.4843
X5.1614Y-2.2205
X5.1614Y-3.0984
X5.1654Y-2.6496
X5.1811Y-2.8189
X5.189Y-2.4016
X5.1929Y-2.4843
X5.1969Y-2.5118
X5.2047Y-2.7913
X5.2087Y-2.7126
X5.2087Y-2.7559
X5.2126Y-2.5394
X5.2165Y-2.4646
X5.2165Y-2.5709
X5.2165Y-2.6024
X5.2185Y-2.8425
X5.2205Y-2.4016
X5.2205Y-2.6811
X5.2205Y-2.9016
X5.2205Y-2.9528
X5.2362Y-2.5039
X5.2441Y-2.6142
X5.2461Y-2.7815
X5.248Y-2.4646
X5.248Y-2.5551
X5.248Y-2.7323
X5.2559Y-2.3937
X5.2559Y-2.6811
X5.2598Y-3.0984
X5.2618Y-2.2205
X5.2756Y-2.6142
X5.2795Y-2.4685
X5.2795Y-2.5748
X5.2815Y-2.7815
X5.2835Y-2.5
X5.2835Y-2.6693
X5.2953Y-2.3937
X5.2953Y-2.7244
X5.3031Y-2.4567
X5.3031Y-2.815
X5.3071Y-2.5236
X5.3071Y-2.6102
X5.3091Y-2.9646
X5.315Y-2.6693
X5.3228Y-2.8996
X5.3228Y-2.9311
X5.3268Y-2.5512
X5.3307Y-2.4016
X5.3307Y-2.5906
X5.3307Y-2.7087
X5.3307Y-2.7461
X5.3307Y-2.7894
X5.3425Y-2.6575
X5.3465Y-2.876
X5.3543Y-2.4252
X5.3543Y-2.5709
X5.3583Y-3.0984
X5.3622Y-2.2205
X5.3622Y-2.2874
X5.3661Y-2.4528
X5.3661Y-2.4843
X5.3661Y-2.5118
X5.3661Y-2.6378
X5.3661Y-2.9488
X5.372Y-2.8563
X5.378Y-2.3996
X5.378Y-2.9094
X5.3858Y-2.6181
X5.3937Y-2.5118
X5.3996Y-2.8327
X5.4016Y-2.7028
X5.4016Y-2.7874
X5.4035Y-2.4291
X5.4035Y-2.4744
X5.4035Y-2.7362
X5.4173Y-2.8937
X5.4173Y-2.9409
X5.4213Y-2.5118
X5.4213Y-2.7559
X5.4213Y-2.8583
X5.4252Y-2.6732
X5.4252Y-2.7126
X5.4488Y-2.9134
X5.4528Y-2.5472
X5.4528Y-2.5945
X5.4528Y-2.7323
X5.4587Y-2.2205
X5.4606Y-3.0984
X5.4646Y-2.874
X5.4685Y-2.752
X5.474Y-2.5709
X5.4882Y-2.7323
X5.4921Y-2.6772
X5.4961Y-2.5472
X5.4961Y-2.5945
X5.5197Y-2.7323
X5.5236Y-2.7894
X5.5236Y-2.8169
X5.5354Y-2.5
X5.5354Y-2.6299
X5.5394Y-2.4331
X5.5472Y-2.6535
X5.5472Y-2.7126
X5.5551Y-2.4094
X5.5591Y-2.6811
X5.561Y-2.2205
X5.563Y-3.0984
X5.5689Y-2.9291
X5.5689Y-2.9724
X5.5709Y-2.5
X5.5709Y-2.6299
X5.5709Y-2.7283
X5.5709Y-2.8524
X5.5748Y-2.4331
X5.5827Y-2.3976
X5.5945Y-2.6654
X5.6024Y-2.7283
X5.6063Y-2.6299
X5.6142Y-2.4331
X5.622Y-2.3976
X5.626Y-2.6772
X5.6339Y-2.5276
X5.6339Y-2.5669
X5.6457Y-2.6575
X5.6476Y-2.8268
X5.6476Y-2.878
X5.6476Y-2.9291
X5.6496Y-2.7244
X5.6535Y-2.4331
X5.6555Y-2.4626
X5.6555Y-2.4961
X5.6575Y-2.5433
X5.6575Y-2.6929
X5.6594Y-2.2205
X5.6614Y-2.3976
X5.6614Y-3.0984
X5.6772Y-2.5118
X5.6772Y-2.7244
X5.6811Y-2.6339
X5.685Y-2.437
X5.689Y-2.4764
X5.689Y-2.5433
X5.6969Y-2.3976
X5.6969Y-2.6654
X5.6988Y-2.878
X5.6988Y-2.9291
X5.7087Y-2.5118
X5.7126Y-2.4567
X5.7126Y-2.6339
X5.7126Y-2.7244
X5.7126Y-2.8268
X5.7205Y-2.9528
X5.7244Y-2.5433
X5.7283Y-2.4803
X5.7283Y-2.6929
X5.7402Y-2.6575
X5.7441Y-2.7244
X5.748Y-2.4567
X5.748Y-2.5118
X5.75Y-2.5689
X5.7539Y-2.75
X5.7559Y-3.0098
X5.7598Y-2.2205
X5.7598Y-3.0984
X5.7677Y-2.4803
X5.7677Y-2.5433
X5.7717Y-2.3622
X5.7717Y-2.6969
X5.7756Y-2.6339
X5.7776Y-2.9488
X5.7795Y-2.7717
X5.7874Y-2.5118
X5.7894Y-2.5689
X5.7894Y-2.878
X5.7913Y-2.6654
X5.7913Y-2.7323
X5.7913Y-3.0098
X5.7992Y-2.8071
X5.8031Y-2.6339
X5.8031Y-2.9252
X5.811Y-2.4646
X5.811Y-2.5433
X5.815Y-2.7008
X5.8189Y-2.9961
X5.8209Y-2.7717
X5.8268Y-2.5039
X5.8307Y-2.5689
X5.8346Y-2.6496
X5.8346Y-2.7323
X5.8406Y-2.7972
X5.8406Y-2.9724
X5.8425Y-2.6772
X5.8465Y-2.4764
X5.8465Y-2.5354
X5.8504Y-2.2205
X5.8543Y-3.0118
X5.8543Y-3.0984
X5.8583Y-2.7638
X5.8661Y-2.561
X5.8661Y-2.6378
X5.8701Y-2.4409
X5.8701Y-2.813
X5.8701Y-2.8406
X5.8701Y-2.874
X5.8701Y-2.9035
X5.8701Y-2.9646
X5.8701Y-3.0472
X5.8819Y-2.5276
X5.8819Y-2.6693
X5.8858Y-3.0984
X5.8898Y-2.7795
X5.8937Y-2.2205
X5.9016Y-2.4409
X5.9016Y-2.5531
X5.9016Y-3.0709
X5.9035Y-2.6457
X5.9055Y-2.8917
X5.9055Y-2.9764
X5.9055Y-3.0157
X5.9094Y-2.811
X5.9213Y-2.5276
X5.9213Y-2.7795
X5.9213Y-3.0984
X5.9232Y-2.3701
X5.9232Y-2.3976
X5.9232Y-2.4252
X5.9252Y-2.2205
X5.9252Y-2.6693
X5.937Y-3.0354
X5.9409Y-2.5531
X5.9409Y-2.8917
X5.9409Y-2.9764
X5.9429Y-2.6457
X5.9449Y-2.811
X5.9488Y-2.4409
X5.9567Y-2.2205
X5.9567Y-2.2441
X5.9567Y-2.2874
X5.9567Y-3.0984
X5.9587Y-2.9331
X5.9606Y-2.5276
X5.9646Y-2.6693
X5.9646Y-2.7795
X5.9646Y-3.0669
X5.9803Y-3.0354
X5.9843Y-2.2677
X5.9843Y-2.4409
X5.9843Y-2.5531
X5.9843Y-2.6457
X5.9843Y-2.811
X5.9882Y-2.2264
X5.9882Y-3.0945
X5.9921Y-2.311
X6.0Y-2.3386
X6.0Y-2.3976
X6.0039Y-2.5276
X6.0039Y-2.6693
X6.0039Y-2.9331
X6.0079Y-2.7795
X6.0118Y-2.2677
X6.0157Y-3.0354
X6.0157Y-3.0787
X6.0177Y-2.2421
X6.0197Y-2.4409
X6.0236Y-2.5531
X6.0236Y-2.6457
X6.0236Y-2.811
X6.0374Y-2.2657
X6.0394Y-3.0512
X6.0512Y-2.2953
X6.0512Y-3.0197
X6.0551Y-2.3287
X6.0551Y-2.3622
X6.0551Y-2.3976
X6.0551Y-2.4331
X6.0551Y-2.4646
X6.0551Y-2.4941
X6.0551Y-2.5276
X6.0551Y-2.561
X6.0551Y-2.5925
X6.0551Y-2.628
X6.0551Y-2.6614
X6.0551Y-2.6949
X6.0551Y-2.7283
X6.0551Y-2.7638
X6.0551Y-2.7972
X6.0551Y-2.8307
X6.0551Y-2.8661
X6.0551Y-2.9035
X6.0551Y-2.9409
X6.0551Y-2.9803
T2
X4.311Y-3.0591
X4.411Y-3.0591
X4.511Y-3.0591
X4.611Y-3.0591
X4.711Y-2.2591
X4.711Y-3.0591
X4.811Y-2.2591
X4.811Y-3.0591
X4.911Y-2.2591
X4.911Y-3.0591
X5.011Y-2.2591
X5.011Y-3.0591
X5.111Y-2.2591
X5.111Y-3.0591
X5.211Y-2.2591
X5.211Y-3.0591
X5.311Y-2.2591
X5.311Y-3.0591
X5.411Y-2.2591
X5.411Y-3.0591
X5.511Y-2.2591
X5.511Y-3.0591
X5.611Y-2.2591
X5.611Y-3.0591
X5.711Y-2.2591
X5.711Y-3.0591
X5.811Y-2.2591
X5.811Y-3.0591
T0
M30
