%TF.GenerationSoftware,KiCad,Pcbnew,(5.99.0-6542-g16b0689841)*%
%TF.CreationDate,2021-03-01T15:30:54-08:00*%
%TF.ProjectId,LoRa-GW-FeatherWing,4c6f5261-2d47-4572-9d46-656174686572,rev?*%
%TF.SameCoordinates,Original*%
%TF.FileFunction,Paste,Top*%
%TF.FilePolarity,Positive*%
%FSLAX46Y46*%
G04 Gerber Fmt 4.6, Leading zero omitted, Abs format (unit mm)*
G04 Created by KiCad (PCBNEW (5.99.0-6542-g16b0689841)) date 2021-03-01 15:30:54*
%MOMM*%
%LPD*%
G01*
G04 APERTURE LIST*
G04 Aperture macros list*
%AMRoundRect*
0 Rectangle with rounded corners*
0 $1 Rounding radius*
0 $2 $3 $4 $5 $6 $7 $8 $9 X,Y pos of 4 corners*
0 Add a 4 corners polygon primitive as box body*
4,1,4,$2,$3,$4,$5,$6,$7,$8,$9,$2,$3,0*
0 Add four circle primitives for the rounded corners*
1,1,$1+$1,$2,$3,0*
1,1,$1+$1,$4,$5,0*
1,1,$1+$1,$6,$7,0*
1,1,$1+$1,$8,$9,0*
0 Add four rect primitives between the rounded corners*
20,1,$1+$1,$2,$3,$4,$5,0*
20,1,$1+$1,$4,$5,$6,$7,0*
20,1,$1+$1,$6,$7,$8,$9,0*
20,1,$1+$1,$8,$9,$2,$3,0*%
G04 Aperture macros list end*
%ADD10C,0.152400*%
%ADD11RoundRect,0.140000X-0.140000X-0.170000X0.140000X-0.170000X0.140000X0.170000X-0.140000X0.170000X0*%
%ADD12RoundRect,0.218750X0.256250X-0.218750X0.256250X0.218750X-0.256250X0.218750X-0.256250X-0.218750X0*%
%ADD13RoundRect,0.140000X0.140000X0.170000X-0.140000X0.170000X-0.140000X-0.170000X0.140000X-0.170000X0*%
%ADD14RoundRect,0.079500X0.100500X-0.079500X0.100500X0.079500X-0.100500X0.079500X-0.100500X-0.079500X0*%
%ADD15RoundRect,0.218750X-0.381250X0.218750X-0.381250X-0.218750X0.381250X-0.218750X0.381250X0.218750X0*%
%ADD16R,0.500000X0.500000*%
%ADD17R,0.300000X0.400000*%
%ADD18R,0.400000X0.300000*%
%ADD19RoundRect,0.079500X0.079500X0.100500X-0.079500X0.100500X-0.079500X-0.100500X0.079500X-0.100500X0*%
%ADD20RoundRect,0.135000X0.185000X-0.135000X0.185000X0.135000X-0.185000X0.135000X-0.185000X-0.135000X0*%
%ADD21RoundRect,0.079500X-0.127279X-0.014849X-0.014849X-0.127279X0.127279X0.014849X0.014849X0.127279X0*%
%ADD22RoundRect,0.079500X-0.014849X0.127279X-0.127279X0.014849X0.014849X-0.127279X0.127279X-0.014849X0*%
%ADD23RoundRect,0.079500X-0.100500X0.079500X-0.100500X-0.079500X0.100500X-0.079500X0.100500X0.079500X0*%
%ADD24R,0.180000X0.250000*%
%ADD25RoundRect,0.135000X-0.185000X0.135000X-0.185000X-0.135000X0.185000X-0.135000X0.185000X0.135000X0*%
%ADD26RoundRect,0.079500X-0.079500X-0.100500X0.079500X-0.100500X0.079500X0.100500X-0.079500X0.100500X0*%
%ADD27RoundRect,0.140000X0.170000X-0.140000X0.170000X0.140000X-0.170000X0.140000X-0.170000X-0.140000X0*%
%ADD28R,4.200000X1.350000*%
%ADD29R,3.600000X1.270000*%
%ADD30R,0.340000X0.700000*%
%ADD31RoundRect,0.062500X-0.375000X0.062500X-0.375000X-0.062500X0.375000X-0.062500X0.375000X0.062500X0*%
%ADD32RoundRect,0.062500X-0.062500X0.375000X-0.062500X-0.375000X0.062500X-0.375000X0.062500X0.375000X0*%
%ADD33RoundRect,0.250000X-0.255000X0.255000X-0.255000X-0.255000X0.255000X-0.255000X0.255000X0.255000X0*%
%ADD34RoundRect,0.250000X-0.850000X0.375000X-0.850000X-0.375000X0.850000X-0.375000X0.850000X0.375000X0*%
%ADD35R,0.177800X0.736600*%
%ADD36R,0.177800X0.762000*%
%ADD37R,0.736600X0.177800*%
%ADD38R,0.762000X0.177800*%
%ADD39RoundRect,0.062500X-0.350000X-0.062500X0.350000X-0.062500X0.350000X0.062500X-0.350000X0.062500X0*%
%ADD40RoundRect,0.120000X-0.120000X-0.285000X0.120000X-0.285000X0.120000X0.285000X-0.120000X0.285000X0*%
%ADD41R,0.600000X0.450000*%
%ADD42RoundRect,0.079500X0.127279X0.014849X0.014849X0.127279X-0.127279X-0.014849X-0.014849X-0.127279X0*%
%ADD43R,2.200000X1.050000*%
%ADD44R,1.050000X1.000000*%
%ADD45R,0.850000X0.650000*%
%ADD46RoundRect,0.225000X-0.225000X-0.250000X0.225000X-0.250000X0.225000X0.250000X-0.225000X0.250000X0*%
%ADD47RoundRect,0.140000X-0.170000X0.140000X-0.170000X-0.140000X0.170000X-0.140000X0.170000X0.140000X0*%
%ADD48RoundRect,0.062500X-0.062500X-0.325000X0.062500X-0.325000X0.062500X0.325000X-0.062500X0.325000X0*%
%ADD49RoundRect,0.062500X-0.325000X-0.062500X0.325000X-0.062500X0.325000X0.062500X-0.325000X0.062500X0*%
%ADD50RoundRect,0.177500X-0.177500X-0.177500X0.177500X-0.177500X0.177500X0.177500X-0.177500X0.177500X0*%
%ADD51RoundRect,0.135000X-0.135000X-0.185000X0.135000X-0.185000X0.135000X0.185000X-0.135000X0.185000X0*%
G04 APERTURE END LIST*
D10*
%TO.C,U1*%
X110296650Y-69103350D02*
X109093300Y-69103350D01*
X111700000Y-64893300D02*
X110496650Y-64893300D01*
X111900000Y-67700000D02*
X111900000Y-68903350D01*
X111700000Y-67500000D02*
X111700000Y-66296650D01*
X109093300Y-67500000D02*
X110296650Y-67500000D01*
X110296650Y-66096650D02*
X110296650Y-64893300D01*
X114506700Y-64893300D02*
X113303350Y-64893300D01*
X110296650Y-67700000D02*
X109093300Y-67700000D01*
X110496650Y-67500000D02*
X111700000Y-67500000D01*
X110496650Y-70306700D02*
X111700000Y-70306700D01*
X111700000Y-70306700D02*
X111700000Y-69103350D01*
X114506700Y-67500000D02*
X114506700Y-66296650D01*
X110296650Y-66296650D02*
X109093300Y-66296650D01*
X113303350Y-66296650D02*
X113303350Y-67500000D01*
X110296650Y-64893300D02*
X109093300Y-64893300D01*
X114506700Y-69103350D02*
X113303350Y-69103350D01*
X113103350Y-69103350D02*
X111900000Y-69103350D01*
X113103350Y-66096650D02*
X113103350Y-64893300D01*
X109093300Y-67700000D02*
X109093300Y-68903350D01*
X113103350Y-64893300D02*
X111900000Y-64893300D01*
X114506700Y-67700000D02*
X113303350Y-67700000D01*
X110496650Y-66096650D02*
X111700000Y-66096650D01*
X111700000Y-68903350D02*
X111700000Y-67700000D01*
X109093300Y-64893300D02*
X109093300Y-66096650D01*
X111900000Y-69103350D02*
X111900000Y-70306700D01*
X111700000Y-69103350D02*
X110496650Y-69103350D01*
X113103350Y-70306700D02*
X113103350Y-69103350D01*
X113303350Y-69103350D02*
X113303350Y-70306700D01*
X111900000Y-64893300D02*
X111900000Y-66096650D01*
X113103350Y-68903350D02*
X113103350Y-67700000D01*
X113303350Y-66096650D02*
X114506700Y-66096650D01*
X113303350Y-68903350D02*
X114506700Y-68903350D01*
X110496650Y-66296650D02*
X110496650Y-67500000D01*
X110496650Y-64893300D02*
X110496650Y-66096650D01*
X110296650Y-70306700D02*
X110296650Y-69103350D01*
X113103350Y-67500000D02*
X113103350Y-66296650D01*
X114506700Y-70306700D02*
X114506700Y-69103350D01*
X113303350Y-67500000D02*
X114506700Y-67500000D01*
X113103350Y-67700000D02*
X111900000Y-67700000D01*
X111900000Y-66296650D02*
X111900000Y-67500000D01*
X111700000Y-66296650D02*
X110496650Y-66296650D01*
X109093300Y-66296650D02*
X109093300Y-67500000D01*
X110496650Y-67700000D02*
X110496650Y-68903350D01*
X109093300Y-69103350D02*
X109093300Y-70306700D01*
X113303350Y-64893300D02*
X113303350Y-66096650D01*
X111900000Y-67500000D02*
X113103350Y-67500000D01*
X111900000Y-68903350D02*
X113103350Y-68903350D01*
X110496650Y-69103350D02*
X110496650Y-70306700D01*
X114506700Y-66096650D02*
X114506700Y-64893300D01*
X111700000Y-67700000D02*
X110496650Y-67700000D01*
X113103350Y-66296650D02*
X111900000Y-66296650D01*
X113303350Y-70306700D02*
X114506700Y-70306700D01*
X111900000Y-70306700D02*
X113103350Y-70306700D01*
X114506700Y-66296650D02*
X113303350Y-66296650D01*
X109093300Y-66096650D02*
X110296650Y-66096650D01*
X113303350Y-67700000D02*
X113303350Y-68903350D01*
X110296650Y-67500000D02*
X110296650Y-66296650D01*
X111700000Y-66096650D02*
X111700000Y-64893300D01*
X110496650Y-68903350D02*
X111700000Y-68903350D01*
X114506700Y-68903350D02*
X114506700Y-67700000D01*
X111900000Y-66096650D02*
X113103350Y-66096650D01*
X110296650Y-68903350D02*
X110296650Y-67700000D01*
X109093300Y-68903350D02*
X110296650Y-68903350D01*
X109093300Y-70306700D02*
X110296650Y-70306700D01*
%TD*%
D11*
%TO.C,C42*%
X138080000Y-59440000D03*
X137120000Y-59440000D03*
%TD*%
%TO.C,C35*%
X150530000Y-58200000D03*
X149570000Y-58200000D03*
%TD*%
D12*
%TO.C,D1*%
X104300000Y-75912500D03*
X104300000Y-77487500D03*
%TD*%
D13*
%TO.C,C2*%
X119070000Y-63900000D03*
X120030000Y-63900000D03*
%TD*%
D14*
%TO.C,L5*%
X127500000Y-63755000D03*
X127500000Y-64445000D03*
%TD*%
D15*
%TO.C,L1*%
X119900000Y-62762500D03*
X119900000Y-60637500D03*
%TD*%
D16*
%TO.C,U8*%
X141500000Y-71800000D03*
X142800000Y-71800000D03*
X144100000Y-71800000D03*
X142800000Y-73100000D03*
X144100000Y-73100000D03*
X142800000Y-74400000D03*
X144100000Y-74400000D03*
D17*
X145400000Y-76250000D03*
X144750000Y-76250000D03*
X144100000Y-76250000D03*
X143450000Y-76250000D03*
X142800000Y-76250000D03*
X142150000Y-76250000D03*
X141500000Y-76250000D03*
X140850000Y-76250000D03*
X140200000Y-76250000D03*
D18*
X139650000Y-75700000D03*
X139650000Y-75050000D03*
X139650000Y-74400000D03*
X139650000Y-73750000D03*
X139650000Y-73100000D03*
X139650000Y-72450000D03*
X139650000Y-71800000D03*
X139650000Y-71150000D03*
X139650000Y-70500000D03*
D17*
X140200000Y-69950000D03*
X140850000Y-69950000D03*
X141500000Y-69950000D03*
X142150000Y-69950000D03*
X142800000Y-69950000D03*
X143450000Y-69950000D03*
X144100000Y-69950000D03*
X144750000Y-69950000D03*
X145400000Y-69950000D03*
D18*
X145950000Y-70500000D03*
X145950000Y-71150000D03*
X145950000Y-71800000D03*
X145950000Y-72450000D03*
X145950000Y-73100000D03*
X145950000Y-73750000D03*
X145950000Y-74400000D03*
X145950000Y-75050000D03*
X145950000Y-75700000D03*
%TD*%
D19*
%TO.C,C16*%
X129045000Y-71350000D03*
X128355000Y-71350000D03*
%TD*%
D20*
%TO.C,R4*%
X147600000Y-60740000D03*
X147600000Y-61760000D03*
%TD*%
D21*
%TO.C,L15*%
X135543952Y-62143952D03*
X135056048Y-61656048D03*
%TD*%
D22*
%TO.C,C50*%
X135556048Y-66643952D03*
X136043952Y-66156048D03*
%TD*%
D23*
%TO.C,C53*%
X113800000Y-73245000D03*
X113800000Y-72555000D03*
%TD*%
D19*
%TO.C,R10*%
X106825000Y-64450000D03*
X106135000Y-64450000D03*
%TD*%
D23*
%TO.C,C28*%
X111500000Y-72555000D03*
X111500000Y-73245000D03*
%TD*%
D24*
%TO.C,FL2*%
X133700000Y-67350000D03*
X133315000Y-67350000D03*
X133315000Y-66850000D03*
X133700000Y-66850000D03*
X134085000Y-67100000D03*
%TD*%
D11*
%TO.C,C3*%
X125100000Y-69085000D03*
X124140000Y-69085000D03*
%TD*%
D20*
%TO.C,R12*%
X105000000Y-73690000D03*
X105000000Y-74710000D03*
%TD*%
D25*
%TO.C,R5*%
X111800000Y-58810000D03*
X111800000Y-57790000D03*
%TD*%
D11*
%TO.C,C30*%
X107980000Y-56800000D03*
X107020000Y-56800000D03*
%TD*%
D19*
%TO.C,C12*%
X128855000Y-62400000D03*
X129545000Y-62400000D03*
%TD*%
%TO.C,C39*%
X145035000Y-65350000D03*
X144345000Y-65350000D03*
%TD*%
D13*
%TO.C,C65*%
X137720000Y-70800000D03*
X138680000Y-70800000D03*
%TD*%
D26*
%TO.C,C40*%
X137945000Y-60240000D03*
X137255000Y-60240000D03*
%TD*%
D27*
%TO.C,C5*%
X121300000Y-59700000D03*
X121300000Y-60660000D03*
%TD*%
D19*
%TO.C,C46*%
X140495000Y-61100000D03*
X139805000Y-61100000D03*
%TD*%
D28*
%TO.C,J1*%
X151200000Y-63175000D03*
X151200000Y-68825000D03*
D29*
X151400000Y-66000000D03*
%TD*%
D26*
%TO.C,L4*%
X127455000Y-61700000D03*
X128145000Y-61700000D03*
%TD*%
D19*
%TO.C,C55*%
X106825000Y-69100000D03*
X106135000Y-69100000D03*
%TD*%
D30*
%TO.C,U6*%
X108400000Y-59450000D03*
X107900000Y-59450000D03*
X107400000Y-59450000D03*
X107400000Y-57950000D03*
X107900000Y-57950000D03*
X108400000Y-57950000D03*
%TD*%
D26*
%TO.C,R8*%
X106825000Y-63750000D03*
X106135000Y-63750000D03*
%TD*%
D31*
%TO.C,U3*%
X125337500Y-70935000D03*
X125337500Y-71435000D03*
X125337500Y-71935000D03*
X125337500Y-72435000D03*
X125337500Y-72935000D03*
X125337500Y-73435000D03*
D32*
X124650000Y-74122500D03*
X124150000Y-74122500D03*
X123650000Y-74122500D03*
X123150000Y-74122500D03*
X122650000Y-74122500D03*
X122150000Y-74122500D03*
D31*
X121462500Y-73435000D03*
X121462500Y-72935000D03*
X121462500Y-72435000D03*
X121462500Y-71935000D03*
X121462500Y-71435000D03*
X121462500Y-70935000D03*
D32*
X122150000Y-70247500D03*
X122650000Y-70247500D03*
X123150000Y-70247500D03*
X123650000Y-70247500D03*
X124150000Y-70247500D03*
X124650000Y-70247500D03*
D33*
X122775000Y-71560000D03*
X122775000Y-72810000D03*
X124025000Y-72810000D03*
X124025000Y-71560000D03*
%TD*%
D34*
%TO.C,L17*%
X105400000Y-60675000D03*
X105400000Y-58525000D03*
%TD*%
D27*
%TO.C,C6*%
X121250000Y-68020000D03*
X121250000Y-68980000D03*
%TD*%
D35*
%TO.C,U1*%
X109000001Y-64158300D03*
D36*
X109350000Y-64171000D03*
X109699999Y-64171000D03*
X110050001Y-64171000D03*
X110400000Y-64171000D03*
X110750000Y-64171000D03*
X111099999Y-64171000D03*
X111450001Y-64171000D03*
X111800000Y-64171000D03*
X112149999Y-64171000D03*
X112500001Y-64171000D03*
X112850000Y-64171000D03*
X113200000Y-64171000D03*
X113550002Y-64171000D03*
X113900001Y-64171000D03*
X114250000Y-64171000D03*
D35*
X114599999Y-64158300D03*
D37*
X115241700Y-64800001D03*
D38*
X115229000Y-65150000D03*
X115229000Y-65499999D03*
X115229000Y-65850001D03*
X115229000Y-66200000D03*
X115229000Y-66550000D03*
X115229000Y-66899999D03*
X115229000Y-67250001D03*
X115229000Y-67600000D03*
X115229000Y-67949999D03*
X115229000Y-68300001D03*
X115229000Y-68650000D03*
X115229000Y-69000000D03*
X115229000Y-69350002D03*
X115229000Y-69700001D03*
X115229000Y-70050000D03*
D37*
X115241700Y-70399999D03*
D35*
X114599999Y-71041700D03*
D36*
X114250000Y-71029000D03*
X113900001Y-71029000D03*
X113549999Y-71029000D03*
X113200000Y-71029000D03*
X112850000Y-71029000D03*
X112500001Y-71029000D03*
X112149999Y-71029000D03*
X111800000Y-71029000D03*
X111450001Y-71029000D03*
X111099999Y-71029000D03*
X110750000Y-71029000D03*
X110400000Y-71029000D03*
X110049998Y-71029000D03*
X109699999Y-71029000D03*
X109350000Y-71029000D03*
D35*
X109000001Y-71041700D03*
D37*
X108358300Y-70399999D03*
D38*
X108371000Y-70050000D03*
X108371000Y-69700001D03*
X108371000Y-69349999D03*
X108371000Y-69000000D03*
X108371000Y-68650000D03*
X108371000Y-68300001D03*
X108371000Y-67949999D03*
X108371000Y-67600000D03*
X108371000Y-67250001D03*
X108371000Y-66899999D03*
X108371000Y-66550000D03*
X108371000Y-66200000D03*
X108371000Y-65849998D03*
X108371000Y-65499999D03*
X108371000Y-65150000D03*
D37*
X108358300Y-64800001D03*
%TD*%
D19*
%TO.C,C47*%
X142305000Y-62550000D03*
X142995000Y-62550000D03*
%TD*%
%TO.C,C44*%
X142305000Y-63400000D03*
X142995000Y-63400000D03*
%TD*%
D14*
%TO.C,C37*%
X143450000Y-66005000D03*
X143450000Y-66695000D03*
%TD*%
%TO.C,L12*%
X139800000Y-61895000D03*
X139800000Y-62585000D03*
%TD*%
D24*
%TO.C,FL1*%
X132920000Y-61450000D03*
X133305000Y-61450000D03*
X133305000Y-61950000D03*
X132920000Y-61950000D03*
X132535000Y-61700000D03*
%TD*%
D23*
%TO.C,C56*%
X110750000Y-72555000D03*
X110750000Y-73245000D03*
%TD*%
D11*
%TO.C,C7*%
X127700000Y-59700000D03*
X126740000Y-59700000D03*
%TD*%
D23*
%TO.C,C19*%
X129900000Y-72045000D03*
X129900000Y-71355000D03*
%TD*%
D14*
%TO.C,C21*%
X111250000Y-62255000D03*
X111250000Y-62945000D03*
%TD*%
D26*
%TO.C,C61*%
X148345000Y-73100000D03*
X147655000Y-73100000D03*
%TD*%
%TO.C,C38*%
X137255000Y-61040000D03*
X137945000Y-61040000D03*
%TD*%
D14*
%TO.C,L11*%
X138800000Y-59595000D03*
X138800000Y-60285000D03*
%TD*%
D26*
%TO.C,C51*%
X135545000Y-63100000D03*
X134855000Y-63100000D03*
%TD*%
D14*
%TO.C,C41*%
X145850000Y-66695000D03*
X145850000Y-66005000D03*
%TD*%
D20*
%TO.C,R6*%
X109600000Y-57790000D03*
X109600000Y-58810000D03*
%TD*%
%TO.C,R3*%
X145600000Y-60740000D03*
X145600000Y-61760000D03*
%TD*%
D27*
%TO.C,C29*%
X153000000Y-58370000D03*
X153000000Y-59330000D03*
%TD*%
D19*
%TO.C,C57*%
X133945000Y-72200000D03*
X133255000Y-72200000D03*
%TD*%
D39*
%TO.C,U4*%
X151662500Y-59200000D03*
X151662500Y-59700000D03*
X151662500Y-60200000D03*
X151662500Y-60700000D03*
X151662500Y-61200000D03*
X149237500Y-61200000D03*
X149237500Y-60700000D03*
X149237500Y-60200000D03*
X149237500Y-59700000D03*
X149237500Y-59200000D03*
D40*
X150750000Y-60700000D03*
X150150000Y-59700000D03*
X150150000Y-60700000D03*
X150750000Y-59700000D03*
%TD*%
D41*
%TO.C,D4*%
X116450000Y-57000000D03*
X114350000Y-57000000D03*
%TD*%
D23*
%TO.C,C18*%
X129900000Y-63755000D03*
X129900000Y-64445000D03*
%TD*%
D26*
%TO.C,C11*%
X127455000Y-62400000D03*
X128145000Y-62400000D03*
%TD*%
D23*
%TO.C,C48*%
X141550000Y-65045000D03*
X141550000Y-64355000D03*
%TD*%
D42*
%TO.C,C52*%
X135556048Y-64056048D03*
X136043952Y-64543952D03*
%TD*%
D23*
%TO.C,C63*%
X153100000Y-60205000D03*
X153100000Y-60895000D03*
%TD*%
D19*
%TO.C,C25*%
X106825000Y-66300000D03*
X106135000Y-66300000D03*
%TD*%
D14*
%TO.C,C49*%
X134100000Y-61455000D03*
X134100000Y-62145000D03*
%TD*%
D19*
%TO.C,R1*%
X123545000Y-59300000D03*
X122855000Y-59300000D03*
%TD*%
D20*
%TO.C,R13*%
X106000000Y-73690000D03*
X106000000Y-74710000D03*
%TD*%
D14*
%TO.C,C13*%
X127500000Y-65255000D03*
X127500000Y-65945000D03*
%TD*%
D43*
%TO.C,J2*%
X151725000Y-75975000D03*
X151725000Y-73025000D03*
D44*
X150200000Y-74500000D03*
%TD*%
D26*
%TO.C,R14*%
X133945000Y-71500000D03*
X133255000Y-71500000D03*
%TD*%
%TO.C,L7*%
X130255000Y-61700000D03*
X130945000Y-61700000D03*
%TD*%
D24*
%TO.C,FL3*%
X139515000Y-68750000D03*
X139130000Y-68750000D03*
X139130000Y-68250000D03*
X139515000Y-68250000D03*
X139900000Y-68500000D03*
%TD*%
D26*
%TO.C,R15*%
X133945000Y-74500000D03*
X133255000Y-74500000D03*
%TD*%
D19*
%TO.C,C43*%
X140495000Y-60300000D03*
X139805000Y-60300000D03*
%TD*%
D12*
%TO.C,D3*%
X107300000Y-75912500D03*
X107300000Y-77487500D03*
%TD*%
D14*
%TO.C,C45*%
X148250000Y-66005000D03*
X148250000Y-66695000D03*
%TD*%
D12*
%TO.C,D2*%
X105800000Y-75912500D03*
X105800000Y-77487500D03*
%TD*%
D19*
%TO.C,C62*%
X117275000Y-59050000D03*
X116585000Y-59050000D03*
%TD*%
D14*
%TO.C,L6*%
X127500000Y-71340000D03*
X127500000Y-72030000D03*
%TD*%
D31*
%TO.C,U2*%
X125337500Y-62525000D03*
X125337500Y-63025000D03*
X125337500Y-63525000D03*
X125337500Y-64025000D03*
X125337500Y-64525000D03*
X125337500Y-65025000D03*
D32*
X124650000Y-65712500D03*
X124150000Y-65712500D03*
X123650000Y-65712500D03*
X123150000Y-65712500D03*
X122650000Y-65712500D03*
X122150000Y-65712500D03*
D31*
X121462500Y-65025000D03*
X121462500Y-64525000D03*
X121462500Y-64025000D03*
X121462500Y-63525000D03*
X121462500Y-63025000D03*
X121462500Y-62525000D03*
D32*
X122150000Y-61837500D03*
X122650000Y-61837500D03*
X123150000Y-61837500D03*
X123650000Y-61837500D03*
X124150000Y-61837500D03*
X124650000Y-61837500D03*
D33*
X124025000Y-64400000D03*
X122775000Y-64400000D03*
X122775000Y-63150000D03*
X124025000Y-63150000D03*
%TD*%
D14*
%TO.C,C26*%
X113300000Y-62945000D03*
X113300000Y-62255000D03*
%TD*%
%TO.C,C20*%
X131700000Y-61705000D03*
X131700000Y-62395000D03*
%TD*%
D26*
%TO.C,C22*%
X116644273Y-66300000D03*
X117334273Y-66300000D03*
%TD*%
D27*
%TO.C,C32*%
X110700000Y-57820000D03*
X110700000Y-58780000D03*
%TD*%
%TO.C,C1*%
X124400000Y-59740000D03*
X124400000Y-60700000D03*
%TD*%
D13*
%TO.C,C4*%
X119040000Y-72200000D03*
X120000000Y-72200000D03*
%TD*%
D14*
%TO.C,C8*%
X123500000Y-60745000D03*
X123500000Y-60055000D03*
%TD*%
D45*
%TO.C,U5*%
X117225000Y-60225000D03*
X117225000Y-61875000D03*
X115675000Y-61875000D03*
X115675000Y-60225000D03*
%TD*%
D26*
%TO.C,R16*%
X133945000Y-73000000D03*
X133255000Y-73000000D03*
%TD*%
D20*
%TO.C,R11*%
X104000000Y-73690000D03*
X104000000Y-74710000D03*
%TD*%
D15*
%TO.C,L2*%
X119900000Y-71062500D03*
X119900000Y-68937500D03*
%TD*%
D19*
%TO.C,C14*%
X129045000Y-72000000D03*
X128355000Y-72000000D03*
%TD*%
D23*
%TO.C,L3*%
X126700000Y-62395000D03*
X126700000Y-61705000D03*
%TD*%
D26*
%TO.C,R9*%
X106135000Y-68000000D03*
X106825000Y-68000000D03*
%TD*%
D46*
%TO.C,C34*%
X108975000Y-60800000D03*
X107425000Y-60800000D03*
%TD*%
D19*
%TO.C,C17*%
X128855000Y-61700000D03*
X129545000Y-61700000D03*
%TD*%
D14*
%TO.C,L8*%
X138000000Y-62585000D03*
X138000000Y-61895000D03*
%TD*%
D11*
%TO.C,C33*%
X150530000Y-57250000D03*
X149570000Y-57250000D03*
%TD*%
D19*
%TO.C,C23*%
X106825000Y-69800000D03*
X106135000Y-69800000D03*
%TD*%
%TO.C,R2*%
X123245000Y-67700000D03*
X122555000Y-67700000D03*
%TD*%
%TO.C,C54*%
X106825000Y-65600000D03*
X106135000Y-65600000D03*
%TD*%
D47*
%TO.C,C31*%
X146600000Y-61730000D03*
X146600000Y-60770000D03*
%TD*%
D23*
%TO.C,C24*%
X112999998Y-73245000D03*
X112999998Y-72555000D03*
%TD*%
D14*
%TO.C,C9*%
X123300000Y-69145000D03*
X123300000Y-68455000D03*
%TD*%
D19*
%TO.C,R7*%
X106135000Y-67000000D03*
X106825000Y-67000000D03*
%TD*%
D48*
%TO.C,U7*%
X138290000Y-63837500D03*
X138790000Y-63837500D03*
X139290000Y-63837500D03*
X139790000Y-63837500D03*
D49*
X140502500Y-64550000D03*
X140502500Y-65050000D03*
X140502500Y-65550000D03*
X140502500Y-66050000D03*
D48*
X139790000Y-66762500D03*
X139290000Y-66762500D03*
X138790000Y-66762500D03*
X138290000Y-66762500D03*
D49*
X137577500Y-66050000D03*
X137577500Y-65550000D03*
X137577500Y-65050000D03*
X137577500Y-64550000D03*
D50*
X138600000Y-64860000D03*
X139480000Y-65740000D03*
X139480000Y-64860000D03*
X138600000Y-65740000D03*
%TD*%
D26*
%TO.C,L10*%
X140705000Y-62550000D03*
X141395000Y-62550000D03*
%TD*%
D23*
%TO.C,L14*%
X142300000Y-64355000D03*
X142300000Y-65045000D03*
%TD*%
D22*
%TO.C,C60*%
X147643952Y-75156048D03*
X147156048Y-75643952D03*
%TD*%
D26*
%TO.C,L13*%
X147395000Y-66050000D03*
X146705000Y-66050000D03*
%TD*%
D19*
%TO.C,C58*%
X133945000Y-75200000D03*
X133255000Y-75200000D03*
%TD*%
D26*
%TO.C,L9*%
X145035000Y-66050000D03*
X144345000Y-66050000D03*
%TD*%
D19*
%TO.C,C15*%
X129045000Y-63750000D03*
X128355000Y-63750000D03*
%TD*%
D23*
%TO.C,L16*%
X148300000Y-74545000D03*
X148300000Y-73855000D03*
%TD*%
D19*
%TO.C,C59*%
X133255000Y-73700000D03*
X133945000Y-73700000D03*
%TD*%
D51*
%TO.C,R17*%
X148310000Y-72200000D03*
X147290000Y-72200000D03*
%TD*%
D26*
%TO.C,C27*%
X117345000Y-68650000D03*
X116655000Y-68650000D03*
%TD*%
D13*
%TO.C,C64*%
X137720000Y-71900000D03*
X138680000Y-71900000D03*
%TD*%
D11*
%TO.C,C10*%
X127700000Y-60700000D03*
X126740000Y-60700000D03*
%TD*%
M02*
