%TF.GenerationSoftware,KiCad,Pcbnew,(5.99.0-6542-g16b0689841)*%
%TF.CreationDate,2021-03-01T15:30:54-08:00*%
%TF.ProjectId,LoRa-GW-FeatherWing,4c6f5261-2d47-4572-9d46-656174686572,rev?*%
%TF.SameCoordinates,Original*%
%TF.FileFunction,Legend,Top*%
%TF.FilePolarity,Positive*%
%FSLAX46Y46*%
G04 Gerber Fmt 4.6, Leading zero omitted, Abs format (unit mm)*
G04 Created by KiCad (PCBNEW (5.99.0-6542-g16b0689841)) date 2021-03-01 15:30:54*
%MOMM*%
%LPD*%
G01*
G04 APERTURE LIST*
%ADD10C,0.125000*%
%ADD11C,0.015000*%
%ADD12C,0.150000*%
%ADD13C,0.120000*%
%ADD14C,0.127000*%
%ADD15C,0.152400*%
G04 APERTURE END LIST*
D10*
%TO.C,C42*%
X135778571Y-58978571D02*
X135754761Y-59002380D01*
X135683333Y-59026190D01*
X135635714Y-59026190D01*
X135564285Y-59002380D01*
X135516666Y-58954761D01*
X135492857Y-58907142D01*
X135469047Y-58811904D01*
X135469047Y-58740476D01*
X135492857Y-58645238D01*
X135516666Y-58597619D01*
X135564285Y-58550000D01*
X135635714Y-58526190D01*
X135683333Y-58526190D01*
X135754761Y-58550000D01*
X135778571Y-58573809D01*
X136207142Y-58692857D02*
X136207142Y-59026190D01*
X136088095Y-58502380D02*
X135969047Y-58859523D01*
X136278571Y-58859523D01*
X136445238Y-58573809D02*
X136469047Y-58550000D01*
X136516666Y-58526190D01*
X136635714Y-58526190D01*
X136683333Y-58550000D01*
X136707142Y-58573809D01*
X136730952Y-58621428D01*
X136730952Y-58669047D01*
X136707142Y-58740476D01*
X136421428Y-59026190D01*
X136730952Y-59026190D01*
%TO.C,C35*%
X151478571Y-58378571D02*
X151454761Y-58402380D01*
X151383333Y-58426190D01*
X151335714Y-58426190D01*
X151264285Y-58402380D01*
X151216666Y-58354761D01*
X151192857Y-58307142D01*
X151169047Y-58211904D01*
X151169047Y-58140476D01*
X151192857Y-58045238D01*
X151216666Y-57997619D01*
X151264285Y-57950000D01*
X151335714Y-57926190D01*
X151383333Y-57926190D01*
X151454761Y-57950000D01*
X151478571Y-57973809D01*
X151645238Y-57926190D02*
X151954761Y-57926190D01*
X151788095Y-58116666D01*
X151859523Y-58116666D01*
X151907142Y-58140476D01*
X151930952Y-58164285D01*
X151954761Y-58211904D01*
X151954761Y-58330952D01*
X151930952Y-58378571D01*
X151907142Y-58402380D01*
X151859523Y-58426190D01*
X151716666Y-58426190D01*
X151669047Y-58402380D01*
X151645238Y-58378571D01*
X152407142Y-57926190D02*
X152169047Y-57926190D01*
X152145238Y-58164285D01*
X152169047Y-58140476D01*
X152216666Y-58116666D01*
X152335714Y-58116666D01*
X152383333Y-58140476D01*
X152407142Y-58164285D01*
X152430952Y-58211904D01*
X152430952Y-58330952D01*
X152407142Y-58378571D01*
X152383333Y-58402380D01*
X152335714Y-58426190D01*
X152216666Y-58426190D01*
X152169047Y-58402380D01*
X152145238Y-58378571D01*
%TO.C,D1*%
X107826190Y-75069047D02*
X107326190Y-75069047D01*
X107326190Y-74950000D01*
X107350000Y-74878571D01*
X107397619Y-74830952D01*
X107445238Y-74807142D01*
X107540476Y-74783333D01*
X107611904Y-74783333D01*
X107707142Y-74807142D01*
X107754761Y-74830952D01*
X107802380Y-74878571D01*
X107826190Y-74950000D01*
X107826190Y-75069047D01*
X107826190Y-74307142D02*
X107826190Y-74592857D01*
X107826190Y-74450000D02*
X107326190Y-74450000D01*
X107397619Y-74497619D01*
X107445238Y-74545238D01*
X107469047Y-74592857D01*
%TO.C,C2*%
X119466666Y-65078571D02*
X119442857Y-65102380D01*
X119371428Y-65126190D01*
X119323809Y-65126190D01*
X119252380Y-65102380D01*
X119204761Y-65054761D01*
X119180952Y-65007142D01*
X119157142Y-64911904D01*
X119157142Y-64840476D01*
X119180952Y-64745238D01*
X119204761Y-64697619D01*
X119252380Y-64650000D01*
X119323809Y-64626190D01*
X119371428Y-64626190D01*
X119442857Y-64650000D01*
X119466666Y-64673809D01*
X119657142Y-64673809D02*
X119680952Y-64650000D01*
X119728571Y-64626190D01*
X119847619Y-64626190D01*
X119895238Y-64650000D01*
X119919047Y-64673809D01*
X119942857Y-64721428D01*
X119942857Y-64769047D01*
X119919047Y-64840476D01*
X119633333Y-65126190D01*
X119942857Y-65126190D01*
%TO.C,L5*%
X127026190Y-64183333D02*
X127026190Y-64421428D01*
X126526190Y-64421428D01*
X126526190Y-63778571D02*
X126526190Y-64016666D01*
X126764285Y-64040476D01*
X126740476Y-64016666D01*
X126716666Y-63969047D01*
X126716666Y-63850000D01*
X126740476Y-63802380D01*
X126764285Y-63778571D01*
X126811904Y-63754761D01*
X126930952Y-63754761D01*
X126978571Y-63778571D01*
X127002380Y-63802380D01*
X127026190Y-63850000D01*
X127026190Y-63969047D01*
X127002380Y-64016666D01*
X126978571Y-64040476D01*
%TO.C,L1*%
X118926190Y-60483333D02*
X118926190Y-60721428D01*
X118426190Y-60721428D01*
X118926190Y-60054761D02*
X118926190Y-60340476D01*
X118926190Y-60197619D02*
X118426190Y-60197619D01*
X118497619Y-60245238D01*
X118545238Y-60292857D01*
X118569047Y-60340476D01*
%TO.C,U8*%
X138119047Y-75926190D02*
X138119047Y-76330952D01*
X138142857Y-76378571D01*
X138166666Y-76402380D01*
X138214285Y-76426190D01*
X138309523Y-76426190D01*
X138357142Y-76402380D01*
X138380952Y-76378571D01*
X138404761Y-76330952D01*
X138404761Y-75926190D01*
X138714285Y-76140476D02*
X138666666Y-76116666D01*
X138642857Y-76092857D01*
X138619047Y-76045238D01*
X138619047Y-76021428D01*
X138642857Y-75973809D01*
X138666666Y-75950000D01*
X138714285Y-75926190D01*
X138809523Y-75926190D01*
X138857142Y-75950000D01*
X138880952Y-75973809D01*
X138904761Y-76021428D01*
X138904761Y-76045238D01*
X138880952Y-76092857D01*
X138857142Y-76116666D01*
X138809523Y-76140476D01*
X138714285Y-76140476D01*
X138666666Y-76164285D01*
X138642857Y-76188095D01*
X138619047Y-76235714D01*
X138619047Y-76330952D01*
X138642857Y-76378571D01*
X138666666Y-76402380D01*
X138714285Y-76426190D01*
X138809523Y-76426190D01*
X138857142Y-76402380D01*
X138880952Y-76378571D01*
X138904761Y-76330952D01*
X138904761Y-76235714D01*
X138880952Y-76188095D01*
X138857142Y-76164285D01*
X138809523Y-76140476D01*
D11*
X147142857Y-75726190D02*
X146857142Y-75726190D01*
X147000000Y-75726190D02*
X147000000Y-75226190D01*
X146952380Y-75297619D01*
X146904761Y-75345238D01*
X146857142Y-75369047D01*
D10*
%TO.C,C16*%
X128378571Y-70778571D02*
X128354761Y-70802380D01*
X128283333Y-70826190D01*
X128235714Y-70826190D01*
X128164285Y-70802380D01*
X128116666Y-70754761D01*
X128092857Y-70707142D01*
X128069047Y-70611904D01*
X128069047Y-70540476D01*
X128092857Y-70445238D01*
X128116666Y-70397619D01*
X128164285Y-70350000D01*
X128235714Y-70326190D01*
X128283333Y-70326190D01*
X128354761Y-70350000D01*
X128378571Y-70373809D01*
X128854761Y-70826190D02*
X128569047Y-70826190D01*
X128711904Y-70826190D02*
X128711904Y-70326190D01*
X128664285Y-70397619D01*
X128616666Y-70445238D01*
X128569047Y-70469047D01*
X129283333Y-70326190D02*
X129188095Y-70326190D01*
X129140476Y-70350000D01*
X129116666Y-70373809D01*
X129069047Y-70445238D01*
X129045238Y-70540476D01*
X129045238Y-70730952D01*
X129069047Y-70778571D01*
X129092857Y-70802380D01*
X129140476Y-70826190D01*
X129235714Y-70826190D01*
X129283333Y-70802380D01*
X129307142Y-70778571D01*
X129330952Y-70730952D01*
X129330952Y-70611904D01*
X129307142Y-70564285D01*
X129283333Y-70540476D01*
X129235714Y-70516666D01*
X129140476Y-70516666D01*
X129092857Y-70540476D01*
X129069047Y-70564285D01*
X129045238Y-70611904D01*
%TO.C,R4*%
X147826190Y-59883333D02*
X147588095Y-60050000D01*
X147826190Y-60169047D02*
X147326190Y-60169047D01*
X147326190Y-59978571D01*
X147350000Y-59930952D01*
X147373809Y-59907142D01*
X147421428Y-59883333D01*
X147492857Y-59883333D01*
X147540476Y-59907142D01*
X147564285Y-59930952D01*
X147588095Y-59978571D01*
X147588095Y-60169047D01*
X147492857Y-59454761D02*
X147826190Y-59454761D01*
X147302380Y-59573809D02*
X147659523Y-59692857D01*
X147659523Y-59383333D01*
%TO.C,L15*%
X135412774Y-61332656D02*
X135244416Y-61164297D01*
X135597969Y-60810744D01*
X135715820Y-61635702D02*
X135513790Y-61433671D01*
X135614805Y-61534687D02*
X135968358Y-61181133D01*
X135884179Y-61197969D01*
X135816835Y-61197969D01*
X135766328Y-61181133D01*
X136389255Y-61602030D02*
X136220896Y-61433671D01*
X136035702Y-61585194D01*
X136069374Y-61585194D01*
X136119881Y-61602030D01*
X136204061Y-61686209D01*
X136220896Y-61736717D01*
X136220896Y-61770389D01*
X136204061Y-61820896D01*
X136119881Y-61905076D01*
X136069374Y-61921912D01*
X136035702Y-61921912D01*
X135985194Y-61905076D01*
X135901015Y-61820896D01*
X135884179Y-61770389D01*
X135884179Y-61736717D01*
%TO.C,C50*%
X136198984Y-67253553D02*
X136198984Y-67287225D01*
X136165312Y-67354568D01*
X136131641Y-67388240D01*
X136064297Y-67421912D01*
X135996954Y-67421912D01*
X135946446Y-67405076D01*
X135862267Y-67354568D01*
X135811759Y-67304061D01*
X135761251Y-67219881D01*
X135744416Y-67169374D01*
X135744416Y-67102030D01*
X135778087Y-67034687D01*
X135811759Y-67001015D01*
X135879103Y-66967343D01*
X135912774Y-66967343D01*
X136198984Y-66613790D02*
X136030625Y-66782148D01*
X136182148Y-66967343D01*
X136182148Y-66933671D01*
X136198984Y-66883164D01*
X136283164Y-66798984D01*
X136333671Y-66782148D01*
X136367343Y-66782148D01*
X136417851Y-66798984D01*
X136502030Y-66883164D01*
X136518866Y-66933671D01*
X136518866Y-66967343D01*
X136502030Y-67017851D01*
X136417851Y-67102030D01*
X136367343Y-67118866D01*
X136333671Y-67118866D01*
X136434687Y-66378087D02*
X136468358Y-66344416D01*
X136518866Y-66327580D01*
X136552538Y-66327580D01*
X136603045Y-66344416D01*
X136687225Y-66394923D01*
X136771404Y-66479103D01*
X136821912Y-66563282D01*
X136838748Y-66613790D01*
X136838748Y-66647461D01*
X136821912Y-66697969D01*
X136788240Y-66731641D01*
X136737732Y-66748477D01*
X136704061Y-66748477D01*
X136653553Y-66731641D01*
X136569374Y-66681133D01*
X136485194Y-66596954D01*
X136434687Y-66512774D01*
X136417851Y-66462267D01*
X136417851Y-66428595D01*
X136434687Y-66378087D01*
%TO.C,C53*%
X113621428Y-74078571D02*
X113597619Y-74054761D01*
X113573809Y-73983333D01*
X113573809Y-73935714D01*
X113597619Y-73864285D01*
X113645238Y-73816666D01*
X113692857Y-73792857D01*
X113788095Y-73769047D01*
X113859523Y-73769047D01*
X113954761Y-73792857D01*
X114002380Y-73816666D01*
X114050000Y-73864285D01*
X114073809Y-73935714D01*
X114073809Y-73983333D01*
X114050000Y-74054761D01*
X114026190Y-74078571D01*
X114073809Y-74530952D02*
X114073809Y-74292857D01*
X113835714Y-74269047D01*
X113859523Y-74292857D01*
X113883333Y-74340476D01*
X113883333Y-74459523D01*
X113859523Y-74507142D01*
X113835714Y-74530952D01*
X113788095Y-74554761D01*
X113669047Y-74554761D01*
X113621428Y-74530952D01*
X113597619Y-74507142D01*
X113573809Y-74459523D01*
X113573809Y-74340476D01*
X113597619Y-74292857D01*
X113621428Y-74269047D01*
X114073809Y-74721428D02*
X114073809Y-75030952D01*
X113883333Y-74864285D01*
X113883333Y-74935714D01*
X113859523Y-74983333D01*
X113835714Y-75007142D01*
X113788095Y-75030952D01*
X113669047Y-75030952D01*
X113621428Y-75007142D01*
X113597619Y-74983333D01*
X113573809Y-74935714D01*
X113573809Y-74792857D01*
X113597619Y-74745238D01*
X113621428Y-74721428D01*
%TO.C,R10*%
X104678571Y-64726190D02*
X104511904Y-64488095D01*
X104392857Y-64726190D02*
X104392857Y-64226190D01*
X104583333Y-64226190D01*
X104630952Y-64250000D01*
X104654761Y-64273809D01*
X104678571Y-64321428D01*
X104678571Y-64392857D01*
X104654761Y-64440476D01*
X104630952Y-64464285D01*
X104583333Y-64488095D01*
X104392857Y-64488095D01*
X105154761Y-64726190D02*
X104869047Y-64726190D01*
X105011904Y-64726190D02*
X105011904Y-64226190D01*
X104964285Y-64297619D01*
X104916666Y-64345238D01*
X104869047Y-64369047D01*
X105464285Y-64226190D02*
X105511904Y-64226190D01*
X105559523Y-64250000D01*
X105583333Y-64273809D01*
X105607142Y-64321428D01*
X105630952Y-64416666D01*
X105630952Y-64535714D01*
X105607142Y-64630952D01*
X105583333Y-64678571D01*
X105559523Y-64702380D01*
X105511904Y-64726190D01*
X105464285Y-64726190D01*
X105416666Y-64702380D01*
X105392857Y-64678571D01*
X105369047Y-64630952D01*
X105345238Y-64535714D01*
X105345238Y-64416666D01*
X105369047Y-64321428D01*
X105392857Y-64273809D01*
X105416666Y-64250000D01*
X105464285Y-64226190D01*
%TO.C,C28*%
X111321428Y-74078571D02*
X111297619Y-74054761D01*
X111273809Y-73983333D01*
X111273809Y-73935714D01*
X111297619Y-73864285D01*
X111345238Y-73816666D01*
X111392857Y-73792857D01*
X111488095Y-73769047D01*
X111559523Y-73769047D01*
X111654761Y-73792857D01*
X111702380Y-73816666D01*
X111750000Y-73864285D01*
X111773809Y-73935714D01*
X111773809Y-73983333D01*
X111750000Y-74054761D01*
X111726190Y-74078571D01*
X111726190Y-74269047D02*
X111750000Y-74292857D01*
X111773809Y-74340476D01*
X111773809Y-74459523D01*
X111750000Y-74507142D01*
X111726190Y-74530952D01*
X111678571Y-74554761D01*
X111630952Y-74554761D01*
X111559523Y-74530952D01*
X111273809Y-74245238D01*
X111273809Y-74554761D01*
X111559523Y-74840476D02*
X111583333Y-74792857D01*
X111607142Y-74769047D01*
X111654761Y-74745238D01*
X111678571Y-74745238D01*
X111726190Y-74769047D01*
X111750000Y-74792857D01*
X111773809Y-74840476D01*
X111773809Y-74935714D01*
X111750000Y-74983333D01*
X111726190Y-75007142D01*
X111678571Y-75030952D01*
X111654761Y-75030952D01*
X111607142Y-75007142D01*
X111583333Y-74983333D01*
X111559523Y-74935714D01*
X111559523Y-74840476D01*
X111535714Y-74792857D01*
X111511904Y-74769047D01*
X111464285Y-74745238D01*
X111369047Y-74745238D01*
X111321428Y-74769047D01*
X111297619Y-74792857D01*
X111273809Y-74840476D01*
X111273809Y-74935714D01*
X111297619Y-74983333D01*
X111321428Y-75007142D01*
X111369047Y-75030952D01*
X111464285Y-75030952D01*
X111511904Y-75007142D01*
X111535714Y-74983333D01*
X111559523Y-74935714D01*
%TO.C,FL2*%
X133330952Y-68164285D02*
X133164285Y-68164285D01*
X133164285Y-68426190D02*
X133164285Y-67926190D01*
X133402380Y-67926190D01*
X133830952Y-68426190D02*
X133592857Y-68426190D01*
X133592857Y-67926190D01*
X133973809Y-67973809D02*
X133997619Y-67950000D01*
X134045238Y-67926190D01*
X134164285Y-67926190D01*
X134211904Y-67950000D01*
X134235714Y-67973809D01*
X134259523Y-68021428D01*
X134259523Y-68069047D01*
X134235714Y-68140476D01*
X133950000Y-68426190D01*
X134259523Y-68426190D01*
%TO.C,C3*%
X124516666Y-68378571D02*
X124492857Y-68402380D01*
X124421428Y-68426190D01*
X124373809Y-68426190D01*
X124302380Y-68402380D01*
X124254761Y-68354761D01*
X124230952Y-68307142D01*
X124207142Y-68211904D01*
X124207142Y-68140476D01*
X124230952Y-68045238D01*
X124254761Y-67997619D01*
X124302380Y-67950000D01*
X124373809Y-67926190D01*
X124421428Y-67926190D01*
X124492857Y-67950000D01*
X124516666Y-67973809D01*
X124683333Y-67926190D02*
X124992857Y-67926190D01*
X124826190Y-68116666D01*
X124897619Y-68116666D01*
X124945238Y-68140476D01*
X124969047Y-68164285D01*
X124992857Y-68211904D01*
X124992857Y-68330952D01*
X124969047Y-68378571D01*
X124945238Y-68402380D01*
X124897619Y-68426190D01*
X124754761Y-68426190D01*
X124707142Y-68402380D01*
X124683333Y-68378571D01*
%TO.C,R12*%
X105226190Y-72821428D02*
X104988095Y-72988095D01*
X105226190Y-73107142D02*
X104726190Y-73107142D01*
X104726190Y-72916666D01*
X104750000Y-72869047D01*
X104773809Y-72845238D01*
X104821428Y-72821428D01*
X104892857Y-72821428D01*
X104940476Y-72845238D01*
X104964285Y-72869047D01*
X104988095Y-72916666D01*
X104988095Y-73107142D01*
X105226190Y-72345238D02*
X105226190Y-72630952D01*
X105226190Y-72488095D02*
X104726190Y-72488095D01*
X104797619Y-72535714D01*
X104845238Y-72583333D01*
X104869047Y-72630952D01*
X104773809Y-72154761D02*
X104750000Y-72130952D01*
X104726190Y-72083333D01*
X104726190Y-71964285D01*
X104750000Y-71916666D01*
X104773809Y-71892857D01*
X104821428Y-71869047D01*
X104869047Y-71869047D01*
X104940476Y-71892857D01*
X105226190Y-72178571D01*
X105226190Y-71869047D01*
%TO.C,R5*%
X112026190Y-59883333D02*
X111788095Y-60050000D01*
X112026190Y-60169047D02*
X111526190Y-60169047D01*
X111526190Y-59978571D01*
X111550000Y-59930952D01*
X111573809Y-59907142D01*
X111621428Y-59883333D01*
X111692857Y-59883333D01*
X111740476Y-59907142D01*
X111764285Y-59930952D01*
X111788095Y-59978571D01*
X111788095Y-60169047D01*
X111526190Y-59430952D02*
X111526190Y-59669047D01*
X111764285Y-59692857D01*
X111740476Y-59669047D01*
X111716666Y-59621428D01*
X111716666Y-59502380D01*
X111740476Y-59454761D01*
X111764285Y-59430952D01*
X111811904Y-59407142D01*
X111930952Y-59407142D01*
X111978571Y-59430952D01*
X112002380Y-59454761D01*
X112026190Y-59502380D01*
X112026190Y-59621428D01*
X112002380Y-59669047D01*
X111978571Y-59692857D01*
%TO.C,C30*%
X108978571Y-56978571D02*
X108954761Y-57002380D01*
X108883333Y-57026190D01*
X108835714Y-57026190D01*
X108764285Y-57002380D01*
X108716666Y-56954761D01*
X108692857Y-56907142D01*
X108669047Y-56811904D01*
X108669047Y-56740476D01*
X108692857Y-56645238D01*
X108716666Y-56597619D01*
X108764285Y-56550000D01*
X108835714Y-56526190D01*
X108883333Y-56526190D01*
X108954761Y-56550000D01*
X108978571Y-56573809D01*
X109145238Y-56526190D02*
X109454761Y-56526190D01*
X109288095Y-56716666D01*
X109359523Y-56716666D01*
X109407142Y-56740476D01*
X109430952Y-56764285D01*
X109454761Y-56811904D01*
X109454761Y-56930952D01*
X109430952Y-56978571D01*
X109407142Y-57002380D01*
X109359523Y-57026190D01*
X109216666Y-57026190D01*
X109169047Y-57002380D01*
X109145238Y-56978571D01*
X109764285Y-56526190D02*
X109811904Y-56526190D01*
X109859523Y-56550000D01*
X109883333Y-56573809D01*
X109907142Y-56621428D01*
X109930952Y-56716666D01*
X109930952Y-56835714D01*
X109907142Y-56930952D01*
X109883333Y-56978571D01*
X109859523Y-57002380D01*
X109811904Y-57026190D01*
X109764285Y-57026190D01*
X109716666Y-57002380D01*
X109692857Y-56978571D01*
X109669047Y-56930952D01*
X109645238Y-56835714D01*
X109645238Y-56716666D01*
X109669047Y-56621428D01*
X109692857Y-56573809D01*
X109716666Y-56550000D01*
X109764285Y-56526190D01*
%TO.C,C12*%
X131378571Y-60578571D02*
X131354761Y-60602380D01*
X131283333Y-60626190D01*
X131235714Y-60626190D01*
X131164285Y-60602380D01*
X131116666Y-60554761D01*
X131092857Y-60507142D01*
X131069047Y-60411904D01*
X131069047Y-60340476D01*
X131092857Y-60245238D01*
X131116666Y-60197619D01*
X131164285Y-60150000D01*
X131235714Y-60126190D01*
X131283333Y-60126190D01*
X131354761Y-60150000D01*
X131378571Y-60173809D01*
X131854761Y-60626190D02*
X131569047Y-60626190D01*
X131711904Y-60626190D02*
X131711904Y-60126190D01*
X131664285Y-60197619D01*
X131616666Y-60245238D01*
X131569047Y-60269047D01*
X132045238Y-60173809D02*
X132069047Y-60150000D01*
X132116666Y-60126190D01*
X132235714Y-60126190D01*
X132283333Y-60150000D01*
X132307142Y-60173809D01*
X132330952Y-60221428D01*
X132330952Y-60269047D01*
X132307142Y-60340476D01*
X132021428Y-60626190D01*
X132330952Y-60626190D01*
%TO.C,C39*%
X144378571Y-64778571D02*
X144354761Y-64802380D01*
X144283333Y-64826190D01*
X144235714Y-64826190D01*
X144164285Y-64802380D01*
X144116666Y-64754761D01*
X144092857Y-64707142D01*
X144069047Y-64611904D01*
X144069047Y-64540476D01*
X144092857Y-64445238D01*
X144116666Y-64397619D01*
X144164285Y-64350000D01*
X144235714Y-64326190D01*
X144283333Y-64326190D01*
X144354761Y-64350000D01*
X144378571Y-64373809D01*
X144545238Y-64326190D02*
X144854761Y-64326190D01*
X144688095Y-64516666D01*
X144759523Y-64516666D01*
X144807142Y-64540476D01*
X144830952Y-64564285D01*
X144854761Y-64611904D01*
X144854761Y-64730952D01*
X144830952Y-64778571D01*
X144807142Y-64802380D01*
X144759523Y-64826190D01*
X144616666Y-64826190D01*
X144569047Y-64802380D01*
X144545238Y-64778571D01*
X145092857Y-64826190D02*
X145188095Y-64826190D01*
X145235714Y-64802380D01*
X145259523Y-64778571D01*
X145307142Y-64707142D01*
X145330952Y-64611904D01*
X145330952Y-64421428D01*
X145307142Y-64373809D01*
X145283333Y-64350000D01*
X145235714Y-64326190D01*
X145140476Y-64326190D01*
X145092857Y-64350000D01*
X145069047Y-64373809D01*
X145045238Y-64421428D01*
X145045238Y-64540476D01*
X145069047Y-64588095D01*
X145092857Y-64611904D01*
X145140476Y-64635714D01*
X145235714Y-64635714D01*
X145283333Y-64611904D01*
X145307142Y-64588095D01*
X145330952Y-64540476D01*
%TO.C,C65*%
X137878571Y-70078571D02*
X137854761Y-70102380D01*
X137783333Y-70126190D01*
X137735714Y-70126190D01*
X137664285Y-70102380D01*
X137616666Y-70054761D01*
X137592857Y-70007142D01*
X137569047Y-69911904D01*
X137569047Y-69840476D01*
X137592857Y-69745238D01*
X137616666Y-69697619D01*
X137664285Y-69650000D01*
X137735714Y-69626190D01*
X137783333Y-69626190D01*
X137854761Y-69650000D01*
X137878571Y-69673809D01*
X138307142Y-69626190D02*
X138211904Y-69626190D01*
X138164285Y-69650000D01*
X138140476Y-69673809D01*
X138092857Y-69745238D01*
X138069047Y-69840476D01*
X138069047Y-70030952D01*
X138092857Y-70078571D01*
X138116666Y-70102380D01*
X138164285Y-70126190D01*
X138259523Y-70126190D01*
X138307142Y-70102380D01*
X138330952Y-70078571D01*
X138354761Y-70030952D01*
X138354761Y-69911904D01*
X138330952Y-69864285D01*
X138307142Y-69840476D01*
X138259523Y-69816666D01*
X138164285Y-69816666D01*
X138116666Y-69840476D01*
X138092857Y-69864285D01*
X138069047Y-69911904D01*
X138807142Y-69626190D02*
X138569047Y-69626190D01*
X138545238Y-69864285D01*
X138569047Y-69840476D01*
X138616666Y-69816666D01*
X138735714Y-69816666D01*
X138783333Y-69840476D01*
X138807142Y-69864285D01*
X138830952Y-69911904D01*
X138830952Y-70030952D01*
X138807142Y-70078571D01*
X138783333Y-70102380D01*
X138735714Y-70126190D01*
X138616666Y-70126190D01*
X138569047Y-70102380D01*
X138545238Y-70078571D01*
%TO.C,C40*%
X135778571Y-59778571D02*
X135754761Y-59802380D01*
X135683333Y-59826190D01*
X135635714Y-59826190D01*
X135564285Y-59802380D01*
X135516666Y-59754761D01*
X135492857Y-59707142D01*
X135469047Y-59611904D01*
X135469047Y-59540476D01*
X135492857Y-59445238D01*
X135516666Y-59397619D01*
X135564285Y-59350000D01*
X135635714Y-59326190D01*
X135683333Y-59326190D01*
X135754761Y-59350000D01*
X135778571Y-59373809D01*
X136207142Y-59492857D02*
X136207142Y-59826190D01*
X136088095Y-59302380D02*
X135969047Y-59659523D01*
X136278571Y-59659523D01*
X136564285Y-59326190D02*
X136611904Y-59326190D01*
X136659523Y-59350000D01*
X136683333Y-59373809D01*
X136707142Y-59421428D01*
X136730952Y-59516666D01*
X136730952Y-59635714D01*
X136707142Y-59730952D01*
X136683333Y-59778571D01*
X136659523Y-59802380D01*
X136611904Y-59826190D01*
X136564285Y-59826190D01*
X136516666Y-59802380D01*
X136492857Y-59778571D01*
X136469047Y-59730952D01*
X136445238Y-59635714D01*
X136445238Y-59516666D01*
X136469047Y-59421428D01*
X136492857Y-59373809D01*
X136516666Y-59350000D01*
X136564285Y-59326190D01*
%TO.C,C5*%
X121478571Y-58783333D02*
X121502380Y-58807142D01*
X121526190Y-58878571D01*
X121526190Y-58926190D01*
X121502380Y-58997619D01*
X121454761Y-59045238D01*
X121407142Y-59069047D01*
X121311904Y-59092857D01*
X121240476Y-59092857D01*
X121145238Y-59069047D01*
X121097619Y-59045238D01*
X121050000Y-58997619D01*
X121026190Y-58926190D01*
X121026190Y-58878571D01*
X121050000Y-58807142D01*
X121073809Y-58783333D01*
X121026190Y-58330952D02*
X121026190Y-58569047D01*
X121264285Y-58592857D01*
X121240476Y-58569047D01*
X121216666Y-58521428D01*
X121216666Y-58402380D01*
X121240476Y-58354761D01*
X121264285Y-58330952D01*
X121311904Y-58307142D01*
X121430952Y-58307142D01*
X121478571Y-58330952D01*
X121502380Y-58354761D01*
X121526190Y-58402380D01*
X121526190Y-58521428D01*
X121502380Y-58569047D01*
X121478571Y-58592857D01*
%TO.C,C46*%
X141278571Y-61278571D02*
X141254761Y-61302380D01*
X141183333Y-61326190D01*
X141135714Y-61326190D01*
X141064285Y-61302380D01*
X141016666Y-61254761D01*
X140992857Y-61207142D01*
X140969047Y-61111904D01*
X140969047Y-61040476D01*
X140992857Y-60945238D01*
X141016666Y-60897619D01*
X141064285Y-60850000D01*
X141135714Y-60826190D01*
X141183333Y-60826190D01*
X141254761Y-60850000D01*
X141278571Y-60873809D01*
X141707142Y-60992857D02*
X141707142Y-61326190D01*
X141588095Y-60802380D02*
X141469047Y-61159523D01*
X141778571Y-61159523D01*
X142183333Y-60826190D02*
X142088095Y-60826190D01*
X142040476Y-60850000D01*
X142016666Y-60873809D01*
X141969047Y-60945238D01*
X141945238Y-61040476D01*
X141945238Y-61230952D01*
X141969047Y-61278571D01*
X141992857Y-61302380D01*
X142040476Y-61326190D01*
X142135714Y-61326190D01*
X142183333Y-61302380D01*
X142207142Y-61278571D01*
X142230952Y-61230952D01*
X142230952Y-61111904D01*
X142207142Y-61064285D01*
X142183333Y-61040476D01*
X142135714Y-61016666D01*
X142040476Y-61016666D01*
X141992857Y-61040476D01*
X141969047Y-61064285D01*
X141945238Y-61111904D01*
%TO.C,J1*%
X147826190Y-63866666D02*
X148183333Y-63866666D01*
X148254761Y-63890476D01*
X148302380Y-63938095D01*
X148326190Y-64009523D01*
X148326190Y-64057142D01*
X148326190Y-63366666D02*
X148326190Y-63652380D01*
X148326190Y-63509523D02*
X147826190Y-63509523D01*
X147897619Y-63557142D01*
X147945238Y-63604761D01*
X147969047Y-63652380D01*
%TO.C,L4*%
X130116666Y-59826190D02*
X129878571Y-59826190D01*
X129878571Y-59326190D01*
X130497619Y-59492857D02*
X130497619Y-59826190D01*
X130378571Y-59302380D02*
X130259523Y-59659523D01*
X130569047Y-59659523D01*
%TO.C,C55*%
X104678571Y-69278571D02*
X104654761Y-69302380D01*
X104583333Y-69326190D01*
X104535714Y-69326190D01*
X104464285Y-69302380D01*
X104416666Y-69254761D01*
X104392857Y-69207142D01*
X104369047Y-69111904D01*
X104369047Y-69040476D01*
X104392857Y-68945238D01*
X104416666Y-68897619D01*
X104464285Y-68850000D01*
X104535714Y-68826190D01*
X104583333Y-68826190D01*
X104654761Y-68850000D01*
X104678571Y-68873809D01*
X105130952Y-68826190D02*
X104892857Y-68826190D01*
X104869047Y-69064285D01*
X104892857Y-69040476D01*
X104940476Y-69016666D01*
X105059523Y-69016666D01*
X105107142Y-69040476D01*
X105130952Y-69064285D01*
X105154761Y-69111904D01*
X105154761Y-69230952D01*
X105130952Y-69278571D01*
X105107142Y-69302380D01*
X105059523Y-69326190D01*
X104940476Y-69326190D01*
X104892857Y-69302380D01*
X104869047Y-69278571D01*
X105607142Y-68826190D02*
X105369047Y-68826190D01*
X105345238Y-69064285D01*
X105369047Y-69040476D01*
X105416666Y-69016666D01*
X105535714Y-69016666D01*
X105583333Y-69040476D01*
X105607142Y-69064285D01*
X105630952Y-69111904D01*
X105630952Y-69230952D01*
X105607142Y-69278571D01*
X105583333Y-69302380D01*
X105535714Y-69326190D01*
X105416666Y-69326190D01*
X105369047Y-69302380D01*
X105345238Y-69278571D01*
%TO.C,U6*%
X105826190Y-57580952D02*
X106230952Y-57580952D01*
X106278571Y-57557142D01*
X106302380Y-57533333D01*
X106326190Y-57485714D01*
X106326190Y-57390476D01*
X106302380Y-57342857D01*
X106278571Y-57319047D01*
X106230952Y-57295238D01*
X105826190Y-57295238D01*
X105826190Y-56842857D02*
X105826190Y-56938095D01*
X105850000Y-56985714D01*
X105873809Y-57009523D01*
X105945238Y-57057142D01*
X106040476Y-57080952D01*
X106230952Y-57080952D01*
X106278571Y-57057142D01*
X106302380Y-57033333D01*
X106326190Y-56985714D01*
X106326190Y-56890476D01*
X106302380Y-56842857D01*
X106278571Y-56819047D01*
X106230952Y-56795238D01*
X106111904Y-56795238D01*
X106064285Y-56819047D01*
X106040476Y-56842857D01*
X106016666Y-56890476D01*
X106016666Y-56985714D01*
X106040476Y-57033333D01*
X106064285Y-57057142D01*
X106111904Y-57080952D01*
%TO.C,R8*%
X105116666Y-63926190D02*
X104950000Y-63688095D01*
X104830952Y-63926190D02*
X104830952Y-63426190D01*
X105021428Y-63426190D01*
X105069047Y-63450000D01*
X105092857Y-63473809D01*
X105116666Y-63521428D01*
X105116666Y-63592857D01*
X105092857Y-63640476D01*
X105069047Y-63664285D01*
X105021428Y-63688095D01*
X104830952Y-63688095D01*
X105402380Y-63640476D02*
X105354761Y-63616666D01*
X105330952Y-63592857D01*
X105307142Y-63545238D01*
X105307142Y-63521428D01*
X105330952Y-63473809D01*
X105354761Y-63450000D01*
X105402380Y-63426190D01*
X105497619Y-63426190D01*
X105545238Y-63450000D01*
X105569047Y-63473809D01*
X105592857Y-63521428D01*
X105592857Y-63545238D01*
X105569047Y-63592857D01*
X105545238Y-63616666D01*
X105497619Y-63640476D01*
X105402380Y-63640476D01*
X105354761Y-63664285D01*
X105330952Y-63688095D01*
X105307142Y-63735714D01*
X105307142Y-63830952D01*
X105330952Y-63878571D01*
X105354761Y-63902380D01*
X105402380Y-63926190D01*
X105497619Y-63926190D01*
X105545238Y-63902380D01*
X105569047Y-63878571D01*
X105592857Y-63830952D01*
X105592857Y-63735714D01*
X105569047Y-63688095D01*
X105545238Y-63664285D01*
X105497619Y-63640476D01*
%TO.C,U3*%
X123019047Y-75326190D02*
X123019047Y-75730952D01*
X123042857Y-75778571D01*
X123066666Y-75802380D01*
X123114285Y-75826190D01*
X123209523Y-75826190D01*
X123257142Y-75802380D01*
X123280952Y-75778571D01*
X123304761Y-75730952D01*
X123304761Y-75326190D01*
X123495238Y-75326190D02*
X123804761Y-75326190D01*
X123638095Y-75516666D01*
X123709523Y-75516666D01*
X123757142Y-75540476D01*
X123780952Y-75564285D01*
X123804761Y-75611904D01*
X123804761Y-75730952D01*
X123780952Y-75778571D01*
X123757142Y-75802380D01*
X123709523Y-75826190D01*
X123566666Y-75826190D01*
X123519047Y-75802380D01*
X123495238Y-75778571D01*
%TO.C,L17*%
X103926190Y-59921428D02*
X103926190Y-60159523D01*
X103426190Y-60159523D01*
X103926190Y-59492857D02*
X103926190Y-59778571D01*
X103926190Y-59635714D02*
X103426190Y-59635714D01*
X103497619Y-59683333D01*
X103545238Y-59730952D01*
X103569047Y-59778571D01*
X103426190Y-59326190D02*
X103426190Y-58992857D01*
X103926190Y-59207142D01*
%TO.C,C6*%
X121116666Y-67378571D02*
X121092857Y-67402380D01*
X121021428Y-67426190D01*
X120973809Y-67426190D01*
X120902380Y-67402380D01*
X120854761Y-67354761D01*
X120830952Y-67307142D01*
X120807142Y-67211904D01*
X120807142Y-67140476D01*
X120830952Y-67045238D01*
X120854761Y-66997619D01*
X120902380Y-66950000D01*
X120973809Y-66926190D01*
X121021428Y-66926190D01*
X121092857Y-66950000D01*
X121116666Y-66973809D01*
X121545238Y-66926190D02*
X121450000Y-66926190D01*
X121402380Y-66950000D01*
X121378571Y-66973809D01*
X121330952Y-67045238D01*
X121307142Y-67140476D01*
X121307142Y-67330952D01*
X121330952Y-67378571D01*
X121354761Y-67402380D01*
X121402380Y-67426190D01*
X121497619Y-67426190D01*
X121545238Y-67402380D01*
X121569047Y-67378571D01*
X121592857Y-67330952D01*
X121592857Y-67211904D01*
X121569047Y-67164285D01*
X121545238Y-67140476D01*
X121497619Y-67116666D01*
X121402380Y-67116666D01*
X121354761Y-67140476D01*
X121330952Y-67164285D01*
X121307142Y-67211904D01*
%TO.C,U1*%
X107419047Y-62926190D02*
X107419047Y-63330952D01*
X107442857Y-63378571D01*
X107466666Y-63402380D01*
X107514285Y-63426190D01*
X107609523Y-63426190D01*
X107657142Y-63402380D01*
X107680952Y-63378571D01*
X107704761Y-63330952D01*
X107704761Y-62926190D01*
X108204761Y-63426190D02*
X107919047Y-63426190D01*
X108061904Y-63426190D02*
X108061904Y-62926190D01*
X108014285Y-62997619D01*
X107966666Y-63045238D01*
X107919047Y-63069047D01*
D12*
X107355000Y-64077379D02*
X107355000Y-64315475D01*
X107116904Y-64220237D02*
X107355000Y-64315475D01*
X107593095Y-64220237D01*
X107212142Y-64505951D02*
X107355000Y-64315475D01*
X107497857Y-64505951D01*
D10*
X107355000Y-64351189D02*
X107355000Y-64470237D01*
X107235952Y-64422618D02*
X107355000Y-64470237D01*
X107474047Y-64422618D01*
X107283571Y-64565475D02*
X107355000Y-64470237D01*
X107426428Y-64565475D01*
%TO.C,C47*%
X142378571Y-62078571D02*
X142354761Y-62102380D01*
X142283333Y-62126190D01*
X142235714Y-62126190D01*
X142164285Y-62102380D01*
X142116666Y-62054761D01*
X142092857Y-62007142D01*
X142069047Y-61911904D01*
X142069047Y-61840476D01*
X142092857Y-61745238D01*
X142116666Y-61697619D01*
X142164285Y-61650000D01*
X142235714Y-61626190D01*
X142283333Y-61626190D01*
X142354761Y-61650000D01*
X142378571Y-61673809D01*
X142807142Y-61792857D02*
X142807142Y-62126190D01*
X142688095Y-61602380D02*
X142569047Y-61959523D01*
X142878571Y-61959523D01*
X143021428Y-61626190D02*
X143354761Y-61626190D01*
X143140476Y-62126190D01*
%TO.C,C44*%
X143778571Y-63578571D02*
X143754761Y-63602380D01*
X143683333Y-63626190D01*
X143635714Y-63626190D01*
X143564285Y-63602380D01*
X143516666Y-63554761D01*
X143492857Y-63507142D01*
X143469047Y-63411904D01*
X143469047Y-63340476D01*
X143492857Y-63245238D01*
X143516666Y-63197619D01*
X143564285Y-63150000D01*
X143635714Y-63126190D01*
X143683333Y-63126190D01*
X143754761Y-63150000D01*
X143778571Y-63173809D01*
X144207142Y-63292857D02*
X144207142Y-63626190D01*
X144088095Y-63102380D02*
X143969047Y-63459523D01*
X144278571Y-63459523D01*
X144683333Y-63292857D02*
X144683333Y-63626190D01*
X144564285Y-63102380D02*
X144445238Y-63459523D01*
X144754761Y-63459523D01*
%TO.C,C37*%
X143678571Y-68121428D02*
X143702380Y-68145238D01*
X143726190Y-68216666D01*
X143726190Y-68264285D01*
X143702380Y-68335714D01*
X143654761Y-68383333D01*
X143607142Y-68407142D01*
X143511904Y-68430952D01*
X143440476Y-68430952D01*
X143345238Y-68407142D01*
X143297619Y-68383333D01*
X143250000Y-68335714D01*
X143226190Y-68264285D01*
X143226190Y-68216666D01*
X143250000Y-68145238D01*
X143273809Y-68121428D01*
X143226190Y-67954761D02*
X143226190Y-67645238D01*
X143416666Y-67811904D01*
X143416666Y-67740476D01*
X143440476Y-67692857D01*
X143464285Y-67669047D01*
X143511904Y-67645238D01*
X143630952Y-67645238D01*
X143678571Y-67669047D01*
X143702380Y-67692857D01*
X143726190Y-67740476D01*
X143726190Y-67883333D01*
X143702380Y-67930952D01*
X143678571Y-67954761D01*
X143226190Y-67478571D02*
X143226190Y-67145238D01*
X143726190Y-67359523D01*
%TO.C,L12*%
X139326190Y-62561428D02*
X139326190Y-62799523D01*
X138826190Y-62799523D01*
X139326190Y-62132857D02*
X139326190Y-62418571D01*
X139326190Y-62275714D02*
X138826190Y-62275714D01*
X138897619Y-62323333D01*
X138945238Y-62370952D01*
X138969047Y-62418571D01*
X138873809Y-61942380D02*
X138850000Y-61918571D01*
X138826190Y-61870952D01*
X138826190Y-61751904D01*
X138850000Y-61704285D01*
X138873809Y-61680476D01*
X138921428Y-61656666D01*
X138969047Y-61656666D01*
X139040476Y-61680476D01*
X139326190Y-61966190D01*
X139326190Y-61656666D01*
%TO.C,FL1*%
X132550952Y-62764285D02*
X132384285Y-62764285D01*
X132384285Y-63026190D02*
X132384285Y-62526190D01*
X132622380Y-62526190D01*
X133050952Y-63026190D02*
X132812857Y-63026190D01*
X132812857Y-62526190D01*
X133479523Y-63026190D02*
X133193809Y-63026190D01*
X133336666Y-63026190D02*
X133336666Y-62526190D01*
X133289047Y-62597619D01*
X133241428Y-62645238D01*
X133193809Y-62669047D01*
%TO.C,C56*%
X110521428Y-74078571D02*
X110497619Y-74054761D01*
X110473809Y-73983333D01*
X110473809Y-73935714D01*
X110497619Y-73864285D01*
X110545238Y-73816666D01*
X110592857Y-73792857D01*
X110688095Y-73769047D01*
X110759523Y-73769047D01*
X110854761Y-73792857D01*
X110902380Y-73816666D01*
X110950000Y-73864285D01*
X110973809Y-73935714D01*
X110973809Y-73983333D01*
X110950000Y-74054761D01*
X110926190Y-74078571D01*
X110973809Y-74530952D02*
X110973809Y-74292857D01*
X110735714Y-74269047D01*
X110759523Y-74292857D01*
X110783333Y-74340476D01*
X110783333Y-74459523D01*
X110759523Y-74507142D01*
X110735714Y-74530952D01*
X110688095Y-74554761D01*
X110569047Y-74554761D01*
X110521428Y-74530952D01*
X110497619Y-74507142D01*
X110473809Y-74459523D01*
X110473809Y-74340476D01*
X110497619Y-74292857D01*
X110521428Y-74269047D01*
X110973809Y-74983333D02*
X110973809Y-74888095D01*
X110950000Y-74840476D01*
X110926190Y-74816666D01*
X110854761Y-74769047D01*
X110759523Y-74745238D01*
X110569047Y-74745238D01*
X110521428Y-74769047D01*
X110497619Y-74792857D01*
X110473809Y-74840476D01*
X110473809Y-74935714D01*
X110497619Y-74983333D01*
X110521428Y-75007142D01*
X110569047Y-75030952D01*
X110688095Y-75030952D01*
X110735714Y-75007142D01*
X110759523Y-74983333D01*
X110783333Y-74935714D01*
X110783333Y-74840476D01*
X110759523Y-74792857D01*
X110735714Y-74769047D01*
X110688095Y-74745238D01*
%TO.C,C7*%
X127136666Y-59078571D02*
X127112857Y-59102380D01*
X127041428Y-59126190D01*
X126993809Y-59126190D01*
X126922380Y-59102380D01*
X126874761Y-59054761D01*
X126850952Y-59007142D01*
X126827142Y-58911904D01*
X126827142Y-58840476D01*
X126850952Y-58745238D01*
X126874761Y-58697619D01*
X126922380Y-58650000D01*
X126993809Y-58626190D01*
X127041428Y-58626190D01*
X127112857Y-58650000D01*
X127136666Y-58673809D01*
X127303333Y-58626190D02*
X127636666Y-58626190D01*
X127422380Y-59126190D01*
%TO.C,C19*%
X130521428Y-71378571D02*
X130497619Y-71354761D01*
X130473809Y-71283333D01*
X130473809Y-71235714D01*
X130497619Y-71164285D01*
X130545238Y-71116666D01*
X130592857Y-71092857D01*
X130688095Y-71069047D01*
X130759523Y-71069047D01*
X130854761Y-71092857D01*
X130902380Y-71116666D01*
X130950000Y-71164285D01*
X130973809Y-71235714D01*
X130973809Y-71283333D01*
X130950000Y-71354761D01*
X130926190Y-71378571D01*
X130473809Y-71854761D02*
X130473809Y-71569047D01*
X130473809Y-71711904D02*
X130973809Y-71711904D01*
X130902380Y-71664285D01*
X130854761Y-71616666D01*
X130830952Y-71569047D01*
X130473809Y-72092857D02*
X130473809Y-72188095D01*
X130497619Y-72235714D01*
X130521428Y-72259523D01*
X130592857Y-72307142D01*
X130688095Y-72330952D01*
X130878571Y-72330952D01*
X130926190Y-72307142D01*
X130950000Y-72283333D01*
X130973809Y-72235714D01*
X130973809Y-72140476D01*
X130950000Y-72092857D01*
X130926190Y-72069047D01*
X130878571Y-72045238D01*
X130759523Y-72045238D01*
X130711904Y-72069047D01*
X130688095Y-72092857D01*
X130664285Y-72140476D01*
X130664285Y-72235714D01*
X130688095Y-72283333D01*
X130711904Y-72307142D01*
X130759523Y-72330952D01*
%TO.C,C21*%
X112278571Y-62921428D02*
X112302380Y-62945238D01*
X112326190Y-63016666D01*
X112326190Y-63064285D01*
X112302380Y-63135714D01*
X112254761Y-63183333D01*
X112207142Y-63207142D01*
X112111904Y-63230952D01*
X112040476Y-63230952D01*
X111945238Y-63207142D01*
X111897619Y-63183333D01*
X111850000Y-63135714D01*
X111826190Y-63064285D01*
X111826190Y-63016666D01*
X111850000Y-62945238D01*
X111873809Y-62921428D01*
X111873809Y-62730952D02*
X111850000Y-62707142D01*
X111826190Y-62659523D01*
X111826190Y-62540476D01*
X111850000Y-62492857D01*
X111873809Y-62469047D01*
X111921428Y-62445238D01*
X111969047Y-62445238D01*
X112040476Y-62469047D01*
X112326190Y-62754761D01*
X112326190Y-62445238D01*
X112326190Y-61969047D02*
X112326190Y-62254761D01*
X112326190Y-62111904D02*
X111826190Y-62111904D01*
X111897619Y-62159523D01*
X111945238Y-62207142D01*
X111969047Y-62254761D01*
%TO.C,C61*%
X149078571Y-73278571D02*
X149054761Y-73302380D01*
X148983333Y-73326190D01*
X148935714Y-73326190D01*
X148864285Y-73302380D01*
X148816666Y-73254761D01*
X148792857Y-73207142D01*
X148769047Y-73111904D01*
X148769047Y-73040476D01*
X148792857Y-72945238D01*
X148816666Y-72897619D01*
X148864285Y-72850000D01*
X148935714Y-72826190D01*
X148983333Y-72826190D01*
X149054761Y-72850000D01*
X149078571Y-72873809D01*
X149507142Y-72826190D02*
X149411904Y-72826190D01*
X149364285Y-72850000D01*
X149340476Y-72873809D01*
X149292857Y-72945238D01*
X149269047Y-73040476D01*
X149269047Y-73230952D01*
X149292857Y-73278571D01*
X149316666Y-73302380D01*
X149364285Y-73326190D01*
X149459523Y-73326190D01*
X149507142Y-73302380D01*
X149530952Y-73278571D01*
X149554761Y-73230952D01*
X149554761Y-73111904D01*
X149530952Y-73064285D01*
X149507142Y-73040476D01*
X149459523Y-73016666D01*
X149364285Y-73016666D01*
X149316666Y-73040476D01*
X149292857Y-73064285D01*
X149269047Y-73111904D01*
X150030952Y-73326190D02*
X149745238Y-73326190D01*
X149888095Y-73326190D02*
X149888095Y-72826190D01*
X149840476Y-72897619D01*
X149792857Y-72945238D01*
X149745238Y-72969047D01*
%TO.C,C38*%
X135778571Y-60578571D02*
X135754761Y-60602380D01*
X135683333Y-60626190D01*
X135635714Y-60626190D01*
X135564285Y-60602380D01*
X135516666Y-60554761D01*
X135492857Y-60507142D01*
X135469047Y-60411904D01*
X135469047Y-60340476D01*
X135492857Y-60245238D01*
X135516666Y-60197619D01*
X135564285Y-60150000D01*
X135635714Y-60126190D01*
X135683333Y-60126190D01*
X135754761Y-60150000D01*
X135778571Y-60173809D01*
X135945238Y-60126190D02*
X136254761Y-60126190D01*
X136088095Y-60316666D01*
X136159523Y-60316666D01*
X136207142Y-60340476D01*
X136230952Y-60364285D01*
X136254761Y-60411904D01*
X136254761Y-60530952D01*
X136230952Y-60578571D01*
X136207142Y-60602380D01*
X136159523Y-60626190D01*
X136016666Y-60626190D01*
X135969047Y-60602380D01*
X135945238Y-60578571D01*
X136540476Y-60340476D02*
X136492857Y-60316666D01*
X136469047Y-60292857D01*
X136445238Y-60245238D01*
X136445238Y-60221428D01*
X136469047Y-60173809D01*
X136492857Y-60150000D01*
X136540476Y-60126190D01*
X136635714Y-60126190D01*
X136683333Y-60150000D01*
X136707142Y-60173809D01*
X136730952Y-60221428D01*
X136730952Y-60245238D01*
X136707142Y-60292857D01*
X136683333Y-60316666D01*
X136635714Y-60340476D01*
X136540476Y-60340476D01*
X136492857Y-60364285D01*
X136469047Y-60388095D01*
X136445238Y-60435714D01*
X136445238Y-60530952D01*
X136469047Y-60578571D01*
X136492857Y-60602380D01*
X136540476Y-60626190D01*
X136635714Y-60626190D01*
X136683333Y-60602380D01*
X136707142Y-60578571D01*
X136730952Y-60530952D01*
X136730952Y-60435714D01*
X136707142Y-60388095D01*
X136683333Y-60364285D01*
X136635714Y-60340476D01*
%TO.C,L11*%
X139826190Y-59421428D02*
X139826190Y-59659523D01*
X139326190Y-59659523D01*
X139826190Y-58992857D02*
X139826190Y-59278571D01*
X139826190Y-59135714D02*
X139326190Y-59135714D01*
X139397619Y-59183333D01*
X139445238Y-59230952D01*
X139469047Y-59278571D01*
X139826190Y-58516666D02*
X139826190Y-58802380D01*
X139826190Y-58659523D02*
X139326190Y-58659523D01*
X139397619Y-58707142D01*
X139445238Y-58754761D01*
X139469047Y-58802380D01*
%TO.C,C51*%
X136478571Y-63421428D02*
X136502380Y-63445238D01*
X136526190Y-63516666D01*
X136526190Y-63564285D01*
X136502380Y-63635714D01*
X136454761Y-63683333D01*
X136407142Y-63707142D01*
X136311904Y-63730952D01*
X136240476Y-63730952D01*
X136145238Y-63707142D01*
X136097619Y-63683333D01*
X136050000Y-63635714D01*
X136026190Y-63564285D01*
X136026190Y-63516666D01*
X136050000Y-63445238D01*
X136073809Y-63421428D01*
X136026190Y-62969047D02*
X136026190Y-63207142D01*
X136264285Y-63230952D01*
X136240476Y-63207142D01*
X136216666Y-63159523D01*
X136216666Y-63040476D01*
X136240476Y-62992857D01*
X136264285Y-62969047D01*
X136311904Y-62945238D01*
X136430952Y-62945238D01*
X136478571Y-62969047D01*
X136502380Y-62992857D01*
X136526190Y-63040476D01*
X136526190Y-63159523D01*
X136502380Y-63207142D01*
X136478571Y-63230952D01*
X136526190Y-62469047D02*
X136526190Y-62754761D01*
X136526190Y-62611904D02*
X136026190Y-62611904D01*
X136097619Y-62659523D01*
X136145238Y-62707142D01*
X136169047Y-62754761D01*
%TO.C,C41*%
X146078571Y-68121428D02*
X146102380Y-68145238D01*
X146126190Y-68216666D01*
X146126190Y-68264285D01*
X146102380Y-68335714D01*
X146054761Y-68383333D01*
X146007142Y-68407142D01*
X145911904Y-68430952D01*
X145840476Y-68430952D01*
X145745238Y-68407142D01*
X145697619Y-68383333D01*
X145650000Y-68335714D01*
X145626190Y-68264285D01*
X145626190Y-68216666D01*
X145650000Y-68145238D01*
X145673809Y-68121428D01*
X145792857Y-67692857D02*
X146126190Y-67692857D01*
X145602380Y-67811904D02*
X145959523Y-67930952D01*
X145959523Y-67621428D01*
X146126190Y-67169047D02*
X146126190Y-67454761D01*
X146126190Y-67311904D02*
X145626190Y-67311904D01*
X145697619Y-67359523D01*
X145745238Y-67407142D01*
X145769047Y-67454761D01*
%TO.C,R6*%
X109826190Y-59783333D02*
X109588095Y-59950000D01*
X109826190Y-60069047D02*
X109326190Y-60069047D01*
X109326190Y-59878571D01*
X109350000Y-59830952D01*
X109373809Y-59807142D01*
X109421428Y-59783333D01*
X109492857Y-59783333D01*
X109540476Y-59807142D01*
X109564285Y-59830952D01*
X109588095Y-59878571D01*
X109588095Y-60069047D01*
X109326190Y-59354761D02*
X109326190Y-59450000D01*
X109350000Y-59497619D01*
X109373809Y-59521428D01*
X109445238Y-59569047D01*
X109540476Y-59592857D01*
X109730952Y-59592857D01*
X109778571Y-59569047D01*
X109802380Y-59545238D01*
X109826190Y-59497619D01*
X109826190Y-59402380D01*
X109802380Y-59354761D01*
X109778571Y-59330952D01*
X109730952Y-59307142D01*
X109611904Y-59307142D01*
X109564285Y-59330952D01*
X109540476Y-59354761D01*
X109516666Y-59402380D01*
X109516666Y-59497619D01*
X109540476Y-59545238D01*
X109564285Y-59569047D01*
X109611904Y-59592857D01*
%TO.C,R3*%
X145826190Y-59883333D02*
X145588095Y-60050000D01*
X145826190Y-60169047D02*
X145326190Y-60169047D01*
X145326190Y-59978571D01*
X145350000Y-59930952D01*
X145373809Y-59907142D01*
X145421428Y-59883333D01*
X145492857Y-59883333D01*
X145540476Y-59907142D01*
X145564285Y-59930952D01*
X145588095Y-59978571D01*
X145588095Y-60169047D01*
X145326190Y-59716666D02*
X145326190Y-59407142D01*
X145516666Y-59573809D01*
X145516666Y-59502380D01*
X145540476Y-59454761D01*
X145564285Y-59430952D01*
X145611904Y-59407142D01*
X145730952Y-59407142D01*
X145778571Y-59430952D01*
X145802380Y-59454761D01*
X145826190Y-59502380D01*
X145826190Y-59645238D01*
X145802380Y-59692857D01*
X145778571Y-59716666D01*
%TO.C,C29*%
X153978571Y-59321428D02*
X154002380Y-59345238D01*
X154026190Y-59416666D01*
X154026190Y-59464285D01*
X154002380Y-59535714D01*
X153954761Y-59583333D01*
X153907142Y-59607142D01*
X153811904Y-59630952D01*
X153740476Y-59630952D01*
X153645238Y-59607142D01*
X153597619Y-59583333D01*
X153550000Y-59535714D01*
X153526190Y-59464285D01*
X153526190Y-59416666D01*
X153550000Y-59345238D01*
X153573809Y-59321428D01*
X153573809Y-59130952D02*
X153550000Y-59107142D01*
X153526190Y-59059523D01*
X153526190Y-58940476D01*
X153550000Y-58892857D01*
X153573809Y-58869047D01*
X153621428Y-58845238D01*
X153669047Y-58845238D01*
X153740476Y-58869047D01*
X154026190Y-59154761D01*
X154026190Y-58845238D01*
X154026190Y-58607142D02*
X154026190Y-58511904D01*
X154002380Y-58464285D01*
X153978571Y-58440476D01*
X153907142Y-58392857D01*
X153811904Y-58369047D01*
X153621428Y-58369047D01*
X153573809Y-58392857D01*
X153550000Y-58416666D01*
X153526190Y-58464285D01*
X153526190Y-58559523D01*
X153550000Y-58607142D01*
X153573809Y-58630952D01*
X153621428Y-58654761D01*
X153740476Y-58654761D01*
X153788095Y-58630952D01*
X153811904Y-58607142D01*
X153835714Y-58559523D01*
X153835714Y-58464285D01*
X153811904Y-58416666D01*
X153788095Y-58392857D01*
X153740476Y-58369047D01*
%TO.C,C57*%
X131778571Y-72378571D02*
X131754761Y-72402380D01*
X131683333Y-72426190D01*
X131635714Y-72426190D01*
X131564285Y-72402380D01*
X131516666Y-72354761D01*
X131492857Y-72307142D01*
X131469047Y-72211904D01*
X131469047Y-72140476D01*
X131492857Y-72045238D01*
X131516666Y-71997619D01*
X131564285Y-71950000D01*
X131635714Y-71926190D01*
X131683333Y-71926190D01*
X131754761Y-71950000D01*
X131778571Y-71973809D01*
X132230952Y-71926190D02*
X131992857Y-71926190D01*
X131969047Y-72164285D01*
X131992857Y-72140476D01*
X132040476Y-72116666D01*
X132159523Y-72116666D01*
X132207142Y-72140476D01*
X132230952Y-72164285D01*
X132254761Y-72211904D01*
X132254761Y-72330952D01*
X132230952Y-72378571D01*
X132207142Y-72402380D01*
X132159523Y-72426190D01*
X132040476Y-72426190D01*
X131992857Y-72402380D01*
X131969047Y-72378571D01*
X132421428Y-71926190D02*
X132754761Y-71926190D01*
X132540476Y-72426190D01*
%TO.C,U4*%
X148219047Y-58126190D02*
X148219047Y-58530952D01*
X148242857Y-58578571D01*
X148266666Y-58602380D01*
X148314285Y-58626190D01*
X148409523Y-58626190D01*
X148457142Y-58602380D01*
X148480952Y-58578571D01*
X148504761Y-58530952D01*
X148504761Y-58126190D01*
X148957142Y-58292857D02*
X148957142Y-58626190D01*
X148838095Y-58102380D02*
X148719047Y-58459523D01*
X149028571Y-58459523D01*
%TO.C,D4*%
X113930952Y-58526190D02*
X113930952Y-58026190D01*
X114050000Y-58026190D01*
X114121428Y-58050000D01*
X114169047Y-58097619D01*
X114192857Y-58145238D01*
X114216666Y-58240476D01*
X114216666Y-58311904D01*
X114192857Y-58407142D01*
X114169047Y-58454761D01*
X114121428Y-58502380D01*
X114050000Y-58526190D01*
X113930952Y-58526190D01*
X114645238Y-58192857D02*
X114645238Y-58526190D01*
X114526190Y-58002380D02*
X114407142Y-58359523D01*
X114716666Y-58359523D01*
%TO.C,C18*%
X130521428Y-63778571D02*
X130497619Y-63754761D01*
X130473809Y-63683333D01*
X130473809Y-63635714D01*
X130497619Y-63564285D01*
X130545238Y-63516666D01*
X130592857Y-63492857D01*
X130688095Y-63469047D01*
X130759523Y-63469047D01*
X130854761Y-63492857D01*
X130902380Y-63516666D01*
X130950000Y-63564285D01*
X130973809Y-63635714D01*
X130973809Y-63683333D01*
X130950000Y-63754761D01*
X130926190Y-63778571D01*
X130473809Y-64254761D02*
X130473809Y-63969047D01*
X130473809Y-64111904D02*
X130973809Y-64111904D01*
X130902380Y-64064285D01*
X130854761Y-64016666D01*
X130830952Y-63969047D01*
X130759523Y-64540476D02*
X130783333Y-64492857D01*
X130807142Y-64469047D01*
X130854761Y-64445238D01*
X130878571Y-64445238D01*
X130926190Y-64469047D01*
X130950000Y-64492857D01*
X130973809Y-64540476D01*
X130973809Y-64635714D01*
X130950000Y-64683333D01*
X130926190Y-64707142D01*
X130878571Y-64730952D01*
X130854761Y-64730952D01*
X130807142Y-64707142D01*
X130783333Y-64683333D01*
X130759523Y-64635714D01*
X130759523Y-64540476D01*
X130735714Y-64492857D01*
X130711904Y-64469047D01*
X130664285Y-64445238D01*
X130569047Y-64445238D01*
X130521428Y-64469047D01*
X130497619Y-64492857D01*
X130473809Y-64540476D01*
X130473809Y-64635714D01*
X130497619Y-64683333D01*
X130521428Y-64707142D01*
X130569047Y-64730952D01*
X130664285Y-64730952D01*
X130711904Y-64707142D01*
X130735714Y-64683333D01*
X130759523Y-64635714D01*
%TO.C,C11*%
X129878571Y-60578571D02*
X129854761Y-60602380D01*
X129783333Y-60626190D01*
X129735714Y-60626190D01*
X129664285Y-60602380D01*
X129616666Y-60554761D01*
X129592857Y-60507142D01*
X129569047Y-60411904D01*
X129569047Y-60340476D01*
X129592857Y-60245238D01*
X129616666Y-60197619D01*
X129664285Y-60150000D01*
X129735714Y-60126190D01*
X129783333Y-60126190D01*
X129854761Y-60150000D01*
X129878571Y-60173809D01*
X130354761Y-60626190D02*
X130069047Y-60626190D01*
X130211904Y-60626190D02*
X130211904Y-60126190D01*
X130164285Y-60197619D01*
X130116666Y-60245238D01*
X130069047Y-60269047D01*
X130830952Y-60626190D02*
X130545238Y-60626190D01*
X130688095Y-60626190D02*
X130688095Y-60126190D01*
X130640476Y-60197619D01*
X130592857Y-60245238D01*
X130545238Y-60269047D01*
%TO.C,C48*%
X140921428Y-63178571D02*
X140897619Y-63154761D01*
X140873809Y-63083333D01*
X140873809Y-63035714D01*
X140897619Y-62964285D01*
X140945238Y-62916666D01*
X140992857Y-62892857D01*
X141088095Y-62869047D01*
X141159523Y-62869047D01*
X141254761Y-62892857D01*
X141302380Y-62916666D01*
X141350000Y-62964285D01*
X141373809Y-63035714D01*
X141373809Y-63083333D01*
X141350000Y-63154761D01*
X141326190Y-63178571D01*
X141207142Y-63607142D02*
X140873809Y-63607142D01*
X141397619Y-63488095D02*
X141040476Y-63369047D01*
X141040476Y-63678571D01*
X141159523Y-63940476D02*
X141183333Y-63892857D01*
X141207142Y-63869047D01*
X141254761Y-63845238D01*
X141278571Y-63845238D01*
X141326190Y-63869047D01*
X141350000Y-63892857D01*
X141373809Y-63940476D01*
X141373809Y-64035714D01*
X141350000Y-64083333D01*
X141326190Y-64107142D01*
X141278571Y-64130952D01*
X141254761Y-64130952D01*
X141207142Y-64107142D01*
X141183333Y-64083333D01*
X141159523Y-64035714D01*
X141159523Y-63940476D01*
X141135714Y-63892857D01*
X141111904Y-63869047D01*
X141064285Y-63845238D01*
X140969047Y-63845238D01*
X140921428Y-63869047D01*
X140897619Y-63892857D01*
X140873809Y-63940476D01*
X140873809Y-64035714D01*
X140897619Y-64083333D01*
X140921428Y-64107142D01*
X140969047Y-64130952D01*
X141064285Y-64130952D01*
X141111904Y-64107142D01*
X141135714Y-64083333D01*
X141159523Y-64035714D01*
%TO.C,C52*%
X134846446Y-64698983D02*
X134812774Y-64698983D01*
X134745431Y-64665311D01*
X134711759Y-64631640D01*
X134678087Y-64564296D01*
X134678087Y-64496953D01*
X134694923Y-64446445D01*
X134745431Y-64362266D01*
X134795938Y-64311758D01*
X134880118Y-64261250D01*
X134930625Y-64244415D01*
X134997969Y-64244415D01*
X135065312Y-64278086D01*
X135098984Y-64311758D01*
X135132656Y-64379102D01*
X135132656Y-64412773D01*
X135486209Y-64698983D02*
X135317851Y-64530624D01*
X135132656Y-64682147D01*
X135166328Y-64682147D01*
X135216835Y-64698983D01*
X135301015Y-64783163D01*
X135317851Y-64833670D01*
X135317851Y-64867342D01*
X135301015Y-64917850D01*
X135216835Y-65002029D01*
X135166328Y-65018865D01*
X135132656Y-65018865D01*
X135082148Y-65002029D01*
X134997969Y-64917850D01*
X134981133Y-64867342D01*
X134981133Y-64833670D01*
X135604061Y-64884178D02*
X135637732Y-64884178D01*
X135688240Y-64901014D01*
X135772419Y-64985193D01*
X135789255Y-65035701D01*
X135789255Y-65069373D01*
X135772419Y-65119880D01*
X135738748Y-65153552D01*
X135671404Y-65187224D01*
X135267343Y-65187224D01*
X135486209Y-65406090D01*
%TO.C,C63*%
X153521428Y-60378571D02*
X153497619Y-60354761D01*
X153473809Y-60283333D01*
X153473809Y-60235714D01*
X153497619Y-60164285D01*
X153545238Y-60116666D01*
X153592857Y-60092857D01*
X153688095Y-60069047D01*
X153759523Y-60069047D01*
X153854761Y-60092857D01*
X153902380Y-60116666D01*
X153950000Y-60164285D01*
X153973809Y-60235714D01*
X153973809Y-60283333D01*
X153950000Y-60354761D01*
X153926190Y-60378571D01*
X153973809Y-60807142D02*
X153973809Y-60711904D01*
X153950000Y-60664285D01*
X153926190Y-60640476D01*
X153854761Y-60592857D01*
X153759523Y-60569047D01*
X153569047Y-60569047D01*
X153521428Y-60592857D01*
X153497619Y-60616666D01*
X153473809Y-60664285D01*
X153473809Y-60759523D01*
X153497619Y-60807142D01*
X153521428Y-60830952D01*
X153569047Y-60854761D01*
X153688095Y-60854761D01*
X153735714Y-60830952D01*
X153759523Y-60807142D01*
X153783333Y-60759523D01*
X153783333Y-60664285D01*
X153759523Y-60616666D01*
X153735714Y-60592857D01*
X153688095Y-60569047D01*
X153973809Y-61021428D02*
X153973809Y-61330952D01*
X153783333Y-61164285D01*
X153783333Y-61235714D01*
X153759523Y-61283333D01*
X153735714Y-61307142D01*
X153688095Y-61330952D01*
X153569047Y-61330952D01*
X153521428Y-61307142D01*
X153497619Y-61283333D01*
X153473809Y-61235714D01*
X153473809Y-61092857D01*
X153497619Y-61045238D01*
X153521428Y-61021428D01*
%TO.C,C25*%
X104678571Y-66578571D02*
X104654761Y-66602380D01*
X104583333Y-66626190D01*
X104535714Y-66626190D01*
X104464285Y-66602380D01*
X104416666Y-66554761D01*
X104392857Y-66507142D01*
X104369047Y-66411904D01*
X104369047Y-66340476D01*
X104392857Y-66245238D01*
X104416666Y-66197619D01*
X104464285Y-66150000D01*
X104535714Y-66126190D01*
X104583333Y-66126190D01*
X104654761Y-66150000D01*
X104678571Y-66173809D01*
X104869047Y-66173809D02*
X104892857Y-66150000D01*
X104940476Y-66126190D01*
X105059523Y-66126190D01*
X105107142Y-66150000D01*
X105130952Y-66173809D01*
X105154761Y-66221428D01*
X105154761Y-66269047D01*
X105130952Y-66340476D01*
X104845238Y-66626190D01*
X105154761Y-66626190D01*
X105607142Y-66126190D02*
X105369047Y-66126190D01*
X105345238Y-66364285D01*
X105369047Y-66340476D01*
X105416666Y-66316666D01*
X105535714Y-66316666D01*
X105583333Y-66340476D01*
X105607142Y-66364285D01*
X105630952Y-66411904D01*
X105630952Y-66530952D01*
X105607142Y-66578571D01*
X105583333Y-66602380D01*
X105535714Y-66626190D01*
X105416666Y-66626190D01*
X105369047Y-66602380D01*
X105345238Y-66578571D01*
%TO.C,C49*%
X134278571Y-63621428D02*
X134302380Y-63645238D01*
X134326190Y-63716666D01*
X134326190Y-63764285D01*
X134302380Y-63835714D01*
X134254761Y-63883333D01*
X134207142Y-63907142D01*
X134111904Y-63930952D01*
X134040476Y-63930952D01*
X133945238Y-63907142D01*
X133897619Y-63883333D01*
X133850000Y-63835714D01*
X133826190Y-63764285D01*
X133826190Y-63716666D01*
X133850000Y-63645238D01*
X133873809Y-63621428D01*
X133992857Y-63192857D02*
X134326190Y-63192857D01*
X133802380Y-63311904D02*
X134159523Y-63430952D01*
X134159523Y-63121428D01*
X134326190Y-62907142D02*
X134326190Y-62811904D01*
X134302380Y-62764285D01*
X134278571Y-62740476D01*
X134207142Y-62692857D01*
X134111904Y-62669047D01*
X133921428Y-62669047D01*
X133873809Y-62692857D01*
X133850000Y-62716666D01*
X133826190Y-62764285D01*
X133826190Y-62859523D01*
X133850000Y-62907142D01*
X133873809Y-62930952D01*
X133921428Y-62954761D01*
X134040476Y-62954761D01*
X134088095Y-62930952D01*
X134111904Y-62907142D01*
X134135714Y-62859523D01*
X134135714Y-62764285D01*
X134111904Y-62716666D01*
X134088095Y-62692857D01*
X134040476Y-62669047D01*
%TO.C,R1*%
X123116666Y-58826190D02*
X122950000Y-58588095D01*
X122830952Y-58826190D02*
X122830952Y-58326190D01*
X123021428Y-58326190D01*
X123069047Y-58350000D01*
X123092857Y-58373809D01*
X123116666Y-58421428D01*
X123116666Y-58492857D01*
X123092857Y-58540476D01*
X123069047Y-58564285D01*
X123021428Y-58588095D01*
X122830952Y-58588095D01*
X123592857Y-58826190D02*
X123307142Y-58826190D01*
X123450000Y-58826190D02*
X123450000Y-58326190D01*
X123402380Y-58397619D01*
X123354761Y-58445238D01*
X123307142Y-58469047D01*
%TO.C,R13*%
X106226190Y-72821428D02*
X105988095Y-72988095D01*
X106226190Y-73107142D02*
X105726190Y-73107142D01*
X105726190Y-72916666D01*
X105750000Y-72869047D01*
X105773809Y-72845238D01*
X105821428Y-72821428D01*
X105892857Y-72821428D01*
X105940476Y-72845238D01*
X105964285Y-72869047D01*
X105988095Y-72916666D01*
X105988095Y-73107142D01*
X106226190Y-72345238D02*
X106226190Y-72630952D01*
X106226190Y-72488095D02*
X105726190Y-72488095D01*
X105797619Y-72535714D01*
X105845238Y-72583333D01*
X105869047Y-72630952D01*
X105726190Y-72178571D02*
X105726190Y-71869047D01*
X105916666Y-72035714D01*
X105916666Y-71964285D01*
X105940476Y-71916666D01*
X105964285Y-71892857D01*
X106011904Y-71869047D01*
X106130952Y-71869047D01*
X106178571Y-71892857D01*
X106202380Y-71916666D01*
X106226190Y-71964285D01*
X106226190Y-72107142D01*
X106202380Y-72154761D01*
X106178571Y-72178571D01*
%TO.C,C13*%
X126978571Y-65921428D02*
X127002380Y-65945238D01*
X127026190Y-66016666D01*
X127026190Y-66064285D01*
X127002380Y-66135714D01*
X126954761Y-66183333D01*
X126907142Y-66207142D01*
X126811904Y-66230952D01*
X126740476Y-66230952D01*
X126645238Y-66207142D01*
X126597619Y-66183333D01*
X126550000Y-66135714D01*
X126526190Y-66064285D01*
X126526190Y-66016666D01*
X126550000Y-65945238D01*
X126573809Y-65921428D01*
X127026190Y-65445238D02*
X127026190Y-65730952D01*
X127026190Y-65588095D02*
X126526190Y-65588095D01*
X126597619Y-65635714D01*
X126645238Y-65683333D01*
X126669047Y-65730952D01*
X126526190Y-65278571D02*
X126526190Y-64969047D01*
X126716666Y-65135714D01*
X126716666Y-65064285D01*
X126740476Y-65016666D01*
X126764285Y-64992857D01*
X126811904Y-64969047D01*
X126930952Y-64969047D01*
X126978571Y-64992857D01*
X127002380Y-65016666D01*
X127026190Y-65064285D01*
X127026190Y-65207142D01*
X127002380Y-65254761D01*
X126978571Y-65278571D01*
%TO.C,J2*%
X151433333Y-71326190D02*
X151433333Y-71683333D01*
X151409523Y-71754761D01*
X151361904Y-71802380D01*
X151290476Y-71826190D01*
X151242857Y-71826190D01*
X151647619Y-71373809D02*
X151671428Y-71350000D01*
X151719047Y-71326190D01*
X151838095Y-71326190D01*
X151885714Y-71350000D01*
X151909523Y-71373809D01*
X151933333Y-71421428D01*
X151933333Y-71469047D01*
X151909523Y-71540476D01*
X151623809Y-71826190D01*
X151933333Y-71826190D01*
%TO.C,R14*%
X131778571Y-71726190D02*
X131611904Y-71488095D01*
X131492857Y-71726190D02*
X131492857Y-71226190D01*
X131683333Y-71226190D01*
X131730952Y-71250000D01*
X131754761Y-71273809D01*
X131778571Y-71321428D01*
X131778571Y-71392857D01*
X131754761Y-71440476D01*
X131730952Y-71464285D01*
X131683333Y-71488095D01*
X131492857Y-71488095D01*
X132254761Y-71726190D02*
X131969047Y-71726190D01*
X132111904Y-71726190D02*
X132111904Y-71226190D01*
X132064285Y-71297619D01*
X132016666Y-71345238D01*
X131969047Y-71369047D01*
X132683333Y-71392857D02*
X132683333Y-71726190D01*
X132564285Y-71202380D02*
X132445238Y-71559523D01*
X132754761Y-71559523D01*
%TO.C,L7*%
X133016666Y-59826190D02*
X132778571Y-59826190D01*
X132778571Y-59326190D01*
X133135714Y-59326190D02*
X133469047Y-59326190D01*
X133254761Y-59826190D01*
%TO.C,FL3*%
X140764285Y-68869047D02*
X140764285Y-69035714D01*
X141026190Y-69035714D02*
X140526190Y-69035714D01*
X140526190Y-68797619D01*
X141026190Y-68369047D02*
X141026190Y-68607142D01*
X140526190Y-68607142D01*
X140526190Y-68250000D02*
X140526190Y-67940476D01*
X140716666Y-68107142D01*
X140716666Y-68035714D01*
X140740476Y-67988095D01*
X140764285Y-67964285D01*
X140811904Y-67940476D01*
X140930952Y-67940476D01*
X140978571Y-67964285D01*
X141002380Y-67988095D01*
X141026190Y-68035714D01*
X141026190Y-68178571D01*
X141002380Y-68226190D01*
X140978571Y-68250000D01*
%TO.C,R15*%
X131778571Y-74726190D02*
X131611904Y-74488095D01*
X131492857Y-74726190D02*
X131492857Y-74226190D01*
X131683333Y-74226190D01*
X131730952Y-74250000D01*
X131754761Y-74273809D01*
X131778571Y-74321428D01*
X131778571Y-74392857D01*
X131754761Y-74440476D01*
X131730952Y-74464285D01*
X131683333Y-74488095D01*
X131492857Y-74488095D01*
X132254761Y-74726190D02*
X131969047Y-74726190D01*
X132111904Y-74726190D02*
X132111904Y-74226190D01*
X132064285Y-74297619D01*
X132016666Y-74345238D01*
X131969047Y-74369047D01*
X132707142Y-74226190D02*
X132469047Y-74226190D01*
X132445238Y-74464285D01*
X132469047Y-74440476D01*
X132516666Y-74416666D01*
X132635714Y-74416666D01*
X132683333Y-74440476D01*
X132707142Y-74464285D01*
X132730952Y-74511904D01*
X132730952Y-74630952D01*
X132707142Y-74678571D01*
X132683333Y-74702380D01*
X132635714Y-74726190D01*
X132516666Y-74726190D01*
X132469047Y-74702380D01*
X132445238Y-74678571D01*
%TO.C,C43*%
X141278571Y-60478571D02*
X141254761Y-60502380D01*
X141183333Y-60526190D01*
X141135714Y-60526190D01*
X141064285Y-60502380D01*
X141016666Y-60454761D01*
X140992857Y-60407142D01*
X140969047Y-60311904D01*
X140969047Y-60240476D01*
X140992857Y-60145238D01*
X141016666Y-60097619D01*
X141064285Y-60050000D01*
X141135714Y-60026190D01*
X141183333Y-60026190D01*
X141254761Y-60050000D01*
X141278571Y-60073809D01*
X141707142Y-60192857D02*
X141707142Y-60526190D01*
X141588095Y-60002380D02*
X141469047Y-60359523D01*
X141778571Y-60359523D01*
X141921428Y-60026190D02*
X142230952Y-60026190D01*
X142064285Y-60216666D01*
X142135714Y-60216666D01*
X142183333Y-60240476D01*
X142207142Y-60264285D01*
X142230952Y-60311904D01*
X142230952Y-60430952D01*
X142207142Y-60478571D01*
X142183333Y-60502380D01*
X142135714Y-60526190D01*
X141992857Y-60526190D01*
X141945238Y-60502380D01*
X141921428Y-60478571D01*
%TO.C,D3*%
X109426190Y-75069047D02*
X108926190Y-75069047D01*
X108926190Y-74950000D01*
X108950000Y-74878571D01*
X108997619Y-74830952D01*
X109045238Y-74807142D01*
X109140476Y-74783333D01*
X109211904Y-74783333D01*
X109307142Y-74807142D01*
X109354761Y-74830952D01*
X109402380Y-74878571D01*
X109426190Y-74950000D01*
X109426190Y-75069047D01*
X108926190Y-74616666D02*
X108926190Y-74307142D01*
X109116666Y-74473809D01*
X109116666Y-74402380D01*
X109140476Y-74354761D01*
X109164285Y-74330952D01*
X109211904Y-74307142D01*
X109330952Y-74307142D01*
X109378571Y-74330952D01*
X109402380Y-74354761D01*
X109426190Y-74402380D01*
X109426190Y-74545238D01*
X109402380Y-74592857D01*
X109378571Y-74616666D01*
%TO.C,C45*%
X148378571Y-68121428D02*
X148402380Y-68145238D01*
X148426190Y-68216666D01*
X148426190Y-68264285D01*
X148402380Y-68335714D01*
X148354761Y-68383333D01*
X148307142Y-68407142D01*
X148211904Y-68430952D01*
X148140476Y-68430952D01*
X148045238Y-68407142D01*
X147997619Y-68383333D01*
X147950000Y-68335714D01*
X147926190Y-68264285D01*
X147926190Y-68216666D01*
X147950000Y-68145238D01*
X147973809Y-68121428D01*
X148092857Y-67692857D02*
X148426190Y-67692857D01*
X147902380Y-67811904D02*
X148259523Y-67930952D01*
X148259523Y-67621428D01*
X147926190Y-67192857D02*
X147926190Y-67430952D01*
X148164285Y-67454761D01*
X148140476Y-67430952D01*
X148116666Y-67383333D01*
X148116666Y-67264285D01*
X148140476Y-67216666D01*
X148164285Y-67192857D01*
X148211904Y-67169047D01*
X148330952Y-67169047D01*
X148378571Y-67192857D01*
X148402380Y-67216666D01*
X148426190Y-67264285D01*
X148426190Y-67383333D01*
X148402380Y-67430952D01*
X148378571Y-67454761D01*
%TO.C,D2*%
X108626190Y-75069047D02*
X108126190Y-75069047D01*
X108126190Y-74950000D01*
X108150000Y-74878571D01*
X108197619Y-74830952D01*
X108245238Y-74807142D01*
X108340476Y-74783333D01*
X108411904Y-74783333D01*
X108507142Y-74807142D01*
X108554761Y-74830952D01*
X108602380Y-74878571D01*
X108626190Y-74950000D01*
X108626190Y-75069047D01*
X108173809Y-74592857D02*
X108150000Y-74569047D01*
X108126190Y-74521428D01*
X108126190Y-74402380D01*
X108150000Y-74354761D01*
X108173809Y-74330952D01*
X108221428Y-74307142D01*
X108269047Y-74307142D01*
X108340476Y-74330952D01*
X108626190Y-74616666D01*
X108626190Y-74307142D01*
%TO.C,C62*%
X116578571Y-58478571D02*
X116554761Y-58502380D01*
X116483333Y-58526190D01*
X116435714Y-58526190D01*
X116364285Y-58502380D01*
X116316666Y-58454761D01*
X116292857Y-58407142D01*
X116269047Y-58311904D01*
X116269047Y-58240476D01*
X116292857Y-58145238D01*
X116316666Y-58097619D01*
X116364285Y-58050000D01*
X116435714Y-58026190D01*
X116483333Y-58026190D01*
X116554761Y-58050000D01*
X116578571Y-58073809D01*
X117007142Y-58026190D02*
X116911904Y-58026190D01*
X116864285Y-58050000D01*
X116840476Y-58073809D01*
X116792857Y-58145238D01*
X116769047Y-58240476D01*
X116769047Y-58430952D01*
X116792857Y-58478571D01*
X116816666Y-58502380D01*
X116864285Y-58526190D01*
X116959523Y-58526190D01*
X117007142Y-58502380D01*
X117030952Y-58478571D01*
X117054761Y-58430952D01*
X117054761Y-58311904D01*
X117030952Y-58264285D01*
X117007142Y-58240476D01*
X116959523Y-58216666D01*
X116864285Y-58216666D01*
X116816666Y-58240476D01*
X116792857Y-58264285D01*
X116769047Y-58311904D01*
X117245238Y-58073809D02*
X117269047Y-58050000D01*
X117316666Y-58026190D01*
X117435714Y-58026190D01*
X117483333Y-58050000D01*
X117507142Y-58073809D01*
X117530952Y-58121428D01*
X117530952Y-58169047D01*
X117507142Y-58240476D01*
X117221428Y-58526190D01*
X117530952Y-58526190D01*
%TO.C,L6*%
X127026190Y-71768333D02*
X127026190Y-72006428D01*
X126526190Y-72006428D01*
X126526190Y-71387380D02*
X126526190Y-71482619D01*
X126550000Y-71530238D01*
X126573809Y-71554047D01*
X126645238Y-71601666D01*
X126740476Y-71625476D01*
X126930952Y-71625476D01*
X126978571Y-71601666D01*
X127002380Y-71577857D01*
X127026190Y-71530238D01*
X127026190Y-71435000D01*
X127002380Y-71387380D01*
X126978571Y-71363571D01*
X126930952Y-71339761D01*
X126811904Y-71339761D01*
X126764285Y-71363571D01*
X126740476Y-71387380D01*
X126716666Y-71435000D01*
X126716666Y-71530238D01*
X126740476Y-71577857D01*
X126764285Y-71601666D01*
X126811904Y-71625476D01*
%TO.C,U2*%
X119719047Y-66126190D02*
X119719047Y-66530952D01*
X119742857Y-66578571D01*
X119766666Y-66602380D01*
X119814285Y-66626190D01*
X119909523Y-66626190D01*
X119957142Y-66602380D01*
X119980952Y-66578571D01*
X120004761Y-66530952D01*
X120004761Y-66126190D01*
X120219047Y-66173809D02*
X120242857Y-66150000D01*
X120290476Y-66126190D01*
X120409523Y-66126190D01*
X120457142Y-66150000D01*
X120480952Y-66173809D01*
X120504761Y-66221428D01*
X120504761Y-66269047D01*
X120480952Y-66340476D01*
X120195238Y-66626190D01*
X120504761Y-66626190D01*
%TO.C,C26*%
X114278571Y-62921428D02*
X114302380Y-62945238D01*
X114326190Y-63016666D01*
X114326190Y-63064285D01*
X114302380Y-63135714D01*
X114254761Y-63183333D01*
X114207142Y-63207142D01*
X114111904Y-63230952D01*
X114040476Y-63230952D01*
X113945238Y-63207142D01*
X113897619Y-63183333D01*
X113850000Y-63135714D01*
X113826190Y-63064285D01*
X113826190Y-63016666D01*
X113850000Y-62945238D01*
X113873809Y-62921428D01*
X113873809Y-62730952D02*
X113850000Y-62707142D01*
X113826190Y-62659523D01*
X113826190Y-62540476D01*
X113850000Y-62492857D01*
X113873809Y-62469047D01*
X113921428Y-62445238D01*
X113969047Y-62445238D01*
X114040476Y-62469047D01*
X114326190Y-62754761D01*
X114326190Y-62445238D01*
X113826190Y-62016666D02*
X113826190Y-62111904D01*
X113850000Y-62159523D01*
X113873809Y-62183333D01*
X113945238Y-62230952D01*
X114040476Y-62254761D01*
X114230952Y-62254761D01*
X114278571Y-62230952D01*
X114302380Y-62207142D01*
X114326190Y-62159523D01*
X114326190Y-62064285D01*
X114302380Y-62016666D01*
X114278571Y-61992857D01*
X114230952Y-61969047D01*
X114111904Y-61969047D01*
X114064285Y-61992857D01*
X114040476Y-62016666D01*
X114016666Y-62064285D01*
X114016666Y-62159523D01*
X114040476Y-62207142D01*
X114064285Y-62230952D01*
X114111904Y-62254761D01*
%TO.C,C20*%
X134278571Y-59421428D02*
X134302380Y-59445238D01*
X134326190Y-59516666D01*
X134326190Y-59564285D01*
X134302380Y-59635714D01*
X134254761Y-59683333D01*
X134207142Y-59707142D01*
X134111904Y-59730952D01*
X134040476Y-59730952D01*
X133945238Y-59707142D01*
X133897619Y-59683333D01*
X133850000Y-59635714D01*
X133826190Y-59564285D01*
X133826190Y-59516666D01*
X133850000Y-59445238D01*
X133873809Y-59421428D01*
X133873809Y-59230952D02*
X133850000Y-59207142D01*
X133826190Y-59159523D01*
X133826190Y-59040476D01*
X133850000Y-58992857D01*
X133873809Y-58969047D01*
X133921428Y-58945238D01*
X133969047Y-58945238D01*
X134040476Y-58969047D01*
X134326190Y-59254761D01*
X134326190Y-58945238D01*
X133826190Y-58635714D02*
X133826190Y-58588095D01*
X133850000Y-58540476D01*
X133873809Y-58516666D01*
X133921428Y-58492857D01*
X134016666Y-58469047D01*
X134135714Y-58469047D01*
X134230952Y-58492857D01*
X134278571Y-58516666D01*
X134302380Y-58540476D01*
X134326190Y-58588095D01*
X134326190Y-58635714D01*
X134302380Y-58683333D01*
X134278571Y-58707142D01*
X134230952Y-58730952D01*
X134135714Y-58754761D01*
X134016666Y-58754761D01*
X133921428Y-58730952D01*
X133873809Y-58707142D01*
X133850000Y-58683333D01*
X133826190Y-58635714D01*
%TO.C,C22*%
X116678571Y-67278571D02*
X116654761Y-67302380D01*
X116583333Y-67326190D01*
X116535714Y-67326190D01*
X116464285Y-67302380D01*
X116416666Y-67254761D01*
X116392857Y-67207142D01*
X116369047Y-67111904D01*
X116369047Y-67040476D01*
X116392857Y-66945238D01*
X116416666Y-66897619D01*
X116464285Y-66850000D01*
X116535714Y-66826190D01*
X116583333Y-66826190D01*
X116654761Y-66850000D01*
X116678571Y-66873809D01*
X116869047Y-66873809D02*
X116892857Y-66850000D01*
X116940476Y-66826190D01*
X117059523Y-66826190D01*
X117107142Y-66850000D01*
X117130952Y-66873809D01*
X117154761Y-66921428D01*
X117154761Y-66969047D01*
X117130952Y-67040476D01*
X116845238Y-67326190D01*
X117154761Y-67326190D01*
X117345238Y-66873809D02*
X117369047Y-66850000D01*
X117416666Y-66826190D01*
X117535714Y-66826190D01*
X117583333Y-66850000D01*
X117607142Y-66873809D01*
X117630952Y-66921428D01*
X117630952Y-66969047D01*
X117607142Y-67040476D01*
X117321428Y-67326190D01*
X117630952Y-67326190D01*
%TO.C,C32*%
X110878571Y-60321428D02*
X110902380Y-60345238D01*
X110926190Y-60416666D01*
X110926190Y-60464285D01*
X110902380Y-60535714D01*
X110854761Y-60583333D01*
X110807142Y-60607142D01*
X110711904Y-60630952D01*
X110640476Y-60630952D01*
X110545238Y-60607142D01*
X110497619Y-60583333D01*
X110450000Y-60535714D01*
X110426190Y-60464285D01*
X110426190Y-60416666D01*
X110450000Y-60345238D01*
X110473809Y-60321428D01*
X110426190Y-60154761D02*
X110426190Y-59845238D01*
X110616666Y-60011904D01*
X110616666Y-59940476D01*
X110640476Y-59892857D01*
X110664285Y-59869047D01*
X110711904Y-59845238D01*
X110830952Y-59845238D01*
X110878571Y-59869047D01*
X110902380Y-59892857D01*
X110926190Y-59940476D01*
X110926190Y-60083333D01*
X110902380Y-60130952D01*
X110878571Y-60154761D01*
X110473809Y-59654761D02*
X110450000Y-59630952D01*
X110426190Y-59583333D01*
X110426190Y-59464285D01*
X110450000Y-59416666D01*
X110473809Y-59392857D01*
X110521428Y-59369047D01*
X110569047Y-59369047D01*
X110640476Y-59392857D01*
X110926190Y-59678571D01*
X110926190Y-59369047D01*
%TO.C,C1*%
X125478571Y-59983333D02*
X125502380Y-60007142D01*
X125526190Y-60078571D01*
X125526190Y-60126190D01*
X125502380Y-60197619D01*
X125454761Y-60245238D01*
X125407142Y-60269047D01*
X125311904Y-60292857D01*
X125240476Y-60292857D01*
X125145238Y-60269047D01*
X125097619Y-60245238D01*
X125050000Y-60197619D01*
X125026190Y-60126190D01*
X125026190Y-60078571D01*
X125050000Y-60007142D01*
X125073809Y-59983333D01*
X125526190Y-59507142D02*
X125526190Y-59792857D01*
X125526190Y-59650000D02*
X125026190Y-59650000D01*
X125097619Y-59697619D01*
X125145238Y-59745238D01*
X125169047Y-59792857D01*
%TO.C,C4*%
X119436666Y-73278571D02*
X119412857Y-73302380D01*
X119341428Y-73326190D01*
X119293809Y-73326190D01*
X119222380Y-73302380D01*
X119174761Y-73254761D01*
X119150952Y-73207142D01*
X119127142Y-73111904D01*
X119127142Y-73040476D01*
X119150952Y-72945238D01*
X119174761Y-72897619D01*
X119222380Y-72850000D01*
X119293809Y-72826190D01*
X119341428Y-72826190D01*
X119412857Y-72850000D01*
X119436666Y-72873809D01*
X119865238Y-72992857D02*
X119865238Y-73326190D01*
X119746190Y-72802380D02*
X119627142Y-73159523D01*
X119936666Y-73159523D01*
%TO.C,C8*%
X122978571Y-60383333D02*
X123002380Y-60407142D01*
X123026190Y-60478571D01*
X123026190Y-60526190D01*
X123002380Y-60597619D01*
X122954761Y-60645238D01*
X122907142Y-60669047D01*
X122811904Y-60692857D01*
X122740476Y-60692857D01*
X122645238Y-60669047D01*
X122597619Y-60645238D01*
X122550000Y-60597619D01*
X122526190Y-60526190D01*
X122526190Y-60478571D01*
X122550000Y-60407142D01*
X122573809Y-60383333D01*
X122740476Y-60097619D02*
X122716666Y-60145238D01*
X122692857Y-60169047D01*
X122645238Y-60192857D01*
X122621428Y-60192857D01*
X122573809Y-60169047D01*
X122550000Y-60145238D01*
X122526190Y-60097619D01*
X122526190Y-60002380D01*
X122550000Y-59954761D01*
X122573809Y-59930952D01*
X122621428Y-59907142D01*
X122645238Y-59907142D01*
X122692857Y-59930952D01*
X122716666Y-59954761D01*
X122740476Y-60002380D01*
X122740476Y-60097619D01*
X122764285Y-60145238D01*
X122788095Y-60169047D01*
X122835714Y-60192857D01*
X122930952Y-60192857D01*
X122978571Y-60169047D01*
X123002380Y-60145238D01*
X123026190Y-60097619D01*
X123026190Y-60002380D01*
X123002380Y-59954761D01*
X122978571Y-59930952D01*
X122930952Y-59907142D01*
X122835714Y-59907142D01*
X122788095Y-59930952D01*
X122764285Y-59954761D01*
X122740476Y-60002380D01*
%TO.C,U5*%
X114326190Y-61080952D02*
X114730952Y-61080952D01*
X114778571Y-61057142D01*
X114802380Y-61033333D01*
X114826190Y-60985714D01*
X114826190Y-60890476D01*
X114802380Y-60842857D01*
X114778571Y-60819047D01*
X114730952Y-60795238D01*
X114326190Y-60795238D01*
X114326190Y-60319047D02*
X114326190Y-60557142D01*
X114564285Y-60580952D01*
X114540476Y-60557142D01*
X114516666Y-60509523D01*
X114516666Y-60390476D01*
X114540476Y-60342857D01*
X114564285Y-60319047D01*
X114611904Y-60295238D01*
X114730952Y-60295238D01*
X114778571Y-60319047D01*
X114802380Y-60342857D01*
X114826190Y-60390476D01*
X114826190Y-60509523D01*
X114802380Y-60557142D01*
X114778571Y-60580952D01*
%TO.C,R16*%
X131778571Y-73226190D02*
X131611904Y-72988095D01*
X131492857Y-73226190D02*
X131492857Y-72726190D01*
X131683333Y-72726190D01*
X131730952Y-72750000D01*
X131754761Y-72773809D01*
X131778571Y-72821428D01*
X131778571Y-72892857D01*
X131754761Y-72940476D01*
X131730952Y-72964285D01*
X131683333Y-72988095D01*
X131492857Y-72988095D01*
X132254761Y-73226190D02*
X131969047Y-73226190D01*
X132111904Y-73226190D02*
X132111904Y-72726190D01*
X132064285Y-72797619D01*
X132016666Y-72845238D01*
X131969047Y-72869047D01*
X132683333Y-72726190D02*
X132588095Y-72726190D01*
X132540476Y-72750000D01*
X132516666Y-72773809D01*
X132469047Y-72845238D01*
X132445238Y-72940476D01*
X132445238Y-73130952D01*
X132469047Y-73178571D01*
X132492857Y-73202380D01*
X132540476Y-73226190D01*
X132635714Y-73226190D01*
X132683333Y-73202380D01*
X132707142Y-73178571D01*
X132730952Y-73130952D01*
X132730952Y-73011904D01*
X132707142Y-72964285D01*
X132683333Y-72940476D01*
X132635714Y-72916666D01*
X132540476Y-72916666D01*
X132492857Y-72940476D01*
X132469047Y-72964285D01*
X132445238Y-73011904D01*
%TO.C,R11*%
X104226190Y-72821428D02*
X103988095Y-72988095D01*
X104226190Y-73107142D02*
X103726190Y-73107142D01*
X103726190Y-72916666D01*
X103750000Y-72869047D01*
X103773809Y-72845238D01*
X103821428Y-72821428D01*
X103892857Y-72821428D01*
X103940476Y-72845238D01*
X103964285Y-72869047D01*
X103988095Y-72916666D01*
X103988095Y-73107142D01*
X104226190Y-72345238D02*
X104226190Y-72630952D01*
X104226190Y-72488095D02*
X103726190Y-72488095D01*
X103797619Y-72535714D01*
X103845238Y-72583333D01*
X103869047Y-72630952D01*
X104226190Y-71869047D02*
X104226190Y-72154761D01*
X104226190Y-72011904D02*
X103726190Y-72011904D01*
X103797619Y-72059523D01*
X103845238Y-72107142D01*
X103869047Y-72154761D01*
%TO.C,L2*%
X118926190Y-70083333D02*
X118926190Y-70321428D01*
X118426190Y-70321428D01*
X118473809Y-69940476D02*
X118450000Y-69916666D01*
X118426190Y-69869047D01*
X118426190Y-69750000D01*
X118450000Y-69702380D01*
X118473809Y-69678571D01*
X118521428Y-69654761D01*
X118569047Y-69654761D01*
X118640476Y-69678571D01*
X118926190Y-69964285D01*
X118926190Y-69654761D01*
%TO.C,C14*%
X128378571Y-72978571D02*
X128354761Y-73002380D01*
X128283333Y-73026190D01*
X128235714Y-73026190D01*
X128164285Y-73002380D01*
X128116666Y-72954761D01*
X128092857Y-72907142D01*
X128069047Y-72811904D01*
X128069047Y-72740476D01*
X128092857Y-72645238D01*
X128116666Y-72597619D01*
X128164285Y-72550000D01*
X128235714Y-72526190D01*
X128283333Y-72526190D01*
X128354761Y-72550000D01*
X128378571Y-72573809D01*
X128854761Y-73026190D02*
X128569047Y-73026190D01*
X128711904Y-73026190D02*
X128711904Y-72526190D01*
X128664285Y-72597619D01*
X128616666Y-72645238D01*
X128569047Y-72669047D01*
X129283333Y-72692857D02*
X129283333Y-73026190D01*
X129164285Y-72502380D02*
X129045238Y-72859523D01*
X129354761Y-72859523D01*
%TO.C,L3*%
X128773809Y-59916666D02*
X128773809Y-59678571D01*
X129273809Y-59678571D01*
X129273809Y-60035714D02*
X129273809Y-60345238D01*
X129083333Y-60178571D01*
X129083333Y-60250000D01*
X129059523Y-60297619D01*
X129035714Y-60321428D01*
X128988095Y-60345238D01*
X128869047Y-60345238D01*
X128821428Y-60321428D01*
X128797619Y-60297619D01*
X128773809Y-60250000D01*
X128773809Y-60107142D01*
X128797619Y-60059523D01*
X128821428Y-60035714D01*
%TO.C,R9*%
X105116666Y-68226190D02*
X104950000Y-67988095D01*
X104830952Y-68226190D02*
X104830952Y-67726190D01*
X105021428Y-67726190D01*
X105069047Y-67750000D01*
X105092857Y-67773809D01*
X105116666Y-67821428D01*
X105116666Y-67892857D01*
X105092857Y-67940476D01*
X105069047Y-67964285D01*
X105021428Y-67988095D01*
X104830952Y-67988095D01*
X105354761Y-68226190D02*
X105450000Y-68226190D01*
X105497619Y-68202380D01*
X105521428Y-68178571D01*
X105569047Y-68107142D01*
X105592857Y-68011904D01*
X105592857Y-67821428D01*
X105569047Y-67773809D01*
X105545238Y-67750000D01*
X105497619Y-67726190D01*
X105402380Y-67726190D01*
X105354761Y-67750000D01*
X105330952Y-67773809D01*
X105307142Y-67821428D01*
X105307142Y-67940476D01*
X105330952Y-67988095D01*
X105354761Y-68011904D01*
X105402380Y-68035714D01*
X105497619Y-68035714D01*
X105545238Y-68011904D01*
X105569047Y-67988095D01*
X105592857Y-67940476D01*
%TO.C,C34*%
X107878571Y-62178571D02*
X107854761Y-62202380D01*
X107783333Y-62226190D01*
X107735714Y-62226190D01*
X107664285Y-62202380D01*
X107616666Y-62154761D01*
X107592857Y-62107142D01*
X107569047Y-62011904D01*
X107569047Y-61940476D01*
X107592857Y-61845238D01*
X107616666Y-61797619D01*
X107664285Y-61750000D01*
X107735714Y-61726190D01*
X107783333Y-61726190D01*
X107854761Y-61750000D01*
X107878571Y-61773809D01*
X108045238Y-61726190D02*
X108354761Y-61726190D01*
X108188095Y-61916666D01*
X108259523Y-61916666D01*
X108307142Y-61940476D01*
X108330952Y-61964285D01*
X108354761Y-62011904D01*
X108354761Y-62130952D01*
X108330952Y-62178571D01*
X108307142Y-62202380D01*
X108259523Y-62226190D01*
X108116666Y-62226190D01*
X108069047Y-62202380D01*
X108045238Y-62178571D01*
X108783333Y-61892857D02*
X108783333Y-62226190D01*
X108664285Y-61702380D02*
X108545238Y-62059523D01*
X108854761Y-62059523D01*
%TO.C,C17*%
X131378571Y-59778571D02*
X131354761Y-59802380D01*
X131283333Y-59826190D01*
X131235714Y-59826190D01*
X131164285Y-59802380D01*
X131116666Y-59754761D01*
X131092857Y-59707142D01*
X131069047Y-59611904D01*
X131069047Y-59540476D01*
X131092857Y-59445238D01*
X131116666Y-59397619D01*
X131164285Y-59350000D01*
X131235714Y-59326190D01*
X131283333Y-59326190D01*
X131354761Y-59350000D01*
X131378571Y-59373809D01*
X131854761Y-59826190D02*
X131569047Y-59826190D01*
X131711904Y-59826190D02*
X131711904Y-59326190D01*
X131664285Y-59397619D01*
X131616666Y-59445238D01*
X131569047Y-59469047D01*
X132021428Y-59326190D02*
X132354761Y-59326190D01*
X132140476Y-59826190D01*
%TO.C,L8*%
X137526190Y-62283333D02*
X137526190Y-62521428D01*
X137026190Y-62521428D01*
X137240476Y-62045238D02*
X137216666Y-62092857D01*
X137192857Y-62116666D01*
X137145238Y-62140476D01*
X137121428Y-62140476D01*
X137073809Y-62116666D01*
X137050000Y-62092857D01*
X137026190Y-62045238D01*
X137026190Y-61950000D01*
X137050000Y-61902380D01*
X137073809Y-61878571D01*
X137121428Y-61854761D01*
X137145238Y-61854761D01*
X137192857Y-61878571D01*
X137216666Y-61902380D01*
X137240476Y-61950000D01*
X137240476Y-62045238D01*
X137264285Y-62092857D01*
X137288095Y-62116666D01*
X137335714Y-62140476D01*
X137430952Y-62140476D01*
X137478571Y-62116666D01*
X137502380Y-62092857D01*
X137526190Y-62045238D01*
X137526190Y-61950000D01*
X137502380Y-61902380D01*
X137478571Y-61878571D01*
X137430952Y-61854761D01*
X137335714Y-61854761D01*
X137288095Y-61878571D01*
X137264285Y-61902380D01*
X137240476Y-61950000D01*
%TO.C,C33*%
X151378571Y-57378571D02*
X151354761Y-57402380D01*
X151283333Y-57426190D01*
X151235714Y-57426190D01*
X151164285Y-57402380D01*
X151116666Y-57354761D01*
X151092857Y-57307142D01*
X151069047Y-57211904D01*
X151069047Y-57140476D01*
X151092857Y-57045238D01*
X151116666Y-56997619D01*
X151164285Y-56950000D01*
X151235714Y-56926190D01*
X151283333Y-56926190D01*
X151354761Y-56950000D01*
X151378571Y-56973809D01*
X151545238Y-56926190D02*
X151854761Y-56926190D01*
X151688095Y-57116666D01*
X151759523Y-57116666D01*
X151807142Y-57140476D01*
X151830952Y-57164285D01*
X151854761Y-57211904D01*
X151854761Y-57330952D01*
X151830952Y-57378571D01*
X151807142Y-57402380D01*
X151759523Y-57426190D01*
X151616666Y-57426190D01*
X151569047Y-57402380D01*
X151545238Y-57378571D01*
X152021428Y-56926190D02*
X152330952Y-56926190D01*
X152164285Y-57116666D01*
X152235714Y-57116666D01*
X152283333Y-57140476D01*
X152307142Y-57164285D01*
X152330952Y-57211904D01*
X152330952Y-57330952D01*
X152307142Y-57378571D01*
X152283333Y-57402380D01*
X152235714Y-57426190D01*
X152092857Y-57426190D01*
X152045238Y-57402380D01*
X152021428Y-57378571D01*
%TO.C,C23*%
X104678571Y-69978571D02*
X104654761Y-70002380D01*
X104583333Y-70026190D01*
X104535714Y-70026190D01*
X104464285Y-70002380D01*
X104416666Y-69954761D01*
X104392857Y-69907142D01*
X104369047Y-69811904D01*
X104369047Y-69740476D01*
X104392857Y-69645238D01*
X104416666Y-69597619D01*
X104464285Y-69550000D01*
X104535714Y-69526190D01*
X104583333Y-69526190D01*
X104654761Y-69550000D01*
X104678571Y-69573809D01*
X104869047Y-69573809D02*
X104892857Y-69550000D01*
X104940476Y-69526190D01*
X105059523Y-69526190D01*
X105107142Y-69550000D01*
X105130952Y-69573809D01*
X105154761Y-69621428D01*
X105154761Y-69669047D01*
X105130952Y-69740476D01*
X104845238Y-70026190D01*
X105154761Y-70026190D01*
X105321428Y-69526190D02*
X105630952Y-69526190D01*
X105464285Y-69716666D01*
X105535714Y-69716666D01*
X105583333Y-69740476D01*
X105607142Y-69764285D01*
X105630952Y-69811904D01*
X105630952Y-69930952D01*
X105607142Y-69978571D01*
X105583333Y-70002380D01*
X105535714Y-70026190D01*
X105392857Y-70026190D01*
X105345238Y-70002380D01*
X105321428Y-69978571D01*
%TO.C,R2*%
X122816666Y-67226190D02*
X122650000Y-66988095D01*
X122530952Y-67226190D02*
X122530952Y-66726190D01*
X122721428Y-66726190D01*
X122769047Y-66750000D01*
X122792857Y-66773809D01*
X122816666Y-66821428D01*
X122816666Y-66892857D01*
X122792857Y-66940476D01*
X122769047Y-66964285D01*
X122721428Y-66988095D01*
X122530952Y-66988095D01*
X123007142Y-66773809D02*
X123030952Y-66750000D01*
X123078571Y-66726190D01*
X123197619Y-66726190D01*
X123245238Y-66750000D01*
X123269047Y-66773809D01*
X123292857Y-66821428D01*
X123292857Y-66869047D01*
X123269047Y-66940476D01*
X122983333Y-67226190D01*
X123292857Y-67226190D01*
%TO.C,C54*%
X104678571Y-65778571D02*
X104654761Y-65802380D01*
X104583333Y-65826190D01*
X104535714Y-65826190D01*
X104464285Y-65802380D01*
X104416666Y-65754761D01*
X104392857Y-65707142D01*
X104369047Y-65611904D01*
X104369047Y-65540476D01*
X104392857Y-65445238D01*
X104416666Y-65397619D01*
X104464285Y-65350000D01*
X104535714Y-65326190D01*
X104583333Y-65326190D01*
X104654761Y-65350000D01*
X104678571Y-65373809D01*
X105130952Y-65326190D02*
X104892857Y-65326190D01*
X104869047Y-65564285D01*
X104892857Y-65540476D01*
X104940476Y-65516666D01*
X105059523Y-65516666D01*
X105107142Y-65540476D01*
X105130952Y-65564285D01*
X105154761Y-65611904D01*
X105154761Y-65730952D01*
X105130952Y-65778571D01*
X105107142Y-65802380D01*
X105059523Y-65826190D01*
X104940476Y-65826190D01*
X104892857Y-65802380D01*
X104869047Y-65778571D01*
X105583333Y-65492857D02*
X105583333Y-65826190D01*
X105464285Y-65302380D02*
X105345238Y-65659523D01*
X105654761Y-65659523D01*
%TO.C,C31*%
X146421428Y-59278571D02*
X146397619Y-59254761D01*
X146373809Y-59183333D01*
X146373809Y-59135714D01*
X146397619Y-59064285D01*
X146445238Y-59016666D01*
X146492857Y-58992857D01*
X146588095Y-58969047D01*
X146659523Y-58969047D01*
X146754761Y-58992857D01*
X146802380Y-59016666D01*
X146850000Y-59064285D01*
X146873809Y-59135714D01*
X146873809Y-59183333D01*
X146850000Y-59254761D01*
X146826190Y-59278571D01*
X146873809Y-59445238D02*
X146873809Y-59754761D01*
X146683333Y-59588095D01*
X146683333Y-59659523D01*
X146659523Y-59707142D01*
X146635714Y-59730952D01*
X146588095Y-59754761D01*
X146469047Y-59754761D01*
X146421428Y-59730952D01*
X146397619Y-59707142D01*
X146373809Y-59659523D01*
X146373809Y-59516666D01*
X146397619Y-59469047D01*
X146421428Y-59445238D01*
X146373809Y-60230952D02*
X146373809Y-59945238D01*
X146373809Y-60088095D02*
X146873809Y-60088095D01*
X146802380Y-60040476D01*
X146754761Y-59992857D01*
X146730952Y-59945238D01*
%TO.C,C24*%
X112821428Y-74078571D02*
X112797619Y-74054761D01*
X112773809Y-73983333D01*
X112773809Y-73935714D01*
X112797619Y-73864285D01*
X112845238Y-73816666D01*
X112892857Y-73792857D01*
X112988095Y-73769047D01*
X113059523Y-73769047D01*
X113154761Y-73792857D01*
X113202380Y-73816666D01*
X113250000Y-73864285D01*
X113273809Y-73935714D01*
X113273809Y-73983333D01*
X113250000Y-74054761D01*
X113226190Y-74078571D01*
X113226190Y-74269047D02*
X113250000Y-74292857D01*
X113273809Y-74340476D01*
X113273809Y-74459523D01*
X113250000Y-74507142D01*
X113226190Y-74530952D01*
X113178571Y-74554761D01*
X113130952Y-74554761D01*
X113059523Y-74530952D01*
X112773809Y-74245238D01*
X112773809Y-74554761D01*
X113107142Y-74983333D02*
X112773809Y-74983333D01*
X113297619Y-74864285D02*
X112940476Y-74745238D01*
X112940476Y-75054761D01*
%TO.C,C9*%
X122778571Y-68883333D02*
X122802380Y-68907142D01*
X122826190Y-68978571D01*
X122826190Y-69026190D01*
X122802380Y-69097619D01*
X122754761Y-69145238D01*
X122707142Y-69169047D01*
X122611904Y-69192857D01*
X122540476Y-69192857D01*
X122445238Y-69169047D01*
X122397619Y-69145238D01*
X122350000Y-69097619D01*
X122326190Y-69026190D01*
X122326190Y-68978571D01*
X122350000Y-68907142D01*
X122373809Y-68883333D01*
X122826190Y-68645238D02*
X122826190Y-68550000D01*
X122802380Y-68502380D01*
X122778571Y-68478571D01*
X122707142Y-68430952D01*
X122611904Y-68407142D01*
X122421428Y-68407142D01*
X122373809Y-68430952D01*
X122350000Y-68454761D01*
X122326190Y-68502380D01*
X122326190Y-68597619D01*
X122350000Y-68645238D01*
X122373809Y-68669047D01*
X122421428Y-68692857D01*
X122540476Y-68692857D01*
X122588095Y-68669047D01*
X122611904Y-68645238D01*
X122635714Y-68597619D01*
X122635714Y-68502380D01*
X122611904Y-68454761D01*
X122588095Y-68430952D01*
X122540476Y-68407142D01*
%TO.C,R7*%
X105116666Y-67426190D02*
X104950000Y-67188095D01*
X104830952Y-67426190D02*
X104830952Y-66926190D01*
X105021428Y-66926190D01*
X105069047Y-66950000D01*
X105092857Y-66973809D01*
X105116666Y-67021428D01*
X105116666Y-67092857D01*
X105092857Y-67140476D01*
X105069047Y-67164285D01*
X105021428Y-67188095D01*
X104830952Y-67188095D01*
X105283333Y-66926190D02*
X105616666Y-66926190D01*
X105402380Y-67426190D01*
%TO.C,U7*%
X137119047Y-62926190D02*
X137119047Y-63330952D01*
X137142857Y-63378571D01*
X137166666Y-63402380D01*
X137214285Y-63426190D01*
X137309523Y-63426190D01*
X137357142Y-63402380D01*
X137380952Y-63378571D01*
X137404761Y-63330952D01*
X137404761Y-62926190D01*
X137595238Y-62926190D02*
X137928571Y-62926190D01*
X137714285Y-63426190D01*
%TO.C,L10*%
X140728571Y-62126190D02*
X140490476Y-62126190D01*
X140490476Y-61626190D01*
X141157142Y-62126190D02*
X140871428Y-62126190D01*
X141014285Y-62126190D02*
X141014285Y-61626190D01*
X140966666Y-61697619D01*
X140919047Y-61745238D01*
X140871428Y-61769047D01*
X141466666Y-61626190D02*
X141514285Y-61626190D01*
X141561904Y-61650000D01*
X141585714Y-61673809D01*
X141609523Y-61721428D01*
X141633333Y-61816666D01*
X141633333Y-61935714D01*
X141609523Y-62030952D01*
X141585714Y-62078571D01*
X141561904Y-62102380D01*
X141514285Y-62126190D01*
X141466666Y-62126190D01*
X141419047Y-62102380D01*
X141395238Y-62078571D01*
X141371428Y-62030952D01*
X141347619Y-61935714D01*
X141347619Y-61816666D01*
X141371428Y-61721428D01*
X141395238Y-61673809D01*
X141419047Y-61650000D01*
X141466666Y-61626190D01*
%TO.C,L14*%
X142873809Y-64378571D02*
X142873809Y-64140476D01*
X143373809Y-64140476D01*
X142873809Y-64807142D02*
X142873809Y-64521428D01*
X142873809Y-64664285D02*
X143373809Y-64664285D01*
X143302380Y-64616666D01*
X143254761Y-64569047D01*
X143230952Y-64521428D01*
X143207142Y-65235714D02*
X142873809Y-65235714D01*
X143397619Y-65116666D02*
X143040476Y-64997619D01*
X143040476Y-65307142D01*
%TO.C,C60*%
X147898984Y-76353553D02*
X147898984Y-76387225D01*
X147865312Y-76454568D01*
X147831641Y-76488240D01*
X147764297Y-76521912D01*
X147696954Y-76521912D01*
X147646446Y-76505076D01*
X147562267Y-76454568D01*
X147511759Y-76404061D01*
X147461251Y-76319881D01*
X147444416Y-76269374D01*
X147444416Y-76202030D01*
X147478087Y-76134687D01*
X147511759Y-76101015D01*
X147579103Y-76067343D01*
X147612774Y-76067343D01*
X147882148Y-75730625D02*
X147814805Y-75797969D01*
X147797969Y-75848477D01*
X147797969Y-75882148D01*
X147814805Y-75966328D01*
X147865312Y-76050507D01*
X148000000Y-76185194D01*
X148050507Y-76202030D01*
X148084179Y-76202030D01*
X148134687Y-76185194D01*
X148202030Y-76117851D01*
X148218866Y-76067343D01*
X148218866Y-76033671D01*
X148202030Y-75983164D01*
X148117851Y-75898984D01*
X148067343Y-75882148D01*
X148033671Y-75882148D01*
X147983164Y-75898984D01*
X147915820Y-75966328D01*
X147898984Y-76016835D01*
X147898984Y-76050507D01*
X147915820Y-76101015D01*
X148134687Y-75478087D02*
X148168358Y-75444416D01*
X148218866Y-75427580D01*
X148252538Y-75427580D01*
X148303045Y-75444416D01*
X148387225Y-75494923D01*
X148471404Y-75579103D01*
X148521912Y-75663282D01*
X148538748Y-75713790D01*
X148538748Y-75747461D01*
X148521912Y-75797969D01*
X148488240Y-75831641D01*
X148437732Y-75848477D01*
X148404061Y-75848477D01*
X148353553Y-75831641D01*
X148269374Y-75781133D01*
X148185194Y-75696954D01*
X148134687Y-75612774D01*
X148117851Y-75562267D01*
X148117851Y-75528595D01*
X148134687Y-75478087D01*
%TO.C,L13*%
X146728571Y-67026190D02*
X146490476Y-67026190D01*
X146490476Y-66526190D01*
X147157142Y-67026190D02*
X146871428Y-67026190D01*
X147014285Y-67026190D02*
X147014285Y-66526190D01*
X146966666Y-66597619D01*
X146919047Y-66645238D01*
X146871428Y-66669047D01*
X147323809Y-66526190D02*
X147633333Y-66526190D01*
X147466666Y-66716666D01*
X147538095Y-66716666D01*
X147585714Y-66740476D01*
X147609523Y-66764285D01*
X147633333Y-66811904D01*
X147633333Y-66930952D01*
X147609523Y-66978571D01*
X147585714Y-67002380D01*
X147538095Y-67026190D01*
X147395238Y-67026190D01*
X147347619Y-67002380D01*
X147323809Y-66978571D01*
%TO.C,C58*%
X131778571Y-75378571D02*
X131754761Y-75402380D01*
X131683333Y-75426190D01*
X131635714Y-75426190D01*
X131564285Y-75402380D01*
X131516666Y-75354761D01*
X131492857Y-75307142D01*
X131469047Y-75211904D01*
X131469047Y-75140476D01*
X131492857Y-75045238D01*
X131516666Y-74997619D01*
X131564285Y-74950000D01*
X131635714Y-74926190D01*
X131683333Y-74926190D01*
X131754761Y-74950000D01*
X131778571Y-74973809D01*
X132230952Y-74926190D02*
X131992857Y-74926190D01*
X131969047Y-75164285D01*
X131992857Y-75140476D01*
X132040476Y-75116666D01*
X132159523Y-75116666D01*
X132207142Y-75140476D01*
X132230952Y-75164285D01*
X132254761Y-75211904D01*
X132254761Y-75330952D01*
X132230952Y-75378571D01*
X132207142Y-75402380D01*
X132159523Y-75426190D01*
X132040476Y-75426190D01*
X131992857Y-75402380D01*
X131969047Y-75378571D01*
X132540476Y-75140476D02*
X132492857Y-75116666D01*
X132469047Y-75092857D01*
X132445238Y-75045238D01*
X132445238Y-75021428D01*
X132469047Y-74973809D01*
X132492857Y-74950000D01*
X132540476Y-74926190D01*
X132635714Y-74926190D01*
X132683333Y-74950000D01*
X132707142Y-74973809D01*
X132730952Y-75021428D01*
X132730952Y-75045238D01*
X132707142Y-75092857D01*
X132683333Y-75116666D01*
X132635714Y-75140476D01*
X132540476Y-75140476D01*
X132492857Y-75164285D01*
X132469047Y-75188095D01*
X132445238Y-75235714D01*
X132445238Y-75330952D01*
X132469047Y-75378571D01*
X132492857Y-75402380D01*
X132540476Y-75426190D01*
X132635714Y-75426190D01*
X132683333Y-75402380D01*
X132707142Y-75378571D01*
X132730952Y-75330952D01*
X132730952Y-75235714D01*
X132707142Y-75188095D01*
X132683333Y-75164285D01*
X132635714Y-75140476D01*
%TO.C,L9*%
X144616666Y-67026190D02*
X144378571Y-67026190D01*
X144378571Y-66526190D01*
X144807142Y-67026190D02*
X144902380Y-67026190D01*
X144950000Y-67002380D01*
X144973809Y-66978571D01*
X145021428Y-66907142D01*
X145045238Y-66811904D01*
X145045238Y-66621428D01*
X145021428Y-66573809D01*
X144997619Y-66550000D01*
X144950000Y-66526190D01*
X144854761Y-66526190D01*
X144807142Y-66550000D01*
X144783333Y-66573809D01*
X144759523Y-66621428D01*
X144759523Y-66740476D01*
X144783333Y-66788095D01*
X144807142Y-66811904D01*
X144854761Y-66835714D01*
X144950000Y-66835714D01*
X144997619Y-66811904D01*
X145021428Y-66788095D01*
X145045238Y-66740476D01*
%TO.C,C15*%
X128378571Y-64678571D02*
X128354761Y-64702380D01*
X128283333Y-64726190D01*
X128235714Y-64726190D01*
X128164285Y-64702380D01*
X128116666Y-64654761D01*
X128092857Y-64607142D01*
X128069047Y-64511904D01*
X128069047Y-64440476D01*
X128092857Y-64345238D01*
X128116666Y-64297619D01*
X128164285Y-64250000D01*
X128235714Y-64226190D01*
X128283333Y-64226190D01*
X128354761Y-64250000D01*
X128378571Y-64273809D01*
X128854761Y-64726190D02*
X128569047Y-64726190D01*
X128711904Y-64726190D02*
X128711904Y-64226190D01*
X128664285Y-64297619D01*
X128616666Y-64345238D01*
X128569047Y-64369047D01*
X129307142Y-64226190D02*
X129069047Y-64226190D01*
X129045238Y-64464285D01*
X129069047Y-64440476D01*
X129116666Y-64416666D01*
X129235714Y-64416666D01*
X129283333Y-64440476D01*
X129307142Y-64464285D01*
X129330952Y-64511904D01*
X129330952Y-64630952D01*
X129307142Y-64678571D01*
X129283333Y-64702380D01*
X129235714Y-64726190D01*
X129116666Y-64726190D01*
X129069047Y-64702380D01*
X129045238Y-64678571D01*
%TO.C,L16*%
X147626190Y-74421428D02*
X147626190Y-74659523D01*
X147126190Y-74659523D01*
X147626190Y-73992857D02*
X147626190Y-74278571D01*
X147626190Y-74135714D02*
X147126190Y-74135714D01*
X147197619Y-74183333D01*
X147245238Y-74230952D01*
X147269047Y-74278571D01*
X147126190Y-73564285D02*
X147126190Y-73659523D01*
X147150000Y-73707142D01*
X147173809Y-73730952D01*
X147245238Y-73778571D01*
X147340476Y-73802380D01*
X147530952Y-73802380D01*
X147578571Y-73778571D01*
X147602380Y-73754761D01*
X147626190Y-73707142D01*
X147626190Y-73611904D01*
X147602380Y-73564285D01*
X147578571Y-73540476D01*
X147530952Y-73516666D01*
X147411904Y-73516666D01*
X147364285Y-73540476D01*
X147340476Y-73564285D01*
X147316666Y-73611904D01*
X147316666Y-73707142D01*
X147340476Y-73754761D01*
X147364285Y-73778571D01*
X147411904Y-73802380D01*
%TO.C,C59*%
X131778571Y-73878571D02*
X131754761Y-73902380D01*
X131683333Y-73926190D01*
X131635714Y-73926190D01*
X131564285Y-73902380D01*
X131516666Y-73854761D01*
X131492857Y-73807142D01*
X131469047Y-73711904D01*
X131469047Y-73640476D01*
X131492857Y-73545238D01*
X131516666Y-73497619D01*
X131564285Y-73450000D01*
X131635714Y-73426190D01*
X131683333Y-73426190D01*
X131754761Y-73450000D01*
X131778571Y-73473809D01*
X132230952Y-73426190D02*
X131992857Y-73426190D01*
X131969047Y-73664285D01*
X131992857Y-73640476D01*
X132040476Y-73616666D01*
X132159523Y-73616666D01*
X132207142Y-73640476D01*
X132230952Y-73664285D01*
X132254761Y-73711904D01*
X132254761Y-73830952D01*
X132230952Y-73878571D01*
X132207142Y-73902380D01*
X132159523Y-73926190D01*
X132040476Y-73926190D01*
X131992857Y-73902380D01*
X131969047Y-73878571D01*
X132492857Y-73926190D02*
X132588095Y-73926190D01*
X132635714Y-73902380D01*
X132659523Y-73878571D01*
X132707142Y-73807142D01*
X132730952Y-73711904D01*
X132730952Y-73521428D01*
X132707142Y-73473809D01*
X132683333Y-73450000D01*
X132635714Y-73426190D01*
X132540476Y-73426190D01*
X132492857Y-73450000D01*
X132469047Y-73473809D01*
X132445238Y-73521428D01*
X132445238Y-73640476D01*
X132469047Y-73688095D01*
X132492857Y-73711904D01*
X132540476Y-73735714D01*
X132635714Y-73735714D01*
X132683333Y-73711904D01*
X132707142Y-73688095D01*
X132730952Y-73640476D01*
%TO.C,R17*%
X149178571Y-72426190D02*
X149011904Y-72188095D01*
X148892857Y-72426190D02*
X148892857Y-71926190D01*
X149083333Y-71926190D01*
X149130952Y-71950000D01*
X149154761Y-71973809D01*
X149178571Y-72021428D01*
X149178571Y-72092857D01*
X149154761Y-72140476D01*
X149130952Y-72164285D01*
X149083333Y-72188095D01*
X148892857Y-72188095D01*
X149654761Y-72426190D02*
X149369047Y-72426190D01*
X149511904Y-72426190D02*
X149511904Y-71926190D01*
X149464285Y-71997619D01*
X149416666Y-72045238D01*
X149369047Y-72069047D01*
X149821428Y-71926190D02*
X150154761Y-71926190D01*
X149940476Y-72426190D01*
%TO.C,C27*%
X116678571Y-69578571D02*
X116654761Y-69602380D01*
X116583333Y-69626190D01*
X116535714Y-69626190D01*
X116464285Y-69602380D01*
X116416666Y-69554761D01*
X116392857Y-69507142D01*
X116369047Y-69411904D01*
X116369047Y-69340476D01*
X116392857Y-69245238D01*
X116416666Y-69197619D01*
X116464285Y-69150000D01*
X116535714Y-69126190D01*
X116583333Y-69126190D01*
X116654761Y-69150000D01*
X116678571Y-69173809D01*
X116869047Y-69173809D02*
X116892857Y-69150000D01*
X116940476Y-69126190D01*
X117059523Y-69126190D01*
X117107142Y-69150000D01*
X117130952Y-69173809D01*
X117154761Y-69221428D01*
X117154761Y-69269047D01*
X117130952Y-69340476D01*
X116845238Y-69626190D01*
X117154761Y-69626190D01*
X117321428Y-69126190D02*
X117654761Y-69126190D01*
X117440476Y-69626190D01*
%TO.C,C64*%
X137878571Y-72978571D02*
X137854761Y-73002380D01*
X137783333Y-73026190D01*
X137735714Y-73026190D01*
X137664285Y-73002380D01*
X137616666Y-72954761D01*
X137592857Y-72907142D01*
X137569047Y-72811904D01*
X137569047Y-72740476D01*
X137592857Y-72645238D01*
X137616666Y-72597619D01*
X137664285Y-72550000D01*
X137735714Y-72526190D01*
X137783333Y-72526190D01*
X137854761Y-72550000D01*
X137878571Y-72573809D01*
X138307142Y-72526190D02*
X138211904Y-72526190D01*
X138164285Y-72550000D01*
X138140476Y-72573809D01*
X138092857Y-72645238D01*
X138069047Y-72740476D01*
X138069047Y-72930952D01*
X138092857Y-72978571D01*
X138116666Y-73002380D01*
X138164285Y-73026190D01*
X138259523Y-73026190D01*
X138307142Y-73002380D01*
X138330952Y-72978571D01*
X138354761Y-72930952D01*
X138354761Y-72811904D01*
X138330952Y-72764285D01*
X138307142Y-72740476D01*
X138259523Y-72716666D01*
X138164285Y-72716666D01*
X138116666Y-72740476D01*
X138092857Y-72764285D01*
X138069047Y-72811904D01*
X138783333Y-72692857D02*
X138783333Y-73026190D01*
X138664285Y-72502380D02*
X138545238Y-72859523D01*
X138854761Y-72859523D01*
%TO.C,C10*%
X126178571Y-61121428D02*
X126202380Y-61145238D01*
X126226190Y-61216666D01*
X126226190Y-61264285D01*
X126202380Y-61335714D01*
X126154761Y-61383333D01*
X126107142Y-61407142D01*
X126011904Y-61430952D01*
X125940476Y-61430952D01*
X125845238Y-61407142D01*
X125797619Y-61383333D01*
X125750000Y-61335714D01*
X125726190Y-61264285D01*
X125726190Y-61216666D01*
X125750000Y-61145238D01*
X125773809Y-61121428D01*
X126226190Y-60645238D02*
X126226190Y-60930952D01*
X126226190Y-60788095D02*
X125726190Y-60788095D01*
X125797619Y-60835714D01*
X125845238Y-60883333D01*
X125869047Y-60930952D01*
X125726190Y-60335714D02*
X125726190Y-60288095D01*
X125750000Y-60240476D01*
X125773809Y-60216666D01*
X125821428Y-60192857D01*
X125916666Y-60169047D01*
X126035714Y-60169047D01*
X126130952Y-60192857D01*
X126178571Y-60216666D01*
X126202380Y-60240476D01*
X126226190Y-60288095D01*
X126226190Y-60335714D01*
X126202380Y-60383333D01*
X126178571Y-60407142D01*
X126130952Y-60430952D01*
X126035714Y-60454761D01*
X125916666Y-60454761D01*
X125821428Y-60430952D01*
X125773809Y-60407142D01*
X125750000Y-60383333D01*
X125726190Y-60335714D01*
D13*
%TO.C,C42*%
X137492164Y-59080000D02*
X137707836Y-59080000D01*
X137492164Y-59800000D02*
X137707836Y-59800000D01*
%TO.C,C35*%
X149942164Y-57840000D02*
X150157836Y-57840000D01*
X149942164Y-58560000D02*
X150157836Y-58560000D01*
%TO.C,D1*%
X103565000Y-75900000D02*
X103565000Y-78185000D01*
X105035000Y-78185000D02*
X105035000Y-75900000D01*
X103565000Y-78185000D02*
X105035000Y-78185000D01*
%TO.C,C2*%
X119657836Y-63540000D02*
X119442164Y-63540000D01*
X119657836Y-64260000D02*
X119442164Y-64260000D01*
%TO.C,L1*%
X119340000Y-61300378D02*
X119340000Y-62099622D01*
X120460000Y-61300378D02*
X120460000Y-62099622D01*
D14*
%TO.C,U8*%
X139300000Y-76600000D02*
X139300000Y-69600000D01*
X139300000Y-69600000D02*
X146300000Y-69600000D01*
X146300000Y-76600000D02*
X139300000Y-76600000D01*
X146300000Y-69600000D02*
X146300000Y-76600000D01*
D13*
%TO.C,R4*%
X147980000Y-61403641D02*
X147980000Y-61096359D01*
X147220000Y-61403641D02*
X147220000Y-61096359D01*
%TO.C,FL2*%
X134300000Y-66600000D02*
X133100000Y-66600000D01*
X133100000Y-67600000D02*
X134300000Y-67600000D01*
X133100000Y-66600000D02*
X133100000Y-67600000D01*
X134300000Y-67600000D02*
X134300000Y-66600000D01*
X134450000Y-67600000D02*
X134450000Y-66600000D01*
%TO.C,C3*%
X124512164Y-69445000D02*
X124727836Y-69445000D01*
X124512164Y-68725000D02*
X124727836Y-68725000D01*
%TO.C,R12*%
X105380000Y-74353641D02*
X105380000Y-74046359D01*
X104620000Y-74353641D02*
X104620000Y-74046359D01*
%TO.C,R5*%
X112180000Y-58146359D02*
X112180000Y-58453641D01*
X111420000Y-58146359D02*
X111420000Y-58453641D01*
%TO.C,C30*%
X107392164Y-57160000D02*
X107607836Y-57160000D01*
X107392164Y-56440000D02*
X107607836Y-56440000D01*
%TO.C,C65*%
X138307836Y-70440000D02*
X138092164Y-70440000D01*
X138307836Y-71160000D02*
X138092164Y-71160000D01*
%TO.C,C5*%
X121660000Y-60287836D02*
X121660000Y-60072164D01*
X120940000Y-60287836D02*
X120940000Y-60072164D01*
%TO.C,J1*%
X149490000Y-65160000D02*
X149490000Y-64050000D01*
X148440000Y-66250000D02*
X148940000Y-66000000D01*
X148440000Y-65750000D02*
X148440000Y-66250000D01*
X153200000Y-67950000D02*
X153200000Y-66840000D01*
X148940000Y-66000000D02*
X148440000Y-65750000D01*
X149490000Y-67950000D02*
X149490000Y-66840000D01*
X153200000Y-65160000D02*
X153200000Y-64050000D01*
%TO.C,U6*%
X107000000Y-59350000D02*
X107000000Y-58050000D01*
X108800000Y-57800000D02*
X108800000Y-59350000D01*
%TO.C,U3*%
X121290000Y-73820000D02*
X121290000Y-74295000D01*
X125510000Y-70550000D02*
X125510000Y-70075000D01*
X125510000Y-73820000D02*
X125510000Y-74295000D01*
X121290000Y-70075000D02*
X121765000Y-70075000D01*
X121290000Y-74295000D02*
X121765000Y-74295000D01*
X121290000Y-70550000D02*
X121290000Y-70075000D01*
X125510000Y-74295000D02*
X125035000Y-74295000D01*
%TO.C,L17*%
X106510000Y-59338748D02*
X106510000Y-59861252D01*
X104290000Y-59338748D02*
X104290000Y-59861252D01*
%TO.C,C6*%
X121610000Y-68607836D02*
X121610000Y-68392164D01*
X120890000Y-68607836D02*
X120890000Y-68392164D01*
D15*
%TO.C,U1*%
X108167800Y-71232200D02*
X108578361Y-71232200D01*
X116118000Y-68459500D02*
X116118000Y-68840500D01*
X109890499Y-71918000D02*
X109890499Y-71664000D01*
X107736000Y-67759499D02*
X107482000Y-67759499D01*
X111609500Y-63282000D02*
X111990500Y-63282000D01*
X115864000Y-65340500D02*
X115864000Y-64959500D01*
X111609500Y-63536000D02*
X111609500Y-63282000D01*
X108167800Y-70821639D02*
X108167800Y-71232200D01*
X113009500Y-71664000D02*
X113009500Y-71918000D01*
X115432200Y-71232200D02*
X115432200Y-70821639D01*
X108167800Y-63967800D02*
X108167800Y-64378361D01*
X107482000Y-68140499D02*
X107736000Y-68140499D01*
X111990500Y-63282000D02*
X111990500Y-63536000D01*
X115432200Y-64378361D02*
X115432200Y-63967800D01*
X116118000Y-68840500D02*
X115864000Y-68840500D01*
X115864000Y-68459500D02*
X116118000Y-68459500D01*
X115021639Y-71232200D02*
X115432200Y-71232200D01*
X109509499Y-71664000D02*
X109509499Y-71918000D01*
X113390500Y-71664000D02*
X113009500Y-71664000D01*
X116118000Y-65340500D02*
X115864000Y-65340500D01*
X107736000Y-68140499D02*
X107736000Y-67759499D01*
X116118000Y-64959500D02*
X116118000Y-65340500D01*
X111990500Y-63536000D02*
X111609500Y-63536000D01*
X109890499Y-71664000D02*
X109509499Y-71664000D01*
X115864000Y-64959500D02*
X116118000Y-64959500D01*
X108578361Y-63967800D02*
X108167800Y-63967800D01*
X115432200Y-63967800D02*
X115021639Y-63967800D01*
X115864000Y-68840500D02*
X115864000Y-68459500D01*
X107482000Y-67759499D02*
X107482000Y-68140499D01*
X113390500Y-71918000D02*
X113390500Y-71664000D01*
X113009500Y-71918000D02*
X113390500Y-71918000D01*
X109509499Y-71918000D02*
X109890499Y-71918000D01*
D13*
%TO.C,FL1*%
X133520000Y-61200000D02*
X132320000Y-61200000D01*
X132320000Y-62200000D02*
X133520000Y-62200000D01*
X133520000Y-62200000D02*
X133520000Y-61200000D01*
X132320000Y-61200000D02*
X132320000Y-62200000D01*
X132170000Y-61200000D02*
X132170000Y-62200000D01*
%TO.C,C7*%
X127112164Y-59340000D02*
X127327836Y-59340000D01*
X127112164Y-60060000D02*
X127327836Y-60060000D01*
%TO.C,R6*%
X109220000Y-58453641D02*
X109220000Y-58146359D01*
X109980000Y-58453641D02*
X109980000Y-58146359D01*
%TO.C,R3*%
X145980000Y-61403641D02*
X145980000Y-61096359D01*
X145220000Y-61403641D02*
X145220000Y-61096359D01*
%TO.C,C29*%
X153360000Y-58957836D02*
X153360000Y-58742164D01*
X152640000Y-58957836D02*
X152640000Y-58742164D01*
%TO.C,U4*%
X149200000Y-61560000D02*
X151700000Y-61560000D01*
X150450000Y-58840000D02*
X151700000Y-58840000D01*
%TO.C,D4*%
X113900000Y-56150000D02*
X116450000Y-56150000D01*
X113900000Y-57850000D02*
X116450000Y-57850000D01*
X113900000Y-56150000D02*
X113900000Y-57850000D01*
%TO.C,R13*%
X106380000Y-74353641D02*
X106380000Y-74046359D01*
X105620000Y-74353641D02*
X105620000Y-74046359D01*
%TO.C,J2*%
X150365000Y-73740000D02*
X149735000Y-73740000D01*
X153085000Y-73150000D02*
X153085000Y-75850000D01*
X150365000Y-75900000D02*
X150365000Y-75260000D01*
X150365000Y-73100000D02*
X150365000Y-73740000D01*
%TO.C,FL3*%
X138915000Y-68000000D02*
X138915000Y-69000000D01*
X140115000Y-69000000D02*
X140115000Y-68000000D01*
X140115000Y-68000000D02*
X138915000Y-68000000D01*
X140265000Y-69000000D02*
X140265000Y-68000000D01*
X138915000Y-69000000D02*
X140115000Y-69000000D01*
%TO.C,D3*%
X106565000Y-78185000D02*
X108035000Y-78185000D01*
X108035000Y-78185000D02*
X108035000Y-75900000D01*
X106565000Y-75900000D02*
X106565000Y-78185000D01*
%TO.C,D2*%
X105065000Y-75900000D02*
X105065000Y-78185000D01*
X105065000Y-78185000D02*
X106535000Y-78185000D01*
X106535000Y-78185000D02*
X106535000Y-75900000D01*
%TO.C,U2*%
X121290000Y-65410000D02*
X121290000Y-65885000D01*
X121290000Y-62140000D02*
X121290000Y-61665000D01*
X121290000Y-65885000D02*
X121765000Y-65885000D01*
X125510000Y-65885000D02*
X125035000Y-65885000D01*
X121290000Y-61665000D02*
X121765000Y-61665000D01*
X125510000Y-65410000D02*
X125510000Y-65885000D01*
X125510000Y-62140000D02*
X125510000Y-61665000D01*
%TO.C,C32*%
X110340000Y-58407836D02*
X110340000Y-58192164D01*
X111060000Y-58407836D02*
X111060000Y-58192164D01*
%TO.C,C1*%
X124040000Y-60327836D02*
X124040000Y-60112164D01*
X124760000Y-60327836D02*
X124760000Y-60112164D01*
%TO.C,C4*%
X119627836Y-72560000D02*
X119412164Y-72560000D01*
X119627836Y-71840000D02*
X119412164Y-71840000D01*
%TO.C,U5*%
X116450000Y-59700000D02*
X115310000Y-59700000D01*
%TO.C,R11*%
X104380000Y-74353641D02*
X104380000Y-74046359D01*
X103620000Y-74353641D02*
X103620000Y-74046359D01*
%TO.C,L2*%
X120460000Y-69600378D02*
X120460000Y-70399622D01*
X119340000Y-69600378D02*
X119340000Y-70399622D01*
%TO.C,C34*%
X108059420Y-61310000D02*
X108340580Y-61310000D01*
X108059420Y-60290000D02*
X108340580Y-60290000D01*
%TO.C,C33*%
X149942164Y-56890000D02*
X150157836Y-56890000D01*
X149942164Y-57610000D02*
X150157836Y-57610000D01*
%TO.C,C31*%
X146240000Y-61142164D02*
X146240000Y-61357836D01*
X146960000Y-61142164D02*
X146960000Y-61357836D01*
%TO.C,U7*%
X140650000Y-63690000D02*
X140650000Y-64165000D01*
X140175000Y-66910000D02*
X140650000Y-66910000D01*
X140650000Y-66910000D02*
X140650000Y-66435000D01*
X137905000Y-63690000D02*
X137430000Y-63690000D01*
X137905000Y-66910000D02*
X137430000Y-66910000D01*
X140175000Y-63690000D02*
X140650000Y-63690000D01*
X137430000Y-66910000D02*
X137430000Y-66435000D01*
%TO.C,R17*%
X147646359Y-71820000D02*
X147953641Y-71820000D01*
X147646359Y-72580000D02*
X147953641Y-72580000D01*
%TO.C,C64*%
X138307836Y-72260000D02*
X138092164Y-72260000D01*
X138307836Y-71540000D02*
X138092164Y-71540000D01*
%TO.C,C10*%
X127112164Y-60340000D02*
X127327836Y-60340000D01*
X127112164Y-61060000D02*
X127327836Y-61060000D01*
%TD*%
M02*
