G04 #@! TF.GenerationSoftware,KiCad,Pcbnew,(5.99.0-6542-g16b0689841)*
G04 #@! TF.CreationDate,2021-04-04T12:37:49-07:00*
G04 #@! TF.ProjectId,LoRa-GW-FeatherWing,4c6f5261-2d47-4572-9d46-656174686572,rev?*
G04 #@! TF.SameCoordinates,Original*
G04 #@! TF.FileFunction,Soldermask,Top*
G04 #@! TF.FilePolarity,Negative*
%FSLAX46Y46*%
G04 Gerber Fmt 4.6, Leading zero omitted, Abs format (unit mm)*
G04 Created by KiCad (PCBNEW (5.99.0-6542-g16b0689841)) date 2021-04-04 12:37:49*
%MOMM*%
%LPD*%
G01*
G04 APERTURE LIST*
%ADD10R,0.400000X0.300000*%
%ADD11R,0.300000X0.400000*%
%ADD12R,0.500000X0.500000*%
%ADD13C,0.230000*%
%ADD14R,0.180000X0.250000*%
%ADD15R,3.600000X1.270000*%
%ADD16R,4.200000X1.350000*%
%ADD17R,0.340000X0.700000*%
%ADD18R,2.500000X2.500000*%
%ADD19R,0.736600X0.177800*%
%ADD20R,0.762000X0.177800*%
%ADD21R,0.177800X0.736600*%
%ADD22R,0.177800X0.762000*%
%ADD23R,5.613400X5.613400*%
%ADD24R,1.600000X1.600000*%
%ADD25C,1.600000*%
%ADD26R,1.200000X2.000000*%
%ADD27R,0.600000X0.450000*%
%ADD28R,1.050000X1.000000*%
%ADD29R,2.200000X1.050000*%
%ADD30R,0.850000X0.650000*%
%ADD31R,0.254000X0.762000*%
%ADD32R,0.762000X0.254000*%
%ADD33R,2.641600X2.641600*%
%ADD34R,1.750000X1.750000*%
G04 APERTURE END LIST*
G04 #@! TO.C,C35*
G36*
G01*
X150575000Y-58525000D02*
X150575000Y-58025000D01*
G75*
G02*
X150800000Y-57800000I225000J0D01*
G01*
X151250000Y-57800000D01*
G75*
G02*
X151475000Y-58025000I0J-225000D01*
G01*
X151475000Y-58525000D01*
G75*
G02*
X151250000Y-58750000I-225000J0D01*
G01*
X150800000Y-58750000D01*
G75*
G02*
X150575000Y-58525000I0J225000D01*
G01*
G37*
G36*
G01*
X149025000Y-58525000D02*
X149025000Y-58025000D01*
G75*
G02*
X149250000Y-57800000I225000J0D01*
G01*
X149700000Y-57800000D01*
G75*
G02*
X149925000Y-58025000I0J-225000D01*
G01*
X149925000Y-58525000D01*
G75*
G02*
X149700000Y-58750000I-225000J0D01*
G01*
X149250000Y-58750000D01*
G75*
G02*
X149025000Y-58525000I0J225000D01*
G01*
G37*
G04 #@! TD*
G04 #@! TO.C,C33*
G36*
G01*
X150575000Y-57500000D02*
X150575000Y-57000000D01*
G75*
G02*
X150800000Y-56775000I225000J0D01*
G01*
X151250000Y-56775000D01*
G75*
G02*
X151475000Y-57000000I0J-225000D01*
G01*
X151475000Y-57500000D01*
G75*
G02*
X151250000Y-57725000I-225000J0D01*
G01*
X150800000Y-57725000D01*
G75*
G02*
X150575000Y-57500000I0J225000D01*
G01*
G37*
G36*
G01*
X149025000Y-57500000D02*
X149025000Y-57000000D01*
G75*
G02*
X149250000Y-56775000I225000J0D01*
G01*
X149700000Y-56775000D01*
G75*
G02*
X149925000Y-57000000I0J-225000D01*
G01*
X149925000Y-57500000D01*
G75*
G02*
X149700000Y-57725000I-225000J0D01*
G01*
X149250000Y-57725000D01*
G75*
G02*
X149025000Y-57500000I0J225000D01*
G01*
G37*
G04 #@! TD*
G04 #@! TO.C,C42*
G36*
G01*
X136840000Y-59610000D02*
X136840000Y-59270000D01*
G75*
G02*
X136980000Y-59130000I140000J0D01*
G01*
X137260000Y-59130000D01*
G75*
G02*
X137400000Y-59270000I0J-140000D01*
G01*
X137400000Y-59610000D01*
G75*
G02*
X137260000Y-59750000I-140000J0D01*
G01*
X136980000Y-59750000D01*
G75*
G02*
X136840000Y-59610000I0J140000D01*
G01*
G37*
G36*
G01*
X137800000Y-59610000D02*
X137800000Y-59270000D01*
G75*
G02*
X137940000Y-59130000I140000J0D01*
G01*
X138220000Y-59130000D01*
G75*
G02*
X138360000Y-59270000I0J-140000D01*
G01*
X138360000Y-59610000D01*
G75*
G02*
X138220000Y-59750000I-140000J0D01*
G01*
X137940000Y-59750000D01*
G75*
G02*
X137800000Y-59610000I0J140000D01*
G01*
G37*
G04 #@! TD*
G04 #@! TO.C,D1*
G36*
G01*
X104556250Y-77925000D02*
X104043750Y-77925000D01*
G75*
G02*
X103825000Y-77706250I0J218750D01*
G01*
X103825000Y-77268750D01*
G75*
G02*
X104043750Y-77050000I218750J0D01*
G01*
X104556250Y-77050000D01*
G75*
G02*
X104775000Y-77268750I0J-218750D01*
G01*
X104775000Y-77706250D01*
G75*
G02*
X104556250Y-77925000I-218750J0D01*
G01*
G37*
G36*
G01*
X104556250Y-76350000D02*
X104043750Y-76350000D01*
G75*
G02*
X103825000Y-76131250I0J218750D01*
G01*
X103825000Y-75693750D01*
G75*
G02*
X104043750Y-75475000I218750J0D01*
G01*
X104556250Y-75475000D01*
G75*
G02*
X104775000Y-75693750I0J-218750D01*
G01*
X104775000Y-76131250D01*
G75*
G02*
X104556250Y-76350000I-218750J0D01*
G01*
G37*
G04 #@! TD*
G04 #@! TO.C,C2*
G36*
G01*
X120310000Y-63730000D02*
X120310000Y-64070000D01*
G75*
G02*
X120170000Y-64210000I-140000J0D01*
G01*
X119890000Y-64210000D01*
G75*
G02*
X119750000Y-64070000I0J140000D01*
G01*
X119750000Y-63730000D01*
G75*
G02*
X119890000Y-63590000I140000J0D01*
G01*
X120170000Y-63590000D01*
G75*
G02*
X120310000Y-63730000I0J-140000D01*
G01*
G37*
G36*
G01*
X119350000Y-63730000D02*
X119350000Y-64070000D01*
G75*
G02*
X119210000Y-64210000I-140000J0D01*
G01*
X118930000Y-64210000D01*
G75*
G02*
X118790000Y-64070000I0J140000D01*
G01*
X118790000Y-63730000D01*
G75*
G02*
X118930000Y-63590000I140000J0D01*
G01*
X119210000Y-63590000D01*
G75*
G02*
X119350000Y-63730000I0J-140000D01*
G01*
G37*
G04 #@! TD*
G04 #@! TO.C,L5*
G36*
G01*
X127600000Y-64650000D02*
X127400000Y-64650000D01*
G75*
G02*
X127300000Y-64550000I0J100000D01*
G01*
X127300000Y-64290000D01*
G75*
G02*
X127400000Y-64190000I100000J0D01*
G01*
X127600000Y-64190000D01*
G75*
G02*
X127700000Y-64290000I0J-100000D01*
G01*
X127700000Y-64550000D01*
G75*
G02*
X127600000Y-64650000I-100000J0D01*
G01*
G37*
G36*
G01*
X127600000Y-64010000D02*
X127400000Y-64010000D01*
G75*
G02*
X127300000Y-63910000I0J100000D01*
G01*
X127300000Y-63650000D01*
G75*
G02*
X127400000Y-63550000I100000J0D01*
G01*
X127600000Y-63550000D01*
G75*
G02*
X127700000Y-63650000I0J-100000D01*
G01*
X127700000Y-63910000D01*
G75*
G02*
X127600000Y-64010000I-100000J0D01*
G01*
G37*
G04 #@! TD*
G04 #@! TO.C,L1*
G36*
G01*
X119518750Y-60200000D02*
X120281250Y-60200000D01*
G75*
G02*
X120500000Y-60418750I0J-218750D01*
G01*
X120500000Y-60856250D01*
G75*
G02*
X120281250Y-61075000I-218750J0D01*
G01*
X119518750Y-61075000D01*
G75*
G02*
X119300000Y-60856250I0J218750D01*
G01*
X119300000Y-60418750D01*
G75*
G02*
X119518750Y-60200000I218750J0D01*
G01*
G37*
G36*
G01*
X119518750Y-62325000D02*
X120281250Y-62325000D01*
G75*
G02*
X120500000Y-62543750I0J-218750D01*
G01*
X120500000Y-62981250D01*
G75*
G02*
X120281250Y-63200000I-218750J0D01*
G01*
X119518750Y-63200000D01*
G75*
G02*
X119300000Y-62981250I0J218750D01*
G01*
X119300000Y-62543750D01*
G75*
G02*
X119518750Y-62325000I218750J0D01*
G01*
G37*
G04 #@! TD*
D10*
G04 #@! TO.C,U8*
X148450000Y-75850000D03*
X148450000Y-75200000D03*
X148450000Y-74550000D03*
X148450000Y-73900000D03*
X148450000Y-73250000D03*
X148450000Y-72600000D03*
X148450000Y-71950000D03*
X148450000Y-71300000D03*
X148450000Y-70650000D03*
D11*
X147900000Y-70100000D03*
X147250000Y-70100000D03*
X146600000Y-70100000D03*
X145950000Y-70100000D03*
X145300000Y-70100000D03*
X144650000Y-70100000D03*
X144000000Y-70100000D03*
X143350000Y-70100000D03*
X142700000Y-70100000D03*
D10*
X142150000Y-70650000D03*
X142150000Y-71300000D03*
X142150000Y-71950000D03*
X142150000Y-72600000D03*
X142150000Y-73250000D03*
X142150000Y-73900000D03*
X142150000Y-74550000D03*
X142150000Y-75200000D03*
X142150000Y-75850000D03*
D11*
X142700000Y-76400000D03*
X143350000Y-76400000D03*
X144000000Y-76400000D03*
X144650000Y-76400000D03*
X145300000Y-76400000D03*
X145950000Y-76400000D03*
X146600000Y-76400000D03*
X147250000Y-76400000D03*
X147900000Y-76400000D03*
D12*
X146600000Y-74550000D03*
X145300000Y-74550000D03*
X146600000Y-73250000D03*
X145300000Y-73250000D03*
X146600000Y-71950000D03*
X145300000Y-71950000D03*
X144000000Y-71950000D03*
G04 #@! TD*
D13*
G04 #@! TO.C,U10*
X126500025Y-67700000D03*
X126500025Y-67300000D03*
X126900024Y-67700000D03*
X126900024Y-67300000D03*
X127300026Y-67700000D03*
X127300026Y-67300000D03*
G04 #@! TD*
G04 #@! TO.C,C16*
G36*
G01*
X129250000Y-71250000D02*
X129250000Y-71450000D01*
G75*
G02*
X129150000Y-71550000I-100000J0D01*
G01*
X128890000Y-71550000D01*
G75*
G02*
X128790000Y-71450000I0J100000D01*
G01*
X128790000Y-71250000D01*
G75*
G02*
X128890000Y-71150000I100000J0D01*
G01*
X129150000Y-71150000D01*
G75*
G02*
X129250000Y-71250000I0J-100000D01*
G01*
G37*
G36*
G01*
X128610000Y-71250000D02*
X128610000Y-71450000D01*
G75*
G02*
X128510000Y-71550000I-100000J0D01*
G01*
X128250000Y-71550000D01*
G75*
G02*
X128150000Y-71450000I0J100000D01*
G01*
X128150000Y-71250000D01*
G75*
G02*
X128250000Y-71150000I100000J0D01*
G01*
X128510000Y-71150000D01*
G75*
G02*
X128610000Y-71250000I0J-100000D01*
G01*
G37*
G04 #@! TD*
G04 #@! TO.C,R4*
G36*
G01*
X147785000Y-62030000D02*
X147415000Y-62030000D01*
G75*
G02*
X147280000Y-61895000I0J135000D01*
G01*
X147280000Y-61625000D01*
G75*
G02*
X147415000Y-61490000I135000J0D01*
G01*
X147785000Y-61490000D01*
G75*
G02*
X147920000Y-61625000I0J-135000D01*
G01*
X147920000Y-61895000D01*
G75*
G02*
X147785000Y-62030000I-135000J0D01*
G01*
G37*
G36*
G01*
X147785000Y-61010000D02*
X147415000Y-61010000D01*
G75*
G02*
X147280000Y-60875000I0J135000D01*
G01*
X147280000Y-60605000D01*
G75*
G02*
X147415000Y-60470000I135000J0D01*
G01*
X147785000Y-60470000D01*
G75*
G02*
X147920000Y-60605000I0J-135000D01*
G01*
X147920000Y-60875000D01*
G75*
G02*
X147785000Y-61010000I-135000J0D01*
G01*
G37*
G04 #@! TD*
G04 #@! TO.C,L15*
G36*
G01*
X134840380Y-61581802D02*
X134981802Y-61440380D01*
G75*
G02*
X135123224Y-61440380I70711J-70711D01*
G01*
X135307072Y-61624228D01*
G75*
G02*
X135307072Y-61765650I-70711J-70711D01*
G01*
X135165650Y-61907072D01*
G75*
G02*
X135024228Y-61907072I-70711J70711D01*
G01*
X134840380Y-61723224D01*
G75*
G02*
X134840380Y-61581802I70711J70711D01*
G01*
G37*
G36*
G01*
X135292928Y-62034350D02*
X135434350Y-61892928D01*
G75*
G02*
X135575772Y-61892928I70711J-70711D01*
G01*
X135759620Y-62076776D01*
G75*
G02*
X135759620Y-62218198I-70711J-70711D01*
G01*
X135618198Y-62359620D01*
G75*
G02*
X135476776Y-62359620I-70711J70711D01*
G01*
X135292928Y-62175772D01*
G75*
G02*
X135292928Y-62034350I70711J70711D01*
G01*
G37*
G04 #@! TD*
G04 #@! TO.C,C50*
G36*
G01*
X136118198Y-64846428D02*
X136259620Y-64987850D01*
G75*
G02*
X136259620Y-65129272I-70711J-70711D01*
G01*
X136075772Y-65313120D01*
G75*
G02*
X135934350Y-65313120I-70711J70711D01*
G01*
X135792928Y-65171698D01*
G75*
G02*
X135792928Y-65030276I70711J70711D01*
G01*
X135976776Y-64846428D01*
G75*
G02*
X136118198Y-64846428I70711J-70711D01*
G01*
G37*
G36*
G01*
X135665650Y-65298976D02*
X135807072Y-65440398D01*
G75*
G02*
X135807072Y-65581820I-70711J-70711D01*
G01*
X135623224Y-65765668D01*
G75*
G02*
X135481802Y-65765668I-70711J70711D01*
G01*
X135340380Y-65624246D01*
G75*
G02*
X135340380Y-65482824I70711J70711D01*
G01*
X135524228Y-65298976D01*
G75*
G02*
X135665650Y-65298976I70711J-70711D01*
G01*
G37*
G04 #@! TD*
G04 #@! TO.C,C53*
G36*
G01*
X113700000Y-72350000D02*
X113900000Y-72350000D01*
G75*
G02*
X114000000Y-72450000I0J-100000D01*
G01*
X114000000Y-72710000D01*
G75*
G02*
X113900000Y-72810000I-100000J0D01*
G01*
X113700000Y-72810000D01*
G75*
G02*
X113600000Y-72710000I0J100000D01*
G01*
X113600000Y-72450000D01*
G75*
G02*
X113700000Y-72350000I100000J0D01*
G01*
G37*
G36*
G01*
X113700000Y-72990000D02*
X113900000Y-72990000D01*
G75*
G02*
X114000000Y-73090000I0J-100000D01*
G01*
X114000000Y-73350000D01*
G75*
G02*
X113900000Y-73450000I-100000J0D01*
G01*
X113700000Y-73450000D01*
G75*
G02*
X113600000Y-73350000I0J100000D01*
G01*
X113600000Y-73090000D01*
G75*
G02*
X113700000Y-72990000I100000J0D01*
G01*
G37*
G04 #@! TD*
G04 #@! TO.C,R10*
G36*
G01*
X107030000Y-64350000D02*
X107030000Y-64550000D01*
G75*
G02*
X106930000Y-64650000I-100000J0D01*
G01*
X106670000Y-64650000D01*
G75*
G02*
X106570000Y-64550000I0J100000D01*
G01*
X106570000Y-64350000D01*
G75*
G02*
X106670000Y-64250000I100000J0D01*
G01*
X106930000Y-64250000D01*
G75*
G02*
X107030000Y-64350000I0J-100000D01*
G01*
G37*
G36*
G01*
X106390000Y-64350000D02*
X106390000Y-64550000D01*
G75*
G02*
X106290000Y-64650000I-100000J0D01*
G01*
X106030000Y-64650000D01*
G75*
G02*
X105930000Y-64550000I0J100000D01*
G01*
X105930000Y-64350000D01*
G75*
G02*
X106030000Y-64250000I100000J0D01*
G01*
X106290000Y-64250000D01*
G75*
G02*
X106390000Y-64350000I0J-100000D01*
G01*
G37*
G04 #@! TD*
G04 #@! TO.C,C28*
G36*
G01*
X111400000Y-72350000D02*
X111600000Y-72350000D01*
G75*
G02*
X111700000Y-72450000I0J-100000D01*
G01*
X111700000Y-72710000D01*
G75*
G02*
X111600000Y-72810000I-100000J0D01*
G01*
X111400000Y-72810000D01*
G75*
G02*
X111300000Y-72710000I0J100000D01*
G01*
X111300000Y-72450000D01*
G75*
G02*
X111400000Y-72350000I100000J0D01*
G01*
G37*
G36*
G01*
X111400000Y-72990000D02*
X111600000Y-72990000D01*
G75*
G02*
X111700000Y-73090000I0J-100000D01*
G01*
X111700000Y-73350000D01*
G75*
G02*
X111600000Y-73450000I-100000J0D01*
G01*
X111400000Y-73450000D01*
G75*
G02*
X111300000Y-73350000I0J100000D01*
G01*
X111300000Y-73090000D01*
G75*
G02*
X111400000Y-72990000I100000J0D01*
G01*
G37*
G04 #@! TD*
D14*
G04 #@! TO.C,FL2*
X134085000Y-65900000D03*
X133700000Y-65650000D03*
X133315000Y-65650000D03*
X133315000Y-66150000D03*
X133700000Y-66150000D03*
G04 #@! TD*
G04 #@! TO.C,C3*
G36*
G01*
X123860000Y-69255000D02*
X123860000Y-68915000D01*
G75*
G02*
X124000000Y-68775000I140000J0D01*
G01*
X124280000Y-68775000D01*
G75*
G02*
X124420000Y-68915000I0J-140000D01*
G01*
X124420000Y-69255000D01*
G75*
G02*
X124280000Y-69395000I-140000J0D01*
G01*
X124000000Y-69395000D01*
G75*
G02*
X123860000Y-69255000I0J140000D01*
G01*
G37*
G36*
G01*
X124820000Y-69255000D02*
X124820000Y-68915000D01*
G75*
G02*
X124960000Y-68775000I140000J0D01*
G01*
X125240000Y-68775000D01*
G75*
G02*
X125380000Y-68915000I0J-140000D01*
G01*
X125380000Y-69255000D01*
G75*
G02*
X125240000Y-69395000I-140000J0D01*
G01*
X124960000Y-69395000D01*
G75*
G02*
X124820000Y-69255000I0J140000D01*
G01*
G37*
G04 #@! TD*
G04 #@! TO.C,R12*
G36*
G01*
X105185000Y-74980000D02*
X104815000Y-74980000D01*
G75*
G02*
X104680000Y-74845000I0J135000D01*
G01*
X104680000Y-74575000D01*
G75*
G02*
X104815000Y-74440000I135000J0D01*
G01*
X105185000Y-74440000D01*
G75*
G02*
X105320000Y-74575000I0J-135000D01*
G01*
X105320000Y-74845000D01*
G75*
G02*
X105185000Y-74980000I-135000J0D01*
G01*
G37*
G36*
G01*
X105185000Y-73960000D02*
X104815000Y-73960000D01*
G75*
G02*
X104680000Y-73825000I0J135000D01*
G01*
X104680000Y-73555000D01*
G75*
G02*
X104815000Y-73420000I135000J0D01*
G01*
X105185000Y-73420000D01*
G75*
G02*
X105320000Y-73555000I0J-135000D01*
G01*
X105320000Y-73825000D01*
G75*
G02*
X105185000Y-73960000I-135000J0D01*
G01*
G37*
G04 #@! TD*
G04 #@! TO.C,R5*
G36*
G01*
X111615000Y-57520000D02*
X111985000Y-57520000D01*
G75*
G02*
X112120000Y-57655000I0J-135000D01*
G01*
X112120000Y-57925000D01*
G75*
G02*
X111985000Y-58060000I-135000J0D01*
G01*
X111615000Y-58060000D01*
G75*
G02*
X111480000Y-57925000I0J135000D01*
G01*
X111480000Y-57655000D01*
G75*
G02*
X111615000Y-57520000I135000J0D01*
G01*
G37*
G36*
G01*
X111615000Y-58540000D02*
X111985000Y-58540000D01*
G75*
G02*
X112120000Y-58675000I0J-135000D01*
G01*
X112120000Y-58945000D01*
G75*
G02*
X111985000Y-59080000I-135000J0D01*
G01*
X111615000Y-59080000D01*
G75*
G02*
X111480000Y-58945000I0J135000D01*
G01*
X111480000Y-58675000D01*
G75*
G02*
X111615000Y-58540000I135000J0D01*
G01*
G37*
G04 #@! TD*
G04 #@! TO.C,C30*
G36*
G01*
X106740000Y-56970000D02*
X106740000Y-56630000D01*
G75*
G02*
X106880000Y-56490000I140000J0D01*
G01*
X107160000Y-56490000D01*
G75*
G02*
X107300000Y-56630000I0J-140000D01*
G01*
X107300000Y-56970000D01*
G75*
G02*
X107160000Y-57110000I-140000J0D01*
G01*
X106880000Y-57110000D01*
G75*
G02*
X106740000Y-56970000I0J140000D01*
G01*
G37*
G36*
G01*
X107700000Y-56970000D02*
X107700000Y-56630000D01*
G75*
G02*
X107840000Y-56490000I140000J0D01*
G01*
X108120000Y-56490000D01*
G75*
G02*
X108260000Y-56630000I0J-140000D01*
G01*
X108260000Y-56970000D01*
G75*
G02*
X108120000Y-57110000I-140000J0D01*
G01*
X107840000Y-57110000D01*
G75*
G02*
X107700000Y-56970000I0J140000D01*
G01*
G37*
G04 #@! TD*
G04 #@! TO.C,C12*
G36*
G01*
X129750000Y-62300000D02*
X129750000Y-62500000D01*
G75*
G02*
X129650000Y-62600000I-100000J0D01*
G01*
X129390000Y-62600000D01*
G75*
G02*
X129290000Y-62500000I0J100000D01*
G01*
X129290000Y-62300000D01*
G75*
G02*
X129390000Y-62200000I100000J0D01*
G01*
X129650000Y-62200000D01*
G75*
G02*
X129750000Y-62300000I0J-100000D01*
G01*
G37*
G36*
G01*
X129110000Y-62300000D02*
X129110000Y-62500000D01*
G75*
G02*
X129010000Y-62600000I-100000J0D01*
G01*
X128750000Y-62600000D01*
G75*
G02*
X128650000Y-62500000I0J100000D01*
G01*
X128650000Y-62300000D01*
G75*
G02*
X128750000Y-62200000I100000J0D01*
G01*
X129010000Y-62200000D01*
G75*
G02*
X129110000Y-62300000I0J-100000D01*
G01*
G37*
G04 #@! TD*
G04 #@! TO.C,C39*
G36*
G01*
X144490000Y-65250000D02*
X144490000Y-65450000D01*
G75*
G02*
X144390000Y-65550000I-100000J0D01*
G01*
X144130000Y-65550000D01*
G75*
G02*
X144030000Y-65450000I0J100000D01*
G01*
X144030000Y-65250000D01*
G75*
G02*
X144130000Y-65150000I100000J0D01*
G01*
X144390000Y-65150000D01*
G75*
G02*
X144490000Y-65250000I0J-100000D01*
G01*
G37*
G36*
G01*
X143850000Y-65250000D02*
X143850000Y-65450000D01*
G75*
G02*
X143750000Y-65550000I-100000J0D01*
G01*
X143490000Y-65550000D01*
G75*
G02*
X143390000Y-65450000I0J100000D01*
G01*
X143390000Y-65250000D01*
G75*
G02*
X143490000Y-65150000I100000J0D01*
G01*
X143750000Y-65150000D01*
G75*
G02*
X143850000Y-65250000I0J-100000D01*
G01*
G37*
G04 #@! TD*
G04 #@! TO.C,C65*
G36*
G01*
X141470000Y-71380000D02*
X141130000Y-71380000D01*
G75*
G02*
X140990000Y-71240000I0J140000D01*
G01*
X140990000Y-70960000D01*
G75*
G02*
X141130000Y-70820000I140000J0D01*
G01*
X141470000Y-70820000D01*
G75*
G02*
X141610000Y-70960000I0J-140000D01*
G01*
X141610000Y-71240000D01*
G75*
G02*
X141470000Y-71380000I-140000J0D01*
G01*
G37*
G36*
G01*
X141470000Y-70420000D02*
X141130000Y-70420000D01*
G75*
G02*
X140990000Y-70280000I0J140000D01*
G01*
X140990000Y-70000000D01*
G75*
G02*
X141130000Y-69860000I140000J0D01*
G01*
X141470000Y-69860000D01*
G75*
G02*
X141610000Y-70000000I0J-140000D01*
G01*
X141610000Y-70280000D01*
G75*
G02*
X141470000Y-70420000I-140000J0D01*
G01*
G37*
G04 #@! TD*
G04 #@! TO.C,C40*
G36*
G01*
X137050000Y-60340000D02*
X137050000Y-60140000D01*
G75*
G02*
X137150000Y-60040000I100000J0D01*
G01*
X137410000Y-60040000D01*
G75*
G02*
X137510000Y-60140000I0J-100000D01*
G01*
X137510000Y-60340000D01*
G75*
G02*
X137410000Y-60440000I-100000J0D01*
G01*
X137150000Y-60440000D01*
G75*
G02*
X137050000Y-60340000I0J100000D01*
G01*
G37*
G36*
G01*
X137690000Y-60340000D02*
X137690000Y-60140000D01*
G75*
G02*
X137790000Y-60040000I100000J0D01*
G01*
X138050000Y-60040000D01*
G75*
G02*
X138150000Y-60140000I0J-100000D01*
G01*
X138150000Y-60340000D01*
G75*
G02*
X138050000Y-60440000I-100000J0D01*
G01*
X137790000Y-60440000D01*
G75*
G02*
X137690000Y-60340000I0J100000D01*
G01*
G37*
G04 #@! TD*
G04 #@! TO.C,C5*
G36*
G01*
X121470000Y-60940000D02*
X121130000Y-60940000D01*
G75*
G02*
X120990000Y-60800000I0J140000D01*
G01*
X120990000Y-60520000D01*
G75*
G02*
X121130000Y-60380000I140000J0D01*
G01*
X121470000Y-60380000D01*
G75*
G02*
X121610000Y-60520000I0J-140000D01*
G01*
X121610000Y-60800000D01*
G75*
G02*
X121470000Y-60940000I-140000J0D01*
G01*
G37*
G36*
G01*
X121470000Y-59980000D02*
X121130000Y-59980000D01*
G75*
G02*
X120990000Y-59840000I0J140000D01*
G01*
X120990000Y-59560000D01*
G75*
G02*
X121130000Y-59420000I140000J0D01*
G01*
X121470000Y-59420000D01*
G75*
G02*
X121610000Y-59560000I0J-140000D01*
G01*
X121610000Y-59840000D01*
G75*
G02*
X121470000Y-59980000I-140000J0D01*
G01*
G37*
G04 #@! TD*
G04 #@! TO.C,C46*
G36*
G01*
X140695000Y-60850000D02*
X140695000Y-61050000D01*
G75*
G02*
X140595000Y-61150000I-100000J0D01*
G01*
X140335000Y-61150000D01*
G75*
G02*
X140235000Y-61050000I0J100000D01*
G01*
X140235000Y-60850000D01*
G75*
G02*
X140335000Y-60750000I100000J0D01*
G01*
X140595000Y-60750000D01*
G75*
G02*
X140695000Y-60850000I0J-100000D01*
G01*
G37*
G36*
G01*
X140055000Y-60850000D02*
X140055000Y-61050000D01*
G75*
G02*
X139955000Y-61150000I-100000J0D01*
G01*
X139695000Y-61150000D01*
G75*
G02*
X139595000Y-61050000I0J100000D01*
G01*
X139595000Y-60850000D01*
G75*
G02*
X139695000Y-60750000I100000J0D01*
G01*
X139955000Y-60750000D01*
G75*
G02*
X140055000Y-60850000I0J-100000D01*
G01*
G37*
G04 #@! TD*
D15*
G04 #@! TO.C,J1*
X151400000Y-66000000D03*
D16*
X151200000Y-68825000D03*
X151200000Y-63175000D03*
G04 #@! TD*
G04 #@! TO.C,L4*
G36*
G01*
X127250000Y-61800000D02*
X127250000Y-61600000D01*
G75*
G02*
X127350000Y-61500000I100000J0D01*
G01*
X127610000Y-61500000D01*
G75*
G02*
X127710000Y-61600000I0J-100000D01*
G01*
X127710000Y-61800000D01*
G75*
G02*
X127610000Y-61900000I-100000J0D01*
G01*
X127350000Y-61900000D01*
G75*
G02*
X127250000Y-61800000I0J100000D01*
G01*
G37*
G36*
G01*
X127890000Y-61800000D02*
X127890000Y-61600000D01*
G75*
G02*
X127990000Y-61500000I100000J0D01*
G01*
X128250000Y-61500000D01*
G75*
G02*
X128350000Y-61600000I0J-100000D01*
G01*
X128350000Y-61800000D01*
G75*
G02*
X128250000Y-61900000I-100000J0D01*
G01*
X127990000Y-61900000D01*
G75*
G02*
X127890000Y-61800000I0J100000D01*
G01*
G37*
G04 #@! TD*
G04 #@! TO.C,C55*
G36*
G01*
X107030000Y-69000000D02*
X107030000Y-69200000D01*
G75*
G02*
X106930000Y-69300000I-100000J0D01*
G01*
X106670000Y-69300000D01*
G75*
G02*
X106570000Y-69200000I0J100000D01*
G01*
X106570000Y-69000000D01*
G75*
G02*
X106670000Y-68900000I100000J0D01*
G01*
X106930000Y-68900000D01*
G75*
G02*
X107030000Y-69000000I0J-100000D01*
G01*
G37*
G36*
G01*
X106390000Y-69000000D02*
X106390000Y-69200000D01*
G75*
G02*
X106290000Y-69300000I-100000J0D01*
G01*
X106030000Y-69300000D01*
G75*
G02*
X105930000Y-69200000I0J100000D01*
G01*
X105930000Y-69000000D01*
G75*
G02*
X106030000Y-68900000I100000J0D01*
G01*
X106290000Y-68900000D01*
G75*
G02*
X106390000Y-69000000I0J-100000D01*
G01*
G37*
G04 #@! TD*
G04 #@! TO.C,R18*
G36*
G01*
X126040000Y-69400000D02*
X126040000Y-69200000D01*
G75*
G02*
X126140000Y-69100000I100000J0D01*
G01*
X126400000Y-69100000D01*
G75*
G02*
X126500000Y-69200000I0J-100000D01*
G01*
X126500000Y-69400000D01*
G75*
G02*
X126400000Y-69500000I-100000J0D01*
G01*
X126140000Y-69500000D01*
G75*
G02*
X126040000Y-69400000I0J100000D01*
G01*
G37*
G36*
G01*
X126680000Y-69400000D02*
X126680000Y-69200000D01*
G75*
G02*
X126780000Y-69100000I100000J0D01*
G01*
X127040000Y-69100000D01*
G75*
G02*
X127140000Y-69200000I0J-100000D01*
G01*
X127140000Y-69400000D01*
G75*
G02*
X127040000Y-69500000I-100000J0D01*
G01*
X126780000Y-69500000D01*
G75*
G02*
X126680000Y-69400000I0J100000D01*
G01*
G37*
G04 #@! TD*
D17*
G04 #@! TO.C,U6*
X108400000Y-57950000D03*
X107900000Y-57950000D03*
X107400000Y-57950000D03*
X107400000Y-59450000D03*
X107900000Y-59450000D03*
X108400000Y-59450000D03*
G04 #@! TD*
G04 #@! TO.C,R8*
G36*
G01*
X105930000Y-63850000D02*
X105930000Y-63650000D01*
G75*
G02*
X106030000Y-63550000I100000J0D01*
G01*
X106290000Y-63550000D01*
G75*
G02*
X106390000Y-63650000I0J-100000D01*
G01*
X106390000Y-63850000D01*
G75*
G02*
X106290000Y-63950000I-100000J0D01*
G01*
X106030000Y-63950000D01*
G75*
G02*
X105930000Y-63850000I0J100000D01*
G01*
G37*
G36*
G01*
X106570000Y-63850000D02*
X106570000Y-63650000D01*
G75*
G02*
X106670000Y-63550000I100000J0D01*
G01*
X106930000Y-63550000D01*
G75*
G02*
X107030000Y-63650000I0J-100000D01*
G01*
X107030000Y-63850000D01*
G75*
G02*
X106930000Y-63950000I-100000J0D01*
G01*
X106670000Y-63950000D01*
G75*
G02*
X106570000Y-63850000I0J100000D01*
G01*
G37*
G04 #@! TD*
G04 #@! TO.C,U3*
G36*
G01*
X124587500Y-69810000D02*
X124712500Y-69810000D01*
G75*
G02*
X124775000Y-69872500I0J-62500D01*
G01*
X124775000Y-70622500D01*
G75*
G02*
X124712500Y-70685000I-62500J0D01*
G01*
X124587500Y-70685000D01*
G75*
G02*
X124525000Y-70622500I0J62500D01*
G01*
X124525000Y-69872500D01*
G75*
G02*
X124587500Y-69810000I62500J0D01*
G01*
G37*
G36*
G01*
X124087500Y-69810000D02*
X124212500Y-69810000D01*
G75*
G02*
X124275000Y-69872500I0J-62500D01*
G01*
X124275000Y-70622500D01*
G75*
G02*
X124212500Y-70685000I-62500J0D01*
G01*
X124087500Y-70685000D01*
G75*
G02*
X124025000Y-70622500I0J62500D01*
G01*
X124025000Y-69872500D01*
G75*
G02*
X124087500Y-69810000I62500J0D01*
G01*
G37*
G36*
G01*
X123587500Y-69810000D02*
X123712500Y-69810000D01*
G75*
G02*
X123775000Y-69872500I0J-62500D01*
G01*
X123775000Y-70622500D01*
G75*
G02*
X123712500Y-70685000I-62500J0D01*
G01*
X123587500Y-70685000D01*
G75*
G02*
X123525000Y-70622500I0J62500D01*
G01*
X123525000Y-69872500D01*
G75*
G02*
X123587500Y-69810000I62500J0D01*
G01*
G37*
G36*
G01*
X123087500Y-69810000D02*
X123212500Y-69810000D01*
G75*
G02*
X123275000Y-69872500I0J-62500D01*
G01*
X123275000Y-70622500D01*
G75*
G02*
X123212500Y-70685000I-62500J0D01*
G01*
X123087500Y-70685000D01*
G75*
G02*
X123025000Y-70622500I0J62500D01*
G01*
X123025000Y-69872500D01*
G75*
G02*
X123087500Y-69810000I62500J0D01*
G01*
G37*
G36*
G01*
X122587500Y-69810000D02*
X122712500Y-69810000D01*
G75*
G02*
X122775000Y-69872500I0J-62500D01*
G01*
X122775000Y-70622500D01*
G75*
G02*
X122712500Y-70685000I-62500J0D01*
G01*
X122587500Y-70685000D01*
G75*
G02*
X122525000Y-70622500I0J62500D01*
G01*
X122525000Y-69872500D01*
G75*
G02*
X122587500Y-69810000I62500J0D01*
G01*
G37*
G36*
G01*
X122087500Y-69810000D02*
X122212500Y-69810000D01*
G75*
G02*
X122275000Y-69872500I0J-62500D01*
G01*
X122275000Y-70622500D01*
G75*
G02*
X122212500Y-70685000I-62500J0D01*
G01*
X122087500Y-70685000D01*
G75*
G02*
X122025000Y-70622500I0J62500D01*
G01*
X122025000Y-69872500D01*
G75*
G02*
X122087500Y-69810000I62500J0D01*
G01*
G37*
G36*
G01*
X121087500Y-70810000D02*
X121837500Y-70810000D01*
G75*
G02*
X121900000Y-70872500I0J-62500D01*
G01*
X121900000Y-70997500D01*
G75*
G02*
X121837500Y-71060000I-62500J0D01*
G01*
X121087500Y-71060000D01*
G75*
G02*
X121025000Y-70997500I0J62500D01*
G01*
X121025000Y-70872500D01*
G75*
G02*
X121087500Y-70810000I62500J0D01*
G01*
G37*
G36*
G01*
X121087500Y-71310000D02*
X121837500Y-71310000D01*
G75*
G02*
X121900000Y-71372500I0J-62500D01*
G01*
X121900000Y-71497500D01*
G75*
G02*
X121837500Y-71560000I-62500J0D01*
G01*
X121087500Y-71560000D01*
G75*
G02*
X121025000Y-71497500I0J62500D01*
G01*
X121025000Y-71372500D01*
G75*
G02*
X121087500Y-71310000I62500J0D01*
G01*
G37*
G36*
G01*
X121087500Y-71810000D02*
X121837500Y-71810000D01*
G75*
G02*
X121900000Y-71872500I0J-62500D01*
G01*
X121900000Y-71997500D01*
G75*
G02*
X121837500Y-72060000I-62500J0D01*
G01*
X121087500Y-72060000D01*
G75*
G02*
X121025000Y-71997500I0J62500D01*
G01*
X121025000Y-71872500D01*
G75*
G02*
X121087500Y-71810000I62500J0D01*
G01*
G37*
G36*
G01*
X121087500Y-72310000D02*
X121837500Y-72310000D01*
G75*
G02*
X121900000Y-72372500I0J-62500D01*
G01*
X121900000Y-72497500D01*
G75*
G02*
X121837500Y-72560000I-62500J0D01*
G01*
X121087500Y-72560000D01*
G75*
G02*
X121025000Y-72497500I0J62500D01*
G01*
X121025000Y-72372500D01*
G75*
G02*
X121087500Y-72310000I62500J0D01*
G01*
G37*
G36*
G01*
X121087500Y-72810000D02*
X121837500Y-72810000D01*
G75*
G02*
X121900000Y-72872500I0J-62500D01*
G01*
X121900000Y-72997500D01*
G75*
G02*
X121837500Y-73060000I-62500J0D01*
G01*
X121087500Y-73060000D01*
G75*
G02*
X121025000Y-72997500I0J62500D01*
G01*
X121025000Y-72872500D01*
G75*
G02*
X121087500Y-72810000I62500J0D01*
G01*
G37*
G36*
G01*
X121087500Y-73310000D02*
X121837500Y-73310000D01*
G75*
G02*
X121900000Y-73372500I0J-62500D01*
G01*
X121900000Y-73497500D01*
G75*
G02*
X121837500Y-73560000I-62500J0D01*
G01*
X121087500Y-73560000D01*
G75*
G02*
X121025000Y-73497500I0J62500D01*
G01*
X121025000Y-73372500D01*
G75*
G02*
X121087500Y-73310000I62500J0D01*
G01*
G37*
G36*
G01*
X122087500Y-73685000D02*
X122212500Y-73685000D01*
G75*
G02*
X122275000Y-73747500I0J-62500D01*
G01*
X122275000Y-74497500D01*
G75*
G02*
X122212500Y-74560000I-62500J0D01*
G01*
X122087500Y-74560000D01*
G75*
G02*
X122025000Y-74497500I0J62500D01*
G01*
X122025000Y-73747500D01*
G75*
G02*
X122087500Y-73685000I62500J0D01*
G01*
G37*
G36*
G01*
X122587500Y-73685000D02*
X122712500Y-73685000D01*
G75*
G02*
X122775000Y-73747500I0J-62500D01*
G01*
X122775000Y-74497500D01*
G75*
G02*
X122712500Y-74560000I-62500J0D01*
G01*
X122587500Y-74560000D01*
G75*
G02*
X122525000Y-74497500I0J62500D01*
G01*
X122525000Y-73747500D01*
G75*
G02*
X122587500Y-73685000I62500J0D01*
G01*
G37*
G36*
G01*
X123087500Y-73685000D02*
X123212500Y-73685000D01*
G75*
G02*
X123275000Y-73747500I0J-62500D01*
G01*
X123275000Y-74497500D01*
G75*
G02*
X123212500Y-74560000I-62500J0D01*
G01*
X123087500Y-74560000D01*
G75*
G02*
X123025000Y-74497500I0J62500D01*
G01*
X123025000Y-73747500D01*
G75*
G02*
X123087500Y-73685000I62500J0D01*
G01*
G37*
G36*
G01*
X123587500Y-73685000D02*
X123712500Y-73685000D01*
G75*
G02*
X123775000Y-73747500I0J-62500D01*
G01*
X123775000Y-74497500D01*
G75*
G02*
X123712500Y-74560000I-62500J0D01*
G01*
X123587500Y-74560000D01*
G75*
G02*
X123525000Y-74497500I0J62500D01*
G01*
X123525000Y-73747500D01*
G75*
G02*
X123587500Y-73685000I62500J0D01*
G01*
G37*
G36*
G01*
X124087500Y-73685000D02*
X124212500Y-73685000D01*
G75*
G02*
X124275000Y-73747500I0J-62500D01*
G01*
X124275000Y-74497500D01*
G75*
G02*
X124212500Y-74560000I-62500J0D01*
G01*
X124087500Y-74560000D01*
G75*
G02*
X124025000Y-74497500I0J62500D01*
G01*
X124025000Y-73747500D01*
G75*
G02*
X124087500Y-73685000I62500J0D01*
G01*
G37*
G36*
G01*
X124587500Y-73685000D02*
X124712500Y-73685000D01*
G75*
G02*
X124775000Y-73747500I0J-62500D01*
G01*
X124775000Y-74497500D01*
G75*
G02*
X124712500Y-74560000I-62500J0D01*
G01*
X124587500Y-74560000D01*
G75*
G02*
X124525000Y-74497500I0J62500D01*
G01*
X124525000Y-73747500D01*
G75*
G02*
X124587500Y-73685000I62500J0D01*
G01*
G37*
G36*
G01*
X124962500Y-73310000D02*
X125712500Y-73310000D01*
G75*
G02*
X125775000Y-73372500I0J-62500D01*
G01*
X125775000Y-73497500D01*
G75*
G02*
X125712500Y-73560000I-62500J0D01*
G01*
X124962500Y-73560000D01*
G75*
G02*
X124900000Y-73497500I0J62500D01*
G01*
X124900000Y-73372500D01*
G75*
G02*
X124962500Y-73310000I62500J0D01*
G01*
G37*
G36*
G01*
X124962500Y-72810000D02*
X125712500Y-72810000D01*
G75*
G02*
X125775000Y-72872500I0J-62500D01*
G01*
X125775000Y-72997500D01*
G75*
G02*
X125712500Y-73060000I-62500J0D01*
G01*
X124962500Y-73060000D01*
G75*
G02*
X124900000Y-72997500I0J62500D01*
G01*
X124900000Y-72872500D01*
G75*
G02*
X124962500Y-72810000I62500J0D01*
G01*
G37*
G36*
G01*
X124962500Y-72310000D02*
X125712500Y-72310000D01*
G75*
G02*
X125775000Y-72372500I0J-62500D01*
G01*
X125775000Y-72497500D01*
G75*
G02*
X125712500Y-72560000I-62500J0D01*
G01*
X124962500Y-72560000D01*
G75*
G02*
X124900000Y-72497500I0J62500D01*
G01*
X124900000Y-72372500D01*
G75*
G02*
X124962500Y-72310000I62500J0D01*
G01*
G37*
G36*
G01*
X124962500Y-71810000D02*
X125712500Y-71810000D01*
G75*
G02*
X125775000Y-71872500I0J-62500D01*
G01*
X125775000Y-71997500D01*
G75*
G02*
X125712500Y-72060000I-62500J0D01*
G01*
X124962500Y-72060000D01*
G75*
G02*
X124900000Y-71997500I0J62500D01*
G01*
X124900000Y-71872500D01*
G75*
G02*
X124962500Y-71810000I62500J0D01*
G01*
G37*
G36*
G01*
X124962500Y-71310000D02*
X125712500Y-71310000D01*
G75*
G02*
X125775000Y-71372500I0J-62500D01*
G01*
X125775000Y-71497500D01*
G75*
G02*
X125712500Y-71560000I-62500J0D01*
G01*
X124962500Y-71560000D01*
G75*
G02*
X124900000Y-71497500I0J62500D01*
G01*
X124900000Y-71372500D01*
G75*
G02*
X124962500Y-71310000I62500J0D01*
G01*
G37*
G36*
G01*
X124962500Y-70810000D02*
X125712500Y-70810000D01*
G75*
G02*
X125775000Y-70872500I0J-62500D01*
G01*
X125775000Y-70997500D01*
G75*
G02*
X125712500Y-71060000I-62500J0D01*
G01*
X124962500Y-71060000D01*
G75*
G02*
X124900000Y-70997500I0J62500D01*
G01*
X124900000Y-70872500D01*
G75*
G02*
X124962500Y-70810000I62500J0D01*
G01*
G37*
D18*
X123400000Y-72185000D03*
G04 #@! TD*
G04 #@! TO.C,L17*
G36*
G01*
X104550000Y-57900000D02*
X106250000Y-57900000D01*
G75*
G02*
X106500000Y-58150000I0J-250000D01*
G01*
X106500000Y-58900000D01*
G75*
G02*
X106250000Y-59150000I-250000J0D01*
G01*
X104550000Y-59150000D01*
G75*
G02*
X104300000Y-58900000I0J250000D01*
G01*
X104300000Y-58150000D01*
G75*
G02*
X104550000Y-57900000I250000J0D01*
G01*
G37*
G36*
G01*
X104550000Y-60050000D02*
X106250000Y-60050000D01*
G75*
G02*
X106500000Y-60300000I0J-250000D01*
G01*
X106500000Y-61050000D01*
G75*
G02*
X106250000Y-61300000I-250000J0D01*
G01*
X104550000Y-61300000D01*
G75*
G02*
X104300000Y-61050000I0J250000D01*
G01*
X104300000Y-60300000D01*
G75*
G02*
X104550000Y-60050000I250000J0D01*
G01*
G37*
G04 #@! TD*
G04 #@! TO.C,C6*
G36*
G01*
X121420000Y-69260000D02*
X121080000Y-69260000D01*
G75*
G02*
X120940000Y-69120000I0J140000D01*
G01*
X120940000Y-68840000D01*
G75*
G02*
X121080000Y-68700000I140000J0D01*
G01*
X121420000Y-68700000D01*
G75*
G02*
X121560000Y-68840000I0J-140000D01*
G01*
X121560000Y-69120000D01*
G75*
G02*
X121420000Y-69260000I-140000J0D01*
G01*
G37*
G36*
G01*
X121420000Y-68300000D02*
X121080000Y-68300000D01*
G75*
G02*
X120940000Y-68160000I0J140000D01*
G01*
X120940000Y-67880000D01*
G75*
G02*
X121080000Y-67740000I140000J0D01*
G01*
X121420000Y-67740000D01*
G75*
G02*
X121560000Y-67880000I0J-140000D01*
G01*
X121560000Y-68160000D01*
G75*
G02*
X121420000Y-68300000I-140000J0D01*
G01*
G37*
G04 #@! TD*
D19*
G04 #@! TO.C,U1*
X108358300Y-64800001D03*
D20*
X108371000Y-65150000D03*
X108371000Y-65499999D03*
X108371000Y-65849998D03*
X108371000Y-66200000D03*
X108371000Y-66550000D03*
X108371000Y-66899999D03*
X108371000Y-67250001D03*
X108371000Y-67600000D03*
X108371000Y-67949999D03*
X108371000Y-68300001D03*
X108371000Y-68650000D03*
X108371000Y-69000000D03*
X108371000Y-69349999D03*
X108371000Y-69700001D03*
X108371000Y-70050000D03*
D19*
X108358300Y-70399999D03*
D21*
X109000001Y-71041700D03*
D22*
X109350000Y-71029000D03*
X109699999Y-71029000D03*
X110049998Y-71029000D03*
X110400000Y-71029000D03*
X110750000Y-71029000D03*
X111099999Y-71029000D03*
X111450001Y-71029000D03*
X111800000Y-71029000D03*
X112149999Y-71029000D03*
X112500001Y-71029000D03*
X112850000Y-71029000D03*
X113200000Y-71029000D03*
X113549999Y-71029000D03*
X113900001Y-71029000D03*
X114250000Y-71029000D03*
D21*
X114599999Y-71041700D03*
D19*
X115241700Y-70399999D03*
D20*
X115229000Y-70050000D03*
X115229000Y-69700001D03*
X115229000Y-69350002D03*
X115229000Y-69000000D03*
X115229000Y-68650000D03*
X115229000Y-68300001D03*
X115229000Y-67949999D03*
X115229000Y-67600000D03*
X115229000Y-67250001D03*
X115229000Y-66899999D03*
X115229000Y-66550000D03*
X115229000Y-66200000D03*
X115229000Y-65850001D03*
X115229000Y-65499999D03*
X115229000Y-65150000D03*
D19*
X115241700Y-64800001D03*
D21*
X114599999Y-64158300D03*
D22*
X114250000Y-64171000D03*
X113900001Y-64171000D03*
X113550002Y-64171000D03*
X113200000Y-64171000D03*
X112850000Y-64171000D03*
X112500001Y-64171000D03*
X112149999Y-64171000D03*
X111800000Y-64171000D03*
X111450001Y-64171000D03*
X111099999Y-64171000D03*
X110750000Y-64171000D03*
X110400000Y-64171000D03*
X110050001Y-64171000D03*
X109699999Y-64171000D03*
X109350000Y-64171000D03*
D21*
X109000001Y-64158300D03*
D23*
X111800000Y-67600000D03*
G04 #@! TD*
G04 #@! TO.C,C68*
G36*
G01*
X135830000Y-75100000D02*
X135830000Y-75300000D01*
G75*
G02*
X135730000Y-75400000I-100000J0D01*
G01*
X135470000Y-75400000D01*
G75*
G02*
X135370000Y-75300000I0J100000D01*
G01*
X135370000Y-75100000D01*
G75*
G02*
X135470000Y-75000000I100000J0D01*
G01*
X135730000Y-75000000D01*
G75*
G02*
X135830000Y-75100000I0J-100000D01*
G01*
G37*
G36*
G01*
X135190000Y-75100000D02*
X135190000Y-75300000D01*
G75*
G02*
X135090000Y-75400000I-100000J0D01*
G01*
X134830000Y-75400000D01*
G75*
G02*
X134730000Y-75300000I0J100000D01*
G01*
X134730000Y-75100000D01*
G75*
G02*
X134830000Y-75000000I100000J0D01*
G01*
X135090000Y-75000000D01*
G75*
G02*
X135190000Y-75100000I0J-100000D01*
G01*
G37*
G04 #@! TD*
G04 #@! TO.C,C47*
G36*
G01*
X142895000Y-62200000D02*
X142895000Y-62400000D01*
G75*
G02*
X142795000Y-62500000I-100000J0D01*
G01*
X142535000Y-62500000D01*
G75*
G02*
X142435000Y-62400000I0J100000D01*
G01*
X142435000Y-62200000D01*
G75*
G02*
X142535000Y-62100000I100000J0D01*
G01*
X142795000Y-62100000D01*
G75*
G02*
X142895000Y-62200000I0J-100000D01*
G01*
G37*
G36*
G01*
X142255000Y-62200000D02*
X142255000Y-62400000D01*
G75*
G02*
X142155000Y-62500000I-100000J0D01*
G01*
X141895000Y-62500000D01*
G75*
G02*
X141795000Y-62400000I0J100000D01*
G01*
X141795000Y-62200000D01*
G75*
G02*
X141895000Y-62100000I100000J0D01*
G01*
X142155000Y-62100000D01*
G75*
G02*
X142255000Y-62200000I0J-100000D01*
G01*
G37*
G04 #@! TD*
G04 #@! TO.C,C44*
G36*
G01*
X142895000Y-62950000D02*
X142895000Y-63150000D01*
G75*
G02*
X142795000Y-63250000I-100000J0D01*
G01*
X142535000Y-63250000D01*
G75*
G02*
X142435000Y-63150000I0J100000D01*
G01*
X142435000Y-62950000D01*
G75*
G02*
X142535000Y-62850000I100000J0D01*
G01*
X142795000Y-62850000D01*
G75*
G02*
X142895000Y-62950000I0J-100000D01*
G01*
G37*
G36*
G01*
X142255000Y-62950000D02*
X142255000Y-63150000D01*
G75*
G02*
X142155000Y-63250000I-100000J0D01*
G01*
X141895000Y-63250000D01*
G75*
G02*
X141795000Y-63150000I0J100000D01*
G01*
X141795000Y-62950000D01*
G75*
G02*
X141895000Y-62850000I100000J0D01*
G01*
X142155000Y-62850000D01*
G75*
G02*
X142255000Y-62950000I0J-100000D01*
G01*
G37*
G04 #@! TD*
G04 #@! TO.C,C37*
G36*
G01*
X142800000Y-66910000D02*
X142600000Y-66910000D01*
G75*
G02*
X142500000Y-66810000I0J100000D01*
G01*
X142500000Y-66550000D01*
G75*
G02*
X142600000Y-66450000I100000J0D01*
G01*
X142800000Y-66450000D01*
G75*
G02*
X142900000Y-66550000I0J-100000D01*
G01*
X142900000Y-66810000D01*
G75*
G02*
X142800000Y-66910000I-100000J0D01*
G01*
G37*
G36*
G01*
X142800000Y-66270000D02*
X142600000Y-66270000D01*
G75*
G02*
X142500000Y-66170000I0J100000D01*
G01*
X142500000Y-65910000D01*
G75*
G02*
X142600000Y-65810000I100000J0D01*
G01*
X142800000Y-65810000D01*
G75*
G02*
X142900000Y-65910000I0J-100000D01*
G01*
X142900000Y-66170000D01*
G75*
G02*
X142800000Y-66270000I-100000J0D01*
G01*
G37*
G04 #@! TD*
G04 #@! TO.C,L12*
G36*
G01*
X139900000Y-62545000D02*
X139700000Y-62545000D01*
G75*
G02*
X139600000Y-62445000I0J100000D01*
G01*
X139600000Y-62185000D01*
G75*
G02*
X139700000Y-62085000I100000J0D01*
G01*
X139900000Y-62085000D01*
G75*
G02*
X140000000Y-62185000I0J-100000D01*
G01*
X140000000Y-62445000D01*
G75*
G02*
X139900000Y-62545000I-100000J0D01*
G01*
G37*
G36*
G01*
X139900000Y-61905000D02*
X139700000Y-61905000D01*
G75*
G02*
X139600000Y-61805000I0J100000D01*
G01*
X139600000Y-61545000D01*
G75*
G02*
X139700000Y-61445000I100000J0D01*
G01*
X139900000Y-61445000D01*
G75*
G02*
X140000000Y-61545000I0J-100000D01*
G01*
X140000000Y-61805000D01*
G75*
G02*
X139900000Y-61905000I-100000J0D01*
G01*
G37*
G04 #@! TD*
D14*
G04 #@! TO.C,FL1*
X132535000Y-61700000D03*
X132920000Y-61950000D03*
X133305000Y-61950000D03*
X133305000Y-61450000D03*
X132920000Y-61450000D03*
G04 #@! TD*
G04 #@! TO.C,C56*
G36*
G01*
X110650000Y-72350000D02*
X110850000Y-72350000D01*
G75*
G02*
X110950000Y-72450000I0J-100000D01*
G01*
X110950000Y-72710000D01*
G75*
G02*
X110850000Y-72810000I-100000J0D01*
G01*
X110650000Y-72810000D01*
G75*
G02*
X110550000Y-72710000I0J100000D01*
G01*
X110550000Y-72450000D01*
G75*
G02*
X110650000Y-72350000I100000J0D01*
G01*
G37*
G36*
G01*
X110650000Y-72990000D02*
X110850000Y-72990000D01*
G75*
G02*
X110950000Y-73090000I0J-100000D01*
G01*
X110950000Y-73350000D01*
G75*
G02*
X110850000Y-73450000I-100000J0D01*
G01*
X110650000Y-73450000D01*
G75*
G02*
X110550000Y-73350000I0J100000D01*
G01*
X110550000Y-73090000D01*
G75*
G02*
X110650000Y-72990000I100000J0D01*
G01*
G37*
G04 #@! TD*
G04 #@! TO.C,C7*
G36*
G01*
X126460000Y-59870000D02*
X126460000Y-59530000D01*
G75*
G02*
X126600000Y-59390000I140000J0D01*
G01*
X126880000Y-59390000D01*
G75*
G02*
X127020000Y-59530000I0J-140000D01*
G01*
X127020000Y-59870000D01*
G75*
G02*
X126880000Y-60010000I-140000J0D01*
G01*
X126600000Y-60010000D01*
G75*
G02*
X126460000Y-59870000I0J140000D01*
G01*
G37*
G36*
G01*
X127420000Y-59870000D02*
X127420000Y-59530000D01*
G75*
G02*
X127560000Y-59390000I140000J0D01*
G01*
X127840000Y-59390000D01*
G75*
G02*
X127980000Y-59530000I0J-140000D01*
G01*
X127980000Y-59870000D01*
G75*
G02*
X127840000Y-60010000I-140000J0D01*
G01*
X127560000Y-60010000D01*
G75*
G02*
X127420000Y-59870000I0J140000D01*
G01*
G37*
G04 #@! TD*
G04 #@! TO.C,C69*
G36*
G01*
X139020000Y-71410000D02*
X138680000Y-71410000D01*
G75*
G02*
X138540000Y-71270000I0J140000D01*
G01*
X138540000Y-70990000D01*
G75*
G02*
X138680000Y-70850000I140000J0D01*
G01*
X139020000Y-70850000D01*
G75*
G02*
X139160000Y-70990000I0J-140000D01*
G01*
X139160000Y-71270000D01*
G75*
G02*
X139020000Y-71410000I-140000J0D01*
G01*
G37*
G36*
G01*
X139020000Y-70450000D02*
X138680000Y-70450000D01*
G75*
G02*
X138540000Y-70310000I0J140000D01*
G01*
X138540000Y-70030000D01*
G75*
G02*
X138680000Y-69890000I140000J0D01*
G01*
X139020000Y-69890000D01*
G75*
G02*
X139160000Y-70030000I0J-140000D01*
G01*
X139160000Y-70310000D01*
G75*
G02*
X139020000Y-70450000I-140000J0D01*
G01*
G37*
G04 #@! TD*
G04 #@! TO.C,C19*
G36*
G01*
X129800000Y-71130000D02*
X130000000Y-71130000D01*
G75*
G02*
X130100000Y-71230000I0J-100000D01*
G01*
X130100000Y-71490000D01*
G75*
G02*
X130000000Y-71590000I-100000J0D01*
G01*
X129800000Y-71590000D01*
G75*
G02*
X129700000Y-71490000I0J100000D01*
G01*
X129700000Y-71230000D01*
G75*
G02*
X129800000Y-71130000I100000J0D01*
G01*
G37*
G36*
G01*
X129800000Y-71770000D02*
X130000000Y-71770000D01*
G75*
G02*
X130100000Y-71870000I0J-100000D01*
G01*
X130100000Y-72130000D01*
G75*
G02*
X130000000Y-72230000I-100000J0D01*
G01*
X129800000Y-72230000D01*
G75*
G02*
X129700000Y-72130000I0J100000D01*
G01*
X129700000Y-71870000D01*
G75*
G02*
X129800000Y-71770000I100000J0D01*
G01*
G37*
G04 #@! TD*
G04 #@! TO.C,C21*
G36*
G01*
X111350000Y-63150000D02*
X111150000Y-63150000D01*
G75*
G02*
X111050000Y-63050000I0J100000D01*
G01*
X111050000Y-62790000D01*
G75*
G02*
X111150000Y-62690000I100000J0D01*
G01*
X111350000Y-62690000D01*
G75*
G02*
X111450000Y-62790000I0J-100000D01*
G01*
X111450000Y-63050000D01*
G75*
G02*
X111350000Y-63150000I-100000J0D01*
G01*
G37*
G36*
G01*
X111350000Y-62510000D02*
X111150000Y-62510000D01*
G75*
G02*
X111050000Y-62410000I0J100000D01*
G01*
X111050000Y-62150000D01*
G75*
G02*
X111150000Y-62050000I100000J0D01*
G01*
X111350000Y-62050000D01*
G75*
G02*
X111450000Y-62150000I0J-100000D01*
G01*
X111450000Y-62410000D01*
G75*
G02*
X111350000Y-62510000I-100000J0D01*
G01*
G37*
G04 #@! TD*
G04 #@! TO.C,C61*
G36*
G01*
X150580000Y-72580000D02*
X150580000Y-72920000D01*
G75*
G02*
X150440000Y-73060000I-140000J0D01*
G01*
X150160000Y-73060000D01*
G75*
G02*
X150020000Y-72920000I0J140000D01*
G01*
X150020000Y-72580000D01*
G75*
G02*
X150160000Y-72440000I140000J0D01*
G01*
X150440000Y-72440000D01*
G75*
G02*
X150580000Y-72580000I0J-140000D01*
G01*
G37*
G36*
G01*
X149620000Y-72580000D02*
X149620000Y-72920000D01*
G75*
G02*
X149480000Y-73060000I-140000J0D01*
G01*
X149200000Y-73060000D01*
G75*
G02*
X149060000Y-72920000I0J140000D01*
G01*
X149060000Y-72580000D01*
G75*
G02*
X149200000Y-72440000I140000J0D01*
G01*
X149480000Y-72440000D01*
G75*
G02*
X149620000Y-72580000I0J-140000D01*
G01*
G37*
G04 #@! TD*
G04 #@! TO.C,C38*
G36*
G01*
X137050000Y-61050000D02*
X137050000Y-60850000D01*
G75*
G02*
X137150000Y-60750000I100000J0D01*
G01*
X137410000Y-60750000D01*
G75*
G02*
X137510000Y-60850000I0J-100000D01*
G01*
X137510000Y-61050000D01*
G75*
G02*
X137410000Y-61150000I-100000J0D01*
G01*
X137150000Y-61150000D01*
G75*
G02*
X137050000Y-61050000I0J100000D01*
G01*
G37*
G36*
G01*
X137690000Y-61050000D02*
X137690000Y-60850000D01*
G75*
G02*
X137790000Y-60750000I100000J0D01*
G01*
X138050000Y-60750000D01*
G75*
G02*
X138150000Y-60850000I0J-100000D01*
G01*
X138150000Y-61050000D01*
G75*
G02*
X138050000Y-61150000I-100000J0D01*
G01*
X137790000Y-61150000D01*
G75*
G02*
X137690000Y-61050000I0J100000D01*
G01*
G37*
G04 #@! TD*
G04 #@! TO.C,L11*
G36*
G01*
X138900000Y-60490000D02*
X138700000Y-60490000D01*
G75*
G02*
X138600000Y-60390000I0J100000D01*
G01*
X138600000Y-60130000D01*
G75*
G02*
X138700000Y-60030000I100000J0D01*
G01*
X138900000Y-60030000D01*
G75*
G02*
X139000000Y-60130000I0J-100000D01*
G01*
X139000000Y-60390000D01*
G75*
G02*
X138900000Y-60490000I-100000J0D01*
G01*
G37*
G36*
G01*
X138900000Y-59850000D02*
X138700000Y-59850000D01*
G75*
G02*
X138600000Y-59750000I0J100000D01*
G01*
X138600000Y-59490000D01*
G75*
G02*
X138700000Y-59390000I100000J0D01*
G01*
X138900000Y-59390000D01*
G75*
G02*
X139000000Y-59490000I0J-100000D01*
G01*
X139000000Y-59750000D01*
G75*
G02*
X138900000Y-59850000I-100000J0D01*
G01*
G37*
G04 #@! TD*
G04 #@! TO.C,C70*
G36*
G01*
X133480000Y-73830000D02*
X133480000Y-74170000D01*
G75*
G02*
X133340000Y-74310000I-140000J0D01*
G01*
X133060000Y-74310000D01*
G75*
G02*
X132920000Y-74170000I0J140000D01*
G01*
X132920000Y-73830000D01*
G75*
G02*
X133060000Y-73690000I140000J0D01*
G01*
X133340000Y-73690000D01*
G75*
G02*
X133480000Y-73830000I0J-140000D01*
G01*
G37*
G36*
G01*
X132520000Y-73830000D02*
X132520000Y-74170000D01*
G75*
G02*
X132380000Y-74310000I-140000J0D01*
G01*
X132100000Y-74310000D01*
G75*
G02*
X131960000Y-74170000I0J140000D01*
G01*
X131960000Y-73830000D01*
G75*
G02*
X132100000Y-73690000I140000J0D01*
G01*
X132380000Y-73690000D01*
G75*
G02*
X132520000Y-73830000I0J-140000D01*
G01*
G37*
G04 #@! TD*
G04 #@! TO.C,C51*
G36*
G01*
X134665000Y-63000000D02*
X134665000Y-62800000D01*
G75*
G02*
X134765000Y-62700000I100000J0D01*
G01*
X135025000Y-62700000D01*
G75*
G02*
X135125000Y-62800000I0J-100000D01*
G01*
X135125000Y-63000000D01*
G75*
G02*
X135025000Y-63100000I-100000J0D01*
G01*
X134765000Y-63100000D01*
G75*
G02*
X134665000Y-63000000I0J100000D01*
G01*
G37*
G36*
G01*
X135305000Y-63000000D02*
X135305000Y-62800000D01*
G75*
G02*
X135405000Y-62700000I100000J0D01*
G01*
X135665000Y-62700000D01*
G75*
G02*
X135765000Y-62800000I0J-100000D01*
G01*
X135765000Y-63000000D01*
G75*
G02*
X135665000Y-63100000I-100000J0D01*
G01*
X135405000Y-63100000D01*
G75*
G02*
X135305000Y-63000000I0J100000D01*
G01*
G37*
G04 #@! TD*
G04 #@! TO.C,C41*
G36*
G01*
X145200000Y-66915500D02*
X145000000Y-66915500D01*
G75*
G02*
X144900000Y-66815500I0J100000D01*
G01*
X144900000Y-66555500D01*
G75*
G02*
X145000000Y-66455500I100000J0D01*
G01*
X145200000Y-66455500D01*
G75*
G02*
X145300000Y-66555500I0J-100000D01*
G01*
X145300000Y-66815500D01*
G75*
G02*
X145200000Y-66915500I-100000J0D01*
G01*
G37*
G36*
G01*
X145200000Y-66275500D02*
X145000000Y-66275500D01*
G75*
G02*
X144900000Y-66175500I0J100000D01*
G01*
X144900000Y-65915500D01*
G75*
G02*
X145000000Y-65815500I100000J0D01*
G01*
X145200000Y-65815500D01*
G75*
G02*
X145300000Y-65915500I0J-100000D01*
G01*
X145300000Y-66175500D01*
G75*
G02*
X145200000Y-66275500I-100000J0D01*
G01*
G37*
G04 #@! TD*
G04 #@! TO.C,R6*
G36*
G01*
X109785000Y-59080000D02*
X109415000Y-59080000D01*
G75*
G02*
X109280000Y-58945000I0J135000D01*
G01*
X109280000Y-58675000D01*
G75*
G02*
X109415000Y-58540000I135000J0D01*
G01*
X109785000Y-58540000D01*
G75*
G02*
X109920000Y-58675000I0J-135000D01*
G01*
X109920000Y-58945000D01*
G75*
G02*
X109785000Y-59080000I-135000J0D01*
G01*
G37*
G36*
G01*
X109785000Y-58060000D02*
X109415000Y-58060000D01*
G75*
G02*
X109280000Y-57925000I0J135000D01*
G01*
X109280000Y-57655000D01*
G75*
G02*
X109415000Y-57520000I135000J0D01*
G01*
X109785000Y-57520000D01*
G75*
G02*
X109920000Y-57655000I0J-135000D01*
G01*
X109920000Y-57925000D01*
G75*
G02*
X109785000Y-58060000I-135000J0D01*
G01*
G37*
G04 #@! TD*
D24*
G04 #@! TO.C,A1*
X109500000Y-77700000D03*
D25*
X112040000Y-77700000D03*
X114580000Y-77700000D03*
X117120000Y-77700000D03*
X119660000Y-77700000D03*
X122200000Y-77700000D03*
X124740000Y-77700000D03*
X127280000Y-77700000D03*
X129820000Y-77700000D03*
X132360000Y-77700000D03*
X134900000Y-77700000D03*
X137440000Y-77700000D03*
X139980000Y-77700000D03*
X142520000Y-77700000D03*
X145060000Y-77700000D03*
X147600000Y-77700000D03*
X147600000Y-57380000D03*
X145060000Y-57380000D03*
X142520000Y-57380000D03*
X139980000Y-57380000D03*
X137440000Y-57380000D03*
X134900000Y-57380000D03*
X132360000Y-57380000D03*
X129820000Y-57380000D03*
X127280000Y-57380000D03*
X124740000Y-57380000D03*
X122200000Y-57380000D03*
X119660000Y-57380000D03*
G04 #@! TD*
G04 #@! TO.C,R3*
G36*
G01*
X145785000Y-62030000D02*
X145415000Y-62030000D01*
G75*
G02*
X145280000Y-61895000I0J135000D01*
G01*
X145280000Y-61625000D01*
G75*
G02*
X145415000Y-61490000I135000J0D01*
G01*
X145785000Y-61490000D01*
G75*
G02*
X145920000Y-61625000I0J-135000D01*
G01*
X145920000Y-61895000D01*
G75*
G02*
X145785000Y-62030000I-135000J0D01*
G01*
G37*
G36*
G01*
X145785000Y-61010000D02*
X145415000Y-61010000D01*
G75*
G02*
X145280000Y-60875000I0J135000D01*
G01*
X145280000Y-60605000D01*
G75*
G02*
X145415000Y-60470000I135000J0D01*
G01*
X145785000Y-60470000D01*
G75*
G02*
X145920000Y-60605000I0J-135000D01*
G01*
X145920000Y-60875000D01*
G75*
G02*
X145785000Y-61010000I-135000J0D01*
G01*
G37*
G04 #@! TD*
G04 #@! TO.C,C29*
G36*
G01*
X153170000Y-59610000D02*
X152830000Y-59610000D01*
G75*
G02*
X152690000Y-59470000I0J140000D01*
G01*
X152690000Y-59190000D01*
G75*
G02*
X152830000Y-59050000I140000J0D01*
G01*
X153170000Y-59050000D01*
G75*
G02*
X153310000Y-59190000I0J-140000D01*
G01*
X153310000Y-59470000D01*
G75*
G02*
X153170000Y-59610000I-140000J0D01*
G01*
G37*
G36*
G01*
X153170000Y-58650000D02*
X152830000Y-58650000D01*
G75*
G02*
X152690000Y-58510000I0J140000D01*
G01*
X152690000Y-58230000D01*
G75*
G02*
X152830000Y-58090000I140000J0D01*
G01*
X153170000Y-58090000D01*
G75*
G02*
X153310000Y-58230000I0J-140000D01*
G01*
X153310000Y-58510000D01*
G75*
G02*
X153170000Y-58650000I-140000J0D01*
G01*
G37*
G04 #@! TD*
G04 #@! TO.C,C57*
G36*
G01*
X116005000Y-72700000D02*
X116005000Y-72900000D01*
G75*
G02*
X115905000Y-73000000I-100000J0D01*
G01*
X115645000Y-73000000D01*
G75*
G02*
X115545000Y-72900000I0J100000D01*
G01*
X115545000Y-72700000D01*
G75*
G02*
X115645000Y-72600000I100000J0D01*
G01*
X115905000Y-72600000D01*
G75*
G02*
X116005000Y-72700000I0J-100000D01*
G01*
G37*
G36*
G01*
X115365000Y-72700000D02*
X115365000Y-72900000D01*
G75*
G02*
X115265000Y-73000000I-100000J0D01*
G01*
X115005000Y-73000000D01*
G75*
G02*
X114905000Y-72900000I0J100000D01*
G01*
X114905000Y-72700000D01*
G75*
G02*
X115005000Y-72600000I100000J0D01*
G01*
X115265000Y-72600000D01*
G75*
G02*
X115365000Y-72700000I0J-100000D01*
G01*
G37*
G04 #@! TD*
G04 #@! TO.C,U4*
G36*
G01*
X148825000Y-59262500D02*
X148825000Y-59137500D01*
G75*
G02*
X148887500Y-59075000I62500J0D01*
G01*
X149587500Y-59075000D01*
G75*
G02*
X149650000Y-59137500I0J-62500D01*
G01*
X149650000Y-59262500D01*
G75*
G02*
X149587500Y-59325000I-62500J0D01*
G01*
X148887500Y-59325000D01*
G75*
G02*
X148825000Y-59262500I0J62500D01*
G01*
G37*
G36*
G01*
X148825000Y-59762500D02*
X148825000Y-59637500D01*
G75*
G02*
X148887500Y-59575000I62500J0D01*
G01*
X149587500Y-59575000D01*
G75*
G02*
X149650000Y-59637500I0J-62500D01*
G01*
X149650000Y-59762500D01*
G75*
G02*
X149587500Y-59825000I-62500J0D01*
G01*
X148887500Y-59825000D01*
G75*
G02*
X148825000Y-59762500I0J62500D01*
G01*
G37*
G36*
G01*
X148825000Y-60262500D02*
X148825000Y-60137500D01*
G75*
G02*
X148887500Y-60075000I62500J0D01*
G01*
X149587500Y-60075000D01*
G75*
G02*
X149650000Y-60137500I0J-62500D01*
G01*
X149650000Y-60262500D01*
G75*
G02*
X149587500Y-60325000I-62500J0D01*
G01*
X148887500Y-60325000D01*
G75*
G02*
X148825000Y-60262500I0J62500D01*
G01*
G37*
G36*
G01*
X148825000Y-60762500D02*
X148825000Y-60637500D01*
G75*
G02*
X148887500Y-60575000I62500J0D01*
G01*
X149587500Y-60575000D01*
G75*
G02*
X149650000Y-60637500I0J-62500D01*
G01*
X149650000Y-60762500D01*
G75*
G02*
X149587500Y-60825000I-62500J0D01*
G01*
X148887500Y-60825000D01*
G75*
G02*
X148825000Y-60762500I0J62500D01*
G01*
G37*
G36*
G01*
X148825000Y-61262500D02*
X148825000Y-61137500D01*
G75*
G02*
X148887500Y-61075000I62500J0D01*
G01*
X149587500Y-61075000D01*
G75*
G02*
X149650000Y-61137500I0J-62500D01*
G01*
X149650000Y-61262500D01*
G75*
G02*
X149587500Y-61325000I-62500J0D01*
G01*
X148887500Y-61325000D01*
G75*
G02*
X148825000Y-61262500I0J62500D01*
G01*
G37*
G36*
G01*
X151250000Y-61262500D02*
X151250000Y-61137500D01*
G75*
G02*
X151312500Y-61075000I62500J0D01*
G01*
X152012500Y-61075000D01*
G75*
G02*
X152075000Y-61137500I0J-62500D01*
G01*
X152075000Y-61262500D01*
G75*
G02*
X152012500Y-61325000I-62500J0D01*
G01*
X151312500Y-61325000D01*
G75*
G02*
X151250000Y-61262500I0J62500D01*
G01*
G37*
G36*
G01*
X151250000Y-60762500D02*
X151250000Y-60637500D01*
G75*
G02*
X151312500Y-60575000I62500J0D01*
G01*
X152012500Y-60575000D01*
G75*
G02*
X152075000Y-60637500I0J-62500D01*
G01*
X152075000Y-60762500D01*
G75*
G02*
X152012500Y-60825000I-62500J0D01*
G01*
X151312500Y-60825000D01*
G75*
G02*
X151250000Y-60762500I0J62500D01*
G01*
G37*
G36*
G01*
X151250000Y-60262500D02*
X151250000Y-60137500D01*
G75*
G02*
X151312500Y-60075000I62500J0D01*
G01*
X152012500Y-60075000D01*
G75*
G02*
X152075000Y-60137500I0J-62500D01*
G01*
X152075000Y-60262500D01*
G75*
G02*
X152012500Y-60325000I-62500J0D01*
G01*
X151312500Y-60325000D01*
G75*
G02*
X151250000Y-60262500I0J62500D01*
G01*
G37*
G36*
G01*
X151250000Y-59762500D02*
X151250000Y-59637500D01*
G75*
G02*
X151312500Y-59575000I62500J0D01*
G01*
X152012500Y-59575000D01*
G75*
G02*
X152075000Y-59637500I0J-62500D01*
G01*
X152075000Y-59762500D01*
G75*
G02*
X152012500Y-59825000I-62500J0D01*
G01*
X151312500Y-59825000D01*
G75*
G02*
X151250000Y-59762500I0J62500D01*
G01*
G37*
G36*
G01*
X151250000Y-59262500D02*
X151250000Y-59137500D01*
G75*
G02*
X151312500Y-59075000I62500J0D01*
G01*
X152012500Y-59075000D01*
G75*
G02*
X152075000Y-59137500I0J-62500D01*
G01*
X152075000Y-59262500D01*
G75*
G02*
X152012500Y-59325000I-62500J0D01*
G01*
X151312500Y-59325000D01*
G75*
G02*
X151250000Y-59262500I0J62500D01*
G01*
G37*
D26*
X150450000Y-60200000D03*
G04 #@! TD*
D27*
G04 #@! TO.C,D4*
X114375000Y-57250000D03*
X116475000Y-57250000D03*
G04 #@! TD*
G04 #@! TO.C,C18*
G36*
G01*
X129799999Y-63530000D02*
X129999999Y-63530000D01*
G75*
G02*
X130099999Y-63630000I0J-100000D01*
G01*
X130099999Y-63890000D01*
G75*
G02*
X129999999Y-63990000I-100000J0D01*
G01*
X129799999Y-63990000D01*
G75*
G02*
X129699999Y-63890000I0J100000D01*
G01*
X129699999Y-63630000D01*
G75*
G02*
X129799999Y-63530000I100000J0D01*
G01*
G37*
G36*
G01*
X129799999Y-64170000D02*
X129999999Y-64170000D01*
G75*
G02*
X130099999Y-64270000I0J-100000D01*
G01*
X130099999Y-64530000D01*
G75*
G02*
X129999999Y-64630000I-100000J0D01*
G01*
X129799999Y-64630000D01*
G75*
G02*
X129699999Y-64530000I0J100000D01*
G01*
X129699999Y-64270000D01*
G75*
G02*
X129799999Y-64170000I100000J0D01*
G01*
G37*
G04 #@! TD*
G04 #@! TO.C,C11*
G36*
G01*
X127250000Y-62500000D02*
X127250000Y-62300000D01*
G75*
G02*
X127350000Y-62200000I100000J0D01*
G01*
X127610000Y-62200000D01*
G75*
G02*
X127710000Y-62300000I0J-100000D01*
G01*
X127710000Y-62500000D01*
G75*
G02*
X127610000Y-62600000I-100000J0D01*
G01*
X127350000Y-62600000D01*
G75*
G02*
X127250000Y-62500000I0J100000D01*
G01*
G37*
G36*
G01*
X127890000Y-62500000D02*
X127890000Y-62300000D01*
G75*
G02*
X127990000Y-62200000I100000J0D01*
G01*
X128250000Y-62200000D01*
G75*
G02*
X128350000Y-62300000I0J-100000D01*
G01*
X128350000Y-62500000D01*
G75*
G02*
X128250000Y-62600000I-100000J0D01*
G01*
X127990000Y-62600000D01*
G75*
G02*
X127890000Y-62500000I0J100000D01*
G01*
G37*
G04 #@! TD*
G04 #@! TO.C,R24*
G36*
G01*
X129700000Y-75470000D02*
X129900000Y-75470000D01*
G75*
G02*
X130000000Y-75570000I0J-100000D01*
G01*
X130000000Y-75830000D01*
G75*
G02*
X129900000Y-75930000I-100000J0D01*
G01*
X129700000Y-75930000D01*
G75*
G02*
X129600000Y-75830000I0J100000D01*
G01*
X129600000Y-75570000D01*
G75*
G02*
X129700000Y-75470000I100000J0D01*
G01*
G37*
G36*
G01*
X129700000Y-76110000D02*
X129900000Y-76110000D01*
G75*
G02*
X130000000Y-76210000I0J-100000D01*
G01*
X130000000Y-76470000D01*
G75*
G02*
X129900000Y-76570000I-100000J0D01*
G01*
X129700000Y-76570000D01*
G75*
G02*
X129600000Y-76470000I0J100000D01*
G01*
X129600000Y-76210000D01*
G75*
G02*
X129700000Y-76110000I100000J0D01*
G01*
G37*
G04 #@! TD*
G04 #@! TO.C,C48*
G36*
G01*
X141250000Y-63545000D02*
X141450000Y-63545000D01*
G75*
G02*
X141550000Y-63645000I0J-100000D01*
G01*
X141550000Y-63905000D01*
G75*
G02*
X141450000Y-64005000I-100000J0D01*
G01*
X141250000Y-64005000D01*
G75*
G02*
X141150000Y-63905000I0J100000D01*
G01*
X141150000Y-63645000D01*
G75*
G02*
X141250000Y-63545000I100000J0D01*
G01*
G37*
G36*
G01*
X141250000Y-64185000D02*
X141450000Y-64185000D01*
G75*
G02*
X141550000Y-64285000I0J-100000D01*
G01*
X141550000Y-64545000D01*
G75*
G02*
X141450000Y-64645000I-100000J0D01*
G01*
X141250000Y-64645000D01*
G75*
G02*
X141150000Y-64545000I0J100000D01*
G01*
X141150000Y-64285000D01*
G75*
G02*
X141250000Y-64185000I100000J0D01*
G01*
G37*
G04 #@! TD*
G04 #@! TO.C,C52*
G36*
G01*
X136259620Y-64062150D02*
X136118198Y-64203572D01*
G75*
G02*
X135976776Y-64203572I-70711J70711D01*
G01*
X135792928Y-64019724D01*
G75*
G02*
X135792928Y-63878302I70711J70711D01*
G01*
X135934350Y-63736880D01*
G75*
G02*
X136075772Y-63736880I70711J-70711D01*
G01*
X136259620Y-63920728D01*
G75*
G02*
X136259620Y-64062150I-70711J-70711D01*
G01*
G37*
G36*
G01*
X135807072Y-63609602D02*
X135665650Y-63751024D01*
G75*
G02*
X135524228Y-63751024I-70711J70711D01*
G01*
X135340380Y-63567176D01*
G75*
G02*
X135340380Y-63425754I70711J70711D01*
G01*
X135481802Y-63284332D01*
G75*
G02*
X135623224Y-63284332I70711J-70711D01*
G01*
X135807072Y-63468180D01*
G75*
G02*
X135807072Y-63609602I-70711J-70711D01*
G01*
G37*
G04 #@! TD*
G04 #@! TO.C,C63*
G36*
G01*
X153000000Y-60000000D02*
X153200000Y-60000000D01*
G75*
G02*
X153300000Y-60100000I0J-100000D01*
G01*
X153300000Y-60360000D01*
G75*
G02*
X153200000Y-60460000I-100000J0D01*
G01*
X153000000Y-60460000D01*
G75*
G02*
X152900000Y-60360000I0J100000D01*
G01*
X152900000Y-60100000D01*
G75*
G02*
X153000000Y-60000000I100000J0D01*
G01*
G37*
G36*
G01*
X153000000Y-60640000D02*
X153200000Y-60640000D01*
G75*
G02*
X153300000Y-60740000I0J-100000D01*
G01*
X153300000Y-61000000D01*
G75*
G02*
X153200000Y-61100000I-100000J0D01*
G01*
X153000000Y-61100000D01*
G75*
G02*
X152900000Y-61000000I0J100000D01*
G01*
X152900000Y-60740000D01*
G75*
G02*
X153000000Y-60640000I100000J0D01*
G01*
G37*
G04 #@! TD*
G04 #@! TO.C,R19*
G36*
G01*
X126030000Y-68800000D02*
X126030000Y-68600000D01*
G75*
G02*
X126130000Y-68500000I100000J0D01*
G01*
X126390000Y-68500000D01*
G75*
G02*
X126490000Y-68600000I0J-100000D01*
G01*
X126490000Y-68800000D01*
G75*
G02*
X126390000Y-68900000I-100000J0D01*
G01*
X126130000Y-68900000D01*
G75*
G02*
X126030000Y-68800000I0J100000D01*
G01*
G37*
G36*
G01*
X126670000Y-68800000D02*
X126670000Y-68600000D01*
G75*
G02*
X126770000Y-68500000I100000J0D01*
G01*
X127030000Y-68500000D01*
G75*
G02*
X127130000Y-68600000I0J-100000D01*
G01*
X127130000Y-68800000D01*
G75*
G02*
X127030000Y-68900000I-100000J0D01*
G01*
X126770000Y-68900000D01*
G75*
G02*
X126670000Y-68800000I0J100000D01*
G01*
G37*
G04 #@! TD*
G04 #@! TO.C,C25*
G36*
G01*
X107030000Y-66200000D02*
X107030000Y-66400000D01*
G75*
G02*
X106930000Y-66500000I-100000J0D01*
G01*
X106670000Y-66500000D01*
G75*
G02*
X106570000Y-66400000I0J100000D01*
G01*
X106570000Y-66200000D01*
G75*
G02*
X106670000Y-66100000I100000J0D01*
G01*
X106930000Y-66100000D01*
G75*
G02*
X107030000Y-66200000I0J-100000D01*
G01*
G37*
G36*
G01*
X106390000Y-66200000D02*
X106390000Y-66400000D01*
G75*
G02*
X106290000Y-66500000I-100000J0D01*
G01*
X106030000Y-66500000D01*
G75*
G02*
X105930000Y-66400000I0J100000D01*
G01*
X105930000Y-66200000D01*
G75*
G02*
X106030000Y-66100000I100000J0D01*
G01*
X106290000Y-66100000D01*
G75*
G02*
X106390000Y-66200000I0J-100000D01*
G01*
G37*
G04 #@! TD*
G04 #@! TO.C,C49*
G36*
G01*
X134200000Y-62350000D02*
X134000000Y-62350000D01*
G75*
G02*
X133900000Y-62250000I0J100000D01*
G01*
X133900000Y-61990000D01*
G75*
G02*
X134000000Y-61890000I100000J0D01*
G01*
X134200000Y-61890000D01*
G75*
G02*
X134300000Y-61990000I0J-100000D01*
G01*
X134300000Y-62250000D01*
G75*
G02*
X134200000Y-62350000I-100000J0D01*
G01*
G37*
G36*
G01*
X134200000Y-61710000D02*
X134000000Y-61710000D01*
G75*
G02*
X133900000Y-61610000I0J100000D01*
G01*
X133900000Y-61350000D01*
G75*
G02*
X134000000Y-61250000I100000J0D01*
G01*
X134200000Y-61250000D01*
G75*
G02*
X134300000Y-61350000I0J-100000D01*
G01*
X134300000Y-61610000D01*
G75*
G02*
X134200000Y-61710000I-100000J0D01*
G01*
G37*
G04 #@! TD*
G04 #@! TO.C,R1*
G36*
G01*
X123750000Y-59200000D02*
X123750000Y-59400000D01*
G75*
G02*
X123650000Y-59500000I-100000J0D01*
G01*
X123390000Y-59500000D01*
G75*
G02*
X123290000Y-59400000I0J100000D01*
G01*
X123290000Y-59200000D01*
G75*
G02*
X123390000Y-59100000I100000J0D01*
G01*
X123650000Y-59100000D01*
G75*
G02*
X123750000Y-59200000I0J-100000D01*
G01*
G37*
G36*
G01*
X123110000Y-59200000D02*
X123110000Y-59400000D01*
G75*
G02*
X123010000Y-59500000I-100000J0D01*
G01*
X122750000Y-59500000D01*
G75*
G02*
X122650000Y-59400000I0J100000D01*
G01*
X122650000Y-59200000D01*
G75*
G02*
X122750000Y-59100000I100000J0D01*
G01*
X123010000Y-59100000D01*
G75*
G02*
X123110000Y-59200000I0J-100000D01*
G01*
G37*
G04 #@! TD*
G04 #@! TO.C,R13*
G36*
G01*
X106185000Y-74980000D02*
X105815000Y-74980000D01*
G75*
G02*
X105680000Y-74845000I0J135000D01*
G01*
X105680000Y-74575000D01*
G75*
G02*
X105815000Y-74440000I135000J0D01*
G01*
X106185000Y-74440000D01*
G75*
G02*
X106320000Y-74575000I0J-135000D01*
G01*
X106320000Y-74845000D01*
G75*
G02*
X106185000Y-74980000I-135000J0D01*
G01*
G37*
G36*
G01*
X106185000Y-73960000D02*
X105815000Y-73960000D01*
G75*
G02*
X105680000Y-73825000I0J135000D01*
G01*
X105680000Y-73555000D01*
G75*
G02*
X105815000Y-73420000I135000J0D01*
G01*
X106185000Y-73420000D01*
G75*
G02*
X106320000Y-73555000I0J-135000D01*
G01*
X106320000Y-73825000D01*
G75*
G02*
X106185000Y-73960000I-135000J0D01*
G01*
G37*
G04 #@! TD*
G04 #@! TO.C,C13*
G36*
G01*
X128350000Y-65295000D02*
X128150000Y-65295000D01*
G75*
G02*
X128050000Y-65195000I0J100000D01*
G01*
X128050000Y-64935000D01*
G75*
G02*
X128150000Y-64835000I100000J0D01*
G01*
X128350000Y-64835000D01*
G75*
G02*
X128450000Y-64935000I0J-100000D01*
G01*
X128450000Y-65195000D01*
G75*
G02*
X128350000Y-65295000I-100000J0D01*
G01*
G37*
G36*
G01*
X128350000Y-64655000D02*
X128150000Y-64655000D01*
G75*
G02*
X128050000Y-64555000I0J100000D01*
G01*
X128050000Y-64295000D01*
G75*
G02*
X128150000Y-64195000I100000J0D01*
G01*
X128350000Y-64195000D01*
G75*
G02*
X128450000Y-64295000I0J-100000D01*
G01*
X128450000Y-64555000D01*
G75*
G02*
X128350000Y-64655000I-100000J0D01*
G01*
G37*
G04 #@! TD*
D28*
G04 #@! TO.C,J2*
X151200000Y-74500000D03*
D29*
X152725000Y-73025000D03*
X152725000Y-75975000D03*
G04 #@! TD*
G04 #@! TO.C,R14*
G36*
G01*
X114905000Y-73600000D02*
X114905000Y-73400000D01*
G75*
G02*
X115005000Y-73300000I100000J0D01*
G01*
X115265000Y-73300000D01*
G75*
G02*
X115365000Y-73400000I0J-100000D01*
G01*
X115365000Y-73600000D01*
G75*
G02*
X115265000Y-73700000I-100000J0D01*
G01*
X115005000Y-73700000D01*
G75*
G02*
X114905000Y-73600000I0J100000D01*
G01*
G37*
G36*
G01*
X115545000Y-73600000D02*
X115545000Y-73400000D01*
G75*
G02*
X115645000Y-73300000I100000J0D01*
G01*
X115905000Y-73300000D01*
G75*
G02*
X116005000Y-73400000I0J-100000D01*
G01*
X116005000Y-73600000D01*
G75*
G02*
X115905000Y-73700000I-100000J0D01*
G01*
X115645000Y-73700000D01*
G75*
G02*
X115545000Y-73600000I0J100000D01*
G01*
G37*
G04 #@! TD*
G04 #@! TO.C,L7*
G36*
G01*
X130050000Y-61800000D02*
X130050000Y-61600000D01*
G75*
G02*
X130150000Y-61500000I100000J0D01*
G01*
X130410000Y-61500000D01*
G75*
G02*
X130510000Y-61600000I0J-100000D01*
G01*
X130510000Y-61800000D01*
G75*
G02*
X130410000Y-61900000I-100000J0D01*
G01*
X130150000Y-61900000D01*
G75*
G02*
X130050000Y-61800000I0J100000D01*
G01*
G37*
G36*
G01*
X130690000Y-61800000D02*
X130690000Y-61600000D01*
G75*
G02*
X130790000Y-61500000I100000J0D01*
G01*
X131050000Y-61500000D01*
G75*
G02*
X131150000Y-61600000I0J-100000D01*
G01*
X131150000Y-61800000D01*
G75*
G02*
X131050000Y-61900000I-100000J0D01*
G01*
X130790000Y-61900000D01*
G75*
G02*
X130690000Y-61800000I0J100000D01*
G01*
G37*
G04 #@! TD*
D14*
G04 #@! TO.C,FL3*
X139900000Y-67937500D03*
X139515000Y-67687500D03*
X139130000Y-67687500D03*
X139130000Y-68187500D03*
X139515000Y-68187500D03*
G04 #@! TD*
G04 #@! TO.C,C71*
G36*
G01*
X138660000Y-74220000D02*
X138660000Y-73880000D01*
G75*
G02*
X138800000Y-73740000I140000J0D01*
G01*
X139080000Y-73740000D01*
G75*
G02*
X139220000Y-73880000I0J-140000D01*
G01*
X139220000Y-74220000D01*
G75*
G02*
X139080000Y-74360000I-140000J0D01*
G01*
X138800000Y-74360000D01*
G75*
G02*
X138660000Y-74220000I0J140000D01*
G01*
G37*
G36*
G01*
X139620000Y-74220000D02*
X139620000Y-73880000D01*
G75*
G02*
X139760000Y-73740000I140000J0D01*
G01*
X140040000Y-73740000D01*
G75*
G02*
X140180000Y-73880000I0J-140000D01*
G01*
X140180000Y-74220000D01*
G75*
G02*
X140040000Y-74360000I-140000J0D01*
G01*
X139760000Y-74360000D01*
G75*
G02*
X139620000Y-74220000I0J140000D01*
G01*
G37*
G04 #@! TD*
G04 #@! TO.C,R15*
G36*
G01*
X114910000Y-75700000D02*
X114910000Y-75500000D01*
G75*
G02*
X115010000Y-75400000I100000J0D01*
G01*
X115270000Y-75400000D01*
G75*
G02*
X115370000Y-75500000I0J-100000D01*
G01*
X115370000Y-75700000D01*
G75*
G02*
X115270000Y-75800000I-100000J0D01*
G01*
X115010000Y-75800000D01*
G75*
G02*
X114910000Y-75700000I0J100000D01*
G01*
G37*
G36*
G01*
X115550000Y-75700000D02*
X115550000Y-75500000D01*
G75*
G02*
X115650000Y-75400000I100000J0D01*
G01*
X115910000Y-75400000D01*
G75*
G02*
X116010000Y-75500000I0J-100000D01*
G01*
X116010000Y-75700000D01*
G75*
G02*
X115910000Y-75800000I-100000J0D01*
G01*
X115650000Y-75800000D01*
G75*
G02*
X115550000Y-75700000I0J100000D01*
G01*
G37*
G04 #@! TD*
G04 #@! TO.C,C43*
G36*
G01*
X140700000Y-60200000D02*
X140700000Y-60400000D01*
G75*
G02*
X140600000Y-60500000I-100000J0D01*
G01*
X140340000Y-60500000D01*
G75*
G02*
X140240000Y-60400000I0J100000D01*
G01*
X140240000Y-60200000D01*
G75*
G02*
X140340000Y-60100000I100000J0D01*
G01*
X140600000Y-60100000D01*
G75*
G02*
X140700000Y-60200000I0J-100000D01*
G01*
G37*
G36*
G01*
X140060000Y-60200000D02*
X140060000Y-60400000D01*
G75*
G02*
X139960000Y-60500000I-100000J0D01*
G01*
X139700000Y-60500000D01*
G75*
G02*
X139600000Y-60400000I0J100000D01*
G01*
X139600000Y-60200000D01*
G75*
G02*
X139700000Y-60100000I100000J0D01*
G01*
X139960000Y-60100000D01*
G75*
G02*
X140060000Y-60200000I0J-100000D01*
G01*
G37*
G04 #@! TD*
G04 #@! TO.C,L18*
G36*
G01*
X133075000Y-72525000D02*
X132875000Y-72525000D01*
G75*
G02*
X132775000Y-72425000I0J100000D01*
G01*
X132775000Y-72165000D01*
G75*
G02*
X132875000Y-72065000I100000J0D01*
G01*
X133075000Y-72065000D01*
G75*
G02*
X133175000Y-72165000I0J-100000D01*
G01*
X133175000Y-72425000D01*
G75*
G02*
X133075000Y-72525000I-100000J0D01*
G01*
G37*
G36*
G01*
X133075000Y-71885000D02*
X132875000Y-71885000D01*
G75*
G02*
X132775000Y-71785000I0J100000D01*
G01*
X132775000Y-71525000D01*
G75*
G02*
X132875000Y-71425000I100000J0D01*
G01*
X133075000Y-71425000D01*
G75*
G02*
X133175000Y-71525000I0J-100000D01*
G01*
X133175000Y-71785000D01*
G75*
G02*
X133075000Y-71885000I-100000J0D01*
G01*
G37*
G04 #@! TD*
G04 #@! TO.C,R21*
G36*
G01*
X116380000Y-59600000D02*
X116380000Y-59400000D01*
G75*
G02*
X116480000Y-59300000I100000J0D01*
G01*
X116740000Y-59300000D01*
G75*
G02*
X116840000Y-59400000I0J-100000D01*
G01*
X116840000Y-59600000D01*
G75*
G02*
X116740000Y-59700000I-100000J0D01*
G01*
X116480000Y-59700000D01*
G75*
G02*
X116380000Y-59600000I0J100000D01*
G01*
G37*
G36*
G01*
X117020000Y-59600000D02*
X117020000Y-59400000D01*
G75*
G02*
X117120000Y-59300000I100000J0D01*
G01*
X117380000Y-59300000D01*
G75*
G02*
X117480000Y-59400000I0J-100000D01*
G01*
X117480000Y-59600000D01*
G75*
G02*
X117380000Y-59700000I-100000J0D01*
G01*
X117120000Y-59700000D01*
G75*
G02*
X117020000Y-59600000I0J100000D01*
G01*
G37*
G04 #@! TD*
G04 #@! TO.C,C36*
G36*
G01*
X127770000Y-68100000D02*
X127770000Y-68300000D01*
G75*
G02*
X127670000Y-68400000I-100000J0D01*
G01*
X127410000Y-68400000D01*
G75*
G02*
X127310000Y-68300000I0J100000D01*
G01*
X127310000Y-68100000D01*
G75*
G02*
X127410000Y-68000000I100000J0D01*
G01*
X127670000Y-68000000D01*
G75*
G02*
X127770000Y-68100000I0J-100000D01*
G01*
G37*
G36*
G01*
X127130000Y-68100000D02*
X127130000Y-68300000D01*
G75*
G02*
X127030000Y-68400000I-100000J0D01*
G01*
X126770000Y-68400000D01*
G75*
G02*
X126670000Y-68300000I0J100000D01*
G01*
X126670000Y-68100000D01*
G75*
G02*
X126770000Y-68000000I100000J0D01*
G01*
X127030000Y-68000000D01*
G75*
G02*
X127130000Y-68100000I0J-100000D01*
G01*
G37*
G04 #@! TD*
G04 #@! TO.C,D3*
G36*
G01*
X107556250Y-77925000D02*
X107043750Y-77925000D01*
G75*
G02*
X106825000Y-77706250I0J218750D01*
G01*
X106825000Y-77268750D01*
G75*
G02*
X107043750Y-77050000I218750J0D01*
G01*
X107556250Y-77050000D01*
G75*
G02*
X107775000Y-77268750I0J-218750D01*
G01*
X107775000Y-77706250D01*
G75*
G02*
X107556250Y-77925000I-218750J0D01*
G01*
G37*
G36*
G01*
X107556250Y-76350000D02*
X107043750Y-76350000D01*
G75*
G02*
X106825000Y-76131250I0J218750D01*
G01*
X106825000Y-75693750D01*
G75*
G02*
X107043750Y-75475000I218750J0D01*
G01*
X107556250Y-75475000D01*
G75*
G02*
X107775000Y-75693750I0J-218750D01*
G01*
X107775000Y-76131250D01*
G75*
G02*
X107556250Y-76350000I-218750J0D01*
G01*
G37*
G04 #@! TD*
G04 #@! TO.C,C45*
G36*
G01*
X147600000Y-66910000D02*
X147400000Y-66910000D01*
G75*
G02*
X147300000Y-66810000I0J100000D01*
G01*
X147300000Y-66550000D01*
G75*
G02*
X147400000Y-66450000I100000J0D01*
G01*
X147600000Y-66450000D01*
G75*
G02*
X147700000Y-66550000I0J-100000D01*
G01*
X147700000Y-66810000D01*
G75*
G02*
X147600000Y-66910000I-100000J0D01*
G01*
G37*
G36*
G01*
X147600000Y-66270000D02*
X147400000Y-66270000D01*
G75*
G02*
X147300000Y-66170000I0J100000D01*
G01*
X147300000Y-65910000D01*
G75*
G02*
X147400000Y-65810000I100000J0D01*
G01*
X147600000Y-65810000D01*
G75*
G02*
X147700000Y-65910000I0J-100000D01*
G01*
X147700000Y-66170000D01*
G75*
G02*
X147600000Y-66270000I-100000J0D01*
G01*
G37*
G04 #@! TD*
G04 #@! TO.C,D2*
G36*
G01*
X106056250Y-77925000D02*
X105543750Y-77925000D01*
G75*
G02*
X105325000Y-77706250I0J218750D01*
G01*
X105325000Y-77268750D01*
G75*
G02*
X105543750Y-77050000I218750J0D01*
G01*
X106056250Y-77050000D01*
G75*
G02*
X106275000Y-77268750I0J-218750D01*
G01*
X106275000Y-77706250D01*
G75*
G02*
X106056250Y-77925000I-218750J0D01*
G01*
G37*
G36*
G01*
X106056250Y-76350000D02*
X105543750Y-76350000D01*
G75*
G02*
X105325000Y-76131250I0J218750D01*
G01*
X105325000Y-75693750D01*
G75*
G02*
X105543750Y-75475000I218750J0D01*
G01*
X106056250Y-75475000D01*
G75*
G02*
X106275000Y-75693750I0J-218750D01*
G01*
X106275000Y-76131250D01*
G75*
G02*
X106056250Y-76350000I-218750J0D01*
G01*
G37*
G04 #@! TD*
G04 #@! TO.C,C62*
G36*
G01*
X117480000Y-58850000D02*
X117480000Y-59050000D01*
G75*
G02*
X117380000Y-59150000I-100000J0D01*
G01*
X117120000Y-59150000D01*
G75*
G02*
X117020000Y-59050000I0J100000D01*
G01*
X117020000Y-58850000D01*
G75*
G02*
X117120000Y-58750000I100000J0D01*
G01*
X117380000Y-58750000D01*
G75*
G02*
X117480000Y-58850000I0J-100000D01*
G01*
G37*
G36*
G01*
X116840000Y-58850000D02*
X116840000Y-59050000D01*
G75*
G02*
X116740000Y-59150000I-100000J0D01*
G01*
X116480000Y-59150000D01*
G75*
G02*
X116380000Y-59050000I0J100000D01*
G01*
X116380000Y-58850000D01*
G75*
G02*
X116480000Y-58750000I100000J0D01*
G01*
X116740000Y-58750000D01*
G75*
G02*
X116840000Y-58850000I0J-100000D01*
G01*
G37*
G04 #@! TD*
G04 #@! TO.C,C66*
G36*
G01*
X131505000Y-71500000D02*
X131505000Y-71300000D01*
G75*
G02*
X131605000Y-71200000I100000J0D01*
G01*
X131865000Y-71200000D01*
G75*
G02*
X131965000Y-71300000I0J-100000D01*
G01*
X131965000Y-71500000D01*
G75*
G02*
X131865000Y-71600000I-100000J0D01*
G01*
X131605000Y-71600000D01*
G75*
G02*
X131505000Y-71500000I0J100000D01*
G01*
G37*
G36*
G01*
X132145000Y-71500000D02*
X132145000Y-71300000D01*
G75*
G02*
X132245000Y-71200000I100000J0D01*
G01*
X132505000Y-71200000D01*
G75*
G02*
X132605000Y-71300000I0J-100000D01*
G01*
X132605000Y-71500000D01*
G75*
G02*
X132505000Y-71600000I-100000J0D01*
G01*
X132245000Y-71600000D01*
G75*
G02*
X132145000Y-71500000I0J100000D01*
G01*
G37*
G04 #@! TD*
G04 #@! TO.C,L6*
G36*
G01*
X127600000Y-72235000D02*
X127400000Y-72235000D01*
G75*
G02*
X127300000Y-72135000I0J100000D01*
G01*
X127300000Y-71875000D01*
G75*
G02*
X127400000Y-71775000I100000J0D01*
G01*
X127600000Y-71775000D01*
G75*
G02*
X127700000Y-71875000I0J-100000D01*
G01*
X127700000Y-72135000D01*
G75*
G02*
X127600000Y-72235000I-100000J0D01*
G01*
G37*
G36*
G01*
X127600000Y-71595000D02*
X127400000Y-71595000D01*
G75*
G02*
X127300000Y-71495000I0J100000D01*
G01*
X127300000Y-71235000D01*
G75*
G02*
X127400000Y-71135000I100000J0D01*
G01*
X127600000Y-71135000D01*
G75*
G02*
X127700000Y-71235000I0J-100000D01*
G01*
X127700000Y-71495000D01*
G75*
G02*
X127600000Y-71595000I-100000J0D01*
G01*
G37*
G04 #@! TD*
G04 #@! TO.C,C67*
G36*
G01*
X131480000Y-72400000D02*
X131480000Y-72200000D01*
G75*
G02*
X131580000Y-72100000I100000J0D01*
G01*
X131840000Y-72100000D01*
G75*
G02*
X131940000Y-72200000I0J-100000D01*
G01*
X131940000Y-72400000D01*
G75*
G02*
X131840000Y-72500000I-100000J0D01*
G01*
X131580000Y-72500000D01*
G75*
G02*
X131480000Y-72400000I0J100000D01*
G01*
G37*
G36*
G01*
X132120000Y-72400000D02*
X132120000Y-72200000D01*
G75*
G02*
X132220000Y-72100000I100000J0D01*
G01*
X132480000Y-72100000D01*
G75*
G02*
X132580000Y-72200000I0J-100000D01*
G01*
X132580000Y-72400000D01*
G75*
G02*
X132480000Y-72500000I-100000J0D01*
G01*
X132220000Y-72500000D01*
G75*
G02*
X132120000Y-72400000I0J100000D01*
G01*
G37*
G04 #@! TD*
G04 #@! TO.C,U2*
G36*
G01*
X124587500Y-61400000D02*
X124712500Y-61400000D01*
G75*
G02*
X124775000Y-61462500I0J-62500D01*
G01*
X124775000Y-62212500D01*
G75*
G02*
X124712500Y-62275000I-62500J0D01*
G01*
X124587500Y-62275000D01*
G75*
G02*
X124525000Y-62212500I0J62500D01*
G01*
X124525000Y-61462500D01*
G75*
G02*
X124587500Y-61400000I62500J0D01*
G01*
G37*
G36*
G01*
X124087500Y-61400000D02*
X124212500Y-61400000D01*
G75*
G02*
X124275000Y-61462500I0J-62500D01*
G01*
X124275000Y-62212500D01*
G75*
G02*
X124212500Y-62275000I-62500J0D01*
G01*
X124087500Y-62275000D01*
G75*
G02*
X124025000Y-62212500I0J62500D01*
G01*
X124025000Y-61462500D01*
G75*
G02*
X124087500Y-61400000I62500J0D01*
G01*
G37*
G36*
G01*
X123587500Y-61400000D02*
X123712500Y-61400000D01*
G75*
G02*
X123775000Y-61462500I0J-62500D01*
G01*
X123775000Y-62212500D01*
G75*
G02*
X123712500Y-62275000I-62500J0D01*
G01*
X123587500Y-62275000D01*
G75*
G02*
X123525000Y-62212500I0J62500D01*
G01*
X123525000Y-61462500D01*
G75*
G02*
X123587500Y-61400000I62500J0D01*
G01*
G37*
G36*
G01*
X123087500Y-61400000D02*
X123212500Y-61400000D01*
G75*
G02*
X123275000Y-61462500I0J-62500D01*
G01*
X123275000Y-62212500D01*
G75*
G02*
X123212500Y-62275000I-62500J0D01*
G01*
X123087500Y-62275000D01*
G75*
G02*
X123025000Y-62212500I0J62500D01*
G01*
X123025000Y-61462500D01*
G75*
G02*
X123087500Y-61400000I62500J0D01*
G01*
G37*
G36*
G01*
X122587500Y-61400000D02*
X122712500Y-61400000D01*
G75*
G02*
X122775000Y-61462500I0J-62500D01*
G01*
X122775000Y-62212500D01*
G75*
G02*
X122712500Y-62275000I-62500J0D01*
G01*
X122587500Y-62275000D01*
G75*
G02*
X122525000Y-62212500I0J62500D01*
G01*
X122525000Y-61462500D01*
G75*
G02*
X122587500Y-61400000I62500J0D01*
G01*
G37*
G36*
G01*
X122087500Y-61400000D02*
X122212500Y-61400000D01*
G75*
G02*
X122275000Y-61462500I0J-62500D01*
G01*
X122275000Y-62212500D01*
G75*
G02*
X122212500Y-62275000I-62500J0D01*
G01*
X122087500Y-62275000D01*
G75*
G02*
X122025000Y-62212500I0J62500D01*
G01*
X122025000Y-61462500D01*
G75*
G02*
X122087500Y-61400000I62500J0D01*
G01*
G37*
G36*
G01*
X121087500Y-62400000D02*
X121837500Y-62400000D01*
G75*
G02*
X121900000Y-62462500I0J-62500D01*
G01*
X121900000Y-62587500D01*
G75*
G02*
X121837500Y-62650000I-62500J0D01*
G01*
X121087500Y-62650000D01*
G75*
G02*
X121025000Y-62587500I0J62500D01*
G01*
X121025000Y-62462500D01*
G75*
G02*
X121087500Y-62400000I62500J0D01*
G01*
G37*
G36*
G01*
X121087500Y-62900000D02*
X121837500Y-62900000D01*
G75*
G02*
X121900000Y-62962500I0J-62500D01*
G01*
X121900000Y-63087500D01*
G75*
G02*
X121837500Y-63150000I-62500J0D01*
G01*
X121087500Y-63150000D01*
G75*
G02*
X121025000Y-63087500I0J62500D01*
G01*
X121025000Y-62962500D01*
G75*
G02*
X121087500Y-62900000I62500J0D01*
G01*
G37*
G36*
G01*
X121087500Y-63400000D02*
X121837500Y-63400000D01*
G75*
G02*
X121900000Y-63462500I0J-62500D01*
G01*
X121900000Y-63587500D01*
G75*
G02*
X121837500Y-63650000I-62500J0D01*
G01*
X121087500Y-63650000D01*
G75*
G02*
X121025000Y-63587500I0J62500D01*
G01*
X121025000Y-63462500D01*
G75*
G02*
X121087500Y-63400000I62500J0D01*
G01*
G37*
G36*
G01*
X121087500Y-63900000D02*
X121837500Y-63900000D01*
G75*
G02*
X121900000Y-63962500I0J-62500D01*
G01*
X121900000Y-64087500D01*
G75*
G02*
X121837500Y-64150000I-62500J0D01*
G01*
X121087500Y-64150000D01*
G75*
G02*
X121025000Y-64087500I0J62500D01*
G01*
X121025000Y-63962500D01*
G75*
G02*
X121087500Y-63900000I62500J0D01*
G01*
G37*
G36*
G01*
X121087500Y-64400000D02*
X121837500Y-64400000D01*
G75*
G02*
X121900000Y-64462500I0J-62500D01*
G01*
X121900000Y-64587500D01*
G75*
G02*
X121837500Y-64650000I-62500J0D01*
G01*
X121087500Y-64650000D01*
G75*
G02*
X121025000Y-64587500I0J62500D01*
G01*
X121025000Y-64462500D01*
G75*
G02*
X121087500Y-64400000I62500J0D01*
G01*
G37*
G36*
G01*
X121087500Y-64900000D02*
X121837500Y-64900000D01*
G75*
G02*
X121900000Y-64962500I0J-62500D01*
G01*
X121900000Y-65087500D01*
G75*
G02*
X121837500Y-65150000I-62500J0D01*
G01*
X121087500Y-65150000D01*
G75*
G02*
X121025000Y-65087500I0J62500D01*
G01*
X121025000Y-64962500D01*
G75*
G02*
X121087500Y-64900000I62500J0D01*
G01*
G37*
G36*
G01*
X122087500Y-65275000D02*
X122212500Y-65275000D01*
G75*
G02*
X122275000Y-65337500I0J-62500D01*
G01*
X122275000Y-66087500D01*
G75*
G02*
X122212500Y-66150000I-62500J0D01*
G01*
X122087500Y-66150000D01*
G75*
G02*
X122025000Y-66087500I0J62500D01*
G01*
X122025000Y-65337500D01*
G75*
G02*
X122087500Y-65275000I62500J0D01*
G01*
G37*
G36*
G01*
X122587500Y-65275000D02*
X122712500Y-65275000D01*
G75*
G02*
X122775000Y-65337500I0J-62500D01*
G01*
X122775000Y-66087500D01*
G75*
G02*
X122712500Y-66150000I-62500J0D01*
G01*
X122587500Y-66150000D01*
G75*
G02*
X122525000Y-66087500I0J62500D01*
G01*
X122525000Y-65337500D01*
G75*
G02*
X122587500Y-65275000I62500J0D01*
G01*
G37*
G36*
G01*
X123087500Y-65275000D02*
X123212500Y-65275000D01*
G75*
G02*
X123275000Y-65337500I0J-62500D01*
G01*
X123275000Y-66087500D01*
G75*
G02*
X123212500Y-66150000I-62500J0D01*
G01*
X123087500Y-66150000D01*
G75*
G02*
X123025000Y-66087500I0J62500D01*
G01*
X123025000Y-65337500D01*
G75*
G02*
X123087500Y-65275000I62500J0D01*
G01*
G37*
G36*
G01*
X123587500Y-65275000D02*
X123712500Y-65275000D01*
G75*
G02*
X123775000Y-65337500I0J-62500D01*
G01*
X123775000Y-66087500D01*
G75*
G02*
X123712500Y-66150000I-62500J0D01*
G01*
X123587500Y-66150000D01*
G75*
G02*
X123525000Y-66087500I0J62500D01*
G01*
X123525000Y-65337500D01*
G75*
G02*
X123587500Y-65275000I62500J0D01*
G01*
G37*
G36*
G01*
X124087500Y-65275000D02*
X124212500Y-65275000D01*
G75*
G02*
X124275000Y-65337500I0J-62500D01*
G01*
X124275000Y-66087500D01*
G75*
G02*
X124212500Y-66150000I-62500J0D01*
G01*
X124087500Y-66150000D01*
G75*
G02*
X124025000Y-66087500I0J62500D01*
G01*
X124025000Y-65337500D01*
G75*
G02*
X124087500Y-65275000I62500J0D01*
G01*
G37*
G36*
G01*
X124587500Y-65275000D02*
X124712500Y-65275000D01*
G75*
G02*
X124775000Y-65337500I0J-62500D01*
G01*
X124775000Y-66087500D01*
G75*
G02*
X124712500Y-66150000I-62500J0D01*
G01*
X124587500Y-66150000D01*
G75*
G02*
X124525000Y-66087500I0J62500D01*
G01*
X124525000Y-65337500D01*
G75*
G02*
X124587500Y-65275000I62500J0D01*
G01*
G37*
G36*
G01*
X124962500Y-64900000D02*
X125712500Y-64900000D01*
G75*
G02*
X125775000Y-64962500I0J-62500D01*
G01*
X125775000Y-65087500D01*
G75*
G02*
X125712500Y-65150000I-62500J0D01*
G01*
X124962500Y-65150000D01*
G75*
G02*
X124900000Y-65087500I0J62500D01*
G01*
X124900000Y-64962500D01*
G75*
G02*
X124962500Y-64900000I62500J0D01*
G01*
G37*
G36*
G01*
X124962500Y-64400000D02*
X125712500Y-64400000D01*
G75*
G02*
X125775000Y-64462500I0J-62500D01*
G01*
X125775000Y-64587500D01*
G75*
G02*
X125712500Y-64650000I-62500J0D01*
G01*
X124962500Y-64650000D01*
G75*
G02*
X124900000Y-64587500I0J62500D01*
G01*
X124900000Y-64462500D01*
G75*
G02*
X124962500Y-64400000I62500J0D01*
G01*
G37*
G36*
G01*
X124962500Y-63900000D02*
X125712500Y-63900000D01*
G75*
G02*
X125775000Y-63962500I0J-62500D01*
G01*
X125775000Y-64087500D01*
G75*
G02*
X125712500Y-64150000I-62500J0D01*
G01*
X124962500Y-64150000D01*
G75*
G02*
X124900000Y-64087500I0J62500D01*
G01*
X124900000Y-63962500D01*
G75*
G02*
X124962500Y-63900000I62500J0D01*
G01*
G37*
G36*
G01*
X124962500Y-63400000D02*
X125712500Y-63400000D01*
G75*
G02*
X125775000Y-63462500I0J-62500D01*
G01*
X125775000Y-63587500D01*
G75*
G02*
X125712500Y-63650000I-62500J0D01*
G01*
X124962500Y-63650000D01*
G75*
G02*
X124900000Y-63587500I0J62500D01*
G01*
X124900000Y-63462500D01*
G75*
G02*
X124962500Y-63400000I62500J0D01*
G01*
G37*
G36*
G01*
X124962500Y-62900000D02*
X125712500Y-62900000D01*
G75*
G02*
X125775000Y-62962500I0J-62500D01*
G01*
X125775000Y-63087500D01*
G75*
G02*
X125712500Y-63150000I-62500J0D01*
G01*
X124962500Y-63150000D01*
G75*
G02*
X124900000Y-63087500I0J62500D01*
G01*
X124900000Y-62962500D01*
G75*
G02*
X124962500Y-62900000I62500J0D01*
G01*
G37*
G36*
G01*
X124962500Y-62400000D02*
X125712500Y-62400000D01*
G75*
G02*
X125775000Y-62462500I0J-62500D01*
G01*
X125775000Y-62587500D01*
G75*
G02*
X125712500Y-62650000I-62500J0D01*
G01*
X124962500Y-62650000D01*
G75*
G02*
X124900000Y-62587500I0J62500D01*
G01*
X124900000Y-62462500D01*
G75*
G02*
X124962500Y-62400000I62500J0D01*
G01*
G37*
D18*
X123400000Y-63775000D03*
G04 #@! TD*
G04 #@! TO.C,C26*
G36*
G01*
X113400000Y-63150000D02*
X113200000Y-63150000D01*
G75*
G02*
X113100000Y-63050000I0J100000D01*
G01*
X113100000Y-62790000D01*
G75*
G02*
X113200000Y-62690000I100000J0D01*
G01*
X113400000Y-62690000D01*
G75*
G02*
X113500000Y-62790000I0J-100000D01*
G01*
X113500000Y-63050000D01*
G75*
G02*
X113400000Y-63150000I-100000J0D01*
G01*
G37*
G36*
G01*
X113400000Y-62510000D02*
X113200000Y-62510000D01*
G75*
G02*
X113100000Y-62410000I0J100000D01*
G01*
X113100000Y-62150000D01*
G75*
G02*
X113200000Y-62050000I100000J0D01*
G01*
X113400000Y-62050000D01*
G75*
G02*
X113500000Y-62150000I0J-100000D01*
G01*
X113500000Y-62410000D01*
G75*
G02*
X113400000Y-62510000I-100000J0D01*
G01*
G37*
G04 #@! TD*
G04 #@! TO.C,L19*
G36*
G01*
X139668750Y-70512500D02*
X140431250Y-70512500D01*
G75*
G02*
X140650000Y-70731250I0J-218750D01*
G01*
X140650000Y-71168750D01*
G75*
G02*
X140431250Y-71387500I-218750J0D01*
G01*
X139668750Y-71387500D01*
G75*
G02*
X139450000Y-71168750I0J218750D01*
G01*
X139450000Y-70731250D01*
G75*
G02*
X139668750Y-70512500I218750J0D01*
G01*
G37*
G36*
G01*
X139668750Y-72637500D02*
X140431250Y-72637500D01*
G75*
G02*
X140650000Y-72856250I0J-218750D01*
G01*
X140650000Y-73293750D01*
G75*
G02*
X140431250Y-73512500I-218750J0D01*
G01*
X139668750Y-73512500D01*
G75*
G02*
X139450000Y-73293750I0J218750D01*
G01*
X139450000Y-72856250D01*
G75*
G02*
X139668750Y-72637500I218750J0D01*
G01*
G37*
G04 #@! TD*
G04 #@! TO.C,C20*
G36*
G01*
X131799999Y-62585000D02*
X131599999Y-62585000D01*
G75*
G02*
X131499999Y-62485000I0J100000D01*
G01*
X131499999Y-62225000D01*
G75*
G02*
X131599999Y-62125000I100000J0D01*
G01*
X131799999Y-62125000D01*
G75*
G02*
X131899999Y-62225000I0J-100000D01*
G01*
X131899999Y-62485000D01*
G75*
G02*
X131799999Y-62585000I-100000J0D01*
G01*
G37*
G36*
G01*
X131799999Y-61945000D02*
X131599999Y-61945000D01*
G75*
G02*
X131499999Y-61845000I0J100000D01*
G01*
X131499999Y-61585000D01*
G75*
G02*
X131599999Y-61485000I100000J0D01*
G01*
X131799999Y-61485000D01*
G75*
G02*
X131899999Y-61585000I0J-100000D01*
G01*
X131899999Y-61845000D01*
G75*
G02*
X131799999Y-61945000I-100000J0D01*
G01*
G37*
G04 #@! TD*
G04 #@! TO.C,C22*
G36*
G01*
X116439273Y-66400000D02*
X116439273Y-66200000D01*
G75*
G02*
X116539273Y-66100000I100000J0D01*
G01*
X116799273Y-66100000D01*
G75*
G02*
X116899273Y-66200000I0J-100000D01*
G01*
X116899273Y-66400000D01*
G75*
G02*
X116799273Y-66500000I-100000J0D01*
G01*
X116539273Y-66500000D01*
G75*
G02*
X116439273Y-66400000I0J100000D01*
G01*
G37*
G36*
G01*
X117079273Y-66400000D02*
X117079273Y-66200000D01*
G75*
G02*
X117179273Y-66100000I100000J0D01*
G01*
X117439273Y-66100000D01*
G75*
G02*
X117539273Y-66200000I0J-100000D01*
G01*
X117539273Y-66400000D01*
G75*
G02*
X117439273Y-66500000I-100000J0D01*
G01*
X117179273Y-66500000D01*
G75*
G02*
X117079273Y-66400000I0J100000D01*
G01*
G37*
G04 #@! TD*
G04 #@! TO.C,C32*
G36*
G01*
X110870000Y-59060000D02*
X110530000Y-59060000D01*
G75*
G02*
X110390000Y-58920000I0J140000D01*
G01*
X110390000Y-58640000D01*
G75*
G02*
X110530000Y-58500000I140000J0D01*
G01*
X110870000Y-58500000D01*
G75*
G02*
X111010000Y-58640000I0J-140000D01*
G01*
X111010000Y-58920000D01*
G75*
G02*
X110870000Y-59060000I-140000J0D01*
G01*
G37*
G36*
G01*
X110870000Y-58100000D02*
X110530000Y-58100000D01*
G75*
G02*
X110390000Y-57960000I0J140000D01*
G01*
X110390000Y-57680000D01*
G75*
G02*
X110530000Y-57540000I140000J0D01*
G01*
X110870000Y-57540000D01*
G75*
G02*
X111010000Y-57680000I0J-140000D01*
G01*
X111010000Y-57960000D01*
G75*
G02*
X110870000Y-58100000I-140000J0D01*
G01*
G37*
G04 #@! TD*
G04 #@! TO.C,R23*
G36*
G01*
X128950000Y-75475000D02*
X129150000Y-75475000D01*
G75*
G02*
X129250000Y-75575000I0J-100000D01*
G01*
X129250000Y-75835000D01*
G75*
G02*
X129150000Y-75935000I-100000J0D01*
G01*
X128950000Y-75935000D01*
G75*
G02*
X128850000Y-75835000I0J100000D01*
G01*
X128850000Y-75575000D01*
G75*
G02*
X128950000Y-75475000I100000J0D01*
G01*
G37*
G36*
G01*
X128950000Y-76115000D02*
X129150000Y-76115000D01*
G75*
G02*
X129250000Y-76215000I0J-100000D01*
G01*
X129250000Y-76475000D01*
G75*
G02*
X129150000Y-76575000I-100000J0D01*
G01*
X128950000Y-76575000D01*
G75*
G02*
X128850000Y-76475000I0J100000D01*
G01*
X128850000Y-76215000D01*
G75*
G02*
X128950000Y-76115000I100000J0D01*
G01*
G37*
G04 #@! TD*
G04 #@! TO.C,C1*
G36*
G01*
X124570000Y-60980000D02*
X124230000Y-60980000D01*
G75*
G02*
X124090000Y-60840000I0J140000D01*
G01*
X124090000Y-60560000D01*
G75*
G02*
X124230000Y-60420000I140000J0D01*
G01*
X124570000Y-60420000D01*
G75*
G02*
X124710000Y-60560000I0J-140000D01*
G01*
X124710000Y-60840000D01*
G75*
G02*
X124570000Y-60980000I-140000J0D01*
G01*
G37*
G36*
G01*
X124570000Y-60020000D02*
X124230000Y-60020000D01*
G75*
G02*
X124090000Y-59880000I0J140000D01*
G01*
X124090000Y-59600000D01*
G75*
G02*
X124230000Y-59460000I140000J0D01*
G01*
X124570000Y-59460000D01*
G75*
G02*
X124710000Y-59600000I0J-140000D01*
G01*
X124710000Y-59880000D01*
G75*
G02*
X124570000Y-60020000I-140000J0D01*
G01*
G37*
G04 #@! TD*
G04 #@! TO.C,C4*
G36*
G01*
X120280000Y-72030000D02*
X120280000Y-72370000D01*
G75*
G02*
X120140000Y-72510000I-140000J0D01*
G01*
X119860000Y-72510000D01*
G75*
G02*
X119720000Y-72370000I0J140000D01*
G01*
X119720000Y-72030000D01*
G75*
G02*
X119860000Y-71890000I140000J0D01*
G01*
X120140000Y-71890000D01*
G75*
G02*
X120280000Y-72030000I0J-140000D01*
G01*
G37*
G36*
G01*
X119320000Y-72030000D02*
X119320000Y-72370000D01*
G75*
G02*
X119180000Y-72510000I-140000J0D01*
G01*
X118900000Y-72510000D01*
G75*
G02*
X118760000Y-72370000I0J140000D01*
G01*
X118760000Y-72030000D01*
G75*
G02*
X118900000Y-71890000I140000J0D01*
G01*
X119180000Y-71890000D01*
G75*
G02*
X119320000Y-72030000I0J-140000D01*
G01*
G37*
G04 #@! TD*
G04 #@! TO.C,C8*
G36*
G01*
X123600000Y-60950000D02*
X123400000Y-60950000D01*
G75*
G02*
X123300000Y-60850000I0J100000D01*
G01*
X123300000Y-60590000D01*
G75*
G02*
X123400000Y-60490000I100000J0D01*
G01*
X123600000Y-60490000D01*
G75*
G02*
X123700000Y-60590000I0J-100000D01*
G01*
X123700000Y-60850000D01*
G75*
G02*
X123600000Y-60950000I-100000J0D01*
G01*
G37*
G36*
G01*
X123600000Y-60310000D02*
X123400000Y-60310000D01*
G75*
G02*
X123300000Y-60210000I0J100000D01*
G01*
X123300000Y-59950000D01*
G75*
G02*
X123400000Y-59850000I100000J0D01*
G01*
X123600000Y-59850000D01*
G75*
G02*
X123700000Y-59950000I0J-100000D01*
G01*
X123700000Y-60210000D01*
G75*
G02*
X123600000Y-60310000I-100000J0D01*
G01*
G37*
G04 #@! TD*
G04 #@! TO.C,L20*
G36*
G01*
X117475000Y-58250000D02*
X117475000Y-58450000D01*
G75*
G02*
X117375000Y-58550000I-100000J0D01*
G01*
X117115000Y-58550000D01*
G75*
G02*
X117015000Y-58450000I0J100000D01*
G01*
X117015000Y-58250000D01*
G75*
G02*
X117115000Y-58150000I100000J0D01*
G01*
X117375000Y-58150000D01*
G75*
G02*
X117475000Y-58250000I0J-100000D01*
G01*
G37*
G36*
G01*
X116835000Y-58250000D02*
X116835000Y-58450000D01*
G75*
G02*
X116735000Y-58550000I-100000J0D01*
G01*
X116475000Y-58550000D01*
G75*
G02*
X116375000Y-58450000I0J100000D01*
G01*
X116375000Y-58250000D01*
G75*
G02*
X116475000Y-58150000I100000J0D01*
G01*
X116735000Y-58150000D01*
G75*
G02*
X116835000Y-58250000I0J-100000D01*
G01*
G37*
G04 #@! TD*
D30*
G04 #@! TO.C,U5*
X115675000Y-60225000D03*
X115675000Y-61875000D03*
X117225000Y-61875000D03*
X117225000Y-60225000D03*
G04 #@! TD*
G04 #@! TO.C,R16*
G36*
G01*
X114905000Y-74300000D02*
X114905000Y-74100000D01*
G75*
G02*
X115005000Y-74000000I100000J0D01*
G01*
X115265000Y-74000000D01*
G75*
G02*
X115365000Y-74100000I0J-100000D01*
G01*
X115365000Y-74300000D01*
G75*
G02*
X115265000Y-74400000I-100000J0D01*
G01*
X115005000Y-74400000D01*
G75*
G02*
X114905000Y-74300000I0J100000D01*
G01*
G37*
G36*
G01*
X115545000Y-74300000D02*
X115545000Y-74100000D01*
G75*
G02*
X115645000Y-74000000I100000J0D01*
G01*
X115905000Y-74000000D01*
G75*
G02*
X116005000Y-74100000I0J-100000D01*
G01*
X116005000Y-74300000D01*
G75*
G02*
X115905000Y-74400000I-100000J0D01*
G01*
X115645000Y-74400000D01*
G75*
G02*
X115545000Y-74300000I0J100000D01*
G01*
G37*
G04 #@! TD*
G04 #@! TO.C,R11*
G36*
G01*
X104185000Y-74980000D02*
X103815000Y-74980000D01*
G75*
G02*
X103680000Y-74845000I0J135000D01*
G01*
X103680000Y-74575000D01*
G75*
G02*
X103815000Y-74440000I135000J0D01*
G01*
X104185000Y-74440000D01*
G75*
G02*
X104320000Y-74575000I0J-135000D01*
G01*
X104320000Y-74845000D01*
G75*
G02*
X104185000Y-74980000I-135000J0D01*
G01*
G37*
G36*
G01*
X104185000Y-73960000D02*
X103815000Y-73960000D01*
G75*
G02*
X103680000Y-73825000I0J135000D01*
G01*
X103680000Y-73555000D01*
G75*
G02*
X103815000Y-73420000I135000J0D01*
G01*
X104185000Y-73420000D01*
G75*
G02*
X104320000Y-73555000I0J-135000D01*
G01*
X104320000Y-73825000D01*
G75*
G02*
X104185000Y-73960000I-135000J0D01*
G01*
G37*
G04 #@! TD*
D31*
G04 #@! TO.C,U9*
X134650000Y-73918500D03*
X135149999Y-73918500D03*
X135650000Y-73918500D03*
X136150000Y-73918500D03*
X136650001Y-73918500D03*
X137150000Y-73918500D03*
D32*
X137868500Y-73200000D03*
X137868500Y-72700001D03*
X137868500Y-72200000D03*
X137868500Y-71700000D03*
X137868500Y-71199999D03*
X137868500Y-70700000D03*
D31*
X137150000Y-69981500D03*
X136650001Y-69981500D03*
X136150000Y-69981500D03*
X135650000Y-69981500D03*
X135149999Y-69981500D03*
X134650000Y-69981500D03*
D32*
X133931500Y-70700000D03*
X133931500Y-71199999D03*
X133931500Y-71700000D03*
X133931500Y-72200000D03*
X133931500Y-72700001D03*
X133931500Y-73200000D03*
D33*
X135900000Y-71950000D03*
G04 #@! TD*
G04 #@! TO.C,L2*
G36*
G01*
X119518750Y-68500000D02*
X120281250Y-68500000D01*
G75*
G02*
X120500000Y-68718750I0J-218750D01*
G01*
X120500000Y-69156250D01*
G75*
G02*
X120281250Y-69375000I-218750J0D01*
G01*
X119518750Y-69375000D01*
G75*
G02*
X119300000Y-69156250I0J218750D01*
G01*
X119300000Y-68718750D01*
G75*
G02*
X119518750Y-68500000I218750J0D01*
G01*
G37*
G36*
G01*
X119518750Y-70625000D02*
X120281250Y-70625000D01*
G75*
G02*
X120500000Y-70843750I0J-218750D01*
G01*
X120500000Y-71281250D01*
G75*
G02*
X120281250Y-71500000I-218750J0D01*
G01*
X119518750Y-71500000D01*
G75*
G02*
X119300000Y-71281250I0J218750D01*
G01*
X119300000Y-70843750D01*
G75*
G02*
X119518750Y-70625000I218750J0D01*
G01*
G37*
G04 #@! TD*
G04 #@! TO.C,C14*
G36*
G01*
X129250000Y-71900000D02*
X129250000Y-72100000D01*
G75*
G02*
X129150000Y-72200000I-100000J0D01*
G01*
X128890000Y-72200000D01*
G75*
G02*
X128790000Y-72100000I0J100000D01*
G01*
X128790000Y-71900000D01*
G75*
G02*
X128890000Y-71800000I100000J0D01*
G01*
X129150000Y-71800000D01*
G75*
G02*
X129250000Y-71900000I0J-100000D01*
G01*
G37*
G36*
G01*
X128610000Y-71900000D02*
X128610000Y-72100000D01*
G75*
G02*
X128510000Y-72200000I-100000J0D01*
G01*
X128250000Y-72200000D01*
G75*
G02*
X128150000Y-72100000I0J100000D01*
G01*
X128150000Y-71900000D01*
G75*
G02*
X128250000Y-71800000I100000J0D01*
G01*
X128510000Y-71800000D01*
G75*
G02*
X128610000Y-71900000I0J-100000D01*
G01*
G37*
G04 #@! TD*
G04 #@! TO.C,L3*
G36*
G01*
X126600000Y-61570000D02*
X126800000Y-61570000D01*
G75*
G02*
X126900000Y-61670000I0J-100000D01*
G01*
X126900000Y-61930000D01*
G75*
G02*
X126800000Y-62030000I-100000J0D01*
G01*
X126600000Y-62030000D01*
G75*
G02*
X126500000Y-61930000I0J100000D01*
G01*
X126500000Y-61670000D01*
G75*
G02*
X126600000Y-61570000I100000J0D01*
G01*
G37*
G36*
G01*
X126600000Y-62210000D02*
X126800000Y-62210000D01*
G75*
G02*
X126900000Y-62310000I0J-100000D01*
G01*
X126900000Y-62570000D01*
G75*
G02*
X126800000Y-62670000I-100000J0D01*
G01*
X126600000Y-62670000D01*
G75*
G02*
X126500000Y-62570000I0J100000D01*
G01*
X126500000Y-62310000D01*
G75*
G02*
X126600000Y-62210000I100000J0D01*
G01*
G37*
G04 #@! TD*
G04 #@! TO.C,R9*
G36*
G01*
X105930000Y-68100000D02*
X105930000Y-67900000D01*
G75*
G02*
X106030000Y-67800000I100000J0D01*
G01*
X106290000Y-67800000D01*
G75*
G02*
X106390000Y-67900000I0J-100000D01*
G01*
X106390000Y-68100000D01*
G75*
G02*
X106290000Y-68200000I-100000J0D01*
G01*
X106030000Y-68200000D01*
G75*
G02*
X105930000Y-68100000I0J100000D01*
G01*
G37*
G36*
G01*
X106570000Y-68100000D02*
X106570000Y-67900000D01*
G75*
G02*
X106670000Y-67800000I100000J0D01*
G01*
X106930000Y-67800000D01*
G75*
G02*
X107030000Y-67900000I0J-100000D01*
G01*
X107030000Y-68100000D01*
G75*
G02*
X106930000Y-68200000I-100000J0D01*
G01*
X106670000Y-68200000D01*
G75*
G02*
X106570000Y-68100000I0J100000D01*
G01*
G37*
G04 #@! TD*
G04 #@! TO.C,D6*
G36*
G01*
X150372500Y-75767500D02*
X150027500Y-75767500D01*
G75*
G02*
X149880000Y-75620000I0J147500D01*
G01*
X149880000Y-75325000D01*
G75*
G02*
X150027500Y-75177500I147500J0D01*
G01*
X150372500Y-75177500D01*
G75*
G02*
X150520000Y-75325000I0J-147500D01*
G01*
X150520000Y-75620000D01*
G75*
G02*
X150372500Y-75767500I-147500J0D01*
G01*
G37*
G36*
G01*
X150372500Y-74797500D02*
X150027500Y-74797500D01*
G75*
G02*
X149880000Y-74650000I0J147500D01*
G01*
X149880000Y-74355000D01*
G75*
G02*
X150027500Y-74207500I147500J0D01*
G01*
X150372500Y-74207500D01*
G75*
G02*
X150520000Y-74355000I0J-147500D01*
G01*
X150520000Y-74650000D01*
G75*
G02*
X150372500Y-74797500I-147500J0D01*
G01*
G37*
G04 #@! TD*
G04 #@! TO.C,C34*
G36*
G01*
X106975000Y-61050000D02*
X106975000Y-60550000D01*
G75*
G02*
X107200000Y-60325000I225000J0D01*
G01*
X107650000Y-60325000D01*
G75*
G02*
X107875000Y-60550000I0J-225000D01*
G01*
X107875000Y-61050000D01*
G75*
G02*
X107650000Y-61275000I-225000J0D01*
G01*
X107200000Y-61275000D01*
G75*
G02*
X106975000Y-61050000I0J225000D01*
G01*
G37*
G36*
G01*
X108525000Y-61050000D02*
X108525000Y-60550000D01*
G75*
G02*
X108750000Y-60325000I225000J0D01*
G01*
X109200000Y-60325000D01*
G75*
G02*
X109425000Y-60550000I0J-225000D01*
G01*
X109425000Y-61050000D01*
G75*
G02*
X109200000Y-61275000I-225000J0D01*
G01*
X108750000Y-61275000D01*
G75*
G02*
X108525000Y-61050000I0J225000D01*
G01*
G37*
G04 #@! TD*
G04 #@! TO.C,C17*
G36*
G01*
X129750000Y-61600000D02*
X129750000Y-61800000D01*
G75*
G02*
X129650000Y-61900000I-100000J0D01*
G01*
X129390000Y-61900000D01*
G75*
G02*
X129290000Y-61800000I0J100000D01*
G01*
X129290000Y-61600000D01*
G75*
G02*
X129390000Y-61500000I100000J0D01*
G01*
X129650000Y-61500000D01*
G75*
G02*
X129750000Y-61600000I0J-100000D01*
G01*
G37*
G36*
G01*
X129110000Y-61600000D02*
X129110000Y-61800000D01*
G75*
G02*
X129010000Y-61900000I-100000J0D01*
G01*
X128750000Y-61900000D01*
G75*
G02*
X128650000Y-61800000I0J100000D01*
G01*
X128650000Y-61600000D01*
G75*
G02*
X128750000Y-61500000I100000J0D01*
G01*
X129010000Y-61500000D01*
G75*
G02*
X129110000Y-61600000I0J-100000D01*
G01*
G37*
G04 #@! TD*
G04 #@! TO.C,L8*
G36*
G01*
X138100000Y-62545000D02*
X137900000Y-62545000D01*
G75*
G02*
X137800000Y-62445000I0J100000D01*
G01*
X137800000Y-62185000D01*
G75*
G02*
X137900000Y-62085000I100000J0D01*
G01*
X138100000Y-62085000D01*
G75*
G02*
X138200000Y-62185000I0J-100000D01*
G01*
X138200000Y-62445000D01*
G75*
G02*
X138100000Y-62545000I-100000J0D01*
G01*
G37*
G36*
G01*
X138100000Y-61905000D02*
X137900000Y-61905000D01*
G75*
G02*
X137800000Y-61805000I0J100000D01*
G01*
X137800000Y-61545000D01*
G75*
G02*
X137900000Y-61445000I100000J0D01*
G01*
X138100000Y-61445000D01*
G75*
G02*
X138200000Y-61545000I0J-100000D01*
G01*
X138200000Y-61805000D01*
G75*
G02*
X138100000Y-61905000I-100000J0D01*
G01*
G37*
G04 #@! TD*
G04 #@! TO.C,C23*
G36*
G01*
X107030000Y-69700000D02*
X107030000Y-69900000D01*
G75*
G02*
X106930000Y-70000000I-100000J0D01*
G01*
X106670000Y-70000000D01*
G75*
G02*
X106570000Y-69900000I0J100000D01*
G01*
X106570000Y-69700000D01*
G75*
G02*
X106670000Y-69600000I100000J0D01*
G01*
X106930000Y-69600000D01*
G75*
G02*
X107030000Y-69700000I0J-100000D01*
G01*
G37*
G36*
G01*
X106390000Y-69700000D02*
X106390000Y-69900000D01*
G75*
G02*
X106290000Y-70000000I-100000J0D01*
G01*
X106030000Y-70000000D01*
G75*
G02*
X105930000Y-69900000I0J100000D01*
G01*
X105930000Y-69700000D01*
G75*
G02*
X106030000Y-69600000I100000J0D01*
G01*
X106290000Y-69600000D01*
G75*
G02*
X106390000Y-69700000I0J-100000D01*
G01*
G37*
G04 #@! TD*
G04 #@! TO.C,R2*
G36*
G01*
X123450000Y-67600000D02*
X123450000Y-67800000D01*
G75*
G02*
X123350000Y-67900000I-100000J0D01*
G01*
X123090000Y-67900000D01*
G75*
G02*
X122990000Y-67800000I0J100000D01*
G01*
X122990000Y-67600000D01*
G75*
G02*
X123090000Y-67500000I100000J0D01*
G01*
X123350000Y-67500000D01*
G75*
G02*
X123450000Y-67600000I0J-100000D01*
G01*
G37*
G36*
G01*
X122810000Y-67600000D02*
X122810000Y-67800000D01*
G75*
G02*
X122710000Y-67900000I-100000J0D01*
G01*
X122450000Y-67900000D01*
G75*
G02*
X122350000Y-67800000I0J100000D01*
G01*
X122350000Y-67600000D01*
G75*
G02*
X122450000Y-67500000I100000J0D01*
G01*
X122710000Y-67500000D01*
G75*
G02*
X122810000Y-67600000I0J-100000D01*
G01*
G37*
G04 #@! TD*
G04 #@! TO.C,C54*
G36*
G01*
X107030000Y-65500000D02*
X107030000Y-65700000D01*
G75*
G02*
X106930000Y-65800000I-100000J0D01*
G01*
X106670000Y-65800000D01*
G75*
G02*
X106570000Y-65700000I0J100000D01*
G01*
X106570000Y-65500000D01*
G75*
G02*
X106670000Y-65400000I100000J0D01*
G01*
X106930000Y-65400000D01*
G75*
G02*
X107030000Y-65500000I0J-100000D01*
G01*
G37*
G36*
G01*
X106390000Y-65500000D02*
X106390000Y-65700000D01*
G75*
G02*
X106290000Y-65800000I-100000J0D01*
G01*
X106030000Y-65800000D01*
G75*
G02*
X105930000Y-65700000I0J100000D01*
G01*
X105930000Y-65500000D01*
G75*
G02*
X106030000Y-65400000I100000J0D01*
G01*
X106290000Y-65400000D01*
G75*
G02*
X106390000Y-65500000I0J-100000D01*
G01*
G37*
G04 #@! TD*
G04 #@! TO.C,C31*
G36*
G01*
X146430000Y-60490000D02*
X146770000Y-60490000D01*
G75*
G02*
X146910000Y-60630000I0J-140000D01*
G01*
X146910000Y-60910000D01*
G75*
G02*
X146770000Y-61050000I-140000J0D01*
G01*
X146430000Y-61050000D01*
G75*
G02*
X146290000Y-60910000I0J140000D01*
G01*
X146290000Y-60630000D01*
G75*
G02*
X146430000Y-60490000I140000J0D01*
G01*
G37*
G36*
G01*
X146430000Y-61450000D02*
X146770000Y-61450000D01*
G75*
G02*
X146910000Y-61590000I0J-140000D01*
G01*
X146910000Y-61870000D01*
G75*
G02*
X146770000Y-62010000I-140000J0D01*
G01*
X146430000Y-62010000D01*
G75*
G02*
X146290000Y-61870000I0J140000D01*
G01*
X146290000Y-61590000D01*
G75*
G02*
X146430000Y-61450000I140000J0D01*
G01*
G37*
G04 #@! TD*
G04 #@! TO.C,C24*
G36*
G01*
X112899998Y-72350000D02*
X113099998Y-72350000D01*
G75*
G02*
X113199998Y-72450000I0J-100000D01*
G01*
X113199998Y-72710000D01*
G75*
G02*
X113099998Y-72810000I-100000J0D01*
G01*
X112899998Y-72810000D01*
G75*
G02*
X112799998Y-72710000I0J100000D01*
G01*
X112799998Y-72450000D01*
G75*
G02*
X112899998Y-72350000I100000J0D01*
G01*
G37*
G36*
G01*
X112899998Y-72990000D02*
X113099998Y-72990000D01*
G75*
G02*
X113199998Y-73090000I0J-100000D01*
G01*
X113199998Y-73350000D01*
G75*
G02*
X113099998Y-73450000I-100000J0D01*
G01*
X112899998Y-73450000D01*
G75*
G02*
X112799998Y-73350000I0J100000D01*
G01*
X112799998Y-73090000D01*
G75*
G02*
X112899998Y-72990000I100000J0D01*
G01*
G37*
G04 #@! TD*
G04 #@! TO.C,C9*
G36*
G01*
X123400000Y-69350000D02*
X123200000Y-69350000D01*
G75*
G02*
X123100000Y-69250000I0J100000D01*
G01*
X123100000Y-68990000D01*
G75*
G02*
X123200000Y-68890000I100000J0D01*
G01*
X123400000Y-68890000D01*
G75*
G02*
X123500000Y-68990000I0J-100000D01*
G01*
X123500000Y-69250000D01*
G75*
G02*
X123400000Y-69350000I-100000J0D01*
G01*
G37*
G36*
G01*
X123400000Y-68710000D02*
X123200000Y-68710000D01*
G75*
G02*
X123100000Y-68610000I0J100000D01*
G01*
X123100000Y-68350000D01*
G75*
G02*
X123200000Y-68250000I100000J0D01*
G01*
X123400000Y-68250000D01*
G75*
G02*
X123500000Y-68350000I0J-100000D01*
G01*
X123500000Y-68610000D01*
G75*
G02*
X123400000Y-68710000I-100000J0D01*
G01*
G37*
G04 #@! TD*
G04 #@! TO.C,R7*
G36*
G01*
X107030000Y-66900000D02*
X107030000Y-67100000D01*
G75*
G02*
X106930000Y-67200000I-100000J0D01*
G01*
X106670000Y-67200000D01*
G75*
G02*
X106570000Y-67100000I0J100000D01*
G01*
X106570000Y-66900000D01*
G75*
G02*
X106670000Y-66800000I100000J0D01*
G01*
X106930000Y-66800000D01*
G75*
G02*
X107030000Y-66900000I0J-100000D01*
G01*
G37*
G36*
G01*
X106390000Y-66900000D02*
X106390000Y-67100000D01*
G75*
G02*
X106290000Y-67200000I-100000J0D01*
G01*
X106030000Y-67200000D01*
G75*
G02*
X105930000Y-67100000I0J100000D01*
G01*
X105930000Y-66900000D01*
G75*
G02*
X106030000Y-66800000I100000J0D01*
G01*
X106290000Y-66800000D01*
G75*
G02*
X106390000Y-66900000I0J-100000D01*
G01*
G37*
G04 #@! TD*
G04 #@! TO.C,C60*
G36*
G01*
X131050000Y-71155000D02*
X131250000Y-71155000D01*
G75*
G02*
X131350000Y-71255000I0J-100000D01*
G01*
X131350000Y-71515000D01*
G75*
G02*
X131250000Y-71615000I-100000J0D01*
G01*
X131050000Y-71615000D01*
G75*
G02*
X130950000Y-71515000I0J100000D01*
G01*
X130950000Y-71255000D01*
G75*
G02*
X131050000Y-71155000I100000J0D01*
G01*
G37*
G36*
G01*
X131050000Y-71795000D02*
X131250000Y-71795000D01*
G75*
G02*
X131350000Y-71895000I0J-100000D01*
G01*
X131350000Y-72155000D01*
G75*
G02*
X131250000Y-72255000I-100000J0D01*
G01*
X131050000Y-72255000D01*
G75*
G02*
X130950000Y-72155000I0J100000D01*
G01*
X130950000Y-71895000D01*
G75*
G02*
X131050000Y-71795000I100000J0D01*
G01*
G37*
G04 #@! TD*
G04 #@! TO.C,U7*
G36*
G01*
X137190000Y-64062500D02*
X137190000Y-63937500D01*
G75*
G02*
X137252500Y-63875000I62500J0D01*
G01*
X137902500Y-63875000D01*
G75*
G02*
X137965000Y-63937500I0J-62500D01*
G01*
X137965000Y-64062500D01*
G75*
G02*
X137902500Y-64125000I-62500J0D01*
G01*
X137252500Y-64125000D01*
G75*
G02*
X137190000Y-64062500I0J62500D01*
G01*
G37*
G36*
G01*
X137190000Y-64562500D02*
X137190000Y-64437500D01*
G75*
G02*
X137252500Y-64375000I62500J0D01*
G01*
X137902500Y-64375000D01*
G75*
G02*
X137965000Y-64437500I0J-62500D01*
G01*
X137965000Y-64562500D01*
G75*
G02*
X137902500Y-64625000I-62500J0D01*
G01*
X137252500Y-64625000D01*
G75*
G02*
X137190000Y-64562500I0J62500D01*
G01*
G37*
G36*
G01*
X137190000Y-65062500D02*
X137190000Y-64937500D01*
G75*
G02*
X137252500Y-64875000I62500J0D01*
G01*
X137902500Y-64875000D01*
G75*
G02*
X137965000Y-64937500I0J-62500D01*
G01*
X137965000Y-65062500D01*
G75*
G02*
X137902500Y-65125000I-62500J0D01*
G01*
X137252500Y-65125000D01*
G75*
G02*
X137190000Y-65062500I0J62500D01*
G01*
G37*
G36*
G01*
X137190000Y-65562500D02*
X137190000Y-65437500D01*
G75*
G02*
X137252500Y-65375000I62500J0D01*
G01*
X137902500Y-65375000D01*
G75*
G02*
X137965000Y-65437500I0J-62500D01*
G01*
X137965000Y-65562500D01*
G75*
G02*
X137902500Y-65625000I-62500J0D01*
G01*
X137252500Y-65625000D01*
G75*
G02*
X137190000Y-65562500I0J62500D01*
G01*
G37*
G36*
G01*
X138165000Y-66537500D02*
X138165000Y-65887500D01*
G75*
G02*
X138227500Y-65825000I62500J0D01*
G01*
X138352500Y-65825000D01*
G75*
G02*
X138415000Y-65887500I0J-62500D01*
G01*
X138415000Y-66537500D01*
G75*
G02*
X138352500Y-66600000I-62500J0D01*
G01*
X138227500Y-66600000D01*
G75*
G02*
X138165000Y-66537500I0J62500D01*
G01*
G37*
G36*
G01*
X138665000Y-66537500D02*
X138665000Y-65887500D01*
G75*
G02*
X138727500Y-65825000I62500J0D01*
G01*
X138852500Y-65825000D01*
G75*
G02*
X138915000Y-65887500I0J-62500D01*
G01*
X138915000Y-66537500D01*
G75*
G02*
X138852500Y-66600000I-62500J0D01*
G01*
X138727500Y-66600000D01*
G75*
G02*
X138665000Y-66537500I0J62500D01*
G01*
G37*
G36*
G01*
X139165000Y-66537500D02*
X139165000Y-65887500D01*
G75*
G02*
X139227500Y-65825000I62500J0D01*
G01*
X139352500Y-65825000D01*
G75*
G02*
X139415000Y-65887500I0J-62500D01*
G01*
X139415000Y-66537500D01*
G75*
G02*
X139352500Y-66600000I-62500J0D01*
G01*
X139227500Y-66600000D01*
G75*
G02*
X139165000Y-66537500I0J62500D01*
G01*
G37*
G36*
G01*
X139665000Y-66537500D02*
X139665000Y-65887500D01*
G75*
G02*
X139727500Y-65825000I62500J0D01*
G01*
X139852500Y-65825000D01*
G75*
G02*
X139915000Y-65887500I0J-62500D01*
G01*
X139915000Y-66537500D01*
G75*
G02*
X139852500Y-66600000I-62500J0D01*
G01*
X139727500Y-66600000D01*
G75*
G02*
X139665000Y-66537500I0J62500D01*
G01*
G37*
G36*
G01*
X140115000Y-65562500D02*
X140115000Y-65437500D01*
G75*
G02*
X140177500Y-65375000I62500J0D01*
G01*
X140827500Y-65375000D01*
G75*
G02*
X140890000Y-65437500I0J-62500D01*
G01*
X140890000Y-65562500D01*
G75*
G02*
X140827500Y-65625000I-62500J0D01*
G01*
X140177500Y-65625000D01*
G75*
G02*
X140115000Y-65562500I0J62500D01*
G01*
G37*
G36*
G01*
X140115000Y-65062500D02*
X140115000Y-64937500D01*
G75*
G02*
X140177500Y-64875000I62500J0D01*
G01*
X140827500Y-64875000D01*
G75*
G02*
X140890000Y-64937500I0J-62500D01*
G01*
X140890000Y-65062500D01*
G75*
G02*
X140827500Y-65125000I-62500J0D01*
G01*
X140177500Y-65125000D01*
G75*
G02*
X140115000Y-65062500I0J62500D01*
G01*
G37*
G36*
G01*
X140115000Y-64562500D02*
X140115000Y-64437500D01*
G75*
G02*
X140177500Y-64375000I62500J0D01*
G01*
X140827500Y-64375000D01*
G75*
G02*
X140890000Y-64437500I0J-62500D01*
G01*
X140890000Y-64562500D01*
G75*
G02*
X140827500Y-64625000I-62500J0D01*
G01*
X140177500Y-64625000D01*
G75*
G02*
X140115000Y-64562500I0J62500D01*
G01*
G37*
G36*
G01*
X140115000Y-64062500D02*
X140115000Y-63937500D01*
G75*
G02*
X140177500Y-63875000I62500J0D01*
G01*
X140827500Y-63875000D01*
G75*
G02*
X140890000Y-63937500I0J-62500D01*
G01*
X140890000Y-64062500D01*
G75*
G02*
X140827500Y-64125000I-62500J0D01*
G01*
X140177500Y-64125000D01*
G75*
G02*
X140115000Y-64062500I0J62500D01*
G01*
G37*
G36*
G01*
X139665000Y-63612500D02*
X139665000Y-62962500D01*
G75*
G02*
X139727500Y-62900000I62500J0D01*
G01*
X139852500Y-62900000D01*
G75*
G02*
X139915000Y-62962500I0J-62500D01*
G01*
X139915000Y-63612500D01*
G75*
G02*
X139852500Y-63675000I-62500J0D01*
G01*
X139727500Y-63675000D01*
G75*
G02*
X139665000Y-63612500I0J62500D01*
G01*
G37*
G36*
G01*
X139165000Y-63612500D02*
X139165000Y-62962500D01*
G75*
G02*
X139227500Y-62900000I62500J0D01*
G01*
X139352500Y-62900000D01*
G75*
G02*
X139415000Y-62962500I0J-62500D01*
G01*
X139415000Y-63612500D01*
G75*
G02*
X139352500Y-63675000I-62500J0D01*
G01*
X139227500Y-63675000D01*
G75*
G02*
X139165000Y-63612500I0J62500D01*
G01*
G37*
G36*
G01*
X138665000Y-63612500D02*
X138665000Y-62962500D01*
G75*
G02*
X138727500Y-62900000I62500J0D01*
G01*
X138852500Y-62900000D01*
G75*
G02*
X138915000Y-62962500I0J-62500D01*
G01*
X138915000Y-63612500D01*
G75*
G02*
X138852500Y-63675000I-62500J0D01*
G01*
X138727500Y-63675000D01*
G75*
G02*
X138665000Y-63612500I0J62500D01*
G01*
G37*
G36*
G01*
X138165000Y-63612500D02*
X138165000Y-62962500D01*
G75*
G02*
X138227500Y-62900000I62500J0D01*
G01*
X138352500Y-62900000D01*
G75*
G02*
X138415000Y-62962500I0J-62500D01*
G01*
X138415000Y-63612500D01*
G75*
G02*
X138352500Y-63675000I-62500J0D01*
G01*
X138227500Y-63675000D01*
G75*
G02*
X138165000Y-63612500I0J62500D01*
G01*
G37*
D34*
X139040000Y-64750000D03*
G04 #@! TD*
G04 #@! TO.C,R20*
G36*
G01*
X134480000Y-75100000D02*
X134480000Y-75300000D01*
G75*
G02*
X134380000Y-75400000I-100000J0D01*
G01*
X134120000Y-75400000D01*
G75*
G02*
X134020000Y-75300000I0J100000D01*
G01*
X134020000Y-75100000D01*
G75*
G02*
X134120000Y-75000000I100000J0D01*
G01*
X134380000Y-75000000D01*
G75*
G02*
X134480000Y-75100000I0J-100000D01*
G01*
G37*
G36*
G01*
X133840000Y-75100000D02*
X133840000Y-75300000D01*
G75*
G02*
X133740000Y-75400000I-100000J0D01*
G01*
X133480000Y-75400000D01*
G75*
G02*
X133380000Y-75300000I0J100000D01*
G01*
X133380000Y-75100000D01*
G75*
G02*
X133480000Y-75000000I100000J0D01*
G01*
X133740000Y-75000000D01*
G75*
G02*
X133840000Y-75100000I0J-100000D01*
G01*
G37*
G04 #@! TD*
G04 #@! TO.C,L10*
G36*
G01*
X140255000Y-62400000D02*
X140255000Y-62200000D01*
G75*
G02*
X140355000Y-62100000I100000J0D01*
G01*
X140615000Y-62100000D01*
G75*
G02*
X140715000Y-62200000I0J-100000D01*
G01*
X140715000Y-62400000D01*
G75*
G02*
X140615000Y-62500000I-100000J0D01*
G01*
X140355000Y-62500000D01*
G75*
G02*
X140255000Y-62400000I0J100000D01*
G01*
G37*
G36*
G01*
X140895000Y-62400000D02*
X140895000Y-62200000D01*
G75*
G02*
X140995000Y-62100000I100000J0D01*
G01*
X141255000Y-62100000D01*
G75*
G02*
X141355000Y-62200000I0J-100000D01*
G01*
X141355000Y-62400000D01*
G75*
G02*
X141255000Y-62500000I-100000J0D01*
G01*
X140995000Y-62500000D01*
G75*
G02*
X140895000Y-62400000I0J100000D01*
G01*
G37*
G04 #@! TD*
G04 #@! TO.C,L14*
G36*
G01*
X141900000Y-63545000D02*
X142100000Y-63545000D01*
G75*
G02*
X142200000Y-63645000I0J-100000D01*
G01*
X142200000Y-63905000D01*
G75*
G02*
X142100000Y-64005000I-100000J0D01*
G01*
X141900000Y-64005000D01*
G75*
G02*
X141800000Y-63905000I0J100000D01*
G01*
X141800000Y-63645000D01*
G75*
G02*
X141900000Y-63545000I100000J0D01*
G01*
G37*
G36*
G01*
X141900000Y-64185000D02*
X142100000Y-64185000D01*
G75*
G02*
X142200000Y-64285000I0J-100000D01*
G01*
X142200000Y-64545000D01*
G75*
G02*
X142100000Y-64645000I-100000J0D01*
G01*
X141900000Y-64645000D01*
G75*
G02*
X141800000Y-64545000I0J100000D01*
G01*
X141800000Y-64285000D01*
G75*
G02*
X141900000Y-64185000I100000J0D01*
G01*
G37*
G04 #@! TD*
G04 #@! TO.C,R22*
G36*
G01*
X114850000Y-59430000D02*
X115050000Y-59430000D01*
G75*
G02*
X115150000Y-59530000I0J-100000D01*
G01*
X115150000Y-59790000D01*
G75*
G02*
X115050000Y-59890000I-100000J0D01*
G01*
X114850000Y-59890000D01*
G75*
G02*
X114750000Y-59790000I0J100000D01*
G01*
X114750000Y-59530000D01*
G75*
G02*
X114850000Y-59430000I100000J0D01*
G01*
G37*
G36*
G01*
X114850000Y-60070000D02*
X115050000Y-60070000D01*
G75*
G02*
X115150000Y-60170000I0J-100000D01*
G01*
X115150000Y-60430000D01*
G75*
G02*
X115050000Y-60530000I-100000J0D01*
G01*
X114850000Y-60530000D01*
G75*
G02*
X114750000Y-60430000I0J100000D01*
G01*
X114750000Y-60170000D01*
G75*
G02*
X114850000Y-60070000I100000J0D01*
G01*
G37*
G04 #@! TD*
G04 #@! TO.C,D5*
G36*
G01*
X148472500Y-67292500D02*
X148127500Y-67292500D01*
G75*
G02*
X147980000Y-67145000I0J147500D01*
G01*
X147980000Y-66850000D01*
G75*
G02*
X148127500Y-66702500I147500J0D01*
G01*
X148472500Y-66702500D01*
G75*
G02*
X148620000Y-66850000I0J-147500D01*
G01*
X148620000Y-67145000D01*
G75*
G02*
X148472500Y-67292500I-147500J0D01*
G01*
G37*
G36*
G01*
X148472500Y-66322500D02*
X148127500Y-66322500D01*
G75*
G02*
X147980000Y-66175000I0J147500D01*
G01*
X147980000Y-65880000D01*
G75*
G02*
X148127500Y-65732500I147500J0D01*
G01*
X148472500Y-65732500D01*
G75*
G02*
X148620000Y-65880000I0J-147500D01*
G01*
X148620000Y-66175000D01*
G75*
G02*
X148472500Y-66322500I-147500J0D01*
G01*
G37*
G04 #@! TD*
G04 #@! TO.C,L13*
G36*
G01*
X145750000Y-66150000D02*
X145750000Y-65950000D01*
G75*
G02*
X145850000Y-65850000I100000J0D01*
G01*
X146110000Y-65850000D01*
G75*
G02*
X146210000Y-65950000I0J-100000D01*
G01*
X146210000Y-66150000D01*
G75*
G02*
X146110000Y-66250000I-100000J0D01*
G01*
X145850000Y-66250000D01*
G75*
G02*
X145750000Y-66150000I0J100000D01*
G01*
G37*
G36*
G01*
X146390000Y-66150000D02*
X146390000Y-65950000D01*
G75*
G02*
X146490000Y-65850000I100000J0D01*
G01*
X146750000Y-65850000D01*
G75*
G02*
X146850000Y-65950000I0J-100000D01*
G01*
X146850000Y-66150000D01*
G75*
G02*
X146750000Y-66250000I-100000J0D01*
G01*
X146490000Y-66250000D01*
G75*
G02*
X146390000Y-66150000I0J100000D01*
G01*
G37*
G04 #@! TD*
G04 #@! TO.C,C58*
G36*
G01*
X116005000Y-76200000D02*
X116005000Y-76400000D01*
G75*
G02*
X115905000Y-76500000I-100000J0D01*
G01*
X115645000Y-76500000D01*
G75*
G02*
X115545000Y-76400000I0J100000D01*
G01*
X115545000Y-76200000D01*
G75*
G02*
X115645000Y-76100000I100000J0D01*
G01*
X115905000Y-76100000D01*
G75*
G02*
X116005000Y-76200000I0J-100000D01*
G01*
G37*
G36*
G01*
X115365000Y-76200000D02*
X115365000Y-76400000D01*
G75*
G02*
X115265000Y-76500000I-100000J0D01*
G01*
X115005000Y-76500000D01*
G75*
G02*
X114905000Y-76400000I0J100000D01*
G01*
X114905000Y-76200000D01*
G75*
G02*
X115005000Y-76100000I100000J0D01*
G01*
X115265000Y-76100000D01*
G75*
G02*
X115365000Y-76200000I0J-100000D01*
G01*
G37*
G04 #@! TD*
G04 #@! TO.C,L9*
G36*
G01*
X143405000Y-66150000D02*
X143405000Y-65950000D01*
G75*
G02*
X143505000Y-65850000I100000J0D01*
G01*
X143765000Y-65850000D01*
G75*
G02*
X143865000Y-65950000I0J-100000D01*
G01*
X143865000Y-66150000D01*
G75*
G02*
X143765000Y-66250000I-100000J0D01*
G01*
X143505000Y-66250000D01*
G75*
G02*
X143405000Y-66150000I0J100000D01*
G01*
G37*
G36*
G01*
X144045000Y-66150000D02*
X144045000Y-65950000D01*
G75*
G02*
X144145000Y-65850000I100000J0D01*
G01*
X144405000Y-65850000D01*
G75*
G02*
X144505000Y-65950000I0J-100000D01*
G01*
X144505000Y-66150000D01*
G75*
G02*
X144405000Y-66250000I-100000J0D01*
G01*
X144145000Y-66250000D01*
G75*
G02*
X144045000Y-66150000I0J100000D01*
G01*
G37*
G04 #@! TD*
G04 #@! TO.C,C15*
G36*
G01*
X129250000Y-63650000D02*
X129250000Y-63850000D01*
G75*
G02*
X129150000Y-63950000I-100000J0D01*
G01*
X128890000Y-63950000D01*
G75*
G02*
X128790000Y-63850000I0J100000D01*
G01*
X128790000Y-63650000D01*
G75*
G02*
X128890000Y-63550000I100000J0D01*
G01*
X129150000Y-63550000D01*
G75*
G02*
X129250000Y-63650000I0J-100000D01*
G01*
G37*
G36*
G01*
X128610000Y-63650000D02*
X128610000Y-63850000D01*
G75*
G02*
X128510000Y-63950000I-100000J0D01*
G01*
X128250000Y-63950000D01*
G75*
G02*
X128150000Y-63850000I0J100000D01*
G01*
X128150000Y-63650000D01*
G75*
G02*
X128250000Y-63550000I100000J0D01*
G01*
X128510000Y-63550000D01*
G75*
G02*
X128610000Y-63650000I0J-100000D01*
G01*
G37*
G04 #@! TD*
G04 #@! TO.C,L16*
G36*
G01*
X149177500Y-73235000D02*
X149522500Y-73235000D01*
G75*
G02*
X149670000Y-73382500I0J-147500D01*
G01*
X149670000Y-73677500D01*
G75*
G02*
X149522500Y-73825000I-147500J0D01*
G01*
X149177500Y-73825000D01*
G75*
G02*
X149030000Y-73677500I0J147500D01*
G01*
X149030000Y-73382500D01*
G75*
G02*
X149177500Y-73235000I147500J0D01*
G01*
G37*
G36*
G01*
X149177500Y-74205000D02*
X149522500Y-74205000D01*
G75*
G02*
X149670000Y-74352500I0J-147500D01*
G01*
X149670000Y-74647500D01*
G75*
G02*
X149522500Y-74795000I-147500J0D01*
G01*
X149177500Y-74795000D01*
G75*
G02*
X149030000Y-74647500I0J147500D01*
G01*
X149030000Y-74352500D01*
G75*
G02*
X149177500Y-74205000I147500J0D01*
G01*
G37*
G04 #@! TD*
G04 #@! TO.C,C59*
G36*
G01*
X116005000Y-74800000D02*
X116005000Y-75000000D01*
G75*
G02*
X115905000Y-75100000I-100000J0D01*
G01*
X115645000Y-75100000D01*
G75*
G02*
X115545000Y-75000000I0J100000D01*
G01*
X115545000Y-74800000D01*
G75*
G02*
X115645000Y-74700000I100000J0D01*
G01*
X115905000Y-74700000D01*
G75*
G02*
X116005000Y-74800000I0J-100000D01*
G01*
G37*
G36*
G01*
X115365000Y-74800000D02*
X115365000Y-75000000D01*
G75*
G02*
X115265000Y-75100000I-100000J0D01*
G01*
X115005000Y-75100000D01*
G75*
G02*
X114905000Y-75000000I0J100000D01*
G01*
X114905000Y-74800000D01*
G75*
G02*
X115005000Y-74700000I100000J0D01*
G01*
X115265000Y-74700000D01*
G75*
G02*
X115365000Y-74800000I0J-100000D01*
G01*
G37*
G04 #@! TD*
G04 #@! TO.C,R17*
G36*
G01*
X150620000Y-71665000D02*
X150620000Y-72035000D01*
G75*
G02*
X150485000Y-72170000I-135000J0D01*
G01*
X150215000Y-72170000D01*
G75*
G02*
X150080000Y-72035000I0J135000D01*
G01*
X150080000Y-71665000D01*
G75*
G02*
X150215000Y-71530000I135000J0D01*
G01*
X150485000Y-71530000D01*
G75*
G02*
X150620000Y-71665000I0J-135000D01*
G01*
G37*
G36*
G01*
X149600000Y-71665000D02*
X149600000Y-72035000D01*
G75*
G02*
X149465000Y-72170000I-135000J0D01*
G01*
X149195000Y-72170000D01*
G75*
G02*
X149060000Y-72035000I0J135000D01*
G01*
X149060000Y-71665000D01*
G75*
G02*
X149195000Y-71530000I135000J0D01*
G01*
X149465000Y-71530000D01*
G75*
G02*
X149600000Y-71665000I0J-135000D01*
G01*
G37*
G04 #@! TD*
G04 #@! TO.C,C27*
G36*
G01*
X116450000Y-68750000D02*
X116450000Y-68550000D01*
G75*
G02*
X116550000Y-68450000I100000J0D01*
G01*
X116810000Y-68450000D01*
G75*
G02*
X116910000Y-68550000I0J-100000D01*
G01*
X116910000Y-68750000D01*
G75*
G02*
X116810000Y-68850000I-100000J0D01*
G01*
X116550000Y-68850000D01*
G75*
G02*
X116450000Y-68750000I0J100000D01*
G01*
G37*
G36*
G01*
X117090000Y-68750000D02*
X117090000Y-68550000D01*
G75*
G02*
X117190000Y-68450000I100000J0D01*
G01*
X117450000Y-68450000D01*
G75*
G02*
X117550000Y-68550000I0J-100000D01*
G01*
X117550000Y-68750000D01*
G75*
G02*
X117450000Y-68850000I-100000J0D01*
G01*
X117190000Y-68850000D01*
G75*
G02*
X117090000Y-68750000I0J100000D01*
G01*
G37*
G04 #@! TD*
G04 #@! TO.C,C64*
G36*
G01*
X141130000Y-71670000D02*
X141470000Y-71670000D01*
G75*
G02*
X141610000Y-71810000I0J-140000D01*
G01*
X141610000Y-72090000D01*
G75*
G02*
X141470000Y-72230000I-140000J0D01*
G01*
X141130000Y-72230000D01*
G75*
G02*
X140990000Y-72090000I0J140000D01*
G01*
X140990000Y-71810000D01*
G75*
G02*
X141130000Y-71670000I140000J0D01*
G01*
G37*
G36*
G01*
X141130000Y-72630000D02*
X141470000Y-72630000D01*
G75*
G02*
X141610000Y-72770000I0J-140000D01*
G01*
X141610000Y-73050000D01*
G75*
G02*
X141470000Y-73190000I-140000J0D01*
G01*
X141130000Y-73190000D01*
G75*
G02*
X140990000Y-73050000I0J140000D01*
G01*
X140990000Y-72770000D01*
G75*
G02*
X141130000Y-72630000I140000J0D01*
G01*
G37*
G04 #@! TD*
G04 #@! TO.C,C10*
G36*
G01*
X126460000Y-60870000D02*
X126460000Y-60530000D01*
G75*
G02*
X126600000Y-60390000I140000J0D01*
G01*
X126880000Y-60390000D01*
G75*
G02*
X127020000Y-60530000I0J-140000D01*
G01*
X127020000Y-60870000D01*
G75*
G02*
X126880000Y-61010000I-140000J0D01*
G01*
X126600000Y-61010000D01*
G75*
G02*
X126460000Y-60870000I0J140000D01*
G01*
G37*
G36*
G01*
X127420000Y-60870000D02*
X127420000Y-60530000D01*
G75*
G02*
X127560000Y-60390000I140000J0D01*
G01*
X127840000Y-60390000D01*
G75*
G02*
X127980000Y-60530000I0J-140000D01*
G01*
X127980000Y-60870000D01*
G75*
G02*
X127840000Y-61010000I-140000J0D01*
G01*
X127560000Y-61010000D01*
G75*
G02*
X127420000Y-60870000I0J140000D01*
G01*
G37*
G04 #@! TD*
M02*
