G04 #@! TF.GenerationSoftware,KiCad,Pcbnew,(5.99.0-6542-g16b0689841)*
G04 #@! TF.CreationDate,2021-04-04T12:37:49-07:00*
G04 #@! TF.ProjectId,LoRa-GW-FeatherWing,4c6f5261-2d47-4572-9d46-656174686572,rev?*
G04 #@! TF.SameCoordinates,Original*
G04 #@! TF.FileFunction,Paste,Top*
G04 #@! TF.FilePolarity,Positive*
%FSLAX46Y46*%
G04 Gerber Fmt 4.6, Leading zero omitted, Abs format (unit mm)*
G04 Created by KiCad (PCBNEW (5.99.0-6542-g16b0689841)) date 2021-04-04 12:37:49*
%MOMM*%
%LPD*%
G01*
G04 APERTURE LIST*
%ADD10C,0.152400*%
%ADD11R,0.400000X0.300000*%
%ADD12R,0.300000X0.400000*%
%ADD13R,0.500000X0.500000*%
%ADD14C,0.230000*%
%ADD15R,0.180000X0.250000*%
%ADD16R,3.600000X1.270000*%
%ADD17R,4.200000X1.350000*%
%ADD18R,0.340000X0.700000*%
%ADD19R,0.736600X0.177800*%
%ADD20R,0.762000X0.177800*%
%ADD21R,0.177800X0.736600*%
%ADD22R,0.177800X0.762000*%
%ADD23R,0.600000X0.450000*%
%ADD24R,1.050000X1.000000*%
%ADD25R,2.200000X1.050000*%
%ADD26R,0.850000X0.650000*%
%ADD27R,0.254000X0.762000*%
%ADD28R,0.762000X0.254000*%
%ADD29R,2.641600X2.641600*%
G04 APERTURE END LIST*
D10*
G04 #@! TO.C,U10*
X126425029Y-67825001D02*
X126375029Y-67775001D01*
X126575028Y-67575001D02*
X126625028Y-67625001D01*
X127375029Y-67825001D02*
X127225030Y-67825001D01*
X126575028Y-67425001D02*
X126425029Y-67425001D01*
X127225030Y-67825001D02*
X127175030Y-67775001D01*
X127425029Y-67375002D02*
X127375029Y-67425001D01*
X126825028Y-67175002D02*
X126975028Y-67175002D01*
X127025028Y-67625001D02*
X127025028Y-67775001D01*
X127225030Y-67425001D02*
X127175030Y-67375002D01*
X126975028Y-67175002D02*
X127025028Y-67225002D01*
X126375029Y-67775001D02*
X126375029Y-67625001D01*
X126375029Y-67625001D02*
X126425029Y-67575001D01*
X126975028Y-67575001D02*
X127025028Y-67625001D01*
X126825028Y-67825001D02*
X126775028Y-67775001D01*
X126575028Y-67825001D02*
X126425029Y-67825001D01*
X127025028Y-67775001D02*
X126975028Y-67825001D01*
X126625028Y-67775001D02*
X126575028Y-67825001D01*
X126775028Y-67775001D02*
X126775028Y-67625001D01*
X127225030Y-67175002D02*
X127375029Y-67175002D01*
X126975028Y-67825001D02*
X126825028Y-67825001D01*
X126825028Y-67575001D02*
X126975028Y-67575001D01*
X127175030Y-67375002D02*
X127175030Y-67225002D01*
X126825028Y-67425001D02*
X126775028Y-67375002D01*
X126625028Y-67625001D02*
X126625028Y-67775001D01*
X127025028Y-67375002D02*
X126975028Y-67425001D01*
X127425029Y-67225002D02*
X127425029Y-67375002D01*
X127175030Y-67225002D02*
X127225030Y-67175002D01*
X127425029Y-67625001D02*
X127425029Y-67775001D01*
X127025028Y-67225002D02*
X127025028Y-67375002D01*
X126775028Y-67375002D02*
X126775028Y-67225002D01*
X126625028Y-67375002D02*
X126575028Y-67425001D01*
X126575028Y-67175002D02*
X126625028Y-67225002D01*
X126775028Y-67625001D02*
X126825028Y-67575001D01*
X126425029Y-67425001D02*
X126375029Y-67375002D01*
X126425029Y-67575001D02*
X126575028Y-67575001D01*
X127225030Y-67575001D02*
X127375029Y-67575001D01*
X127425029Y-67775001D02*
X127375029Y-67825001D01*
X126375029Y-67375002D02*
X126375029Y-67225002D01*
X126375029Y-67225002D02*
X126425029Y-67175002D01*
X126625028Y-67225002D02*
X126625028Y-67375002D01*
X127175030Y-67775001D02*
X127175030Y-67625001D01*
X127175030Y-67625001D02*
X127225030Y-67575001D01*
X126775028Y-67225002D02*
X126825028Y-67175002D01*
X127375029Y-67575001D02*
X127425029Y-67625001D01*
X126425029Y-67175002D02*
X126575028Y-67175002D01*
X126975028Y-67425001D02*
X126825028Y-67425001D01*
X127375029Y-67175002D02*
X127425029Y-67225002D01*
X127375029Y-67425001D02*
X127225030Y-67425001D01*
G04 #@! TO.C,U1*
X109093300Y-70306700D02*
X110296650Y-70306700D01*
X109093300Y-68903350D02*
X110296650Y-68903350D01*
X110296650Y-68903350D02*
X110296650Y-67700000D01*
X111900000Y-66096650D02*
X113103350Y-66096650D01*
X114506700Y-68903350D02*
X114506700Y-67700000D01*
X110496650Y-68903350D02*
X111700000Y-68903350D01*
X111700000Y-66096650D02*
X111700000Y-64893300D01*
X110296650Y-67500000D02*
X110296650Y-66296650D01*
X113303350Y-67700000D02*
X113303350Y-68903350D01*
X109093300Y-66096650D02*
X110296650Y-66096650D01*
X114506700Y-66296650D02*
X113303350Y-66296650D01*
X111900000Y-70306700D02*
X113103350Y-70306700D01*
X113303350Y-70306700D02*
X114506700Y-70306700D01*
X113103350Y-66296650D02*
X111900000Y-66296650D01*
X111700000Y-67700000D02*
X110496650Y-67700000D01*
X114506700Y-66096650D02*
X114506700Y-64893300D01*
X110496650Y-69103350D02*
X110496650Y-70306700D01*
X111900000Y-68903350D02*
X113103350Y-68903350D01*
X111900000Y-67500000D02*
X113103350Y-67500000D01*
X113303350Y-64893300D02*
X113303350Y-66096650D01*
X109093300Y-69103350D02*
X109093300Y-70306700D01*
X110496650Y-67700000D02*
X110496650Y-68903350D01*
X109093300Y-66296650D02*
X109093300Y-67500000D01*
X111700000Y-66296650D02*
X110496650Y-66296650D01*
X111900000Y-66296650D02*
X111900000Y-67500000D01*
X113103350Y-67700000D02*
X111900000Y-67700000D01*
X113303350Y-67500000D02*
X114506700Y-67500000D01*
X114506700Y-70306700D02*
X114506700Y-69103350D01*
X113103350Y-67500000D02*
X113103350Y-66296650D01*
X110296650Y-70306700D02*
X110296650Y-69103350D01*
X110496650Y-64893300D02*
X110496650Y-66096650D01*
X110496650Y-66296650D02*
X110496650Y-67500000D01*
X113303350Y-68903350D02*
X114506700Y-68903350D01*
X113303350Y-66096650D02*
X114506700Y-66096650D01*
X113103350Y-68903350D02*
X113103350Y-67700000D01*
X111900000Y-64893300D02*
X111900000Y-66096650D01*
X113303350Y-69103350D02*
X113303350Y-70306700D01*
X113103350Y-70306700D02*
X113103350Y-69103350D01*
X111700000Y-69103350D02*
X110496650Y-69103350D01*
X111900000Y-69103350D02*
X111900000Y-70306700D01*
X109093300Y-64893300D02*
X109093300Y-66096650D01*
X111700000Y-68903350D02*
X111700000Y-67700000D01*
X110496650Y-66096650D02*
X111700000Y-66096650D01*
X114506700Y-67700000D02*
X113303350Y-67700000D01*
X113103350Y-64893300D02*
X111900000Y-64893300D01*
X109093300Y-67700000D02*
X109093300Y-68903350D01*
X113103350Y-66096650D02*
X113103350Y-64893300D01*
X113103350Y-69103350D02*
X111900000Y-69103350D01*
X114506700Y-69103350D02*
X113303350Y-69103350D01*
X110296650Y-64893300D02*
X109093300Y-64893300D01*
X113303350Y-66296650D02*
X113303350Y-67500000D01*
X110296650Y-66296650D02*
X109093300Y-66296650D01*
X114506700Y-67500000D02*
X114506700Y-66296650D01*
X111700000Y-70306700D02*
X111700000Y-69103350D01*
X110496650Y-70306700D02*
X111700000Y-70306700D01*
X110496650Y-67500000D02*
X111700000Y-67500000D01*
X110296650Y-67700000D02*
X109093300Y-67700000D01*
X114506700Y-64893300D02*
X113303350Y-64893300D01*
X110296650Y-66096650D02*
X110296650Y-64893300D01*
X109093300Y-67500000D02*
X110296650Y-67500000D01*
X111700000Y-67500000D02*
X111700000Y-66296650D01*
X111900000Y-67700000D02*
X111900000Y-68903350D01*
X111700000Y-64893300D02*
X110496650Y-64893300D01*
X110296650Y-69103350D02*
X109093300Y-69103350D01*
G04 #@! TO.C,U9*
X137120800Y-71850000D02*
X137120800Y-70729200D01*
X134679200Y-72050000D02*
X134679200Y-73170800D01*
X135800000Y-70729200D02*
X134679200Y-70729200D01*
X134679200Y-71850000D02*
X135800000Y-71850000D01*
X135800000Y-73170800D02*
X135800000Y-72050000D01*
X136000000Y-70729200D02*
X136000000Y-71850000D01*
X134679200Y-73170800D02*
X135800000Y-73170800D01*
X135800000Y-71850000D02*
X135800000Y-70729200D01*
X135800000Y-72050000D02*
X134679200Y-72050000D01*
X137120800Y-70729200D02*
X136000000Y-70729200D01*
X136000000Y-72050000D02*
X136000000Y-73170800D01*
X137120800Y-73170800D02*
X137120800Y-72050000D01*
X137120800Y-72050000D02*
X136000000Y-72050000D01*
X136000000Y-71850000D02*
X137120800Y-71850000D01*
X134679200Y-70729200D02*
X134679200Y-71850000D01*
X136000000Y-73170800D02*
X137120800Y-73170800D01*
G04 #@! TD*
G04 #@! TO.C,C35*
G36*
G01*
X150575000Y-58525000D02*
X150575000Y-58025000D01*
G75*
G02*
X150800000Y-57800000I225000J0D01*
G01*
X151250000Y-57800000D01*
G75*
G02*
X151475000Y-58025000I0J-225000D01*
G01*
X151475000Y-58525000D01*
G75*
G02*
X151250000Y-58750000I-225000J0D01*
G01*
X150800000Y-58750000D01*
G75*
G02*
X150575000Y-58525000I0J225000D01*
G01*
G37*
G36*
G01*
X149025000Y-58525000D02*
X149025000Y-58025000D01*
G75*
G02*
X149250000Y-57800000I225000J0D01*
G01*
X149700000Y-57800000D01*
G75*
G02*
X149925000Y-58025000I0J-225000D01*
G01*
X149925000Y-58525000D01*
G75*
G02*
X149700000Y-58750000I-225000J0D01*
G01*
X149250000Y-58750000D01*
G75*
G02*
X149025000Y-58525000I0J225000D01*
G01*
G37*
G04 #@! TD*
G04 #@! TO.C,C33*
G36*
G01*
X150575000Y-57500000D02*
X150575000Y-57000000D01*
G75*
G02*
X150800000Y-56775000I225000J0D01*
G01*
X151250000Y-56775000D01*
G75*
G02*
X151475000Y-57000000I0J-225000D01*
G01*
X151475000Y-57500000D01*
G75*
G02*
X151250000Y-57725000I-225000J0D01*
G01*
X150800000Y-57725000D01*
G75*
G02*
X150575000Y-57500000I0J225000D01*
G01*
G37*
G36*
G01*
X149025000Y-57500000D02*
X149025000Y-57000000D01*
G75*
G02*
X149250000Y-56775000I225000J0D01*
G01*
X149700000Y-56775000D01*
G75*
G02*
X149925000Y-57000000I0J-225000D01*
G01*
X149925000Y-57500000D01*
G75*
G02*
X149700000Y-57725000I-225000J0D01*
G01*
X149250000Y-57725000D01*
G75*
G02*
X149025000Y-57500000I0J225000D01*
G01*
G37*
G04 #@! TD*
G04 #@! TO.C,C42*
G36*
G01*
X136840000Y-59610000D02*
X136840000Y-59270000D01*
G75*
G02*
X136980000Y-59130000I140000J0D01*
G01*
X137260000Y-59130000D01*
G75*
G02*
X137400000Y-59270000I0J-140000D01*
G01*
X137400000Y-59610000D01*
G75*
G02*
X137260000Y-59750000I-140000J0D01*
G01*
X136980000Y-59750000D01*
G75*
G02*
X136840000Y-59610000I0J140000D01*
G01*
G37*
G36*
G01*
X137800000Y-59610000D02*
X137800000Y-59270000D01*
G75*
G02*
X137940000Y-59130000I140000J0D01*
G01*
X138220000Y-59130000D01*
G75*
G02*
X138360000Y-59270000I0J-140000D01*
G01*
X138360000Y-59610000D01*
G75*
G02*
X138220000Y-59750000I-140000J0D01*
G01*
X137940000Y-59750000D01*
G75*
G02*
X137800000Y-59610000I0J140000D01*
G01*
G37*
G04 #@! TD*
G04 #@! TO.C,D1*
G36*
G01*
X104556250Y-77925000D02*
X104043750Y-77925000D01*
G75*
G02*
X103825000Y-77706250I0J218750D01*
G01*
X103825000Y-77268750D01*
G75*
G02*
X104043750Y-77050000I218750J0D01*
G01*
X104556250Y-77050000D01*
G75*
G02*
X104775000Y-77268750I0J-218750D01*
G01*
X104775000Y-77706250D01*
G75*
G02*
X104556250Y-77925000I-218750J0D01*
G01*
G37*
G36*
G01*
X104556250Y-76350000D02*
X104043750Y-76350000D01*
G75*
G02*
X103825000Y-76131250I0J218750D01*
G01*
X103825000Y-75693750D01*
G75*
G02*
X104043750Y-75475000I218750J0D01*
G01*
X104556250Y-75475000D01*
G75*
G02*
X104775000Y-75693750I0J-218750D01*
G01*
X104775000Y-76131250D01*
G75*
G02*
X104556250Y-76350000I-218750J0D01*
G01*
G37*
G04 #@! TD*
G04 #@! TO.C,C2*
G36*
G01*
X120310000Y-63730000D02*
X120310000Y-64070000D01*
G75*
G02*
X120170000Y-64210000I-140000J0D01*
G01*
X119890000Y-64210000D01*
G75*
G02*
X119750000Y-64070000I0J140000D01*
G01*
X119750000Y-63730000D01*
G75*
G02*
X119890000Y-63590000I140000J0D01*
G01*
X120170000Y-63590000D01*
G75*
G02*
X120310000Y-63730000I0J-140000D01*
G01*
G37*
G36*
G01*
X119350000Y-63730000D02*
X119350000Y-64070000D01*
G75*
G02*
X119210000Y-64210000I-140000J0D01*
G01*
X118930000Y-64210000D01*
G75*
G02*
X118790000Y-64070000I0J140000D01*
G01*
X118790000Y-63730000D01*
G75*
G02*
X118930000Y-63590000I140000J0D01*
G01*
X119210000Y-63590000D01*
G75*
G02*
X119350000Y-63730000I0J-140000D01*
G01*
G37*
G04 #@! TD*
G04 #@! TO.C,L5*
G36*
G01*
X127600500Y-64604000D02*
X127399500Y-64604000D01*
G75*
G02*
X127320000Y-64524500I0J79500D01*
G01*
X127320000Y-64365500D01*
G75*
G02*
X127399500Y-64286000I79500J0D01*
G01*
X127600500Y-64286000D01*
G75*
G02*
X127680000Y-64365500I0J-79500D01*
G01*
X127680000Y-64524500D01*
G75*
G02*
X127600500Y-64604000I-79500J0D01*
G01*
G37*
G36*
G01*
X127600500Y-63914000D02*
X127399500Y-63914000D01*
G75*
G02*
X127320000Y-63834500I0J79500D01*
G01*
X127320000Y-63675500D01*
G75*
G02*
X127399500Y-63596000I79500J0D01*
G01*
X127600500Y-63596000D01*
G75*
G02*
X127680000Y-63675500I0J-79500D01*
G01*
X127680000Y-63834500D01*
G75*
G02*
X127600500Y-63914000I-79500J0D01*
G01*
G37*
G04 #@! TD*
G04 #@! TO.C,L1*
G36*
G01*
X119518750Y-60200000D02*
X120281250Y-60200000D01*
G75*
G02*
X120500000Y-60418750I0J-218750D01*
G01*
X120500000Y-60856250D01*
G75*
G02*
X120281250Y-61075000I-218750J0D01*
G01*
X119518750Y-61075000D01*
G75*
G02*
X119300000Y-60856250I0J218750D01*
G01*
X119300000Y-60418750D01*
G75*
G02*
X119518750Y-60200000I218750J0D01*
G01*
G37*
G36*
G01*
X119518750Y-62325000D02*
X120281250Y-62325000D01*
G75*
G02*
X120500000Y-62543750I0J-218750D01*
G01*
X120500000Y-62981250D01*
G75*
G02*
X120281250Y-63200000I-218750J0D01*
G01*
X119518750Y-63200000D01*
G75*
G02*
X119300000Y-62981250I0J218750D01*
G01*
X119300000Y-62543750D01*
G75*
G02*
X119518750Y-62325000I218750J0D01*
G01*
G37*
G04 #@! TD*
D11*
G04 #@! TO.C,U8*
X148450000Y-75850000D03*
X148450000Y-75200000D03*
X148450000Y-74550000D03*
X148450000Y-73900000D03*
X148450000Y-73250000D03*
X148450000Y-72600000D03*
X148450000Y-71950000D03*
X148450000Y-71300000D03*
X148450000Y-70650000D03*
D12*
X147900000Y-70100000D03*
X147250000Y-70100000D03*
X146600000Y-70100000D03*
X145950000Y-70100000D03*
X145300000Y-70100000D03*
X144650000Y-70100000D03*
X144000000Y-70100000D03*
X143350000Y-70100000D03*
X142700000Y-70100000D03*
D11*
X142150000Y-70650000D03*
X142150000Y-71300000D03*
X142150000Y-71950000D03*
X142150000Y-72600000D03*
X142150000Y-73250000D03*
X142150000Y-73900000D03*
X142150000Y-74550000D03*
X142150000Y-75200000D03*
X142150000Y-75850000D03*
D12*
X142700000Y-76400000D03*
X143350000Y-76400000D03*
X144000000Y-76400000D03*
X144650000Y-76400000D03*
X145300000Y-76400000D03*
X145950000Y-76400000D03*
X146600000Y-76400000D03*
X147250000Y-76400000D03*
X147900000Y-76400000D03*
D13*
X146600000Y-74550000D03*
X145300000Y-74550000D03*
X146600000Y-73250000D03*
X145300000Y-73250000D03*
X146600000Y-71950000D03*
X145300000Y-71950000D03*
X144000000Y-71950000D03*
G04 #@! TD*
D14*
G04 #@! TO.C,U10*
X126500025Y-67700000D03*
X126500025Y-67300000D03*
X126900024Y-67700000D03*
X126900024Y-67300000D03*
X127300026Y-67700000D03*
X127300026Y-67300000D03*
G04 #@! TD*
G04 #@! TO.C,C16*
G36*
G01*
X128514000Y-71249500D02*
X128514000Y-71450500D01*
G75*
G02*
X128434500Y-71530000I-79500J0D01*
G01*
X128275500Y-71530000D01*
G75*
G02*
X128196000Y-71450500I0J79500D01*
G01*
X128196000Y-71249500D01*
G75*
G02*
X128275500Y-71170000I79500J0D01*
G01*
X128434500Y-71170000D01*
G75*
G02*
X128514000Y-71249500I0J-79500D01*
G01*
G37*
G36*
G01*
X129204000Y-71249500D02*
X129204000Y-71450500D01*
G75*
G02*
X129124500Y-71530000I-79500J0D01*
G01*
X128965500Y-71530000D01*
G75*
G02*
X128886000Y-71450500I0J79500D01*
G01*
X128886000Y-71249500D01*
G75*
G02*
X128965500Y-71170000I79500J0D01*
G01*
X129124500Y-71170000D01*
G75*
G02*
X129204000Y-71249500I0J-79500D01*
G01*
G37*
G04 #@! TD*
G04 #@! TO.C,R4*
G36*
G01*
X147785000Y-62030000D02*
X147415000Y-62030000D01*
G75*
G02*
X147280000Y-61895000I0J135000D01*
G01*
X147280000Y-61625000D01*
G75*
G02*
X147415000Y-61490000I135000J0D01*
G01*
X147785000Y-61490000D01*
G75*
G02*
X147920000Y-61625000I0J-135000D01*
G01*
X147920000Y-61895000D01*
G75*
G02*
X147785000Y-62030000I-135000J0D01*
G01*
G37*
G36*
G01*
X147785000Y-61010000D02*
X147415000Y-61010000D01*
G75*
G02*
X147280000Y-60875000I0J135000D01*
G01*
X147280000Y-60605000D01*
G75*
G02*
X147415000Y-60470000I135000J0D01*
G01*
X147785000Y-60470000D01*
G75*
G02*
X147920000Y-60605000I0J-135000D01*
G01*
X147920000Y-60875000D01*
G75*
G02*
X147785000Y-61010000I-135000J0D01*
G01*
G37*
G04 #@! TD*
G04 #@! TO.C,L15*
G36*
G01*
X134872554Y-61614682D02*
X135014682Y-61472554D01*
G75*
G02*
X135127112Y-61472554I56215J-56215D01*
G01*
X135239542Y-61584984D01*
G75*
G02*
X135239542Y-61697414I-56215J-56215D01*
G01*
X135097414Y-61839542D01*
G75*
G02*
X134984984Y-61839542I-56215J56215D01*
G01*
X134872554Y-61727112D01*
G75*
G02*
X134872554Y-61614682I56215J56215D01*
G01*
G37*
G36*
G01*
X135360458Y-62102586D02*
X135502586Y-61960458D01*
G75*
G02*
X135615016Y-61960458I56215J-56215D01*
G01*
X135727446Y-62072888D01*
G75*
G02*
X135727446Y-62185318I-56215J-56215D01*
G01*
X135585318Y-62327446D01*
G75*
G02*
X135472888Y-62327446I-56215J56215D01*
G01*
X135360458Y-62215016D01*
G75*
G02*
X135360458Y-62102586I56215J56215D01*
G01*
G37*
G04 #@! TD*
G04 #@! TO.C,C50*
G36*
G01*
X136085318Y-64878602D02*
X136227446Y-65020730D01*
G75*
G02*
X136227446Y-65133160I-56215J-56215D01*
G01*
X136115016Y-65245590D01*
G75*
G02*
X136002586Y-65245590I-56215J56215D01*
G01*
X135860458Y-65103462D01*
G75*
G02*
X135860458Y-64991032I56215J56215D01*
G01*
X135972888Y-64878602D01*
G75*
G02*
X136085318Y-64878602I56215J-56215D01*
G01*
G37*
G36*
G01*
X135597414Y-65366506D02*
X135739542Y-65508634D01*
G75*
G02*
X135739542Y-65621064I-56215J-56215D01*
G01*
X135627112Y-65733494D01*
G75*
G02*
X135514682Y-65733494I-56215J56215D01*
G01*
X135372554Y-65591366D01*
G75*
G02*
X135372554Y-65478936I56215J56215D01*
G01*
X135484984Y-65366506D01*
G75*
G02*
X135597414Y-65366506I56215J-56215D01*
G01*
G37*
G04 #@! TD*
G04 #@! TO.C,C53*
G36*
G01*
X113699500Y-72396000D02*
X113900500Y-72396000D01*
G75*
G02*
X113980000Y-72475500I0J-79500D01*
G01*
X113980000Y-72634500D01*
G75*
G02*
X113900500Y-72714000I-79500J0D01*
G01*
X113699500Y-72714000D01*
G75*
G02*
X113620000Y-72634500I0J79500D01*
G01*
X113620000Y-72475500D01*
G75*
G02*
X113699500Y-72396000I79500J0D01*
G01*
G37*
G36*
G01*
X113699500Y-73086000D02*
X113900500Y-73086000D01*
G75*
G02*
X113980000Y-73165500I0J-79500D01*
G01*
X113980000Y-73324500D01*
G75*
G02*
X113900500Y-73404000I-79500J0D01*
G01*
X113699500Y-73404000D01*
G75*
G02*
X113620000Y-73324500I0J79500D01*
G01*
X113620000Y-73165500D01*
G75*
G02*
X113699500Y-73086000I79500J0D01*
G01*
G37*
G04 #@! TD*
G04 #@! TO.C,R10*
G36*
G01*
X106294000Y-64349500D02*
X106294000Y-64550500D01*
G75*
G02*
X106214500Y-64630000I-79500J0D01*
G01*
X106055500Y-64630000D01*
G75*
G02*
X105976000Y-64550500I0J79500D01*
G01*
X105976000Y-64349500D01*
G75*
G02*
X106055500Y-64270000I79500J0D01*
G01*
X106214500Y-64270000D01*
G75*
G02*
X106294000Y-64349500I0J-79500D01*
G01*
G37*
G36*
G01*
X106984000Y-64349500D02*
X106984000Y-64550500D01*
G75*
G02*
X106904500Y-64630000I-79500J0D01*
G01*
X106745500Y-64630000D01*
G75*
G02*
X106666000Y-64550500I0J79500D01*
G01*
X106666000Y-64349500D01*
G75*
G02*
X106745500Y-64270000I79500J0D01*
G01*
X106904500Y-64270000D01*
G75*
G02*
X106984000Y-64349500I0J-79500D01*
G01*
G37*
G04 #@! TD*
G04 #@! TO.C,C28*
G36*
G01*
X111399500Y-73086000D02*
X111600500Y-73086000D01*
G75*
G02*
X111680000Y-73165500I0J-79500D01*
G01*
X111680000Y-73324500D01*
G75*
G02*
X111600500Y-73404000I-79500J0D01*
G01*
X111399500Y-73404000D01*
G75*
G02*
X111320000Y-73324500I0J79500D01*
G01*
X111320000Y-73165500D01*
G75*
G02*
X111399500Y-73086000I79500J0D01*
G01*
G37*
G36*
G01*
X111399500Y-72396000D02*
X111600500Y-72396000D01*
G75*
G02*
X111680000Y-72475500I0J-79500D01*
G01*
X111680000Y-72634500D01*
G75*
G02*
X111600500Y-72714000I-79500J0D01*
G01*
X111399500Y-72714000D01*
G75*
G02*
X111320000Y-72634500I0J79500D01*
G01*
X111320000Y-72475500D01*
G75*
G02*
X111399500Y-72396000I79500J0D01*
G01*
G37*
G04 #@! TD*
D15*
G04 #@! TO.C,FL2*
X134085000Y-65900000D03*
X133700000Y-65650000D03*
X133315000Y-65650000D03*
X133315000Y-66150000D03*
X133700000Y-66150000D03*
G04 #@! TD*
G04 #@! TO.C,C3*
G36*
G01*
X123860000Y-69255000D02*
X123860000Y-68915000D01*
G75*
G02*
X124000000Y-68775000I140000J0D01*
G01*
X124280000Y-68775000D01*
G75*
G02*
X124420000Y-68915000I0J-140000D01*
G01*
X124420000Y-69255000D01*
G75*
G02*
X124280000Y-69395000I-140000J0D01*
G01*
X124000000Y-69395000D01*
G75*
G02*
X123860000Y-69255000I0J140000D01*
G01*
G37*
G36*
G01*
X124820000Y-69255000D02*
X124820000Y-68915000D01*
G75*
G02*
X124960000Y-68775000I140000J0D01*
G01*
X125240000Y-68775000D01*
G75*
G02*
X125380000Y-68915000I0J-140000D01*
G01*
X125380000Y-69255000D01*
G75*
G02*
X125240000Y-69395000I-140000J0D01*
G01*
X124960000Y-69395000D01*
G75*
G02*
X124820000Y-69255000I0J140000D01*
G01*
G37*
G04 #@! TD*
G04 #@! TO.C,R12*
G36*
G01*
X105185000Y-74980000D02*
X104815000Y-74980000D01*
G75*
G02*
X104680000Y-74845000I0J135000D01*
G01*
X104680000Y-74575000D01*
G75*
G02*
X104815000Y-74440000I135000J0D01*
G01*
X105185000Y-74440000D01*
G75*
G02*
X105320000Y-74575000I0J-135000D01*
G01*
X105320000Y-74845000D01*
G75*
G02*
X105185000Y-74980000I-135000J0D01*
G01*
G37*
G36*
G01*
X105185000Y-73960000D02*
X104815000Y-73960000D01*
G75*
G02*
X104680000Y-73825000I0J135000D01*
G01*
X104680000Y-73555000D01*
G75*
G02*
X104815000Y-73420000I135000J0D01*
G01*
X105185000Y-73420000D01*
G75*
G02*
X105320000Y-73555000I0J-135000D01*
G01*
X105320000Y-73825000D01*
G75*
G02*
X105185000Y-73960000I-135000J0D01*
G01*
G37*
G04 #@! TD*
G04 #@! TO.C,R5*
G36*
G01*
X111615000Y-57520000D02*
X111985000Y-57520000D01*
G75*
G02*
X112120000Y-57655000I0J-135000D01*
G01*
X112120000Y-57925000D01*
G75*
G02*
X111985000Y-58060000I-135000J0D01*
G01*
X111615000Y-58060000D01*
G75*
G02*
X111480000Y-57925000I0J135000D01*
G01*
X111480000Y-57655000D01*
G75*
G02*
X111615000Y-57520000I135000J0D01*
G01*
G37*
G36*
G01*
X111615000Y-58540000D02*
X111985000Y-58540000D01*
G75*
G02*
X112120000Y-58675000I0J-135000D01*
G01*
X112120000Y-58945000D01*
G75*
G02*
X111985000Y-59080000I-135000J0D01*
G01*
X111615000Y-59080000D01*
G75*
G02*
X111480000Y-58945000I0J135000D01*
G01*
X111480000Y-58675000D01*
G75*
G02*
X111615000Y-58540000I135000J0D01*
G01*
G37*
G04 #@! TD*
G04 #@! TO.C,C30*
G36*
G01*
X106740000Y-56970000D02*
X106740000Y-56630000D01*
G75*
G02*
X106880000Y-56490000I140000J0D01*
G01*
X107160000Y-56490000D01*
G75*
G02*
X107300000Y-56630000I0J-140000D01*
G01*
X107300000Y-56970000D01*
G75*
G02*
X107160000Y-57110000I-140000J0D01*
G01*
X106880000Y-57110000D01*
G75*
G02*
X106740000Y-56970000I0J140000D01*
G01*
G37*
G36*
G01*
X107700000Y-56970000D02*
X107700000Y-56630000D01*
G75*
G02*
X107840000Y-56490000I140000J0D01*
G01*
X108120000Y-56490000D01*
G75*
G02*
X108260000Y-56630000I0J-140000D01*
G01*
X108260000Y-56970000D01*
G75*
G02*
X108120000Y-57110000I-140000J0D01*
G01*
X107840000Y-57110000D01*
G75*
G02*
X107700000Y-56970000I0J140000D01*
G01*
G37*
G04 #@! TD*
G04 #@! TO.C,C12*
G36*
G01*
X129704000Y-62299500D02*
X129704000Y-62500500D01*
G75*
G02*
X129624500Y-62580000I-79500J0D01*
G01*
X129465500Y-62580000D01*
G75*
G02*
X129386000Y-62500500I0J79500D01*
G01*
X129386000Y-62299500D01*
G75*
G02*
X129465500Y-62220000I79500J0D01*
G01*
X129624500Y-62220000D01*
G75*
G02*
X129704000Y-62299500I0J-79500D01*
G01*
G37*
G36*
G01*
X129014000Y-62299500D02*
X129014000Y-62500500D01*
G75*
G02*
X128934500Y-62580000I-79500J0D01*
G01*
X128775500Y-62580000D01*
G75*
G02*
X128696000Y-62500500I0J79500D01*
G01*
X128696000Y-62299500D01*
G75*
G02*
X128775500Y-62220000I79500J0D01*
G01*
X128934500Y-62220000D01*
G75*
G02*
X129014000Y-62299500I0J-79500D01*
G01*
G37*
G04 #@! TD*
G04 #@! TO.C,C39*
G36*
G01*
X143754000Y-65249500D02*
X143754000Y-65450500D01*
G75*
G02*
X143674500Y-65530000I-79500J0D01*
G01*
X143515500Y-65530000D01*
G75*
G02*
X143436000Y-65450500I0J79500D01*
G01*
X143436000Y-65249500D01*
G75*
G02*
X143515500Y-65170000I79500J0D01*
G01*
X143674500Y-65170000D01*
G75*
G02*
X143754000Y-65249500I0J-79500D01*
G01*
G37*
G36*
G01*
X144444000Y-65249500D02*
X144444000Y-65450500D01*
G75*
G02*
X144364500Y-65530000I-79500J0D01*
G01*
X144205500Y-65530000D01*
G75*
G02*
X144126000Y-65450500I0J79500D01*
G01*
X144126000Y-65249500D01*
G75*
G02*
X144205500Y-65170000I79500J0D01*
G01*
X144364500Y-65170000D01*
G75*
G02*
X144444000Y-65249500I0J-79500D01*
G01*
G37*
G04 #@! TD*
G04 #@! TO.C,C65*
G36*
G01*
X141470000Y-71380000D02*
X141130000Y-71380000D01*
G75*
G02*
X140990000Y-71240000I0J140000D01*
G01*
X140990000Y-70960000D01*
G75*
G02*
X141130000Y-70820000I140000J0D01*
G01*
X141470000Y-70820000D01*
G75*
G02*
X141610000Y-70960000I0J-140000D01*
G01*
X141610000Y-71240000D01*
G75*
G02*
X141470000Y-71380000I-140000J0D01*
G01*
G37*
G36*
G01*
X141470000Y-70420000D02*
X141130000Y-70420000D01*
G75*
G02*
X140990000Y-70280000I0J140000D01*
G01*
X140990000Y-70000000D01*
G75*
G02*
X141130000Y-69860000I140000J0D01*
G01*
X141470000Y-69860000D01*
G75*
G02*
X141610000Y-70000000I0J-140000D01*
G01*
X141610000Y-70280000D01*
G75*
G02*
X141470000Y-70420000I-140000J0D01*
G01*
G37*
G04 #@! TD*
G04 #@! TO.C,C40*
G36*
G01*
X137096000Y-60340500D02*
X137096000Y-60139500D01*
G75*
G02*
X137175500Y-60060000I79500J0D01*
G01*
X137334500Y-60060000D01*
G75*
G02*
X137414000Y-60139500I0J-79500D01*
G01*
X137414000Y-60340500D01*
G75*
G02*
X137334500Y-60420000I-79500J0D01*
G01*
X137175500Y-60420000D01*
G75*
G02*
X137096000Y-60340500I0J79500D01*
G01*
G37*
G36*
G01*
X137786000Y-60340500D02*
X137786000Y-60139500D01*
G75*
G02*
X137865500Y-60060000I79500J0D01*
G01*
X138024500Y-60060000D01*
G75*
G02*
X138104000Y-60139500I0J-79500D01*
G01*
X138104000Y-60340500D01*
G75*
G02*
X138024500Y-60420000I-79500J0D01*
G01*
X137865500Y-60420000D01*
G75*
G02*
X137786000Y-60340500I0J79500D01*
G01*
G37*
G04 #@! TD*
G04 #@! TO.C,C5*
G36*
G01*
X121470000Y-60940000D02*
X121130000Y-60940000D01*
G75*
G02*
X120990000Y-60800000I0J140000D01*
G01*
X120990000Y-60520000D01*
G75*
G02*
X121130000Y-60380000I140000J0D01*
G01*
X121470000Y-60380000D01*
G75*
G02*
X121610000Y-60520000I0J-140000D01*
G01*
X121610000Y-60800000D01*
G75*
G02*
X121470000Y-60940000I-140000J0D01*
G01*
G37*
G36*
G01*
X121470000Y-59980000D02*
X121130000Y-59980000D01*
G75*
G02*
X120990000Y-59840000I0J140000D01*
G01*
X120990000Y-59560000D01*
G75*
G02*
X121130000Y-59420000I140000J0D01*
G01*
X121470000Y-59420000D01*
G75*
G02*
X121610000Y-59560000I0J-140000D01*
G01*
X121610000Y-59840000D01*
G75*
G02*
X121470000Y-59980000I-140000J0D01*
G01*
G37*
G04 #@! TD*
G04 #@! TO.C,C46*
G36*
G01*
X139959000Y-60849500D02*
X139959000Y-61050500D01*
G75*
G02*
X139879500Y-61130000I-79500J0D01*
G01*
X139720500Y-61130000D01*
G75*
G02*
X139641000Y-61050500I0J79500D01*
G01*
X139641000Y-60849500D01*
G75*
G02*
X139720500Y-60770000I79500J0D01*
G01*
X139879500Y-60770000D01*
G75*
G02*
X139959000Y-60849500I0J-79500D01*
G01*
G37*
G36*
G01*
X140649000Y-60849500D02*
X140649000Y-61050500D01*
G75*
G02*
X140569500Y-61130000I-79500J0D01*
G01*
X140410500Y-61130000D01*
G75*
G02*
X140331000Y-61050500I0J79500D01*
G01*
X140331000Y-60849500D01*
G75*
G02*
X140410500Y-60770000I79500J0D01*
G01*
X140569500Y-60770000D01*
G75*
G02*
X140649000Y-60849500I0J-79500D01*
G01*
G37*
G04 #@! TD*
D16*
G04 #@! TO.C,J1*
X151400000Y-66000000D03*
D17*
X151200000Y-68825000D03*
X151200000Y-63175000D03*
G04 #@! TD*
G04 #@! TO.C,L4*
G36*
G01*
X127986000Y-61800500D02*
X127986000Y-61599500D01*
G75*
G02*
X128065500Y-61520000I79500J0D01*
G01*
X128224500Y-61520000D01*
G75*
G02*
X128304000Y-61599500I0J-79500D01*
G01*
X128304000Y-61800500D01*
G75*
G02*
X128224500Y-61880000I-79500J0D01*
G01*
X128065500Y-61880000D01*
G75*
G02*
X127986000Y-61800500I0J79500D01*
G01*
G37*
G36*
G01*
X127296000Y-61800500D02*
X127296000Y-61599500D01*
G75*
G02*
X127375500Y-61520000I79500J0D01*
G01*
X127534500Y-61520000D01*
G75*
G02*
X127614000Y-61599500I0J-79500D01*
G01*
X127614000Y-61800500D01*
G75*
G02*
X127534500Y-61880000I-79500J0D01*
G01*
X127375500Y-61880000D01*
G75*
G02*
X127296000Y-61800500I0J79500D01*
G01*
G37*
G04 #@! TD*
G04 #@! TO.C,C55*
G36*
G01*
X106294000Y-68999500D02*
X106294000Y-69200500D01*
G75*
G02*
X106214500Y-69280000I-79500J0D01*
G01*
X106055500Y-69280000D01*
G75*
G02*
X105976000Y-69200500I0J79500D01*
G01*
X105976000Y-68999500D01*
G75*
G02*
X106055500Y-68920000I79500J0D01*
G01*
X106214500Y-68920000D01*
G75*
G02*
X106294000Y-68999500I0J-79500D01*
G01*
G37*
G36*
G01*
X106984000Y-68999500D02*
X106984000Y-69200500D01*
G75*
G02*
X106904500Y-69280000I-79500J0D01*
G01*
X106745500Y-69280000D01*
G75*
G02*
X106666000Y-69200500I0J79500D01*
G01*
X106666000Y-68999500D01*
G75*
G02*
X106745500Y-68920000I79500J0D01*
G01*
X106904500Y-68920000D01*
G75*
G02*
X106984000Y-68999500I0J-79500D01*
G01*
G37*
G04 #@! TD*
G04 #@! TO.C,R18*
G36*
G01*
X126086000Y-69400500D02*
X126086000Y-69199500D01*
G75*
G02*
X126165500Y-69120000I79500J0D01*
G01*
X126324500Y-69120000D01*
G75*
G02*
X126404000Y-69199500I0J-79500D01*
G01*
X126404000Y-69400500D01*
G75*
G02*
X126324500Y-69480000I-79500J0D01*
G01*
X126165500Y-69480000D01*
G75*
G02*
X126086000Y-69400500I0J79500D01*
G01*
G37*
G36*
G01*
X126776000Y-69400500D02*
X126776000Y-69199500D01*
G75*
G02*
X126855500Y-69120000I79500J0D01*
G01*
X127014500Y-69120000D01*
G75*
G02*
X127094000Y-69199500I0J-79500D01*
G01*
X127094000Y-69400500D01*
G75*
G02*
X127014500Y-69480000I-79500J0D01*
G01*
X126855500Y-69480000D01*
G75*
G02*
X126776000Y-69400500I0J79500D01*
G01*
G37*
G04 #@! TD*
D18*
G04 #@! TO.C,U6*
X108400000Y-57950000D03*
X107900000Y-57950000D03*
X107400000Y-57950000D03*
X107400000Y-59450000D03*
X107900000Y-59450000D03*
X108400000Y-59450000D03*
G04 #@! TD*
G04 #@! TO.C,R8*
G36*
G01*
X105976000Y-63850500D02*
X105976000Y-63649500D01*
G75*
G02*
X106055500Y-63570000I79500J0D01*
G01*
X106214500Y-63570000D01*
G75*
G02*
X106294000Y-63649500I0J-79500D01*
G01*
X106294000Y-63850500D01*
G75*
G02*
X106214500Y-63930000I-79500J0D01*
G01*
X106055500Y-63930000D01*
G75*
G02*
X105976000Y-63850500I0J79500D01*
G01*
G37*
G36*
G01*
X106666000Y-63850500D02*
X106666000Y-63649500D01*
G75*
G02*
X106745500Y-63570000I79500J0D01*
G01*
X106904500Y-63570000D01*
G75*
G02*
X106984000Y-63649500I0J-79500D01*
G01*
X106984000Y-63850500D01*
G75*
G02*
X106904500Y-63930000I-79500J0D01*
G01*
X106745500Y-63930000D01*
G75*
G02*
X106666000Y-63850500I0J79500D01*
G01*
G37*
G04 #@! TD*
G04 #@! TO.C,U3*
G36*
G01*
X123770000Y-71055000D02*
X124280000Y-71055000D01*
G75*
G02*
X124530000Y-71305000I0J-250000D01*
G01*
X124530000Y-71815000D01*
G75*
G02*
X124280000Y-72065000I-250000J0D01*
G01*
X123770000Y-72065000D01*
G75*
G02*
X123520000Y-71815000I0J250000D01*
G01*
X123520000Y-71305000D01*
G75*
G02*
X123770000Y-71055000I250000J0D01*
G01*
G37*
G36*
G01*
X123770000Y-72305000D02*
X124280000Y-72305000D01*
G75*
G02*
X124530000Y-72555000I0J-250000D01*
G01*
X124530000Y-73065000D01*
G75*
G02*
X124280000Y-73315000I-250000J0D01*
G01*
X123770000Y-73315000D01*
G75*
G02*
X123520000Y-73065000I0J250000D01*
G01*
X123520000Y-72555000D01*
G75*
G02*
X123770000Y-72305000I250000J0D01*
G01*
G37*
G36*
G01*
X122520000Y-72305000D02*
X123030000Y-72305000D01*
G75*
G02*
X123280000Y-72555000I0J-250000D01*
G01*
X123280000Y-73065000D01*
G75*
G02*
X123030000Y-73315000I-250000J0D01*
G01*
X122520000Y-73315000D01*
G75*
G02*
X122270000Y-73065000I0J250000D01*
G01*
X122270000Y-72555000D01*
G75*
G02*
X122520000Y-72305000I250000J0D01*
G01*
G37*
G36*
G01*
X122520000Y-71055000D02*
X123030000Y-71055000D01*
G75*
G02*
X123280000Y-71305000I0J-250000D01*
G01*
X123280000Y-71815000D01*
G75*
G02*
X123030000Y-72065000I-250000J0D01*
G01*
X122520000Y-72065000D01*
G75*
G02*
X122270000Y-71815000I0J250000D01*
G01*
X122270000Y-71305000D01*
G75*
G02*
X122520000Y-71055000I250000J0D01*
G01*
G37*
G36*
G01*
X124587500Y-69810000D02*
X124712500Y-69810000D01*
G75*
G02*
X124775000Y-69872500I0J-62500D01*
G01*
X124775000Y-70622500D01*
G75*
G02*
X124712500Y-70685000I-62500J0D01*
G01*
X124587500Y-70685000D01*
G75*
G02*
X124525000Y-70622500I0J62500D01*
G01*
X124525000Y-69872500D01*
G75*
G02*
X124587500Y-69810000I62500J0D01*
G01*
G37*
G36*
G01*
X124087500Y-69810000D02*
X124212500Y-69810000D01*
G75*
G02*
X124275000Y-69872500I0J-62500D01*
G01*
X124275000Y-70622500D01*
G75*
G02*
X124212500Y-70685000I-62500J0D01*
G01*
X124087500Y-70685000D01*
G75*
G02*
X124025000Y-70622500I0J62500D01*
G01*
X124025000Y-69872500D01*
G75*
G02*
X124087500Y-69810000I62500J0D01*
G01*
G37*
G36*
G01*
X123587500Y-69810000D02*
X123712500Y-69810000D01*
G75*
G02*
X123775000Y-69872500I0J-62500D01*
G01*
X123775000Y-70622500D01*
G75*
G02*
X123712500Y-70685000I-62500J0D01*
G01*
X123587500Y-70685000D01*
G75*
G02*
X123525000Y-70622500I0J62500D01*
G01*
X123525000Y-69872500D01*
G75*
G02*
X123587500Y-69810000I62500J0D01*
G01*
G37*
G36*
G01*
X123087500Y-69810000D02*
X123212500Y-69810000D01*
G75*
G02*
X123275000Y-69872500I0J-62500D01*
G01*
X123275000Y-70622500D01*
G75*
G02*
X123212500Y-70685000I-62500J0D01*
G01*
X123087500Y-70685000D01*
G75*
G02*
X123025000Y-70622500I0J62500D01*
G01*
X123025000Y-69872500D01*
G75*
G02*
X123087500Y-69810000I62500J0D01*
G01*
G37*
G36*
G01*
X122587500Y-69810000D02*
X122712500Y-69810000D01*
G75*
G02*
X122775000Y-69872500I0J-62500D01*
G01*
X122775000Y-70622500D01*
G75*
G02*
X122712500Y-70685000I-62500J0D01*
G01*
X122587500Y-70685000D01*
G75*
G02*
X122525000Y-70622500I0J62500D01*
G01*
X122525000Y-69872500D01*
G75*
G02*
X122587500Y-69810000I62500J0D01*
G01*
G37*
G36*
G01*
X122087500Y-69810000D02*
X122212500Y-69810000D01*
G75*
G02*
X122275000Y-69872500I0J-62500D01*
G01*
X122275000Y-70622500D01*
G75*
G02*
X122212500Y-70685000I-62500J0D01*
G01*
X122087500Y-70685000D01*
G75*
G02*
X122025000Y-70622500I0J62500D01*
G01*
X122025000Y-69872500D01*
G75*
G02*
X122087500Y-69810000I62500J0D01*
G01*
G37*
G36*
G01*
X121087500Y-70810000D02*
X121837500Y-70810000D01*
G75*
G02*
X121900000Y-70872500I0J-62500D01*
G01*
X121900000Y-70997500D01*
G75*
G02*
X121837500Y-71060000I-62500J0D01*
G01*
X121087500Y-71060000D01*
G75*
G02*
X121025000Y-70997500I0J62500D01*
G01*
X121025000Y-70872500D01*
G75*
G02*
X121087500Y-70810000I62500J0D01*
G01*
G37*
G36*
G01*
X121087500Y-71310000D02*
X121837500Y-71310000D01*
G75*
G02*
X121900000Y-71372500I0J-62500D01*
G01*
X121900000Y-71497500D01*
G75*
G02*
X121837500Y-71560000I-62500J0D01*
G01*
X121087500Y-71560000D01*
G75*
G02*
X121025000Y-71497500I0J62500D01*
G01*
X121025000Y-71372500D01*
G75*
G02*
X121087500Y-71310000I62500J0D01*
G01*
G37*
G36*
G01*
X121087500Y-71810000D02*
X121837500Y-71810000D01*
G75*
G02*
X121900000Y-71872500I0J-62500D01*
G01*
X121900000Y-71997500D01*
G75*
G02*
X121837500Y-72060000I-62500J0D01*
G01*
X121087500Y-72060000D01*
G75*
G02*
X121025000Y-71997500I0J62500D01*
G01*
X121025000Y-71872500D01*
G75*
G02*
X121087500Y-71810000I62500J0D01*
G01*
G37*
G36*
G01*
X121087500Y-72310000D02*
X121837500Y-72310000D01*
G75*
G02*
X121900000Y-72372500I0J-62500D01*
G01*
X121900000Y-72497500D01*
G75*
G02*
X121837500Y-72560000I-62500J0D01*
G01*
X121087500Y-72560000D01*
G75*
G02*
X121025000Y-72497500I0J62500D01*
G01*
X121025000Y-72372500D01*
G75*
G02*
X121087500Y-72310000I62500J0D01*
G01*
G37*
G36*
G01*
X121087500Y-72810000D02*
X121837500Y-72810000D01*
G75*
G02*
X121900000Y-72872500I0J-62500D01*
G01*
X121900000Y-72997500D01*
G75*
G02*
X121837500Y-73060000I-62500J0D01*
G01*
X121087500Y-73060000D01*
G75*
G02*
X121025000Y-72997500I0J62500D01*
G01*
X121025000Y-72872500D01*
G75*
G02*
X121087500Y-72810000I62500J0D01*
G01*
G37*
G36*
G01*
X121087500Y-73310000D02*
X121837500Y-73310000D01*
G75*
G02*
X121900000Y-73372500I0J-62500D01*
G01*
X121900000Y-73497500D01*
G75*
G02*
X121837500Y-73560000I-62500J0D01*
G01*
X121087500Y-73560000D01*
G75*
G02*
X121025000Y-73497500I0J62500D01*
G01*
X121025000Y-73372500D01*
G75*
G02*
X121087500Y-73310000I62500J0D01*
G01*
G37*
G36*
G01*
X122087500Y-73685000D02*
X122212500Y-73685000D01*
G75*
G02*
X122275000Y-73747500I0J-62500D01*
G01*
X122275000Y-74497500D01*
G75*
G02*
X122212500Y-74560000I-62500J0D01*
G01*
X122087500Y-74560000D01*
G75*
G02*
X122025000Y-74497500I0J62500D01*
G01*
X122025000Y-73747500D01*
G75*
G02*
X122087500Y-73685000I62500J0D01*
G01*
G37*
G36*
G01*
X122587500Y-73685000D02*
X122712500Y-73685000D01*
G75*
G02*
X122775000Y-73747500I0J-62500D01*
G01*
X122775000Y-74497500D01*
G75*
G02*
X122712500Y-74560000I-62500J0D01*
G01*
X122587500Y-74560000D01*
G75*
G02*
X122525000Y-74497500I0J62500D01*
G01*
X122525000Y-73747500D01*
G75*
G02*
X122587500Y-73685000I62500J0D01*
G01*
G37*
G36*
G01*
X123087500Y-73685000D02*
X123212500Y-73685000D01*
G75*
G02*
X123275000Y-73747500I0J-62500D01*
G01*
X123275000Y-74497500D01*
G75*
G02*
X123212500Y-74560000I-62500J0D01*
G01*
X123087500Y-74560000D01*
G75*
G02*
X123025000Y-74497500I0J62500D01*
G01*
X123025000Y-73747500D01*
G75*
G02*
X123087500Y-73685000I62500J0D01*
G01*
G37*
G36*
G01*
X123587500Y-73685000D02*
X123712500Y-73685000D01*
G75*
G02*
X123775000Y-73747500I0J-62500D01*
G01*
X123775000Y-74497500D01*
G75*
G02*
X123712500Y-74560000I-62500J0D01*
G01*
X123587500Y-74560000D01*
G75*
G02*
X123525000Y-74497500I0J62500D01*
G01*
X123525000Y-73747500D01*
G75*
G02*
X123587500Y-73685000I62500J0D01*
G01*
G37*
G36*
G01*
X124087500Y-73685000D02*
X124212500Y-73685000D01*
G75*
G02*
X124275000Y-73747500I0J-62500D01*
G01*
X124275000Y-74497500D01*
G75*
G02*
X124212500Y-74560000I-62500J0D01*
G01*
X124087500Y-74560000D01*
G75*
G02*
X124025000Y-74497500I0J62500D01*
G01*
X124025000Y-73747500D01*
G75*
G02*
X124087500Y-73685000I62500J0D01*
G01*
G37*
G36*
G01*
X124587500Y-73685000D02*
X124712500Y-73685000D01*
G75*
G02*
X124775000Y-73747500I0J-62500D01*
G01*
X124775000Y-74497500D01*
G75*
G02*
X124712500Y-74560000I-62500J0D01*
G01*
X124587500Y-74560000D01*
G75*
G02*
X124525000Y-74497500I0J62500D01*
G01*
X124525000Y-73747500D01*
G75*
G02*
X124587500Y-73685000I62500J0D01*
G01*
G37*
G36*
G01*
X124962500Y-73310000D02*
X125712500Y-73310000D01*
G75*
G02*
X125775000Y-73372500I0J-62500D01*
G01*
X125775000Y-73497500D01*
G75*
G02*
X125712500Y-73560000I-62500J0D01*
G01*
X124962500Y-73560000D01*
G75*
G02*
X124900000Y-73497500I0J62500D01*
G01*
X124900000Y-73372500D01*
G75*
G02*
X124962500Y-73310000I62500J0D01*
G01*
G37*
G36*
G01*
X124962500Y-72810000D02*
X125712500Y-72810000D01*
G75*
G02*
X125775000Y-72872500I0J-62500D01*
G01*
X125775000Y-72997500D01*
G75*
G02*
X125712500Y-73060000I-62500J0D01*
G01*
X124962500Y-73060000D01*
G75*
G02*
X124900000Y-72997500I0J62500D01*
G01*
X124900000Y-72872500D01*
G75*
G02*
X124962500Y-72810000I62500J0D01*
G01*
G37*
G36*
G01*
X124962500Y-72310000D02*
X125712500Y-72310000D01*
G75*
G02*
X125775000Y-72372500I0J-62500D01*
G01*
X125775000Y-72497500D01*
G75*
G02*
X125712500Y-72560000I-62500J0D01*
G01*
X124962500Y-72560000D01*
G75*
G02*
X124900000Y-72497500I0J62500D01*
G01*
X124900000Y-72372500D01*
G75*
G02*
X124962500Y-72310000I62500J0D01*
G01*
G37*
G36*
G01*
X124962500Y-71810000D02*
X125712500Y-71810000D01*
G75*
G02*
X125775000Y-71872500I0J-62500D01*
G01*
X125775000Y-71997500D01*
G75*
G02*
X125712500Y-72060000I-62500J0D01*
G01*
X124962500Y-72060000D01*
G75*
G02*
X124900000Y-71997500I0J62500D01*
G01*
X124900000Y-71872500D01*
G75*
G02*
X124962500Y-71810000I62500J0D01*
G01*
G37*
G36*
G01*
X124962500Y-71310000D02*
X125712500Y-71310000D01*
G75*
G02*
X125775000Y-71372500I0J-62500D01*
G01*
X125775000Y-71497500D01*
G75*
G02*
X125712500Y-71560000I-62500J0D01*
G01*
X124962500Y-71560000D01*
G75*
G02*
X124900000Y-71497500I0J62500D01*
G01*
X124900000Y-71372500D01*
G75*
G02*
X124962500Y-71310000I62500J0D01*
G01*
G37*
G36*
G01*
X124962500Y-70810000D02*
X125712500Y-70810000D01*
G75*
G02*
X125775000Y-70872500I0J-62500D01*
G01*
X125775000Y-70997500D01*
G75*
G02*
X125712500Y-71060000I-62500J0D01*
G01*
X124962500Y-71060000D01*
G75*
G02*
X124900000Y-70997500I0J62500D01*
G01*
X124900000Y-70872500D01*
G75*
G02*
X124962500Y-70810000I62500J0D01*
G01*
G37*
G04 #@! TD*
G04 #@! TO.C,L17*
G36*
G01*
X104550000Y-57900000D02*
X106250000Y-57900000D01*
G75*
G02*
X106500000Y-58150000I0J-250000D01*
G01*
X106500000Y-58900000D01*
G75*
G02*
X106250000Y-59150000I-250000J0D01*
G01*
X104550000Y-59150000D01*
G75*
G02*
X104300000Y-58900000I0J250000D01*
G01*
X104300000Y-58150000D01*
G75*
G02*
X104550000Y-57900000I250000J0D01*
G01*
G37*
G36*
G01*
X104550000Y-60050000D02*
X106250000Y-60050000D01*
G75*
G02*
X106500000Y-60300000I0J-250000D01*
G01*
X106500000Y-61050000D01*
G75*
G02*
X106250000Y-61300000I-250000J0D01*
G01*
X104550000Y-61300000D01*
G75*
G02*
X104300000Y-61050000I0J250000D01*
G01*
X104300000Y-60300000D01*
G75*
G02*
X104550000Y-60050000I250000J0D01*
G01*
G37*
G04 #@! TD*
G04 #@! TO.C,C6*
G36*
G01*
X121420000Y-69260000D02*
X121080000Y-69260000D01*
G75*
G02*
X120940000Y-69120000I0J140000D01*
G01*
X120940000Y-68840000D01*
G75*
G02*
X121080000Y-68700000I140000J0D01*
G01*
X121420000Y-68700000D01*
G75*
G02*
X121560000Y-68840000I0J-140000D01*
G01*
X121560000Y-69120000D01*
G75*
G02*
X121420000Y-69260000I-140000J0D01*
G01*
G37*
G36*
G01*
X121420000Y-68300000D02*
X121080000Y-68300000D01*
G75*
G02*
X120940000Y-68160000I0J140000D01*
G01*
X120940000Y-67880000D01*
G75*
G02*
X121080000Y-67740000I140000J0D01*
G01*
X121420000Y-67740000D01*
G75*
G02*
X121560000Y-67880000I0J-140000D01*
G01*
X121560000Y-68160000D01*
G75*
G02*
X121420000Y-68300000I-140000J0D01*
G01*
G37*
G04 #@! TD*
D19*
G04 #@! TO.C,U1*
X108358300Y-64800001D03*
D20*
X108371000Y-65150000D03*
X108371000Y-65499999D03*
X108371000Y-65849998D03*
X108371000Y-66200000D03*
X108371000Y-66550000D03*
X108371000Y-66899999D03*
X108371000Y-67250001D03*
X108371000Y-67600000D03*
X108371000Y-67949999D03*
X108371000Y-68300001D03*
X108371000Y-68650000D03*
X108371000Y-69000000D03*
X108371000Y-69349999D03*
X108371000Y-69700001D03*
X108371000Y-70050000D03*
D19*
X108358300Y-70399999D03*
D21*
X109000001Y-71041700D03*
D22*
X109350000Y-71029000D03*
X109699999Y-71029000D03*
X110049998Y-71029000D03*
X110400000Y-71029000D03*
X110750000Y-71029000D03*
X111099999Y-71029000D03*
X111450001Y-71029000D03*
X111800000Y-71029000D03*
X112149999Y-71029000D03*
X112500001Y-71029000D03*
X112850000Y-71029000D03*
X113200000Y-71029000D03*
X113549999Y-71029000D03*
X113900001Y-71029000D03*
X114250000Y-71029000D03*
D21*
X114599999Y-71041700D03*
D19*
X115241700Y-70399999D03*
D20*
X115229000Y-70050000D03*
X115229000Y-69700001D03*
X115229000Y-69350002D03*
X115229000Y-69000000D03*
X115229000Y-68650000D03*
X115229000Y-68300001D03*
X115229000Y-67949999D03*
X115229000Y-67600000D03*
X115229000Y-67250001D03*
X115229000Y-66899999D03*
X115229000Y-66550000D03*
X115229000Y-66200000D03*
X115229000Y-65850001D03*
X115229000Y-65499999D03*
X115229000Y-65150000D03*
D19*
X115241700Y-64800001D03*
D21*
X114599999Y-64158300D03*
D22*
X114250000Y-64171000D03*
X113900001Y-64171000D03*
X113550002Y-64171000D03*
X113200000Y-64171000D03*
X112850000Y-64171000D03*
X112500001Y-64171000D03*
X112149999Y-64171000D03*
X111800000Y-64171000D03*
X111450001Y-64171000D03*
X111099999Y-64171000D03*
X110750000Y-64171000D03*
X110400000Y-64171000D03*
X110050001Y-64171000D03*
X109699999Y-64171000D03*
X109350000Y-64171000D03*
D21*
X109000001Y-64158300D03*
G04 #@! TD*
G04 #@! TO.C,C68*
G36*
G01*
X135094000Y-75099500D02*
X135094000Y-75300500D01*
G75*
G02*
X135014500Y-75380000I-79500J0D01*
G01*
X134855500Y-75380000D01*
G75*
G02*
X134776000Y-75300500I0J79500D01*
G01*
X134776000Y-75099500D01*
G75*
G02*
X134855500Y-75020000I79500J0D01*
G01*
X135014500Y-75020000D01*
G75*
G02*
X135094000Y-75099500I0J-79500D01*
G01*
G37*
G36*
G01*
X135784000Y-75099500D02*
X135784000Y-75300500D01*
G75*
G02*
X135704500Y-75380000I-79500J0D01*
G01*
X135545500Y-75380000D01*
G75*
G02*
X135466000Y-75300500I0J79500D01*
G01*
X135466000Y-75099500D01*
G75*
G02*
X135545500Y-75020000I79500J0D01*
G01*
X135704500Y-75020000D01*
G75*
G02*
X135784000Y-75099500I0J-79500D01*
G01*
G37*
G04 #@! TD*
G04 #@! TO.C,C47*
G36*
G01*
X142849000Y-62199500D02*
X142849000Y-62400500D01*
G75*
G02*
X142769500Y-62480000I-79500J0D01*
G01*
X142610500Y-62480000D01*
G75*
G02*
X142531000Y-62400500I0J79500D01*
G01*
X142531000Y-62199500D01*
G75*
G02*
X142610500Y-62120000I79500J0D01*
G01*
X142769500Y-62120000D01*
G75*
G02*
X142849000Y-62199500I0J-79500D01*
G01*
G37*
G36*
G01*
X142159000Y-62199500D02*
X142159000Y-62400500D01*
G75*
G02*
X142079500Y-62480000I-79500J0D01*
G01*
X141920500Y-62480000D01*
G75*
G02*
X141841000Y-62400500I0J79500D01*
G01*
X141841000Y-62199500D01*
G75*
G02*
X141920500Y-62120000I79500J0D01*
G01*
X142079500Y-62120000D01*
G75*
G02*
X142159000Y-62199500I0J-79500D01*
G01*
G37*
G04 #@! TD*
G04 #@! TO.C,C44*
G36*
G01*
X142849000Y-62949500D02*
X142849000Y-63150500D01*
G75*
G02*
X142769500Y-63230000I-79500J0D01*
G01*
X142610500Y-63230000D01*
G75*
G02*
X142531000Y-63150500I0J79500D01*
G01*
X142531000Y-62949500D01*
G75*
G02*
X142610500Y-62870000I79500J0D01*
G01*
X142769500Y-62870000D01*
G75*
G02*
X142849000Y-62949500I0J-79500D01*
G01*
G37*
G36*
G01*
X142159000Y-62949500D02*
X142159000Y-63150500D01*
G75*
G02*
X142079500Y-63230000I-79500J0D01*
G01*
X141920500Y-63230000D01*
G75*
G02*
X141841000Y-63150500I0J79500D01*
G01*
X141841000Y-62949500D01*
G75*
G02*
X141920500Y-62870000I79500J0D01*
G01*
X142079500Y-62870000D01*
G75*
G02*
X142159000Y-62949500I0J-79500D01*
G01*
G37*
G04 #@! TD*
G04 #@! TO.C,C37*
G36*
G01*
X142800500Y-66864000D02*
X142599500Y-66864000D01*
G75*
G02*
X142520000Y-66784500I0J79500D01*
G01*
X142520000Y-66625500D01*
G75*
G02*
X142599500Y-66546000I79500J0D01*
G01*
X142800500Y-66546000D01*
G75*
G02*
X142880000Y-66625500I0J-79500D01*
G01*
X142880000Y-66784500D01*
G75*
G02*
X142800500Y-66864000I-79500J0D01*
G01*
G37*
G36*
G01*
X142800500Y-66174000D02*
X142599500Y-66174000D01*
G75*
G02*
X142520000Y-66094500I0J79500D01*
G01*
X142520000Y-65935500D01*
G75*
G02*
X142599500Y-65856000I79500J0D01*
G01*
X142800500Y-65856000D01*
G75*
G02*
X142880000Y-65935500I0J-79500D01*
G01*
X142880000Y-66094500D01*
G75*
G02*
X142800500Y-66174000I-79500J0D01*
G01*
G37*
G04 #@! TD*
G04 #@! TO.C,L12*
G36*
G01*
X139900500Y-62499000D02*
X139699500Y-62499000D01*
G75*
G02*
X139620000Y-62419500I0J79500D01*
G01*
X139620000Y-62260500D01*
G75*
G02*
X139699500Y-62181000I79500J0D01*
G01*
X139900500Y-62181000D01*
G75*
G02*
X139980000Y-62260500I0J-79500D01*
G01*
X139980000Y-62419500D01*
G75*
G02*
X139900500Y-62499000I-79500J0D01*
G01*
G37*
G36*
G01*
X139900500Y-61809000D02*
X139699500Y-61809000D01*
G75*
G02*
X139620000Y-61729500I0J79500D01*
G01*
X139620000Y-61570500D01*
G75*
G02*
X139699500Y-61491000I79500J0D01*
G01*
X139900500Y-61491000D01*
G75*
G02*
X139980000Y-61570500I0J-79500D01*
G01*
X139980000Y-61729500D01*
G75*
G02*
X139900500Y-61809000I-79500J0D01*
G01*
G37*
G04 #@! TD*
D15*
G04 #@! TO.C,FL1*
X132535000Y-61700000D03*
X132920000Y-61950000D03*
X133305000Y-61950000D03*
X133305000Y-61450000D03*
X132920000Y-61450000D03*
G04 #@! TD*
G04 #@! TO.C,C56*
G36*
G01*
X110649500Y-73086000D02*
X110850500Y-73086000D01*
G75*
G02*
X110930000Y-73165500I0J-79500D01*
G01*
X110930000Y-73324500D01*
G75*
G02*
X110850500Y-73404000I-79500J0D01*
G01*
X110649500Y-73404000D01*
G75*
G02*
X110570000Y-73324500I0J79500D01*
G01*
X110570000Y-73165500D01*
G75*
G02*
X110649500Y-73086000I79500J0D01*
G01*
G37*
G36*
G01*
X110649500Y-72396000D02*
X110850500Y-72396000D01*
G75*
G02*
X110930000Y-72475500I0J-79500D01*
G01*
X110930000Y-72634500D01*
G75*
G02*
X110850500Y-72714000I-79500J0D01*
G01*
X110649500Y-72714000D01*
G75*
G02*
X110570000Y-72634500I0J79500D01*
G01*
X110570000Y-72475500D01*
G75*
G02*
X110649500Y-72396000I79500J0D01*
G01*
G37*
G04 #@! TD*
G04 #@! TO.C,C7*
G36*
G01*
X126460000Y-59870000D02*
X126460000Y-59530000D01*
G75*
G02*
X126600000Y-59390000I140000J0D01*
G01*
X126880000Y-59390000D01*
G75*
G02*
X127020000Y-59530000I0J-140000D01*
G01*
X127020000Y-59870000D01*
G75*
G02*
X126880000Y-60010000I-140000J0D01*
G01*
X126600000Y-60010000D01*
G75*
G02*
X126460000Y-59870000I0J140000D01*
G01*
G37*
G36*
G01*
X127420000Y-59870000D02*
X127420000Y-59530000D01*
G75*
G02*
X127560000Y-59390000I140000J0D01*
G01*
X127840000Y-59390000D01*
G75*
G02*
X127980000Y-59530000I0J-140000D01*
G01*
X127980000Y-59870000D01*
G75*
G02*
X127840000Y-60010000I-140000J0D01*
G01*
X127560000Y-60010000D01*
G75*
G02*
X127420000Y-59870000I0J140000D01*
G01*
G37*
G04 #@! TD*
G04 #@! TO.C,C69*
G36*
G01*
X139020000Y-71410000D02*
X138680000Y-71410000D01*
G75*
G02*
X138540000Y-71270000I0J140000D01*
G01*
X138540000Y-70990000D01*
G75*
G02*
X138680000Y-70850000I140000J0D01*
G01*
X139020000Y-70850000D01*
G75*
G02*
X139160000Y-70990000I0J-140000D01*
G01*
X139160000Y-71270000D01*
G75*
G02*
X139020000Y-71410000I-140000J0D01*
G01*
G37*
G36*
G01*
X139020000Y-70450000D02*
X138680000Y-70450000D01*
G75*
G02*
X138540000Y-70310000I0J140000D01*
G01*
X138540000Y-70030000D01*
G75*
G02*
X138680000Y-69890000I140000J0D01*
G01*
X139020000Y-69890000D01*
G75*
G02*
X139160000Y-70030000I0J-140000D01*
G01*
X139160000Y-70310000D01*
G75*
G02*
X139020000Y-70450000I-140000J0D01*
G01*
G37*
G04 #@! TD*
G04 #@! TO.C,C19*
G36*
G01*
X129799500Y-71176000D02*
X130000500Y-71176000D01*
G75*
G02*
X130080000Y-71255500I0J-79500D01*
G01*
X130080000Y-71414500D01*
G75*
G02*
X130000500Y-71494000I-79500J0D01*
G01*
X129799500Y-71494000D01*
G75*
G02*
X129720000Y-71414500I0J79500D01*
G01*
X129720000Y-71255500D01*
G75*
G02*
X129799500Y-71176000I79500J0D01*
G01*
G37*
G36*
G01*
X129799500Y-71866000D02*
X130000500Y-71866000D01*
G75*
G02*
X130080000Y-71945500I0J-79500D01*
G01*
X130080000Y-72104500D01*
G75*
G02*
X130000500Y-72184000I-79500J0D01*
G01*
X129799500Y-72184000D01*
G75*
G02*
X129720000Y-72104500I0J79500D01*
G01*
X129720000Y-71945500D01*
G75*
G02*
X129799500Y-71866000I79500J0D01*
G01*
G37*
G04 #@! TD*
G04 #@! TO.C,C21*
G36*
G01*
X111350500Y-63104000D02*
X111149500Y-63104000D01*
G75*
G02*
X111070000Y-63024500I0J79500D01*
G01*
X111070000Y-62865500D01*
G75*
G02*
X111149500Y-62786000I79500J0D01*
G01*
X111350500Y-62786000D01*
G75*
G02*
X111430000Y-62865500I0J-79500D01*
G01*
X111430000Y-63024500D01*
G75*
G02*
X111350500Y-63104000I-79500J0D01*
G01*
G37*
G36*
G01*
X111350500Y-62414000D02*
X111149500Y-62414000D01*
G75*
G02*
X111070000Y-62334500I0J79500D01*
G01*
X111070000Y-62175500D01*
G75*
G02*
X111149500Y-62096000I79500J0D01*
G01*
X111350500Y-62096000D01*
G75*
G02*
X111430000Y-62175500I0J-79500D01*
G01*
X111430000Y-62334500D01*
G75*
G02*
X111350500Y-62414000I-79500J0D01*
G01*
G37*
G04 #@! TD*
G04 #@! TO.C,C61*
G36*
G01*
X150580000Y-72580000D02*
X150580000Y-72920000D01*
G75*
G02*
X150440000Y-73060000I-140000J0D01*
G01*
X150160000Y-73060000D01*
G75*
G02*
X150020000Y-72920000I0J140000D01*
G01*
X150020000Y-72580000D01*
G75*
G02*
X150160000Y-72440000I140000J0D01*
G01*
X150440000Y-72440000D01*
G75*
G02*
X150580000Y-72580000I0J-140000D01*
G01*
G37*
G36*
G01*
X149620000Y-72580000D02*
X149620000Y-72920000D01*
G75*
G02*
X149480000Y-73060000I-140000J0D01*
G01*
X149200000Y-73060000D01*
G75*
G02*
X149060000Y-72920000I0J140000D01*
G01*
X149060000Y-72580000D01*
G75*
G02*
X149200000Y-72440000I140000J0D01*
G01*
X149480000Y-72440000D01*
G75*
G02*
X149620000Y-72580000I0J-140000D01*
G01*
G37*
G04 #@! TD*
G04 #@! TO.C,C38*
G36*
G01*
X137786000Y-61050500D02*
X137786000Y-60849500D01*
G75*
G02*
X137865500Y-60770000I79500J0D01*
G01*
X138024500Y-60770000D01*
G75*
G02*
X138104000Y-60849500I0J-79500D01*
G01*
X138104000Y-61050500D01*
G75*
G02*
X138024500Y-61130000I-79500J0D01*
G01*
X137865500Y-61130000D01*
G75*
G02*
X137786000Y-61050500I0J79500D01*
G01*
G37*
G36*
G01*
X137096000Y-61050500D02*
X137096000Y-60849500D01*
G75*
G02*
X137175500Y-60770000I79500J0D01*
G01*
X137334500Y-60770000D01*
G75*
G02*
X137414000Y-60849500I0J-79500D01*
G01*
X137414000Y-61050500D01*
G75*
G02*
X137334500Y-61130000I-79500J0D01*
G01*
X137175500Y-61130000D01*
G75*
G02*
X137096000Y-61050500I0J79500D01*
G01*
G37*
G04 #@! TD*
G04 #@! TO.C,L11*
G36*
G01*
X138900500Y-60444000D02*
X138699500Y-60444000D01*
G75*
G02*
X138620000Y-60364500I0J79500D01*
G01*
X138620000Y-60205500D01*
G75*
G02*
X138699500Y-60126000I79500J0D01*
G01*
X138900500Y-60126000D01*
G75*
G02*
X138980000Y-60205500I0J-79500D01*
G01*
X138980000Y-60364500D01*
G75*
G02*
X138900500Y-60444000I-79500J0D01*
G01*
G37*
G36*
G01*
X138900500Y-59754000D02*
X138699500Y-59754000D01*
G75*
G02*
X138620000Y-59674500I0J79500D01*
G01*
X138620000Y-59515500D01*
G75*
G02*
X138699500Y-59436000I79500J0D01*
G01*
X138900500Y-59436000D01*
G75*
G02*
X138980000Y-59515500I0J-79500D01*
G01*
X138980000Y-59674500D01*
G75*
G02*
X138900500Y-59754000I-79500J0D01*
G01*
G37*
G04 #@! TD*
G04 #@! TO.C,C70*
G36*
G01*
X133480000Y-73830000D02*
X133480000Y-74170000D01*
G75*
G02*
X133340000Y-74310000I-140000J0D01*
G01*
X133060000Y-74310000D01*
G75*
G02*
X132920000Y-74170000I0J140000D01*
G01*
X132920000Y-73830000D01*
G75*
G02*
X133060000Y-73690000I140000J0D01*
G01*
X133340000Y-73690000D01*
G75*
G02*
X133480000Y-73830000I0J-140000D01*
G01*
G37*
G36*
G01*
X132520000Y-73830000D02*
X132520000Y-74170000D01*
G75*
G02*
X132380000Y-74310000I-140000J0D01*
G01*
X132100000Y-74310000D01*
G75*
G02*
X131960000Y-74170000I0J140000D01*
G01*
X131960000Y-73830000D01*
G75*
G02*
X132100000Y-73690000I140000J0D01*
G01*
X132380000Y-73690000D01*
G75*
G02*
X132520000Y-73830000I0J-140000D01*
G01*
G37*
G04 #@! TD*
G04 #@! TO.C,C51*
G36*
G01*
X134711000Y-63000500D02*
X134711000Y-62799500D01*
G75*
G02*
X134790500Y-62720000I79500J0D01*
G01*
X134949500Y-62720000D01*
G75*
G02*
X135029000Y-62799500I0J-79500D01*
G01*
X135029000Y-63000500D01*
G75*
G02*
X134949500Y-63080000I-79500J0D01*
G01*
X134790500Y-63080000D01*
G75*
G02*
X134711000Y-63000500I0J79500D01*
G01*
G37*
G36*
G01*
X135401000Y-63000500D02*
X135401000Y-62799500D01*
G75*
G02*
X135480500Y-62720000I79500J0D01*
G01*
X135639500Y-62720000D01*
G75*
G02*
X135719000Y-62799500I0J-79500D01*
G01*
X135719000Y-63000500D01*
G75*
G02*
X135639500Y-63080000I-79500J0D01*
G01*
X135480500Y-63080000D01*
G75*
G02*
X135401000Y-63000500I0J79500D01*
G01*
G37*
G04 #@! TD*
G04 #@! TO.C,C41*
G36*
G01*
X145200500Y-66179500D02*
X144999500Y-66179500D01*
G75*
G02*
X144920000Y-66100000I0J79500D01*
G01*
X144920000Y-65941000D01*
G75*
G02*
X144999500Y-65861500I79500J0D01*
G01*
X145200500Y-65861500D01*
G75*
G02*
X145280000Y-65941000I0J-79500D01*
G01*
X145280000Y-66100000D01*
G75*
G02*
X145200500Y-66179500I-79500J0D01*
G01*
G37*
G36*
G01*
X145200500Y-66869500D02*
X144999500Y-66869500D01*
G75*
G02*
X144920000Y-66790000I0J79500D01*
G01*
X144920000Y-66631000D01*
G75*
G02*
X144999500Y-66551500I79500J0D01*
G01*
X145200500Y-66551500D01*
G75*
G02*
X145280000Y-66631000I0J-79500D01*
G01*
X145280000Y-66790000D01*
G75*
G02*
X145200500Y-66869500I-79500J0D01*
G01*
G37*
G04 #@! TD*
G04 #@! TO.C,R6*
G36*
G01*
X109785000Y-59080000D02*
X109415000Y-59080000D01*
G75*
G02*
X109280000Y-58945000I0J135000D01*
G01*
X109280000Y-58675000D01*
G75*
G02*
X109415000Y-58540000I135000J0D01*
G01*
X109785000Y-58540000D01*
G75*
G02*
X109920000Y-58675000I0J-135000D01*
G01*
X109920000Y-58945000D01*
G75*
G02*
X109785000Y-59080000I-135000J0D01*
G01*
G37*
G36*
G01*
X109785000Y-58060000D02*
X109415000Y-58060000D01*
G75*
G02*
X109280000Y-57925000I0J135000D01*
G01*
X109280000Y-57655000D01*
G75*
G02*
X109415000Y-57520000I135000J0D01*
G01*
X109785000Y-57520000D01*
G75*
G02*
X109920000Y-57655000I0J-135000D01*
G01*
X109920000Y-57925000D01*
G75*
G02*
X109785000Y-58060000I-135000J0D01*
G01*
G37*
G04 #@! TD*
G04 #@! TO.C,R3*
G36*
G01*
X145785000Y-62030000D02*
X145415000Y-62030000D01*
G75*
G02*
X145280000Y-61895000I0J135000D01*
G01*
X145280000Y-61625000D01*
G75*
G02*
X145415000Y-61490000I135000J0D01*
G01*
X145785000Y-61490000D01*
G75*
G02*
X145920000Y-61625000I0J-135000D01*
G01*
X145920000Y-61895000D01*
G75*
G02*
X145785000Y-62030000I-135000J0D01*
G01*
G37*
G36*
G01*
X145785000Y-61010000D02*
X145415000Y-61010000D01*
G75*
G02*
X145280000Y-60875000I0J135000D01*
G01*
X145280000Y-60605000D01*
G75*
G02*
X145415000Y-60470000I135000J0D01*
G01*
X145785000Y-60470000D01*
G75*
G02*
X145920000Y-60605000I0J-135000D01*
G01*
X145920000Y-60875000D01*
G75*
G02*
X145785000Y-61010000I-135000J0D01*
G01*
G37*
G04 #@! TD*
G04 #@! TO.C,C29*
G36*
G01*
X153170000Y-59610000D02*
X152830000Y-59610000D01*
G75*
G02*
X152690000Y-59470000I0J140000D01*
G01*
X152690000Y-59190000D01*
G75*
G02*
X152830000Y-59050000I140000J0D01*
G01*
X153170000Y-59050000D01*
G75*
G02*
X153310000Y-59190000I0J-140000D01*
G01*
X153310000Y-59470000D01*
G75*
G02*
X153170000Y-59610000I-140000J0D01*
G01*
G37*
G36*
G01*
X153170000Y-58650000D02*
X152830000Y-58650000D01*
G75*
G02*
X152690000Y-58510000I0J140000D01*
G01*
X152690000Y-58230000D01*
G75*
G02*
X152830000Y-58090000I140000J0D01*
G01*
X153170000Y-58090000D01*
G75*
G02*
X153310000Y-58230000I0J-140000D01*
G01*
X153310000Y-58510000D01*
G75*
G02*
X153170000Y-58650000I-140000J0D01*
G01*
G37*
G04 #@! TD*
G04 #@! TO.C,C57*
G36*
G01*
X115269000Y-72699500D02*
X115269000Y-72900500D01*
G75*
G02*
X115189500Y-72980000I-79500J0D01*
G01*
X115030500Y-72980000D01*
G75*
G02*
X114951000Y-72900500I0J79500D01*
G01*
X114951000Y-72699500D01*
G75*
G02*
X115030500Y-72620000I79500J0D01*
G01*
X115189500Y-72620000D01*
G75*
G02*
X115269000Y-72699500I0J-79500D01*
G01*
G37*
G36*
G01*
X115959000Y-72699500D02*
X115959000Y-72900500D01*
G75*
G02*
X115879500Y-72980000I-79500J0D01*
G01*
X115720500Y-72980000D01*
G75*
G02*
X115641000Y-72900500I0J79500D01*
G01*
X115641000Y-72699500D01*
G75*
G02*
X115720500Y-72620000I79500J0D01*
G01*
X115879500Y-72620000D01*
G75*
G02*
X115959000Y-72699500I0J-79500D01*
G01*
G37*
G04 #@! TD*
G04 #@! TO.C,U4*
G36*
G01*
X150510000Y-59985000D02*
X150510000Y-59415000D01*
G75*
G02*
X150630000Y-59295000I120000J0D01*
G01*
X150870000Y-59295000D01*
G75*
G02*
X150990000Y-59415000I0J-120000D01*
G01*
X150990000Y-59985000D01*
G75*
G02*
X150870000Y-60105000I-120000J0D01*
G01*
X150630000Y-60105000D01*
G75*
G02*
X150510000Y-59985000I0J120000D01*
G01*
G37*
G36*
G01*
X149910000Y-60985000D02*
X149910000Y-60415000D01*
G75*
G02*
X150030000Y-60295000I120000J0D01*
G01*
X150270000Y-60295000D01*
G75*
G02*
X150390000Y-60415000I0J-120000D01*
G01*
X150390000Y-60985000D01*
G75*
G02*
X150270000Y-61105000I-120000J0D01*
G01*
X150030000Y-61105000D01*
G75*
G02*
X149910000Y-60985000I0J120000D01*
G01*
G37*
G36*
G01*
X149910000Y-59985000D02*
X149910000Y-59415000D01*
G75*
G02*
X150030000Y-59295000I120000J0D01*
G01*
X150270000Y-59295000D01*
G75*
G02*
X150390000Y-59415000I0J-120000D01*
G01*
X150390000Y-59985000D01*
G75*
G02*
X150270000Y-60105000I-120000J0D01*
G01*
X150030000Y-60105000D01*
G75*
G02*
X149910000Y-59985000I0J120000D01*
G01*
G37*
G36*
G01*
X150510000Y-60985000D02*
X150510000Y-60415000D01*
G75*
G02*
X150630000Y-60295000I120000J0D01*
G01*
X150870000Y-60295000D01*
G75*
G02*
X150990000Y-60415000I0J-120000D01*
G01*
X150990000Y-60985000D01*
G75*
G02*
X150870000Y-61105000I-120000J0D01*
G01*
X150630000Y-61105000D01*
G75*
G02*
X150510000Y-60985000I0J120000D01*
G01*
G37*
G36*
G01*
X148825000Y-59262500D02*
X148825000Y-59137500D01*
G75*
G02*
X148887500Y-59075000I62500J0D01*
G01*
X149587500Y-59075000D01*
G75*
G02*
X149650000Y-59137500I0J-62500D01*
G01*
X149650000Y-59262500D01*
G75*
G02*
X149587500Y-59325000I-62500J0D01*
G01*
X148887500Y-59325000D01*
G75*
G02*
X148825000Y-59262500I0J62500D01*
G01*
G37*
G36*
G01*
X148825000Y-59762500D02*
X148825000Y-59637500D01*
G75*
G02*
X148887500Y-59575000I62500J0D01*
G01*
X149587500Y-59575000D01*
G75*
G02*
X149650000Y-59637500I0J-62500D01*
G01*
X149650000Y-59762500D01*
G75*
G02*
X149587500Y-59825000I-62500J0D01*
G01*
X148887500Y-59825000D01*
G75*
G02*
X148825000Y-59762500I0J62500D01*
G01*
G37*
G36*
G01*
X148825000Y-60262500D02*
X148825000Y-60137500D01*
G75*
G02*
X148887500Y-60075000I62500J0D01*
G01*
X149587500Y-60075000D01*
G75*
G02*
X149650000Y-60137500I0J-62500D01*
G01*
X149650000Y-60262500D01*
G75*
G02*
X149587500Y-60325000I-62500J0D01*
G01*
X148887500Y-60325000D01*
G75*
G02*
X148825000Y-60262500I0J62500D01*
G01*
G37*
G36*
G01*
X148825000Y-60762500D02*
X148825000Y-60637500D01*
G75*
G02*
X148887500Y-60575000I62500J0D01*
G01*
X149587500Y-60575000D01*
G75*
G02*
X149650000Y-60637500I0J-62500D01*
G01*
X149650000Y-60762500D01*
G75*
G02*
X149587500Y-60825000I-62500J0D01*
G01*
X148887500Y-60825000D01*
G75*
G02*
X148825000Y-60762500I0J62500D01*
G01*
G37*
G36*
G01*
X148825000Y-61262500D02*
X148825000Y-61137500D01*
G75*
G02*
X148887500Y-61075000I62500J0D01*
G01*
X149587500Y-61075000D01*
G75*
G02*
X149650000Y-61137500I0J-62500D01*
G01*
X149650000Y-61262500D01*
G75*
G02*
X149587500Y-61325000I-62500J0D01*
G01*
X148887500Y-61325000D01*
G75*
G02*
X148825000Y-61262500I0J62500D01*
G01*
G37*
G36*
G01*
X151250000Y-61262500D02*
X151250000Y-61137500D01*
G75*
G02*
X151312500Y-61075000I62500J0D01*
G01*
X152012500Y-61075000D01*
G75*
G02*
X152075000Y-61137500I0J-62500D01*
G01*
X152075000Y-61262500D01*
G75*
G02*
X152012500Y-61325000I-62500J0D01*
G01*
X151312500Y-61325000D01*
G75*
G02*
X151250000Y-61262500I0J62500D01*
G01*
G37*
G36*
G01*
X151250000Y-60762500D02*
X151250000Y-60637500D01*
G75*
G02*
X151312500Y-60575000I62500J0D01*
G01*
X152012500Y-60575000D01*
G75*
G02*
X152075000Y-60637500I0J-62500D01*
G01*
X152075000Y-60762500D01*
G75*
G02*
X152012500Y-60825000I-62500J0D01*
G01*
X151312500Y-60825000D01*
G75*
G02*
X151250000Y-60762500I0J62500D01*
G01*
G37*
G36*
G01*
X151250000Y-60262500D02*
X151250000Y-60137500D01*
G75*
G02*
X151312500Y-60075000I62500J0D01*
G01*
X152012500Y-60075000D01*
G75*
G02*
X152075000Y-60137500I0J-62500D01*
G01*
X152075000Y-60262500D01*
G75*
G02*
X152012500Y-60325000I-62500J0D01*
G01*
X151312500Y-60325000D01*
G75*
G02*
X151250000Y-60262500I0J62500D01*
G01*
G37*
G36*
G01*
X151250000Y-59762500D02*
X151250000Y-59637500D01*
G75*
G02*
X151312500Y-59575000I62500J0D01*
G01*
X152012500Y-59575000D01*
G75*
G02*
X152075000Y-59637500I0J-62500D01*
G01*
X152075000Y-59762500D01*
G75*
G02*
X152012500Y-59825000I-62500J0D01*
G01*
X151312500Y-59825000D01*
G75*
G02*
X151250000Y-59762500I0J62500D01*
G01*
G37*
G36*
G01*
X151250000Y-59262500D02*
X151250000Y-59137500D01*
G75*
G02*
X151312500Y-59075000I62500J0D01*
G01*
X152012500Y-59075000D01*
G75*
G02*
X152075000Y-59137500I0J-62500D01*
G01*
X152075000Y-59262500D01*
G75*
G02*
X152012500Y-59325000I-62500J0D01*
G01*
X151312500Y-59325000D01*
G75*
G02*
X151250000Y-59262500I0J62500D01*
G01*
G37*
G04 #@! TD*
D23*
G04 #@! TO.C,D4*
X114375000Y-57250000D03*
X116475000Y-57250000D03*
G04 #@! TD*
G04 #@! TO.C,C18*
G36*
G01*
X129799499Y-64266000D02*
X130000499Y-64266000D01*
G75*
G02*
X130079999Y-64345500I0J-79500D01*
G01*
X130079999Y-64504500D01*
G75*
G02*
X130000499Y-64584000I-79500J0D01*
G01*
X129799499Y-64584000D01*
G75*
G02*
X129719999Y-64504500I0J79500D01*
G01*
X129719999Y-64345500D01*
G75*
G02*
X129799499Y-64266000I79500J0D01*
G01*
G37*
G36*
G01*
X129799499Y-63576000D02*
X130000499Y-63576000D01*
G75*
G02*
X130079999Y-63655500I0J-79500D01*
G01*
X130079999Y-63814500D01*
G75*
G02*
X130000499Y-63894000I-79500J0D01*
G01*
X129799499Y-63894000D01*
G75*
G02*
X129719999Y-63814500I0J79500D01*
G01*
X129719999Y-63655500D01*
G75*
G02*
X129799499Y-63576000I79500J0D01*
G01*
G37*
G04 #@! TD*
G04 #@! TO.C,C11*
G36*
G01*
X127986000Y-62500500D02*
X127986000Y-62299500D01*
G75*
G02*
X128065500Y-62220000I79500J0D01*
G01*
X128224500Y-62220000D01*
G75*
G02*
X128304000Y-62299500I0J-79500D01*
G01*
X128304000Y-62500500D01*
G75*
G02*
X128224500Y-62580000I-79500J0D01*
G01*
X128065500Y-62580000D01*
G75*
G02*
X127986000Y-62500500I0J79500D01*
G01*
G37*
G36*
G01*
X127296000Y-62500500D02*
X127296000Y-62299500D01*
G75*
G02*
X127375500Y-62220000I79500J0D01*
G01*
X127534500Y-62220000D01*
G75*
G02*
X127614000Y-62299500I0J-79500D01*
G01*
X127614000Y-62500500D01*
G75*
G02*
X127534500Y-62580000I-79500J0D01*
G01*
X127375500Y-62580000D01*
G75*
G02*
X127296000Y-62500500I0J79500D01*
G01*
G37*
G04 #@! TD*
G04 #@! TO.C,R24*
G36*
G01*
X129699500Y-75516000D02*
X129900500Y-75516000D01*
G75*
G02*
X129980000Y-75595500I0J-79500D01*
G01*
X129980000Y-75754500D01*
G75*
G02*
X129900500Y-75834000I-79500J0D01*
G01*
X129699500Y-75834000D01*
G75*
G02*
X129620000Y-75754500I0J79500D01*
G01*
X129620000Y-75595500D01*
G75*
G02*
X129699500Y-75516000I79500J0D01*
G01*
G37*
G36*
G01*
X129699500Y-76206000D02*
X129900500Y-76206000D01*
G75*
G02*
X129980000Y-76285500I0J-79500D01*
G01*
X129980000Y-76444500D01*
G75*
G02*
X129900500Y-76524000I-79500J0D01*
G01*
X129699500Y-76524000D01*
G75*
G02*
X129620000Y-76444500I0J79500D01*
G01*
X129620000Y-76285500D01*
G75*
G02*
X129699500Y-76206000I79500J0D01*
G01*
G37*
G04 #@! TD*
G04 #@! TO.C,C48*
G36*
G01*
X141249500Y-63591000D02*
X141450500Y-63591000D01*
G75*
G02*
X141530000Y-63670500I0J-79500D01*
G01*
X141530000Y-63829500D01*
G75*
G02*
X141450500Y-63909000I-79500J0D01*
G01*
X141249500Y-63909000D01*
G75*
G02*
X141170000Y-63829500I0J79500D01*
G01*
X141170000Y-63670500D01*
G75*
G02*
X141249500Y-63591000I79500J0D01*
G01*
G37*
G36*
G01*
X141249500Y-64281000D02*
X141450500Y-64281000D01*
G75*
G02*
X141530000Y-64360500I0J-79500D01*
G01*
X141530000Y-64519500D01*
G75*
G02*
X141450500Y-64599000I-79500J0D01*
G01*
X141249500Y-64599000D01*
G75*
G02*
X141170000Y-64519500I0J79500D01*
G01*
X141170000Y-64360500D01*
G75*
G02*
X141249500Y-64281000I79500J0D01*
G01*
G37*
G04 #@! TD*
G04 #@! TO.C,C52*
G36*
G01*
X136227446Y-64029270D02*
X136085318Y-64171398D01*
G75*
G02*
X135972888Y-64171398I-56215J56215D01*
G01*
X135860458Y-64058968D01*
G75*
G02*
X135860458Y-63946538I56215J56215D01*
G01*
X136002586Y-63804410D01*
G75*
G02*
X136115016Y-63804410I56215J-56215D01*
G01*
X136227446Y-63916840D01*
G75*
G02*
X136227446Y-64029270I-56215J-56215D01*
G01*
G37*
G36*
G01*
X135739542Y-63541366D02*
X135597414Y-63683494D01*
G75*
G02*
X135484984Y-63683494I-56215J56215D01*
G01*
X135372554Y-63571064D01*
G75*
G02*
X135372554Y-63458634I56215J56215D01*
G01*
X135514682Y-63316506D01*
G75*
G02*
X135627112Y-63316506I56215J-56215D01*
G01*
X135739542Y-63428936D01*
G75*
G02*
X135739542Y-63541366I-56215J-56215D01*
G01*
G37*
G04 #@! TD*
G04 #@! TO.C,C63*
G36*
G01*
X152999500Y-60736000D02*
X153200500Y-60736000D01*
G75*
G02*
X153280000Y-60815500I0J-79500D01*
G01*
X153280000Y-60974500D01*
G75*
G02*
X153200500Y-61054000I-79500J0D01*
G01*
X152999500Y-61054000D01*
G75*
G02*
X152920000Y-60974500I0J79500D01*
G01*
X152920000Y-60815500D01*
G75*
G02*
X152999500Y-60736000I79500J0D01*
G01*
G37*
G36*
G01*
X152999500Y-60046000D02*
X153200500Y-60046000D01*
G75*
G02*
X153280000Y-60125500I0J-79500D01*
G01*
X153280000Y-60284500D01*
G75*
G02*
X153200500Y-60364000I-79500J0D01*
G01*
X152999500Y-60364000D01*
G75*
G02*
X152920000Y-60284500I0J79500D01*
G01*
X152920000Y-60125500D01*
G75*
G02*
X152999500Y-60046000I79500J0D01*
G01*
G37*
G04 #@! TD*
G04 #@! TO.C,R19*
G36*
G01*
X126076000Y-68800500D02*
X126076000Y-68599500D01*
G75*
G02*
X126155500Y-68520000I79500J0D01*
G01*
X126314500Y-68520000D01*
G75*
G02*
X126394000Y-68599500I0J-79500D01*
G01*
X126394000Y-68800500D01*
G75*
G02*
X126314500Y-68880000I-79500J0D01*
G01*
X126155500Y-68880000D01*
G75*
G02*
X126076000Y-68800500I0J79500D01*
G01*
G37*
G36*
G01*
X126766000Y-68800500D02*
X126766000Y-68599500D01*
G75*
G02*
X126845500Y-68520000I79500J0D01*
G01*
X127004500Y-68520000D01*
G75*
G02*
X127084000Y-68599500I0J-79500D01*
G01*
X127084000Y-68800500D01*
G75*
G02*
X127004500Y-68880000I-79500J0D01*
G01*
X126845500Y-68880000D01*
G75*
G02*
X126766000Y-68800500I0J79500D01*
G01*
G37*
G04 #@! TD*
G04 #@! TO.C,C25*
G36*
G01*
X106294000Y-66199500D02*
X106294000Y-66400500D01*
G75*
G02*
X106214500Y-66480000I-79500J0D01*
G01*
X106055500Y-66480000D01*
G75*
G02*
X105976000Y-66400500I0J79500D01*
G01*
X105976000Y-66199500D01*
G75*
G02*
X106055500Y-66120000I79500J0D01*
G01*
X106214500Y-66120000D01*
G75*
G02*
X106294000Y-66199500I0J-79500D01*
G01*
G37*
G36*
G01*
X106984000Y-66199500D02*
X106984000Y-66400500D01*
G75*
G02*
X106904500Y-66480000I-79500J0D01*
G01*
X106745500Y-66480000D01*
G75*
G02*
X106666000Y-66400500I0J79500D01*
G01*
X106666000Y-66199500D01*
G75*
G02*
X106745500Y-66120000I79500J0D01*
G01*
X106904500Y-66120000D01*
G75*
G02*
X106984000Y-66199500I0J-79500D01*
G01*
G37*
G04 #@! TD*
G04 #@! TO.C,C49*
G36*
G01*
X134200500Y-62304000D02*
X133999500Y-62304000D01*
G75*
G02*
X133920000Y-62224500I0J79500D01*
G01*
X133920000Y-62065500D01*
G75*
G02*
X133999500Y-61986000I79500J0D01*
G01*
X134200500Y-61986000D01*
G75*
G02*
X134280000Y-62065500I0J-79500D01*
G01*
X134280000Y-62224500D01*
G75*
G02*
X134200500Y-62304000I-79500J0D01*
G01*
G37*
G36*
G01*
X134200500Y-61614000D02*
X133999500Y-61614000D01*
G75*
G02*
X133920000Y-61534500I0J79500D01*
G01*
X133920000Y-61375500D01*
G75*
G02*
X133999500Y-61296000I79500J0D01*
G01*
X134200500Y-61296000D01*
G75*
G02*
X134280000Y-61375500I0J-79500D01*
G01*
X134280000Y-61534500D01*
G75*
G02*
X134200500Y-61614000I-79500J0D01*
G01*
G37*
G04 #@! TD*
G04 #@! TO.C,R1*
G36*
G01*
X123014000Y-59199500D02*
X123014000Y-59400500D01*
G75*
G02*
X122934500Y-59480000I-79500J0D01*
G01*
X122775500Y-59480000D01*
G75*
G02*
X122696000Y-59400500I0J79500D01*
G01*
X122696000Y-59199500D01*
G75*
G02*
X122775500Y-59120000I79500J0D01*
G01*
X122934500Y-59120000D01*
G75*
G02*
X123014000Y-59199500I0J-79500D01*
G01*
G37*
G36*
G01*
X123704000Y-59199500D02*
X123704000Y-59400500D01*
G75*
G02*
X123624500Y-59480000I-79500J0D01*
G01*
X123465500Y-59480000D01*
G75*
G02*
X123386000Y-59400500I0J79500D01*
G01*
X123386000Y-59199500D01*
G75*
G02*
X123465500Y-59120000I79500J0D01*
G01*
X123624500Y-59120000D01*
G75*
G02*
X123704000Y-59199500I0J-79500D01*
G01*
G37*
G04 #@! TD*
G04 #@! TO.C,R13*
G36*
G01*
X106185000Y-74980000D02*
X105815000Y-74980000D01*
G75*
G02*
X105680000Y-74845000I0J135000D01*
G01*
X105680000Y-74575000D01*
G75*
G02*
X105815000Y-74440000I135000J0D01*
G01*
X106185000Y-74440000D01*
G75*
G02*
X106320000Y-74575000I0J-135000D01*
G01*
X106320000Y-74845000D01*
G75*
G02*
X106185000Y-74980000I-135000J0D01*
G01*
G37*
G36*
G01*
X106185000Y-73960000D02*
X105815000Y-73960000D01*
G75*
G02*
X105680000Y-73825000I0J135000D01*
G01*
X105680000Y-73555000D01*
G75*
G02*
X105815000Y-73420000I135000J0D01*
G01*
X106185000Y-73420000D01*
G75*
G02*
X106320000Y-73555000I0J-135000D01*
G01*
X106320000Y-73825000D01*
G75*
G02*
X106185000Y-73960000I-135000J0D01*
G01*
G37*
G04 #@! TD*
G04 #@! TO.C,C13*
G36*
G01*
X128350500Y-65249000D02*
X128149500Y-65249000D01*
G75*
G02*
X128070000Y-65169500I0J79500D01*
G01*
X128070000Y-65010500D01*
G75*
G02*
X128149500Y-64931000I79500J0D01*
G01*
X128350500Y-64931000D01*
G75*
G02*
X128430000Y-65010500I0J-79500D01*
G01*
X128430000Y-65169500D01*
G75*
G02*
X128350500Y-65249000I-79500J0D01*
G01*
G37*
G36*
G01*
X128350500Y-64559000D02*
X128149500Y-64559000D01*
G75*
G02*
X128070000Y-64479500I0J79500D01*
G01*
X128070000Y-64320500D01*
G75*
G02*
X128149500Y-64241000I79500J0D01*
G01*
X128350500Y-64241000D01*
G75*
G02*
X128430000Y-64320500I0J-79500D01*
G01*
X128430000Y-64479500D01*
G75*
G02*
X128350500Y-64559000I-79500J0D01*
G01*
G37*
G04 #@! TD*
D24*
G04 #@! TO.C,J2*
X151200000Y-74500000D03*
D25*
X152725000Y-73025000D03*
X152725000Y-75975000D03*
G04 #@! TD*
G04 #@! TO.C,R14*
G36*
G01*
X114951000Y-73600500D02*
X114951000Y-73399500D01*
G75*
G02*
X115030500Y-73320000I79500J0D01*
G01*
X115189500Y-73320000D01*
G75*
G02*
X115269000Y-73399500I0J-79500D01*
G01*
X115269000Y-73600500D01*
G75*
G02*
X115189500Y-73680000I-79500J0D01*
G01*
X115030500Y-73680000D01*
G75*
G02*
X114951000Y-73600500I0J79500D01*
G01*
G37*
G36*
G01*
X115641000Y-73600500D02*
X115641000Y-73399500D01*
G75*
G02*
X115720500Y-73320000I79500J0D01*
G01*
X115879500Y-73320000D01*
G75*
G02*
X115959000Y-73399500I0J-79500D01*
G01*
X115959000Y-73600500D01*
G75*
G02*
X115879500Y-73680000I-79500J0D01*
G01*
X115720500Y-73680000D01*
G75*
G02*
X115641000Y-73600500I0J79500D01*
G01*
G37*
G04 #@! TD*
G04 #@! TO.C,L7*
G36*
G01*
X130786000Y-61800500D02*
X130786000Y-61599500D01*
G75*
G02*
X130865500Y-61520000I79500J0D01*
G01*
X131024500Y-61520000D01*
G75*
G02*
X131104000Y-61599500I0J-79500D01*
G01*
X131104000Y-61800500D01*
G75*
G02*
X131024500Y-61880000I-79500J0D01*
G01*
X130865500Y-61880000D01*
G75*
G02*
X130786000Y-61800500I0J79500D01*
G01*
G37*
G36*
G01*
X130096000Y-61800500D02*
X130096000Y-61599500D01*
G75*
G02*
X130175500Y-61520000I79500J0D01*
G01*
X130334500Y-61520000D01*
G75*
G02*
X130414000Y-61599500I0J-79500D01*
G01*
X130414000Y-61800500D01*
G75*
G02*
X130334500Y-61880000I-79500J0D01*
G01*
X130175500Y-61880000D01*
G75*
G02*
X130096000Y-61800500I0J79500D01*
G01*
G37*
G04 #@! TD*
D15*
G04 #@! TO.C,FL3*
X139900000Y-67937500D03*
X139515000Y-67687500D03*
X139130000Y-67687500D03*
X139130000Y-68187500D03*
X139515000Y-68187500D03*
G04 #@! TD*
G04 #@! TO.C,C71*
G36*
G01*
X138660000Y-74220000D02*
X138660000Y-73880000D01*
G75*
G02*
X138800000Y-73740000I140000J0D01*
G01*
X139080000Y-73740000D01*
G75*
G02*
X139220000Y-73880000I0J-140000D01*
G01*
X139220000Y-74220000D01*
G75*
G02*
X139080000Y-74360000I-140000J0D01*
G01*
X138800000Y-74360000D01*
G75*
G02*
X138660000Y-74220000I0J140000D01*
G01*
G37*
G36*
G01*
X139620000Y-74220000D02*
X139620000Y-73880000D01*
G75*
G02*
X139760000Y-73740000I140000J0D01*
G01*
X140040000Y-73740000D01*
G75*
G02*
X140180000Y-73880000I0J-140000D01*
G01*
X140180000Y-74220000D01*
G75*
G02*
X140040000Y-74360000I-140000J0D01*
G01*
X139760000Y-74360000D01*
G75*
G02*
X139620000Y-74220000I0J140000D01*
G01*
G37*
G04 #@! TD*
G04 #@! TO.C,R15*
G36*
G01*
X114956000Y-75700500D02*
X114956000Y-75499500D01*
G75*
G02*
X115035500Y-75420000I79500J0D01*
G01*
X115194500Y-75420000D01*
G75*
G02*
X115274000Y-75499500I0J-79500D01*
G01*
X115274000Y-75700500D01*
G75*
G02*
X115194500Y-75780000I-79500J0D01*
G01*
X115035500Y-75780000D01*
G75*
G02*
X114956000Y-75700500I0J79500D01*
G01*
G37*
G36*
G01*
X115646000Y-75700500D02*
X115646000Y-75499500D01*
G75*
G02*
X115725500Y-75420000I79500J0D01*
G01*
X115884500Y-75420000D01*
G75*
G02*
X115964000Y-75499500I0J-79500D01*
G01*
X115964000Y-75700500D01*
G75*
G02*
X115884500Y-75780000I-79500J0D01*
G01*
X115725500Y-75780000D01*
G75*
G02*
X115646000Y-75700500I0J79500D01*
G01*
G37*
G04 #@! TD*
G04 #@! TO.C,C43*
G36*
G01*
X139964000Y-60199500D02*
X139964000Y-60400500D01*
G75*
G02*
X139884500Y-60480000I-79500J0D01*
G01*
X139725500Y-60480000D01*
G75*
G02*
X139646000Y-60400500I0J79500D01*
G01*
X139646000Y-60199500D01*
G75*
G02*
X139725500Y-60120000I79500J0D01*
G01*
X139884500Y-60120000D01*
G75*
G02*
X139964000Y-60199500I0J-79500D01*
G01*
G37*
G36*
G01*
X140654000Y-60199500D02*
X140654000Y-60400500D01*
G75*
G02*
X140574500Y-60480000I-79500J0D01*
G01*
X140415500Y-60480000D01*
G75*
G02*
X140336000Y-60400500I0J79500D01*
G01*
X140336000Y-60199500D01*
G75*
G02*
X140415500Y-60120000I79500J0D01*
G01*
X140574500Y-60120000D01*
G75*
G02*
X140654000Y-60199500I0J-79500D01*
G01*
G37*
G04 #@! TD*
G04 #@! TO.C,L18*
G36*
G01*
X133075500Y-71789000D02*
X132874500Y-71789000D01*
G75*
G02*
X132795000Y-71709500I0J79500D01*
G01*
X132795000Y-71550500D01*
G75*
G02*
X132874500Y-71471000I79500J0D01*
G01*
X133075500Y-71471000D01*
G75*
G02*
X133155000Y-71550500I0J-79500D01*
G01*
X133155000Y-71709500D01*
G75*
G02*
X133075500Y-71789000I-79500J0D01*
G01*
G37*
G36*
G01*
X133075500Y-72479000D02*
X132874500Y-72479000D01*
G75*
G02*
X132795000Y-72399500I0J79500D01*
G01*
X132795000Y-72240500D01*
G75*
G02*
X132874500Y-72161000I79500J0D01*
G01*
X133075500Y-72161000D01*
G75*
G02*
X133155000Y-72240500I0J-79500D01*
G01*
X133155000Y-72399500D01*
G75*
G02*
X133075500Y-72479000I-79500J0D01*
G01*
G37*
G04 #@! TD*
G04 #@! TO.C,R21*
G36*
G01*
X116426000Y-59600500D02*
X116426000Y-59399500D01*
G75*
G02*
X116505500Y-59320000I79500J0D01*
G01*
X116664500Y-59320000D01*
G75*
G02*
X116744000Y-59399500I0J-79500D01*
G01*
X116744000Y-59600500D01*
G75*
G02*
X116664500Y-59680000I-79500J0D01*
G01*
X116505500Y-59680000D01*
G75*
G02*
X116426000Y-59600500I0J79500D01*
G01*
G37*
G36*
G01*
X117116000Y-59600500D02*
X117116000Y-59399500D01*
G75*
G02*
X117195500Y-59320000I79500J0D01*
G01*
X117354500Y-59320000D01*
G75*
G02*
X117434000Y-59399500I0J-79500D01*
G01*
X117434000Y-59600500D01*
G75*
G02*
X117354500Y-59680000I-79500J0D01*
G01*
X117195500Y-59680000D01*
G75*
G02*
X117116000Y-59600500I0J79500D01*
G01*
G37*
G04 #@! TD*
G04 #@! TO.C,C36*
G36*
G01*
X127724000Y-68099500D02*
X127724000Y-68300500D01*
G75*
G02*
X127644500Y-68380000I-79500J0D01*
G01*
X127485500Y-68380000D01*
G75*
G02*
X127406000Y-68300500I0J79500D01*
G01*
X127406000Y-68099500D01*
G75*
G02*
X127485500Y-68020000I79500J0D01*
G01*
X127644500Y-68020000D01*
G75*
G02*
X127724000Y-68099500I0J-79500D01*
G01*
G37*
G36*
G01*
X127034000Y-68099500D02*
X127034000Y-68300500D01*
G75*
G02*
X126954500Y-68380000I-79500J0D01*
G01*
X126795500Y-68380000D01*
G75*
G02*
X126716000Y-68300500I0J79500D01*
G01*
X126716000Y-68099500D01*
G75*
G02*
X126795500Y-68020000I79500J0D01*
G01*
X126954500Y-68020000D01*
G75*
G02*
X127034000Y-68099500I0J-79500D01*
G01*
G37*
G04 #@! TD*
G04 #@! TO.C,D3*
G36*
G01*
X107556250Y-77925000D02*
X107043750Y-77925000D01*
G75*
G02*
X106825000Y-77706250I0J218750D01*
G01*
X106825000Y-77268750D01*
G75*
G02*
X107043750Y-77050000I218750J0D01*
G01*
X107556250Y-77050000D01*
G75*
G02*
X107775000Y-77268750I0J-218750D01*
G01*
X107775000Y-77706250D01*
G75*
G02*
X107556250Y-77925000I-218750J0D01*
G01*
G37*
G36*
G01*
X107556250Y-76350000D02*
X107043750Y-76350000D01*
G75*
G02*
X106825000Y-76131250I0J218750D01*
G01*
X106825000Y-75693750D01*
G75*
G02*
X107043750Y-75475000I218750J0D01*
G01*
X107556250Y-75475000D01*
G75*
G02*
X107775000Y-75693750I0J-218750D01*
G01*
X107775000Y-76131250D01*
G75*
G02*
X107556250Y-76350000I-218750J0D01*
G01*
G37*
G04 #@! TD*
G04 #@! TO.C,C45*
G36*
G01*
X147600500Y-66864000D02*
X147399500Y-66864000D01*
G75*
G02*
X147320000Y-66784500I0J79500D01*
G01*
X147320000Y-66625500D01*
G75*
G02*
X147399500Y-66546000I79500J0D01*
G01*
X147600500Y-66546000D01*
G75*
G02*
X147680000Y-66625500I0J-79500D01*
G01*
X147680000Y-66784500D01*
G75*
G02*
X147600500Y-66864000I-79500J0D01*
G01*
G37*
G36*
G01*
X147600500Y-66174000D02*
X147399500Y-66174000D01*
G75*
G02*
X147320000Y-66094500I0J79500D01*
G01*
X147320000Y-65935500D01*
G75*
G02*
X147399500Y-65856000I79500J0D01*
G01*
X147600500Y-65856000D01*
G75*
G02*
X147680000Y-65935500I0J-79500D01*
G01*
X147680000Y-66094500D01*
G75*
G02*
X147600500Y-66174000I-79500J0D01*
G01*
G37*
G04 #@! TD*
G04 #@! TO.C,D2*
G36*
G01*
X106056250Y-77925000D02*
X105543750Y-77925000D01*
G75*
G02*
X105325000Y-77706250I0J218750D01*
G01*
X105325000Y-77268750D01*
G75*
G02*
X105543750Y-77050000I218750J0D01*
G01*
X106056250Y-77050000D01*
G75*
G02*
X106275000Y-77268750I0J-218750D01*
G01*
X106275000Y-77706250D01*
G75*
G02*
X106056250Y-77925000I-218750J0D01*
G01*
G37*
G36*
G01*
X106056250Y-76350000D02*
X105543750Y-76350000D01*
G75*
G02*
X105325000Y-76131250I0J218750D01*
G01*
X105325000Y-75693750D01*
G75*
G02*
X105543750Y-75475000I218750J0D01*
G01*
X106056250Y-75475000D01*
G75*
G02*
X106275000Y-75693750I0J-218750D01*
G01*
X106275000Y-76131250D01*
G75*
G02*
X106056250Y-76350000I-218750J0D01*
G01*
G37*
G04 #@! TD*
G04 #@! TO.C,C62*
G36*
G01*
X116744000Y-58849500D02*
X116744000Y-59050500D01*
G75*
G02*
X116664500Y-59130000I-79500J0D01*
G01*
X116505500Y-59130000D01*
G75*
G02*
X116426000Y-59050500I0J79500D01*
G01*
X116426000Y-58849500D01*
G75*
G02*
X116505500Y-58770000I79500J0D01*
G01*
X116664500Y-58770000D01*
G75*
G02*
X116744000Y-58849500I0J-79500D01*
G01*
G37*
G36*
G01*
X117434000Y-58849500D02*
X117434000Y-59050500D01*
G75*
G02*
X117354500Y-59130000I-79500J0D01*
G01*
X117195500Y-59130000D01*
G75*
G02*
X117116000Y-59050500I0J79500D01*
G01*
X117116000Y-58849500D01*
G75*
G02*
X117195500Y-58770000I79500J0D01*
G01*
X117354500Y-58770000D01*
G75*
G02*
X117434000Y-58849500I0J-79500D01*
G01*
G37*
G04 #@! TD*
G04 #@! TO.C,C66*
G36*
G01*
X132241000Y-71500500D02*
X132241000Y-71299500D01*
G75*
G02*
X132320500Y-71220000I79500J0D01*
G01*
X132479500Y-71220000D01*
G75*
G02*
X132559000Y-71299500I0J-79500D01*
G01*
X132559000Y-71500500D01*
G75*
G02*
X132479500Y-71580000I-79500J0D01*
G01*
X132320500Y-71580000D01*
G75*
G02*
X132241000Y-71500500I0J79500D01*
G01*
G37*
G36*
G01*
X131551000Y-71500500D02*
X131551000Y-71299500D01*
G75*
G02*
X131630500Y-71220000I79500J0D01*
G01*
X131789500Y-71220000D01*
G75*
G02*
X131869000Y-71299500I0J-79500D01*
G01*
X131869000Y-71500500D01*
G75*
G02*
X131789500Y-71580000I-79500J0D01*
G01*
X131630500Y-71580000D01*
G75*
G02*
X131551000Y-71500500I0J79500D01*
G01*
G37*
G04 #@! TD*
G04 #@! TO.C,L6*
G36*
G01*
X127600500Y-72189000D02*
X127399500Y-72189000D01*
G75*
G02*
X127320000Y-72109500I0J79500D01*
G01*
X127320000Y-71950500D01*
G75*
G02*
X127399500Y-71871000I79500J0D01*
G01*
X127600500Y-71871000D01*
G75*
G02*
X127680000Y-71950500I0J-79500D01*
G01*
X127680000Y-72109500D01*
G75*
G02*
X127600500Y-72189000I-79500J0D01*
G01*
G37*
G36*
G01*
X127600500Y-71499000D02*
X127399500Y-71499000D01*
G75*
G02*
X127320000Y-71419500I0J79500D01*
G01*
X127320000Y-71260500D01*
G75*
G02*
X127399500Y-71181000I79500J0D01*
G01*
X127600500Y-71181000D01*
G75*
G02*
X127680000Y-71260500I0J-79500D01*
G01*
X127680000Y-71419500D01*
G75*
G02*
X127600500Y-71499000I-79500J0D01*
G01*
G37*
G04 #@! TD*
G04 #@! TO.C,C67*
G36*
G01*
X132216000Y-72400500D02*
X132216000Y-72199500D01*
G75*
G02*
X132295500Y-72120000I79500J0D01*
G01*
X132454500Y-72120000D01*
G75*
G02*
X132534000Y-72199500I0J-79500D01*
G01*
X132534000Y-72400500D01*
G75*
G02*
X132454500Y-72480000I-79500J0D01*
G01*
X132295500Y-72480000D01*
G75*
G02*
X132216000Y-72400500I0J79500D01*
G01*
G37*
G36*
G01*
X131526000Y-72400500D02*
X131526000Y-72199500D01*
G75*
G02*
X131605500Y-72120000I79500J0D01*
G01*
X131764500Y-72120000D01*
G75*
G02*
X131844000Y-72199500I0J-79500D01*
G01*
X131844000Y-72400500D01*
G75*
G02*
X131764500Y-72480000I-79500J0D01*
G01*
X131605500Y-72480000D01*
G75*
G02*
X131526000Y-72400500I0J79500D01*
G01*
G37*
G04 #@! TD*
G04 #@! TO.C,U2*
G36*
G01*
X123770000Y-62645000D02*
X124280000Y-62645000D01*
G75*
G02*
X124530000Y-62895000I0J-250000D01*
G01*
X124530000Y-63405000D01*
G75*
G02*
X124280000Y-63655000I-250000J0D01*
G01*
X123770000Y-63655000D01*
G75*
G02*
X123520000Y-63405000I0J250000D01*
G01*
X123520000Y-62895000D01*
G75*
G02*
X123770000Y-62645000I250000J0D01*
G01*
G37*
G36*
G01*
X122520000Y-62645000D02*
X123030000Y-62645000D01*
G75*
G02*
X123280000Y-62895000I0J-250000D01*
G01*
X123280000Y-63405000D01*
G75*
G02*
X123030000Y-63655000I-250000J0D01*
G01*
X122520000Y-63655000D01*
G75*
G02*
X122270000Y-63405000I0J250000D01*
G01*
X122270000Y-62895000D01*
G75*
G02*
X122520000Y-62645000I250000J0D01*
G01*
G37*
G36*
G01*
X122520000Y-63895000D02*
X123030000Y-63895000D01*
G75*
G02*
X123280000Y-64145000I0J-250000D01*
G01*
X123280000Y-64655000D01*
G75*
G02*
X123030000Y-64905000I-250000J0D01*
G01*
X122520000Y-64905000D01*
G75*
G02*
X122270000Y-64655000I0J250000D01*
G01*
X122270000Y-64145000D01*
G75*
G02*
X122520000Y-63895000I250000J0D01*
G01*
G37*
G36*
G01*
X123770000Y-63895000D02*
X124280000Y-63895000D01*
G75*
G02*
X124530000Y-64145000I0J-250000D01*
G01*
X124530000Y-64655000D01*
G75*
G02*
X124280000Y-64905000I-250000J0D01*
G01*
X123770000Y-64905000D01*
G75*
G02*
X123520000Y-64655000I0J250000D01*
G01*
X123520000Y-64145000D01*
G75*
G02*
X123770000Y-63895000I250000J0D01*
G01*
G37*
G36*
G01*
X124587500Y-61400000D02*
X124712500Y-61400000D01*
G75*
G02*
X124775000Y-61462500I0J-62500D01*
G01*
X124775000Y-62212500D01*
G75*
G02*
X124712500Y-62275000I-62500J0D01*
G01*
X124587500Y-62275000D01*
G75*
G02*
X124525000Y-62212500I0J62500D01*
G01*
X124525000Y-61462500D01*
G75*
G02*
X124587500Y-61400000I62500J0D01*
G01*
G37*
G36*
G01*
X124087500Y-61400000D02*
X124212500Y-61400000D01*
G75*
G02*
X124275000Y-61462500I0J-62500D01*
G01*
X124275000Y-62212500D01*
G75*
G02*
X124212500Y-62275000I-62500J0D01*
G01*
X124087500Y-62275000D01*
G75*
G02*
X124025000Y-62212500I0J62500D01*
G01*
X124025000Y-61462500D01*
G75*
G02*
X124087500Y-61400000I62500J0D01*
G01*
G37*
G36*
G01*
X123587500Y-61400000D02*
X123712500Y-61400000D01*
G75*
G02*
X123775000Y-61462500I0J-62500D01*
G01*
X123775000Y-62212500D01*
G75*
G02*
X123712500Y-62275000I-62500J0D01*
G01*
X123587500Y-62275000D01*
G75*
G02*
X123525000Y-62212500I0J62500D01*
G01*
X123525000Y-61462500D01*
G75*
G02*
X123587500Y-61400000I62500J0D01*
G01*
G37*
G36*
G01*
X123087500Y-61400000D02*
X123212500Y-61400000D01*
G75*
G02*
X123275000Y-61462500I0J-62500D01*
G01*
X123275000Y-62212500D01*
G75*
G02*
X123212500Y-62275000I-62500J0D01*
G01*
X123087500Y-62275000D01*
G75*
G02*
X123025000Y-62212500I0J62500D01*
G01*
X123025000Y-61462500D01*
G75*
G02*
X123087500Y-61400000I62500J0D01*
G01*
G37*
G36*
G01*
X122587500Y-61400000D02*
X122712500Y-61400000D01*
G75*
G02*
X122775000Y-61462500I0J-62500D01*
G01*
X122775000Y-62212500D01*
G75*
G02*
X122712500Y-62275000I-62500J0D01*
G01*
X122587500Y-62275000D01*
G75*
G02*
X122525000Y-62212500I0J62500D01*
G01*
X122525000Y-61462500D01*
G75*
G02*
X122587500Y-61400000I62500J0D01*
G01*
G37*
G36*
G01*
X122087500Y-61400000D02*
X122212500Y-61400000D01*
G75*
G02*
X122275000Y-61462500I0J-62500D01*
G01*
X122275000Y-62212500D01*
G75*
G02*
X122212500Y-62275000I-62500J0D01*
G01*
X122087500Y-62275000D01*
G75*
G02*
X122025000Y-62212500I0J62500D01*
G01*
X122025000Y-61462500D01*
G75*
G02*
X122087500Y-61400000I62500J0D01*
G01*
G37*
G36*
G01*
X121087500Y-62400000D02*
X121837500Y-62400000D01*
G75*
G02*
X121900000Y-62462500I0J-62500D01*
G01*
X121900000Y-62587500D01*
G75*
G02*
X121837500Y-62650000I-62500J0D01*
G01*
X121087500Y-62650000D01*
G75*
G02*
X121025000Y-62587500I0J62500D01*
G01*
X121025000Y-62462500D01*
G75*
G02*
X121087500Y-62400000I62500J0D01*
G01*
G37*
G36*
G01*
X121087500Y-62900000D02*
X121837500Y-62900000D01*
G75*
G02*
X121900000Y-62962500I0J-62500D01*
G01*
X121900000Y-63087500D01*
G75*
G02*
X121837500Y-63150000I-62500J0D01*
G01*
X121087500Y-63150000D01*
G75*
G02*
X121025000Y-63087500I0J62500D01*
G01*
X121025000Y-62962500D01*
G75*
G02*
X121087500Y-62900000I62500J0D01*
G01*
G37*
G36*
G01*
X121087500Y-63400000D02*
X121837500Y-63400000D01*
G75*
G02*
X121900000Y-63462500I0J-62500D01*
G01*
X121900000Y-63587500D01*
G75*
G02*
X121837500Y-63650000I-62500J0D01*
G01*
X121087500Y-63650000D01*
G75*
G02*
X121025000Y-63587500I0J62500D01*
G01*
X121025000Y-63462500D01*
G75*
G02*
X121087500Y-63400000I62500J0D01*
G01*
G37*
G36*
G01*
X121087500Y-63900000D02*
X121837500Y-63900000D01*
G75*
G02*
X121900000Y-63962500I0J-62500D01*
G01*
X121900000Y-64087500D01*
G75*
G02*
X121837500Y-64150000I-62500J0D01*
G01*
X121087500Y-64150000D01*
G75*
G02*
X121025000Y-64087500I0J62500D01*
G01*
X121025000Y-63962500D01*
G75*
G02*
X121087500Y-63900000I62500J0D01*
G01*
G37*
G36*
G01*
X121087500Y-64400000D02*
X121837500Y-64400000D01*
G75*
G02*
X121900000Y-64462500I0J-62500D01*
G01*
X121900000Y-64587500D01*
G75*
G02*
X121837500Y-64650000I-62500J0D01*
G01*
X121087500Y-64650000D01*
G75*
G02*
X121025000Y-64587500I0J62500D01*
G01*
X121025000Y-64462500D01*
G75*
G02*
X121087500Y-64400000I62500J0D01*
G01*
G37*
G36*
G01*
X121087500Y-64900000D02*
X121837500Y-64900000D01*
G75*
G02*
X121900000Y-64962500I0J-62500D01*
G01*
X121900000Y-65087500D01*
G75*
G02*
X121837500Y-65150000I-62500J0D01*
G01*
X121087500Y-65150000D01*
G75*
G02*
X121025000Y-65087500I0J62500D01*
G01*
X121025000Y-64962500D01*
G75*
G02*
X121087500Y-64900000I62500J0D01*
G01*
G37*
G36*
G01*
X122087500Y-65275000D02*
X122212500Y-65275000D01*
G75*
G02*
X122275000Y-65337500I0J-62500D01*
G01*
X122275000Y-66087500D01*
G75*
G02*
X122212500Y-66150000I-62500J0D01*
G01*
X122087500Y-66150000D01*
G75*
G02*
X122025000Y-66087500I0J62500D01*
G01*
X122025000Y-65337500D01*
G75*
G02*
X122087500Y-65275000I62500J0D01*
G01*
G37*
G36*
G01*
X122587500Y-65275000D02*
X122712500Y-65275000D01*
G75*
G02*
X122775000Y-65337500I0J-62500D01*
G01*
X122775000Y-66087500D01*
G75*
G02*
X122712500Y-66150000I-62500J0D01*
G01*
X122587500Y-66150000D01*
G75*
G02*
X122525000Y-66087500I0J62500D01*
G01*
X122525000Y-65337500D01*
G75*
G02*
X122587500Y-65275000I62500J0D01*
G01*
G37*
G36*
G01*
X123087500Y-65275000D02*
X123212500Y-65275000D01*
G75*
G02*
X123275000Y-65337500I0J-62500D01*
G01*
X123275000Y-66087500D01*
G75*
G02*
X123212500Y-66150000I-62500J0D01*
G01*
X123087500Y-66150000D01*
G75*
G02*
X123025000Y-66087500I0J62500D01*
G01*
X123025000Y-65337500D01*
G75*
G02*
X123087500Y-65275000I62500J0D01*
G01*
G37*
G36*
G01*
X123587500Y-65275000D02*
X123712500Y-65275000D01*
G75*
G02*
X123775000Y-65337500I0J-62500D01*
G01*
X123775000Y-66087500D01*
G75*
G02*
X123712500Y-66150000I-62500J0D01*
G01*
X123587500Y-66150000D01*
G75*
G02*
X123525000Y-66087500I0J62500D01*
G01*
X123525000Y-65337500D01*
G75*
G02*
X123587500Y-65275000I62500J0D01*
G01*
G37*
G36*
G01*
X124087500Y-65275000D02*
X124212500Y-65275000D01*
G75*
G02*
X124275000Y-65337500I0J-62500D01*
G01*
X124275000Y-66087500D01*
G75*
G02*
X124212500Y-66150000I-62500J0D01*
G01*
X124087500Y-66150000D01*
G75*
G02*
X124025000Y-66087500I0J62500D01*
G01*
X124025000Y-65337500D01*
G75*
G02*
X124087500Y-65275000I62500J0D01*
G01*
G37*
G36*
G01*
X124587500Y-65275000D02*
X124712500Y-65275000D01*
G75*
G02*
X124775000Y-65337500I0J-62500D01*
G01*
X124775000Y-66087500D01*
G75*
G02*
X124712500Y-66150000I-62500J0D01*
G01*
X124587500Y-66150000D01*
G75*
G02*
X124525000Y-66087500I0J62500D01*
G01*
X124525000Y-65337500D01*
G75*
G02*
X124587500Y-65275000I62500J0D01*
G01*
G37*
G36*
G01*
X124962500Y-64900000D02*
X125712500Y-64900000D01*
G75*
G02*
X125775000Y-64962500I0J-62500D01*
G01*
X125775000Y-65087500D01*
G75*
G02*
X125712500Y-65150000I-62500J0D01*
G01*
X124962500Y-65150000D01*
G75*
G02*
X124900000Y-65087500I0J62500D01*
G01*
X124900000Y-64962500D01*
G75*
G02*
X124962500Y-64900000I62500J0D01*
G01*
G37*
G36*
G01*
X124962500Y-64400000D02*
X125712500Y-64400000D01*
G75*
G02*
X125775000Y-64462500I0J-62500D01*
G01*
X125775000Y-64587500D01*
G75*
G02*
X125712500Y-64650000I-62500J0D01*
G01*
X124962500Y-64650000D01*
G75*
G02*
X124900000Y-64587500I0J62500D01*
G01*
X124900000Y-64462500D01*
G75*
G02*
X124962500Y-64400000I62500J0D01*
G01*
G37*
G36*
G01*
X124962500Y-63900000D02*
X125712500Y-63900000D01*
G75*
G02*
X125775000Y-63962500I0J-62500D01*
G01*
X125775000Y-64087500D01*
G75*
G02*
X125712500Y-64150000I-62500J0D01*
G01*
X124962500Y-64150000D01*
G75*
G02*
X124900000Y-64087500I0J62500D01*
G01*
X124900000Y-63962500D01*
G75*
G02*
X124962500Y-63900000I62500J0D01*
G01*
G37*
G36*
G01*
X124962500Y-63400000D02*
X125712500Y-63400000D01*
G75*
G02*
X125775000Y-63462500I0J-62500D01*
G01*
X125775000Y-63587500D01*
G75*
G02*
X125712500Y-63650000I-62500J0D01*
G01*
X124962500Y-63650000D01*
G75*
G02*
X124900000Y-63587500I0J62500D01*
G01*
X124900000Y-63462500D01*
G75*
G02*
X124962500Y-63400000I62500J0D01*
G01*
G37*
G36*
G01*
X124962500Y-62900000D02*
X125712500Y-62900000D01*
G75*
G02*
X125775000Y-62962500I0J-62500D01*
G01*
X125775000Y-63087500D01*
G75*
G02*
X125712500Y-63150000I-62500J0D01*
G01*
X124962500Y-63150000D01*
G75*
G02*
X124900000Y-63087500I0J62500D01*
G01*
X124900000Y-62962500D01*
G75*
G02*
X124962500Y-62900000I62500J0D01*
G01*
G37*
G36*
G01*
X124962500Y-62400000D02*
X125712500Y-62400000D01*
G75*
G02*
X125775000Y-62462500I0J-62500D01*
G01*
X125775000Y-62587500D01*
G75*
G02*
X125712500Y-62650000I-62500J0D01*
G01*
X124962500Y-62650000D01*
G75*
G02*
X124900000Y-62587500I0J62500D01*
G01*
X124900000Y-62462500D01*
G75*
G02*
X124962500Y-62400000I62500J0D01*
G01*
G37*
G04 #@! TD*
G04 #@! TO.C,C26*
G36*
G01*
X113400500Y-62414000D02*
X113199500Y-62414000D01*
G75*
G02*
X113120000Y-62334500I0J79500D01*
G01*
X113120000Y-62175500D01*
G75*
G02*
X113199500Y-62096000I79500J0D01*
G01*
X113400500Y-62096000D01*
G75*
G02*
X113480000Y-62175500I0J-79500D01*
G01*
X113480000Y-62334500D01*
G75*
G02*
X113400500Y-62414000I-79500J0D01*
G01*
G37*
G36*
G01*
X113400500Y-63104000D02*
X113199500Y-63104000D01*
G75*
G02*
X113120000Y-63024500I0J79500D01*
G01*
X113120000Y-62865500D01*
G75*
G02*
X113199500Y-62786000I79500J0D01*
G01*
X113400500Y-62786000D01*
G75*
G02*
X113480000Y-62865500I0J-79500D01*
G01*
X113480000Y-63024500D01*
G75*
G02*
X113400500Y-63104000I-79500J0D01*
G01*
G37*
G04 #@! TD*
G04 #@! TO.C,L19*
G36*
G01*
X139668750Y-70512500D02*
X140431250Y-70512500D01*
G75*
G02*
X140650000Y-70731250I0J-218750D01*
G01*
X140650000Y-71168750D01*
G75*
G02*
X140431250Y-71387500I-218750J0D01*
G01*
X139668750Y-71387500D01*
G75*
G02*
X139450000Y-71168750I0J218750D01*
G01*
X139450000Y-70731250D01*
G75*
G02*
X139668750Y-70512500I218750J0D01*
G01*
G37*
G36*
G01*
X139668750Y-72637500D02*
X140431250Y-72637500D01*
G75*
G02*
X140650000Y-72856250I0J-218750D01*
G01*
X140650000Y-73293750D01*
G75*
G02*
X140431250Y-73512500I-218750J0D01*
G01*
X139668750Y-73512500D01*
G75*
G02*
X139450000Y-73293750I0J218750D01*
G01*
X139450000Y-72856250D01*
G75*
G02*
X139668750Y-72637500I218750J0D01*
G01*
G37*
G04 #@! TD*
G04 #@! TO.C,C20*
G36*
G01*
X131800499Y-62539000D02*
X131599499Y-62539000D01*
G75*
G02*
X131519999Y-62459500I0J79500D01*
G01*
X131519999Y-62300500D01*
G75*
G02*
X131599499Y-62221000I79500J0D01*
G01*
X131800499Y-62221000D01*
G75*
G02*
X131879999Y-62300500I0J-79500D01*
G01*
X131879999Y-62459500D01*
G75*
G02*
X131800499Y-62539000I-79500J0D01*
G01*
G37*
G36*
G01*
X131800499Y-61849000D02*
X131599499Y-61849000D01*
G75*
G02*
X131519999Y-61769500I0J79500D01*
G01*
X131519999Y-61610500D01*
G75*
G02*
X131599499Y-61531000I79500J0D01*
G01*
X131800499Y-61531000D01*
G75*
G02*
X131879999Y-61610500I0J-79500D01*
G01*
X131879999Y-61769500D01*
G75*
G02*
X131800499Y-61849000I-79500J0D01*
G01*
G37*
G04 #@! TD*
G04 #@! TO.C,C22*
G36*
G01*
X117175273Y-66400500D02*
X117175273Y-66199500D01*
G75*
G02*
X117254773Y-66120000I79500J0D01*
G01*
X117413773Y-66120000D01*
G75*
G02*
X117493273Y-66199500I0J-79500D01*
G01*
X117493273Y-66400500D01*
G75*
G02*
X117413773Y-66480000I-79500J0D01*
G01*
X117254773Y-66480000D01*
G75*
G02*
X117175273Y-66400500I0J79500D01*
G01*
G37*
G36*
G01*
X116485273Y-66400500D02*
X116485273Y-66199500D01*
G75*
G02*
X116564773Y-66120000I79500J0D01*
G01*
X116723773Y-66120000D01*
G75*
G02*
X116803273Y-66199500I0J-79500D01*
G01*
X116803273Y-66400500D01*
G75*
G02*
X116723773Y-66480000I-79500J0D01*
G01*
X116564773Y-66480000D01*
G75*
G02*
X116485273Y-66400500I0J79500D01*
G01*
G37*
G04 #@! TD*
G04 #@! TO.C,C32*
G36*
G01*
X110870000Y-59060000D02*
X110530000Y-59060000D01*
G75*
G02*
X110390000Y-58920000I0J140000D01*
G01*
X110390000Y-58640000D01*
G75*
G02*
X110530000Y-58500000I140000J0D01*
G01*
X110870000Y-58500000D01*
G75*
G02*
X111010000Y-58640000I0J-140000D01*
G01*
X111010000Y-58920000D01*
G75*
G02*
X110870000Y-59060000I-140000J0D01*
G01*
G37*
G36*
G01*
X110870000Y-58100000D02*
X110530000Y-58100000D01*
G75*
G02*
X110390000Y-57960000I0J140000D01*
G01*
X110390000Y-57680000D01*
G75*
G02*
X110530000Y-57540000I140000J0D01*
G01*
X110870000Y-57540000D01*
G75*
G02*
X111010000Y-57680000I0J-140000D01*
G01*
X111010000Y-57960000D01*
G75*
G02*
X110870000Y-58100000I-140000J0D01*
G01*
G37*
G04 #@! TD*
G04 #@! TO.C,R23*
G36*
G01*
X128949500Y-76211000D02*
X129150500Y-76211000D01*
G75*
G02*
X129230000Y-76290500I0J-79500D01*
G01*
X129230000Y-76449500D01*
G75*
G02*
X129150500Y-76529000I-79500J0D01*
G01*
X128949500Y-76529000D01*
G75*
G02*
X128870000Y-76449500I0J79500D01*
G01*
X128870000Y-76290500D01*
G75*
G02*
X128949500Y-76211000I79500J0D01*
G01*
G37*
G36*
G01*
X128949500Y-75521000D02*
X129150500Y-75521000D01*
G75*
G02*
X129230000Y-75600500I0J-79500D01*
G01*
X129230000Y-75759500D01*
G75*
G02*
X129150500Y-75839000I-79500J0D01*
G01*
X128949500Y-75839000D01*
G75*
G02*
X128870000Y-75759500I0J79500D01*
G01*
X128870000Y-75600500D01*
G75*
G02*
X128949500Y-75521000I79500J0D01*
G01*
G37*
G04 #@! TD*
G04 #@! TO.C,C1*
G36*
G01*
X124570000Y-60980000D02*
X124230000Y-60980000D01*
G75*
G02*
X124090000Y-60840000I0J140000D01*
G01*
X124090000Y-60560000D01*
G75*
G02*
X124230000Y-60420000I140000J0D01*
G01*
X124570000Y-60420000D01*
G75*
G02*
X124710000Y-60560000I0J-140000D01*
G01*
X124710000Y-60840000D01*
G75*
G02*
X124570000Y-60980000I-140000J0D01*
G01*
G37*
G36*
G01*
X124570000Y-60020000D02*
X124230000Y-60020000D01*
G75*
G02*
X124090000Y-59880000I0J140000D01*
G01*
X124090000Y-59600000D01*
G75*
G02*
X124230000Y-59460000I140000J0D01*
G01*
X124570000Y-59460000D01*
G75*
G02*
X124710000Y-59600000I0J-140000D01*
G01*
X124710000Y-59880000D01*
G75*
G02*
X124570000Y-60020000I-140000J0D01*
G01*
G37*
G04 #@! TD*
G04 #@! TO.C,C4*
G36*
G01*
X120280000Y-72030000D02*
X120280000Y-72370000D01*
G75*
G02*
X120140000Y-72510000I-140000J0D01*
G01*
X119860000Y-72510000D01*
G75*
G02*
X119720000Y-72370000I0J140000D01*
G01*
X119720000Y-72030000D01*
G75*
G02*
X119860000Y-71890000I140000J0D01*
G01*
X120140000Y-71890000D01*
G75*
G02*
X120280000Y-72030000I0J-140000D01*
G01*
G37*
G36*
G01*
X119320000Y-72030000D02*
X119320000Y-72370000D01*
G75*
G02*
X119180000Y-72510000I-140000J0D01*
G01*
X118900000Y-72510000D01*
G75*
G02*
X118760000Y-72370000I0J140000D01*
G01*
X118760000Y-72030000D01*
G75*
G02*
X118900000Y-71890000I140000J0D01*
G01*
X119180000Y-71890000D01*
G75*
G02*
X119320000Y-72030000I0J-140000D01*
G01*
G37*
G04 #@! TD*
G04 #@! TO.C,C8*
G36*
G01*
X123600500Y-60214000D02*
X123399500Y-60214000D01*
G75*
G02*
X123320000Y-60134500I0J79500D01*
G01*
X123320000Y-59975500D01*
G75*
G02*
X123399500Y-59896000I79500J0D01*
G01*
X123600500Y-59896000D01*
G75*
G02*
X123680000Y-59975500I0J-79500D01*
G01*
X123680000Y-60134500D01*
G75*
G02*
X123600500Y-60214000I-79500J0D01*
G01*
G37*
G36*
G01*
X123600500Y-60904000D02*
X123399500Y-60904000D01*
G75*
G02*
X123320000Y-60824500I0J79500D01*
G01*
X123320000Y-60665500D01*
G75*
G02*
X123399500Y-60586000I79500J0D01*
G01*
X123600500Y-60586000D01*
G75*
G02*
X123680000Y-60665500I0J-79500D01*
G01*
X123680000Y-60824500D01*
G75*
G02*
X123600500Y-60904000I-79500J0D01*
G01*
G37*
G04 #@! TD*
G04 #@! TO.C,L20*
G36*
G01*
X116739000Y-58249500D02*
X116739000Y-58450500D01*
G75*
G02*
X116659500Y-58530000I-79500J0D01*
G01*
X116500500Y-58530000D01*
G75*
G02*
X116421000Y-58450500I0J79500D01*
G01*
X116421000Y-58249500D01*
G75*
G02*
X116500500Y-58170000I79500J0D01*
G01*
X116659500Y-58170000D01*
G75*
G02*
X116739000Y-58249500I0J-79500D01*
G01*
G37*
G36*
G01*
X117429000Y-58249500D02*
X117429000Y-58450500D01*
G75*
G02*
X117349500Y-58530000I-79500J0D01*
G01*
X117190500Y-58530000D01*
G75*
G02*
X117111000Y-58450500I0J79500D01*
G01*
X117111000Y-58249500D01*
G75*
G02*
X117190500Y-58170000I79500J0D01*
G01*
X117349500Y-58170000D01*
G75*
G02*
X117429000Y-58249500I0J-79500D01*
G01*
G37*
G04 #@! TD*
D26*
G04 #@! TO.C,U5*
X115675000Y-60225000D03*
X115675000Y-61875000D03*
X117225000Y-61875000D03*
X117225000Y-60225000D03*
G04 #@! TD*
G04 #@! TO.C,R16*
G36*
G01*
X114951000Y-74300500D02*
X114951000Y-74099500D01*
G75*
G02*
X115030500Y-74020000I79500J0D01*
G01*
X115189500Y-74020000D01*
G75*
G02*
X115269000Y-74099500I0J-79500D01*
G01*
X115269000Y-74300500D01*
G75*
G02*
X115189500Y-74380000I-79500J0D01*
G01*
X115030500Y-74380000D01*
G75*
G02*
X114951000Y-74300500I0J79500D01*
G01*
G37*
G36*
G01*
X115641000Y-74300500D02*
X115641000Y-74099500D01*
G75*
G02*
X115720500Y-74020000I79500J0D01*
G01*
X115879500Y-74020000D01*
G75*
G02*
X115959000Y-74099500I0J-79500D01*
G01*
X115959000Y-74300500D01*
G75*
G02*
X115879500Y-74380000I-79500J0D01*
G01*
X115720500Y-74380000D01*
G75*
G02*
X115641000Y-74300500I0J79500D01*
G01*
G37*
G04 #@! TD*
G04 #@! TO.C,R11*
G36*
G01*
X104185000Y-74980000D02*
X103815000Y-74980000D01*
G75*
G02*
X103680000Y-74845000I0J135000D01*
G01*
X103680000Y-74575000D01*
G75*
G02*
X103815000Y-74440000I135000J0D01*
G01*
X104185000Y-74440000D01*
G75*
G02*
X104320000Y-74575000I0J-135000D01*
G01*
X104320000Y-74845000D01*
G75*
G02*
X104185000Y-74980000I-135000J0D01*
G01*
G37*
G36*
G01*
X104185000Y-73960000D02*
X103815000Y-73960000D01*
G75*
G02*
X103680000Y-73825000I0J135000D01*
G01*
X103680000Y-73555000D01*
G75*
G02*
X103815000Y-73420000I135000J0D01*
G01*
X104185000Y-73420000D01*
G75*
G02*
X104320000Y-73555000I0J-135000D01*
G01*
X104320000Y-73825000D01*
G75*
G02*
X104185000Y-73960000I-135000J0D01*
G01*
G37*
G04 #@! TD*
D27*
G04 #@! TO.C,U9*
X134650000Y-73918500D03*
X135149999Y-73918500D03*
X135650000Y-73918500D03*
X136150000Y-73918500D03*
X136650001Y-73918500D03*
X137150000Y-73918500D03*
D28*
X137868500Y-73200000D03*
X137868500Y-72700001D03*
X137868500Y-72200000D03*
X137868500Y-71700000D03*
X137868500Y-71199999D03*
X137868500Y-70700000D03*
D27*
X137150000Y-69981500D03*
X136650001Y-69981500D03*
X136150000Y-69981500D03*
X135650000Y-69981500D03*
X135149999Y-69981500D03*
X134650000Y-69981500D03*
D28*
X133931500Y-70700000D03*
X133931500Y-71199999D03*
X133931500Y-71700000D03*
X133931500Y-72200000D03*
X133931500Y-72700001D03*
X133931500Y-73200000D03*
D29*
X135900000Y-71950000D03*
G04 #@! TD*
G04 #@! TO.C,L2*
G36*
G01*
X119518750Y-68500000D02*
X120281250Y-68500000D01*
G75*
G02*
X120500000Y-68718750I0J-218750D01*
G01*
X120500000Y-69156250D01*
G75*
G02*
X120281250Y-69375000I-218750J0D01*
G01*
X119518750Y-69375000D01*
G75*
G02*
X119300000Y-69156250I0J218750D01*
G01*
X119300000Y-68718750D01*
G75*
G02*
X119518750Y-68500000I218750J0D01*
G01*
G37*
G36*
G01*
X119518750Y-70625000D02*
X120281250Y-70625000D01*
G75*
G02*
X120500000Y-70843750I0J-218750D01*
G01*
X120500000Y-71281250D01*
G75*
G02*
X120281250Y-71500000I-218750J0D01*
G01*
X119518750Y-71500000D01*
G75*
G02*
X119300000Y-71281250I0J218750D01*
G01*
X119300000Y-70843750D01*
G75*
G02*
X119518750Y-70625000I218750J0D01*
G01*
G37*
G04 #@! TD*
G04 #@! TO.C,C14*
G36*
G01*
X128514000Y-71899500D02*
X128514000Y-72100500D01*
G75*
G02*
X128434500Y-72180000I-79500J0D01*
G01*
X128275500Y-72180000D01*
G75*
G02*
X128196000Y-72100500I0J79500D01*
G01*
X128196000Y-71899500D01*
G75*
G02*
X128275500Y-71820000I79500J0D01*
G01*
X128434500Y-71820000D01*
G75*
G02*
X128514000Y-71899500I0J-79500D01*
G01*
G37*
G36*
G01*
X129204000Y-71899500D02*
X129204000Y-72100500D01*
G75*
G02*
X129124500Y-72180000I-79500J0D01*
G01*
X128965500Y-72180000D01*
G75*
G02*
X128886000Y-72100500I0J79500D01*
G01*
X128886000Y-71899500D01*
G75*
G02*
X128965500Y-71820000I79500J0D01*
G01*
X129124500Y-71820000D01*
G75*
G02*
X129204000Y-71899500I0J-79500D01*
G01*
G37*
G04 #@! TD*
G04 #@! TO.C,L3*
G36*
G01*
X126599500Y-61616000D02*
X126800500Y-61616000D01*
G75*
G02*
X126880000Y-61695500I0J-79500D01*
G01*
X126880000Y-61854500D01*
G75*
G02*
X126800500Y-61934000I-79500J0D01*
G01*
X126599500Y-61934000D01*
G75*
G02*
X126520000Y-61854500I0J79500D01*
G01*
X126520000Y-61695500D01*
G75*
G02*
X126599500Y-61616000I79500J0D01*
G01*
G37*
G36*
G01*
X126599500Y-62306000D02*
X126800500Y-62306000D01*
G75*
G02*
X126880000Y-62385500I0J-79500D01*
G01*
X126880000Y-62544500D01*
G75*
G02*
X126800500Y-62624000I-79500J0D01*
G01*
X126599500Y-62624000D01*
G75*
G02*
X126520000Y-62544500I0J79500D01*
G01*
X126520000Y-62385500D01*
G75*
G02*
X126599500Y-62306000I79500J0D01*
G01*
G37*
G04 #@! TD*
G04 #@! TO.C,R9*
G36*
G01*
X106666000Y-68100500D02*
X106666000Y-67899500D01*
G75*
G02*
X106745500Y-67820000I79500J0D01*
G01*
X106904500Y-67820000D01*
G75*
G02*
X106984000Y-67899500I0J-79500D01*
G01*
X106984000Y-68100500D01*
G75*
G02*
X106904500Y-68180000I-79500J0D01*
G01*
X106745500Y-68180000D01*
G75*
G02*
X106666000Y-68100500I0J79500D01*
G01*
G37*
G36*
G01*
X105976000Y-68100500D02*
X105976000Y-67899500D01*
G75*
G02*
X106055500Y-67820000I79500J0D01*
G01*
X106214500Y-67820000D01*
G75*
G02*
X106294000Y-67899500I0J-79500D01*
G01*
X106294000Y-68100500D01*
G75*
G02*
X106214500Y-68180000I-79500J0D01*
G01*
X106055500Y-68180000D01*
G75*
G02*
X105976000Y-68100500I0J79500D01*
G01*
G37*
G04 #@! TD*
G04 #@! TO.C,D6*
G36*
G01*
X150372500Y-75767500D02*
X150027500Y-75767500D01*
G75*
G02*
X149880000Y-75620000I0J147500D01*
G01*
X149880000Y-75325000D01*
G75*
G02*
X150027500Y-75177500I147500J0D01*
G01*
X150372500Y-75177500D01*
G75*
G02*
X150520000Y-75325000I0J-147500D01*
G01*
X150520000Y-75620000D01*
G75*
G02*
X150372500Y-75767500I-147500J0D01*
G01*
G37*
G36*
G01*
X150372500Y-74797500D02*
X150027500Y-74797500D01*
G75*
G02*
X149880000Y-74650000I0J147500D01*
G01*
X149880000Y-74355000D01*
G75*
G02*
X150027500Y-74207500I147500J0D01*
G01*
X150372500Y-74207500D01*
G75*
G02*
X150520000Y-74355000I0J-147500D01*
G01*
X150520000Y-74650000D01*
G75*
G02*
X150372500Y-74797500I-147500J0D01*
G01*
G37*
G04 #@! TD*
G04 #@! TO.C,C34*
G36*
G01*
X106975000Y-61050000D02*
X106975000Y-60550000D01*
G75*
G02*
X107200000Y-60325000I225000J0D01*
G01*
X107650000Y-60325000D01*
G75*
G02*
X107875000Y-60550000I0J-225000D01*
G01*
X107875000Y-61050000D01*
G75*
G02*
X107650000Y-61275000I-225000J0D01*
G01*
X107200000Y-61275000D01*
G75*
G02*
X106975000Y-61050000I0J225000D01*
G01*
G37*
G36*
G01*
X108525000Y-61050000D02*
X108525000Y-60550000D01*
G75*
G02*
X108750000Y-60325000I225000J0D01*
G01*
X109200000Y-60325000D01*
G75*
G02*
X109425000Y-60550000I0J-225000D01*
G01*
X109425000Y-61050000D01*
G75*
G02*
X109200000Y-61275000I-225000J0D01*
G01*
X108750000Y-61275000D01*
G75*
G02*
X108525000Y-61050000I0J225000D01*
G01*
G37*
G04 #@! TD*
G04 #@! TO.C,C17*
G36*
G01*
X129704000Y-61599500D02*
X129704000Y-61800500D01*
G75*
G02*
X129624500Y-61880000I-79500J0D01*
G01*
X129465500Y-61880000D01*
G75*
G02*
X129386000Y-61800500I0J79500D01*
G01*
X129386000Y-61599500D01*
G75*
G02*
X129465500Y-61520000I79500J0D01*
G01*
X129624500Y-61520000D01*
G75*
G02*
X129704000Y-61599500I0J-79500D01*
G01*
G37*
G36*
G01*
X129014000Y-61599500D02*
X129014000Y-61800500D01*
G75*
G02*
X128934500Y-61880000I-79500J0D01*
G01*
X128775500Y-61880000D01*
G75*
G02*
X128696000Y-61800500I0J79500D01*
G01*
X128696000Y-61599500D01*
G75*
G02*
X128775500Y-61520000I79500J0D01*
G01*
X128934500Y-61520000D01*
G75*
G02*
X129014000Y-61599500I0J-79500D01*
G01*
G37*
G04 #@! TD*
G04 #@! TO.C,L8*
G36*
G01*
X138100500Y-61809000D02*
X137899500Y-61809000D01*
G75*
G02*
X137820000Y-61729500I0J79500D01*
G01*
X137820000Y-61570500D01*
G75*
G02*
X137899500Y-61491000I79500J0D01*
G01*
X138100500Y-61491000D01*
G75*
G02*
X138180000Y-61570500I0J-79500D01*
G01*
X138180000Y-61729500D01*
G75*
G02*
X138100500Y-61809000I-79500J0D01*
G01*
G37*
G36*
G01*
X138100500Y-62499000D02*
X137899500Y-62499000D01*
G75*
G02*
X137820000Y-62419500I0J79500D01*
G01*
X137820000Y-62260500D01*
G75*
G02*
X137899500Y-62181000I79500J0D01*
G01*
X138100500Y-62181000D01*
G75*
G02*
X138180000Y-62260500I0J-79500D01*
G01*
X138180000Y-62419500D01*
G75*
G02*
X138100500Y-62499000I-79500J0D01*
G01*
G37*
G04 #@! TD*
G04 #@! TO.C,C23*
G36*
G01*
X106294000Y-69699500D02*
X106294000Y-69900500D01*
G75*
G02*
X106214500Y-69980000I-79500J0D01*
G01*
X106055500Y-69980000D01*
G75*
G02*
X105976000Y-69900500I0J79500D01*
G01*
X105976000Y-69699500D01*
G75*
G02*
X106055500Y-69620000I79500J0D01*
G01*
X106214500Y-69620000D01*
G75*
G02*
X106294000Y-69699500I0J-79500D01*
G01*
G37*
G36*
G01*
X106984000Y-69699500D02*
X106984000Y-69900500D01*
G75*
G02*
X106904500Y-69980000I-79500J0D01*
G01*
X106745500Y-69980000D01*
G75*
G02*
X106666000Y-69900500I0J79500D01*
G01*
X106666000Y-69699500D01*
G75*
G02*
X106745500Y-69620000I79500J0D01*
G01*
X106904500Y-69620000D01*
G75*
G02*
X106984000Y-69699500I0J-79500D01*
G01*
G37*
G04 #@! TD*
G04 #@! TO.C,R2*
G36*
G01*
X122714000Y-67599500D02*
X122714000Y-67800500D01*
G75*
G02*
X122634500Y-67880000I-79500J0D01*
G01*
X122475500Y-67880000D01*
G75*
G02*
X122396000Y-67800500I0J79500D01*
G01*
X122396000Y-67599500D01*
G75*
G02*
X122475500Y-67520000I79500J0D01*
G01*
X122634500Y-67520000D01*
G75*
G02*
X122714000Y-67599500I0J-79500D01*
G01*
G37*
G36*
G01*
X123404000Y-67599500D02*
X123404000Y-67800500D01*
G75*
G02*
X123324500Y-67880000I-79500J0D01*
G01*
X123165500Y-67880000D01*
G75*
G02*
X123086000Y-67800500I0J79500D01*
G01*
X123086000Y-67599500D01*
G75*
G02*
X123165500Y-67520000I79500J0D01*
G01*
X123324500Y-67520000D01*
G75*
G02*
X123404000Y-67599500I0J-79500D01*
G01*
G37*
G04 #@! TD*
G04 #@! TO.C,C54*
G36*
G01*
X106294000Y-65499500D02*
X106294000Y-65700500D01*
G75*
G02*
X106214500Y-65780000I-79500J0D01*
G01*
X106055500Y-65780000D01*
G75*
G02*
X105976000Y-65700500I0J79500D01*
G01*
X105976000Y-65499500D01*
G75*
G02*
X106055500Y-65420000I79500J0D01*
G01*
X106214500Y-65420000D01*
G75*
G02*
X106294000Y-65499500I0J-79500D01*
G01*
G37*
G36*
G01*
X106984000Y-65499500D02*
X106984000Y-65700500D01*
G75*
G02*
X106904500Y-65780000I-79500J0D01*
G01*
X106745500Y-65780000D01*
G75*
G02*
X106666000Y-65700500I0J79500D01*
G01*
X106666000Y-65499500D01*
G75*
G02*
X106745500Y-65420000I79500J0D01*
G01*
X106904500Y-65420000D01*
G75*
G02*
X106984000Y-65499500I0J-79500D01*
G01*
G37*
G04 #@! TD*
G04 #@! TO.C,C31*
G36*
G01*
X146430000Y-60490000D02*
X146770000Y-60490000D01*
G75*
G02*
X146910000Y-60630000I0J-140000D01*
G01*
X146910000Y-60910000D01*
G75*
G02*
X146770000Y-61050000I-140000J0D01*
G01*
X146430000Y-61050000D01*
G75*
G02*
X146290000Y-60910000I0J140000D01*
G01*
X146290000Y-60630000D01*
G75*
G02*
X146430000Y-60490000I140000J0D01*
G01*
G37*
G36*
G01*
X146430000Y-61450000D02*
X146770000Y-61450000D01*
G75*
G02*
X146910000Y-61590000I0J-140000D01*
G01*
X146910000Y-61870000D01*
G75*
G02*
X146770000Y-62010000I-140000J0D01*
G01*
X146430000Y-62010000D01*
G75*
G02*
X146290000Y-61870000I0J140000D01*
G01*
X146290000Y-61590000D01*
G75*
G02*
X146430000Y-61450000I140000J0D01*
G01*
G37*
G04 #@! TD*
G04 #@! TO.C,C24*
G36*
G01*
X112899498Y-72396000D02*
X113100498Y-72396000D01*
G75*
G02*
X113179998Y-72475500I0J-79500D01*
G01*
X113179998Y-72634500D01*
G75*
G02*
X113100498Y-72714000I-79500J0D01*
G01*
X112899498Y-72714000D01*
G75*
G02*
X112819998Y-72634500I0J79500D01*
G01*
X112819998Y-72475500D01*
G75*
G02*
X112899498Y-72396000I79500J0D01*
G01*
G37*
G36*
G01*
X112899498Y-73086000D02*
X113100498Y-73086000D01*
G75*
G02*
X113179998Y-73165500I0J-79500D01*
G01*
X113179998Y-73324500D01*
G75*
G02*
X113100498Y-73404000I-79500J0D01*
G01*
X112899498Y-73404000D01*
G75*
G02*
X112819998Y-73324500I0J79500D01*
G01*
X112819998Y-73165500D01*
G75*
G02*
X112899498Y-73086000I79500J0D01*
G01*
G37*
G04 #@! TD*
G04 #@! TO.C,C9*
G36*
G01*
X123400500Y-68614000D02*
X123199500Y-68614000D01*
G75*
G02*
X123120000Y-68534500I0J79500D01*
G01*
X123120000Y-68375500D01*
G75*
G02*
X123199500Y-68296000I79500J0D01*
G01*
X123400500Y-68296000D01*
G75*
G02*
X123480000Y-68375500I0J-79500D01*
G01*
X123480000Y-68534500D01*
G75*
G02*
X123400500Y-68614000I-79500J0D01*
G01*
G37*
G36*
G01*
X123400500Y-69304000D02*
X123199500Y-69304000D01*
G75*
G02*
X123120000Y-69224500I0J79500D01*
G01*
X123120000Y-69065500D01*
G75*
G02*
X123199500Y-68986000I79500J0D01*
G01*
X123400500Y-68986000D01*
G75*
G02*
X123480000Y-69065500I0J-79500D01*
G01*
X123480000Y-69224500D01*
G75*
G02*
X123400500Y-69304000I-79500J0D01*
G01*
G37*
G04 #@! TD*
G04 #@! TO.C,R7*
G36*
G01*
X106984000Y-66899500D02*
X106984000Y-67100500D01*
G75*
G02*
X106904500Y-67180000I-79500J0D01*
G01*
X106745500Y-67180000D01*
G75*
G02*
X106666000Y-67100500I0J79500D01*
G01*
X106666000Y-66899500D01*
G75*
G02*
X106745500Y-66820000I79500J0D01*
G01*
X106904500Y-66820000D01*
G75*
G02*
X106984000Y-66899500I0J-79500D01*
G01*
G37*
G36*
G01*
X106294000Y-66899500D02*
X106294000Y-67100500D01*
G75*
G02*
X106214500Y-67180000I-79500J0D01*
G01*
X106055500Y-67180000D01*
G75*
G02*
X105976000Y-67100500I0J79500D01*
G01*
X105976000Y-66899500D01*
G75*
G02*
X106055500Y-66820000I79500J0D01*
G01*
X106214500Y-66820000D01*
G75*
G02*
X106294000Y-66899500I0J-79500D01*
G01*
G37*
G04 #@! TD*
G04 #@! TO.C,C60*
G36*
G01*
X131049500Y-71201000D02*
X131250500Y-71201000D01*
G75*
G02*
X131330000Y-71280500I0J-79500D01*
G01*
X131330000Y-71439500D01*
G75*
G02*
X131250500Y-71519000I-79500J0D01*
G01*
X131049500Y-71519000D01*
G75*
G02*
X130970000Y-71439500I0J79500D01*
G01*
X130970000Y-71280500D01*
G75*
G02*
X131049500Y-71201000I79500J0D01*
G01*
G37*
G36*
G01*
X131049500Y-71891000D02*
X131250500Y-71891000D01*
G75*
G02*
X131330000Y-71970500I0J-79500D01*
G01*
X131330000Y-72129500D01*
G75*
G02*
X131250500Y-72209000I-79500J0D01*
G01*
X131049500Y-72209000D01*
G75*
G02*
X130970000Y-72129500I0J79500D01*
G01*
X130970000Y-71970500D01*
G75*
G02*
X131049500Y-71891000I79500J0D01*
G01*
G37*
G04 #@! TD*
G04 #@! TO.C,U7*
G36*
G01*
X138245000Y-65367500D02*
X138245000Y-65012500D01*
G75*
G02*
X138422500Y-64835000I177500J0D01*
G01*
X138777500Y-64835000D01*
G75*
G02*
X138955000Y-65012500I0J-177500D01*
G01*
X138955000Y-65367500D01*
G75*
G02*
X138777500Y-65545000I-177500J0D01*
G01*
X138422500Y-65545000D01*
G75*
G02*
X138245000Y-65367500I0J177500D01*
G01*
G37*
G36*
G01*
X139125000Y-64487500D02*
X139125000Y-64132500D01*
G75*
G02*
X139302500Y-63955000I177500J0D01*
G01*
X139657500Y-63955000D01*
G75*
G02*
X139835000Y-64132500I0J-177500D01*
G01*
X139835000Y-64487500D01*
G75*
G02*
X139657500Y-64665000I-177500J0D01*
G01*
X139302500Y-64665000D01*
G75*
G02*
X139125000Y-64487500I0J177500D01*
G01*
G37*
G36*
G01*
X139125000Y-65367500D02*
X139125000Y-65012500D01*
G75*
G02*
X139302500Y-64835000I177500J0D01*
G01*
X139657500Y-64835000D01*
G75*
G02*
X139835000Y-65012500I0J-177500D01*
G01*
X139835000Y-65367500D01*
G75*
G02*
X139657500Y-65545000I-177500J0D01*
G01*
X139302500Y-65545000D01*
G75*
G02*
X139125000Y-65367500I0J177500D01*
G01*
G37*
G36*
G01*
X138245000Y-64487500D02*
X138245000Y-64132500D01*
G75*
G02*
X138422500Y-63955000I177500J0D01*
G01*
X138777500Y-63955000D01*
G75*
G02*
X138955000Y-64132500I0J-177500D01*
G01*
X138955000Y-64487500D01*
G75*
G02*
X138777500Y-64665000I-177500J0D01*
G01*
X138422500Y-64665000D01*
G75*
G02*
X138245000Y-64487500I0J177500D01*
G01*
G37*
G36*
G01*
X137190000Y-64062500D02*
X137190000Y-63937500D01*
G75*
G02*
X137252500Y-63875000I62500J0D01*
G01*
X137902500Y-63875000D01*
G75*
G02*
X137965000Y-63937500I0J-62500D01*
G01*
X137965000Y-64062500D01*
G75*
G02*
X137902500Y-64125000I-62500J0D01*
G01*
X137252500Y-64125000D01*
G75*
G02*
X137190000Y-64062500I0J62500D01*
G01*
G37*
G36*
G01*
X137190000Y-64562500D02*
X137190000Y-64437500D01*
G75*
G02*
X137252500Y-64375000I62500J0D01*
G01*
X137902500Y-64375000D01*
G75*
G02*
X137965000Y-64437500I0J-62500D01*
G01*
X137965000Y-64562500D01*
G75*
G02*
X137902500Y-64625000I-62500J0D01*
G01*
X137252500Y-64625000D01*
G75*
G02*
X137190000Y-64562500I0J62500D01*
G01*
G37*
G36*
G01*
X137190000Y-65062500D02*
X137190000Y-64937500D01*
G75*
G02*
X137252500Y-64875000I62500J0D01*
G01*
X137902500Y-64875000D01*
G75*
G02*
X137965000Y-64937500I0J-62500D01*
G01*
X137965000Y-65062500D01*
G75*
G02*
X137902500Y-65125000I-62500J0D01*
G01*
X137252500Y-65125000D01*
G75*
G02*
X137190000Y-65062500I0J62500D01*
G01*
G37*
G36*
G01*
X137190000Y-65562500D02*
X137190000Y-65437500D01*
G75*
G02*
X137252500Y-65375000I62500J0D01*
G01*
X137902500Y-65375000D01*
G75*
G02*
X137965000Y-65437500I0J-62500D01*
G01*
X137965000Y-65562500D01*
G75*
G02*
X137902500Y-65625000I-62500J0D01*
G01*
X137252500Y-65625000D01*
G75*
G02*
X137190000Y-65562500I0J62500D01*
G01*
G37*
G36*
G01*
X138165000Y-66537500D02*
X138165000Y-65887500D01*
G75*
G02*
X138227500Y-65825000I62500J0D01*
G01*
X138352500Y-65825000D01*
G75*
G02*
X138415000Y-65887500I0J-62500D01*
G01*
X138415000Y-66537500D01*
G75*
G02*
X138352500Y-66600000I-62500J0D01*
G01*
X138227500Y-66600000D01*
G75*
G02*
X138165000Y-66537500I0J62500D01*
G01*
G37*
G36*
G01*
X138665000Y-66537500D02*
X138665000Y-65887500D01*
G75*
G02*
X138727500Y-65825000I62500J0D01*
G01*
X138852500Y-65825000D01*
G75*
G02*
X138915000Y-65887500I0J-62500D01*
G01*
X138915000Y-66537500D01*
G75*
G02*
X138852500Y-66600000I-62500J0D01*
G01*
X138727500Y-66600000D01*
G75*
G02*
X138665000Y-66537500I0J62500D01*
G01*
G37*
G36*
G01*
X139165000Y-66537500D02*
X139165000Y-65887500D01*
G75*
G02*
X139227500Y-65825000I62500J0D01*
G01*
X139352500Y-65825000D01*
G75*
G02*
X139415000Y-65887500I0J-62500D01*
G01*
X139415000Y-66537500D01*
G75*
G02*
X139352500Y-66600000I-62500J0D01*
G01*
X139227500Y-66600000D01*
G75*
G02*
X139165000Y-66537500I0J62500D01*
G01*
G37*
G36*
G01*
X139665000Y-66537500D02*
X139665000Y-65887500D01*
G75*
G02*
X139727500Y-65825000I62500J0D01*
G01*
X139852500Y-65825000D01*
G75*
G02*
X139915000Y-65887500I0J-62500D01*
G01*
X139915000Y-66537500D01*
G75*
G02*
X139852500Y-66600000I-62500J0D01*
G01*
X139727500Y-66600000D01*
G75*
G02*
X139665000Y-66537500I0J62500D01*
G01*
G37*
G36*
G01*
X140115000Y-65562500D02*
X140115000Y-65437500D01*
G75*
G02*
X140177500Y-65375000I62500J0D01*
G01*
X140827500Y-65375000D01*
G75*
G02*
X140890000Y-65437500I0J-62500D01*
G01*
X140890000Y-65562500D01*
G75*
G02*
X140827500Y-65625000I-62500J0D01*
G01*
X140177500Y-65625000D01*
G75*
G02*
X140115000Y-65562500I0J62500D01*
G01*
G37*
G36*
G01*
X140115000Y-65062500D02*
X140115000Y-64937500D01*
G75*
G02*
X140177500Y-64875000I62500J0D01*
G01*
X140827500Y-64875000D01*
G75*
G02*
X140890000Y-64937500I0J-62500D01*
G01*
X140890000Y-65062500D01*
G75*
G02*
X140827500Y-65125000I-62500J0D01*
G01*
X140177500Y-65125000D01*
G75*
G02*
X140115000Y-65062500I0J62500D01*
G01*
G37*
G36*
G01*
X140115000Y-64562500D02*
X140115000Y-64437500D01*
G75*
G02*
X140177500Y-64375000I62500J0D01*
G01*
X140827500Y-64375000D01*
G75*
G02*
X140890000Y-64437500I0J-62500D01*
G01*
X140890000Y-64562500D01*
G75*
G02*
X140827500Y-64625000I-62500J0D01*
G01*
X140177500Y-64625000D01*
G75*
G02*
X140115000Y-64562500I0J62500D01*
G01*
G37*
G36*
G01*
X140115000Y-64062500D02*
X140115000Y-63937500D01*
G75*
G02*
X140177500Y-63875000I62500J0D01*
G01*
X140827500Y-63875000D01*
G75*
G02*
X140890000Y-63937500I0J-62500D01*
G01*
X140890000Y-64062500D01*
G75*
G02*
X140827500Y-64125000I-62500J0D01*
G01*
X140177500Y-64125000D01*
G75*
G02*
X140115000Y-64062500I0J62500D01*
G01*
G37*
G36*
G01*
X139665000Y-63612500D02*
X139665000Y-62962500D01*
G75*
G02*
X139727500Y-62900000I62500J0D01*
G01*
X139852500Y-62900000D01*
G75*
G02*
X139915000Y-62962500I0J-62500D01*
G01*
X139915000Y-63612500D01*
G75*
G02*
X139852500Y-63675000I-62500J0D01*
G01*
X139727500Y-63675000D01*
G75*
G02*
X139665000Y-63612500I0J62500D01*
G01*
G37*
G36*
G01*
X139165000Y-63612500D02*
X139165000Y-62962500D01*
G75*
G02*
X139227500Y-62900000I62500J0D01*
G01*
X139352500Y-62900000D01*
G75*
G02*
X139415000Y-62962500I0J-62500D01*
G01*
X139415000Y-63612500D01*
G75*
G02*
X139352500Y-63675000I-62500J0D01*
G01*
X139227500Y-63675000D01*
G75*
G02*
X139165000Y-63612500I0J62500D01*
G01*
G37*
G36*
G01*
X138665000Y-63612500D02*
X138665000Y-62962500D01*
G75*
G02*
X138727500Y-62900000I62500J0D01*
G01*
X138852500Y-62900000D01*
G75*
G02*
X138915000Y-62962500I0J-62500D01*
G01*
X138915000Y-63612500D01*
G75*
G02*
X138852500Y-63675000I-62500J0D01*
G01*
X138727500Y-63675000D01*
G75*
G02*
X138665000Y-63612500I0J62500D01*
G01*
G37*
G36*
G01*
X138165000Y-63612500D02*
X138165000Y-62962500D01*
G75*
G02*
X138227500Y-62900000I62500J0D01*
G01*
X138352500Y-62900000D01*
G75*
G02*
X138415000Y-62962500I0J-62500D01*
G01*
X138415000Y-63612500D01*
G75*
G02*
X138352500Y-63675000I-62500J0D01*
G01*
X138227500Y-63675000D01*
G75*
G02*
X138165000Y-63612500I0J62500D01*
G01*
G37*
G04 #@! TD*
G04 #@! TO.C,R20*
G36*
G01*
X134434000Y-75099500D02*
X134434000Y-75300500D01*
G75*
G02*
X134354500Y-75380000I-79500J0D01*
G01*
X134195500Y-75380000D01*
G75*
G02*
X134116000Y-75300500I0J79500D01*
G01*
X134116000Y-75099500D01*
G75*
G02*
X134195500Y-75020000I79500J0D01*
G01*
X134354500Y-75020000D01*
G75*
G02*
X134434000Y-75099500I0J-79500D01*
G01*
G37*
G36*
G01*
X133744000Y-75099500D02*
X133744000Y-75300500D01*
G75*
G02*
X133664500Y-75380000I-79500J0D01*
G01*
X133505500Y-75380000D01*
G75*
G02*
X133426000Y-75300500I0J79500D01*
G01*
X133426000Y-75099500D01*
G75*
G02*
X133505500Y-75020000I79500J0D01*
G01*
X133664500Y-75020000D01*
G75*
G02*
X133744000Y-75099500I0J-79500D01*
G01*
G37*
G04 #@! TD*
G04 #@! TO.C,L10*
G36*
G01*
X140991000Y-62400500D02*
X140991000Y-62199500D01*
G75*
G02*
X141070500Y-62120000I79500J0D01*
G01*
X141229500Y-62120000D01*
G75*
G02*
X141309000Y-62199500I0J-79500D01*
G01*
X141309000Y-62400500D01*
G75*
G02*
X141229500Y-62480000I-79500J0D01*
G01*
X141070500Y-62480000D01*
G75*
G02*
X140991000Y-62400500I0J79500D01*
G01*
G37*
G36*
G01*
X140301000Y-62400500D02*
X140301000Y-62199500D01*
G75*
G02*
X140380500Y-62120000I79500J0D01*
G01*
X140539500Y-62120000D01*
G75*
G02*
X140619000Y-62199500I0J-79500D01*
G01*
X140619000Y-62400500D01*
G75*
G02*
X140539500Y-62480000I-79500J0D01*
G01*
X140380500Y-62480000D01*
G75*
G02*
X140301000Y-62400500I0J79500D01*
G01*
G37*
G04 #@! TD*
G04 #@! TO.C,L14*
G36*
G01*
X141899500Y-64281000D02*
X142100500Y-64281000D01*
G75*
G02*
X142180000Y-64360500I0J-79500D01*
G01*
X142180000Y-64519500D01*
G75*
G02*
X142100500Y-64599000I-79500J0D01*
G01*
X141899500Y-64599000D01*
G75*
G02*
X141820000Y-64519500I0J79500D01*
G01*
X141820000Y-64360500D01*
G75*
G02*
X141899500Y-64281000I79500J0D01*
G01*
G37*
G36*
G01*
X141899500Y-63591000D02*
X142100500Y-63591000D01*
G75*
G02*
X142180000Y-63670500I0J-79500D01*
G01*
X142180000Y-63829500D01*
G75*
G02*
X142100500Y-63909000I-79500J0D01*
G01*
X141899500Y-63909000D01*
G75*
G02*
X141820000Y-63829500I0J79500D01*
G01*
X141820000Y-63670500D01*
G75*
G02*
X141899500Y-63591000I79500J0D01*
G01*
G37*
G04 #@! TD*
G04 #@! TO.C,R22*
G36*
G01*
X114849500Y-59476000D02*
X115050500Y-59476000D01*
G75*
G02*
X115130000Y-59555500I0J-79500D01*
G01*
X115130000Y-59714500D01*
G75*
G02*
X115050500Y-59794000I-79500J0D01*
G01*
X114849500Y-59794000D01*
G75*
G02*
X114770000Y-59714500I0J79500D01*
G01*
X114770000Y-59555500D01*
G75*
G02*
X114849500Y-59476000I79500J0D01*
G01*
G37*
G36*
G01*
X114849500Y-60166000D02*
X115050500Y-60166000D01*
G75*
G02*
X115130000Y-60245500I0J-79500D01*
G01*
X115130000Y-60404500D01*
G75*
G02*
X115050500Y-60484000I-79500J0D01*
G01*
X114849500Y-60484000D01*
G75*
G02*
X114770000Y-60404500I0J79500D01*
G01*
X114770000Y-60245500D01*
G75*
G02*
X114849500Y-60166000I79500J0D01*
G01*
G37*
G04 #@! TD*
G04 #@! TO.C,D5*
G36*
G01*
X148472500Y-67292500D02*
X148127500Y-67292500D01*
G75*
G02*
X147980000Y-67145000I0J147500D01*
G01*
X147980000Y-66850000D01*
G75*
G02*
X148127500Y-66702500I147500J0D01*
G01*
X148472500Y-66702500D01*
G75*
G02*
X148620000Y-66850000I0J-147500D01*
G01*
X148620000Y-67145000D01*
G75*
G02*
X148472500Y-67292500I-147500J0D01*
G01*
G37*
G36*
G01*
X148472500Y-66322500D02*
X148127500Y-66322500D01*
G75*
G02*
X147980000Y-66175000I0J147500D01*
G01*
X147980000Y-65880000D01*
G75*
G02*
X148127500Y-65732500I147500J0D01*
G01*
X148472500Y-65732500D01*
G75*
G02*
X148620000Y-65880000I0J-147500D01*
G01*
X148620000Y-66175000D01*
G75*
G02*
X148472500Y-66322500I-147500J0D01*
G01*
G37*
G04 #@! TD*
G04 #@! TO.C,L13*
G36*
G01*
X145796000Y-66150500D02*
X145796000Y-65949500D01*
G75*
G02*
X145875500Y-65870000I79500J0D01*
G01*
X146034500Y-65870000D01*
G75*
G02*
X146114000Y-65949500I0J-79500D01*
G01*
X146114000Y-66150500D01*
G75*
G02*
X146034500Y-66230000I-79500J0D01*
G01*
X145875500Y-66230000D01*
G75*
G02*
X145796000Y-66150500I0J79500D01*
G01*
G37*
G36*
G01*
X146486000Y-66150500D02*
X146486000Y-65949500D01*
G75*
G02*
X146565500Y-65870000I79500J0D01*
G01*
X146724500Y-65870000D01*
G75*
G02*
X146804000Y-65949500I0J-79500D01*
G01*
X146804000Y-66150500D01*
G75*
G02*
X146724500Y-66230000I-79500J0D01*
G01*
X146565500Y-66230000D01*
G75*
G02*
X146486000Y-66150500I0J79500D01*
G01*
G37*
G04 #@! TD*
G04 #@! TO.C,C58*
G36*
G01*
X115269000Y-76199500D02*
X115269000Y-76400500D01*
G75*
G02*
X115189500Y-76480000I-79500J0D01*
G01*
X115030500Y-76480000D01*
G75*
G02*
X114951000Y-76400500I0J79500D01*
G01*
X114951000Y-76199500D01*
G75*
G02*
X115030500Y-76120000I79500J0D01*
G01*
X115189500Y-76120000D01*
G75*
G02*
X115269000Y-76199500I0J-79500D01*
G01*
G37*
G36*
G01*
X115959000Y-76199500D02*
X115959000Y-76400500D01*
G75*
G02*
X115879500Y-76480000I-79500J0D01*
G01*
X115720500Y-76480000D01*
G75*
G02*
X115641000Y-76400500I0J79500D01*
G01*
X115641000Y-76199500D01*
G75*
G02*
X115720500Y-76120000I79500J0D01*
G01*
X115879500Y-76120000D01*
G75*
G02*
X115959000Y-76199500I0J-79500D01*
G01*
G37*
G04 #@! TD*
G04 #@! TO.C,L9*
G36*
G01*
X143451000Y-66150500D02*
X143451000Y-65949500D01*
G75*
G02*
X143530500Y-65870000I79500J0D01*
G01*
X143689500Y-65870000D01*
G75*
G02*
X143769000Y-65949500I0J-79500D01*
G01*
X143769000Y-66150500D01*
G75*
G02*
X143689500Y-66230000I-79500J0D01*
G01*
X143530500Y-66230000D01*
G75*
G02*
X143451000Y-66150500I0J79500D01*
G01*
G37*
G36*
G01*
X144141000Y-66150500D02*
X144141000Y-65949500D01*
G75*
G02*
X144220500Y-65870000I79500J0D01*
G01*
X144379500Y-65870000D01*
G75*
G02*
X144459000Y-65949500I0J-79500D01*
G01*
X144459000Y-66150500D01*
G75*
G02*
X144379500Y-66230000I-79500J0D01*
G01*
X144220500Y-66230000D01*
G75*
G02*
X144141000Y-66150500I0J79500D01*
G01*
G37*
G04 #@! TD*
G04 #@! TO.C,C15*
G36*
G01*
X128514000Y-63649500D02*
X128514000Y-63850500D01*
G75*
G02*
X128434500Y-63930000I-79500J0D01*
G01*
X128275500Y-63930000D01*
G75*
G02*
X128196000Y-63850500I0J79500D01*
G01*
X128196000Y-63649500D01*
G75*
G02*
X128275500Y-63570000I79500J0D01*
G01*
X128434500Y-63570000D01*
G75*
G02*
X128514000Y-63649500I0J-79500D01*
G01*
G37*
G36*
G01*
X129204000Y-63649500D02*
X129204000Y-63850500D01*
G75*
G02*
X129124500Y-63930000I-79500J0D01*
G01*
X128965500Y-63930000D01*
G75*
G02*
X128886000Y-63850500I0J79500D01*
G01*
X128886000Y-63649500D01*
G75*
G02*
X128965500Y-63570000I79500J0D01*
G01*
X129124500Y-63570000D01*
G75*
G02*
X129204000Y-63649500I0J-79500D01*
G01*
G37*
G04 #@! TD*
G04 #@! TO.C,L16*
G36*
G01*
X149177500Y-73235000D02*
X149522500Y-73235000D01*
G75*
G02*
X149670000Y-73382500I0J-147500D01*
G01*
X149670000Y-73677500D01*
G75*
G02*
X149522500Y-73825000I-147500J0D01*
G01*
X149177500Y-73825000D01*
G75*
G02*
X149030000Y-73677500I0J147500D01*
G01*
X149030000Y-73382500D01*
G75*
G02*
X149177500Y-73235000I147500J0D01*
G01*
G37*
G36*
G01*
X149177500Y-74205000D02*
X149522500Y-74205000D01*
G75*
G02*
X149670000Y-74352500I0J-147500D01*
G01*
X149670000Y-74647500D01*
G75*
G02*
X149522500Y-74795000I-147500J0D01*
G01*
X149177500Y-74795000D01*
G75*
G02*
X149030000Y-74647500I0J147500D01*
G01*
X149030000Y-74352500D01*
G75*
G02*
X149177500Y-74205000I147500J0D01*
G01*
G37*
G04 #@! TD*
G04 #@! TO.C,C59*
G36*
G01*
X115959000Y-74799500D02*
X115959000Y-75000500D01*
G75*
G02*
X115879500Y-75080000I-79500J0D01*
G01*
X115720500Y-75080000D01*
G75*
G02*
X115641000Y-75000500I0J79500D01*
G01*
X115641000Y-74799500D01*
G75*
G02*
X115720500Y-74720000I79500J0D01*
G01*
X115879500Y-74720000D01*
G75*
G02*
X115959000Y-74799500I0J-79500D01*
G01*
G37*
G36*
G01*
X115269000Y-74799500D02*
X115269000Y-75000500D01*
G75*
G02*
X115189500Y-75080000I-79500J0D01*
G01*
X115030500Y-75080000D01*
G75*
G02*
X114951000Y-75000500I0J79500D01*
G01*
X114951000Y-74799500D01*
G75*
G02*
X115030500Y-74720000I79500J0D01*
G01*
X115189500Y-74720000D01*
G75*
G02*
X115269000Y-74799500I0J-79500D01*
G01*
G37*
G04 #@! TD*
G04 #@! TO.C,R17*
G36*
G01*
X150620000Y-71665000D02*
X150620000Y-72035000D01*
G75*
G02*
X150485000Y-72170000I-135000J0D01*
G01*
X150215000Y-72170000D01*
G75*
G02*
X150080000Y-72035000I0J135000D01*
G01*
X150080000Y-71665000D01*
G75*
G02*
X150215000Y-71530000I135000J0D01*
G01*
X150485000Y-71530000D01*
G75*
G02*
X150620000Y-71665000I0J-135000D01*
G01*
G37*
G36*
G01*
X149600000Y-71665000D02*
X149600000Y-72035000D01*
G75*
G02*
X149465000Y-72170000I-135000J0D01*
G01*
X149195000Y-72170000D01*
G75*
G02*
X149060000Y-72035000I0J135000D01*
G01*
X149060000Y-71665000D01*
G75*
G02*
X149195000Y-71530000I135000J0D01*
G01*
X149465000Y-71530000D01*
G75*
G02*
X149600000Y-71665000I0J-135000D01*
G01*
G37*
G04 #@! TD*
G04 #@! TO.C,C27*
G36*
G01*
X116496000Y-68750500D02*
X116496000Y-68549500D01*
G75*
G02*
X116575500Y-68470000I79500J0D01*
G01*
X116734500Y-68470000D01*
G75*
G02*
X116814000Y-68549500I0J-79500D01*
G01*
X116814000Y-68750500D01*
G75*
G02*
X116734500Y-68830000I-79500J0D01*
G01*
X116575500Y-68830000D01*
G75*
G02*
X116496000Y-68750500I0J79500D01*
G01*
G37*
G36*
G01*
X117186000Y-68750500D02*
X117186000Y-68549500D01*
G75*
G02*
X117265500Y-68470000I79500J0D01*
G01*
X117424500Y-68470000D01*
G75*
G02*
X117504000Y-68549500I0J-79500D01*
G01*
X117504000Y-68750500D01*
G75*
G02*
X117424500Y-68830000I-79500J0D01*
G01*
X117265500Y-68830000D01*
G75*
G02*
X117186000Y-68750500I0J79500D01*
G01*
G37*
G04 #@! TD*
G04 #@! TO.C,C64*
G36*
G01*
X141130000Y-71670000D02*
X141470000Y-71670000D01*
G75*
G02*
X141610000Y-71810000I0J-140000D01*
G01*
X141610000Y-72090000D01*
G75*
G02*
X141470000Y-72230000I-140000J0D01*
G01*
X141130000Y-72230000D01*
G75*
G02*
X140990000Y-72090000I0J140000D01*
G01*
X140990000Y-71810000D01*
G75*
G02*
X141130000Y-71670000I140000J0D01*
G01*
G37*
G36*
G01*
X141130000Y-72630000D02*
X141470000Y-72630000D01*
G75*
G02*
X141610000Y-72770000I0J-140000D01*
G01*
X141610000Y-73050000D01*
G75*
G02*
X141470000Y-73190000I-140000J0D01*
G01*
X141130000Y-73190000D01*
G75*
G02*
X140990000Y-73050000I0J140000D01*
G01*
X140990000Y-72770000D01*
G75*
G02*
X141130000Y-72630000I140000J0D01*
G01*
G37*
G04 #@! TD*
G04 #@! TO.C,C10*
G36*
G01*
X126460000Y-60870000D02*
X126460000Y-60530000D01*
G75*
G02*
X126600000Y-60390000I140000J0D01*
G01*
X126880000Y-60390000D01*
G75*
G02*
X127020000Y-60530000I0J-140000D01*
G01*
X127020000Y-60870000D01*
G75*
G02*
X126880000Y-61010000I-140000J0D01*
G01*
X126600000Y-61010000D01*
G75*
G02*
X126460000Y-60870000I0J140000D01*
G01*
G37*
G36*
G01*
X127420000Y-60870000D02*
X127420000Y-60530000D01*
G75*
G02*
X127560000Y-60390000I140000J0D01*
G01*
X127840000Y-60390000D01*
G75*
G02*
X127980000Y-60530000I0J-140000D01*
G01*
X127980000Y-60870000D01*
G75*
G02*
X127840000Y-61010000I-140000J0D01*
G01*
X127560000Y-61010000D01*
G75*
G02*
X127420000Y-60870000I0J140000D01*
G01*
G37*
G04 #@! TD*
M02*
