%TF.GenerationSoftware,KiCad,Pcbnew,(5.99.0-6542-g16b0689841)*%
%TF.CreationDate,2021-01-03T15:15:32-08:00*%
%TF.ProjectId,SX1303,53583133-3033-42e6-9b69-6361645f7063,rev?*%
%TF.SameCoordinates,Original*%
%TF.FileFunction,Legend,Bot*%
%TF.FilePolarity,Positive*%
%FSLAX46Y46*%
G04 Gerber Fmt 4.6, Leading zero omitted, Abs format (unit mm)*
G04 Created by KiCad (PCBNEW (5.99.0-6542-g16b0689841)) date 2021-01-03 15:15:32*
%MOMM*%
%LPD*%
G01*
G04 APERTURE LIST*
%ADD10C,0.200000*%
G04 APERTURE END LIST*
D10*
X152728571Y-71392142D02*
X152514285Y-71463571D01*
X152157142Y-71463571D01*
X152014285Y-71392142D01*
X151942857Y-71320714D01*
X151871428Y-71177857D01*
X151871428Y-71035000D01*
X151942857Y-70892142D01*
X152014285Y-70820714D01*
X152157142Y-70749285D01*
X152442857Y-70677857D01*
X152585714Y-70606428D01*
X152657142Y-70535000D01*
X152728571Y-70392142D01*
X152728571Y-70249285D01*
X152657142Y-70106428D01*
X152585714Y-70035000D01*
X152442857Y-69963571D01*
X152085714Y-69963571D01*
X151871428Y-70035000D01*
X151371428Y-69963571D02*
X150371428Y-71463571D01*
X150371428Y-69963571D02*
X151371428Y-71463571D01*
X149014285Y-71463571D02*
X149871428Y-71463571D01*
X149442857Y-71463571D02*
X149442857Y-69963571D01*
X149585714Y-70177857D01*
X149728571Y-70320714D01*
X149871428Y-70392142D01*
X148514285Y-69963571D02*
X147585714Y-69963571D01*
X148085714Y-70535000D01*
X147871428Y-70535000D01*
X147728571Y-70606428D01*
X147657142Y-70677857D01*
X147585714Y-70820714D01*
X147585714Y-71177857D01*
X147657142Y-71320714D01*
X147728571Y-71392142D01*
X147871428Y-71463571D01*
X148300000Y-71463571D01*
X148442857Y-71392142D01*
X148514285Y-71320714D01*
X146657142Y-69963571D02*
X146514285Y-69963571D01*
X146371428Y-70035000D01*
X146300000Y-70106428D01*
X146228571Y-70249285D01*
X146157142Y-70535000D01*
X146157142Y-70892142D01*
X146228571Y-71177857D01*
X146300000Y-71320714D01*
X146371428Y-71392142D01*
X146514285Y-71463571D01*
X146657142Y-71463571D01*
X146800000Y-71392142D01*
X146871428Y-71320714D01*
X146942857Y-71177857D01*
X147014285Y-70892142D01*
X147014285Y-70535000D01*
X146942857Y-70249285D01*
X146871428Y-70106428D01*
X146800000Y-70035000D01*
X146657142Y-69963571D01*
X145657142Y-69963571D02*
X144728571Y-69963571D01*
X145228571Y-70535000D01*
X145014285Y-70535000D01*
X144871428Y-70606428D01*
X144800000Y-70677857D01*
X144728571Y-70820714D01*
X144728571Y-71177857D01*
X144800000Y-71320714D01*
X144871428Y-71392142D01*
X145014285Y-71463571D01*
X145442857Y-71463571D01*
X145585714Y-71392142D01*
X145657142Y-71320714D01*
X142228571Y-71463571D02*
X142942857Y-71463571D01*
X142942857Y-69963571D01*
X141514285Y-71463571D02*
X141657142Y-71392142D01*
X141728571Y-71320714D01*
X141800000Y-71177857D01*
X141800000Y-70749285D01*
X141728571Y-70606428D01*
X141657142Y-70535000D01*
X141514285Y-70463571D01*
X141300000Y-70463571D01*
X141157142Y-70535000D01*
X141085714Y-70606428D01*
X141014285Y-70749285D01*
X141014285Y-71177857D01*
X141085714Y-71320714D01*
X141157142Y-71392142D01*
X141300000Y-71463571D01*
X141514285Y-71463571D01*
X139514285Y-71463571D02*
X140014285Y-70749285D01*
X140371428Y-71463571D02*
X140371428Y-69963571D01*
X139800000Y-69963571D01*
X139657142Y-70035000D01*
X139585714Y-70106428D01*
X139514285Y-70249285D01*
X139514285Y-70463571D01*
X139585714Y-70606428D01*
X139657142Y-70677857D01*
X139800000Y-70749285D01*
X140371428Y-70749285D01*
X138228571Y-71463571D02*
X138228571Y-70677857D01*
X138300000Y-70535000D01*
X138442857Y-70463571D01*
X138728571Y-70463571D01*
X138871428Y-70535000D01*
X138228571Y-71392142D02*
X138371428Y-71463571D01*
X138728571Y-71463571D01*
X138871428Y-71392142D01*
X138942857Y-71249285D01*
X138942857Y-71106428D01*
X138871428Y-70963571D01*
X138728571Y-70892142D01*
X138371428Y-70892142D01*
X138228571Y-70820714D01*
X135585714Y-70035000D02*
X135728571Y-69963571D01*
X135942857Y-69963571D01*
X136157142Y-70035000D01*
X136300000Y-70177857D01*
X136371428Y-70320714D01*
X136442857Y-70606428D01*
X136442857Y-70820714D01*
X136371428Y-71106428D01*
X136300000Y-71249285D01*
X136157142Y-71392142D01*
X135942857Y-71463571D01*
X135800000Y-71463571D01*
X135585714Y-71392142D01*
X135514285Y-71320714D01*
X135514285Y-70820714D01*
X135800000Y-70820714D01*
X134228571Y-71463571D02*
X134228571Y-70677857D01*
X134300000Y-70535000D01*
X134442857Y-70463571D01*
X134728571Y-70463571D01*
X134871428Y-70535000D01*
X134228571Y-71392142D02*
X134371428Y-71463571D01*
X134728571Y-71463571D01*
X134871428Y-71392142D01*
X134942857Y-71249285D01*
X134942857Y-71106428D01*
X134871428Y-70963571D01*
X134728571Y-70892142D01*
X134371428Y-70892142D01*
X134228571Y-70820714D01*
X133728571Y-70463571D02*
X133157142Y-70463571D01*
X133514285Y-69963571D02*
X133514285Y-71249285D01*
X133442857Y-71392142D01*
X133300000Y-71463571D01*
X133157142Y-71463571D01*
X132085714Y-71392142D02*
X132228571Y-71463571D01*
X132514285Y-71463571D01*
X132657142Y-71392142D01*
X132728571Y-71249285D01*
X132728571Y-70677857D01*
X132657142Y-70535000D01*
X132514285Y-70463571D01*
X132228571Y-70463571D01*
X132085714Y-70535000D01*
X132014285Y-70677857D01*
X132014285Y-70820714D01*
X132728571Y-70963571D01*
X131514285Y-70463571D02*
X131228571Y-71463571D01*
X130942857Y-70749285D01*
X130657142Y-71463571D01*
X130371428Y-70463571D01*
X129157142Y-71463571D02*
X129157142Y-70677857D01*
X129228571Y-70535000D01*
X129371428Y-70463571D01*
X129657142Y-70463571D01*
X129800000Y-70535000D01*
X129157142Y-71392142D02*
X129300000Y-71463571D01*
X129657142Y-71463571D01*
X129800000Y-71392142D01*
X129871428Y-71249285D01*
X129871428Y-71106428D01*
X129800000Y-70963571D01*
X129657142Y-70892142D01*
X129300000Y-70892142D01*
X129157142Y-70820714D01*
X128585714Y-70463571D02*
X128228571Y-71463571D01*
X127871428Y-70463571D02*
X128228571Y-71463571D01*
X128371428Y-71820714D01*
X128442857Y-71892142D01*
X128585714Y-71963571D01*
X125657142Y-70677857D02*
X126157142Y-70677857D01*
X126157142Y-71463571D02*
X126157142Y-69963571D01*
X125442857Y-69963571D01*
X124657142Y-71463571D02*
X124800000Y-71392142D01*
X124871428Y-71320714D01*
X124942857Y-71177857D01*
X124942857Y-70749285D01*
X124871428Y-70606428D01*
X124800000Y-70535000D01*
X124657142Y-70463571D01*
X124442857Y-70463571D01*
X124300000Y-70535000D01*
X124228571Y-70606428D01*
X124157142Y-70749285D01*
X124157142Y-71177857D01*
X124228571Y-71320714D01*
X124300000Y-71392142D01*
X124442857Y-71463571D01*
X124657142Y-71463571D01*
X123514285Y-71463571D02*
X123514285Y-70463571D01*
X123514285Y-70749285D02*
X123442857Y-70606428D01*
X123371428Y-70535000D01*
X123228571Y-70463571D01*
X123085714Y-70463571D01*
X120942857Y-70677857D02*
X121442857Y-70677857D01*
X121442857Y-71463571D02*
X121442857Y-69963571D01*
X120728571Y-69963571D01*
X119585714Y-71392142D02*
X119728571Y-71463571D01*
X120014285Y-71463571D01*
X120157142Y-71392142D01*
X120228571Y-71249285D01*
X120228571Y-70677857D01*
X120157142Y-70535000D01*
X120014285Y-70463571D01*
X119728571Y-70463571D01*
X119585714Y-70535000D01*
X119514285Y-70677857D01*
X119514285Y-70820714D01*
X120228571Y-70963571D01*
X118228571Y-71463571D02*
X118228571Y-70677857D01*
X118300000Y-70535000D01*
X118442857Y-70463571D01*
X118728571Y-70463571D01*
X118871428Y-70535000D01*
X118228571Y-71392142D02*
X118371428Y-71463571D01*
X118728571Y-71463571D01*
X118871428Y-71392142D01*
X118942857Y-71249285D01*
X118942857Y-71106428D01*
X118871428Y-70963571D01*
X118728571Y-70892142D01*
X118371428Y-70892142D01*
X118228571Y-70820714D01*
X117728571Y-70463571D02*
X117157142Y-70463571D01*
X117514285Y-69963571D02*
X117514285Y-71249285D01*
X117442857Y-71392142D01*
X117300000Y-71463571D01*
X117157142Y-71463571D01*
X116657142Y-71463571D02*
X116657142Y-69963571D01*
X116014285Y-71463571D02*
X116014285Y-70677857D01*
X116085714Y-70535000D01*
X116228571Y-70463571D01*
X116442857Y-70463571D01*
X116585714Y-70535000D01*
X116657142Y-70606428D01*
X114728571Y-71392142D02*
X114871428Y-71463571D01*
X115157142Y-71463571D01*
X115300000Y-71392142D01*
X115371428Y-71249285D01*
X115371428Y-70677857D01*
X115300000Y-70535000D01*
X115157142Y-70463571D01*
X114871428Y-70463571D01*
X114728571Y-70535000D01*
X114657142Y-70677857D01*
X114657142Y-70820714D01*
X115371428Y-70963571D01*
X114014285Y-71463571D02*
X114014285Y-70463571D01*
X114014285Y-70749285D02*
X113942857Y-70606428D01*
X113871428Y-70535000D01*
X113728571Y-70463571D01*
X113585714Y-70463571D01*
X111442857Y-70677857D02*
X111228571Y-70749285D01*
X111157142Y-70820714D01*
X111085714Y-70963571D01*
X111085714Y-71177857D01*
X111157142Y-71320714D01*
X111228571Y-71392142D01*
X111371428Y-71463571D01*
X111942857Y-71463571D01*
X111942857Y-69963571D01*
X111442857Y-69963571D01*
X111300000Y-70035000D01*
X111228571Y-70106428D01*
X111157142Y-70249285D01*
X111157142Y-70392142D01*
X111228571Y-70535000D01*
X111300000Y-70606428D01*
X111442857Y-70677857D01*
X111942857Y-70677857D01*
X110228571Y-71463571D02*
X110371428Y-71392142D01*
X110442857Y-71320714D01*
X110514285Y-71177857D01*
X110514285Y-70749285D01*
X110442857Y-70606428D01*
X110371428Y-70535000D01*
X110228571Y-70463571D01*
X110014285Y-70463571D01*
X109871428Y-70535000D01*
X109800000Y-70606428D01*
X109728571Y-70749285D01*
X109728571Y-71177857D01*
X109800000Y-71320714D01*
X109871428Y-71392142D01*
X110014285Y-71463571D01*
X110228571Y-71463571D01*
X108442857Y-71463571D02*
X108442857Y-70677857D01*
X108514285Y-70535000D01*
X108657142Y-70463571D01*
X108942857Y-70463571D01*
X109085714Y-70535000D01*
X108442857Y-71392142D02*
X108585714Y-71463571D01*
X108942857Y-71463571D01*
X109085714Y-71392142D01*
X109157142Y-71249285D01*
X109157142Y-71106428D01*
X109085714Y-70963571D01*
X108942857Y-70892142D01*
X108585714Y-70892142D01*
X108442857Y-70820714D01*
X107728571Y-71463571D02*
X107728571Y-70463571D01*
X107728571Y-70749285D02*
X107657142Y-70606428D01*
X107585714Y-70535000D01*
X107442857Y-70463571D01*
X107300000Y-70463571D01*
X106157142Y-71463571D02*
X106157142Y-69963571D01*
X106157142Y-71392142D02*
X106300000Y-71463571D01*
X106585714Y-71463571D01*
X106728571Y-71392142D01*
X106800000Y-71320714D01*
X106871428Y-71177857D01*
X106871428Y-70749285D01*
X106800000Y-70606428D01*
X106728571Y-70535000D01*
X106585714Y-70463571D01*
X106300000Y-70463571D01*
X106157142Y-70535000D01*
X105514285Y-71392142D02*
X105371428Y-71463571D01*
X105085714Y-71463571D01*
X104942857Y-71392142D01*
X104871428Y-71249285D01*
X104871428Y-71177857D01*
X104942857Y-71035000D01*
X105085714Y-70963571D01*
X105300000Y-70963571D01*
X105442857Y-70892142D01*
X105514285Y-70749285D01*
X105514285Y-70677857D01*
X105442857Y-70535000D01*
X105300000Y-70463571D01*
X105085714Y-70463571D01*
X104942857Y-70535000D01*
X140764285Y-73878571D02*
X140764285Y-72378571D01*
X140407142Y-72378571D01*
X140192857Y-72450000D01*
X140050000Y-72592857D01*
X139978571Y-72735714D01*
X139907142Y-73021428D01*
X139907142Y-73235714D01*
X139978571Y-73521428D01*
X140050000Y-73664285D01*
X140192857Y-73807142D01*
X140407142Y-73878571D01*
X140764285Y-73878571D01*
X138692857Y-73807142D02*
X138835714Y-73878571D01*
X139121428Y-73878571D01*
X139264285Y-73807142D01*
X139335714Y-73664285D01*
X139335714Y-73092857D01*
X139264285Y-72950000D01*
X139121428Y-72878571D01*
X138835714Y-72878571D01*
X138692857Y-72950000D01*
X138621428Y-73092857D01*
X138621428Y-73235714D01*
X139335714Y-73378571D01*
X138050000Y-73807142D02*
X137907142Y-73878571D01*
X137621428Y-73878571D01*
X137478571Y-73807142D01*
X137407142Y-73664285D01*
X137407142Y-73592857D01*
X137478571Y-73450000D01*
X137621428Y-73378571D01*
X137835714Y-73378571D01*
X137978571Y-73307142D01*
X138050000Y-73164285D01*
X138050000Y-73092857D01*
X137978571Y-72950000D01*
X137835714Y-72878571D01*
X137621428Y-72878571D01*
X137478571Y-72950000D01*
X136764285Y-73878571D02*
X136764285Y-72878571D01*
X136764285Y-72378571D02*
X136835714Y-72450000D01*
X136764285Y-72521428D01*
X136692857Y-72450000D01*
X136764285Y-72378571D01*
X136764285Y-72521428D01*
X135407142Y-72878571D02*
X135407142Y-74092857D01*
X135478571Y-74235714D01*
X135550000Y-74307142D01*
X135692857Y-74378571D01*
X135907142Y-74378571D01*
X136050000Y-74307142D01*
X135407142Y-73807142D02*
X135550000Y-73878571D01*
X135835714Y-73878571D01*
X135978571Y-73807142D01*
X136050000Y-73735714D01*
X136121428Y-73592857D01*
X136121428Y-73164285D01*
X136050000Y-73021428D01*
X135978571Y-72950000D01*
X135835714Y-72878571D01*
X135550000Y-72878571D01*
X135407142Y-72950000D01*
X134692857Y-72878571D02*
X134692857Y-73878571D01*
X134692857Y-73021428D02*
X134621428Y-72950000D01*
X134478571Y-72878571D01*
X134264285Y-72878571D01*
X134121428Y-72950000D01*
X134050000Y-73092857D01*
X134050000Y-73878571D01*
X131692857Y-73092857D02*
X131478571Y-73164285D01*
X131407142Y-73235714D01*
X131335714Y-73378571D01*
X131335714Y-73592857D01*
X131407142Y-73735714D01*
X131478571Y-73807142D01*
X131621428Y-73878571D01*
X132192857Y-73878571D01*
X132192857Y-72378571D01*
X131692857Y-72378571D01*
X131550000Y-72450000D01*
X131478571Y-72521428D01*
X131407142Y-72664285D01*
X131407142Y-72807142D01*
X131478571Y-72950000D01*
X131550000Y-73021428D01*
X131692857Y-73092857D01*
X132192857Y-73092857D01*
X130835714Y-72878571D02*
X130478571Y-73878571D01*
X130121428Y-72878571D02*
X130478571Y-73878571D01*
X130621428Y-74235714D01*
X130692857Y-74307142D01*
X130835714Y-74378571D01*
X128550000Y-72378571D02*
X128192857Y-73878571D01*
X127907142Y-72807142D01*
X127621428Y-73878571D01*
X127264285Y-72378571D01*
X126692857Y-73878571D02*
X126692857Y-72878571D01*
X126692857Y-72378571D02*
X126764285Y-72450000D01*
X126692857Y-72521428D01*
X126621428Y-72450000D01*
X126692857Y-72378571D01*
X126692857Y-72521428D01*
X125764285Y-73878571D02*
X125907142Y-73807142D01*
X125978571Y-73664285D01*
X125978571Y-72378571D01*
X124978571Y-73878571D02*
X125121428Y-73807142D01*
X125192857Y-73664285D01*
X125192857Y-72378571D01*
X123407142Y-72378571D02*
X123050000Y-73878571D01*
X122764285Y-72807142D01*
X122478571Y-73878571D01*
X122121428Y-72378571D01*
X121550000Y-73878571D02*
X121550000Y-72378571D01*
X120907142Y-73878571D02*
X120907142Y-73092857D01*
X120978571Y-72950000D01*
X121121428Y-72878571D01*
X121335714Y-72878571D01*
X121478571Y-72950000D01*
X121550000Y-73021428D01*
X119550000Y-73878571D02*
X119550000Y-73092857D01*
X119621428Y-72950000D01*
X119764285Y-72878571D01*
X120050000Y-72878571D01*
X120192857Y-72950000D01*
X119550000Y-73807142D02*
X119692857Y-73878571D01*
X120050000Y-73878571D01*
X120192857Y-73807142D01*
X120264285Y-73664285D01*
X120264285Y-73521428D01*
X120192857Y-73378571D01*
X120050000Y-73307142D01*
X119692857Y-73307142D01*
X119550000Y-73235714D01*
X118835714Y-72878571D02*
X118835714Y-73878571D01*
X118835714Y-73021428D02*
X118764285Y-72950000D01*
X118621428Y-72878571D01*
X118407142Y-72878571D01*
X118264285Y-72950000D01*
X118192857Y-73092857D01*
X118192857Y-73878571D01*
X116835714Y-72878571D02*
X116835714Y-74092857D01*
X116907142Y-74235714D01*
X116978571Y-74307142D01*
X117121428Y-74378571D01*
X117335714Y-74378571D01*
X117478571Y-74307142D01*
X116835714Y-73807142D02*
X116978571Y-73878571D01*
X117264285Y-73878571D01*
X117407142Y-73807142D01*
X117478571Y-73735714D01*
X117550000Y-73592857D01*
X117550000Y-73164285D01*
X117478571Y-73021428D01*
X117407142Y-72950000D01*
X117264285Y-72878571D01*
X116978571Y-72878571D01*
X116835714Y-72950000D01*
X135800000Y-74936428D02*
X135728571Y-74865000D01*
X135585714Y-74793571D01*
X135228571Y-74793571D01*
X135085714Y-74865000D01*
X135014285Y-74936428D01*
X134942857Y-75079285D01*
X134942857Y-75222142D01*
X135014285Y-75436428D01*
X135871428Y-76293571D01*
X134942857Y-76293571D01*
X134014285Y-74793571D02*
X133871428Y-74793571D01*
X133728571Y-74865000D01*
X133657142Y-74936428D01*
X133585714Y-75079285D01*
X133514285Y-75365000D01*
X133514285Y-75722142D01*
X133585714Y-76007857D01*
X133657142Y-76150714D01*
X133728571Y-76222142D01*
X133871428Y-76293571D01*
X134014285Y-76293571D01*
X134157142Y-76222142D01*
X134228571Y-76150714D01*
X134300000Y-76007857D01*
X134371428Y-75722142D01*
X134371428Y-75365000D01*
X134300000Y-75079285D01*
X134228571Y-74936428D01*
X134157142Y-74865000D01*
X134014285Y-74793571D01*
X132942857Y-74936428D02*
X132871428Y-74865000D01*
X132728571Y-74793571D01*
X132371428Y-74793571D01*
X132228571Y-74865000D01*
X132157142Y-74936428D01*
X132085714Y-75079285D01*
X132085714Y-75222142D01*
X132157142Y-75436428D01*
X133014285Y-76293571D01*
X132085714Y-76293571D01*
X131157142Y-74793571D02*
X131014285Y-74793571D01*
X130871428Y-74865000D01*
X130800000Y-74936428D01*
X130728571Y-75079285D01*
X130657142Y-75365000D01*
X130657142Y-75722142D01*
X130728571Y-76007857D01*
X130800000Y-76150714D01*
X130871428Y-76222142D01*
X131014285Y-76293571D01*
X131157142Y-76293571D01*
X131300000Y-76222142D01*
X131371428Y-76150714D01*
X131442857Y-76007857D01*
X131514285Y-75722142D01*
X131514285Y-75365000D01*
X131442857Y-75079285D01*
X131371428Y-74936428D01*
X131300000Y-74865000D01*
X131157142Y-74793571D01*
X128942857Y-74722142D02*
X130228571Y-76650714D01*
X127657142Y-76293571D02*
X128514285Y-76293571D01*
X128085714Y-76293571D02*
X128085714Y-74793571D01*
X128228571Y-75007857D01*
X128371428Y-75150714D01*
X128514285Y-75222142D01*
X127085714Y-74936428D02*
X127014285Y-74865000D01*
X126871428Y-74793571D01*
X126514285Y-74793571D01*
X126371428Y-74865000D01*
X126300000Y-74936428D01*
X126228571Y-75079285D01*
X126228571Y-75222142D01*
X126300000Y-75436428D01*
X127157142Y-76293571D01*
X126228571Y-76293571D01*
X124514285Y-74722142D02*
X125800000Y-76650714D01*
X124085714Y-74936428D02*
X124014285Y-74865000D01*
X123871428Y-74793571D01*
X123514285Y-74793571D01*
X123371428Y-74865000D01*
X123300000Y-74936428D01*
X123228571Y-75079285D01*
X123228571Y-75222142D01*
X123300000Y-75436428D01*
X124157142Y-76293571D01*
X123228571Y-76293571D01*
X122300000Y-74793571D02*
X122157142Y-74793571D01*
X122014285Y-74865000D01*
X121942857Y-74936428D01*
X121871428Y-75079285D01*
X121800000Y-75365000D01*
X121800000Y-75722142D01*
X121871428Y-76007857D01*
X121942857Y-76150714D01*
X122014285Y-76222142D01*
X122157142Y-76293571D01*
X122300000Y-76293571D01*
X122442857Y-76222142D01*
X122514285Y-76150714D01*
X122585714Y-76007857D01*
X122657142Y-75722142D01*
X122657142Y-75365000D01*
X122585714Y-75079285D01*
X122514285Y-74936428D01*
X122442857Y-74865000D01*
X122300000Y-74793571D01*
M02*
