%TF.GenerationSoftware,KiCad,Pcbnew,(5.99.0-6542-g16b0689841)*%
%TF.CreationDate,2021-01-03T15:15:31-08:00*%
%TF.ProjectId,SX1303,53583133-3033-42e6-9b69-6361645f7063,rev?*%
%TF.SameCoordinates,Original*%
%TF.FileFunction,Copper,L2,Inr*%
%TF.FilePolarity,Positive*%
%FSLAX46Y46*%
G04 Gerber Fmt 4.6, Leading zero omitted, Abs format (unit mm)*
G04 Created by KiCad (PCBNEW (5.99.0-6542-g16b0689841)) date 2021-01-03 15:15:31*
%MOMM*%
%LPD*%
G01*
G04 APERTURE LIST*
%TA.AperFunction,ComponentPad*%
%ADD10R,1.600000X1.600000*%
%TD*%
%TA.AperFunction,ComponentPad*%
%ADD11C,1.600000*%
%TD*%
%TA.AperFunction,ViaPad*%
%ADD12C,0.503200*%
%TD*%
G04 APERTURE END LIST*
D10*
%TO.N,Net-(A1-Pad1)*%
%TO.C,A1*%
X109500000Y-77700000D03*
D11*
%TO.N,+3V3*%
X112040000Y-77700000D03*
%TO.N,Net-(A1-Pad3)*%
X114580000Y-77700000D03*
%TO.N,GND*%
X117120000Y-77700000D03*
%TO.N,Net-(A1-Pad5)*%
X119660000Y-77700000D03*
%TO.N,Net-(A1-Pad6)*%
X122200000Y-77700000D03*
%TO.N,Net-(A1-Pad7)*%
X124740000Y-77700000D03*
%TO.N,Net-(A1-Pad8)*%
X127280000Y-77700000D03*
%TO.N,Net-(A1-Pad9)*%
X129820000Y-77700000D03*
%TO.N,GPS_PPS*%
X132360000Y-77700000D03*
%TO.N,HOST_SCK*%
X134900000Y-77700000D03*
%TO.N,HOST_MOSI*%
X137440000Y-77700000D03*
%TO.N,HOST_MISO*%
X139980000Y-77700000D03*
%TO.N,GPS_TX*%
X142520000Y-77700000D03*
%TO.N,GPS_RX*%
X145060000Y-77700000D03*
%TO.N,Net-(A1-Pad16)*%
X147600000Y-77700000D03*
%TO.N,Net-(A1-Pad17)*%
X147600000Y-57380000D03*
%TO.N,Net-(A1-Pad18)*%
X145060000Y-57380000D03*
%TO.N,Net-(A1-Pad19)*%
X142520000Y-57380000D03*
%TO.N,Net-(A1-Pad20)*%
X139980000Y-57380000D03*
%TO.N,Net-(A1-Pad21)*%
X137440000Y-57380000D03*
%TO.N,Net-(A1-Pad22)*%
X134900000Y-57380000D03*
%TO.N,Net-(A1-Pad23)*%
X132360000Y-57380000D03*
%TO.N,HOST_RESET*%
X129820000Y-57380000D03*
%TO.N,HOST_CSN*%
X127280000Y-57380000D03*
%TO.N,VBUS*%
X124740000Y-57380000D03*
%TO.N,Net-(A1-Pad27)*%
X122200000Y-57380000D03*
%TO.N,+BATT*%
X119660000Y-57380000D03*
%TD*%
D12*
%TO.N,GPS_RX*%
X141600000Y-69300000D03*
%TO.N,GND*%
X127500000Y-66500000D03*
X130300000Y-74500000D03*
X152000000Y-64850000D03*
X136450000Y-72550000D03*
X134800000Y-64100000D03*
X152500000Y-64200000D03*
X137150000Y-71950000D03*
X127600000Y-69800000D03*
X133600000Y-78700000D03*
X112700000Y-69900000D03*
X149400000Y-67800000D03*
X118400000Y-56400000D03*
X136000000Y-65300000D03*
X114350000Y-69000000D03*
X124300000Y-71700000D03*
X148100000Y-65250000D03*
X149500000Y-78700000D03*
X105500000Y-69800000D03*
X125150000Y-68250000D03*
X147600000Y-64600000D03*
X126000000Y-56400000D03*
X150900000Y-75600000D03*
X150100000Y-71400000D03*
X129300000Y-68400000D03*
X144500000Y-64600000D03*
X109300000Y-65200000D03*
X135400000Y-69750000D03*
X111100000Y-65150000D03*
X103400000Y-62400000D03*
X152850000Y-56950000D03*
X111900000Y-69000000D03*
X108800000Y-56500000D03*
X150000000Y-73450000D03*
X112800000Y-56500000D03*
X137800000Y-68900000D03*
X149100000Y-62000000D03*
X142600000Y-61800000D03*
X149100000Y-75300000D03*
X135200000Y-73650000D03*
X103400000Y-67350000D03*
X126900000Y-72500000D03*
X146050000Y-65250000D03*
X140900000Y-68900000D03*
X128400000Y-74200000D03*
X129300000Y-73600000D03*
X139600000Y-64700000D03*
X117300000Y-62800000D03*
X109700000Y-70150000D03*
X128050000Y-75000000D03*
X149900000Y-78000000D03*
X128550000Y-56400000D03*
X103350000Y-74200000D03*
X110700000Y-62300000D03*
X133500000Y-68100000D03*
X143100000Y-65200000D03*
X132300000Y-68900000D03*
X128400000Y-63100000D03*
X153700000Y-76700000D03*
X146700000Y-66900000D03*
X122450000Y-73100000D03*
X123500000Y-78700000D03*
X134200000Y-67800000D03*
X104400000Y-78250000D03*
X132000000Y-63800000D03*
X150900000Y-64850000D03*
X152100000Y-78600000D03*
X153800000Y-61800000D03*
X130800000Y-74100000D03*
X149000000Y-67000000D03*
X132500000Y-62600000D03*
X143700000Y-68400000D03*
X129900000Y-65100000D03*
X115100000Y-59200000D03*
X150900000Y-73450000D03*
X110700000Y-56500000D03*
X138400000Y-74000000D03*
X137600000Y-74700000D03*
X150400000Y-78700000D03*
X137700000Y-72600000D03*
X138900000Y-69900000D03*
X113550000Y-65150000D03*
X142900000Y-68000000D03*
X131100000Y-78700000D03*
X103450000Y-76950000D03*
X148200000Y-67300000D03*
X118450000Y-63900000D03*
X150000000Y-75600000D03*
X153800000Y-70200000D03*
X115800000Y-78700000D03*
X151000000Y-71400000D03*
X131100000Y-56400000D03*
X115650000Y-56450000D03*
X103700000Y-57500000D03*
X147050000Y-73100000D03*
X129200000Y-61000000D03*
X140600000Y-66800000D03*
X141500000Y-66800000D03*
X130200000Y-73600000D03*
X108200000Y-78700000D03*
X132600000Y-68100000D03*
X153800000Y-69300000D03*
X113500000Y-67500000D03*
X118350000Y-72200000D03*
X153800000Y-75700000D03*
X132600000Y-73700000D03*
X111900000Y-66400000D03*
X148500000Y-62900000D03*
X104400000Y-62400000D03*
X128600000Y-69800000D03*
X131200000Y-67300000D03*
X149000000Y-65050000D03*
X111100000Y-73400000D03*
X153000000Y-64850000D03*
X129000000Y-75000000D03*
X145500000Y-63000000D03*
X136300000Y-74900000D03*
X140600000Y-63500000D03*
X124350000Y-63300000D03*
X153800000Y-71050000D03*
X143650000Y-62550000D03*
X129200000Y-65900000D03*
X129100000Y-64500000D03*
X130900000Y-69400000D03*
X135300000Y-64800000D03*
X146500000Y-64600000D03*
X132500000Y-66100000D03*
X145000000Y-63800000D03*
X153800000Y-59150000D03*
X113300000Y-78700000D03*
X149900000Y-62000000D03*
X111700000Y-56500000D03*
X144750000Y-74400000D03*
X152000000Y-71400000D03*
X130200000Y-62400000D03*
X149100000Y-77400000D03*
X118800000Y-61800000D03*
X144200000Y-63800000D03*
X148400000Y-68000000D03*
X151350000Y-74500000D03*
X153800000Y-66750000D03*
X151300000Y-78700000D03*
X136200000Y-58100000D03*
X149700000Y-56400000D03*
X144200000Y-69200000D03*
X148800000Y-70200000D03*
X110700000Y-68800000D03*
X109200000Y-59400000D03*
X136300000Y-63800000D03*
X120700000Y-59700000D03*
X136300000Y-63100000D03*
X110900000Y-78700000D03*
X152800000Y-78200000D03*
X129900000Y-75000000D03*
X130900000Y-66300000D03*
X153700000Y-58300000D03*
X141300000Y-78700000D03*
X137800000Y-67900000D03*
X149900000Y-64850000D03*
X118500000Y-78700000D03*
X151900000Y-77100000D03*
X130900000Y-65400000D03*
X127600000Y-74400000D03*
X149600000Y-70600000D03*
X113100000Y-58400000D03*
X103400000Y-61400000D03*
X153800000Y-65050000D03*
X135800000Y-73050000D03*
X152000000Y-57600000D03*
X109300000Y-67600000D03*
X144700000Y-67700000D03*
X149950000Y-67200000D03*
X109250000Y-69700000D03*
X126800000Y-64800000D03*
X123200000Y-64700000D03*
X140900000Y-67400000D03*
X134800000Y-66300000D03*
X150450000Y-60900000D03*
X142800000Y-60900000D03*
X139040000Y-65300000D03*
X103400000Y-63450000D03*
X134500000Y-69200000D03*
X134100000Y-65400000D03*
X113300000Y-61650000D03*
X106600000Y-78700000D03*
X126800000Y-65900000D03*
X138700000Y-78700000D03*
X149100000Y-71450000D03*
X103400000Y-58400000D03*
X150450000Y-61600000D03*
X151400000Y-64200000D03*
X114100000Y-69900000D03*
X129400000Y-74400000D03*
X130800000Y-72200000D03*
X148700000Y-76500000D03*
X150500000Y-56400000D03*
X145800000Y-67500000D03*
X110600000Y-66200000D03*
X114500000Y-73100000D03*
X144750000Y-73100000D03*
X143500000Y-69200000D03*
X126300000Y-69800000D03*
X117400000Y-56400000D03*
X103350000Y-76200000D03*
X104300000Y-56900000D03*
X141100000Y-61200000D03*
X145100000Y-71800000D03*
X130100000Y-61000000D03*
X144300000Y-66900000D03*
X145100000Y-66900000D03*
X137250000Y-62850000D03*
X148350000Y-75500000D03*
X139500000Y-68000000D03*
X143800000Y-78700000D03*
X152800000Y-77100000D03*
X129700000Y-69800000D03*
X146000000Y-62400000D03*
X134150000Y-70650000D03*
X128500000Y-78700000D03*
X132400000Y-64500000D03*
X128100000Y-70600000D03*
X103400000Y-71700000D03*
X151300000Y-56400000D03*
X128400000Y-61000000D03*
X144500000Y-62900000D03*
X109700000Y-56500000D03*
X141450000Y-74400000D03*
X143450000Y-71800000D03*
X126000000Y-78700000D03*
X143100000Y-64200000D03*
X138500000Y-65900000D03*
X137700000Y-63800000D03*
X133300000Y-62600000D03*
X103400000Y-66350000D03*
X132600000Y-75000000D03*
X143450000Y-73100000D03*
X103400000Y-69350000D03*
X153800000Y-60000000D03*
X134700000Y-62400000D03*
X137250000Y-61700000D03*
X147400000Y-74300000D03*
X132500000Y-65300000D03*
X146300000Y-56400000D03*
X151300000Y-58100000D03*
X105500000Y-69100000D03*
X136300000Y-62300000D03*
X153400000Y-77500000D03*
X153800000Y-71900000D03*
X149100000Y-72150000D03*
X113100000Y-59500000D03*
X127200000Y-70600000D03*
X136200000Y-56400000D03*
X147100000Y-67700000D03*
X127700000Y-68200000D03*
X153800000Y-74700000D03*
X153800000Y-67600000D03*
X111800000Y-67700000D03*
X143800000Y-60900000D03*
X103400000Y-68350000D03*
X141800000Y-60900000D03*
X138800000Y-73000000D03*
X122100000Y-59700000D03*
X130200000Y-68900000D03*
X151300000Y-57000000D03*
X153800000Y-73750000D03*
X153800000Y-68450000D03*
X130900000Y-68300000D03*
X135000000Y-67800000D03*
X124400000Y-64550000D03*
X114850000Y-61900000D03*
X127600000Y-73600000D03*
X128400000Y-73400000D03*
X116450000Y-61050000D03*
X152600000Y-70600000D03*
X130600000Y-64600000D03*
X143650000Y-63400000D03*
X138500000Y-69400000D03*
X112200000Y-65500000D03*
X136600000Y-73900000D03*
X133000000Y-63600000D03*
X145300000Y-75000000D03*
X148200000Y-69400000D03*
X103400000Y-65350000D03*
X103400000Y-70500000D03*
X134700000Y-71500000D03*
X147100000Y-69400000D03*
X121450000Y-62150000D03*
X131000000Y-62400000D03*
X148700000Y-78700000D03*
X109300000Y-66550000D03*
X112000000Y-73300000D03*
X143450000Y-74400000D03*
X118800000Y-59700000D03*
X153000000Y-67200000D03*
X103350000Y-75350000D03*
X131800000Y-61000000D03*
X150800000Y-77100000D03*
X136000000Y-61600000D03*
X103400000Y-64400000D03*
X138650000Y-56400000D03*
X146500000Y-63000000D03*
X147400000Y-66900000D03*
X131000000Y-63100000D03*
X131900000Y-63100000D03*
X130000000Y-72700000D03*
X141500000Y-72450000D03*
X130700000Y-70400000D03*
X105650000Y-66700000D03*
X151500000Y-70600000D03*
X125850000Y-69050000D03*
X131600000Y-71600000D03*
X137200000Y-70800000D03*
X129200000Y-72700000D03*
X141500000Y-63500000D03*
X150000000Y-76600000D03*
X142400000Y-66800000D03*
X133300000Y-69400000D03*
X110500000Y-67500000D03*
X111100000Y-70150000D03*
X135400000Y-61000000D03*
X152000000Y-67200000D03*
X152000000Y-62000000D03*
X117850000Y-68650000D03*
X133650000Y-56400000D03*
X108200000Y-71100000D03*
X153800000Y-72800000D03*
X125450000Y-70150000D03*
X130200000Y-66900000D03*
X129300000Y-63100000D03*
X137700000Y-70000000D03*
X135400000Y-65800000D03*
X103400000Y-59400000D03*
X152900000Y-62000000D03*
X134200000Y-63500000D03*
X135700000Y-67500000D03*
X150950000Y-67200000D03*
X146300000Y-78700000D03*
X124400000Y-72950000D03*
X145100000Y-62400000D03*
X105050000Y-78600000D03*
X119700000Y-59700000D03*
X145900000Y-69200000D03*
X150400000Y-64200000D03*
X134500000Y-60800000D03*
X130800000Y-73100000D03*
X139400000Y-69400000D03*
X121000000Y-78700000D03*
X136800000Y-66500000D03*
X132600000Y-61000000D03*
X147050000Y-65250000D03*
X129300000Y-67300000D03*
X109600000Y-60500000D03*
X134100000Y-62700000D03*
X132300000Y-70000000D03*
X109200000Y-60000000D03*
X127600000Y-63050000D03*
X118800000Y-61000000D03*
X150450000Y-60200000D03*
X151100000Y-62000000D03*
X145500000Y-68400000D03*
X129000000Y-70600000D03*
X113000000Y-68800000D03*
X131000000Y-61000000D03*
X120950000Y-56400000D03*
X114350000Y-66550000D03*
X144400000Y-61900000D03*
X137600000Y-73500000D03*
X128300000Y-65900000D03*
X127600000Y-72700000D03*
X116000000Y-59200000D03*
X149100000Y-73750000D03*
X148500000Y-64400000D03*
X107450000Y-78700000D03*
X147700000Y-68600000D03*
X141600000Y-61800000D03*
X140700000Y-61800000D03*
X128400000Y-72700000D03*
X130200000Y-63100000D03*
X130200000Y-67800000D03*
X136300000Y-67000000D03*
X121250000Y-70500000D03*
X126500000Y-66850000D03*
X140200000Y-69400000D03*
X137250000Y-69500000D03*
X125850000Y-67500000D03*
X105850000Y-78700000D03*
X143750000Y-56400000D03*
X109300000Y-68700000D03*
X136100000Y-78700000D03*
X151500000Y-77900000D03*
X120500000Y-67900000D03*
X145400000Y-64600000D03*
X150500000Y-67800000D03*
X153000000Y-71400000D03*
X137200000Y-68650000D03*
X147000000Y-63800000D03*
X133500000Y-60800000D03*
X147850000Y-70400000D03*
X149400000Y-64200000D03*
X143600000Y-61800000D03*
X138500000Y-64700000D03*
X128300000Y-65200000D03*
X152100000Y-56550000D03*
X153800000Y-65850000D03*
X133200000Y-66400000D03*
X145100000Y-69200000D03*
X148350000Y-71050000D03*
X148600000Y-56400000D03*
X105000000Y-56500000D03*
X103350000Y-72950000D03*
X142100000Y-67700000D03*
X146750000Y-74900000D03*
X146200000Y-76450000D03*
X147100000Y-76450000D03*
X133250000Y-70650000D03*
X149100000Y-73000000D03*
X150400000Y-70600000D03*
X152700000Y-57600000D03*
X153350000Y-57550000D03*
X151500000Y-67800000D03*
X139600000Y-65900000D03*
X141200000Y-68100000D03*
X133300000Y-64900000D03*
X153800000Y-60900000D03*
X146000000Y-63800000D03*
X115600000Y-61200000D03*
X116400000Y-62800000D03*
X146150000Y-69850000D03*
X141250000Y-56400000D03*
X117200000Y-65700000D03*
X123450000Y-56400000D03*
X126300000Y-70600000D03*
X126300000Y-68400000D03*
X118800000Y-62600000D03*
X146800000Y-70400000D03*
X130800000Y-75000000D03*
X153800000Y-64200000D03*
X152500000Y-74500000D03*
X143400000Y-67500000D03*
X152500000Y-67800000D03*
X132550000Y-72200000D03*
X103400000Y-60400000D03*
X135200000Y-74450000D03*
X130100000Y-65900000D03*
X134000000Y-66400000D03*
X114000000Y-62300000D03*
X148000000Y-63600000D03*
X147600000Y-62600000D03*
X136600000Y-60950000D03*
X129900000Y-70600000D03*
X144700000Y-60900000D03*
X153800000Y-62600000D03*
X143700000Y-64600000D03*
X146600000Y-68500000D03*
X137000000Y-63800000D03*
X113000000Y-66200000D03*
X132200000Y-70900000D03*
X153800000Y-63350000D03*
X135400000Y-68800000D03*
X128300000Y-64500000D03*
X147800000Y-76100000D03*
X135400000Y-70850000D03*
%TO.N,VDD_RF*%
X125200000Y-60700000D03*
X124150000Y-68300000D03*
X120700000Y-72200000D03*
X120750000Y-63850000D03*
X146600000Y-60000000D03*
%TO.N,TCXO_32Mhz*%
X122600000Y-68300000D03*
X118000000Y-61800000D03*
%TO.N,RADIOA_CSN*%
X125600000Y-65550000D03*
X108750000Y-63300000D03*
%TO.N,RADIOA_MOSI*%
X124200000Y-66550000D03*
X109600000Y-63000000D03*
%TO.N,RADIOA_SCK*%
X110300000Y-63350000D03*
X125050000Y-66500000D03*
%TO.N,RADIO_A_IQ2*%
X122800000Y-60900000D03*
X117800000Y-63500000D03*
%TO.N,RADIOB_RESET*%
X123100000Y-74850000D03*
X112450000Y-71900000D03*
%TO.N,RADIOB_SCK*%
X125200000Y-74100000D03*
X109850000Y-72400000D03*
%TO.N,RADIOB_MOSI*%
X109350000Y-71950000D03*
X124200000Y-74900000D03*
%TO.N,RADIOB_CSN*%
X126350000Y-73450000D03*
X110046110Y-73200000D03*
%TO.N,RADIOA_RESET*%
X123100575Y-66350169D03*
X107500000Y-69000000D03*
%TO.N,HOST_SCK*%
X105000000Y-65550000D03*
%TO.N,HOST_MOSI*%
X105000000Y-64850000D03*
%TO.N,HOST_MISO*%
X105400000Y-64350000D03*
%TO.N,+3V3*%
X110233175Y-62723352D03*
X116105376Y-66292860D03*
X113200000Y-71850000D03*
X140300000Y-71550000D03*
X140300000Y-70850000D03*
X107447665Y-69750000D03*
X111250000Y-63350000D03*
X147300000Y-71300000D03*
X105400000Y-63600000D03*
X111500000Y-60500000D03*
%TO.N,+1V2*%
X104150000Y-60850000D03*
X104150000Y-60250000D03*
X104150000Y-61500000D03*
X107300000Y-65950000D03*
X113300000Y-63350000D03*
X104950000Y-61500000D03*
X110750000Y-71850000D03*
X110200000Y-59500000D03*
X116000000Y-68650000D03*
%TO.N,HOST_RESET*%
X107500000Y-66800000D03*
%TO.N,HOST_CSN*%
X107500000Y-64000000D03*
%TO.N,VBUS*%
X113600000Y-57000000D03*
X105800000Y-56900000D03*
X114350000Y-57500000D03*
X152400000Y-59400000D03*
X106300000Y-56600000D03*
X106300000Y-57200000D03*
X115000000Y-57000000D03*
X152400000Y-60900000D03*
X152200000Y-58700000D03*
X108200000Y-60200000D03*
%TO.N,SX1303_CSD*%
X107399620Y-67747641D03*
X107900000Y-73400000D03*
%TO.N,GPS_PPS*%
X141450000Y-75500000D03*
X105600000Y-67450000D03*
X134850000Y-75300000D03*
%TO.N,SX1303_TXRX*%
X107500000Y-68369797D03*
X106900000Y-71900000D03*
%TO.N,GPS_TX*%
X142300000Y-69300000D03*
%TD*%
%TA.AperFunction,Conductor*%
%TO.N,GND*%
G36*
X105843862Y-56134002D02*
G01*
X105890355Y-56187658D01*
X105900459Y-56257932D01*
X105881054Y-56309175D01*
X105878761Y-56312666D01*
X105872819Y-56319394D01*
X105869003Y-56327521D01*
X105864077Y-56335021D01*
X105861370Y-56333243D01*
X105824854Y-56374501D01*
X105757079Y-56393791D01*
X105730636Y-56393629D01*
X105722005Y-56396096D01*
X105722003Y-56396096D01*
X105599933Y-56430983D01*
X105599931Y-56430984D01*
X105591302Y-56433450D01*
X105583711Y-56438239D01*
X105583710Y-56438240D01*
X105488668Y-56498208D01*
X105468746Y-56510778D01*
X105372819Y-56619394D01*
X105369004Y-56627520D01*
X105325870Y-56719394D01*
X105311233Y-56750569D01*
X105309852Y-56759438D01*
X105290946Y-56880863D01*
X105288938Y-56893756D01*
X105290102Y-56902658D01*
X105290102Y-56902661D01*
X105306564Y-57028546D01*
X105307728Y-57037445D01*
X105329901Y-57087837D01*
X105355731Y-57146539D01*
X105366091Y-57170085D01*
X105459335Y-57281013D01*
X105466806Y-57285986D01*
X105466807Y-57285987D01*
X105572491Y-57356336D01*
X105572495Y-57356338D01*
X105579966Y-57361311D01*
X105588539Y-57363989D01*
X105588538Y-57363989D01*
X105697205Y-57397939D01*
X105718285Y-57404525D01*
X105727256Y-57404689D01*
X105727260Y-57404690D01*
X105759564Y-57405282D01*
X105827307Y-57426530D01*
X105863284Y-57463706D01*
X105866091Y-57470085D01*
X105892791Y-57501848D01*
X105893210Y-57502347D01*
X105921731Y-57567362D01*
X105910575Y-57637477D01*
X105863283Y-57690429D01*
X105796759Y-57709422D01*
X104100000Y-57709422D01*
X104100000Y-59643061D01*
X104079998Y-59711182D01*
X104008625Y-59764209D01*
X103941302Y-59783450D01*
X103933711Y-59788239D01*
X103933710Y-59788240D01*
X103880750Y-59821656D01*
X103818746Y-59860778D01*
X103722819Y-59969394D01*
X103661233Y-60100569D01*
X103659852Y-60109438D01*
X103640541Y-60233463D01*
X103638938Y-60243756D01*
X103640102Y-60252658D01*
X103640102Y-60252661D01*
X103654593Y-60363470D01*
X103657728Y-60387445D01*
X103707253Y-60500000D01*
X103707473Y-60500499D01*
X103706199Y-60604793D01*
X103700078Y-60617831D01*
X103661233Y-60700569D01*
X103659852Y-60709438D01*
X103646925Y-60792463D01*
X103638938Y-60843756D01*
X103640102Y-60852658D01*
X103640102Y-60852661D01*
X103656456Y-60977719D01*
X103657728Y-60987445D01*
X103666412Y-61007181D01*
X103716091Y-61120085D01*
X103714159Y-61120935D01*
X103729976Y-61177842D01*
X103718044Y-61229564D01*
X103669270Y-61333450D01*
X103661233Y-61350569D01*
X103659852Y-61359438D01*
X103653249Y-61401848D01*
X103638938Y-61493756D01*
X103640102Y-61502658D01*
X103640102Y-61502661D01*
X103646379Y-61550660D01*
X103657728Y-61637445D01*
X103716091Y-61770085D01*
X103809335Y-61881013D01*
X103816806Y-61885986D01*
X103816807Y-61885987D01*
X103922491Y-61956336D01*
X103922495Y-61956338D01*
X103929966Y-61961311D01*
X104068285Y-62004525D01*
X104077257Y-62004689D01*
X104077260Y-62004690D01*
X104143272Y-62005900D01*
X104213173Y-62007181D01*
X104283078Y-61988122D01*
X104344319Y-61971426D01*
X104344320Y-61971426D01*
X104352982Y-61969064D01*
X104360632Y-61964367D01*
X104360634Y-61964366D01*
X104418972Y-61928546D01*
X104476474Y-61893240D01*
X104476833Y-61893824D01*
X104535666Y-61868446D01*
X104620773Y-61888627D01*
X104722491Y-61956336D01*
X104722495Y-61956338D01*
X104729966Y-61961311D01*
X104868285Y-62004525D01*
X104877257Y-62004689D01*
X104877260Y-62004690D01*
X104943272Y-62005900D01*
X105013173Y-62007181D01*
X105083078Y-61988122D01*
X105144319Y-61971426D01*
X105144320Y-61971426D01*
X105152982Y-61969064D01*
X105160632Y-61964367D01*
X105160634Y-61964366D01*
X105268822Y-61897939D01*
X105268825Y-61897936D01*
X105276474Y-61893240D01*
X105287542Y-61881013D01*
X105366522Y-61793756D01*
X117488938Y-61793756D01*
X117490102Y-61802658D01*
X117490102Y-61802661D01*
X117502272Y-61895723D01*
X117507728Y-61937445D01*
X117566091Y-62070085D01*
X117659335Y-62181013D01*
X117666806Y-62185986D01*
X117666807Y-62185987D01*
X117772491Y-62256336D01*
X117772495Y-62256338D01*
X117779966Y-62261311D01*
X117918285Y-62304525D01*
X117927257Y-62304689D01*
X117927260Y-62304690D01*
X117993272Y-62305900D01*
X118063173Y-62307181D01*
X118133078Y-62288122D01*
X118194319Y-62271426D01*
X118194320Y-62271426D01*
X118202982Y-62269064D01*
X118210632Y-62264367D01*
X118210634Y-62264366D01*
X118318822Y-62197939D01*
X118318825Y-62197936D01*
X118326474Y-62193240D01*
X118337542Y-62181013D01*
X118417693Y-62092463D01*
X118417694Y-62092462D01*
X118423721Y-62085803D01*
X118431337Y-62070085D01*
X118482991Y-61963470D01*
X118482991Y-61963469D01*
X118486905Y-61955391D01*
X118510947Y-61812487D01*
X118511100Y-61800000D01*
X118490556Y-61656551D01*
X118484142Y-61642443D01*
X118434293Y-61532808D01*
X118430577Y-61524634D01*
X118335984Y-61414854D01*
X118315918Y-61401848D01*
X118221913Y-61340916D01*
X118221911Y-61340915D01*
X118214382Y-61336035D01*
X118205785Y-61333464D01*
X118205783Y-61333463D01*
X118086997Y-61297939D01*
X118075545Y-61294514D01*
X118066569Y-61294459D01*
X118066568Y-61294459D01*
X118004179Y-61294078D01*
X117930636Y-61293629D01*
X117922005Y-61296096D01*
X117922003Y-61296096D01*
X117799933Y-61330983D01*
X117799931Y-61330984D01*
X117791302Y-61333450D01*
X117783711Y-61338239D01*
X117783710Y-61338240D01*
X117734858Y-61369064D01*
X117668746Y-61410778D01*
X117572819Y-61519394D01*
X117511233Y-61650569D01*
X117509852Y-61659438D01*
X117492624Y-61770085D01*
X117488938Y-61793756D01*
X105366522Y-61793756D01*
X105367693Y-61792463D01*
X105367694Y-61792462D01*
X105373721Y-61785803D01*
X105381337Y-61770085D01*
X105432991Y-61663470D01*
X105432991Y-61663469D01*
X105436905Y-61655391D01*
X105443781Y-61614518D01*
X105474807Y-61550660D01*
X105568035Y-61509422D01*
X106700000Y-61509422D01*
X106700000Y-60193756D01*
X107688938Y-60193756D01*
X107690102Y-60202658D01*
X107690102Y-60202661D01*
X107705663Y-60321656D01*
X107707728Y-60337445D01*
X107766091Y-60470085D01*
X107859335Y-60581013D01*
X107866806Y-60585986D01*
X107866807Y-60585987D01*
X107972491Y-60656336D01*
X107972495Y-60656338D01*
X107979966Y-60661311D01*
X108004782Y-60669064D01*
X108105623Y-60700569D01*
X108118285Y-60704525D01*
X108127257Y-60704689D01*
X108127260Y-60704690D01*
X108193272Y-60705900D01*
X108263173Y-60707181D01*
X108344956Y-60684884D01*
X108394319Y-60671426D01*
X108394320Y-60671426D01*
X108402982Y-60669064D01*
X108410632Y-60664367D01*
X108410634Y-60664366D01*
X108518822Y-60597939D01*
X108518825Y-60597936D01*
X108526474Y-60593240D01*
X108537542Y-60581013D01*
X108616522Y-60493756D01*
X110988938Y-60493756D01*
X110990102Y-60502658D01*
X110990102Y-60502661D01*
X111006430Y-60627520D01*
X111007728Y-60637445D01*
X111066091Y-60770085D01*
X111159335Y-60881013D01*
X111166806Y-60885986D01*
X111166807Y-60885987D01*
X111272491Y-60956336D01*
X111272495Y-60956338D01*
X111279966Y-60961311D01*
X111418285Y-61004525D01*
X111427257Y-61004689D01*
X111427260Y-61004690D01*
X111493272Y-61005900D01*
X111563173Y-61007181D01*
X111633077Y-60988123D01*
X111694319Y-60971426D01*
X111694320Y-60971426D01*
X111702982Y-60969064D01*
X111710632Y-60964367D01*
X111710634Y-60964366D01*
X111818822Y-60897939D01*
X111818825Y-60897936D01*
X111825633Y-60893756D01*
X122288938Y-60893756D01*
X122290102Y-60902658D01*
X122290102Y-60902661D01*
X122303749Y-61007016D01*
X122307728Y-61037445D01*
X122366091Y-61170085D01*
X122459335Y-61281013D01*
X122466806Y-61285986D01*
X122466807Y-61285987D01*
X122572491Y-61356336D01*
X122572495Y-61356338D01*
X122579966Y-61361311D01*
X122718285Y-61404525D01*
X122727257Y-61404689D01*
X122727260Y-61404690D01*
X122793272Y-61405900D01*
X122863173Y-61407181D01*
X122933077Y-61388123D01*
X122994319Y-61371426D01*
X122994320Y-61371426D01*
X123002982Y-61369064D01*
X123010632Y-61364367D01*
X123010634Y-61364366D01*
X123118822Y-61297939D01*
X123118825Y-61297936D01*
X123126474Y-61293240D01*
X123137542Y-61281013D01*
X123217693Y-61192463D01*
X123217694Y-61192462D01*
X123223721Y-61185803D01*
X123231337Y-61170085D01*
X123282991Y-61063470D01*
X123282991Y-61063469D01*
X123286905Y-61055391D01*
X123310947Y-60912487D01*
X123311100Y-60900000D01*
X123309179Y-60886583D01*
X123291829Y-60765438D01*
X123291829Y-60765436D01*
X123290556Y-60756551D01*
X123284142Y-60742443D01*
X123268034Y-60707016D01*
X123262006Y-60693756D01*
X124688938Y-60693756D01*
X124690102Y-60702658D01*
X124690102Y-60702661D01*
X124706564Y-60828546D01*
X124707728Y-60837445D01*
X124766091Y-60970085D01*
X124859335Y-61081013D01*
X124866806Y-61085986D01*
X124866807Y-61085987D01*
X124972491Y-61156336D01*
X124972495Y-61156338D01*
X124979966Y-61161311D01*
X125118285Y-61204525D01*
X125127257Y-61204689D01*
X125127260Y-61204690D01*
X125193272Y-61205900D01*
X125263173Y-61207181D01*
X125341585Y-61185803D01*
X125394319Y-61171426D01*
X125394320Y-61171426D01*
X125402982Y-61169064D01*
X125410632Y-61164367D01*
X125410634Y-61164366D01*
X125518822Y-61097939D01*
X125518825Y-61097936D01*
X125526474Y-61093240D01*
X125537542Y-61081013D01*
X125617693Y-60992463D01*
X125617694Y-60992462D01*
X125623721Y-60985803D01*
X125631337Y-60970085D01*
X125668317Y-60893756D01*
X151888938Y-60893756D01*
X151890102Y-60902658D01*
X151890102Y-60902661D01*
X151903749Y-61007016D01*
X151907728Y-61037445D01*
X151966091Y-61170085D01*
X152059335Y-61281013D01*
X152066806Y-61285986D01*
X152066807Y-61285987D01*
X152172491Y-61356336D01*
X152172495Y-61356338D01*
X152179966Y-61361311D01*
X152318285Y-61404525D01*
X152327257Y-61404689D01*
X152327260Y-61404690D01*
X152393272Y-61405900D01*
X152463173Y-61407181D01*
X152533077Y-61388123D01*
X152594319Y-61371426D01*
X152594320Y-61371426D01*
X152602982Y-61369064D01*
X152610632Y-61364367D01*
X152610634Y-61364366D01*
X152718822Y-61297939D01*
X152718825Y-61297936D01*
X152726474Y-61293240D01*
X152737542Y-61281013D01*
X152817693Y-61192463D01*
X152817694Y-61192462D01*
X152823721Y-61185803D01*
X152831337Y-61170085D01*
X152882991Y-61063470D01*
X152882991Y-61063469D01*
X152886905Y-61055391D01*
X152910947Y-60912487D01*
X152911100Y-60900000D01*
X152909179Y-60886583D01*
X152891829Y-60765438D01*
X152891829Y-60765436D01*
X152890556Y-60756551D01*
X152884142Y-60742443D01*
X152868034Y-60707016D01*
X152830577Y-60624634D01*
X152735984Y-60514854D01*
X152691164Y-60485803D01*
X152621913Y-60440916D01*
X152621911Y-60440915D01*
X152614382Y-60436035D01*
X152605785Y-60433464D01*
X152605783Y-60433463D01*
X152486997Y-60397939D01*
X152475545Y-60394514D01*
X152466569Y-60394459D01*
X152466568Y-60394459D01*
X152404179Y-60394078D01*
X152330636Y-60393629D01*
X152322005Y-60396096D01*
X152322003Y-60396096D01*
X152199933Y-60430983D01*
X152199931Y-60430984D01*
X152191302Y-60433450D01*
X152183711Y-60438239D01*
X152183710Y-60438240D01*
X152078656Y-60504525D01*
X152068746Y-60510778D01*
X151972819Y-60619394D01*
X151911233Y-60750569D01*
X151909852Y-60759438D01*
X151893654Y-60863470D01*
X151888938Y-60893756D01*
X125668317Y-60893756D01*
X125682991Y-60863470D01*
X125682991Y-60863469D01*
X125686905Y-60855391D01*
X125704540Y-60750569D01*
X125710140Y-60717285D01*
X125710140Y-60717282D01*
X125710947Y-60712487D01*
X125711100Y-60700000D01*
X125705869Y-60663470D01*
X125691829Y-60565438D01*
X125691829Y-60565436D01*
X125690556Y-60556551D01*
X125684142Y-60542443D01*
X125672703Y-60517285D01*
X125630577Y-60424634D01*
X125535984Y-60314854D01*
X125477520Y-60276959D01*
X125421913Y-60240916D01*
X125421911Y-60240915D01*
X125414382Y-60236035D01*
X125405785Y-60233464D01*
X125405783Y-60233463D01*
X125319382Y-60207624D01*
X125275545Y-60194514D01*
X125266569Y-60194459D01*
X125266568Y-60194459D01*
X125204179Y-60194078D01*
X125130636Y-60193629D01*
X125122005Y-60196096D01*
X125122003Y-60196096D01*
X124999933Y-60230983D01*
X124999931Y-60230984D01*
X124991302Y-60233450D01*
X124983711Y-60238239D01*
X124983710Y-60238240D01*
X124897773Y-60292463D01*
X124868746Y-60310778D01*
X124772819Y-60419394D01*
X124769004Y-60427520D01*
X124724808Y-60521656D01*
X124711233Y-60550569D01*
X124709852Y-60559438D01*
X124692783Y-60669064D01*
X124688938Y-60693756D01*
X123262006Y-60693756D01*
X123230577Y-60624634D01*
X123135984Y-60514854D01*
X123091164Y-60485803D01*
X123021913Y-60440916D01*
X123021911Y-60440915D01*
X123014382Y-60436035D01*
X123005785Y-60433464D01*
X123005783Y-60433463D01*
X122886997Y-60397939D01*
X122875545Y-60394514D01*
X122866569Y-60394459D01*
X122866568Y-60394459D01*
X122804179Y-60394078D01*
X122730636Y-60393629D01*
X122722005Y-60396096D01*
X122722003Y-60396096D01*
X122599933Y-60430983D01*
X122599931Y-60430984D01*
X122591302Y-60433450D01*
X122583711Y-60438239D01*
X122583710Y-60438240D01*
X122478656Y-60504525D01*
X122468746Y-60510778D01*
X122372819Y-60619394D01*
X122311233Y-60750569D01*
X122309852Y-60759438D01*
X122293654Y-60863470D01*
X122288938Y-60893756D01*
X111825633Y-60893756D01*
X111826474Y-60893240D01*
X111834038Y-60884884D01*
X111917693Y-60792463D01*
X111917694Y-60792462D01*
X111923721Y-60785803D01*
X111931337Y-60770085D01*
X111982991Y-60663470D01*
X111982991Y-60663469D01*
X111986905Y-60655391D01*
X112004762Y-60549252D01*
X112010140Y-60517285D01*
X112010140Y-60517282D01*
X112010947Y-60512487D01*
X112011100Y-60500000D01*
X112002639Y-60440916D01*
X111991829Y-60365438D01*
X111991829Y-60365436D01*
X111990556Y-60356551D01*
X111984142Y-60342443D01*
X111972804Y-60317507D01*
X111930577Y-60224634D01*
X111835984Y-60114854D01*
X111759745Y-60065438D01*
X111721913Y-60040916D01*
X111721911Y-60040915D01*
X111714382Y-60036035D01*
X111705785Y-60033464D01*
X111705783Y-60033463D01*
X111617349Y-60007016D01*
X111575545Y-59994514D01*
X111566569Y-59994459D01*
X111566568Y-59994459D01*
X111504179Y-59994078D01*
X111451438Y-59993756D01*
X146088938Y-59993756D01*
X146090102Y-60002658D01*
X146090102Y-60002661D01*
X146105663Y-60121656D01*
X146107728Y-60137445D01*
X146166091Y-60270085D01*
X146259335Y-60381013D01*
X146266806Y-60385986D01*
X146266807Y-60385987D01*
X146372491Y-60456336D01*
X146372495Y-60456338D01*
X146379966Y-60461311D01*
X146404782Y-60469064D01*
X146505399Y-60500499D01*
X146518285Y-60504525D01*
X146527257Y-60504689D01*
X146527260Y-60504690D01*
X146593272Y-60505900D01*
X146663173Y-60507181D01*
X146744956Y-60484884D01*
X146794319Y-60471426D01*
X146794320Y-60471426D01*
X146802982Y-60469064D01*
X146810632Y-60464367D01*
X146810634Y-60464366D01*
X146918822Y-60397939D01*
X146918825Y-60397936D01*
X146926474Y-60393240D01*
X146937542Y-60381013D01*
X147017693Y-60292463D01*
X147017694Y-60292462D01*
X147023721Y-60285803D01*
X147031337Y-60270085D01*
X147082991Y-60163470D01*
X147082991Y-60163469D01*
X147086905Y-60155391D01*
X147104540Y-60050569D01*
X147110140Y-60017285D01*
X147110140Y-60017282D01*
X147110947Y-60012487D01*
X147111100Y-60000000D01*
X147110315Y-59994514D01*
X147091829Y-59865438D01*
X147091829Y-59865436D01*
X147090556Y-59856551D01*
X147084142Y-59842443D01*
X147072804Y-59817507D01*
X147030577Y-59724634D01*
X146935984Y-59614854D01*
X146856709Y-59563470D01*
X146821913Y-59540916D01*
X146821911Y-59540915D01*
X146814382Y-59536035D01*
X146805785Y-59533464D01*
X146805783Y-59533463D01*
X146719382Y-59507624D01*
X146675545Y-59494514D01*
X146666569Y-59494459D01*
X146666568Y-59494459D01*
X146604179Y-59494078D01*
X146530636Y-59493629D01*
X146522005Y-59496096D01*
X146522003Y-59496096D01*
X146399933Y-59530983D01*
X146399931Y-59530984D01*
X146391302Y-59533450D01*
X146383711Y-59538239D01*
X146383710Y-59538240D01*
X146276339Y-59605987D01*
X146268746Y-59610778D01*
X146172819Y-59719394D01*
X146169004Y-59727520D01*
X146124808Y-59821656D01*
X146111233Y-59850569D01*
X146109852Y-59859438D01*
X146092783Y-59969064D01*
X146088938Y-59993756D01*
X111451438Y-59993756D01*
X111430636Y-59993629D01*
X111422005Y-59996096D01*
X111422003Y-59996096D01*
X111299933Y-60030983D01*
X111299931Y-60030984D01*
X111291302Y-60033450D01*
X111283711Y-60038239D01*
X111283710Y-60038240D01*
X111197805Y-60092443D01*
X111168746Y-60110778D01*
X111072819Y-60219394D01*
X111069004Y-60227520D01*
X111024808Y-60321656D01*
X111011233Y-60350569D01*
X111009852Y-60359438D01*
X110992624Y-60470085D01*
X110988938Y-60493756D01*
X108616522Y-60493756D01*
X108617693Y-60492463D01*
X108617694Y-60492462D01*
X108623721Y-60485803D01*
X108631337Y-60470085D01*
X108682991Y-60363470D01*
X108682991Y-60363469D01*
X108686905Y-60355391D01*
X108708418Y-60227520D01*
X108710140Y-60217285D01*
X108710140Y-60217282D01*
X108710947Y-60212487D01*
X108711100Y-60200000D01*
X108710315Y-60194514D01*
X108691829Y-60065438D01*
X108691829Y-60065436D01*
X108690556Y-60056551D01*
X108684142Y-60042443D01*
X108668034Y-60007016D01*
X108630577Y-59924634D01*
X108535984Y-59814854D01*
X108494924Y-59788240D01*
X108421913Y-59740916D01*
X108421911Y-59740915D01*
X108414382Y-59736035D01*
X108405785Y-59733464D01*
X108405783Y-59733463D01*
X108321990Y-59708404D01*
X108275545Y-59694514D01*
X108266569Y-59694459D01*
X108266568Y-59694459D01*
X108204179Y-59694078D01*
X108130636Y-59693629D01*
X108122005Y-59696096D01*
X108122003Y-59696096D01*
X107999933Y-59730983D01*
X107999931Y-59730984D01*
X107991302Y-59733450D01*
X107983711Y-59738239D01*
X107983710Y-59738240D01*
X107889094Y-59797939D01*
X107868746Y-59810778D01*
X107772819Y-59919394D01*
X107769004Y-59927520D01*
X107720429Y-60030983D01*
X107711233Y-60050569D01*
X107709852Y-60059438D01*
X107693654Y-60163470D01*
X107688938Y-60193756D01*
X106700000Y-60193756D01*
X106700000Y-59493756D01*
X109688938Y-59493756D01*
X109690102Y-59502658D01*
X109690102Y-59502661D01*
X109705663Y-59621656D01*
X109707728Y-59637445D01*
X109766091Y-59770085D01*
X109859335Y-59881013D01*
X109866806Y-59885986D01*
X109972491Y-59956336D01*
X109972495Y-59956338D01*
X109979966Y-59961311D01*
X110004782Y-59969064D01*
X110094478Y-59997087D01*
X110118285Y-60004525D01*
X110127257Y-60004689D01*
X110127260Y-60004690D01*
X110193272Y-60005900D01*
X110263173Y-60007181D01*
X110344956Y-59984884D01*
X110394319Y-59971426D01*
X110394320Y-59971426D01*
X110402982Y-59969064D01*
X110410632Y-59964367D01*
X110410634Y-59964366D01*
X110518822Y-59897939D01*
X110518825Y-59897936D01*
X110526474Y-59893240D01*
X110537542Y-59881013D01*
X110617693Y-59792463D01*
X110617694Y-59792462D01*
X110623721Y-59785803D01*
X110629372Y-59774141D01*
X110682991Y-59663470D01*
X110682991Y-59663469D01*
X110686905Y-59655391D01*
X110710947Y-59512487D01*
X110711100Y-59500000D01*
X110710315Y-59494514D01*
X110691829Y-59365438D01*
X110691829Y-59365436D01*
X110690556Y-59356551D01*
X110684142Y-59342443D01*
X110649129Y-59265438D01*
X110630577Y-59224634D01*
X110535984Y-59114854D01*
X110497153Y-59089685D01*
X110421913Y-59040916D01*
X110421911Y-59040915D01*
X110414382Y-59036035D01*
X110405785Y-59033464D01*
X110405783Y-59033463D01*
X110307501Y-59004071D01*
X110275545Y-58994514D01*
X110266569Y-58994459D01*
X110266568Y-58994459D01*
X110204179Y-58994078D01*
X110130636Y-58993629D01*
X110122005Y-58996096D01*
X110122003Y-58996096D01*
X109999933Y-59030983D01*
X109999931Y-59030984D01*
X109991302Y-59033450D01*
X109983711Y-59038239D01*
X109983710Y-59038240D01*
X109876339Y-59105987D01*
X109868746Y-59110778D01*
X109772819Y-59219394D01*
X109711233Y-59350569D01*
X109709852Y-59359438D01*
X109704509Y-59393756D01*
X109688938Y-59493756D01*
X106700000Y-59493756D01*
X106700000Y-58693756D01*
X151688938Y-58693756D01*
X151690102Y-58702658D01*
X151690102Y-58702661D01*
X151706564Y-58828546D01*
X151707728Y-58837445D01*
X151766091Y-58970085D01*
X151859335Y-59081013D01*
X151866811Y-59085989D01*
X151866815Y-59085993D01*
X151869154Y-59087550D01*
X151870945Y-59089685D01*
X151873500Y-59091970D01*
X151873170Y-59092339D01*
X151914775Y-59141949D01*
X151913565Y-59232603D01*
X151917672Y-59233859D01*
X151915046Y-59242447D01*
X151911233Y-59250569D01*
X151909853Y-59259434D01*
X151909852Y-59259436D01*
X151894282Y-59359438D01*
X151888938Y-59393756D01*
X151890102Y-59402658D01*
X151890102Y-59402661D01*
X151906564Y-59528546D01*
X151907728Y-59537445D01*
X151937887Y-59605987D01*
X151955731Y-59646539D01*
X151966091Y-59670085D01*
X152059335Y-59781013D01*
X152066806Y-59785986D01*
X152066807Y-59785987D01*
X152172491Y-59856336D01*
X152172495Y-59856338D01*
X152179966Y-59861311D01*
X152193176Y-59865438D01*
X152297205Y-59897939D01*
X152318285Y-59904525D01*
X152327257Y-59904689D01*
X152327260Y-59904690D01*
X152393272Y-59905900D01*
X152463173Y-59907181D01*
X152540914Y-59885986D01*
X152594319Y-59871426D01*
X152594320Y-59871426D01*
X152602982Y-59869064D01*
X152610632Y-59864367D01*
X152610634Y-59864366D01*
X152718822Y-59797939D01*
X152718825Y-59797936D01*
X152726474Y-59793240D01*
X152735336Y-59783450D01*
X152817693Y-59692463D01*
X152817694Y-59692462D01*
X152823721Y-59685803D01*
X152831337Y-59670085D01*
X152882991Y-59563470D01*
X152882991Y-59563469D01*
X152886905Y-59555391D01*
X152910947Y-59412487D01*
X152911100Y-59400000D01*
X152906151Y-59365438D01*
X152891829Y-59265438D01*
X152891829Y-59265436D01*
X152890556Y-59256551D01*
X152830577Y-59124634D01*
X152735984Y-59014854D01*
X152728449Y-59009970D01*
X152721687Y-59004071D01*
X152723508Y-59001983D01*
X152686515Y-58958939D01*
X152681305Y-58868754D01*
X152682993Y-58863466D01*
X152686905Y-58855391D01*
X152691422Y-58828546D01*
X152710140Y-58717285D01*
X152710140Y-58717282D01*
X152710947Y-58712487D01*
X152711100Y-58700000D01*
X152709288Y-58687344D01*
X152691829Y-58565438D01*
X152691829Y-58565436D01*
X152690556Y-58556551D01*
X152684142Y-58542443D01*
X152648358Y-58463741D01*
X152630577Y-58424634D01*
X152535984Y-58314854D01*
X152439945Y-58252604D01*
X152421913Y-58240916D01*
X152421911Y-58240915D01*
X152414382Y-58236035D01*
X152405785Y-58233464D01*
X152405783Y-58233463D01*
X152297166Y-58200980D01*
X152275545Y-58194514D01*
X152266569Y-58194459D01*
X152266568Y-58194459D01*
X152204179Y-58194078D01*
X152130636Y-58193629D01*
X152122005Y-58196096D01*
X152122003Y-58196096D01*
X151999933Y-58230983D01*
X151999931Y-58230984D01*
X151991302Y-58233450D01*
X151983711Y-58238239D01*
X151983710Y-58238240D01*
X151960945Y-58252604D01*
X151868746Y-58310778D01*
X151772819Y-58419394D01*
X151711233Y-58550569D01*
X151688938Y-58693756D01*
X106700000Y-58693756D01*
X106700000Y-57709422D01*
X106692886Y-57709422D01*
X106655356Y-57651024D01*
X106655356Y-57580028D01*
X106682837Y-57530971D01*
X106717693Y-57492463D01*
X106717694Y-57492462D01*
X106723721Y-57485803D01*
X106731337Y-57470085D01*
X106782991Y-57363470D01*
X106782991Y-57363469D01*
X106786905Y-57355391D01*
X106810947Y-57212487D01*
X106811100Y-57200000D01*
X106807421Y-57174306D01*
X106791829Y-57065438D01*
X106791829Y-57065436D01*
X106790556Y-57056551D01*
X106762006Y-56993756D01*
X113088938Y-56993756D01*
X113090102Y-57002658D01*
X113090102Y-57002661D01*
X113102061Y-57094111D01*
X113107728Y-57137445D01*
X113166091Y-57270085D01*
X113259335Y-57381013D01*
X113266806Y-57385986D01*
X113266807Y-57385987D01*
X113372491Y-57456336D01*
X113372495Y-57456338D01*
X113379966Y-57461311D01*
X113390743Y-57464678D01*
X113483816Y-57493756D01*
X113518285Y-57504525D01*
X113527257Y-57504689D01*
X113527260Y-57504690D01*
X113593272Y-57505900D01*
X113663173Y-57507181D01*
X113695234Y-57498440D01*
X113766215Y-57499819D01*
X113825184Y-57539356D01*
X113853311Y-57603667D01*
X113857728Y-57637445D01*
X113916091Y-57770085D01*
X114009335Y-57881013D01*
X114016806Y-57885986D01*
X114016807Y-57885987D01*
X114122491Y-57956336D01*
X114122495Y-57956338D01*
X114129966Y-57961311D01*
X114154782Y-57969064D01*
X114238150Y-57995110D01*
X114268285Y-58004525D01*
X114277257Y-58004689D01*
X114277260Y-58004690D01*
X114343272Y-58005900D01*
X114413173Y-58007181D01*
X114494233Y-57985081D01*
X114544319Y-57971426D01*
X114544320Y-57971426D01*
X114552982Y-57969064D01*
X114560632Y-57964367D01*
X114560634Y-57964366D01*
X114668822Y-57897939D01*
X114668825Y-57897936D01*
X114676474Y-57893240D01*
X114687542Y-57881013D01*
X114767693Y-57792463D01*
X114767694Y-57792462D01*
X114773721Y-57785803D01*
X114781337Y-57770085D01*
X114832991Y-57663470D01*
X114832991Y-57663469D01*
X114836905Y-57655391D01*
X114844446Y-57610567D01*
X114875473Y-57546709D01*
X114971009Y-57505492D01*
X115015105Y-57506300D01*
X115063173Y-57507181D01*
X115141585Y-57485803D01*
X115194319Y-57471426D01*
X115194320Y-57471426D01*
X115202982Y-57469064D01*
X115210632Y-57464367D01*
X115210634Y-57464366D01*
X115318822Y-57397939D01*
X115318825Y-57397936D01*
X115326474Y-57393240D01*
X115335270Y-57383523D01*
X115417693Y-57292463D01*
X115417694Y-57292462D01*
X115423721Y-57285803D01*
X115429372Y-57274141D01*
X115482991Y-57163470D01*
X115482991Y-57163469D01*
X115486905Y-57155391D01*
X115502497Y-57062714D01*
X115510140Y-57017285D01*
X115510140Y-57017282D01*
X115510947Y-57012487D01*
X115511100Y-57000000D01*
X115510315Y-56994514D01*
X115491829Y-56865438D01*
X115491829Y-56865436D01*
X115490556Y-56856551D01*
X115484142Y-56842443D01*
X115453422Y-56774880D01*
X115430577Y-56724634D01*
X115335984Y-56614854D01*
X115305620Y-56595173D01*
X115221913Y-56540916D01*
X115221911Y-56540915D01*
X115214382Y-56536035D01*
X115205785Y-56533464D01*
X115205783Y-56533463D01*
X115100740Y-56502049D01*
X115075545Y-56494514D01*
X115066569Y-56494459D01*
X115066568Y-56494459D01*
X115004179Y-56494078D01*
X114930636Y-56493629D01*
X114922005Y-56496096D01*
X114922003Y-56496096D01*
X114799933Y-56530983D01*
X114799931Y-56530984D01*
X114791302Y-56533450D01*
X114668746Y-56610778D01*
X114662803Y-56617507D01*
X114659139Y-56621656D01*
X114572819Y-56719394D01*
X114511233Y-56850569D01*
X114509852Y-56859438D01*
X114505463Y-56887625D01*
X114475218Y-56951857D01*
X114380194Y-56994237D01*
X114367802Y-56994161D01*
X114280636Y-56993629D01*
X114272005Y-56996096D01*
X114272003Y-56996096D01*
X114255765Y-57000737D01*
X114184770Y-57000224D01*
X114125323Y-56961410D01*
X114096414Y-56897452D01*
X114091829Y-56865437D01*
X114091828Y-56865434D01*
X114090556Y-56856551D01*
X114084142Y-56842443D01*
X114053422Y-56774880D01*
X114030577Y-56724634D01*
X113935984Y-56614854D01*
X113905620Y-56595173D01*
X113821913Y-56540916D01*
X113821911Y-56540915D01*
X113814382Y-56536035D01*
X113805785Y-56533464D01*
X113805783Y-56533463D01*
X113700740Y-56502049D01*
X113675545Y-56494514D01*
X113666569Y-56494459D01*
X113666568Y-56494459D01*
X113604179Y-56494078D01*
X113530636Y-56493629D01*
X113522005Y-56496096D01*
X113522003Y-56496096D01*
X113399933Y-56530983D01*
X113399931Y-56530984D01*
X113391302Y-56533450D01*
X113268746Y-56610778D01*
X113262803Y-56617507D01*
X113259139Y-56621656D01*
X113172819Y-56719394D01*
X113111233Y-56850569D01*
X113109852Y-56859438D01*
X113092842Y-56968685D01*
X113088938Y-56993756D01*
X106762006Y-56993756D01*
X106742634Y-56951151D01*
X106732647Y-56880863D01*
X106743943Y-56844064D01*
X106744729Y-56842443D01*
X106771544Y-56787096D01*
X106782991Y-56763470D01*
X106782991Y-56763469D01*
X106786905Y-56755391D01*
X106809116Y-56623373D01*
X106810140Y-56617285D01*
X106810140Y-56617282D01*
X106810947Y-56612487D01*
X106811100Y-56600000D01*
X106802639Y-56540916D01*
X106791829Y-56465438D01*
X106791829Y-56465436D01*
X106790556Y-56456551D01*
X106782231Y-56438240D01*
X106746823Y-56360365D01*
X106730577Y-56324634D01*
X106724715Y-56317831D01*
X106719881Y-56310272D01*
X106722371Y-56308680D01*
X106699208Y-56257588D01*
X106709505Y-56187342D01*
X106756146Y-56133815D01*
X106823974Y-56114000D01*
X119354242Y-56114000D01*
X119422363Y-56134002D01*
X119468856Y-56187658D01*
X119478960Y-56257932D01*
X119449466Y-56322512D01*
X119389817Y-56360874D01*
X119263292Y-56398112D01*
X119080131Y-56493867D01*
X118919057Y-56623373D01*
X118786205Y-56781700D01*
X118783241Y-56787092D01*
X118783238Y-56787096D01*
X118740635Y-56864591D01*
X118686636Y-56962816D01*
X118684775Y-56968683D01*
X118684774Y-56968685D01*
X118648786Y-57082134D01*
X118624142Y-57159822D01*
X118601103Y-57365214D01*
X118606252Y-57426530D01*
X118613025Y-57507181D01*
X118618398Y-57571170D01*
X118620097Y-57577095D01*
X118669930Y-57750882D01*
X118675367Y-57769844D01*
X118678183Y-57775323D01*
X118735363Y-57886583D01*
X118769840Y-57953669D01*
X118898219Y-58115643D01*
X118902913Y-58119638D01*
X119042270Y-58238240D01*
X119055614Y-58249597D01*
X119060992Y-58252603D01*
X119060994Y-58252604D01*
X119145822Y-58300012D01*
X119236030Y-58350428D01*
X119432595Y-58414296D01*
X119637822Y-58438768D01*
X119643957Y-58438296D01*
X119643959Y-58438296D01*
X119837752Y-58423384D01*
X119837757Y-58423383D01*
X119843893Y-58422911D01*
X119849823Y-58421255D01*
X119849825Y-58421255D01*
X120037032Y-58368986D01*
X120037031Y-58368986D01*
X120042960Y-58367331D01*
X120227441Y-58274143D01*
X120258859Y-58249597D01*
X120385451Y-58150692D01*
X120390307Y-58146898D01*
X120422968Y-58109060D01*
X120521327Y-57995110D01*
X120521328Y-57995108D01*
X120525356Y-57990442D01*
X120627445Y-57810734D01*
X120692683Y-57614620D01*
X120718587Y-57409569D01*
X120718908Y-57386583D01*
X120718951Y-57383523D01*
X120718951Y-57383519D01*
X120719000Y-57380000D01*
X120698832Y-57174306D01*
X120639094Y-56976446D01*
X120542064Y-56793958D01*
X120537164Y-56787950D01*
X120415330Y-56638567D01*
X120415327Y-56638564D01*
X120411435Y-56633792D01*
X120404545Y-56628092D01*
X120256935Y-56505978D01*
X120256931Y-56505976D01*
X120252185Y-56502049D01*
X120070379Y-56403747D01*
X119930234Y-56360365D01*
X119871074Y-56321114D01*
X119842527Y-56256109D01*
X119853656Y-56185990D01*
X119900927Y-56133019D01*
X119967493Y-56114000D01*
X121894242Y-56114000D01*
X121962363Y-56134002D01*
X122008856Y-56187658D01*
X122018960Y-56257932D01*
X121989466Y-56322512D01*
X121929817Y-56360874D01*
X121803292Y-56398112D01*
X121620131Y-56493867D01*
X121459057Y-56623373D01*
X121326205Y-56781700D01*
X121323241Y-56787092D01*
X121323238Y-56787096D01*
X121280635Y-56864591D01*
X121226636Y-56962816D01*
X121224775Y-56968683D01*
X121224774Y-56968685D01*
X121188786Y-57082134D01*
X121164142Y-57159822D01*
X121141103Y-57365214D01*
X121146252Y-57426530D01*
X121153025Y-57507181D01*
X121158398Y-57571170D01*
X121160097Y-57577095D01*
X121209930Y-57750882D01*
X121215367Y-57769844D01*
X121218183Y-57775323D01*
X121275363Y-57886583D01*
X121309840Y-57953669D01*
X121438219Y-58115643D01*
X121442913Y-58119638D01*
X121582270Y-58238240D01*
X121595614Y-58249597D01*
X121600992Y-58252603D01*
X121600994Y-58252604D01*
X121685822Y-58300012D01*
X121776030Y-58350428D01*
X121972595Y-58414296D01*
X122177822Y-58438768D01*
X122183957Y-58438296D01*
X122183959Y-58438296D01*
X122377752Y-58423384D01*
X122377757Y-58423383D01*
X122383893Y-58422911D01*
X122389823Y-58421255D01*
X122389825Y-58421255D01*
X122577032Y-58368986D01*
X122577031Y-58368986D01*
X122582960Y-58367331D01*
X122767441Y-58274143D01*
X122798859Y-58249597D01*
X122925451Y-58150692D01*
X122930307Y-58146898D01*
X122962968Y-58109060D01*
X123061327Y-57995110D01*
X123061328Y-57995108D01*
X123065356Y-57990442D01*
X123167445Y-57810734D01*
X123232683Y-57614620D01*
X123258587Y-57409569D01*
X123258908Y-57386583D01*
X123258951Y-57383523D01*
X123258951Y-57383519D01*
X123259000Y-57380000D01*
X123238832Y-57174306D01*
X123179094Y-56976446D01*
X123082064Y-56793958D01*
X123077164Y-56787950D01*
X122955330Y-56638567D01*
X122955327Y-56638564D01*
X122951435Y-56633792D01*
X122944545Y-56628092D01*
X122796935Y-56505978D01*
X122796931Y-56505976D01*
X122792185Y-56502049D01*
X122610379Y-56403747D01*
X122470234Y-56360365D01*
X122411074Y-56321114D01*
X122382527Y-56256109D01*
X122393656Y-56185990D01*
X122440927Y-56133019D01*
X122507493Y-56114000D01*
X124434242Y-56114000D01*
X124502363Y-56134002D01*
X124548856Y-56187658D01*
X124558960Y-56257932D01*
X124529466Y-56322512D01*
X124469817Y-56360874D01*
X124343292Y-56398112D01*
X124160131Y-56493867D01*
X123999057Y-56623373D01*
X123866205Y-56781700D01*
X123863241Y-56787092D01*
X123863238Y-56787096D01*
X123820635Y-56864591D01*
X123766636Y-56962816D01*
X123764775Y-56968683D01*
X123764774Y-56968685D01*
X123728786Y-57082134D01*
X123704142Y-57159822D01*
X123681103Y-57365214D01*
X123686252Y-57426530D01*
X123693025Y-57507181D01*
X123698398Y-57571170D01*
X123700097Y-57577095D01*
X123749930Y-57750882D01*
X123755367Y-57769844D01*
X123758183Y-57775323D01*
X123815363Y-57886583D01*
X123849840Y-57953669D01*
X123978219Y-58115643D01*
X123982913Y-58119638D01*
X124122270Y-58238240D01*
X124135614Y-58249597D01*
X124140992Y-58252603D01*
X124140994Y-58252604D01*
X124225822Y-58300012D01*
X124316030Y-58350428D01*
X124512595Y-58414296D01*
X124717822Y-58438768D01*
X124723957Y-58438296D01*
X124723959Y-58438296D01*
X124917752Y-58423384D01*
X124917757Y-58423383D01*
X124923893Y-58422911D01*
X124929823Y-58421255D01*
X124929825Y-58421255D01*
X125117032Y-58368986D01*
X125117031Y-58368986D01*
X125122960Y-58367331D01*
X125307441Y-58274143D01*
X125338859Y-58249597D01*
X125465451Y-58150692D01*
X125470307Y-58146898D01*
X125502968Y-58109060D01*
X125601327Y-57995110D01*
X125601328Y-57995108D01*
X125605356Y-57990442D01*
X125707445Y-57810734D01*
X125772683Y-57614620D01*
X125798587Y-57409569D01*
X125798908Y-57386583D01*
X125798951Y-57383523D01*
X125798951Y-57383519D01*
X125799000Y-57380000D01*
X125778832Y-57174306D01*
X125719094Y-56976446D01*
X125622064Y-56793958D01*
X125617164Y-56787950D01*
X125495330Y-56638567D01*
X125495327Y-56638564D01*
X125491435Y-56633792D01*
X125484545Y-56628092D01*
X125336935Y-56505978D01*
X125336931Y-56505976D01*
X125332185Y-56502049D01*
X125150379Y-56403747D01*
X125010234Y-56360365D01*
X124951074Y-56321114D01*
X124922527Y-56256109D01*
X124933656Y-56185990D01*
X124980927Y-56133019D01*
X125047493Y-56114000D01*
X126974242Y-56114000D01*
X127042363Y-56134002D01*
X127088856Y-56187658D01*
X127098960Y-56257932D01*
X127069466Y-56322512D01*
X127009817Y-56360874D01*
X126883292Y-56398112D01*
X126700131Y-56493867D01*
X126539057Y-56623373D01*
X126406205Y-56781700D01*
X126403241Y-56787092D01*
X126403238Y-56787096D01*
X126360635Y-56864591D01*
X126306636Y-56962816D01*
X126304775Y-56968683D01*
X126304774Y-56968685D01*
X126268786Y-57082134D01*
X126244142Y-57159822D01*
X126221103Y-57365214D01*
X126226252Y-57426530D01*
X126233025Y-57507181D01*
X126238398Y-57571170D01*
X126240097Y-57577095D01*
X126289930Y-57750882D01*
X126295367Y-57769844D01*
X126298183Y-57775323D01*
X126355363Y-57886583D01*
X126389840Y-57953669D01*
X126518219Y-58115643D01*
X126522913Y-58119638D01*
X126662270Y-58238240D01*
X126675614Y-58249597D01*
X126680992Y-58252603D01*
X126680994Y-58252604D01*
X126765822Y-58300012D01*
X126856030Y-58350428D01*
X127052595Y-58414296D01*
X127257822Y-58438768D01*
X127263957Y-58438296D01*
X127263959Y-58438296D01*
X127457752Y-58423384D01*
X127457757Y-58423383D01*
X127463893Y-58422911D01*
X127469823Y-58421255D01*
X127469825Y-58421255D01*
X127657032Y-58368986D01*
X127657031Y-58368986D01*
X127662960Y-58367331D01*
X127847441Y-58274143D01*
X127878859Y-58249597D01*
X128005451Y-58150692D01*
X128010307Y-58146898D01*
X128042968Y-58109060D01*
X128141327Y-57995110D01*
X128141328Y-57995108D01*
X128145356Y-57990442D01*
X128247445Y-57810734D01*
X128312683Y-57614620D01*
X128338587Y-57409569D01*
X128338908Y-57386583D01*
X128338951Y-57383523D01*
X128338951Y-57383519D01*
X128339000Y-57380000D01*
X128318832Y-57174306D01*
X128259094Y-56976446D01*
X128162064Y-56793958D01*
X128157164Y-56787950D01*
X128035330Y-56638567D01*
X128035327Y-56638564D01*
X128031435Y-56633792D01*
X128024545Y-56628092D01*
X127876935Y-56505978D01*
X127876931Y-56505976D01*
X127872185Y-56502049D01*
X127690379Y-56403747D01*
X127550234Y-56360365D01*
X127491074Y-56321114D01*
X127462527Y-56256109D01*
X127473656Y-56185990D01*
X127520927Y-56133019D01*
X127587493Y-56114000D01*
X129514242Y-56114000D01*
X129582363Y-56134002D01*
X129628856Y-56187658D01*
X129638960Y-56257932D01*
X129609466Y-56322512D01*
X129549817Y-56360874D01*
X129423292Y-56398112D01*
X129240131Y-56493867D01*
X129079057Y-56623373D01*
X128946205Y-56781700D01*
X128943241Y-56787092D01*
X128943238Y-56787096D01*
X128900635Y-56864591D01*
X128846636Y-56962816D01*
X128844775Y-56968683D01*
X128844774Y-56968685D01*
X128808786Y-57082134D01*
X128784142Y-57159822D01*
X128761103Y-57365214D01*
X128766252Y-57426530D01*
X128773025Y-57507181D01*
X128778398Y-57571170D01*
X128780097Y-57577095D01*
X128829930Y-57750882D01*
X128835367Y-57769844D01*
X128838183Y-57775323D01*
X128895363Y-57886583D01*
X128929840Y-57953669D01*
X129058219Y-58115643D01*
X129062913Y-58119638D01*
X129202270Y-58238240D01*
X129215614Y-58249597D01*
X129220992Y-58252603D01*
X129220994Y-58252604D01*
X129305822Y-58300012D01*
X129396030Y-58350428D01*
X129592595Y-58414296D01*
X129797822Y-58438768D01*
X129803957Y-58438296D01*
X129803959Y-58438296D01*
X129997752Y-58423384D01*
X129997757Y-58423383D01*
X130003893Y-58422911D01*
X130009823Y-58421255D01*
X130009825Y-58421255D01*
X130197032Y-58368986D01*
X130197031Y-58368986D01*
X130202960Y-58367331D01*
X130387441Y-58274143D01*
X130418859Y-58249597D01*
X130545451Y-58150692D01*
X130550307Y-58146898D01*
X130582968Y-58109060D01*
X130681327Y-57995110D01*
X130681328Y-57995108D01*
X130685356Y-57990442D01*
X130787445Y-57810734D01*
X130852683Y-57614620D01*
X130878587Y-57409569D01*
X130878908Y-57386583D01*
X130878951Y-57383523D01*
X130878951Y-57383519D01*
X130879000Y-57380000D01*
X130858832Y-57174306D01*
X130799094Y-56976446D01*
X130702064Y-56793958D01*
X130697164Y-56787950D01*
X130575330Y-56638567D01*
X130575327Y-56638564D01*
X130571435Y-56633792D01*
X130564545Y-56628092D01*
X130416935Y-56505978D01*
X130416931Y-56505976D01*
X130412185Y-56502049D01*
X130230379Y-56403747D01*
X130090234Y-56360365D01*
X130031074Y-56321114D01*
X130002527Y-56256109D01*
X130013656Y-56185990D01*
X130060927Y-56133019D01*
X130127493Y-56114000D01*
X132054242Y-56114000D01*
X132122363Y-56134002D01*
X132168856Y-56187658D01*
X132178960Y-56257932D01*
X132149466Y-56322512D01*
X132089817Y-56360874D01*
X131963292Y-56398112D01*
X131780131Y-56493867D01*
X131619057Y-56623373D01*
X131486205Y-56781700D01*
X131483241Y-56787092D01*
X131483238Y-56787096D01*
X131440635Y-56864591D01*
X131386636Y-56962816D01*
X131384775Y-56968683D01*
X131384774Y-56968685D01*
X131348786Y-57082134D01*
X131324142Y-57159822D01*
X131301103Y-57365214D01*
X131306252Y-57426530D01*
X131313025Y-57507181D01*
X131318398Y-57571170D01*
X131320097Y-57577095D01*
X131369930Y-57750882D01*
X131375367Y-57769844D01*
X131378183Y-57775323D01*
X131435363Y-57886583D01*
X131469840Y-57953669D01*
X131598219Y-58115643D01*
X131602913Y-58119638D01*
X131742270Y-58238240D01*
X131755614Y-58249597D01*
X131760992Y-58252603D01*
X131760994Y-58252604D01*
X131845822Y-58300012D01*
X131936030Y-58350428D01*
X132132595Y-58414296D01*
X132337822Y-58438768D01*
X132343957Y-58438296D01*
X132343959Y-58438296D01*
X132537752Y-58423384D01*
X132537757Y-58423383D01*
X132543893Y-58422911D01*
X132549823Y-58421255D01*
X132549825Y-58421255D01*
X132737032Y-58368986D01*
X132737031Y-58368986D01*
X132742960Y-58367331D01*
X132927441Y-58274143D01*
X132958859Y-58249597D01*
X133085451Y-58150692D01*
X133090307Y-58146898D01*
X133122968Y-58109060D01*
X133221327Y-57995110D01*
X133221328Y-57995108D01*
X133225356Y-57990442D01*
X133327445Y-57810734D01*
X133392683Y-57614620D01*
X133418587Y-57409569D01*
X133418908Y-57386583D01*
X133418951Y-57383523D01*
X133418951Y-57383519D01*
X133419000Y-57380000D01*
X133398832Y-57174306D01*
X133339094Y-56976446D01*
X133242064Y-56793958D01*
X133237164Y-56787950D01*
X133115330Y-56638567D01*
X133115327Y-56638564D01*
X133111435Y-56633792D01*
X133104545Y-56628092D01*
X132956935Y-56505978D01*
X132956931Y-56505976D01*
X132952185Y-56502049D01*
X132770379Y-56403747D01*
X132630234Y-56360365D01*
X132571074Y-56321114D01*
X132542527Y-56256109D01*
X132553656Y-56185990D01*
X132600927Y-56133019D01*
X132667493Y-56114000D01*
X134594242Y-56114000D01*
X134662363Y-56134002D01*
X134708856Y-56187658D01*
X134718960Y-56257932D01*
X134689466Y-56322512D01*
X134629817Y-56360874D01*
X134503292Y-56398112D01*
X134320131Y-56493867D01*
X134159057Y-56623373D01*
X134026205Y-56781700D01*
X134023241Y-56787092D01*
X134023238Y-56787096D01*
X133980635Y-56864591D01*
X133926636Y-56962816D01*
X133924775Y-56968683D01*
X133924774Y-56968685D01*
X133888786Y-57082134D01*
X133864142Y-57159822D01*
X133841103Y-57365214D01*
X133846252Y-57426530D01*
X133853025Y-57507181D01*
X133858398Y-57571170D01*
X133860097Y-57577095D01*
X133909930Y-57750882D01*
X133915367Y-57769844D01*
X133918183Y-57775323D01*
X133975363Y-57886583D01*
X134009840Y-57953669D01*
X134138219Y-58115643D01*
X134142913Y-58119638D01*
X134282270Y-58238240D01*
X134295614Y-58249597D01*
X134300992Y-58252603D01*
X134300994Y-58252604D01*
X134385822Y-58300012D01*
X134476030Y-58350428D01*
X134672595Y-58414296D01*
X134877822Y-58438768D01*
X134883957Y-58438296D01*
X134883959Y-58438296D01*
X135077752Y-58423384D01*
X135077757Y-58423383D01*
X135083893Y-58422911D01*
X135089823Y-58421255D01*
X135089825Y-58421255D01*
X135277032Y-58368986D01*
X135277031Y-58368986D01*
X135282960Y-58367331D01*
X135467441Y-58274143D01*
X135498859Y-58249597D01*
X135625451Y-58150692D01*
X135630307Y-58146898D01*
X135662968Y-58109060D01*
X135761327Y-57995110D01*
X135761328Y-57995108D01*
X135765356Y-57990442D01*
X135867445Y-57810734D01*
X135932683Y-57614620D01*
X135958587Y-57409569D01*
X135958908Y-57386583D01*
X135958951Y-57383523D01*
X135958951Y-57383519D01*
X135959000Y-57380000D01*
X135938832Y-57174306D01*
X135879094Y-56976446D01*
X135782064Y-56793958D01*
X135777164Y-56787950D01*
X135655330Y-56638567D01*
X135655327Y-56638564D01*
X135651435Y-56633792D01*
X135644545Y-56628092D01*
X135496935Y-56505978D01*
X135496931Y-56505976D01*
X135492185Y-56502049D01*
X135310379Y-56403747D01*
X135170234Y-56360365D01*
X135111074Y-56321114D01*
X135082527Y-56256109D01*
X135093656Y-56185990D01*
X135140927Y-56133019D01*
X135207493Y-56114000D01*
X137134242Y-56114000D01*
X137202363Y-56134002D01*
X137248856Y-56187658D01*
X137258960Y-56257932D01*
X137229466Y-56322512D01*
X137169817Y-56360874D01*
X137043292Y-56398112D01*
X136860131Y-56493867D01*
X136699057Y-56623373D01*
X136566205Y-56781700D01*
X136563241Y-56787092D01*
X136563238Y-56787096D01*
X136520635Y-56864591D01*
X136466636Y-56962816D01*
X136464775Y-56968683D01*
X136464774Y-56968685D01*
X136428786Y-57082134D01*
X136404142Y-57159822D01*
X136381103Y-57365214D01*
X136386252Y-57426530D01*
X136393025Y-57507181D01*
X136398398Y-57571170D01*
X136400097Y-57577095D01*
X136449930Y-57750882D01*
X136455367Y-57769844D01*
X136458183Y-57775323D01*
X136515363Y-57886583D01*
X136549840Y-57953669D01*
X136678219Y-58115643D01*
X136682913Y-58119638D01*
X136822270Y-58238240D01*
X136835614Y-58249597D01*
X136840992Y-58252603D01*
X136840994Y-58252604D01*
X136925822Y-58300012D01*
X137016030Y-58350428D01*
X137212595Y-58414296D01*
X137417822Y-58438768D01*
X137423957Y-58438296D01*
X137423959Y-58438296D01*
X137617752Y-58423384D01*
X137617757Y-58423383D01*
X137623893Y-58422911D01*
X137629823Y-58421255D01*
X137629825Y-58421255D01*
X137817032Y-58368986D01*
X137817031Y-58368986D01*
X137822960Y-58367331D01*
X138007441Y-58274143D01*
X138038859Y-58249597D01*
X138165451Y-58150692D01*
X138170307Y-58146898D01*
X138202968Y-58109060D01*
X138301327Y-57995110D01*
X138301328Y-57995108D01*
X138305356Y-57990442D01*
X138407445Y-57810734D01*
X138472683Y-57614620D01*
X138498587Y-57409569D01*
X138498908Y-57386583D01*
X138498951Y-57383523D01*
X138498951Y-57383519D01*
X138499000Y-57380000D01*
X138478832Y-57174306D01*
X138419094Y-56976446D01*
X138322064Y-56793958D01*
X138317164Y-56787950D01*
X138195330Y-56638567D01*
X138195327Y-56638564D01*
X138191435Y-56633792D01*
X138184545Y-56628092D01*
X138036935Y-56505978D01*
X138036931Y-56505976D01*
X138032185Y-56502049D01*
X137850379Y-56403747D01*
X137710234Y-56360365D01*
X137651074Y-56321114D01*
X137622527Y-56256109D01*
X137633656Y-56185990D01*
X137680927Y-56133019D01*
X137747493Y-56114000D01*
X139674242Y-56114000D01*
X139742363Y-56134002D01*
X139788856Y-56187658D01*
X139798960Y-56257932D01*
X139769466Y-56322512D01*
X139709817Y-56360874D01*
X139583292Y-56398112D01*
X139400131Y-56493867D01*
X139239057Y-56623373D01*
X139106205Y-56781700D01*
X139103241Y-56787092D01*
X139103238Y-56787096D01*
X139060635Y-56864591D01*
X139006636Y-56962816D01*
X139004775Y-56968683D01*
X139004774Y-56968685D01*
X138968786Y-57082134D01*
X138944142Y-57159822D01*
X138921103Y-57365214D01*
X138926252Y-57426530D01*
X138933025Y-57507181D01*
X138938398Y-57571170D01*
X138940097Y-57577095D01*
X138989930Y-57750882D01*
X138995367Y-57769844D01*
X138998183Y-57775323D01*
X139055363Y-57886583D01*
X139089840Y-57953669D01*
X139218219Y-58115643D01*
X139222913Y-58119638D01*
X139362270Y-58238240D01*
X139375614Y-58249597D01*
X139380992Y-58252603D01*
X139380994Y-58252604D01*
X139465822Y-58300012D01*
X139556030Y-58350428D01*
X139752595Y-58414296D01*
X139957822Y-58438768D01*
X139963957Y-58438296D01*
X139963959Y-58438296D01*
X140157752Y-58423384D01*
X140157757Y-58423383D01*
X140163893Y-58422911D01*
X140169823Y-58421255D01*
X140169825Y-58421255D01*
X140357032Y-58368986D01*
X140357031Y-58368986D01*
X140362960Y-58367331D01*
X140547441Y-58274143D01*
X140578859Y-58249597D01*
X140705451Y-58150692D01*
X140710307Y-58146898D01*
X140742968Y-58109060D01*
X140841327Y-57995110D01*
X140841328Y-57995108D01*
X140845356Y-57990442D01*
X140947445Y-57810734D01*
X141012683Y-57614620D01*
X141038587Y-57409569D01*
X141038908Y-57386583D01*
X141038951Y-57383523D01*
X141038951Y-57383519D01*
X141039000Y-57380000D01*
X141018832Y-57174306D01*
X140959094Y-56976446D01*
X140862064Y-56793958D01*
X140857164Y-56787950D01*
X140735330Y-56638567D01*
X140735327Y-56638564D01*
X140731435Y-56633792D01*
X140724545Y-56628092D01*
X140576935Y-56505978D01*
X140576931Y-56505976D01*
X140572185Y-56502049D01*
X140390379Y-56403747D01*
X140250234Y-56360365D01*
X140191074Y-56321114D01*
X140162527Y-56256109D01*
X140173656Y-56185990D01*
X140220927Y-56133019D01*
X140287493Y-56114000D01*
X142214242Y-56114000D01*
X142282363Y-56134002D01*
X142328856Y-56187658D01*
X142338960Y-56257932D01*
X142309466Y-56322512D01*
X142249817Y-56360874D01*
X142123292Y-56398112D01*
X141940131Y-56493867D01*
X141779057Y-56623373D01*
X141646205Y-56781700D01*
X141643241Y-56787092D01*
X141643238Y-56787096D01*
X141600635Y-56864591D01*
X141546636Y-56962816D01*
X141544775Y-56968683D01*
X141544774Y-56968685D01*
X141508786Y-57082134D01*
X141484142Y-57159822D01*
X141461103Y-57365214D01*
X141466252Y-57426530D01*
X141473025Y-57507181D01*
X141478398Y-57571170D01*
X141480097Y-57577095D01*
X141529930Y-57750882D01*
X141535367Y-57769844D01*
X141538183Y-57775323D01*
X141595363Y-57886583D01*
X141629840Y-57953669D01*
X141758219Y-58115643D01*
X141762913Y-58119638D01*
X141902270Y-58238240D01*
X141915614Y-58249597D01*
X141920992Y-58252603D01*
X141920994Y-58252604D01*
X142005822Y-58300012D01*
X142096030Y-58350428D01*
X142292595Y-58414296D01*
X142497822Y-58438768D01*
X142503957Y-58438296D01*
X142503959Y-58438296D01*
X142697752Y-58423384D01*
X142697757Y-58423383D01*
X142703893Y-58422911D01*
X142709823Y-58421255D01*
X142709825Y-58421255D01*
X142897032Y-58368986D01*
X142897031Y-58368986D01*
X142902960Y-58367331D01*
X143087441Y-58274143D01*
X143118859Y-58249597D01*
X143245451Y-58150692D01*
X143250307Y-58146898D01*
X143282968Y-58109060D01*
X143381327Y-57995110D01*
X143381328Y-57995108D01*
X143385356Y-57990442D01*
X143487445Y-57810734D01*
X143552683Y-57614620D01*
X143578587Y-57409569D01*
X143578908Y-57386583D01*
X143578951Y-57383523D01*
X143578951Y-57383519D01*
X143579000Y-57380000D01*
X143558832Y-57174306D01*
X143499094Y-56976446D01*
X143402064Y-56793958D01*
X143397164Y-56787950D01*
X143275330Y-56638567D01*
X143275327Y-56638564D01*
X143271435Y-56633792D01*
X143264545Y-56628092D01*
X143116935Y-56505978D01*
X143116931Y-56505976D01*
X143112185Y-56502049D01*
X142930379Y-56403747D01*
X142790234Y-56360365D01*
X142731074Y-56321114D01*
X142702527Y-56256109D01*
X142713656Y-56185990D01*
X142760927Y-56133019D01*
X142827493Y-56114000D01*
X144754242Y-56114000D01*
X144822363Y-56134002D01*
X144868856Y-56187658D01*
X144878960Y-56257932D01*
X144849466Y-56322512D01*
X144789817Y-56360874D01*
X144663292Y-56398112D01*
X144480131Y-56493867D01*
X144319057Y-56623373D01*
X144186205Y-56781700D01*
X144183241Y-56787092D01*
X144183238Y-56787096D01*
X144140635Y-56864591D01*
X144086636Y-56962816D01*
X144084775Y-56968683D01*
X144084774Y-56968685D01*
X144048786Y-57082134D01*
X144024142Y-57159822D01*
X144001103Y-57365214D01*
X144006252Y-57426530D01*
X144013025Y-57507181D01*
X144018398Y-57571170D01*
X144020097Y-57577095D01*
X144069930Y-57750882D01*
X144075367Y-57769844D01*
X144078183Y-57775323D01*
X144135363Y-57886583D01*
X144169840Y-57953669D01*
X144298219Y-58115643D01*
X144302913Y-58119638D01*
X144442270Y-58238240D01*
X144455614Y-58249597D01*
X144460992Y-58252603D01*
X144460994Y-58252604D01*
X144545822Y-58300012D01*
X144636030Y-58350428D01*
X144832595Y-58414296D01*
X145037822Y-58438768D01*
X145043957Y-58438296D01*
X145043959Y-58438296D01*
X145237752Y-58423384D01*
X145237757Y-58423383D01*
X145243893Y-58422911D01*
X145249823Y-58421255D01*
X145249825Y-58421255D01*
X145437032Y-58368986D01*
X145437031Y-58368986D01*
X145442960Y-58367331D01*
X145627441Y-58274143D01*
X145658859Y-58249597D01*
X145785451Y-58150692D01*
X145790307Y-58146898D01*
X145822968Y-58109060D01*
X145921327Y-57995110D01*
X145921328Y-57995108D01*
X145925356Y-57990442D01*
X146027445Y-57810734D01*
X146092683Y-57614620D01*
X146118587Y-57409569D01*
X146118908Y-57386583D01*
X146118951Y-57383523D01*
X146118951Y-57383519D01*
X146119000Y-57380000D01*
X146098832Y-57174306D01*
X146039094Y-56976446D01*
X145942064Y-56793958D01*
X145937164Y-56787950D01*
X145815330Y-56638567D01*
X145815327Y-56638564D01*
X145811435Y-56633792D01*
X145804545Y-56628092D01*
X145656935Y-56505978D01*
X145656931Y-56505976D01*
X145652185Y-56502049D01*
X145470379Y-56403747D01*
X145330234Y-56360365D01*
X145271074Y-56321114D01*
X145242527Y-56256109D01*
X145253656Y-56185990D01*
X145300927Y-56133019D01*
X145367493Y-56114000D01*
X147294242Y-56114000D01*
X147362363Y-56134002D01*
X147408856Y-56187658D01*
X147418960Y-56257932D01*
X147389466Y-56322512D01*
X147329817Y-56360874D01*
X147203292Y-56398112D01*
X147020131Y-56493867D01*
X146859057Y-56623373D01*
X146726205Y-56781700D01*
X146723241Y-56787092D01*
X146723238Y-56787096D01*
X146680635Y-56864591D01*
X146626636Y-56962816D01*
X146624775Y-56968683D01*
X146624774Y-56968685D01*
X146588786Y-57082134D01*
X146564142Y-57159822D01*
X146541103Y-57365214D01*
X146546252Y-57426530D01*
X146553025Y-57507181D01*
X146558398Y-57571170D01*
X146560097Y-57577095D01*
X146609930Y-57750882D01*
X146615367Y-57769844D01*
X146618183Y-57775323D01*
X146675363Y-57886583D01*
X146709840Y-57953669D01*
X146838219Y-58115643D01*
X146842913Y-58119638D01*
X146982270Y-58238240D01*
X146995614Y-58249597D01*
X147000992Y-58252603D01*
X147000994Y-58252604D01*
X147085822Y-58300012D01*
X147176030Y-58350428D01*
X147372595Y-58414296D01*
X147577822Y-58438768D01*
X147583957Y-58438296D01*
X147583959Y-58438296D01*
X147777752Y-58423384D01*
X147777757Y-58423383D01*
X147783893Y-58422911D01*
X147789823Y-58421255D01*
X147789825Y-58421255D01*
X147977032Y-58368986D01*
X147977031Y-58368986D01*
X147982960Y-58367331D01*
X148167441Y-58274143D01*
X148198859Y-58249597D01*
X148325451Y-58150692D01*
X148330307Y-58146898D01*
X148362968Y-58109060D01*
X148461327Y-57995110D01*
X148461328Y-57995108D01*
X148465356Y-57990442D01*
X148567445Y-57810734D01*
X148632683Y-57614620D01*
X148658587Y-57409569D01*
X148658908Y-57386583D01*
X148658951Y-57383523D01*
X148658951Y-57383519D01*
X148659000Y-57380000D01*
X148638832Y-57174306D01*
X148579094Y-56976446D01*
X148482064Y-56793958D01*
X148477164Y-56787950D01*
X148355330Y-56638567D01*
X148355327Y-56638564D01*
X148351435Y-56633792D01*
X148344545Y-56628092D01*
X148196935Y-56505978D01*
X148196931Y-56505976D01*
X148192185Y-56502049D01*
X148010379Y-56403747D01*
X147870234Y-56360365D01*
X147811074Y-56321114D01*
X147782527Y-56256109D01*
X147793656Y-56185990D01*
X147840927Y-56133019D01*
X147907493Y-56114000D01*
X151346177Y-56114000D01*
X151372656Y-56116814D01*
X151374831Y-56117282D01*
X151374838Y-56117283D01*
X151380882Y-56118582D01*
X151459951Y-56119799D01*
X151554317Y-56121252D01*
X151567565Y-56122156D01*
X151859020Y-56157545D01*
X151873986Y-56160287D01*
X152156191Y-56229845D01*
X152170716Y-56234372D01*
X152442469Y-56337434D01*
X152456338Y-56343677D01*
X152655834Y-56448380D01*
X152713680Y-56478740D01*
X152726700Y-56486610D01*
X152771462Y-56517507D01*
X152965900Y-56651719D01*
X152977877Y-56661103D01*
X153195422Y-56853832D01*
X153206180Y-56864591D01*
X153398906Y-57082134D01*
X153408287Y-57094107D01*
X153524082Y-57261865D01*
X153573387Y-57333296D01*
X153581259Y-57346317D01*
X153716326Y-57603667D01*
X153722570Y-57617542D01*
X153825630Y-57889288D01*
X153830157Y-57903814D01*
X153899713Y-58186015D01*
X153902455Y-58200981D01*
X153937844Y-58492436D01*
X153938748Y-58505684D01*
X153939439Y-58550569D01*
X153941418Y-58679118D01*
X153942717Y-58685162D01*
X153942718Y-58685169D01*
X153943186Y-58687344D01*
X153946000Y-58713823D01*
X153946001Y-76366173D01*
X153943187Y-76392651D01*
X153941418Y-76400882D01*
X153940234Y-76477814D01*
X153938748Y-76574316D01*
X153937844Y-76587564D01*
X153902455Y-76879019D01*
X153899713Y-76893985D01*
X153830157Y-77176186D01*
X153825630Y-77190712D01*
X153722570Y-77462458D01*
X153716326Y-77476333D01*
X153581259Y-77733683D01*
X153573388Y-77746702D01*
X153447903Y-77928500D01*
X153408290Y-77985889D01*
X153398906Y-77997866D01*
X153206180Y-78215409D01*
X153195422Y-78226168D01*
X152977877Y-78418897D01*
X152965900Y-78428281D01*
X152949447Y-78439638D01*
X152734401Y-78588075D01*
X152726702Y-78593389D01*
X152713682Y-78601259D01*
X152487122Y-78720167D01*
X152456341Y-78736322D01*
X152442469Y-78742566D01*
X152248220Y-78816235D01*
X152170717Y-78845628D01*
X152156191Y-78850155D01*
X151873986Y-78919713D01*
X151859020Y-78922455D01*
X151567565Y-78957844D01*
X151554317Y-78958748D01*
X151459951Y-78960201D01*
X151380882Y-78961418D01*
X151374838Y-78962717D01*
X151374831Y-78962718D01*
X151372656Y-78963186D01*
X151346177Y-78966000D01*
X147904703Y-78966000D01*
X147836582Y-78945998D01*
X147790089Y-78892342D01*
X147779985Y-78822068D01*
X147809479Y-78757488D01*
X147870819Y-78718641D01*
X147977032Y-78688986D01*
X147977031Y-78688986D01*
X147982960Y-78687331D01*
X148167441Y-78594143D01*
X148183249Y-78581793D01*
X148325451Y-78470692D01*
X148330307Y-78466898D01*
X148361456Y-78430812D01*
X148461327Y-78315110D01*
X148461328Y-78315108D01*
X148465356Y-78310442D01*
X148567445Y-78130734D01*
X148632683Y-77934620D01*
X148658587Y-77729569D01*
X148659000Y-77700000D01*
X148638832Y-77494306D01*
X148579094Y-77296446D01*
X148482064Y-77113958D01*
X148478169Y-77109182D01*
X148355330Y-76958567D01*
X148355327Y-76958564D01*
X148351435Y-76953792D01*
X148334176Y-76939514D01*
X148196935Y-76825978D01*
X148196931Y-76825976D01*
X148192185Y-76822049D01*
X148010379Y-76723747D01*
X147911660Y-76693188D01*
X147818829Y-76664452D01*
X147818826Y-76664451D01*
X147812942Y-76662630D01*
X147806817Y-76661986D01*
X147806816Y-76661986D01*
X147613521Y-76641670D01*
X147613520Y-76641670D01*
X147607393Y-76641026D01*
X147521308Y-76648860D01*
X147407702Y-76659199D01*
X147407699Y-76659200D01*
X147401563Y-76659758D01*
X147395657Y-76661496D01*
X147395653Y-76661497D01*
X147230970Y-76709966D01*
X147203292Y-76718112D01*
X147020131Y-76813867D01*
X146859057Y-76943373D01*
X146726205Y-77101700D01*
X146723241Y-77107092D01*
X146723238Y-77107096D01*
X146642377Y-77254183D01*
X146626636Y-77282816D01*
X146624775Y-77288683D01*
X146624774Y-77288685D01*
X146622312Y-77296446D01*
X146564142Y-77479822D01*
X146541103Y-77685214D01*
X146558398Y-77891170D01*
X146560097Y-77897095D01*
X146597934Y-78029047D01*
X146615367Y-78089844D01*
X146709840Y-78273669D01*
X146838219Y-78435643D01*
X146995614Y-78569597D01*
X147000992Y-78572603D01*
X147000994Y-78572604D01*
X147052268Y-78601260D01*
X147176030Y-78670428D01*
X147219509Y-78684555D01*
X147329111Y-78720167D01*
X147387717Y-78760240D01*
X147415354Y-78825637D01*
X147403247Y-78895594D01*
X147355241Y-78947900D01*
X147290175Y-78966000D01*
X145364703Y-78966000D01*
X145296582Y-78945998D01*
X145250089Y-78892342D01*
X145239985Y-78822068D01*
X145269479Y-78757488D01*
X145330819Y-78718641D01*
X145437032Y-78688986D01*
X145437031Y-78688986D01*
X145442960Y-78687331D01*
X145627441Y-78594143D01*
X145643249Y-78581793D01*
X145785451Y-78470692D01*
X145790307Y-78466898D01*
X145821456Y-78430812D01*
X145921327Y-78315110D01*
X145921328Y-78315108D01*
X145925356Y-78310442D01*
X146027445Y-78130734D01*
X146092683Y-77934620D01*
X146118587Y-77729569D01*
X146119000Y-77700000D01*
X146098832Y-77494306D01*
X146039094Y-77296446D01*
X145942064Y-77113958D01*
X145938169Y-77109182D01*
X145815330Y-76958567D01*
X145815327Y-76958564D01*
X145811435Y-76953792D01*
X145794176Y-76939514D01*
X145656935Y-76825978D01*
X145656931Y-76825976D01*
X145652185Y-76822049D01*
X145470379Y-76723747D01*
X145371660Y-76693188D01*
X145278829Y-76664452D01*
X145278826Y-76664451D01*
X145272942Y-76662630D01*
X145266817Y-76661986D01*
X145266816Y-76661986D01*
X145073521Y-76641670D01*
X145073520Y-76641670D01*
X145067393Y-76641026D01*
X144981308Y-76648860D01*
X144867702Y-76659199D01*
X144867699Y-76659200D01*
X144861563Y-76659758D01*
X144855657Y-76661496D01*
X144855653Y-76661497D01*
X144690970Y-76709966D01*
X144663292Y-76718112D01*
X144480131Y-76813867D01*
X144319057Y-76943373D01*
X144186205Y-77101700D01*
X144183241Y-77107092D01*
X144183238Y-77107096D01*
X144102377Y-77254183D01*
X144086636Y-77282816D01*
X144084775Y-77288683D01*
X144084774Y-77288685D01*
X144082312Y-77296446D01*
X144024142Y-77479822D01*
X144001103Y-77685214D01*
X144018398Y-77891170D01*
X144020097Y-77897095D01*
X144057934Y-78029047D01*
X144075367Y-78089844D01*
X144169840Y-78273669D01*
X144298219Y-78435643D01*
X144455614Y-78569597D01*
X144460992Y-78572603D01*
X144460994Y-78572604D01*
X144512268Y-78601260D01*
X144636030Y-78670428D01*
X144679509Y-78684555D01*
X144789111Y-78720167D01*
X144847717Y-78760240D01*
X144875354Y-78825637D01*
X144863247Y-78895594D01*
X144815241Y-78947900D01*
X144750175Y-78966000D01*
X142824703Y-78966000D01*
X142756582Y-78945998D01*
X142710089Y-78892342D01*
X142699985Y-78822068D01*
X142729479Y-78757488D01*
X142790819Y-78718641D01*
X142897032Y-78688986D01*
X142897031Y-78688986D01*
X142902960Y-78687331D01*
X143087441Y-78594143D01*
X143103249Y-78581793D01*
X143245451Y-78470692D01*
X143250307Y-78466898D01*
X143281456Y-78430812D01*
X143381327Y-78315110D01*
X143381328Y-78315108D01*
X143385356Y-78310442D01*
X143487445Y-78130734D01*
X143552683Y-77934620D01*
X143578587Y-77729569D01*
X143579000Y-77700000D01*
X143558832Y-77494306D01*
X143499094Y-77296446D01*
X143402064Y-77113958D01*
X143398169Y-77109182D01*
X143275330Y-76958567D01*
X143275327Y-76958564D01*
X143271435Y-76953792D01*
X143254176Y-76939514D01*
X143116935Y-76825978D01*
X143116931Y-76825976D01*
X143112185Y-76822049D01*
X142930379Y-76723747D01*
X142831660Y-76693188D01*
X142738829Y-76664452D01*
X142738826Y-76664451D01*
X142732942Y-76662630D01*
X142726817Y-76661986D01*
X142726816Y-76661986D01*
X142533521Y-76641670D01*
X142533520Y-76641670D01*
X142527393Y-76641026D01*
X142441308Y-76648860D01*
X142327702Y-76659199D01*
X142327699Y-76659200D01*
X142321563Y-76659758D01*
X142315657Y-76661496D01*
X142315653Y-76661497D01*
X142150970Y-76709966D01*
X142123292Y-76718112D01*
X141940131Y-76813867D01*
X141779057Y-76943373D01*
X141646205Y-77101700D01*
X141643241Y-77107092D01*
X141643238Y-77107096D01*
X141562377Y-77254183D01*
X141546636Y-77282816D01*
X141544775Y-77288683D01*
X141544774Y-77288685D01*
X141542312Y-77296446D01*
X141484142Y-77479822D01*
X141461103Y-77685214D01*
X141478398Y-77891170D01*
X141480097Y-77897095D01*
X141517934Y-78029047D01*
X141535367Y-78089844D01*
X141629840Y-78273669D01*
X141758219Y-78435643D01*
X141915614Y-78569597D01*
X141920992Y-78572603D01*
X141920994Y-78572604D01*
X141972268Y-78601260D01*
X142096030Y-78670428D01*
X142139509Y-78684555D01*
X142249111Y-78720167D01*
X142307717Y-78760240D01*
X142335354Y-78825637D01*
X142323247Y-78895594D01*
X142275241Y-78947900D01*
X142210175Y-78966000D01*
X140284703Y-78966000D01*
X140216582Y-78945998D01*
X140170089Y-78892342D01*
X140159985Y-78822068D01*
X140189479Y-78757488D01*
X140250819Y-78718641D01*
X140357032Y-78688986D01*
X140357031Y-78688986D01*
X140362960Y-78687331D01*
X140547441Y-78594143D01*
X140563249Y-78581793D01*
X140705451Y-78470692D01*
X140710307Y-78466898D01*
X140741456Y-78430812D01*
X140841327Y-78315110D01*
X140841328Y-78315108D01*
X140845356Y-78310442D01*
X140947445Y-78130734D01*
X141012683Y-77934620D01*
X141038587Y-77729569D01*
X141039000Y-77700000D01*
X141018832Y-77494306D01*
X140959094Y-77296446D01*
X140862064Y-77113958D01*
X140858169Y-77109182D01*
X140735330Y-76958567D01*
X140735327Y-76958564D01*
X140731435Y-76953792D01*
X140714176Y-76939514D01*
X140576935Y-76825978D01*
X140576931Y-76825976D01*
X140572185Y-76822049D01*
X140390379Y-76723747D01*
X140291660Y-76693188D01*
X140198829Y-76664452D01*
X140198826Y-76664451D01*
X140192942Y-76662630D01*
X140186817Y-76661986D01*
X140186816Y-76661986D01*
X139993521Y-76641670D01*
X139993520Y-76641670D01*
X139987393Y-76641026D01*
X139901308Y-76648860D01*
X139787702Y-76659199D01*
X139787699Y-76659200D01*
X139781563Y-76659758D01*
X139775657Y-76661496D01*
X139775653Y-76661497D01*
X139610970Y-76709966D01*
X139583292Y-76718112D01*
X139400131Y-76813867D01*
X139239057Y-76943373D01*
X139106205Y-77101700D01*
X139103241Y-77107092D01*
X139103238Y-77107096D01*
X139022377Y-77254183D01*
X139006636Y-77282816D01*
X139004775Y-77288683D01*
X139004774Y-77288685D01*
X139002312Y-77296446D01*
X138944142Y-77479822D01*
X138921103Y-77685214D01*
X138938398Y-77891170D01*
X138940097Y-77897095D01*
X138977934Y-78029047D01*
X138995367Y-78089844D01*
X139089840Y-78273669D01*
X139218219Y-78435643D01*
X139375614Y-78569597D01*
X139380992Y-78572603D01*
X139380994Y-78572604D01*
X139432268Y-78601260D01*
X139556030Y-78670428D01*
X139599509Y-78684555D01*
X139709111Y-78720167D01*
X139767717Y-78760240D01*
X139795354Y-78825637D01*
X139783247Y-78895594D01*
X139735241Y-78947900D01*
X139670175Y-78966000D01*
X137744703Y-78966000D01*
X137676582Y-78945998D01*
X137630089Y-78892342D01*
X137619985Y-78822068D01*
X137649479Y-78757488D01*
X137710819Y-78718641D01*
X137817032Y-78688986D01*
X137817031Y-78688986D01*
X137822960Y-78687331D01*
X138007441Y-78594143D01*
X138023249Y-78581793D01*
X138165451Y-78470692D01*
X138170307Y-78466898D01*
X138201456Y-78430812D01*
X138301327Y-78315110D01*
X138301328Y-78315108D01*
X138305356Y-78310442D01*
X138407445Y-78130734D01*
X138472683Y-77934620D01*
X138498587Y-77729569D01*
X138499000Y-77700000D01*
X138478832Y-77494306D01*
X138419094Y-77296446D01*
X138322064Y-77113958D01*
X138318169Y-77109182D01*
X138195330Y-76958567D01*
X138195327Y-76958564D01*
X138191435Y-76953792D01*
X138174176Y-76939514D01*
X138036935Y-76825978D01*
X138036931Y-76825976D01*
X138032185Y-76822049D01*
X137850379Y-76723747D01*
X137751660Y-76693188D01*
X137658829Y-76664452D01*
X137658826Y-76664451D01*
X137652942Y-76662630D01*
X137646817Y-76661986D01*
X137646816Y-76661986D01*
X137453521Y-76641670D01*
X137453520Y-76641670D01*
X137447393Y-76641026D01*
X137361308Y-76648860D01*
X137247702Y-76659199D01*
X137247699Y-76659200D01*
X137241563Y-76659758D01*
X137235657Y-76661496D01*
X137235653Y-76661497D01*
X137070970Y-76709966D01*
X137043292Y-76718112D01*
X136860131Y-76813867D01*
X136699057Y-76943373D01*
X136566205Y-77101700D01*
X136563241Y-77107092D01*
X136563238Y-77107096D01*
X136482377Y-77254183D01*
X136466636Y-77282816D01*
X136464775Y-77288683D01*
X136464774Y-77288685D01*
X136462312Y-77296446D01*
X136404142Y-77479822D01*
X136381103Y-77685214D01*
X136398398Y-77891170D01*
X136400097Y-77897095D01*
X136437934Y-78029047D01*
X136455367Y-78089844D01*
X136549840Y-78273669D01*
X136678219Y-78435643D01*
X136835614Y-78569597D01*
X136840992Y-78572603D01*
X136840994Y-78572604D01*
X136892268Y-78601260D01*
X137016030Y-78670428D01*
X137059509Y-78684555D01*
X137169111Y-78720167D01*
X137227717Y-78760240D01*
X137255354Y-78825637D01*
X137243247Y-78895594D01*
X137195241Y-78947900D01*
X137130175Y-78966000D01*
X135204703Y-78966000D01*
X135136582Y-78945998D01*
X135090089Y-78892342D01*
X135079985Y-78822068D01*
X135109479Y-78757488D01*
X135170819Y-78718641D01*
X135277032Y-78688986D01*
X135277031Y-78688986D01*
X135282960Y-78687331D01*
X135467441Y-78594143D01*
X135483249Y-78581793D01*
X135625451Y-78470692D01*
X135630307Y-78466898D01*
X135661456Y-78430812D01*
X135761327Y-78315110D01*
X135761328Y-78315108D01*
X135765356Y-78310442D01*
X135867445Y-78130734D01*
X135932683Y-77934620D01*
X135958587Y-77729569D01*
X135959000Y-77700000D01*
X135938832Y-77494306D01*
X135879094Y-77296446D01*
X135782064Y-77113958D01*
X135778169Y-77109182D01*
X135655330Y-76958567D01*
X135655327Y-76958564D01*
X135651435Y-76953792D01*
X135634176Y-76939514D01*
X135496935Y-76825978D01*
X135496931Y-76825976D01*
X135492185Y-76822049D01*
X135310379Y-76723747D01*
X135211660Y-76693188D01*
X135118829Y-76664452D01*
X135118826Y-76664451D01*
X135112942Y-76662630D01*
X135106817Y-76661986D01*
X135106816Y-76661986D01*
X134913521Y-76641670D01*
X134913520Y-76641670D01*
X134907393Y-76641026D01*
X134821308Y-76648860D01*
X134707702Y-76659199D01*
X134707699Y-76659200D01*
X134701563Y-76659758D01*
X134695657Y-76661496D01*
X134695653Y-76661497D01*
X134530970Y-76709966D01*
X134503292Y-76718112D01*
X134320131Y-76813867D01*
X134159057Y-76943373D01*
X134026205Y-77101700D01*
X134023241Y-77107092D01*
X134023238Y-77107096D01*
X133942377Y-77254183D01*
X133926636Y-77282816D01*
X133924775Y-77288683D01*
X133924774Y-77288685D01*
X133922312Y-77296446D01*
X133864142Y-77479822D01*
X133841103Y-77685214D01*
X133858398Y-77891170D01*
X133860097Y-77897095D01*
X133897934Y-78029047D01*
X133915367Y-78089844D01*
X134009840Y-78273669D01*
X134138219Y-78435643D01*
X134295614Y-78569597D01*
X134300992Y-78572603D01*
X134300994Y-78572604D01*
X134352268Y-78601260D01*
X134476030Y-78670428D01*
X134519509Y-78684555D01*
X134629111Y-78720167D01*
X134687717Y-78760240D01*
X134715354Y-78825637D01*
X134703247Y-78895594D01*
X134655241Y-78947900D01*
X134590175Y-78966000D01*
X132664703Y-78966000D01*
X132596582Y-78945998D01*
X132550089Y-78892342D01*
X132539985Y-78822068D01*
X132569479Y-78757488D01*
X132630819Y-78718641D01*
X132737032Y-78688986D01*
X132737031Y-78688986D01*
X132742960Y-78687331D01*
X132927441Y-78594143D01*
X132943249Y-78581793D01*
X133085451Y-78470692D01*
X133090307Y-78466898D01*
X133121456Y-78430812D01*
X133221327Y-78315110D01*
X133221328Y-78315108D01*
X133225356Y-78310442D01*
X133327445Y-78130734D01*
X133392683Y-77934620D01*
X133418587Y-77729569D01*
X133419000Y-77700000D01*
X133398832Y-77494306D01*
X133339094Y-77296446D01*
X133242064Y-77113958D01*
X133238169Y-77109182D01*
X133115330Y-76958567D01*
X133115327Y-76958564D01*
X133111435Y-76953792D01*
X133094176Y-76939514D01*
X132956935Y-76825978D01*
X132956931Y-76825976D01*
X132952185Y-76822049D01*
X132770379Y-76723747D01*
X132671660Y-76693188D01*
X132578829Y-76664452D01*
X132578826Y-76664451D01*
X132572942Y-76662630D01*
X132566817Y-76661986D01*
X132566816Y-76661986D01*
X132373521Y-76641670D01*
X132373520Y-76641670D01*
X132367393Y-76641026D01*
X132281308Y-76648860D01*
X132167702Y-76659199D01*
X132167699Y-76659200D01*
X132161563Y-76659758D01*
X132155657Y-76661496D01*
X132155653Y-76661497D01*
X131990970Y-76709966D01*
X131963292Y-76718112D01*
X131780131Y-76813867D01*
X131619057Y-76943373D01*
X131486205Y-77101700D01*
X131483241Y-77107092D01*
X131483238Y-77107096D01*
X131402377Y-77254183D01*
X131386636Y-77282816D01*
X131384775Y-77288683D01*
X131384774Y-77288685D01*
X131382312Y-77296446D01*
X131324142Y-77479822D01*
X131301103Y-77685214D01*
X131318398Y-77891170D01*
X131320097Y-77897095D01*
X131357934Y-78029047D01*
X131375367Y-78089844D01*
X131469840Y-78273669D01*
X131598219Y-78435643D01*
X131755614Y-78569597D01*
X131760992Y-78572603D01*
X131760994Y-78572604D01*
X131812268Y-78601260D01*
X131936030Y-78670428D01*
X131979509Y-78684555D01*
X132089111Y-78720167D01*
X132147717Y-78760240D01*
X132175354Y-78825637D01*
X132163247Y-78895594D01*
X132115241Y-78947900D01*
X132050175Y-78966000D01*
X130124703Y-78966000D01*
X130056582Y-78945998D01*
X130010089Y-78892342D01*
X129999985Y-78822068D01*
X130029479Y-78757488D01*
X130090819Y-78718641D01*
X130197032Y-78688986D01*
X130197031Y-78688986D01*
X130202960Y-78687331D01*
X130387441Y-78594143D01*
X130403249Y-78581793D01*
X130545451Y-78470692D01*
X130550307Y-78466898D01*
X130581456Y-78430812D01*
X130681327Y-78315110D01*
X130681328Y-78315108D01*
X130685356Y-78310442D01*
X130787445Y-78130734D01*
X130852683Y-77934620D01*
X130878587Y-77729569D01*
X130879000Y-77700000D01*
X130858832Y-77494306D01*
X130799094Y-77296446D01*
X130702064Y-77113958D01*
X130698169Y-77109182D01*
X130575330Y-76958567D01*
X130575327Y-76958564D01*
X130571435Y-76953792D01*
X130554176Y-76939514D01*
X130416935Y-76825978D01*
X130416931Y-76825976D01*
X130412185Y-76822049D01*
X130230379Y-76723747D01*
X130131660Y-76693188D01*
X130038829Y-76664452D01*
X130038826Y-76664451D01*
X130032942Y-76662630D01*
X130026817Y-76661986D01*
X130026816Y-76661986D01*
X129833521Y-76641670D01*
X129833520Y-76641670D01*
X129827393Y-76641026D01*
X129741308Y-76648860D01*
X129627702Y-76659199D01*
X129627699Y-76659200D01*
X129621563Y-76659758D01*
X129615657Y-76661496D01*
X129615653Y-76661497D01*
X129450970Y-76709966D01*
X129423292Y-76718112D01*
X129240131Y-76813867D01*
X129079057Y-76943373D01*
X128946205Y-77101700D01*
X128943241Y-77107092D01*
X128943238Y-77107096D01*
X128862377Y-77254183D01*
X128846636Y-77282816D01*
X128844775Y-77288683D01*
X128844774Y-77288685D01*
X128842312Y-77296446D01*
X128784142Y-77479822D01*
X128761103Y-77685214D01*
X128778398Y-77891170D01*
X128780097Y-77897095D01*
X128817934Y-78029047D01*
X128835367Y-78089844D01*
X128929840Y-78273669D01*
X129058219Y-78435643D01*
X129215614Y-78569597D01*
X129220992Y-78572603D01*
X129220994Y-78572604D01*
X129272268Y-78601260D01*
X129396030Y-78670428D01*
X129439509Y-78684555D01*
X129549111Y-78720167D01*
X129607717Y-78760240D01*
X129635354Y-78825637D01*
X129623247Y-78895594D01*
X129575241Y-78947900D01*
X129510175Y-78966000D01*
X127584703Y-78966000D01*
X127516582Y-78945998D01*
X127470089Y-78892342D01*
X127459985Y-78822068D01*
X127489479Y-78757488D01*
X127550819Y-78718641D01*
X127657032Y-78688986D01*
X127657031Y-78688986D01*
X127662960Y-78687331D01*
X127847441Y-78594143D01*
X127863249Y-78581793D01*
X128005451Y-78470692D01*
X128010307Y-78466898D01*
X128041456Y-78430812D01*
X128141327Y-78315110D01*
X128141328Y-78315108D01*
X128145356Y-78310442D01*
X128247445Y-78130734D01*
X128312683Y-77934620D01*
X128338587Y-77729569D01*
X128339000Y-77700000D01*
X128318832Y-77494306D01*
X128259094Y-77296446D01*
X128162064Y-77113958D01*
X128158169Y-77109182D01*
X128035330Y-76958567D01*
X128035327Y-76958564D01*
X128031435Y-76953792D01*
X128014176Y-76939514D01*
X127876935Y-76825978D01*
X127876931Y-76825976D01*
X127872185Y-76822049D01*
X127690379Y-76723747D01*
X127591660Y-76693188D01*
X127498829Y-76664452D01*
X127498826Y-76664451D01*
X127492942Y-76662630D01*
X127486817Y-76661986D01*
X127486816Y-76661986D01*
X127293521Y-76641670D01*
X127293520Y-76641670D01*
X127287393Y-76641026D01*
X127201308Y-76648860D01*
X127087702Y-76659199D01*
X127087699Y-76659200D01*
X127081563Y-76659758D01*
X127075657Y-76661496D01*
X127075653Y-76661497D01*
X126910970Y-76709966D01*
X126883292Y-76718112D01*
X126700131Y-76813867D01*
X126539057Y-76943373D01*
X126406205Y-77101700D01*
X126403241Y-77107092D01*
X126403238Y-77107096D01*
X126322377Y-77254183D01*
X126306636Y-77282816D01*
X126304775Y-77288683D01*
X126304774Y-77288685D01*
X126302312Y-77296446D01*
X126244142Y-77479822D01*
X126221103Y-77685214D01*
X126238398Y-77891170D01*
X126240097Y-77897095D01*
X126277934Y-78029047D01*
X126295367Y-78089844D01*
X126389840Y-78273669D01*
X126518219Y-78435643D01*
X126675614Y-78569597D01*
X126680992Y-78572603D01*
X126680994Y-78572604D01*
X126732268Y-78601260D01*
X126856030Y-78670428D01*
X126899509Y-78684555D01*
X127009111Y-78720167D01*
X127067717Y-78760240D01*
X127095354Y-78825637D01*
X127083247Y-78895594D01*
X127035241Y-78947900D01*
X126970175Y-78966000D01*
X125044703Y-78966000D01*
X124976582Y-78945998D01*
X124930089Y-78892342D01*
X124919985Y-78822068D01*
X124949479Y-78757488D01*
X125010819Y-78718641D01*
X125117032Y-78688986D01*
X125117031Y-78688986D01*
X125122960Y-78687331D01*
X125307441Y-78594143D01*
X125323249Y-78581793D01*
X125465451Y-78470692D01*
X125470307Y-78466898D01*
X125501456Y-78430812D01*
X125601327Y-78315110D01*
X125601328Y-78315108D01*
X125605356Y-78310442D01*
X125707445Y-78130734D01*
X125772683Y-77934620D01*
X125798587Y-77729569D01*
X125799000Y-77700000D01*
X125778832Y-77494306D01*
X125719094Y-77296446D01*
X125622064Y-77113958D01*
X125618169Y-77109182D01*
X125495330Y-76958567D01*
X125495327Y-76958564D01*
X125491435Y-76953792D01*
X125474176Y-76939514D01*
X125336935Y-76825978D01*
X125336931Y-76825976D01*
X125332185Y-76822049D01*
X125150379Y-76723747D01*
X125051660Y-76693188D01*
X124958829Y-76664452D01*
X124958826Y-76664451D01*
X124952942Y-76662630D01*
X124946817Y-76661986D01*
X124946816Y-76661986D01*
X124753521Y-76641670D01*
X124753520Y-76641670D01*
X124747393Y-76641026D01*
X124661308Y-76648860D01*
X124547702Y-76659199D01*
X124547699Y-76659200D01*
X124541563Y-76659758D01*
X124535657Y-76661496D01*
X124535653Y-76661497D01*
X124370970Y-76709966D01*
X124343292Y-76718112D01*
X124160131Y-76813867D01*
X123999057Y-76943373D01*
X123866205Y-77101700D01*
X123863241Y-77107092D01*
X123863238Y-77107096D01*
X123782377Y-77254183D01*
X123766636Y-77282816D01*
X123764775Y-77288683D01*
X123764774Y-77288685D01*
X123762312Y-77296446D01*
X123704142Y-77479822D01*
X123681103Y-77685214D01*
X123698398Y-77891170D01*
X123700097Y-77897095D01*
X123737934Y-78029047D01*
X123755367Y-78089844D01*
X123849840Y-78273669D01*
X123978219Y-78435643D01*
X124135614Y-78569597D01*
X124140992Y-78572603D01*
X124140994Y-78572604D01*
X124192268Y-78601260D01*
X124316030Y-78670428D01*
X124359509Y-78684555D01*
X124469111Y-78720167D01*
X124527717Y-78760240D01*
X124555354Y-78825637D01*
X124543247Y-78895594D01*
X124495241Y-78947900D01*
X124430175Y-78966000D01*
X122504703Y-78966000D01*
X122436582Y-78945998D01*
X122390089Y-78892342D01*
X122379985Y-78822068D01*
X122409479Y-78757488D01*
X122470819Y-78718641D01*
X122577032Y-78688986D01*
X122577031Y-78688986D01*
X122582960Y-78687331D01*
X122767441Y-78594143D01*
X122783249Y-78581793D01*
X122925451Y-78470692D01*
X122930307Y-78466898D01*
X122961456Y-78430812D01*
X123061327Y-78315110D01*
X123061328Y-78315108D01*
X123065356Y-78310442D01*
X123167445Y-78130734D01*
X123232683Y-77934620D01*
X123258587Y-77729569D01*
X123259000Y-77700000D01*
X123238832Y-77494306D01*
X123179094Y-77296446D01*
X123082064Y-77113958D01*
X123078169Y-77109182D01*
X122955330Y-76958567D01*
X122955327Y-76958564D01*
X122951435Y-76953792D01*
X122934176Y-76939514D01*
X122796935Y-76825978D01*
X122796931Y-76825976D01*
X122792185Y-76822049D01*
X122610379Y-76723747D01*
X122511660Y-76693188D01*
X122418829Y-76664452D01*
X122418826Y-76664451D01*
X122412942Y-76662630D01*
X122406817Y-76661986D01*
X122406816Y-76661986D01*
X122213521Y-76641670D01*
X122213520Y-76641670D01*
X122207393Y-76641026D01*
X122121308Y-76648860D01*
X122007702Y-76659199D01*
X122007699Y-76659200D01*
X122001563Y-76659758D01*
X121995657Y-76661496D01*
X121995653Y-76661497D01*
X121830970Y-76709966D01*
X121803292Y-76718112D01*
X121620131Y-76813867D01*
X121459057Y-76943373D01*
X121326205Y-77101700D01*
X121323241Y-77107092D01*
X121323238Y-77107096D01*
X121242377Y-77254183D01*
X121226636Y-77282816D01*
X121224775Y-77288683D01*
X121224774Y-77288685D01*
X121222312Y-77296446D01*
X121164142Y-77479822D01*
X121141103Y-77685214D01*
X121158398Y-77891170D01*
X121160097Y-77897095D01*
X121197934Y-78029047D01*
X121215367Y-78089844D01*
X121309840Y-78273669D01*
X121438219Y-78435643D01*
X121595614Y-78569597D01*
X121600992Y-78572603D01*
X121600994Y-78572604D01*
X121652268Y-78601260D01*
X121776030Y-78670428D01*
X121819509Y-78684555D01*
X121929111Y-78720167D01*
X121987717Y-78760240D01*
X122015354Y-78825637D01*
X122003247Y-78895594D01*
X121955241Y-78947900D01*
X121890175Y-78966000D01*
X119964703Y-78966000D01*
X119896582Y-78945998D01*
X119850089Y-78892342D01*
X119839985Y-78822068D01*
X119869479Y-78757488D01*
X119930819Y-78718641D01*
X120037032Y-78688986D01*
X120037031Y-78688986D01*
X120042960Y-78687331D01*
X120227441Y-78594143D01*
X120243249Y-78581793D01*
X120385451Y-78470692D01*
X120390307Y-78466898D01*
X120421456Y-78430812D01*
X120521327Y-78315110D01*
X120521328Y-78315108D01*
X120525356Y-78310442D01*
X120627445Y-78130734D01*
X120692683Y-77934620D01*
X120718587Y-77729569D01*
X120719000Y-77700000D01*
X120698832Y-77494306D01*
X120639094Y-77296446D01*
X120542064Y-77113958D01*
X120538169Y-77109182D01*
X120415330Y-76958567D01*
X120415327Y-76958564D01*
X120411435Y-76953792D01*
X120394176Y-76939514D01*
X120256935Y-76825978D01*
X120256931Y-76825976D01*
X120252185Y-76822049D01*
X120070379Y-76723747D01*
X119971660Y-76693188D01*
X119878829Y-76664452D01*
X119878826Y-76664451D01*
X119872942Y-76662630D01*
X119866817Y-76661986D01*
X119866816Y-76661986D01*
X119673521Y-76641670D01*
X119673520Y-76641670D01*
X119667393Y-76641026D01*
X119581308Y-76648860D01*
X119467702Y-76659199D01*
X119467699Y-76659200D01*
X119461563Y-76659758D01*
X119455657Y-76661496D01*
X119455653Y-76661497D01*
X119290970Y-76709966D01*
X119263292Y-76718112D01*
X119080131Y-76813867D01*
X118919057Y-76943373D01*
X118786205Y-77101700D01*
X118783241Y-77107092D01*
X118783238Y-77107096D01*
X118702377Y-77254183D01*
X118686636Y-77282816D01*
X118684775Y-77288683D01*
X118684774Y-77288685D01*
X118682312Y-77296446D01*
X118624142Y-77479822D01*
X118601103Y-77685214D01*
X118618398Y-77891170D01*
X118620097Y-77897095D01*
X118657934Y-78029047D01*
X118675367Y-78089844D01*
X118769840Y-78273669D01*
X118898219Y-78435643D01*
X119055614Y-78569597D01*
X119060992Y-78572603D01*
X119060994Y-78572604D01*
X119112268Y-78601260D01*
X119236030Y-78670428D01*
X119279509Y-78684555D01*
X119389111Y-78720167D01*
X119447717Y-78760240D01*
X119475354Y-78825637D01*
X119463247Y-78895594D01*
X119415241Y-78947900D01*
X119350175Y-78966000D01*
X114884703Y-78966000D01*
X114816582Y-78945998D01*
X114770089Y-78892342D01*
X114759985Y-78822068D01*
X114789479Y-78757488D01*
X114850819Y-78718641D01*
X114957032Y-78688986D01*
X114957031Y-78688986D01*
X114962960Y-78687331D01*
X115147441Y-78594143D01*
X115163249Y-78581793D01*
X115305451Y-78470692D01*
X115310307Y-78466898D01*
X115341456Y-78430812D01*
X115441327Y-78315110D01*
X115441328Y-78315108D01*
X115445356Y-78310442D01*
X115547445Y-78130734D01*
X115612683Y-77934620D01*
X115638587Y-77729569D01*
X115639000Y-77700000D01*
X115618832Y-77494306D01*
X115559094Y-77296446D01*
X115462064Y-77113958D01*
X115458169Y-77109182D01*
X115335330Y-76958567D01*
X115335327Y-76958564D01*
X115331435Y-76953792D01*
X115314176Y-76939514D01*
X115176935Y-76825978D01*
X115176931Y-76825976D01*
X115172185Y-76822049D01*
X114990379Y-76723747D01*
X114891660Y-76693188D01*
X114798829Y-76664452D01*
X114798826Y-76664451D01*
X114792942Y-76662630D01*
X114786817Y-76661986D01*
X114786816Y-76661986D01*
X114593521Y-76641670D01*
X114593520Y-76641670D01*
X114587393Y-76641026D01*
X114501308Y-76648860D01*
X114387702Y-76659199D01*
X114387699Y-76659200D01*
X114381563Y-76659758D01*
X114375657Y-76661496D01*
X114375653Y-76661497D01*
X114210970Y-76709966D01*
X114183292Y-76718112D01*
X114000131Y-76813867D01*
X113839057Y-76943373D01*
X113706205Y-77101700D01*
X113703241Y-77107092D01*
X113703238Y-77107096D01*
X113622377Y-77254183D01*
X113606636Y-77282816D01*
X113604775Y-77288683D01*
X113604774Y-77288685D01*
X113602312Y-77296446D01*
X113544142Y-77479822D01*
X113521103Y-77685214D01*
X113538398Y-77891170D01*
X113540097Y-77897095D01*
X113577934Y-78029047D01*
X113595367Y-78089844D01*
X113689840Y-78273669D01*
X113818219Y-78435643D01*
X113975614Y-78569597D01*
X113980992Y-78572603D01*
X113980994Y-78572604D01*
X114032268Y-78601260D01*
X114156030Y-78670428D01*
X114199509Y-78684555D01*
X114309111Y-78720167D01*
X114367717Y-78760240D01*
X114395354Y-78825637D01*
X114383247Y-78895594D01*
X114335241Y-78947900D01*
X114270175Y-78966000D01*
X112344703Y-78966000D01*
X112276582Y-78945998D01*
X112230089Y-78892342D01*
X112219985Y-78822068D01*
X112249479Y-78757488D01*
X112310819Y-78718641D01*
X112417032Y-78688986D01*
X112417031Y-78688986D01*
X112422960Y-78687331D01*
X112607441Y-78594143D01*
X112623249Y-78581793D01*
X112765451Y-78470692D01*
X112770307Y-78466898D01*
X112801456Y-78430812D01*
X112901327Y-78315110D01*
X112901328Y-78315108D01*
X112905356Y-78310442D01*
X113007445Y-78130734D01*
X113072683Y-77934620D01*
X113098587Y-77729569D01*
X113099000Y-77700000D01*
X113078832Y-77494306D01*
X113019094Y-77296446D01*
X112922064Y-77113958D01*
X112918169Y-77109182D01*
X112795330Y-76958567D01*
X112795327Y-76958564D01*
X112791435Y-76953792D01*
X112774176Y-76939514D01*
X112636935Y-76825978D01*
X112636931Y-76825976D01*
X112632185Y-76822049D01*
X112450379Y-76723747D01*
X112351660Y-76693188D01*
X112258829Y-76664452D01*
X112258826Y-76664451D01*
X112252942Y-76662630D01*
X112246817Y-76661986D01*
X112246816Y-76661986D01*
X112053521Y-76641670D01*
X112053520Y-76641670D01*
X112047393Y-76641026D01*
X111961308Y-76648860D01*
X111847702Y-76659199D01*
X111847699Y-76659200D01*
X111841563Y-76659758D01*
X111835657Y-76661496D01*
X111835653Y-76661497D01*
X111670970Y-76709966D01*
X111643292Y-76718112D01*
X111460131Y-76813867D01*
X111299057Y-76943373D01*
X111166205Y-77101700D01*
X111163241Y-77107092D01*
X111163238Y-77107096D01*
X111082377Y-77254183D01*
X111066636Y-77282816D01*
X111064775Y-77288683D01*
X111064774Y-77288685D01*
X111062312Y-77296446D01*
X111004142Y-77479822D01*
X110981103Y-77685214D01*
X110998398Y-77891170D01*
X111000097Y-77897095D01*
X111037934Y-78029047D01*
X111055367Y-78089844D01*
X111149840Y-78273669D01*
X111278219Y-78435643D01*
X111435614Y-78569597D01*
X111440992Y-78572603D01*
X111440994Y-78572604D01*
X111492268Y-78601260D01*
X111616030Y-78670428D01*
X111659509Y-78684555D01*
X111769111Y-78720167D01*
X111827717Y-78760240D01*
X111855354Y-78825637D01*
X111843247Y-78895594D01*
X111795241Y-78947900D01*
X111730175Y-78966000D01*
X110475178Y-78966000D01*
X110407057Y-78945998D01*
X110360564Y-78892342D01*
X110350460Y-78822068D01*
X110405176Y-78735235D01*
X110483141Y-78683141D01*
X110490363Y-78672332D01*
X110532390Y-78609435D01*
X110532391Y-78609433D01*
X110539285Y-78599115D01*
X110559000Y-78500000D01*
X110559000Y-76900000D01*
X110539285Y-76800885D01*
X110532391Y-76790567D01*
X110532390Y-76790565D01*
X110490034Y-76727175D01*
X110483141Y-76716859D01*
X110472825Y-76709966D01*
X110409435Y-76667610D01*
X110409433Y-76667609D01*
X110399115Y-76660715D01*
X110300000Y-76641000D01*
X108700000Y-76641000D01*
X108600885Y-76660715D01*
X108590567Y-76667609D01*
X108590565Y-76667610D01*
X108527175Y-76709966D01*
X108516859Y-76716859D01*
X108509966Y-76727175D01*
X108467610Y-76790565D01*
X108467609Y-76790567D01*
X108460715Y-76800885D01*
X108441000Y-76900000D01*
X108441000Y-78500000D01*
X108460715Y-78599115D01*
X108467609Y-78609433D01*
X108467610Y-78609435D01*
X108509637Y-78672332D01*
X108516859Y-78683141D01*
X108594824Y-78735235D01*
X108640351Y-78789711D01*
X108649200Y-78860154D01*
X108618559Y-78924199D01*
X108524822Y-78966000D01*
X105753823Y-78966000D01*
X105727344Y-78963186D01*
X105725169Y-78962718D01*
X105725162Y-78962717D01*
X105719118Y-78961418D01*
X105642186Y-78960234D01*
X105545684Y-78958748D01*
X105532436Y-78957844D01*
X105240981Y-78922455D01*
X105226015Y-78919713D01*
X104943814Y-78850157D01*
X104929288Y-78845630D01*
X104657542Y-78742570D01*
X104643667Y-78736326D01*
X104386317Y-78601259D01*
X104373296Y-78593387D01*
X104333045Y-78565604D01*
X104134107Y-78428287D01*
X104122134Y-78418906D01*
X103904591Y-78226180D01*
X103893832Y-78215422D01*
X103701103Y-77997877D01*
X103691719Y-77985900D01*
X103592393Y-77842003D01*
X103526610Y-77746700D01*
X103518740Y-77733680D01*
X103518421Y-77733072D01*
X103383674Y-77476333D01*
X103377433Y-77462466D01*
X103311527Y-77288685D01*
X103274370Y-77190712D01*
X103269845Y-77176191D01*
X103200287Y-76893986D01*
X103197545Y-76879020D01*
X103162156Y-76587565D01*
X103161252Y-76574317D01*
X103159799Y-76479951D01*
X103158582Y-76400882D01*
X103157283Y-76394838D01*
X103157282Y-76394831D01*
X103156814Y-76392656D01*
X103154000Y-76366177D01*
X103154000Y-74843756D01*
X122588938Y-74843756D01*
X122590102Y-74852658D01*
X122590102Y-74852661D01*
X122606564Y-74978546D01*
X122607728Y-74987445D01*
X122666091Y-75120085D01*
X122759335Y-75231013D01*
X122766806Y-75235986D01*
X122766807Y-75235987D01*
X122872491Y-75306336D01*
X122872495Y-75306338D01*
X122879966Y-75311311D01*
X122899088Y-75317285D01*
X123005623Y-75350569D01*
X123018285Y-75354525D01*
X123027257Y-75354689D01*
X123027260Y-75354690D01*
X123093272Y-75355900D01*
X123163173Y-75357181D01*
X123233077Y-75338123D01*
X123294319Y-75321426D01*
X123294320Y-75321426D01*
X123302982Y-75319064D01*
X123310632Y-75314367D01*
X123310634Y-75314366D01*
X123418822Y-75247939D01*
X123418825Y-75247936D01*
X123426474Y-75243240D01*
X123437542Y-75231013D01*
X123517693Y-75142463D01*
X123517694Y-75142462D01*
X123523721Y-75135803D01*
X123527637Y-75127720D01*
X123532654Y-75120282D01*
X123535735Y-75122360D01*
X123571608Y-75082795D01*
X123640162Y-75064331D01*
X123707815Y-75085860D01*
X123752655Y-75139551D01*
X123760136Y-75156551D01*
X123766091Y-75170085D01*
X123859335Y-75281013D01*
X123866806Y-75285986D01*
X123866807Y-75285987D01*
X123972491Y-75356336D01*
X123972495Y-75356338D01*
X123979966Y-75361311D01*
X124118285Y-75404525D01*
X124127257Y-75404689D01*
X124127260Y-75404690D01*
X124193272Y-75405900D01*
X124263173Y-75407181D01*
X124333078Y-75388122D01*
X124394319Y-75371426D01*
X124394320Y-75371426D01*
X124402982Y-75369064D01*
X124410632Y-75364367D01*
X124410634Y-75364366D01*
X124518822Y-75297939D01*
X124518825Y-75297936D01*
X124525633Y-75293756D01*
X134338938Y-75293756D01*
X134340102Y-75302658D01*
X134340102Y-75302661D01*
X134353749Y-75407016D01*
X134357728Y-75437445D01*
X134416091Y-75570085D01*
X134509335Y-75681013D01*
X134516806Y-75685986D01*
X134516807Y-75685987D01*
X134622491Y-75756336D01*
X134622495Y-75756338D01*
X134629966Y-75761311D01*
X134768285Y-75804525D01*
X134777257Y-75804689D01*
X134777260Y-75804690D01*
X134843272Y-75805900D01*
X134913173Y-75807181D01*
X134991585Y-75785803D01*
X135044319Y-75771426D01*
X135044320Y-75771426D01*
X135052982Y-75769064D01*
X135060632Y-75764367D01*
X135060634Y-75764366D01*
X135168822Y-75697939D01*
X135168825Y-75697936D01*
X135176474Y-75693240D01*
X135187542Y-75681013D01*
X135267693Y-75592463D01*
X135267694Y-75592462D01*
X135273721Y-75585803D01*
X135281337Y-75570085D01*
X135318317Y-75493756D01*
X140938938Y-75493756D01*
X140940102Y-75502658D01*
X140940102Y-75502661D01*
X140956564Y-75628546D01*
X140957728Y-75637445D01*
X141016091Y-75770085D01*
X141109335Y-75881013D01*
X141116806Y-75885986D01*
X141116807Y-75885987D01*
X141222491Y-75956336D01*
X141222495Y-75956338D01*
X141229966Y-75961311D01*
X141368285Y-76004525D01*
X141377257Y-76004689D01*
X141377260Y-76004690D01*
X141443272Y-76005900D01*
X141513173Y-76007181D01*
X141583078Y-75988122D01*
X141644319Y-75971426D01*
X141644320Y-75971426D01*
X141652982Y-75969064D01*
X141660632Y-75964367D01*
X141660634Y-75964366D01*
X141768822Y-75897939D01*
X141768825Y-75897936D01*
X141776474Y-75893240D01*
X141787542Y-75881013D01*
X141867693Y-75792463D01*
X141867694Y-75792462D01*
X141873721Y-75785803D01*
X141881337Y-75770085D01*
X141932991Y-75663470D01*
X141932991Y-75663469D01*
X141936905Y-75655391D01*
X141960947Y-75512487D01*
X141961100Y-75500000D01*
X141955869Y-75463470D01*
X141941829Y-75365438D01*
X141941829Y-75365436D01*
X141940556Y-75356551D01*
X141934142Y-75342443D01*
X141917725Y-75306336D01*
X141880577Y-75224634D01*
X141785984Y-75114854D01*
X141741252Y-75085860D01*
X141671913Y-75040916D01*
X141671911Y-75040915D01*
X141664382Y-75036035D01*
X141655785Y-75033464D01*
X141655783Y-75033463D01*
X141561915Y-75005391D01*
X141525545Y-74994514D01*
X141516569Y-74994459D01*
X141516568Y-74994459D01*
X141454179Y-74994078D01*
X141380636Y-74993629D01*
X141372005Y-74996096D01*
X141372003Y-74996096D01*
X141249933Y-75030983D01*
X141249931Y-75030984D01*
X141241302Y-75033450D01*
X141233711Y-75038239D01*
X141233710Y-75038240D01*
X141192359Y-75064331D01*
X141118746Y-75110778D01*
X141022819Y-75219394D01*
X141009417Y-75247939D01*
X140985943Y-75297939D01*
X140961233Y-75350569D01*
X140959852Y-75359438D01*
X140943654Y-75463470D01*
X140938938Y-75493756D01*
X135318317Y-75493756D01*
X135332991Y-75463470D01*
X135332991Y-75463469D01*
X135336905Y-75455391D01*
X135353428Y-75357181D01*
X135360140Y-75317285D01*
X135360140Y-75317282D01*
X135360947Y-75312487D01*
X135361100Y-75300000D01*
X135359179Y-75286583D01*
X135341829Y-75165438D01*
X135341829Y-75165436D01*
X135340556Y-75156551D01*
X135334142Y-75142443D01*
X135322804Y-75117507D01*
X135280577Y-75024634D01*
X135185984Y-74914854D01*
X135153434Y-74893756D01*
X135071913Y-74840916D01*
X135071911Y-74840915D01*
X135064382Y-74836035D01*
X135055785Y-74833464D01*
X135055783Y-74833463D01*
X134971990Y-74808404D01*
X134925545Y-74794514D01*
X134916569Y-74794459D01*
X134916568Y-74794459D01*
X134854179Y-74794078D01*
X134780636Y-74793629D01*
X134772005Y-74796096D01*
X134772003Y-74796096D01*
X134649933Y-74830983D01*
X134649931Y-74830984D01*
X134641302Y-74833450D01*
X134633711Y-74838239D01*
X134633710Y-74838240D01*
X134545724Y-74893756D01*
X134518746Y-74910778D01*
X134422819Y-75019394D01*
X134419004Y-75027520D01*
X134368166Y-75135803D01*
X134361233Y-75150569D01*
X134359852Y-75159438D01*
X134346804Y-75243240D01*
X134338938Y-75293756D01*
X124525633Y-75293756D01*
X124526474Y-75293240D01*
X124534038Y-75284884D01*
X124617693Y-75192463D01*
X124617694Y-75192462D01*
X124623721Y-75185803D01*
X124631337Y-75170085D01*
X124682991Y-75063470D01*
X124682991Y-75063469D01*
X124686905Y-75055391D01*
X124700217Y-74976267D01*
X124710140Y-74917285D01*
X124710140Y-74917282D01*
X124710947Y-74912487D01*
X124711100Y-74900000D01*
X124704321Y-74852661D01*
X124691829Y-74765438D01*
X124691829Y-74765436D01*
X124690556Y-74756551D01*
X124630577Y-74624634D01*
X124535984Y-74514854D01*
X124502638Y-74493240D01*
X124421913Y-74440916D01*
X124421911Y-74440915D01*
X124414382Y-74436035D01*
X124405785Y-74433464D01*
X124405783Y-74433463D01*
X124321990Y-74408404D01*
X124275545Y-74394514D01*
X124266569Y-74394459D01*
X124266568Y-74394459D01*
X124204179Y-74394078D01*
X124130636Y-74393629D01*
X124122005Y-74396096D01*
X124122003Y-74396096D01*
X123999933Y-74430983D01*
X123999931Y-74430984D01*
X123991302Y-74433450D01*
X123983711Y-74438239D01*
X123983710Y-74438240D01*
X123889094Y-74497939D01*
X123868746Y-74510778D01*
X123772819Y-74619394D01*
X123769003Y-74627523D01*
X123767759Y-74629416D01*
X123713642Y-74675371D01*
X123643271Y-74684773D01*
X123578987Y-74654637D01*
X123547746Y-74612393D01*
X123534296Y-74582811D01*
X123534292Y-74582805D01*
X123530577Y-74574634D01*
X123435984Y-74464854D01*
X123422304Y-74455987D01*
X123321913Y-74390916D01*
X123321911Y-74390915D01*
X123314382Y-74386035D01*
X123305785Y-74383464D01*
X123305783Y-74383463D01*
X123221990Y-74358404D01*
X123175545Y-74344514D01*
X123166569Y-74344459D01*
X123166568Y-74344459D01*
X123104179Y-74344078D01*
X123030636Y-74343629D01*
X123022005Y-74346096D01*
X123022003Y-74346096D01*
X122899933Y-74380983D01*
X122899931Y-74380984D01*
X122891302Y-74383450D01*
X122883711Y-74388239D01*
X122883710Y-74388240D01*
X122812037Y-74433463D01*
X122768746Y-74460778D01*
X122672819Y-74569394D01*
X122611233Y-74700569D01*
X122609852Y-74709438D01*
X122590541Y-74833463D01*
X122588938Y-74843756D01*
X103154000Y-74843756D01*
X103154000Y-74093756D01*
X124688938Y-74093756D01*
X124690102Y-74102658D01*
X124690102Y-74102661D01*
X124706564Y-74228546D01*
X124707728Y-74237445D01*
X124766091Y-74370085D01*
X124859335Y-74481013D01*
X124866806Y-74485986D01*
X124972491Y-74556336D01*
X124972495Y-74556338D01*
X124979966Y-74561311D01*
X125118285Y-74604525D01*
X125127257Y-74604689D01*
X125127260Y-74604690D01*
X125193272Y-74605900D01*
X125263173Y-74607181D01*
X125352560Y-74582811D01*
X125394319Y-74571426D01*
X125394320Y-74571426D01*
X125402982Y-74569064D01*
X125410632Y-74564367D01*
X125410634Y-74564366D01*
X125518822Y-74497939D01*
X125518825Y-74497936D01*
X125526474Y-74493240D01*
X125537542Y-74481013D01*
X125617693Y-74392463D01*
X125617694Y-74392462D01*
X125623721Y-74385803D01*
X125631337Y-74370085D01*
X125682991Y-74263470D01*
X125682991Y-74263469D01*
X125686905Y-74255391D01*
X125710947Y-74112487D01*
X125711100Y-74100000D01*
X125690556Y-73956551D01*
X125684142Y-73942443D01*
X125648642Y-73864366D01*
X125630577Y-73824634D01*
X125535984Y-73714854D01*
X125477520Y-73676959D01*
X125421913Y-73640916D01*
X125421911Y-73640915D01*
X125414382Y-73636035D01*
X125405785Y-73633464D01*
X125405783Y-73633463D01*
X125286997Y-73597939D01*
X125275545Y-73594514D01*
X125266569Y-73594459D01*
X125266568Y-73594459D01*
X125204179Y-73594078D01*
X125130636Y-73593629D01*
X125122005Y-73596096D01*
X125122003Y-73596096D01*
X124999933Y-73630983D01*
X124999931Y-73630984D01*
X124991302Y-73633450D01*
X124983711Y-73638239D01*
X124983710Y-73638240D01*
X124897773Y-73692463D01*
X124868746Y-73710778D01*
X124772819Y-73819394D01*
X124711233Y-73950569D01*
X124688938Y-74093756D01*
X103154000Y-74093756D01*
X103154000Y-73393756D01*
X107388938Y-73393756D01*
X107390102Y-73402658D01*
X107390102Y-73402661D01*
X107406564Y-73528546D01*
X107407728Y-73537445D01*
X107466091Y-73670085D01*
X107559335Y-73781013D01*
X107566806Y-73785986D01*
X107566807Y-73785987D01*
X107672491Y-73856336D01*
X107672495Y-73856338D01*
X107679966Y-73861311D01*
X107818285Y-73904525D01*
X107827257Y-73904689D01*
X107827260Y-73904690D01*
X107893272Y-73905900D01*
X107963173Y-73907181D01*
X108033077Y-73888123D01*
X108094319Y-73871426D01*
X108094320Y-73871426D01*
X108102982Y-73869064D01*
X108110632Y-73864367D01*
X108110634Y-73864366D01*
X108218822Y-73797939D01*
X108218825Y-73797936D01*
X108226474Y-73793240D01*
X108237542Y-73781013D01*
X108317693Y-73692463D01*
X108317694Y-73692462D01*
X108323721Y-73685803D01*
X108331337Y-73670085D01*
X108382991Y-73563470D01*
X108382991Y-73563469D01*
X108386905Y-73555391D01*
X108410947Y-73412487D01*
X108411100Y-73400000D01*
X108405869Y-73363470D01*
X108391829Y-73265438D01*
X108391829Y-73265436D01*
X108390556Y-73256551D01*
X108384142Y-73242443D01*
X108368310Y-73207624D01*
X108330577Y-73124634D01*
X108235984Y-73014854D01*
X108222304Y-73005987D01*
X108121913Y-72940916D01*
X108121911Y-72940915D01*
X108114382Y-72936035D01*
X108105785Y-72933464D01*
X108105783Y-72933463D01*
X108021990Y-72908404D01*
X107975545Y-72894514D01*
X107966569Y-72894459D01*
X107966568Y-72894459D01*
X107904179Y-72894078D01*
X107830636Y-72893629D01*
X107822005Y-72896096D01*
X107822003Y-72896096D01*
X107699933Y-72930983D01*
X107699931Y-72930984D01*
X107691302Y-72933450D01*
X107683711Y-72938239D01*
X107683710Y-72938240D01*
X107612037Y-72983463D01*
X107568746Y-73010778D01*
X107472819Y-73119394D01*
X107411233Y-73250569D01*
X107409852Y-73259438D01*
X107393654Y-73363470D01*
X107388938Y-73393756D01*
X103154000Y-73393756D01*
X103154000Y-71893756D01*
X106388938Y-71893756D01*
X106390102Y-71902658D01*
X106390102Y-71902661D01*
X106405324Y-72019064D01*
X106407728Y-72037445D01*
X106466091Y-72170085D01*
X106559335Y-72281013D01*
X106566806Y-72285986D01*
X106566807Y-72285987D01*
X106672491Y-72356336D01*
X106672495Y-72356338D01*
X106679966Y-72361311D01*
X106818285Y-72404525D01*
X106827257Y-72404689D01*
X106827260Y-72404690D01*
X106893272Y-72405900D01*
X106963173Y-72407181D01*
X107033077Y-72388123D01*
X107094319Y-72371426D01*
X107094320Y-72371426D01*
X107102982Y-72369064D01*
X107110632Y-72364367D01*
X107110634Y-72364366D01*
X107218822Y-72297939D01*
X107218825Y-72297936D01*
X107226474Y-72293240D01*
X107237542Y-72281013D01*
X107317693Y-72192463D01*
X107317694Y-72192462D01*
X107323721Y-72185803D01*
X107331337Y-72170085D01*
X107382991Y-72063470D01*
X107382991Y-72063469D01*
X107386905Y-72055391D01*
X107405686Y-71943756D01*
X108838938Y-71943756D01*
X108840102Y-71952658D01*
X108840102Y-71952661D01*
X108854593Y-72063470D01*
X108857728Y-72087445D01*
X108916091Y-72220085D01*
X109009335Y-72331013D01*
X109016806Y-72335986D01*
X109016807Y-72335987D01*
X109122491Y-72406336D01*
X109122495Y-72406338D01*
X109129966Y-72411311D01*
X109138539Y-72413989D01*
X109138538Y-72413989D01*
X109268285Y-72454525D01*
X109267852Y-72455910D01*
X109323225Y-72482396D01*
X109357476Y-72537556D01*
X109357728Y-72537445D01*
X109361343Y-72545661D01*
X109361344Y-72545664D01*
X109376898Y-72581013D01*
X109416091Y-72670085D01*
X109509335Y-72781013D01*
X109516809Y-72785988D01*
X109551957Y-72809385D01*
X109597580Y-72863782D01*
X109596193Y-72967820D01*
X109561158Y-73042443D01*
X109557343Y-73050569D01*
X109555962Y-73059438D01*
X109536753Y-73182808D01*
X109535048Y-73193756D01*
X109536212Y-73202658D01*
X109536212Y-73202661D01*
X109550960Y-73315438D01*
X109553838Y-73337445D01*
X109612201Y-73470085D01*
X109705445Y-73581013D01*
X109712916Y-73585986D01*
X109712917Y-73585987D01*
X109818601Y-73656336D01*
X109818605Y-73656338D01*
X109826076Y-73661311D01*
X109964395Y-73704525D01*
X109973367Y-73704689D01*
X109973370Y-73704690D01*
X110039382Y-73705900D01*
X110109283Y-73707181D01*
X110187695Y-73685803D01*
X110240429Y-73671426D01*
X110240430Y-73671426D01*
X110249092Y-73669064D01*
X110256742Y-73664367D01*
X110256744Y-73664366D01*
X110364932Y-73597939D01*
X110364935Y-73597936D01*
X110372584Y-73593240D01*
X110383652Y-73581013D01*
X110463803Y-73492463D01*
X110463804Y-73492462D01*
X110469831Y-73485803D01*
X110477447Y-73470085D01*
X110490203Y-73443756D01*
X125838938Y-73443756D01*
X125840102Y-73452658D01*
X125840102Y-73452661D01*
X125853536Y-73555391D01*
X125857728Y-73587445D01*
X125894681Y-73671426D01*
X125910341Y-73707016D01*
X125916091Y-73720085D01*
X126009335Y-73831013D01*
X126016806Y-73835986D01*
X126016807Y-73835987D01*
X126122491Y-73906336D01*
X126122495Y-73906338D01*
X126129966Y-73911311D01*
X126154782Y-73919064D01*
X126255623Y-73950569D01*
X126268285Y-73954525D01*
X126277257Y-73954689D01*
X126277260Y-73954690D01*
X126343272Y-73955900D01*
X126413173Y-73957181D01*
X126483078Y-73938122D01*
X126544319Y-73921426D01*
X126544320Y-73921426D01*
X126552982Y-73919064D01*
X126560632Y-73914367D01*
X126560634Y-73914366D01*
X126668822Y-73847939D01*
X126668825Y-73847936D01*
X126676474Y-73843240D01*
X126687542Y-73831013D01*
X126767693Y-73742463D01*
X126767694Y-73742462D01*
X126773721Y-73735803D01*
X126781337Y-73720085D01*
X126832991Y-73613470D01*
X126832991Y-73613469D01*
X126836905Y-73605391D01*
X126857024Y-73485803D01*
X126860140Y-73467285D01*
X126860140Y-73467282D01*
X126860947Y-73462487D01*
X126861100Y-73450000D01*
X126854321Y-73402661D01*
X126841829Y-73315438D01*
X126841829Y-73315436D01*
X126840556Y-73306551D01*
X126834142Y-73292443D01*
X126817822Y-73256551D01*
X126780577Y-73174634D01*
X126685984Y-73064854D01*
X126595164Y-73005987D01*
X126571913Y-72990916D01*
X126571911Y-72990915D01*
X126564382Y-72986035D01*
X126555785Y-72983464D01*
X126555783Y-72983463D01*
X126471990Y-72958404D01*
X126425545Y-72944514D01*
X126416569Y-72944459D01*
X126416568Y-72944459D01*
X126354179Y-72944078D01*
X126280636Y-72943629D01*
X126272005Y-72946096D01*
X126272003Y-72946096D01*
X126149933Y-72980983D01*
X126149931Y-72980984D01*
X126141302Y-72983450D01*
X126133711Y-72988239D01*
X126133710Y-72988240D01*
X126080750Y-73021656D01*
X126018746Y-73060778D01*
X125922819Y-73169394D01*
X125861233Y-73300569D01*
X125859852Y-73309438D01*
X125843060Y-73417285D01*
X125838938Y-73443756D01*
X110490203Y-73443756D01*
X110529101Y-73363470D01*
X110529101Y-73363469D01*
X110533015Y-73355391D01*
X110550650Y-73250569D01*
X110556250Y-73217285D01*
X110556250Y-73217282D01*
X110557057Y-73212487D01*
X110557210Y-73200000D01*
X110553578Y-73174634D01*
X110537939Y-73065438D01*
X110537939Y-73065436D01*
X110536666Y-73056551D01*
X110530252Y-73042443D01*
X110518914Y-73017507D01*
X110476687Y-72924634D01*
X110382094Y-72814854D01*
X110345417Y-72791081D01*
X110299134Y-72737245D01*
X110289303Y-72666932D01*
X110300558Y-72630411D01*
X110332991Y-72563470D01*
X110332991Y-72563469D01*
X110336905Y-72555391D01*
X110360947Y-72412487D01*
X110361911Y-72412649D01*
X110386164Y-72351045D01*
X110443758Y-72309531D01*
X110529106Y-72314065D01*
X110529966Y-72311311D01*
X110608949Y-72335987D01*
X110668285Y-72354525D01*
X110677257Y-72354689D01*
X110677260Y-72354690D01*
X110743272Y-72355900D01*
X110813173Y-72357181D01*
X110883078Y-72338122D01*
X110944319Y-72321426D01*
X110944320Y-72321426D01*
X110952982Y-72319064D01*
X110960632Y-72314367D01*
X110960634Y-72314366D01*
X111068822Y-72247939D01*
X111068825Y-72247936D01*
X111076474Y-72243240D01*
X111087542Y-72231013D01*
X111167693Y-72142463D01*
X111167694Y-72142462D01*
X111173721Y-72135803D01*
X111179133Y-72124634D01*
X111232991Y-72013470D01*
X111232991Y-72013469D01*
X111236905Y-72005391D01*
X111255686Y-71893756D01*
X111938938Y-71893756D01*
X111940102Y-71902658D01*
X111940102Y-71902661D01*
X111955324Y-72019064D01*
X111957728Y-72037445D01*
X112016091Y-72170085D01*
X112109335Y-72281013D01*
X112116806Y-72285986D01*
X112116807Y-72285987D01*
X112222491Y-72356336D01*
X112222495Y-72356338D01*
X112229966Y-72361311D01*
X112368285Y-72404525D01*
X112377257Y-72404689D01*
X112377260Y-72404690D01*
X112443272Y-72405900D01*
X112513173Y-72407181D01*
X112583077Y-72388123D01*
X112644319Y-72371426D01*
X112644320Y-72371426D01*
X112652982Y-72369064D01*
X112660632Y-72364367D01*
X112660634Y-72364366D01*
X112718972Y-72328546D01*
X112776474Y-72293240D01*
X112781995Y-72287141D01*
X112846836Y-72259168D01*
X112931950Y-72279349D01*
X112972490Y-72306335D01*
X112972492Y-72306336D01*
X112979966Y-72311311D01*
X113118285Y-72354525D01*
X113127257Y-72354689D01*
X113127260Y-72354690D01*
X113193272Y-72355900D01*
X113263173Y-72357181D01*
X113333078Y-72338122D01*
X113394319Y-72321426D01*
X113394320Y-72321426D01*
X113402982Y-72319064D01*
X113410632Y-72314367D01*
X113410634Y-72314366D01*
X113518822Y-72247939D01*
X113518825Y-72247936D01*
X113526474Y-72243240D01*
X113537542Y-72231013D01*
X113571265Y-72193756D01*
X120188938Y-72193756D01*
X120190102Y-72202658D01*
X120190102Y-72202661D01*
X120204710Y-72314366D01*
X120207728Y-72337445D01*
X120266091Y-72470085D01*
X120359335Y-72581013D01*
X120366806Y-72585986D01*
X120366807Y-72585987D01*
X120472491Y-72656336D01*
X120472495Y-72656338D01*
X120479966Y-72661311D01*
X120618285Y-72704525D01*
X120627257Y-72704689D01*
X120627260Y-72704690D01*
X120693272Y-72705900D01*
X120763173Y-72707181D01*
X120874024Y-72676959D01*
X120894319Y-72671426D01*
X120894320Y-72671426D01*
X120902982Y-72669064D01*
X120910632Y-72664367D01*
X120910634Y-72664366D01*
X121018822Y-72597939D01*
X121018825Y-72597936D01*
X121026474Y-72593240D01*
X121037542Y-72581013D01*
X121117693Y-72492463D01*
X121117694Y-72492462D01*
X121123721Y-72485803D01*
X121131337Y-72470085D01*
X121182991Y-72363470D01*
X121182991Y-72363469D01*
X121186905Y-72355391D01*
X121200574Y-72274141D01*
X121210140Y-72217285D01*
X121210140Y-72217282D01*
X121210947Y-72212487D01*
X121211100Y-72200000D01*
X121200749Y-72127719D01*
X121191829Y-72065438D01*
X121191829Y-72065436D01*
X121190556Y-72056551D01*
X121184142Y-72042443D01*
X121173512Y-72019064D01*
X121130577Y-71924634D01*
X121035984Y-71814854D01*
X121001408Y-71792443D01*
X120921913Y-71740916D01*
X120921911Y-71740915D01*
X120914382Y-71736035D01*
X120905785Y-71733464D01*
X120905783Y-71733463D01*
X120811915Y-71705391D01*
X120775545Y-71694514D01*
X120766569Y-71694459D01*
X120766568Y-71694459D01*
X120704179Y-71694078D01*
X120630636Y-71693629D01*
X120622005Y-71696096D01*
X120622003Y-71696096D01*
X120499933Y-71730983D01*
X120499931Y-71730984D01*
X120491302Y-71733450D01*
X120483711Y-71738239D01*
X120483710Y-71738240D01*
X120434858Y-71769064D01*
X120368746Y-71810778D01*
X120272819Y-71919394D01*
X120211233Y-72050569D01*
X120209852Y-72059438D01*
X120192624Y-72170085D01*
X120188938Y-72193756D01*
X113571265Y-72193756D01*
X113617693Y-72142463D01*
X113617694Y-72142462D01*
X113623721Y-72135803D01*
X113629133Y-72124634D01*
X113682991Y-72013470D01*
X113682991Y-72013469D01*
X113686905Y-72005391D01*
X113705686Y-71893756D01*
X113710140Y-71867285D01*
X113710140Y-71867282D01*
X113710947Y-71862487D01*
X113711100Y-71850000D01*
X113704878Y-71806551D01*
X113691829Y-71715438D01*
X113691829Y-71715436D01*
X113690556Y-71706551D01*
X113685803Y-71696096D01*
X113654623Y-71627520D01*
X113630577Y-71574634D01*
X113535984Y-71464854D01*
X113522304Y-71455987D01*
X113421913Y-71390916D01*
X113421911Y-71390915D01*
X113414382Y-71386035D01*
X113405785Y-71383464D01*
X113405783Y-71383463D01*
X113321990Y-71358404D01*
X113275545Y-71344514D01*
X113266569Y-71344459D01*
X113266568Y-71344459D01*
X113204179Y-71344078D01*
X113130636Y-71343629D01*
X113122005Y-71346096D01*
X113122003Y-71346096D01*
X112999933Y-71380983D01*
X112999931Y-71380984D01*
X112991302Y-71383450D01*
X112983711Y-71388239D01*
X112983710Y-71388240D01*
X112877284Y-71455391D01*
X112868746Y-71460778D01*
X112866737Y-71463052D01*
X112804629Y-71490753D01*
X112719273Y-71471613D01*
X112671916Y-71440918D01*
X112671912Y-71440916D01*
X112664382Y-71436035D01*
X112655785Y-71433464D01*
X112655783Y-71433463D01*
X112565794Y-71406551D01*
X112525545Y-71394514D01*
X112516569Y-71394459D01*
X112516568Y-71394459D01*
X112454179Y-71394078D01*
X112380636Y-71393629D01*
X112372005Y-71396096D01*
X112372003Y-71396096D01*
X112249933Y-71430983D01*
X112249931Y-71430984D01*
X112241302Y-71433450D01*
X112233711Y-71438239D01*
X112233710Y-71438240D01*
X112162037Y-71483463D01*
X112118746Y-71510778D01*
X112022819Y-71619394D01*
X112019004Y-71627520D01*
X111970429Y-71730983D01*
X111961233Y-71750569D01*
X111959852Y-71759438D01*
X111943060Y-71867285D01*
X111938938Y-71893756D01*
X111255686Y-71893756D01*
X111260140Y-71867285D01*
X111260140Y-71867282D01*
X111260947Y-71862487D01*
X111261100Y-71850000D01*
X111254878Y-71806551D01*
X111241829Y-71715438D01*
X111241829Y-71715436D01*
X111240556Y-71706551D01*
X111235803Y-71696096D01*
X111204623Y-71627520D01*
X111180577Y-71574634D01*
X111085984Y-71464854D01*
X111072304Y-71455987D01*
X110971913Y-71390916D01*
X110971911Y-71390915D01*
X110964382Y-71386035D01*
X110955785Y-71383464D01*
X110955783Y-71383463D01*
X110871990Y-71358404D01*
X110825545Y-71344514D01*
X110816569Y-71344459D01*
X110816568Y-71344459D01*
X110754179Y-71344078D01*
X110680636Y-71343629D01*
X110672005Y-71346096D01*
X110672003Y-71346096D01*
X110549933Y-71380983D01*
X110549931Y-71380984D01*
X110541302Y-71383450D01*
X110533711Y-71388239D01*
X110533710Y-71388240D01*
X110427284Y-71455391D01*
X110418746Y-71460778D01*
X110322819Y-71569394D01*
X110316521Y-71582808D01*
X110275870Y-71669394D01*
X110261233Y-71700569D01*
X110259852Y-71709436D01*
X110259852Y-71709437D01*
X110239316Y-71841326D01*
X110209071Y-71905558D01*
X110148901Y-71943242D01*
X110065223Y-71936580D01*
X110064382Y-71936035D01*
X109925545Y-71894514D01*
X109926588Y-71891027D01*
X109877885Y-71868475D01*
X109841189Y-71810973D01*
X109840556Y-71806551D01*
X109834142Y-71792443D01*
X109817725Y-71756336D01*
X109780577Y-71674634D01*
X109685984Y-71564854D01*
X109639794Y-71534915D01*
X109571913Y-71490916D01*
X109571911Y-71490915D01*
X109564382Y-71486035D01*
X109555785Y-71483464D01*
X109555783Y-71483463D01*
X109461915Y-71455391D01*
X109425545Y-71444514D01*
X109416569Y-71444459D01*
X109416568Y-71444459D01*
X109354179Y-71444078D01*
X109280636Y-71443629D01*
X109272005Y-71446096D01*
X109272003Y-71446096D01*
X109149933Y-71480983D01*
X109149931Y-71480984D01*
X109141302Y-71483450D01*
X109133711Y-71488239D01*
X109133710Y-71488240D01*
X109028108Y-71554871D01*
X109018746Y-71560778D01*
X109012803Y-71567507D01*
X109010526Y-71570085D01*
X108922819Y-71669394D01*
X108861233Y-71800569D01*
X108859852Y-71809438D01*
X108840541Y-71933463D01*
X108838938Y-71943756D01*
X107405686Y-71943756D01*
X107406985Y-71936035D01*
X107410140Y-71917285D01*
X107410140Y-71917282D01*
X107410947Y-71912487D01*
X107411100Y-71900000D01*
X107410315Y-71894514D01*
X107391829Y-71765438D01*
X107391829Y-71765436D01*
X107390556Y-71756551D01*
X107384142Y-71742443D01*
X107370968Y-71713470D01*
X107330577Y-71624634D01*
X107235984Y-71514854D01*
X107222304Y-71505987D01*
X107121913Y-71440916D01*
X107121911Y-71440915D01*
X107114382Y-71436035D01*
X107105785Y-71433464D01*
X107105783Y-71433463D01*
X107015794Y-71406551D01*
X106975545Y-71394514D01*
X106966569Y-71394459D01*
X106966568Y-71394459D01*
X106904179Y-71394078D01*
X106830636Y-71393629D01*
X106822005Y-71396096D01*
X106822003Y-71396096D01*
X106699933Y-71430983D01*
X106699931Y-71430984D01*
X106691302Y-71433450D01*
X106683711Y-71438239D01*
X106683710Y-71438240D01*
X106612037Y-71483463D01*
X106568746Y-71510778D01*
X106472819Y-71619394D01*
X106469004Y-71627520D01*
X106420429Y-71730983D01*
X106411233Y-71750569D01*
X106409852Y-71759438D01*
X106393060Y-71867285D01*
X106388938Y-71893756D01*
X103154000Y-71893756D01*
X103154000Y-70843756D01*
X139788938Y-70843756D01*
X139790102Y-70852658D01*
X139790102Y-70852661D01*
X139806564Y-70978546D01*
X139807728Y-70987445D01*
X139866091Y-71120085D01*
X139871866Y-71126955D01*
X139876012Y-71133616D01*
X139895029Y-71202018D01*
X139875163Y-71266740D01*
X139872819Y-71269394D01*
X139869004Y-71277520D01*
X139820429Y-71380983D01*
X139811233Y-71400569D01*
X139809852Y-71409438D01*
X139794199Y-71509970D01*
X139788938Y-71543756D01*
X139790102Y-71552658D01*
X139790102Y-71552661D01*
X139806430Y-71677520D01*
X139807728Y-71687445D01*
X139829108Y-71736035D01*
X139860341Y-71807016D01*
X139866091Y-71820085D01*
X139959335Y-71931013D01*
X139966806Y-71935986D01*
X139966807Y-71935987D01*
X140072491Y-72006336D01*
X140072495Y-72006338D01*
X140079966Y-72011311D01*
X140104782Y-72019064D01*
X140205623Y-72050569D01*
X140218285Y-72054525D01*
X140227257Y-72054689D01*
X140227260Y-72054690D01*
X140293272Y-72055900D01*
X140363173Y-72057181D01*
X140433078Y-72038122D01*
X140494319Y-72021426D01*
X140494320Y-72021426D01*
X140502982Y-72019064D01*
X140510632Y-72014367D01*
X140510634Y-72014366D01*
X140618822Y-71947939D01*
X140618825Y-71947936D01*
X140626474Y-71943240D01*
X140634038Y-71934884D01*
X140717693Y-71842463D01*
X140717694Y-71842462D01*
X140723721Y-71835803D01*
X140731337Y-71820085D01*
X140782991Y-71713470D01*
X140782991Y-71713469D01*
X140786905Y-71705391D01*
X140807528Y-71582808D01*
X140810140Y-71567285D01*
X140810140Y-71567282D01*
X140810947Y-71562487D01*
X140811100Y-71550000D01*
X140802639Y-71490916D01*
X140791829Y-71415438D01*
X140791829Y-71415436D01*
X140790556Y-71406551D01*
X140786253Y-71397087D01*
X140739272Y-71293756D01*
X146788938Y-71293756D01*
X146790102Y-71302658D01*
X146790102Y-71302661D01*
X146804850Y-71415438D01*
X146807728Y-71437445D01*
X146866091Y-71570085D01*
X146959335Y-71681013D01*
X146966806Y-71685986D01*
X146966807Y-71685987D01*
X147072491Y-71756336D01*
X147072495Y-71756338D01*
X147079966Y-71761311D01*
X147093176Y-71765438D01*
X147205623Y-71800569D01*
X147218285Y-71804525D01*
X147227257Y-71804689D01*
X147227260Y-71804690D01*
X147293272Y-71805900D01*
X147363173Y-71807181D01*
X147433077Y-71788123D01*
X147494319Y-71771426D01*
X147494320Y-71771426D01*
X147502982Y-71769064D01*
X147510632Y-71764367D01*
X147510634Y-71764366D01*
X147618822Y-71697939D01*
X147618825Y-71697936D01*
X147626474Y-71693240D01*
X147637542Y-71681013D01*
X147717693Y-71592463D01*
X147717694Y-71592462D01*
X147723721Y-71585803D01*
X147729133Y-71574634D01*
X147782991Y-71463470D01*
X147782991Y-71463469D01*
X147786905Y-71455391D01*
X147805568Y-71344459D01*
X147810140Y-71317285D01*
X147810140Y-71317282D01*
X147810947Y-71312487D01*
X147811100Y-71300000D01*
X147807468Y-71274634D01*
X147791829Y-71165438D01*
X147791829Y-71165436D01*
X147790556Y-71156551D01*
X147784142Y-71142443D01*
X147734293Y-71032808D01*
X147730577Y-71024634D01*
X147635984Y-70914854D01*
X147562595Y-70867285D01*
X147521913Y-70840916D01*
X147521911Y-70840915D01*
X147514382Y-70836035D01*
X147505785Y-70833464D01*
X147505783Y-70833463D01*
X147421990Y-70808404D01*
X147375545Y-70794514D01*
X147366569Y-70794459D01*
X147366568Y-70794459D01*
X147304179Y-70794078D01*
X147230636Y-70793629D01*
X147222005Y-70796096D01*
X147222003Y-70796096D01*
X147099933Y-70830983D01*
X147099931Y-70830984D01*
X147091302Y-70833450D01*
X147083711Y-70838239D01*
X147083710Y-70838240D01*
X147037677Y-70867285D01*
X146968746Y-70910778D01*
X146872819Y-71019394D01*
X146869004Y-71027520D01*
X146818166Y-71135803D01*
X146811233Y-71150569D01*
X146809852Y-71159438D01*
X146790643Y-71282808D01*
X146788938Y-71293756D01*
X140739272Y-71293756D01*
X140734294Y-71282808D01*
X140734292Y-71282805D01*
X140730577Y-71274634D01*
X140724732Y-71267850D01*
X140704884Y-71199697D01*
X140724396Y-71136130D01*
X140723721Y-71135803D01*
X140731337Y-71120085D01*
X140782991Y-71013470D01*
X140782991Y-71013469D01*
X140786905Y-71005391D01*
X140810947Y-70862487D01*
X140811100Y-70850000D01*
X140808377Y-70830983D01*
X140791829Y-70715438D01*
X140791829Y-70715436D01*
X140790556Y-70706551D01*
X140784142Y-70692443D01*
X140734293Y-70582808D01*
X140730577Y-70574634D01*
X140635984Y-70464854D01*
X140622304Y-70455987D01*
X140521913Y-70390916D01*
X140521911Y-70390915D01*
X140514382Y-70386035D01*
X140505785Y-70383464D01*
X140505783Y-70383463D01*
X140421990Y-70358404D01*
X140375545Y-70344514D01*
X140366569Y-70344459D01*
X140366568Y-70344459D01*
X140304179Y-70344078D01*
X140230636Y-70343629D01*
X140222005Y-70346096D01*
X140222003Y-70346096D01*
X140099933Y-70380983D01*
X140099931Y-70380984D01*
X140091302Y-70383450D01*
X139968746Y-70460778D01*
X139872819Y-70569394D01*
X139811233Y-70700569D01*
X139809852Y-70709438D01*
X139790541Y-70833463D01*
X139788938Y-70843756D01*
X103154000Y-70843756D01*
X103154000Y-67443756D01*
X105088938Y-67443756D01*
X105090102Y-67452658D01*
X105090102Y-67452661D01*
X105093736Y-67480449D01*
X105107728Y-67587445D01*
X105166091Y-67720085D01*
X105259335Y-67831013D01*
X105266806Y-67835986D01*
X105266807Y-67835987D01*
X105372491Y-67906336D01*
X105372495Y-67906338D01*
X105379966Y-67911311D01*
X105518285Y-67954525D01*
X105527257Y-67954689D01*
X105527260Y-67954690D01*
X105593272Y-67955900D01*
X105663173Y-67957181D01*
X105793475Y-67921656D01*
X105794319Y-67921426D01*
X105794320Y-67921426D01*
X105802982Y-67919064D01*
X105810632Y-67914367D01*
X105810634Y-67914366D01*
X105918822Y-67847939D01*
X105918825Y-67847936D01*
X105926474Y-67843240D01*
X105935336Y-67833450D01*
X106017693Y-67742463D01*
X106017694Y-67742462D01*
X106023721Y-67735803D01*
X106031337Y-67720085D01*
X106082991Y-67613470D01*
X106082991Y-67613469D01*
X106086905Y-67605391D01*
X106110947Y-67462487D01*
X106111100Y-67450000D01*
X106097985Y-67358419D01*
X106091829Y-67315438D01*
X106091829Y-67315436D01*
X106090556Y-67306551D01*
X106084142Y-67292443D01*
X106041171Y-67197935D01*
X106030577Y-67174634D01*
X105935984Y-67064854D01*
X105915918Y-67051848D01*
X105821913Y-66990916D01*
X105821911Y-66990915D01*
X105814382Y-66986035D01*
X105805785Y-66983464D01*
X105805783Y-66983463D01*
X105686997Y-66947939D01*
X105675545Y-66944514D01*
X105666569Y-66944459D01*
X105666568Y-66944459D01*
X105604179Y-66944078D01*
X105530636Y-66943629D01*
X105522005Y-66946096D01*
X105522003Y-66946096D01*
X105399933Y-66980983D01*
X105399931Y-66980984D01*
X105391302Y-66983450D01*
X105383711Y-66988239D01*
X105383710Y-66988240D01*
X105334858Y-67019064D01*
X105268746Y-67060778D01*
X105172819Y-67169394D01*
X105159419Y-67197935D01*
X105119013Y-67283999D01*
X105111233Y-67300569D01*
X105109852Y-67309438D01*
X105101178Y-67365148D01*
X105088938Y-67443756D01*
X103154000Y-67443756D01*
X103154000Y-64843756D01*
X104488938Y-64843756D01*
X104490102Y-64852658D01*
X104490102Y-64852661D01*
X104491387Y-64862487D01*
X104507728Y-64987445D01*
X104519179Y-65013470D01*
X104551109Y-65086035D01*
X104566091Y-65120085D01*
X104571866Y-65126955D01*
X104576012Y-65133616D01*
X104595029Y-65202018D01*
X104575163Y-65266740D01*
X104572819Y-65269394D01*
X104511233Y-65400569D01*
X104509852Y-65409438D01*
X104504391Y-65444514D01*
X104488938Y-65543756D01*
X104490102Y-65552658D01*
X104490102Y-65552661D01*
X104506430Y-65677520D01*
X104507728Y-65687445D01*
X104566091Y-65820085D01*
X104659335Y-65931013D01*
X104666806Y-65935986D01*
X104666807Y-65935987D01*
X104772491Y-66006336D01*
X104772495Y-66006338D01*
X104779966Y-66011311D01*
X104804782Y-66019064D01*
X104894478Y-66047087D01*
X104918285Y-66054525D01*
X104927257Y-66054689D01*
X104927260Y-66054690D01*
X104993272Y-66055900D01*
X105063173Y-66057181D01*
X105150216Y-66033450D01*
X105194319Y-66021426D01*
X105194320Y-66021426D01*
X105202982Y-66019064D01*
X105210632Y-66014367D01*
X105210634Y-66014366D01*
X105318822Y-65947939D01*
X105318825Y-65947936D01*
X105325633Y-65943756D01*
X106788938Y-65943756D01*
X106790102Y-65952658D01*
X106790102Y-65952661D01*
X106806075Y-66074803D01*
X106807728Y-66087445D01*
X106832362Y-66143429D01*
X106861481Y-66209607D01*
X106866091Y-66220085D01*
X106959335Y-66331013D01*
X106966805Y-66335986D01*
X106966808Y-66335988D01*
X107022806Y-66373263D01*
X107068429Y-66427660D01*
X107067042Y-66531698D01*
X107029325Y-66612034D01*
X107011233Y-66650569D01*
X107009852Y-66659438D01*
X106993527Y-66764286D01*
X106988938Y-66793756D01*
X106990102Y-66802658D01*
X106990102Y-66802661D01*
X107001342Y-66888612D01*
X107007728Y-66937445D01*
X107029108Y-66986035D01*
X107060341Y-67057016D01*
X107066091Y-67070085D01*
X107132315Y-67148868D01*
X107160835Y-67213884D01*
X107149679Y-67283999D01*
X107103101Y-67336502D01*
X107068366Y-67358419D01*
X106972439Y-67467035D01*
X106910853Y-67598210D01*
X106909472Y-67607079D01*
X106890688Y-67727719D01*
X106888558Y-67741397D01*
X106889722Y-67750299D01*
X106889722Y-67750302D01*
X106901005Y-67836583D01*
X106907348Y-67885086D01*
X106965711Y-68017726D01*
X106971488Y-68024599D01*
X106971489Y-68024600D01*
X107004113Y-68063411D01*
X107032634Y-68128427D01*
X107021718Y-68198033D01*
X107011233Y-68220366D01*
X107009853Y-68229231D01*
X107009852Y-68229233D01*
X106998834Y-68300000D01*
X106988938Y-68363553D01*
X106990102Y-68372455D01*
X106990102Y-68372458D01*
X107006564Y-68498343D01*
X107007728Y-68507242D01*
X107031763Y-68561865D01*
X107064333Y-68635887D01*
X107063059Y-68740181D01*
X107017022Y-68838238D01*
X107011233Y-68850569D01*
X107009852Y-68859438D01*
X106996925Y-68942463D01*
X106988938Y-68993756D01*
X106990102Y-69002658D01*
X106990102Y-69002661D01*
X107004710Y-69114366D01*
X107007728Y-69137445D01*
X107066091Y-69270085D01*
X107071400Y-69276401D01*
X107090319Y-69344451D01*
X107058773Y-69426040D01*
X107041445Y-69445660D01*
X107020484Y-69469394D01*
X107016669Y-69477520D01*
X106965831Y-69585803D01*
X106958898Y-69600569D01*
X106957517Y-69609438D01*
X106944469Y-69693240D01*
X106936603Y-69743756D01*
X106937767Y-69752658D01*
X106937767Y-69752661D01*
X106944571Y-69804690D01*
X106955393Y-69887445D01*
X107013756Y-70020085D01*
X107107000Y-70131013D01*
X107114471Y-70135986D01*
X107114472Y-70135987D01*
X107220156Y-70206336D01*
X107220160Y-70206338D01*
X107227631Y-70211311D01*
X107365950Y-70254525D01*
X107374922Y-70254689D01*
X107374925Y-70254690D01*
X107440937Y-70255900D01*
X107510838Y-70257181D01*
X107580742Y-70238123D01*
X107641984Y-70221426D01*
X107641985Y-70221426D01*
X107650647Y-70219064D01*
X107658297Y-70214367D01*
X107658299Y-70214366D01*
X107766487Y-70147939D01*
X107766490Y-70147936D01*
X107774139Y-70143240D01*
X107785207Y-70131013D01*
X107865358Y-70042463D01*
X107865359Y-70042462D01*
X107871386Y-70035803D01*
X107879002Y-70020085D01*
X107930656Y-69913470D01*
X107930656Y-69913469D01*
X107934570Y-69905391D01*
X107951093Y-69807181D01*
X107957805Y-69767285D01*
X107957805Y-69767282D01*
X107958612Y-69762487D01*
X107958765Y-69750000D01*
X107954688Y-69721528D01*
X107939494Y-69615438D01*
X107939494Y-69615436D01*
X107938221Y-69606551D01*
X107931807Y-69592443D01*
X107881957Y-69482805D01*
X107878242Y-69474634D01*
X107876410Y-69472507D01*
X107857425Y-69407325D01*
X107890009Y-69323047D01*
X107916522Y-69293756D01*
X141088938Y-69293756D01*
X141090102Y-69302658D01*
X141090102Y-69302661D01*
X141106564Y-69428546D01*
X141107728Y-69437445D01*
X141166091Y-69570085D01*
X141259335Y-69681013D01*
X141266806Y-69685986D01*
X141266807Y-69685987D01*
X141372491Y-69756336D01*
X141372495Y-69756338D01*
X141379966Y-69761311D01*
X141518285Y-69804525D01*
X141527257Y-69804689D01*
X141527260Y-69804690D01*
X141593272Y-69805900D01*
X141663173Y-69807181D01*
X141733078Y-69788122D01*
X141794319Y-69771426D01*
X141794320Y-69771426D01*
X141802982Y-69769064D01*
X141884455Y-69719040D01*
X141952972Y-69700443D01*
X142020201Y-69721528D01*
X142079966Y-69761311D01*
X142218285Y-69804525D01*
X142227257Y-69804689D01*
X142227260Y-69804690D01*
X142293272Y-69805900D01*
X142363173Y-69807181D01*
X142433078Y-69788122D01*
X142494319Y-69771426D01*
X142494320Y-69771426D01*
X142502982Y-69769064D01*
X142510632Y-69764367D01*
X142510634Y-69764366D01*
X142618822Y-69697939D01*
X142618825Y-69697936D01*
X142626474Y-69693240D01*
X142637542Y-69681013D01*
X142717693Y-69592463D01*
X142717694Y-69592462D01*
X142723721Y-69585803D01*
X142731337Y-69570085D01*
X142782991Y-69463470D01*
X142782991Y-69463469D01*
X142786905Y-69455391D01*
X142804620Y-69350094D01*
X142810140Y-69317285D01*
X142810140Y-69317282D01*
X142810947Y-69312487D01*
X142811100Y-69300000D01*
X142805640Y-69261870D01*
X142791829Y-69165438D01*
X142791829Y-69165436D01*
X142790556Y-69156551D01*
X142784142Y-69142443D01*
X142741173Y-69047939D01*
X142730577Y-69024634D01*
X142635984Y-68914854D01*
X142559745Y-68865438D01*
X142521913Y-68840916D01*
X142521911Y-68840915D01*
X142514382Y-68836035D01*
X142505785Y-68833464D01*
X142505783Y-68833463D01*
X142411915Y-68805391D01*
X142375545Y-68794514D01*
X142366569Y-68794459D01*
X142366568Y-68794459D01*
X142304179Y-68794078D01*
X142230636Y-68793629D01*
X142222005Y-68796096D01*
X142222003Y-68796096D01*
X142099933Y-68830983D01*
X142099931Y-68830984D01*
X142091302Y-68833450D01*
X142017106Y-68880265D01*
X141948824Y-68899699D01*
X141881340Y-68879435D01*
X141814382Y-68836035D01*
X141805785Y-68833464D01*
X141805783Y-68833463D01*
X141711915Y-68805391D01*
X141675545Y-68794514D01*
X141666569Y-68794459D01*
X141666568Y-68794459D01*
X141604179Y-68794078D01*
X141530636Y-68793629D01*
X141522005Y-68796096D01*
X141522003Y-68796096D01*
X141399933Y-68830983D01*
X141399931Y-68830984D01*
X141391302Y-68833450D01*
X141383714Y-68838238D01*
X141383710Y-68838240D01*
X141318421Y-68879435D01*
X141268746Y-68910778D01*
X141172819Y-69019394D01*
X141111233Y-69150569D01*
X141109852Y-69159438D01*
X141092624Y-69270085D01*
X141088938Y-69293756D01*
X107916522Y-69293756D01*
X107923721Y-69285803D01*
X107931337Y-69270085D01*
X107982991Y-69163470D01*
X107982991Y-69163469D01*
X107986905Y-69155391D01*
X108006893Y-69036583D01*
X108010140Y-69017285D01*
X108010140Y-69017282D01*
X108010947Y-69012487D01*
X108011100Y-69000000D01*
X108001300Y-68931567D01*
X107991829Y-68865438D01*
X107991829Y-68865436D01*
X107990556Y-68856551D01*
X107935550Y-68735571D01*
X107925564Y-68665282D01*
X107932171Y-68643756D01*
X115488938Y-68643756D01*
X115490102Y-68652658D01*
X115490102Y-68652661D01*
X115504710Y-68764366D01*
X115507728Y-68787445D01*
X115566091Y-68920085D01*
X115659335Y-69031013D01*
X115666806Y-69035986D01*
X115666807Y-69035987D01*
X115772491Y-69106336D01*
X115772495Y-69106338D01*
X115779966Y-69111311D01*
X115804782Y-69119064D01*
X115905623Y-69150569D01*
X115918285Y-69154525D01*
X115927257Y-69154689D01*
X115927260Y-69154690D01*
X115993272Y-69155900D01*
X116063173Y-69157181D01*
X116133078Y-69138122D01*
X116194319Y-69121426D01*
X116194320Y-69121426D01*
X116202982Y-69119064D01*
X116210632Y-69114367D01*
X116210634Y-69114366D01*
X116318822Y-69047939D01*
X116318825Y-69047936D01*
X116326474Y-69043240D01*
X116337542Y-69031013D01*
X116417693Y-68942463D01*
X116417694Y-68942462D01*
X116423721Y-68935803D01*
X116431337Y-68920085D01*
X116482991Y-68813470D01*
X116482991Y-68813469D01*
X116486905Y-68805391D01*
X116506893Y-68686583D01*
X116510140Y-68667285D01*
X116510140Y-68667282D01*
X116510947Y-68662487D01*
X116511100Y-68650000D01*
X116508019Y-68628483D01*
X116491829Y-68515438D01*
X116491829Y-68515436D01*
X116490556Y-68506551D01*
X116484142Y-68492443D01*
X116463270Y-68446539D01*
X116430577Y-68374634D01*
X116360888Y-68293756D01*
X122088938Y-68293756D01*
X122090102Y-68302658D01*
X122090102Y-68302661D01*
X122100583Y-68382808D01*
X122107728Y-68437445D01*
X122166091Y-68570085D01*
X122259335Y-68681013D01*
X122266806Y-68685986D01*
X122266807Y-68685987D01*
X122372491Y-68756336D01*
X122372495Y-68756338D01*
X122379966Y-68761311D01*
X122404782Y-68769064D01*
X122494478Y-68797087D01*
X122518285Y-68804525D01*
X122527257Y-68804689D01*
X122527260Y-68804690D01*
X122593272Y-68805900D01*
X122663173Y-68807181D01*
X122733077Y-68788123D01*
X122794319Y-68771426D01*
X122794320Y-68771426D01*
X122802982Y-68769064D01*
X122810632Y-68764367D01*
X122810634Y-68764366D01*
X122918822Y-68697939D01*
X122918825Y-68697936D01*
X122926474Y-68693240D01*
X122933583Y-68685387D01*
X123017693Y-68592463D01*
X123017694Y-68592462D01*
X123023721Y-68585803D01*
X123031337Y-68570085D01*
X123082991Y-68463470D01*
X123082991Y-68463469D01*
X123086905Y-68455391D01*
X123110947Y-68312487D01*
X123111100Y-68300000D01*
X123110206Y-68293756D01*
X123638938Y-68293756D01*
X123640102Y-68302658D01*
X123640102Y-68302661D01*
X123650583Y-68382808D01*
X123657728Y-68437445D01*
X123716091Y-68570085D01*
X123809335Y-68681013D01*
X123816806Y-68685986D01*
X123816807Y-68685987D01*
X123922491Y-68756336D01*
X123922495Y-68756338D01*
X123929966Y-68761311D01*
X123954782Y-68769064D01*
X124044478Y-68797087D01*
X124068285Y-68804525D01*
X124077257Y-68804689D01*
X124077260Y-68804690D01*
X124143272Y-68805900D01*
X124213173Y-68807181D01*
X124283077Y-68788123D01*
X124344319Y-68771426D01*
X124344320Y-68771426D01*
X124352982Y-68769064D01*
X124360632Y-68764367D01*
X124360634Y-68764366D01*
X124468822Y-68697939D01*
X124468825Y-68697936D01*
X124476474Y-68693240D01*
X124483583Y-68685387D01*
X124567693Y-68592463D01*
X124567694Y-68592462D01*
X124573721Y-68585803D01*
X124581337Y-68570085D01*
X124632991Y-68463470D01*
X124632991Y-68463469D01*
X124636905Y-68455391D01*
X124660947Y-68312487D01*
X124661100Y-68300000D01*
X124649696Y-68220366D01*
X124641829Y-68165438D01*
X124641829Y-68165436D01*
X124640556Y-68156551D01*
X124635803Y-68146096D01*
X124612312Y-68094431D01*
X124580577Y-68024634D01*
X124485984Y-67914854D01*
X124426329Y-67876187D01*
X124371913Y-67840916D01*
X124371911Y-67840915D01*
X124364382Y-67836035D01*
X124355785Y-67833464D01*
X124355783Y-67833463D01*
X124271990Y-67808404D01*
X124225545Y-67794514D01*
X124216569Y-67794459D01*
X124216568Y-67794459D01*
X124154179Y-67794078D01*
X124080636Y-67793629D01*
X124072005Y-67796096D01*
X124072003Y-67796096D01*
X123949933Y-67830983D01*
X123949931Y-67830984D01*
X123941302Y-67833450D01*
X123933711Y-67838239D01*
X123933710Y-67838240D01*
X123826339Y-67905987D01*
X123818746Y-67910778D01*
X123722819Y-68019394D01*
X123719004Y-68027520D01*
X123671629Y-68128427D01*
X123661233Y-68150569D01*
X123659852Y-68159438D01*
X123644199Y-68259970D01*
X123638938Y-68293756D01*
X123110206Y-68293756D01*
X123099696Y-68220366D01*
X123091829Y-68165438D01*
X123091829Y-68165436D01*
X123090556Y-68156551D01*
X123085803Y-68146096D01*
X123062312Y-68094431D01*
X123030577Y-68024634D01*
X122935984Y-67914854D01*
X122876329Y-67876187D01*
X122821913Y-67840916D01*
X122821911Y-67840915D01*
X122814382Y-67836035D01*
X122805785Y-67833464D01*
X122805783Y-67833463D01*
X122721990Y-67808404D01*
X122675545Y-67794514D01*
X122666569Y-67794459D01*
X122666568Y-67794459D01*
X122604179Y-67794078D01*
X122530636Y-67793629D01*
X122522005Y-67796096D01*
X122522003Y-67796096D01*
X122399933Y-67830983D01*
X122399931Y-67830984D01*
X122391302Y-67833450D01*
X122383711Y-67838239D01*
X122383710Y-67838240D01*
X122276339Y-67905987D01*
X122268746Y-67910778D01*
X122172819Y-68019394D01*
X122169004Y-68027520D01*
X122121629Y-68128427D01*
X122111233Y-68150569D01*
X122109852Y-68159438D01*
X122094199Y-68259970D01*
X122088938Y-68293756D01*
X116360888Y-68293756D01*
X116335984Y-68264854D01*
X116232893Y-68198033D01*
X116221913Y-68190916D01*
X116221911Y-68190915D01*
X116214382Y-68186035D01*
X116205785Y-68183464D01*
X116205783Y-68183463D01*
X116115794Y-68156551D01*
X116075545Y-68144514D01*
X116066569Y-68144459D01*
X116066568Y-68144459D01*
X116004179Y-68144078D01*
X115930636Y-68143629D01*
X115922005Y-68146096D01*
X115922003Y-68146096D01*
X115799933Y-68180983D01*
X115799931Y-68180984D01*
X115791302Y-68183450D01*
X115783711Y-68188239D01*
X115783710Y-68188240D01*
X115676339Y-68255987D01*
X115668746Y-68260778D01*
X115572819Y-68369394D01*
X115511233Y-68500569D01*
X115509852Y-68509438D01*
X115496925Y-68592463D01*
X115488938Y-68643756D01*
X107932171Y-68643756D01*
X107936859Y-68628483D01*
X107982991Y-68533267D01*
X107982991Y-68533266D01*
X107986905Y-68525188D01*
X108010947Y-68382284D01*
X108011100Y-68369797D01*
X108002893Y-68312487D01*
X107991829Y-68235235D01*
X107991829Y-68235233D01*
X107990556Y-68226348D01*
X107930577Y-68094431D01*
X107897050Y-68055521D01*
X107867736Y-67990858D01*
X107879110Y-67918336D01*
X107880797Y-67914854D01*
X107886525Y-67903032D01*
X107910567Y-67760128D01*
X107910720Y-67747641D01*
X107909979Y-67742463D01*
X107891449Y-67613079D01*
X107891449Y-67613077D01*
X107890176Y-67604192D01*
X107883762Y-67590084D01*
X107833913Y-67480449D01*
X107830197Y-67472275D01*
X107768307Y-67400448D01*
X107738993Y-67335787D01*
X107749292Y-67265541D01*
X107797830Y-67210828D01*
X107826474Y-67193240D01*
X107837542Y-67181013D01*
X107917693Y-67092463D01*
X107917694Y-67092462D01*
X107923721Y-67085803D01*
X107931337Y-67070085D01*
X107982991Y-66963470D01*
X107982991Y-66963469D01*
X107986905Y-66955391D01*
X108010947Y-66812487D01*
X108011100Y-66800000D01*
X108005986Y-66764286D01*
X107991829Y-66665438D01*
X107991829Y-66665436D01*
X107990556Y-66656551D01*
X107984142Y-66642443D01*
X107970315Y-66612034D01*
X107930577Y-66524634D01*
X107835984Y-66414854D01*
X107828450Y-66409971D01*
X107828447Y-66409968D01*
X107777912Y-66377213D01*
X107731628Y-66323377D01*
X107726489Y-66286616D01*
X115594314Y-66286616D01*
X115595478Y-66295518D01*
X115595478Y-66295521D01*
X115610620Y-66411311D01*
X115613104Y-66430305D01*
X115671467Y-66562945D01*
X115764711Y-66673873D01*
X115772182Y-66678846D01*
X115772183Y-66678847D01*
X115877867Y-66749196D01*
X115877871Y-66749198D01*
X115885342Y-66754171D01*
X115910158Y-66761924D01*
X116007907Y-66792463D01*
X116023661Y-66797385D01*
X116032633Y-66797549D01*
X116032636Y-66797550D01*
X116098648Y-66798760D01*
X116168549Y-66800041D01*
X116250424Y-66777719D01*
X116299695Y-66764286D01*
X116299696Y-66764286D01*
X116308358Y-66761924D01*
X116316008Y-66757227D01*
X116316010Y-66757226D01*
X116424198Y-66690799D01*
X116424201Y-66690796D01*
X116431850Y-66686100D01*
X116442918Y-66673873D01*
X116523069Y-66585323D01*
X116523070Y-66585322D01*
X116529097Y-66578663D01*
X116536713Y-66562945D01*
X116588367Y-66456330D01*
X116588367Y-66456329D01*
X116592281Y-66448251D01*
X116606681Y-66362656D01*
X116609832Y-66343925D01*
X122589513Y-66343925D01*
X122590677Y-66352827D01*
X122590677Y-66352830D01*
X122604212Y-66456330D01*
X122608303Y-66487614D01*
X122666666Y-66620254D01*
X122759910Y-66731182D01*
X122767381Y-66736155D01*
X122767382Y-66736156D01*
X122873066Y-66806505D01*
X122873070Y-66806507D01*
X122880541Y-66811480D01*
X123018860Y-66854694D01*
X123027832Y-66854858D01*
X123027835Y-66854859D01*
X123093847Y-66856069D01*
X123163748Y-66857350D01*
X123275219Y-66826959D01*
X123294894Y-66821595D01*
X123294895Y-66821595D01*
X123303557Y-66819233D01*
X123311207Y-66814536D01*
X123311209Y-66814535D01*
X123419397Y-66748108D01*
X123419400Y-66748105D01*
X123427049Y-66743409D01*
X123438117Y-66731182D01*
X123502034Y-66660567D01*
X123562577Y-66623485D01*
X123633557Y-66625023D01*
X123710778Y-66694376D01*
X123766091Y-66820085D01*
X123859335Y-66931013D01*
X123866806Y-66935986D01*
X123866807Y-66935987D01*
X123972491Y-67006336D01*
X123972495Y-67006338D01*
X123979966Y-67011311D01*
X124118285Y-67054525D01*
X124127257Y-67054689D01*
X124127260Y-67054690D01*
X124193272Y-67055900D01*
X124263173Y-67057181D01*
X124333077Y-67038123D01*
X124394319Y-67021426D01*
X124394320Y-67021426D01*
X124402982Y-67019064D01*
X124410632Y-67014367D01*
X124410634Y-67014366D01*
X124518822Y-66947939D01*
X124518825Y-66947936D01*
X124526474Y-66943240D01*
X124557519Y-66908942D01*
X124618060Y-66871863D01*
X124720751Y-66888612D01*
X124822490Y-66956335D01*
X124822492Y-66956336D01*
X124829966Y-66961311D01*
X124968285Y-67004525D01*
X124977257Y-67004689D01*
X124977260Y-67004690D01*
X125043272Y-67005900D01*
X125113173Y-67007181D01*
X125200216Y-66983450D01*
X125244319Y-66971426D01*
X125244320Y-66971426D01*
X125252982Y-66969064D01*
X125260632Y-66964367D01*
X125260634Y-66964366D01*
X125368822Y-66897939D01*
X125368825Y-66897936D01*
X125376474Y-66893240D01*
X125387542Y-66881013D01*
X125467693Y-66792463D01*
X125467694Y-66792462D01*
X125473721Y-66785803D01*
X125485291Y-66761924D01*
X125532991Y-66663470D01*
X125532991Y-66663469D01*
X125536905Y-66655391D01*
X125557715Y-66531698D01*
X125560140Y-66517285D01*
X125560140Y-66517282D01*
X125560947Y-66512487D01*
X125561100Y-66500000D01*
X125548399Y-66411311D01*
X125541829Y-66365438D01*
X125541829Y-66365436D01*
X125540556Y-66356551D01*
X125530782Y-66335053D01*
X125484921Y-66234188D01*
X125474935Y-66163897D01*
X125504535Y-66099366D01*
X125564325Y-66061082D01*
X125601930Y-66056058D01*
X125663173Y-66057181D01*
X125750216Y-66033450D01*
X125794319Y-66021426D01*
X125794320Y-66021426D01*
X125802982Y-66019064D01*
X125810632Y-66014367D01*
X125810634Y-66014366D01*
X125918822Y-65947939D01*
X125918825Y-65947936D01*
X125926474Y-65943240D01*
X125934038Y-65934884D01*
X126017693Y-65842463D01*
X126017694Y-65842462D01*
X126023721Y-65835803D01*
X126028321Y-65826310D01*
X126082991Y-65713470D01*
X126082991Y-65713469D01*
X126086905Y-65705391D01*
X126100217Y-65626267D01*
X126110140Y-65567285D01*
X126110140Y-65567282D01*
X126110947Y-65562487D01*
X126111100Y-65550000D01*
X126102639Y-65490916D01*
X126091829Y-65415438D01*
X126091829Y-65415436D01*
X126090556Y-65406551D01*
X126084142Y-65392443D01*
X126034293Y-65282808D01*
X126030577Y-65274634D01*
X125935984Y-65164854D01*
X125887790Y-65133616D01*
X125821913Y-65090916D01*
X125821911Y-65090915D01*
X125814382Y-65086035D01*
X125805785Y-65083464D01*
X125805783Y-65083463D01*
X125721990Y-65058404D01*
X125675545Y-65044514D01*
X125666569Y-65044459D01*
X125666568Y-65044459D01*
X125604179Y-65044078D01*
X125530636Y-65043629D01*
X125522005Y-65046096D01*
X125522003Y-65046096D01*
X125399933Y-65080983D01*
X125399931Y-65080984D01*
X125391302Y-65083450D01*
X125383711Y-65088239D01*
X125383710Y-65088240D01*
X125307810Y-65136130D01*
X125268746Y-65160778D01*
X125172819Y-65269394D01*
X125111233Y-65400569D01*
X125109852Y-65409438D01*
X125104391Y-65444514D01*
X125088938Y-65543756D01*
X125090102Y-65552658D01*
X125090102Y-65552661D01*
X125106430Y-65677520D01*
X125107728Y-65687445D01*
X125151308Y-65786489D01*
X125164866Y-65817301D01*
X125173994Y-65887708D01*
X125143607Y-65951873D01*
X125048768Y-65994045D01*
X125027547Y-65993915D01*
X124980636Y-65993629D01*
X124972005Y-65996096D01*
X124972003Y-65996096D01*
X124849933Y-66030983D01*
X124849931Y-66030984D01*
X124841302Y-66033450D01*
X124833711Y-66038239D01*
X124833710Y-66038240D01*
X124762037Y-66083463D01*
X124718746Y-66110778D01*
X124697086Y-66135303D01*
X124693707Y-66139129D01*
X124633620Y-66176946D01*
X124530734Y-66161451D01*
X124421913Y-66090916D01*
X124421911Y-66090915D01*
X124414382Y-66086035D01*
X124405785Y-66083464D01*
X124405783Y-66083463D01*
X124317349Y-66057016D01*
X124275545Y-66044514D01*
X124266569Y-66044459D01*
X124266568Y-66044459D01*
X124204179Y-66044078D01*
X124130636Y-66043629D01*
X124122005Y-66046096D01*
X124122003Y-66046096D01*
X123999933Y-66080983D01*
X123999931Y-66080984D01*
X123991302Y-66083450D01*
X123983711Y-66088239D01*
X123983710Y-66088240D01*
X123909121Y-66135303D01*
X123868746Y-66160778D01*
X123862803Y-66167507D01*
X123800346Y-66238226D01*
X123740260Y-66276044D01*
X123669267Y-66275374D01*
X123609906Y-66236428D01*
X123593333Y-66205719D01*
X123591131Y-66206720D01*
X123584716Y-66192612D01*
X123531152Y-66074803D01*
X123436559Y-65965023D01*
X123422879Y-65956156D01*
X123322488Y-65891085D01*
X123322486Y-65891084D01*
X123314957Y-65886204D01*
X123306360Y-65883633D01*
X123306358Y-65883632D01*
X123222565Y-65858573D01*
X123176120Y-65844683D01*
X123167144Y-65844628D01*
X123167143Y-65844628D01*
X123104754Y-65844247D01*
X123031211Y-65843798D01*
X123022580Y-65846265D01*
X123022578Y-65846265D01*
X122900508Y-65881152D01*
X122900506Y-65881153D01*
X122891877Y-65883619D01*
X122884286Y-65888408D01*
X122884285Y-65888409D01*
X122796567Y-65943756D01*
X122769321Y-65960947D01*
X122673394Y-66069563D01*
X122611808Y-66200738D01*
X122610427Y-66209607D01*
X122594773Y-66310145D01*
X122589513Y-66343925D01*
X116609832Y-66343925D01*
X116615516Y-66310145D01*
X116615516Y-66310142D01*
X116616323Y-66305347D01*
X116616476Y-66292860D01*
X116613116Y-66269394D01*
X116597205Y-66158298D01*
X116597205Y-66158296D01*
X116595932Y-66149411D01*
X116589518Y-66135303D01*
X116573178Y-66099366D01*
X116535953Y-66017494D01*
X116441360Y-65907714D01*
X116410495Y-65887708D01*
X116327289Y-65833776D01*
X116327287Y-65833775D01*
X116319758Y-65828895D01*
X116311161Y-65826324D01*
X116311159Y-65826323D01*
X116225042Y-65800569D01*
X116180921Y-65787374D01*
X116171945Y-65787319D01*
X116171944Y-65787319D01*
X116109555Y-65786938D01*
X116036012Y-65786489D01*
X116027381Y-65788956D01*
X116027379Y-65788956D01*
X115905309Y-65823843D01*
X115905307Y-65823844D01*
X115896678Y-65826310D01*
X115889087Y-65831099D01*
X115889086Y-65831100D01*
X115805850Y-65883619D01*
X115774122Y-65903638D01*
X115678195Y-66012254D01*
X115616609Y-66143429D01*
X115615228Y-66152298D01*
X115596996Y-66269394D01*
X115594314Y-66286616D01*
X107726489Y-66286616D01*
X107721797Y-66253065D01*
X107733052Y-66216543D01*
X107735319Y-66211865D01*
X107786905Y-66105391D01*
X107805638Y-65994045D01*
X107810140Y-65967285D01*
X107810140Y-65967282D01*
X107810947Y-65962487D01*
X107811100Y-65950000D01*
X107809179Y-65936583D01*
X107791829Y-65815438D01*
X107791829Y-65815436D01*
X107790556Y-65806551D01*
X107784142Y-65792443D01*
X107776042Y-65774630D01*
X107730577Y-65674634D01*
X107635984Y-65564854D01*
X107603434Y-65543756D01*
X107521913Y-65490916D01*
X107521911Y-65490915D01*
X107514382Y-65486035D01*
X107505785Y-65483464D01*
X107505783Y-65483463D01*
X107421990Y-65458404D01*
X107375545Y-65444514D01*
X107366569Y-65444459D01*
X107366568Y-65444459D01*
X107304179Y-65444078D01*
X107230636Y-65443629D01*
X107222005Y-65446096D01*
X107222003Y-65446096D01*
X107099933Y-65480983D01*
X107099931Y-65480984D01*
X107091302Y-65483450D01*
X107083711Y-65488239D01*
X107083710Y-65488240D01*
X106978108Y-65554871D01*
X106968746Y-65560778D01*
X106872819Y-65669394D01*
X106811233Y-65800569D01*
X106809852Y-65809438D01*
X106793491Y-65914516D01*
X106788938Y-65943756D01*
X105325633Y-65943756D01*
X105326474Y-65943240D01*
X105334038Y-65934884D01*
X105417693Y-65842463D01*
X105417694Y-65842462D01*
X105423721Y-65835803D01*
X105428321Y-65826310D01*
X105482991Y-65713470D01*
X105482991Y-65713469D01*
X105486905Y-65705391D01*
X105500217Y-65626267D01*
X105510140Y-65567285D01*
X105510140Y-65567282D01*
X105510947Y-65562487D01*
X105511100Y-65550000D01*
X105502639Y-65490916D01*
X105491829Y-65415438D01*
X105491829Y-65415436D01*
X105490556Y-65406551D01*
X105486841Y-65398380D01*
X105434294Y-65282808D01*
X105434292Y-65282805D01*
X105430577Y-65274634D01*
X105424732Y-65267850D01*
X105404884Y-65199697D01*
X105424396Y-65136130D01*
X105423721Y-65135803D01*
X105431337Y-65120085D01*
X105482991Y-65013470D01*
X105482991Y-65013469D01*
X105486905Y-65005391D01*
X105500810Y-64922738D01*
X105531836Y-64858881D01*
X105586309Y-64825516D01*
X105586082Y-64824991D01*
X105589779Y-64823391D01*
X105591918Y-64822081D01*
X105594319Y-64821426D01*
X105594320Y-64821426D01*
X105602982Y-64819064D01*
X105643177Y-64794384D01*
X105718822Y-64747939D01*
X105718825Y-64747936D01*
X105726474Y-64743240D01*
X105823721Y-64635803D01*
X105886905Y-64505391D01*
X105906893Y-64386583D01*
X105910140Y-64367285D01*
X105910140Y-64367282D01*
X105910947Y-64362487D01*
X105911100Y-64350000D01*
X105900749Y-64277719D01*
X105891829Y-64215438D01*
X105891829Y-64215436D01*
X105890556Y-64206551D01*
X105884142Y-64192443D01*
X105863270Y-64146539D01*
X105830577Y-64074634D01*
X105816517Y-64058316D01*
X105787249Y-63993756D01*
X106988938Y-63993756D01*
X106990102Y-64002658D01*
X106990102Y-64002661D01*
X107006456Y-64127719D01*
X107007728Y-64137445D01*
X107031928Y-64192443D01*
X107056347Y-64247939D01*
X107066091Y-64270085D01*
X107159335Y-64381013D01*
X107166806Y-64385986D01*
X107166807Y-64385987D01*
X107272491Y-64456336D01*
X107272495Y-64456338D01*
X107279966Y-64461311D01*
X107418285Y-64504525D01*
X107427257Y-64504689D01*
X107427260Y-64504690D01*
X107493272Y-64505900D01*
X107563173Y-64507181D01*
X107633077Y-64488123D01*
X107694319Y-64471426D01*
X107694320Y-64471426D01*
X107702982Y-64469064D01*
X107710632Y-64464367D01*
X107710634Y-64464366D01*
X107818822Y-64397939D01*
X107818825Y-64397936D01*
X107826474Y-64393240D01*
X107835336Y-64383450D01*
X107917693Y-64292463D01*
X107917694Y-64292462D01*
X107923721Y-64285803D01*
X107928241Y-64276475D01*
X107982991Y-64163470D01*
X107982991Y-64163469D01*
X107986905Y-64155391D01*
X108010947Y-64012487D01*
X108011100Y-64000000D01*
X108010192Y-63993656D01*
X107991829Y-63865438D01*
X107991829Y-63865436D01*
X107990556Y-63856551D01*
X107984739Y-63843756D01*
X107954713Y-63777719D01*
X107930577Y-63724634D01*
X107835984Y-63614854D01*
X107791164Y-63585803D01*
X107721913Y-63540916D01*
X107721911Y-63540915D01*
X107714382Y-63536035D01*
X107705785Y-63533464D01*
X107705783Y-63533463D01*
X107611915Y-63505391D01*
X107575545Y-63494514D01*
X107566569Y-63494459D01*
X107566568Y-63494459D01*
X107504179Y-63494078D01*
X107430636Y-63493629D01*
X107422005Y-63496096D01*
X107422003Y-63496096D01*
X107299933Y-63530983D01*
X107299931Y-63530984D01*
X107291302Y-63533450D01*
X107283711Y-63538239D01*
X107283710Y-63538240D01*
X107178108Y-63604871D01*
X107168746Y-63610778D01*
X107072819Y-63719394D01*
X107011233Y-63850569D01*
X107009852Y-63859438D01*
X106992783Y-63969064D01*
X106988938Y-63993756D01*
X105787249Y-63993756D01*
X105787203Y-63993656D01*
X105797500Y-63923410D01*
X105812911Y-63900060D01*
X105812677Y-63899902D01*
X105817699Y-63892456D01*
X105823721Y-63885803D01*
X105876087Y-63777719D01*
X105882991Y-63763470D01*
X105882991Y-63763469D01*
X105886905Y-63755391D01*
X105908245Y-63628546D01*
X105910140Y-63617285D01*
X105910140Y-63617282D01*
X105910947Y-63612487D01*
X105911100Y-63600000D01*
X105907468Y-63574634D01*
X105891829Y-63465438D01*
X105891829Y-63465436D01*
X105890556Y-63456551D01*
X105885441Y-63445300D01*
X105876042Y-63424630D01*
X105830577Y-63324634D01*
X105803971Y-63293756D01*
X108238938Y-63293756D01*
X108240102Y-63302658D01*
X108240102Y-63302661D01*
X108251643Y-63390916D01*
X108257728Y-63437445D01*
X108316091Y-63570085D01*
X108409335Y-63681013D01*
X108416806Y-63685986D01*
X108416807Y-63685987D01*
X108522491Y-63756336D01*
X108522495Y-63756338D01*
X108529966Y-63761311D01*
X108668285Y-63804525D01*
X108677257Y-63804689D01*
X108677260Y-63804690D01*
X108743272Y-63805900D01*
X108813173Y-63807181D01*
X108891585Y-63785803D01*
X108944319Y-63771426D01*
X108944320Y-63771426D01*
X108952982Y-63769064D01*
X108960632Y-63764367D01*
X108960634Y-63764366D01*
X109068822Y-63697939D01*
X109068825Y-63697936D01*
X109076474Y-63693240D01*
X109087542Y-63681013D01*
X109167693Y-63592463D01*
X109167694Y-63592462D01*
X109173721Y-63585803D01*
X109179133Y-63574634D01*
X109207381Y-63516329D01*
X109255083Y-63463746D01*
X109323642Y-63445300D01*
X109373903Y-63457275D01*
X109379966Y-63461311D01*
X109388530Y-63463987D01*
X109388531Y-63463987D01*
X109494478Y-63497087D01*
X109518285Y-63504525D01*
X109527257Y-63504689D01*
X109527260Y-63504690D01*
X109593272Y-63505900D01*
X109663173Y-63507181D01*
X109690191Y-63499815D01*
X109695253Y-63498435D01*
X109766236Y-63499815D01*
X109843724Y-63569252D01*
X109866091Y-63620085D01*
X109959335Y-63731013D01*
X109966806Y-63735986D01*
X109966807Y-63735987D01*
X110072491Y-63806336D01*
X110072495Y-63806338D01*
X110079966Y-63811311D01*
X110104782Y-63819064D01*
X110205623Y-63850569D01*
X110218285Y-63854525D01*
X110227257Y-63854689D01*
X110227260Y-63854690D01*
X110293272Y-63855900D01*
X110363173Y-63857181D01*
X110444956Y-63834884D01*
X110494319Y-63821426D01*
X110494320Y-63821426D01*
X110502982Y-63819064D01*
X110510632Y-63814367D01*
X110510634Y-63814366D01*
X110618822Y-63747939D01*
X110618825Y-63747936D01*
X110626474Y-63743240D01*
X110637542Y-63731013D01*
X110681537Y-63682407D01*
X110742080Y-63645326D01*
X110813060Y-63646863D01*
X110871403Y-63685887D01*
X110909335Y-63731013D01*
X110916806Y-63735986D01*
X110916807Y-63735987D01*
X111022491Y-63806336D01*
X111022495Y-63806338D01*
X111029966Y-63811311D01*
X111054782Y-63819064D01*
X111155623Y-63850569D01*
X111168285Y-63854525D01*
X111177257Y-63854689D01*
X111177260Y-63854690D01*
X111243272Y-63855900D01*
X111313173Y-63857181D01*
X111394956Y-63834884D01*
X111444319Y-63821426D01*
X111444320Y-63821426D01*
X111452982Y-63819064D01*
X111460632Y-63814367D01*
X111460634Y-63814366D01*
X111568822Y-63747939D01*
X111568825Y-63747936D01*
X111576474Y-63743240D01*
X111587542Y-63731013D01*
X111667693Y-63642463D01*
X111667694Y-63642462D01*
X111673721Y-63635803D01*
X111681337Y-63620085D01*
X111732991Y-63513470D01*
X111732991Y-63513469D01*
X111736905Y-63505391D01*
X111760947Y-63362487D01*
X111761100Y-63350000D01*
X111760315Y-63344514D01*
X111760207Y-63343756D01*
X112788938Y-63343756D01*
X112790102Y-63352658D01*
X112790102Y-63352661D01*
X112805150Y-63467733D01*
X112807728Y-63487445D01*
X112866091Y-63620085D01*
X112959335Y-63731013D01*
X112966806Y-63735986D01*
X112966807Y-63735987D01*
X113072491Y-63806336D01*
X113072495Y-63806338D01*
X113079966Y-63811311D01*
X113104782Y-63819064D01*
X113205623Y-63850569D01*
X113218285Y-63854525D01*
X113227257Y-63854689D01*
X113227260Y-63854690D01*
X113293272Y-63855900D01*
X113363173Y-63857181D01*
X113444956Y-63834884D01*
X113494319Y-63821426D01*
X113494320Y-63821426D01*
X113502982Y-63819064D01*
X113510632Y-63814367D01*
X113510634Y-63814366D01*
X113618822Y-63747939D01*
X113618825Y-63747936D01*
X113626474Y-63743240D01*
X113637542Y-63731013D01*
X113717693Y-63642463D01*
X113717694Y-63642462D01*
X113723721Y-63635803D01*
X113731337Y-63620085D01*
X113782991Y-63513470D01*
X113782991Y-63513469D01*
X113786905Y-63505391D01*
X113788862Y-63493756D01*
X117288938Y-63493756D01*
X117290102Y-63502658D01*
X117290102Y-63502661D01*
X117306456Y-63627719D01*
X117307728Y-63637445D01*
X117342046Y-63715438D01*
X117356347Y-63747939D01*
X117366091Y-63770085D01*
X117459335Y-63881013D01*
X117466806Y-63885986D01*
X117466807Y-63885987D01*
X117572491Y-63956336D01*
X117572495Y-63956338D01*
X117579966Y-63961311D01*
X117604782Y-63969064D01*
X117683816Y-63993756D01*
X117718285Y-64004525D01*
X117727257Y-64004689D01*
X117727260Y-64004690D01*
X117793272Y-64005900D01*
X117863173Y-64007181D01*
X117933078Y-63988122D01*
X117994319Y-63971426D01*
X117994320Y-63971426D01*
X118002982Y-63969064D01*
X118010632Y-63964367D01*
X118010634Y-63964366D01*
X118118822Y-63897939D01*
X118118825Y-63897936D01*
X118126474Y-63893240D01*
X118137542Y-63881013D01*
X118171265Y-63843756D01*
X120238938Y-63843756D01*
X120240102Y-63852658D01*
X120240102Y-63852661D01*
X120256245Y-63976105D01*
X120257728Y-63987445D01*
X120316091Y-64120085D01*
X120409335Y-64231013D01*
X120416806Y-64235986D01*
X120416807Y-64235987D01*
X120522491Y-64306336D01*
X120522495Y-64306338D01*
X120529966Y-64311311D01*
X120554782Y-64319064D01*
X120633816Y-64343756D01*
X120668285Y-64354525D01*
X120677257Y-64354689D01*
X120677260Y-64354690D01*
X120743272Y-64355900D01*
X120813173Y-64357181D01*
X120883078Y-64338122D01*
X120944319Y-64321426D01*
X120944320Y-64321426D01*
X120952982Y-64319064D01*
X120960632Y-64314367D01*
X120960634Y-64314366D01*
X121068822Y-64247939D01*
X121068825Y-64247936D01*
X121076474Y-64243240D01*
X121087542Y-64231013D01*
X121167693Y-64142463D01*
X121167694Y-64142462D01*
X121173721Y-64135803D01*
X121181337Y-64120085D01*
X121232991Y-64013470D01*
X121232991Y-64013469D01*
X121236905Y-64005391D01*
X121256893Y-63886583D01*
X121260140Y-63867285D01*
X121260140Y-63867282D01*
X121260947Y-63862487D01*
X121261100Y-63850000D01*
X121254630Y-63804819D01*
X121241829Y-63715438D01*
X121241829Y-63715436D01*
X121240556Y-63706551D01*
X121234142Y-63692443D01*
X121217295Y-63655391D01*
X121180577Y-63574634D01*
X121085984Y-63464854D01*
X121072304Y-63455987D01*
X120971913Y-63390916D01*
X120971911Y-63390915D01*
X120964382Y-63386035D01*
X120955785Y-63383464D01*
X120955783Y-63383463D01*
X120865794Y-63356551D01*
X120825545Y-63344514D01*
X120816569Y-63344459D01*
X120816568Y-63344459D01*
X120754179Y-63344078D01*
X120680636Y-63343629D01*
X120672005Y-63346096D01*
X120672003Y-63346096D01*
X120549933Y-63380983D01*
X120549931Y-63380984D01*
X120541302Y-63383450D01*
X120418746Y-63460778D01*
X120412803Y-63467507D01*
X120411428Y-63469064D01*
X120322819Y-63569394D01*
X120261233Y-63700569D01*
X120259852Y-63709438D01*
X120242783Y-63819064D01*
X120238938Y-63843756D01*
X118171265Y-63843756D01*
X118217693Y-63792463D01*
X118217694Y-63792462D01*
X118223721Y-63785803D01*
X118231337Y-63770085D01*
X118282991Y-63663470D01*
X118282991Y-63663469D01*
X118286905Y-63655391D01*
X118310947Y-63512487D01*
X118311100Y-63500000D01*
X118310315Y-63494514D01*
X118291829Y-63365438D01*
X118291829Y-63365436D01*
X118290556Y-63356551D01*
X118285803Y-63346096D01*
X118234293Y-63232808D01*
X118230577Y-63224634D01*
X118135984Y-63114854D01*
X118107044Y-63096096D01*
X118021913Y-63040916D01*
X118021911Y-63040915D01*
X118014382Y-63036035D01*
X118005785Y-63033464D01*
X118005783Y-63033463D01*
X117921990Y-63008404D01*
X117875545Y-62994514D01*
X117866569Y-62994459D01*
X117866568Y-62994459D01*
X117804179Y-62994078D01*
X117730636Y-62993629D01*
X117722005Y-62996096D01*
X117722003Y-62996096D01*
X117599933Y-63030983D01*
X117599931Y-63030984D01*
X117591302Y-63033450D01*
X117583711Y-63038239D01*
X117583710Y-63038240D01*
X117476339Y-63105987D01*
X117468746Y-63110778D01*
X117372819Y-63219394D01*
X117369004Y-63227520D01*
X117325870Y-63319394D01*
X117311233Y-63350569D01*
X117309852Y-63359438D01*
X117292783Y-63469064D01*
X117288938Y-63493756D01*
X113788862Y-63493756D01*
X113810947Y-63362487D01*
X113811100Y-63350000D01*
X113810315Y-63344514D01*
X113791829Y-63215438D01*
X113791829Y-63215436D01*
X113790556Y-63206551D01*
X113784142Y-63192443D01*
X113769135Y-63159438D01*
X113730577Y-63074634D01*
X113635984Y-62964854D01*
X113545164Y-62905987D01*
X113521913Y-62890916D01*
X113521911Y-62890915D01*
X113514382Y-62886035D01*
X113505785Y-62883464D01*
X113505783Y-62883463D01*
X113409337Y-62854620D01*
X113375545Y-62844514D01*
X113366569Y-62844459D01*
X113366568Y-62844459D01*
X113304179Y-62844078D01*
X113230636Y-62843629D01*
X113222005Y-62846096D01*
X113222003Y-62846096D01*
X113099933Y-62880983D01*
X113099931Y-62880984D01*
X113091302Y-62883450D01*
X113083711Y-62888239D01*
X113083710Y-62888240D01*
X113017790Y-62929833D01*
X112968746Y-62960778D01*
X112872819Y-63069394D01*
X112811233Y-63200569D01*
X112809852Y-63209438D01*
X112790643Y-63332808D01*
X112788938Y-63343756D01*
X111760207Y-63343756D01*
X111741829Y-63215438D01*
X111741829Y-63215436D01*
X111740556Y-63206551D01*
X111734142Y-63192443D01*
X111719135Y-63159438D01*
X111680577Y-63074634D01*
X111585984Y-62964854D01*
X111495164Y-62905987D01*
X111471913Y-62890916D01*
X111471911Y-62890915D01*
X111464382Y-62886035D01*
X111455785Y-62883464D01*
X111455783Y-62883463D01*
X111359337Y-62854620D01*
X111325545Y-62844514D01*
X111316569Y-62844459D01*
X111316568Y-62844459D01*
X111254179Y-62844078D01*
X111180636Y-62843629D01*
X111172005Y-62846096D01*
X111172003Y-62846096D01*
X111049933Y-62880983D01*
X111049931Y-62880984D01*
X111041302Y-62883450D01*
X111033711Y-62888239D01*
X111033710Y-62888240D01*
X110919269Y-62960448D01*
X110850984Y-62979883D01*
X110783032Y-62959314D01*
X110736988Y-62905273D01*
X110727779Y-62832983D01*
X110743315Y-62740637D01*
X110743315Y-62740634D01*
X110744122Y-62735839D01*
X110744275Y-62723352D01*
X110729117Y-62617507D01*
X110725004Y-62588790D01*
X110725004Y-62588788D01*
X110723731Y-62579903D01*
X110663752Y-62447986D01*
X110569159Y-62338206D01*
X110517650Y-62304819D01*
X110455088Y-62264268D01*
X110455086Y-62264267D01*
X110447557Y-62259387D01*
X110438960Y-62256816D01*
X110438958Y-62256815D01*
X110355165Y-62231756D01*
X110308720Y-62217866D01*
X110299744Y-62217811D01*
X110299743Y-62217811D01*
X110237354Y-62217430D01*
X110163811Y-62216981D01*
X110155180Y-62219448D01*
X110155178Y-62219448D01*
X110033108Y-62254335D01*
X110033106Y-62254336D01*
X110024477Y-62256802D01*
X110016886Y-62261591D01*
X110016885Y-62261592D01*
X109944632Y-62307181D01*
X109901921Y-62334130D01*
X109895978Y-62340859D01*
X109811939Y-62436014D01*
X109811937Y-62436016D01*
X109805994Y-62442746D01*
X109805357Y-62444103D01*
X109754110Y-62487622D01*
X109684285Y-62497107D01*
X109684146Y-62497086D01*
X109675545Y-62494514D01*
X109666573Y-62494459D01*
X109666572Y-62494459D01*
X109600035Y-62494053D01*
X109530636Y-62493629D01*
X109522005Y-62496096D01*
X109522003Y-62496096D01*
X109399933Y-62530983D01*
X109399931Y-62530984D01*
X109391302Y-62533450D01*
X109268746Y-62610778D01*
X109172819Y-62719394D01*
X109169005Y-62727518D01*
X109143343Y-62782176D01*
X109096286Y-62835338D01*
X109027958Y-62854620D01*
X108976438Y-62843007D01*
X108971913Y-62840916D01*
X108964382Y-62836035D01*
X108825545Y-62794514D01*
X108816569Y-62794459D01*
X108816568Y-62794459D01*
X108754179Y-62794078D01*
X108680636Y-62793629D01*
X108672005Y-62796096D01*
X108672003Y-62796096D01*
X108549933Y-62830983D01*
X108549931Y-62830984D01*
X108541302Y-62833450D01*
X108533711Y-62838239D01*
X108533710Y-62838240D01*
X108462037Y-62883463D01*
X108418746Y-62910778D01*
X108322819Y-63019394D01*
X108319004Y-63027520D01*
X108270429Y-63130983D01*
X108261233Y-63150569D01*
X108259852Y-63159438D01*
X108249701Y-63224634D01*
X108238938Y-63293756D01*
X105803971Y-63293756D01*
X105735984Y-63214854D01*
X105669534Y-63171783D01*
X105621913Y-63140916D01*
X105621911Y-63140915D01*
X105614382Y-63136035D01*
X105605785Y-63133464D01*
X105605783Y-63133463D01*
X105513908Y-63105987D01*
X105475545Y-63094514D01*
X105466569Y-63094459D01*
X105466568Y-63094459D01*
X105404179Y-63094078D01*
X105330636Y-63093629D01*
X105322005Y-63096096D01*
X105322003Y-63096096D01*
X105199933Y-63130983D01*
X105199931Y-63130984D01*
X105191302Y-63133450D01*
X105183711Y-63138239D01*
X105183710Y-63138240D01*
X105097805Y-63192443D01*
X105068746Y-63210778D01*
X105062803Y-63217507D01*
X105059139Y-63221656D01*
X104972819Y-63319394D01*
X104911233Y-63450569D01*
X104909852Y-63459438D01*
X104890643Y-63582808D01*
X104888938Y-63593756D01*
X104890102Y-63602658D01*
X104890102Y-63602661D01*
X104906430Y-63727520D01*
X104907728Y-63737445D01*
X104919408Y-63763989D01*
X104960341Y-63857016D01*
X104966091Y-63870085D01*
X104985352Y-63892998D01*
X105013872Y-63958011D01*
X104983342Y-64057479D01*
X104972819Y-64069394D01*
X104911233Y-64200569D01*
X104909852Y-64209436D01*
X104909852Y-64209437D01*
X104899414Y-64276475D01*
X104869169Y-64340707D01*
X104809539Y-64378238D01*
X104791302Y-64383450D01*
X104783711Y-64388239D01*
X104783710Y-64388240D01*
X104676339Y-64455987D01*
X104668746Y-64460778D01*
X104572819Y-64569394D01*
X104511233Y-64700569D01*
X104509852Y-64709438D01*
X104491860Y-64824991D01*
X104488938Y-64843756D01*
X103154000Y-64843756D01*
X103154000Y-58713823D01*
X103156814Y-58687344D01*
X103157282Y-58685169D01*
X103157283Y-58685162D01*
X103158582Y-58679118D01*
X103160561Y-58550569D01*
X103161252Y-58505683D01*
X103162156Y-58492435D01*
X103197545Y-58200980D01*
X103200287Y-58186014D01*
X103269845Y-57903809D01*
X103274372Y-57889283D01*
X103316971Y-57776959D01*
X103377434Y-57617531D01*
X103383678Y-57603659D01*
X103389147Y-57593240D01*
X103518742Y-57346317D01*
X103526611Y-57333298D01*
X103526613Y-57333296D01*
X103691719Y-57094100D01*
X103701103Y-57082123D01*
X103893832Y-56864578D01*
X103904591Y-56853820D01*
X104122134Y-56661094D01*
X104134107Y-56651713D01*
X104373299Y-56486611D01*
X104386317Y-56478741D01*
X104643667Y-56343674D01*
X104657542Y-56337430D01*
X104929288Y-56234370D01*
X104943814Y-56229843D01*
X105226015Y-56160287D01*
X105240981Y-56157545D01*
X105532436Y-56122156D01*
X105545684Y-56121252D01*
X105642186Y-56119766D01*
X105719118Y-56118582D01*
X105725162Y-56117283D01*
X105725169Y-56117282D01*
X105727344Y-56116814D01*
X105753823Y-56114000D01*
X105775741Y-56114000D01*
X105843862Y-56134002D01*
G37*
%TD.AperFunction*%
%TD*%
M02*
