%TF.GenerationSoftware,KiCad,Pcbnew,(5.99.0-6542-g16b0689841)*%
%TF.CreationDate,2021-01-03T15:15:32-08:00*%
%TF.ProjectId,SX1303,53583133-3033-42e6-9b69-6361645f7063,rev?*%
%TF.SameCoordinates,Original*%
%TF.FileFunction,Soldermask,Top*%
%TF.FilePolarity,Negative*%
%FSLAX46Y46*%
G04 Gerber Fmt 4.6, Leading zero omitted, Abs format (unit mm)*
G04 Created by KiCad (PCBNEW (5.99.0-6542-g16b0689841)) date 2021-01-03 15:15:32*
%MOMM*%
%LPD*%
G01*
G04 APERTURE LIST*
G04 Aperture macros list*
%AMRoundRect*
0 Rectangle with rounded corners*
0 $1 Rounding radius*
0 $2 $3 $4 $5 $6 $7 $8 $9 X,Y pos of 4 corners*
0 Add a 4 corners polygon primitive as box body*
4,1,4,$2,$3,$4,$5,$6,$7,$8,$9,$2,$3,0*
0 Add four circle primitives for the rounded corners*
1,1,$1+$1,$2,$3,0*
1,1,$1+$1,$4,$5,0*
1,1,$1+$1,$6,$7,0*
1,1,$1+$1,$8,$9,0*
0 Add four rect primitives between the rounded corners*
20,1,$1+$1,$2,$3,$4,$5,0*
20,1,$1+$1,$4,$5,$6,$7,0*
20,1,$1+$1,$6,$7,$8,$9,0*
20,1,$1+$1,$8,$9,$2,$3,0*%
G04 Aperture macros list end*
%ADD10RoundRect,0.140000X-0.140000X-0.170000X0.140000X-0.170000X0.140000X0.170000X-0.140000X0.170000X0*%
%ADD11R,0.736600X0.177800*%
%ADD12R,0.762000X0.177800*%
%ADD13R,0.177800X0.736600*%
%ADD14R,0.177800X0.762000*%
%ADD15R,5.613400X5.613400*%
%ADD16RoundRect,0.218750X0.256250X-0.218750X0.256250X0.218750X-0.256250X0.218750X-0.256250X-0.218750X0*%
%ADD17RoundRect,0.140000X0.140000X0.170000X-0.140000X0.170000X-0.140000X-0.170000X0.140000X-0.170000X0*%
%ADD18RoundRect,0.100000X0.100000X-0.130000X0.100000X0.130000X-0.100000X0.130000X-0.100000X-0.130000X0*%
%ADD19RoundRect,0.218750X-0.381250X0.218750X-0.381250X-0.218750X0.381250X-0.218750X0.381250X0.218750X0*%
%ADD20R,0.400000X0.300000*%
%ADD21R,0.300000X0.400000*%
%ADD22R,0.500000X0.500000*%
%ADD23RoundRect,0.100000X0.130000X0.100000X-0.130000X0.100000X-0.130000X-0.100000X0.130000X-0.100000X0*%
%ADD24RoundRect,0.135000X0.185000X-0.135000X0.185000X0.135000X-0.185000X0.135000X-0.185000X-0.135000X0*%
%ADD25RoundRect,0.100000X-0.162635X0.021213X0.021213X-0.162635X0.162635X-0.021213X-0.021213X0.162635X0*%
%ADD26RoundRect,0.100000X0.021213X0.162635X-0.162635X-0.021213X-0.021213X-0.162635X0.162635X0.021213X0*%
%ADD27RoundRect,0.100000X-0.100000X0.130000X-0.100000X-0.130000X0.100000X-0.130000X0.100000X0.130000X0*%
%ADD28R,0.180000X0.250000*%
%ADD29RoundRect,0.135000X-0.185000X0.135000X-0.185000X-0.135000X0.185000X-0.135000X0.185000X0.135000X0*%
%ADD30RoundRect,0.100000X-0.130000X-0.100000X0.130000X-0.100000X0.130000X0.100000X-0.130000X0.100000X0*%
%ADD31RoundRect,0.140000X0.170000X-0.140000X0.170000X0.140000X-0.170000X0.140000X-0.170000X-0.140000X0*%
%ADD32R,3.600000X1.270000*%
%ADD33R,4.200000X1.350000*%
%ADD34R,0.340000X0.700000*%
%ADD35RoundRect,0.062500X-0.062500X0.375000X-0.062500X-0.375000X0.062500X-0.375000X0.062500X0.375000X0*%
%ADD36RoundRect,0.062500X-0.375000X0.062500X-0.375000X-0.062500X0.375000X-0.062500X0.375000X0.062500X0*%
%ADD37R,2.500000X2.500000*%
%ADD38RoundRect,0.250000X-0.850000X0.375000X-0.850000X-0.375000X0.850000X-0.375000X0.850000X0.375000X0*%
%ADD39R,1.600000X1.600000*%
%ADD40C,1.600000*%
%ADD41RoundRect,0.062500X-0.350000X-0.062500X0.350000X-0.062500X0.350000X0.062500X-0.350000X0.062500X0*%
%ADD42R,1.200000X2.000000*%
%ADD43R,0.600000X0.450000*%
%ADD44RoundRect,0.100000X0.162635X-0.021213X-0.021213X0.162635X-0.162635X0.021213X0.021213X-0.162635X0*%
%ADD45R,1.050000X1.000000*%
%ADD46R,2.200000X1.050000*%
%ADD47R,0.850000X0.650000*%
%ADD48RoundRect,0.225000X-0.225000X-0.250000X0.225000X-0.250000X0.225000X0.250000X-0.225000X0.250000X0*%
%ADD49RoundRect,0.140000X-0.170000X0.140000X-0.170000X-0.140000X0.170000X-0.140000X0.170000X0.140000X0*%
%ADD50RoundRect,0.062500X-0.325000X-0.062500X0.325000X-0.062500X0.325000X0.062500X-0.325000X0.062500X0*%
%ADD51RoundRect,0.062500X-0.062500X-0.325000X0.062500X-0.325000X0.062500X0.325000X-0.062500X0.325000X0*%
%ADD52R,1.750000X1.750000*%
%ADD53RoundRect,0.135000X-0.135000X-0.185000X0.135000X-0.185000X0.135000X0.185000X-0.135000X0.185000X0*%
G04 APERTURE END LIST*
D10*
%TO.C,C42*%
X138080000Y-59440000D03*
X137120000Y-59440000D03*
%TD*%
D11*
%TO.C,U1*%
X108358300Y-64800001D03*
D12*
X108371000Y-65150000D03*
X108371000Y-65499999D03*
X108371000Y-65849998D03*
X108371000Y-66200000D03*
X108371000Y-66550000D03*
X108371000Y-66899999D03*
X108371000Y-67250001D03*
X108371000Y-67600000D03*
X108371000Y-67949999D03*
X108371000Y-68300001D03*
X108371000Y-68650000D03*
X108371000Y-69000000D03*
X108371000Y-69349999D03*
X108371000Y-69700001D03*
X108371000Y-70050000D03*
D11*
X108358300Y-70399999D03*
D13*
X109000001Y-71041700D03*
D14*
X109350000Y-71029000D03*
X109699999Y-71029000D03*
X110049998Y-71029000D03*
X110400000Y-71029000D03*
X110750000Y-71029000D03*
X111099999Y-71029000D03*
X111450001Y-71029000D03*
X111800000Y-71029000D03*
X112149999Y-71029000D03*
X112500001Y-71029000D03*
X112850000Y-71029000D03*
X113200000Y-71029000D03*
X113549999Y-71029000D03*
X113900001Y-71029000D03*
X114250000Y-71029000D03*
D13*
X114599999Y-71041700D03*
D11*
X115241700Y-70399999D03*
D12*
X115229000Y-70050000D03*
X115229000Y-69700001D03*
X115229000Y-69350002D03*
X115229000Y-69000000D03*
X115229000Y-68650000D03*
X115229000Y-68300001D03*
X115229000Y-67949999D03*
X115229000Y-67600000D03*
X115229000Y-67250001D03*
X115229000Y-66899999D03*
X115229000Y-66550000D03*
X115229000Y-66200000D03*
X115229000Y-65850001D03*
X115229000Y-65499999D03*
X115229000Y-65150000D03*
D11*
X115241700Y-64800001D03*
D13*
X114599999Y-64158300D03*
D14*
X114250000Y-64171000D03*
X113900001Y-64171000D03*
X113550002Y-64171000D03*
X113200000Y-64171000D03*
X112850000Y-64171000D03*
X112500001Y-64171000D03*
X112149999Y-64171000D03*
X111800000Y-64171000D03*
X111450001Y-64171000D03*
X111099999Y-64171000D03*
X110750000Y-64171000D03*
X110400000Y-64171000D03*
X110050001Y-64171000D03*
X109699999Y-64171000D03*
X109350000Y-64171000D03*
D13*
X109000001Y-64158300D03*
D15*
X111800000Y-67600000D03*
%TD*%
D10*
%TO.C,C35*%
X149570000Y-58200000D03*
X150530000Y-58200000D03*
%TD*%
D16*
%TO.C,D1*%
X104300000Y-77487500D03*
X104300000Y-75912500D03*
%TD*%
D17*
%TO.C,C2*%
X120030000Y-63900000D03*
X119070000Y-63900000D03*
%TD*%
D18*
%TO.C,L5*%
X127500000Y-64420000D03*
X127500000Y-63780000D03*
%TD*%
D19*
%TO.C,L1*%
X119900000Y-60637500D03*
X119900000Y-62762500D03*
%TD*%
D20*
%TO.C,U8*%
X145950000Y-75700000D03*
X145950000Y-75050000D03*
X145950000Y-74400000D03*
X145950000Y-73750000D03*
X145950000Y-73100000D03*
X145950000Y-72450000D03*
X145950000Y-71800000D03*
X145950000Y-71150000D03*
X145950000Y-70500000D03*
D21*
X145400000Y-69950000D03*
X144750000Y-69950000D03*
X144100000Y-69950000D03*
X143450000Y-69950000D03*
X142800000Y-69950000D03*
X142150000Y-69950000D03*
X141500000Y-69950000D03*
X140850000Y-69950000D03*
X140200000Y-69950000D03*
D20*
X139650000Y-70500000D03*
X139650000Y-71150000D03*
X139650000Y-71800000D03*
X139650000Y-72450000D03*
X139650000Y-73100000D03*
X139650000Y-73750000D03*
X139650000Y-74400000D03*
X139650000Y-75050000D03*
X139650000Y-75700000D03*
D21*
X140200000Y-76250000D03*
X140850000Y-76250000D03*
X141500000Y-76250000D03*
X142150000Y-76250000D03*
X142800000Y-76250000D03*
X143450000Y-76250000D03*
X144100000Y-76250000D03*
X144750000Y-76250000D03*
X145400000Y-76250000D03*
D22*
X144100000Y-74400000D03*
X142800000Y-74400000D03*
X144100000Y-73100000D03*
X142800000Y-73100000D03*
X144100000Y-71800000D03*
X142800000Y-71800000D03*
X141500000Y-71800000D03*
%TD*%
D23*
%TO.C,C16*%
X129020000Y-71350000D03*
X128380000Y-71350000D03*
%TD*%
D24*
%TO.C,R4*%
X147600000Y-61760000D03*
X147600000Y-60740000D03*
%TD*%
D25*
%TO.C,L15*%
X135073726Y-61673726D03*
X135526274Y-62126274D03*
%TD*%
D26*
%TO.C,C50*%
X136026274Y-66173726D03*
X135573726Y-66626274D03*
%TD*%
D27*
%TO.C,C53*%
X113800000Y-72580000D03*
X113800000Y-73220000D03*
%TD*%
D23*
%TO.C,R10*%
X106800000Y-64450000D03*
X106160000Y-64450000D03*
%TD*%
D27*
%TO.C,C28*%
X111500000Y-72580000D03*
X111500000Y-73220000D03*
%TD*%
D28*
%TO.C,FL2*%
X134085000Y-67100000D03*
X133700000Y-66850000D03*
X133315000Y-66850000D03*
X133315000Y-67350000D03*
X133700000Y-67350000D03*
%TD*%
D10*
%TO.C,C3*%
X124140000Y-69085000D03*
X125100000Y-69085000D03*
%TD*%
D24*
%TO.C,R12*%
X105000000Y-74710000D03*
X105000000Y-73690000D03*
%TD*%
D29*
%TO.C,R5*%
X111800000Y-57790000D03*
X111800000Y-58810000D03*
%TD*%
D10*
%TO.C,C30*%
X107020000Y-56800000D03*
X107980000Y-56800000D03*
%TD*%
D23*
%TO.C,C12*%
X129520000Y-62400000D03*
X128880000Y-62400000D03*
%TD*%
%TO.C,C39*%
X145010000Y-65350000D03*
X144370000Y-65350000D03*
%TD*%
D17*
%TO.C,C65*%
X138680000Y-70800000D03*
X137720000Y-70800000D03*
%TD*%
D30*
%TO.C,C40*%
X137280000Y-60240000D03*
X137920000Y-60240000D03*
%TD*%
D31*
%TO.C,C5*%
X121300000Y-60660000D03*
X121300000Y-59700000D03*
%TD*%
D23*
%TO.C,C46*%
X140470000Y-61100000D03*
X139830000Y-61100000D03*
%TD*%
D32*
%TO.C,J1*%
X151400000Y-66000000D03*
D33*
X151200000Y-68825000D03*
X151200000Y-63175000D03*
%TD*%
D30*
%TO.C,L4*%
X127480000Y-61700000D03*
X128120000Y-61700000D03*
%TD*%
D23*
%TO.C,C55*%
X106800000Y-69100000D03*
X106160000Y-69100000D03*
%TD*%
D34*
%TO.C,U6*%
X108400000Y-57950000D03*
X107900000Y-57950000D03*
X107400000Y-57950000D03*
X107400000Y-59450000D03*
X107900000Y-59450000D03*
X108400000Y-59450000D03*
%TD*%
D30*
%TO.C,R8*%
X106160000Y-63750000D03*
X106800000Y-63750000D03*
%TD*%
D35*
%TO.C,U3*%
X124650000Y-70247500D03*
X124150000Y-70247500D03*
X123650000Y-70247500D03*
X123150000Y-70247500D03*
X122650000Y-70247500D03*
X122150000Y-70247500D03*
D36*
X121462500Y-70935000D03*
X121462500Y-71435000D03*
X121462500Y-71935000D03*
X121462500Y-72435000D03*
X121462500Y-72935000D03*
X121462500Y-73435000D03*
D35*
X122150000Y-74122500D03*
X122650000Y-74122500D03*
X123150000Y-74122500D03*
X123650000Y-74122500D03*
X124150000Y-74122500D03*
X124650000Y-74122500D03*
D36*
X125337500Y-73435000D03*
X125337500Y-72935000D03*
X125337500Y-72435000D03*
X125337500Y-71935000D03*
X125337500Y-71435000D03*
X125337500Y-70935000D03*
D37*
X123400000Y-72185000D03*
%TD*%
D38*
%TO.C,L17*%
X105400000Y-58525000D03*
X105400000Y-60675000D03*
%TD*%
D31*
%TO.C,C6*%
X121250000Y-68980000D03*
X121250000Y-68020000D03*
%TD*%
D23*
%TO.C,C47*%
X142970000Y-62550000D03*
X142330000Y-62550000D03*
%TD*%
%TO.C,C44*%
X142970000Y-63400000D03*
X142330000Y-63400000D03*
%TD*%
D18*
%TO.C,C37*%
X143450000Y-66670000D03*
X143450000Y-66030000D03*
%TD*%
%TO.C,L12*%
X139800000Y-62560000D03*
X139800000Y-61920000D03*
%TD*%
D28*
%TO.C,FL1*%
X132535000Y-61700000D03*
X132920000Y-61950000D03*
X133305000Y-61950000D03*
X133305000Y-61450000D03*
X132920000Y-61450000D03*
%TD*%
D27*
%TO.C,C56*%
X110750000Y-72580000D03*
X110750000Y-73220000D03*
%TD*%
D10*
%TO.C,C7*%
X126740000Y-59700000D03*
X127700000Y-59700000D03*
%TD*%
D27*
%TO.C,C19*%
X129900000Y-71380000D03*
X129900000Y-72020000D03*
%TD*%
D18*
%TO.C,C21*%
X111250000Y-62920000D03*
X111250000Y-62280000D03*
%TD*%
D30*
%TO.C,C61*%
X147680000Y-73100000D03*
X148320000Y-73100000D03*
%TD*%
%TO.C,C38*%
X137280000Y-61040000D03*
X137920000Y-61040000D03*
%TD*%
D18*
%TO.C,L11*%
X138800000Y-60260000D03*
X138800000Y-59620000D03*
%TD*%
D30*
%TO.C,C51*%
X134880000Y-63100000D03*
X135520000Y-63100000D03*
%TD*%
D18*
%TO.C,C41*%
X145850000Y-66670000D03*
X145850000Y-66030000D03*
%TD*%
D24*
%TO.C,R6*%
X109600000Y-58810000D03*
X109600000Y-57790000D03*
%TD*%
D39*
%TO.C,A1*%
X109500000Y-77700000D03*
D40*
X112040000Y-77700000D03*
X114580000Y-77700000D03*
X117120000Y-77700000D03*
X119660000Y-77700000D03*
X122200000Y-77700000D03*
X124740000Y-77700000D03*
X127280000Y-77700000D03*
X129820000Y-77700000D03*
X132360000Y-77700000D03*
X134900000Y-77700000D03*
X137440000Y-77700000D03*
X139980000Y-77700000D03*
X142520000Y-77700000D03*
X145060000Y-77700000D03*
X147600000Y-77700000D03*
X147600000Y-57380000D03*
X145060000Y-57380000D03*
X142520000Y-57380000D03*
X139980000Y-57380000D03*
X137440000Y-57380000D03*
X134900000Y-57380000D03*
X132360000Y-57380000D03*
X129820000Y-57380000D03*
X127280000Y-57380000D03*
X124740000Y-57380000D03*
X122200000Y-57380000D03*
X119660000Y-57380000D03*
%TD*%
D24*
%TO.C,R3*%
X145600000Y-61760000D03*
X145600000Y-60740000D03*
%TD*%
D31*
%TO.C,C29*%
X153000000Y-59330000D03*
X153000000Y-58370000D03*
%TD*%
D23*
%TO.C,C57*%
X133920000Y-72200000D03*
X133280000Y-72200000D03*
%TD*%
D41*
%TO.C,U4*%
X149237500Y-59200000D03*
X149237500Y-59700000D03*
X149237500Y-60200000D03*
X149237500Y-60700000D03*
X149237500Y-61200000D03*
X151662500Y-61200000D03*
X151662500Y-60700000D03*
X151662500Y-60200000D03*
X151662500Y-59700000D03*
X151662500Y-59200000D03*
D42*
X150450000Y-60200000D03*
%TD*%
D43*
%TO.C,D4*%
X114350000Y-57000000D03*
X116450000Y-57000000D03*
%TD*%
D27*
%TO.C,C18*%
X129900000Y-63780000D03*
X129900000Y-64420000D03*
%TD*%
D30*
%TO.C,C11*%
X127480000Y-62400000D03*
X128120000Y-62400000D03*
%TD*%
D27*
%TO.C,C48*%
X141550000Y-64380000D03*
X141550000Y-65020000D03*
%TD*%
D44*
%TO.C,C52*%
X136026274Y-64526274D03*
X135573726Y-64073726D03*
%TD*%
D27*
%TO.C,C63*%
X153100000Y-60230000D03*
X153100000Y-60870000D03*
%TD*%
D23*
%TO.C,C25*%
X106800000Y-66300000D03*
X106160000Y-66300000D03*
%TD*%
D18*
%TO.C,C49*%
X134100000Y-62120000D03*
X134100000Y-61480000D03*
%TD*%
D23*
%TO.C,R1*%
X123520000Y-59300000D03*
X122880000Y-59300000D03*
%TD*%
D24*
%TO.C,R13*%
X106000000Y-74710000D03*
X106000000Y-73690000D03*
%TD*%
D18*
%TO.C,C13*%
X127500000Y-65920000D03*
X127500000Y-65280000D03*
%TD*%
D45*
%TO.C,J2*%
X150200000Y-74500000D03*
D46*
X151725000Y-73025000D03*
X151725000Y-75975000D03*
%TD*%
D30*
%TO.C,R14*%
X133280000Y-71500000D03*
X133920000Y-71500000D03*
%TD*%
%TO.C,L7*%
X130280000Y-61700000D03*
X130920000Y-61700000D03*
%TD*%
D28*
%TO.C,FL3*%
X139900000Y-68500000D03*
X139515000Y-68250000D03*
X139130000Y-68250000D03*
X139130000Y-68750000D03*
X139515000Y-68750000D03*
%TD*%
D30*
%TO.C,R15*%
X133280000Y-74500000D03*
X133920000Y-74500000D03*
%TD*%
D23*
%TO.C,C43*%
X140470000Y-60300000D03*
X139830000Y-60300000D03*
%TD*%
D16*
%TO.C,D3*%
X107300000Y-77487500D03*
X107300000Y-75912500D03*
%TD*%
D18*
%TO.C,C45*%
X148250000Y-66670000D03*
X148250000Y-66030000D03*
%TD*%
D16*
%TO.C,D2*%
X105800000Y-77487500D03*
X105800000Y-75912500D03*
%TD*%
D23*
%TO.C,C62*%
X117250000Y-59050000D03*
X116610000Y-59050000D03*
%TD*%
D18*
%TO.C,L6*%
X127500000Y-72005000D03*
X127500000Y-71365000D03*
%TD*%
D35*
%TO.C,U2*%
X124650000Y-61837500D03*
X124150000Y-61837500D03*
X123650000Y-61837500D03*
X123150000Y-61837500D03*
X122650000Y-61837500D03*
X122150000Y-61837500D03*
D36*
X121462500Y-62525000D03*
X121462500Y-63025000D03*
X121462500Y-63525000D03*
X121462500Y-64025000D03*
X121462500Y-64525000D03*
X121462500Y-65025000D03*
D35*
X122150000Y-65712500D03*
X122650000Y-65712500D03*
X123150000Y-65712500D03*
X123650000Y-65712500D03*
X124150000Y-65712500D03*
X124650000Y-65712500D03*
D36*
X125337500Y-65025000D03*
X125337500Y-64525000D03*
X125337500Y-64025000D03*
X125337500Y-63525000D03*
X125337500Y-63025000D03*
X125337500Y-62525000D03*
D37*
X123400000Y-63775000D03*
%TD*%
D18*
%TO.C,C26*%
X113300000Y-62920000D03*
X113300000Y-62280000D03*
%TD*%
%TO.C,C20*%
X131700000Y-62370000D03*
X131700000Y-61730000D03*
%TD*%
D30*
%TO.C,C22*%
X116669273Y-66300000D03*
X117309273Y-66300000D03*
%TD*%
D31*
%TO.C,C32*%
X110700000Y-58780000D03*
X110700000Y-57820000D03*
%TD*%
%TO.C,C1*%
X124400000Y-60700000D03*
X124400000Y-59740000D03*
%TD*%
D17*
%TO.C,C4*%
X120000000Y-72200000D03*
X119040000Y-72200000D03*
%TD*%
D18*
%TO.C,C8*%
X123500000Y-60720000D03*
X123500000Y-60080000D03*
%TD*%
D47*
%TO.C,U5*%
X115675000Y-60225000D03*
X115675000Y-61875000D03*
X117225000Y-61875000D03*
X117225000Y-60225000D03*
%TD*%
D30*
%TO.C,R16*%
X133280000Y-73000000D03*
X133920000Y-73000000D03*
%TD*%
D24*
%TO.C,R11*%
X104000000Y-74710000D03*
X104000000Y-73690000D03*
%TD*%
D19*
%TO.C,L2*%
X119900000Y-68937500D03*
X119900000Y-71062500D03*
%TD*%
D23*
%TO.C,C14*%
X129020000Y-72000000D03*
X128380000Y-72000000D03*
%TD*%
D27*
%TO.C,L3*%
X126700000Y-61730000D03*
X126700000Y-62370000D03*
%TD*%
D30*
%TO.C,R9*%
X106160000Y-68000000D03*
X106800000Y-68000000D03*
%TD*%
D48*
%TO.C,C34*%
X107425000Y-60800000D03*
X108975000Y-60800000D03*
%TD*%
D23*
%TO.C,C17*%
X129520000Y-61700000D03*
X128880000Y-61700000D03*
%TD*%
D18*
%TO.C,L8*%
X138000000Y-62560000D03*
X138000000Y-61920000D03*
%TD*%
D10*
%TO.C,C33*%
X149570000Y-57250000D03*
X150530000Y-57250000D03*
%TD*%
D23*
%TO.C,C23*%
X106800000Y-69800000D03*
X106160000Y-69800000D03*
%TD*%
%TO.C,R2*%
X123220000Y-67700000D03*
X122580000Y-67700000D03*
%TD*%
%TO.C,C54*%
X106800000Y-65600000D03*
X106160000Y-65600000D03*
%TD*%
D49*
%TO.C,C31*%
X146600000Y-60770000D03*
X146600000Y-61730000D03*
%TD*%
D27*
%TO.C,C24*%
X112999998Y-72580000D03*
X112999998Y-73220000D03*
%TD*%
D18*
%TO.C,C9*%
X123300000Y-69120000D03*
X123300000Y-68480000D03*
%TD*%
D23*
%TO.C,R7*%
X106800000Y-67000000D03*
X106160000Y-67000000D03*
%TD*%
D50*
%TO.C,U7*%
X137577500Y-64550000D03*
X137577500Y-65050000D03*
X137577500Y-65550000D03*
X137577500Y-66050000D03*
D51*
X138290000Y-66762500D03*
X138790000Y-66762500D03*
X139290000Y-66762500D03*
X139790000Y-66762500D03*
D50*
X140502500Y-66050000D03*
X140502500Y-65550000D03*
X140502500Y-65050000D03*
X140502500Y-64550000D03*
D51*
X139790000Y-63837500D03*
X139290000Y-63837500D03*
X138790000Y-63837500D03*
X138290000Y-63837500D03*
D52*
X139040000Y-65300000D03*
%TD*%
D30*
%TO.C,L10*%
X140730000Y-62550000D03*
X141370000Y-62550000D03*
%TD*%
D27*
%TO.C,L14*%
X142300000Y-64380000D03*
X142300000Y-65020000D03*
%TD*%
D26*
%TO.C,C60*%
X147626274Y-75173726D03*
X147173726Y-75626274D03*
%TD*%
D30*
%TO.C,L13*%
X146730000Y-66050000D03*
X147370000Y-66050000D03*
%TD*%
D23*
%TO.C,C58*%
X133920000Y-75200000D03*
X133280000Y-75200000D03*
%TD*%
D30*
%TO.C,L9*%
X144370000Y-66050000D03*
X145010000Y-66050000D03*
%TD*%
D23*
%TO.C,C15*%
X129020000Y-63750000D03*
X128380000Y-63750000D03*
%TD*%
D27*
%TO.C,L16*%
X148300000Y-73880000D03*
X148300000Y-74520000D03*
%TD*%
D23*
%TO.C,C59*%
X133920000Y-73700000D03*
X133280000Y-73700000D03*
%TD*%
D53*
%TO.C,R17*%
X147290000Y-72200000D03*
X148310000Y-72200000D03*
%TD*%
D30*
%TO.C,C27*%
X116680000Y-68650000D03*
X117320000Y-68650000D03*
%TD*%
D17*
%TO.C,C64*%
X138680000Y-71900000D03*
X137720000Y-71900000D03*
%TD*%
D10*
%TO.C,C10*%
X126740000Y-60700000D03*
X127700000Y-60700000D03*
%TD*%
M02*
