%TF.GenerationSoftware,KiCad,Pcbnew,(5.99.0-6542-g16b0689841)*%
%TF.CreationDate,2021-01-03T15:15:31-08:00*%
%TF.ProjectId,SX1303,53583133-3033-42e6-9b69-6361645f7063,rev?*%
%TF.SameCoordinates,Original*%
%TF.FileFunction,Copper,L3,Inr*%
%TF.FilePolarity,Positive*%
%FSLAX46Y46*%
G04 Gerber Fmt 4.6, Leading zero omitted, Abs format (unit mm)*
G04 Created by KiCad (PCBNEW (5.99.0-6542-g16b0689841)) date 2021-01-03 15:15:31*
%MOMM*%
%LPD*%
G01*
G04 APERTURE LIST*
%TA.AperFunction,ComponentPad*%
%ADD10R,1.600000X1.600000*%
%TD*%
%TA.AperFunction,ComponentPad*%
%ADD11C,1.600000*%
%TD*%
%TA.AperFunction,ViaPad*%
%ADD12C,0.503200*%
%TD*%
%TA.AperFunction,Conductor*%
%ADD13C,0.800000*%
%TD*%
%TA.AperFunction,Conductor*%
%ADD14C,0.127000*%
%TD*%
%TA.AperFunction,Conductor*%
%ADD15C,0.400000*%
%TD*%
%TA.AperFunction,Conductor*%
%ADD16C,0.250000*%
%TD*%
%TA.AperFunction,Conductor*%
%ADD17C,0.200000*%
%TD*%
G04 APERTURE END LIST*
D10*
%TO.N,Net-(A1-Pad1)*%
%TO.C,A1*%
X109500000Y-77700000D03*
D11*
%TO.N,+3V3*%
X112040000Y-77700000D03*
%TO.N,Net-(A1-Pad3)*%
X114580000Y-77700000D03*
%TO.N,GND*%
X117120000Y-77700000D03*
%TO.N,Net-(A1-Pad5)*%
X119660000Y-77700000D03*
%TO.N,Net-(A1-Pad6)*%
X122200000Y-77700000D03*
%TO.N,Net-(A1-Pad7)*%
X124740000Y-77700000D03*
%TO.N,Net-(A1-Pad8)*%
X127280000Y-77700000D03*
%TO.N,Net-(A1-Pad9)*%
X129820000Y-77700000D03*
%TO.N,GPS_PPS*%
X132360000Y-77700000D03*
%TO.N,HOST_SCK*%
X134900000Y-77700000D03*
%TO.N,HOST_MOSI*%
X137440000Y-77700000D03*
%TO.N,HOST_MISO*%
X139980000Y-77700000D03*
%TO.N,GPS_TX*%
X142520000Y-77700000D03*
%TO.N,GPS_RX*%
X145060000Y-77700000D03*
%TO.N,Net-(A1-Pad16)*%
X147600000Y-77700000D03*
%TO.N,Net-(A1-Pad17)*%
X147600000Y-57380000D03*
%TO.N,Net-(A1-Pad18)*%
X145060000Y-57380000D03*
%TO.N,Net-(A1-Pad19)*%
X142520000Y-57380000D03*
%TO.N,Net-(A1-Pad20)*%
X139980000Y-57380000D03*
%TO.N,Net-(A1-Pad21)*%
X137440000Y-57380000D03*
%TO.N,Net-(A1-Pad22)*%
X134900000Y-57380000D03*
%TO.N,Net-(A1-Pad23)*%
X132360000Y-57380000D03*
%TO.N,HOST_RESET*%
X129820000Y-57380000D03*
%TO.N,HOST_CSN*%
X127280000Y-57380000D03*
%TO.N,VBUS*%
X124740000Y-57380000D03*
%TO.N,Net-(A1-Pad27)*%
X122200000Y-57380000D03*
%TO.N,+BATT*%
X119660000Y-57380000D03*
%TD*%
D12*
%TO.N,GPS_RX*%
X141600000Y-69300000D03*
%TO.N,GND*%
X127500000Y-66500000D03*
X130300000Y-74500000D03*
X152000000Y-64850000D03*
X136450000Y-72550000D03*
X134800000Y-64100000D03*
X152500000Y-64200000D03*
X137150000Y-71950000D03*
X127600000Y-69800000D03*
X133600000Y-78700000D03*
X112700000Y-69900000D03*
X149400000Y-67800000D03*
X118400000Y-56400000D03*
X136000000Y-65300000D03*
X114350000Y-69000000D03*
X124300000Y-71700000D03*
X148100000Y-65250000D03*
X149500000Y-78700000D03*
X105500000Y-69800000D03*
X125150000Y-68250000D03*
X147600000Y-64600000D03*
X126000000Y-56400000D03*
X150900000Y-75600000D03*
X150100000Y-71400000D03*
X129300000Y-68400000D03*
X144500000Y-64600000D03*
X109300000Y-65200000D03*
X135400000Y-69750000D03*
X111100000Y-65150000D03*
X103400000Y-62400000D03*
X152850000Y-56950000D03*
X111900000Y-69000000D03*
X108800000Y-56500000D03*
X150000000Y-73450000D03*
X112800000Y-56500000D03*
X137800000Y-68900000D03*
X149100000Y-62000000D03*
X142600000Y-61800000D03*
X149100000Y-75300000D03*
X135200000Y-73650000D03*
X103400000Y-67350000D03*
X126900000Y-72500000D03*
X146050000Y-65250000D03*
X140900000Y-68900000D03*
X128400000Y-74200000D03*
X129300000Y-73600000D03*
X139600000Y-64700000D03*
X117300000Y-62800000D03*
X109700000Y-70150000D03*
X128050000Y-75000000D03*
X149900000Y-78000000D03*
X128550000Y-56400000D03*
X103350000Y-74200000D03*
X110700000Y-62300000D03*
X133500000Y-68100000D03*
X143100000Y-65200000D03*
X132300000Y-68900000D03*
X128400000Y-63100000D03*
X153700000Y-76700000D03*
X146700000Y-66900000D03*
X122450000Y-73100000D03*
X123500000Y-78700000D03*
X134200000Y-67800000D03*
X104400000Y-78250000D03*
X132000000Y-63800000D03*
X150900000Y-64850000D03*
X152100000Y-78600000D03*
X153800000Y-61800000D03*
X130800000Y-74100000D03*
X149000000Y-67000000D03*
X132500000Y-62600000D03*
X143700000Y-68400000D03*
X129900000Y-65100000D03*
X115100000Y-59200000D03*
X150900000Y-73450000D03*
X110700000Y-56500000D03*
X138400000Y-74000000D03*
X137600000Y-74700000D03*
X150400000Y-78700000D03*
X137700000Y-72600000D03*
X138900000Y-69900000D03*
X113550000Y-65150000D03*
X142900000Y-68000000D03*
X131100000Y-78700000D03*
X103450000Y-76950000D03*
X148200000Y-67300000D03*
X118450000Y-63900000D03*
X150000000Y-75600000D03*
X153800000Y-70200000D03*
X115800000Y-78700000D03*
X151000000Y-71400000D03*
X131100000Y-56400000D03*
X115650000Y-56450000D03*
X103700000Y-57500000D03*
X147050000Y-73100000D03*
X129200000Y-61000000D03*
X140600000Y-66800000D03*
X141500000Y-66800000D03*
X130200000Y-73600000D03*
X108200000Y-78700000D03*
X132600000Y-68100000D03*
X153800000Y-69300000D03*
X113500000Y-67500000D03*
X118350000Y-72200000D03*
X153800000Y-75700000D03*
X132600000Y-73700000D03*
X111900000Y-66400000D03*
X148500000Y-62900000D03*
X104400000Y-62400000D03*
X128600000Y-69800000D03*
X131200000Y-67300000D03*
X149000000Y-65050000D03*
X111100000Y-73400000D03*
X153000000Y-64850000D03*
X129000000Y-75000000D03*
X145500000Y-63000000D03*
X136300000Y-74900000D03*
X140600000Y-63500000D03*
X124350000Y-63300000D03*
X153800000Y-71050000D03*
X143650000Y-62550000D03*
X129200000Y-65900000D03*
X129100000Y-64500000D03*
X130900000Y-69400000D03*
X135300000Y-64800000D03*
X146500000Y-64600000D03*
X132500000Y-66100000D03*
X145000000Y-63800000D03*
X153800000Y-59150000D03*
X113300000Y-78700000D03*
X149900000Y-62000000D03*
X111700000Y-56500000D03*
X144750000Y-74400000D03*
X152000000Y-71400000D03*
X130200000Y-62400000D03*
X149100000Y-77400000D03*
X118800000Y-61800000D03*
X144200000Y-63800000D03*
X148400000Y-68000000D03*
X151350000Y-74500000D03*
X153800000Y-66750000D03*
X151300000Y-78700000D03*
X136200000Y-58100000D03*
X149700000Y-56400000D03*
X144200000Y-69200000D03*
X148800000Y-70200000D03*
X110700000Y-68800000D03*
X109200000Y-59400000D03*
X136300000Y-63800000D03*
X120700000Y-59700000D03*
X136300000Y-63100000D03*
X110900000Y-78700000D03*
X152800000Y-78200000D03*
X129900000Y-75000000D03*
X130900000Y-66300000D03*
X153700000Y-58300000D03*
X141300000Y-78700000D03*
X137800000Y-67900000D03*
X149900000Y-64850000D03*
X118500000Y-78700000D03*
X151900000Y-77100000D03*
X130900000Y-65400000D03*
X127600000Y-74400000D03*
X149600000Y-70600000D03*
X113100000Y-58400000D03*
X103400000Y-61400000D03*
X153800000Y-65050000D03*
X135800000Y-73050000D03*
X152000000Y-57600000D03*
X109300000Y-67600000D03*
X144700000Y-67700000D03*
X149950000Y-67200000D03*
X109250000Y-69700000D03*
X126800000Y-64800000D03*
X123200000Y-64700000D03*
X140900000Y-67400000D03*
X134800000Y-66300000D03*
X150450000Y-60900000D03*
X142800000Y-60900000D03*
X139040000Y-65300000D03*
X103400000Y-63450000D03*
X134500000Y-69200000D03*
X134100000Y-65400000D03*
X113300000Y-61650000D03*
X106600000Y-78700000D03*
X126800000Y-65900000D03*
X138700000Y-78700000D03*
X149100000Y-71450000D03*
X103400000Y-58400000D03*
X150450000Y-61600000D03*
X151400000Y-64200000D03*
X114100000Y-69900000D03*
X129400000Y-74400000D03*
X130800000Y-72200000D03*
X148700000Y-76500000D03*
X150500000Y-56400000D03*
X145800000Y-67500000D03*
X110600000Y-66200000D03*
X114500000Y-73100000D03*
X144750000Y-73100000D03*
X143500000Y-69200000D03*
X126300000Y-69800000D03*
X117400000Y-56400000D03*
X103350000Y-76200000D03*
X104300000Y-56900000D03*
X141100000Y-61200000D03*
X145100000Y-71800000D03*
X130100000Y-61000000D03*
X144300000Y-66900000D03*
X145100000Y-66900000D03*
X137250000Y-62850000D03*
X148350000Y-75500000D03*
X139500000Y-68000000D03*
X143800000Y-78700000D03*
X152800000Y-77100000D03*
X129700000Y-69800000D03*
X146000000Y-62400000D03*
X134150000Y-70650000D03*
X128500000Y-78700000D03*
X132400000Y-64500000D03*
X128100000Y-70600000D03*
X103400000Y-71700000D03*
X151300000Y-56400000D03*
X128400000Y-61000000D03*
X144500000Y-62900000D03*
X109700000Y-56500000D03*
X141450000Y-74400000D03*
X143450000Y-71800000D03*
X126000000Y-78700000D03*
X143100000Y-64200000D03*
X138500000Y-65900000D03*
X137700000Y-63800000D03*
X133300000Y-62600000D03*
X103400000Y-66350000D03*
X132600000Y-75000000D03*
X143450000Y-73100000D03*
X103400000Y-69350000D03*
X153800000Y-60000000D03*
X134700000Y-62400000D03*
X137250000Y-61700000D03*
X147400000Y-74300000D03*
X132500000Y-65300000D03*
X146300000Y-56400000D03*
X151300000Y-58100000D03*
X105500000Y-69100000D03*
X136300000Y-62300000D03*
X153400000Y-77500000D03*
X153800000Y-71900000D03*
X149100000Y-72150000D03*
X113100000Y-59500000D03*
X127200000Y-70600000D03*
X136200000Y-56400000D03*
X147100000Y-67700000D03*
X127700000Y-68200000D03*
X153800000Y-74700000D03*
X153800000Y-67600000D03*
X111800000Y-67700000D03*
X143800000Y-60900000D03*
X103400000Y-68350000D03*
X141800000Y-60900000D03*
X138800000Y-73000000D03*
X122100000Y-59700000D03*
X130200000Y-68900000D03*
X151300000Y-57000000D03*
X153800000Y-73750000D03*
X153800000Y-68450000D03*
X130900000Y-68300000D03*
X135000000Y-67800000D03*
X124400000Y-64550000D03*
X114850000Y-61900000D03*
X127600000Y-73600000D03*
X128400000Y-73400000D03*
X116450000Y-61050000D03*
X152600000Y-70600000D03*
X130600000Y-64600000D03*
X143650000Y-63400000D03*
X138500000Y-69400000D03*
X112200000Y-65500000D03*
X136600000Y-73900000D03*
X133000000Y-63600000D03*
X145300000Y-75000000D03*
X148200000Y-69400000D03*
X103400000Y-65350000D03*
X103400000Y-70500000D03*
X134700000Y-71500000D03*
X147100000Y-69400000D03*
X121450000Y-62150000D03*
X131000000Y-62400000D03*
X148700000Y-78700000D03*
X109300000Y-66550000D03*
X112000000Y-73300000D03*
X143450000Y-74400000D03*
X118800000Y-59700000D03*
X153000000Y-67200000D03*
X103350000Y-75350000D03*
X131800000Y-61000000D03*
X150800000Y-77100000D03*
X136000000Y-61600000D03*
X103400000Y-64400000D03*
X138650000Y-56400000D03*
X146500000Y-63000000D03*
X147400000Y-66900000D03*
X131000000Y-63100000D03*
X131900000Y-63100000D03*
X130000000Y-72700000D03*
X141500000Y-72450000D03*
X130700000Y-70400000D03*
X105650000Y-66700000D03*
X151500000Y-70600000D03*
X125850000Y-69050000D03*
X131600000Y-71600000D03*
X137200000Y-70800000D03*
X129200000Y-72700000D03*
X141500000Y-63500000D03*
X150000000Y-76600000D03*
X142400000Y-66800000D03*
X133300000Y-69400000D03*
X110500000Y-67500000D03*
X111100000Y-70150000D03*
X135400000Y-61000000D03*
X152000000Y-67200000D03*
X152000000Y-62000000D03*
X117850000Y-68650000D03*
X133650000Y-56400000D03*
X108200000Y-71100000D03*
X153800000Y-72800000D03*
X125450000Y-70150000D03*
X130200000Y-66900000D03*
X129300000Y-63100000D03*
X137700000Y-70000000D03*
X135400000Y-65800000D03*
X103400000Y-59400000D03*
X152900000Y-62000000D03*
X134200000Y-63500000D03*
X135700000Y-67500000D03*
X150950000Y-67200000D03*
X146300000Y-78700000D03*
X124400000Y-72950000D03*
X145100000Y-62400000D03*
X105050000Y-78600000D03*
X119700000Y-59700000D03*
X145900000Y-69200000D03*
X150400000Y-64200000D03*
X134500000Y-60800000D03*
X130800000Y-73100000D03*
X139400000Y-69400000D03*
X121000000Y-78700000D03*
X136800000Y-66500000D03*
X132600000Y-61000000D03*
X147050000Y-65250000D03*
X129300000Y-67300000D03*
X109600000Y-60500000D03*
X134100000Y-62700000D03*
X132300000Y-70000000D03*
X109200000Y-60000000D03*
X127600000Y-63050000D03*
X118800000Y-61000000D03*
X150450000Y-60200000D03*
X151100000Y-62000000D03*
X145500000Y-68400000D03*
X129000000Y-70600000D03*
X113000000Y-68800000D03*
X131000000Y-61000000D03*
X120950000Y-56400000D03*
X114350000Y-66550000D03*
X144400000Y-61900000D03*
X137600000Y-73500000D03*
X128300000Y-65900000D03*
X127600000Y-72700000D03*
X116000000Y-59200000D03*
X149100000Y-73750000D03*
X148500000Y-64400000D03*
X107450000Y-78700000D03*
X147700000Y-68600000D03*
X141600000Y-61800000D03*
X140700000Y-61800000D03*
X128400000Y-72700000D03*
X130200000Y-63100000D03*
X130200000Y-67800000D03*
X136300000Y-67000000D03*
X121250000Y-70500000D03*
X126500000Y-66850000D03*
X140200000Y-69400000D03*
X137250000Y-69500000D03*
X125850000Y-67500000D03*
X105850000Y-78700000D03*
X143750000Y-56400000D03*
X109300000Y-68700000D03*
X136100000Y-78700000D03*
X151500000Y-77900000D03*
X120500000Y-67900000D03*
X145400000Y-64600000D03*
X150500000Y-67800000D03*
X153000000Y-71400000D03*
X137200000Y-68650000D03*
X147000000Y-63800000D03*
X133500000Y-60800000D03*
X147850000Y-70400000D03*
X149400000Y-64200000D03*
X143600000Y-61800000D03*
X138500000Y-64700000D03*
X128300000Y-65200000D03*
X152100000Y-56550000D03*
X153800000Y-65850000D03*
X133200000Y-66400000D03*
X145100000Y-69200000D03*
X148350000Y-71050000D03*
X148600000Y-56400000D03*
X105000000Y-56500000D03*
X103350000Y-72950000D03*
X142100000Y-67700000D03*
X146750000Y-74900000D03*
X146200000Y-76450000D03*
X147100000Y-76450000D03*
X133250000Y-70650000D03*
X149100000Y-73000000D03*
X150400000Y-70600000D03*
X152700000Y-57600000D03*
X153350000Y-57550000D03*
X151500000Y-67800000D03*
X139600000Y-65900000D03*
X141200000Y-68100000D03*
X133300000Y-64900000D03*
X153800000Y-60900000D03*
X146000000Y-63800000D03*
X115600000Y-61200000D03*
X116400000Y-62800000D03*
X146150000Y-69850000D03*
X141250000Y-56400000D03*
X117200000Y-65700000D03*
X123450000Y-56400000D03*
X126300000Y-70600000D03*
X126300000Y-68400000D03*
X118800000Y-62600000D03*
X146800000Y-70400000D03*
X130800000Y-75000000D03*
X153800000Y-64200000D03*
X152500000Y-74500000D03*
X143400000Y-67500000D03*
X152500000Y-67800000D03*
X132550000Y-72200000D03*
X103400000Y-60400000D03*
X135200000Y-74450000D03*
X130100000Y-65900000D03*
X134000000Y-66400000D03*
X114000000Y-62300000D03*
X148000000Y-63600000D03*
X147600000Y-62600000D03*
X136600000Y-60950000D03*
X129900000Y-70600000D03*
X144700000Y-60900000D03*
X153800000Y-62600000D03*
X143700000Y-64600000D03*
X146600000Y-68500000D03*
X137000000Y-63800000D03*
X113000000Y-66200000D03*
X132200000Y-70900000D03*
X153800000Y-63350000D03*
X135400000Y-68800000D03*
X128300000Y-64500000D03*
X147800000Y-76100000D03*
X135400000Y-70850000D03*
%TO.N,VDD_RF*%
X125200000Y-60700000D03*
X124150000Y-68300000D03*
X120700000Y-72200000D03*
X120750000Y-63850000D03*
X146600000Y-60000000D03*
%TO.N,TCXO_32Mhz*%
X122600000Y-68300000D03*
X118000000Y-61800000D03*
%TO.N,RADIOA_CSN*%
X125600000Y-65550000D03*
X108750000Y-63300000D03*
%TO.N,RADIOA_MOSI*%
X124200000Y-66550000D03*
X109600000Y-63000000D03*
%TO.N,RADIOA_SCK*%
X110300000Y-63350000D03*
X125050000Y-66500000D03*
%TO.N,RADIO_A_IQ2*%
X122800000Y-60900000D03*
X117800000Y-63500000D03*
%TO.N,RADIOB_RESET*%
X123100000Y-74850000D03*
X112450000Y-71900000D03*
%TO.N,RADIOB_SCK*%
X125200000Y-74100000D03*
X109850000Y-72400000D03*
%TO.N,RADIOB_MOSI*%
X109350000Y-71950000D03*
X124200000Y-74900000D03*
%TO.N,RADIOB_CSN*%
X126350000Y-73450000D03*
X110046110Y-73200000D03*
%TO.N,RADIOA_RESET*%
X123100575Y-66350169D03*
X107500000Y-69000000D03*
%TO.N,HOST_SCK*%
X105000000Y-65550000D03*
%TO.N,HOST_MOSI*%
X105000000Y-64850000D03*
%TO.N,HOST_MISO*%
X105400000Y-64350000D03*
%TO.N,+3V3*%
X110233175Y-62723352D03*
X116105376Y-66292860D03*
X113200000Y-71850000D03*
X140300000Y-71550000D03*
X140300000Y-70850000D03*
X107447665Y-69750000D03*
X111250000Y-63350000D03*
X147300000Y-71300000D03*
X105400000Y-63600000D03*
X111500000Y-60500000D03*
%TO.N,+1V2*%
X104150000Y-60850000D03*
X104150000Y-60250000D03*
X104150000Y-61500000D03*
X107300000Y-65950000D03*
X113300000Y-63350000D03*
X104950000Y-61500000D03*
X110750000Y-71850000D03*
X110200000Y-59500000D03*
X116000000Y-68650000D03*
%TO.N,HOST_RESET*%
X107500000Y-66800000D03*
%TO.N,HOST_CSN*%
X107500000Y-64000000D03*
%TO.N,VBUS*%
X113600000Y-57000000D03*
X105800000Y-56900000D03*
X114350000Y-57500000D03*
X152400000Y-59400000D03*
X106300000Y-56600000D03*
X106300000Y-57200000D03*
X115000000Y-57000000D03*
X152400000Y-60900000D03*
X152200000Y-58700000D03*
X108200000Y-60200000D03*
%TO.N,SX1303_CSD*%
X107399620Y-67747641D03*
X107900000Y-73400000D03*
%TO.N,GPS_PPS*%
X141450000Y-75500000D03*
X105600000Y-67450000D03*
X134850000Y-75300000D03*
%TO.N,SX1303_TXRX*%
X107500000Y-68369797D03*
X106900000Y-71900000D03*
%TO.N,GPS_TX*%
X142300000Y-69300000D03*
%TD*%
D13*
%TO.N,VDD_RF*%
X120750000Y-63800000D02*
X122100000Y-63800000D01*
X140300000Y-60000000D02*
X146600000Y-60000000D01*
X124150000Y-68300000D02*
X123150000Y-67300000D01*
X123150000Y-67300000D02*
X122600000Y-67300000D01*
X120750000Y-63850000D02*
X120750000Y-63800000D01*
X122328601Y-71871399D02*
X124150000Y-70050000D01*
X124150000Y-70050000D02*
X124150000Y-68300000D01*
X125200000Y-60650000D02*
X125850000Y-60000000D01*
X125200000Y-60700000D02*
X125200000Y-60650000D01*
X122600000Y-67300000D02*
X122050000Y-66750000D01*
X125850000Y-60000000D02*
X140300000Y-60000000D01*
X121028601Y-71871399D02*
X122328601Y-71871399D01*
X122050000Y-66750000D02*
X122050000Y-63800000D01*
X120700000Y-72200000D02*
X121028601Y-71871399D01*
X122100000Y-63800000D02*
X125200000Y-60700000D01*
D14*
%TO.N,TCXO_32Mhz*%
X121700000Y-68300000D02*
X119200000Y-65800000D01*
X119200000Y-63825000D02*
X118000000Y-62625000D01*
X118000000Y-62625000D02*
X118000000Y-61800000D01*
X119200000Y-65800000D02*
X119200000Y-63825000D01*
X122600000Y-68300000D02*
X121700000Y-68300000D01*
D13*
%TO.N,+3V3*%
X112040000Y-75410000D02*
X112040000Y-77700000D01*
D15*
X109678601Y-62421399D02*
X109931222Y-62421399D01*
D13*
X112058601Y-75515803D02*
X112058601Y-75391399D01*
D15*
X109931222Y-62421399D02*
X110233175Y-62723352D01*
D13*
X140300000Y-71550000D02*
X140300000Y-70850000D01*
X112621399Y-76078601D02*
X112058601Y-76078601D01*
D16*
X106100000Y-63600000D02*
X106400000Y-63900000D01*
D15*
X106400000Y-68900000D02*
X106400000Y-63900000D01*
D13*
X137921399Y-76078601D02*
X112621399Y-76078601D01*
X112040000Y-76097202D02*
X112040000Y-77700000D01*
D15*
X116542860Y-66292860D02*
X116105376Y-66292860D01*
D16*
X105400000Y-63600000D02*
X106100000Y-63600000D01*
D15*
X116700000Y-70278146D02*
X116700000Y-66700000D01*
D13*
X112040000Y-76660000D02*
X112621399Y-76078601D01*
D15*
X116700000Y-66450000D02*
X116542860Y-66292860D01*
X116105376Y-66292860D02*
X116442860Y-66292860D01*
X113200000Y-74250000D02*
X112040000Y-75410000D01*
D13*
X140300000Y-71550000D02*
X140300000Y-73700000D01*
D15*
X112040000Y-75410000D02*
X112040000Y-76060000D01*
D13*
X140300000Y-70850000D02*
X145502330Y-70850000D01*
D15*
X107878601Y-62421399D02*
X109678601Y-62421399D01*
D13*
X145502330Y-70850000D02*
X145926165Y-71273835D01*
D15*
X115128146Y-71850000D02*
X116700000Y-70278146D01*
X113200000Y-71850000D02*
X115128146Y-71850000D01*
D17*
X145450000Y-70850000D02*
X140300000Y-70850000D01*
D15*
X106400000Y-63900000D02*
X107878601Y-62421399D01*
D17*
X145900000Y-71300000D02*
X145450000Y-70850000D01*
D15*
X116700000Y-66700000D02*
X116700000Y-66550000D01*
X112040000Y-76760000D02*
X112040000Y-77600000D01*
D13*
X112058601Y-75391399D02*
X112040000Y-75410000D01*
X112058601Y-76078601D02*
X112040000Y-76060000D01*
D17*
X146000000Y-71300000D02*
X145900000Y-71300000D01*
D13*
X112058601Y-76078601D02*
X112040000Y-76097202D01*
D15*
X116700000Y-66700000D02*
X116700000Y-66450000D01*
D13*
X113200000Y-74250000D02*
X113200000Y-72302330D01*
X112621399Y-76078601D02*
X112058601Y-75515803D01*
D15*
X116700000Y-66550000D02*
X116442860Y-66292860D01*
X113200000Y-71850000D02*
X113200000Y-74250000D01*
D13*
X146000000Y-71300000D02*
X147300000Y-71300000D01*
X112058601Y-75391399D02*
X113200000Y-74250000D01*
X140300000Y-73700000D02*
X137921399Y-76078601D01*
D15*
X112040000Y-76060000D02*
X112040000Y-76760000D01*
X107250000Y-69750000D02*
X107447665Y-69750000D01*
X107200000Y-69700000D02*
X107250000Y-69750000D01*
D13*
X112058601Y-76078601D02*
X112058601Y-75391399D01*
X112040000Y-76760000D02*
X112040000Y-76660000D01*
D15*
X107200000Y-69700000D02*
X106400000Y-68900000D01*
D13*
%TO.N,+1V2*%
X110750000Y-71400000D02*
X111150000Y-71000000D01*
D15*
X115326775Y-69323225D02*
X115326775Y-69376775D01*
D13*
X110800000Y-61400000D02*
X109900000Y-61400000D01*
X114578601Y-64128601D02*
X114028601Y-64128601D01*
D15*
X112700000Y-62800000D02*
X112700000Y-63600000D01*
D13*
X115326775Y-68126775D02*
X115326775Y-64876775D01*
X108400000Y-65600000D02*
X108100000Y-65900000D01*
D15*
X113300000Y-63350000D02*
X113300000Y-64050000D01*
D13*
X113125000Y-63175000D02*
X112725000Y-62775000D01*
X112725000Y-62775000D02*
X111350000Y-61400000D01*
X109600000Y-61400000D02*
X104850000Y-61400000D01*
D16*
X110200000Y-60800000D02*
X110800000Y-61400000D01*
D13*
X112700000Y-63600000D02*
X112271399Y-64028601D01*
D15*
X112725000Y-62775000D02*
X112700000Y-62800000D01*
D13*
X112271399Y-64128601D02*
X108871399Y-64128601D01*
X113300000Y-63350000D02*
X114028601Y-64078601D01*
X108400000Y-64600000D02*
X108400000Y-65600000D01*
X108871399Y-64128601D02*
X108400000Y-64600000D01*
X112271399Y-64028601D02*
X112271399Y-64128601D01*
X114028601Y-64078601D02*
X114028601Y-64128601D01*
D16*
X109900000Y-61400000D02*
X110200000Y-61100000D01*
D13*
X111150000Y-71000000D02*
X114600000Y-71000000D01*
X109900000Y-61400000D02*
X109700000Y-61400000D01*
X115326775Y-68673225D02*
X115326775Y-68126775D01*
X114600000Y-71000000D02*
X115326775Y-70273225D01*
X114028601Y-64128601D02*
X113221399Y-64128601D01*
X108100000Y-65900000D02*
X108050000Y-65950000D01*
D16*
X110200000Y-61100000D02*
X110200000Y-60800000D01*
D13*
X112778601Y-63871399D02*
X112778601Y-64128601D01*
X112778601Y-64128601D02*
X112271399Y-64128601D01*
X113125000Y-63175000D02*
X112700000Y-63600000D01*
D15*
X115476775Y-68126775D02*
X115326775Y-68126775D01*
D13*
X104850000Y-61400000D02*
X104400000Y-60950000D01*
X115326775Y-70273225D02*
X115326775Y-69376775D01*
D16*
X110200000Y-59500000D02*
X110200000Y-60800000D01*
D15*
X113300000Y-64050000D02*
X113221399Y-64128601D01*
D16*
X110200000Y-60800000D02*
X109700000Y-61300000D01*
D13*
X111350000Y-61400000D02*
X110800000Y-61400000D01*
X109700000Y-61400000D02*
X109600000Y-61400000D01*
X115326775Y-69376775D02*
X115326775Y-68673225D01*
X113300000Y-63350000D02*
X113125000Y-63175000D01*
X110750000Y-71850000D02*
X110750000Y-71400000D01*
D16*
X109700000Y-61300000D02*
X109700000Y-61400000D01*
D13*
X113300000Y-63350000D02*
X112778601Y-63871399D01*
X115326775Y-64876775D02*
X114578601Y-64128601D01*
X113221399Y-64128601D02*
X112778601Y-64128601D01*
X108050000Y-65950000D02*
X107300000Y-65950000D01*
D15*
X116000000Y-68650000D02*
X115476775Y-68126775D01*
X116000000Y-68650000D02*
X115326775Y-69323225D01*
X116000000Y-68650000D02*
X115350000Y-68650000D01*
D16*
X110200000Y-60800000D02*
X109600000Y-61400000D01*
D15*
X115350000Y-68650000D02*
X115326775Y-68673225D01*
D13*
%TO.N,VBUS*%
X152300000Y-59400000D02*
X152400000Y-59400000D01*
X151900000Y-59000000D02*
X152300000Y-59400000D01*
X152400000Y-58900000D02*
X152200000Y-58700000D01*
X125800000Y-59000000D02*
X151300000Y-59000000D01*
X124740000Y-57940000D02*
X124740000Y-57380000D01*
X151300000Y-59000000D02*
X151900000Y-59000000D01*
X125800000Y-59000000D02*
X124740000Y-57940000D01*
X151900000Y-59000000D02*
X152200000Y-58700000D01*
X152400000Y-59400000D02*
X152400000Y-58900000D01*
%TD*%
%TA.AperFunction,Conductor*%
%TO.N,GND*%
G36*
X118894006Y-76753103D02*
G01*
X118940499Y-76806759D01*
X118950603Y-76877033D01*
X118917588Y-76942140D01*
X118919057Y-76943373D01*
X118786205Y-77101700D01*
X118783241Y-77107092D01*
X118783238Y-77107096D01*
X118702377Y-77254183D01*
X118686636Y-77282816D01*
X118684775Y-77288683D01*
X118684774Y-77288685D01*
X118682312Y-77296446D01*
X118624142Y-77479822D01*
X118601103Y-77685214D01*
X118618398Y-77891170D01*
X118620097Y-77897095D01*
X118657934Y-78029047D01*
X118675367Y-78089844D01*
X118769840Y-78273669D01*
X118898219Y-78435643D01*
X119055614Y-78569597D01*
X119060992Y-78572603D01*
X119060994Y-78572604D01*
X119112268Y-78601260D01*
X119236030Y-78670428D01*
X119279509Y-78684555D01*
X119389111Y-78720167D01*
X119447717Y-78760240D01*
X119475354Y-78825637D01*
X119463247Y-78895594D01*
X119415241Y-78947900D01*
X119350175Y-78966000D01*
X114884703Y-78966000D01*
X114816582Y-78945998D01*
X114770089Y-78892342D01*
X114759985Y-78822068D01*
X114789479Y-78757488D01*
X114850819Y-78718641D01*
X114957032Y-78688986D01*
X114957031Y-78688986D01*
X114962960Y-78687331D01*
X115147441Y-78594143D01*
X115163249Y-78581793D01*
X115305451Y-78470692D01*
X115310307Y-78466898D01*
X115341456Y-78430812D01*
X115441327Y-78315110D01*
X115441328Y-78315108D01*
X115445356Y-78310442D01*
X115547445Y-78130734D01*
X115612683Y-77934620D01*
X115638587Y-77729569D01*
X115639000Y-77700000D01*
X115618832Y-77494306D01*
X115559094Y-77296446D01*
X115462064Y-77113958D01*
X115456468Y-77107096D01*
X115372304Y-77003902D01*
X115331435Y-76953792D01*
X115326684Y-76949861D01*
X115324723Y-76947887D01*
X115290914Y-76885457D01*
X115296225Y-76814660D01*
X115338968Y-76757972D01*
X115414127Y-76733101D01*
X118825885Y-76733101D01*
X118894006Y-76753103D01*
G37*
%TD.AperFunction*%
%TA.AperFunction,Conductor*%
G36*
X119422363Y-56134002D02*
G01*
X119468856Y-56187658D01*
X119478960Y-56257932D01*
X119449466Y-56322512D01*
X119389817Y-56360874D01*
X119263292Y-56398112D01*
X119080131Y-56493867D01*
X118919057Y-56623373D01*
X118786205Y-56781700D01*
X118783241Y-56787092D01*
X118783238Y-56787096D01*
X118740635Y-56864591D01*
X118686636Y-56962816D01*
X118684775Y-56968683D01*
X118684774Y-56968685D01*
X118648786Y-57082134D01*
X118624142Y-57159822D01*
X118601103Y-57365214D01*
X118606252Y-57426530D01*
X118613025Y-57507181D01*
X118618398Y-57571170D01*
X118620097Y-57577095D01*
X118669930Y-57750882D01*
X118675367Y-57769844D01*
X118678183Y-57775323D01*
X118735363Y-57886583D01*
X118769840Y-57953669D01*
X118898219Y-58115643D01*
X118902913Y-58119638D01*
X119003568Y-58205302D01*
X119055614Y-58249597D01*
X119060992Y-58252603D01*
X119060994Y-58252604D01*
X119125432Y-58288617D01*
X119236030Y-58350428D01*
X119432595Y-58414296D01*
X119637822Y-58438768D01*
X119643957Y-58438296D01*
X119643959Y-58438296D01*
X119837752Y-58423384D01*
X119837757Y-58423383D01*
X119843893Y-58422911D01*
X119849823Y-58421255D01*
X119849825Y-58421255D01*
X120037032Y-58368986D01*
X120037031Y-58368986D01*
X120042960Y-58367331D01*
X120227441Y-58274143D01*
X120240597Y-58263865D01*
X120385451Y-58150692D01*
X120390307Y-58146898D01*
X120402872Y-58132341D01*
X120521327Y-57995110D01*
X120521328Y-57995108D01*
X120525356Y-57990442D01*
X120627445Y-57810734D01*
X120692683Y-57614620D01*
X120718587Y-57409569D01*
X120718908Y-57386583D01*
X120718951Y-57383523D01*
X120718951Y-57383519D01*
X120719000Y-57380000D01*
X120698832Y-57174306D01*
X120639094Y-56976446D01*
X120542064Y-56793958D01*
X120537164Y-56787950D01*
X120415330Y-56638567D01*
X120415327Y-56638564D01*
X120411435Y-56633792D01*
X120404545Y-56628092D01*
X120256935Y-56505978D01*
X120256931Y-56505976D01*
X120252185Y-56502049D01*
X120070379Y-56403747D01*
X119930234Y-56360365D01*
X119871074Y-56321114D01*
X119842527Y-56256109D01*
X119853656Y-56185990D01*
X119900927Y-56133019D01*
X119967493Y-56114000D01*
X121894242Y-56114000D01*
X121962363Y-56134002D01*
X122008856Y-56187658D01*
X122018960Y-56257932D01*
X121989466Y-56322512D01*
X121929817Y-56360874D01*
X121803292Y-56398112D01*
X121620131Y-56493867D01*
X121459057Y-56623373D01*
X121326205Y-56781700D01*
X121323241Y-56787092D01*
X121323238Y-56787096D01*
X121280635Y-56864591D01*
X121226636Y-56962816D01*
X121224775Y-56968683D01*
X121224774Y-56968685D01*
X121188786Y-57082134D01*
X121164142Y-57159822D01*
X121141103Y-57365214D01*
X121146252Y-57426530D01*
X121153025Y-57507181D01*
X121158398Y-57571170D01*
X121160097Y-57577095D01*
X121209930Y-57750882D01*
X121215367Y-57769844D01*
X121218183Y-57775323D01*
X121275363Y-57886583D01*
X121309840Y-57953669D01*
X121438219Y-58115643D01*
X121442913Y-58119638D01*
X121543568Y-58205302D01*
X121595614Y-58249597D01*
X121600992Y-58252603D01*
X121600994Y-58252604D01*
X121665432Y-58288617D01*
X121776030Y-58350428D01*
X121972595Y-58414296D01*
X122177822Y-58438768D01*
X122183957Y-58438296D01*
X122183959Y-58438296D01*
X122377752Y-58423384D01*
X122377757Y-58423383D01*
X122383893Y-58422911D01*
X122389823Y-58421255D01*
X122389825Y-58421255D01*
X122577032Y-58368986D01*
X122577031Y-58368986D01*
X122582960Y-58367331D01*
X122767441Y-58274143D01*
X122780597Y-58263865D01*
X122925451Y-58150692D01*
X122930307Y-58146898D01*
X122942872Y-58132341D01*
X123061327Y-57995110D01*
X123061328Y-57995108D01*
X123065356Y-57990442D01*
X123167445Y-57810734D01*
X123232683Y-57614620D01*
X123258587Y-57409569D01*
X123258908Y-57386583D01*
X123258951Y-57383523D01*
X123258951Y-57383519D01*
X123259000Y-57380000D01*
X123238832Y-57174306D01*
X123179094Y-56976446D01*
X123082064Y-56793958D01*
X123077164Y-56787950D01*
X122955330Y-56638567D01*
X122955327Y-56638564D01*
X122951435Y-56633792D01*
X122944545Y-56628092D01*
X122796935Y-56505978D01*
X122796931Y-56505976D01*
X122792185Y-56502049D01*
X122610379Y-56403747D01*
X122470234Y-56360365D01*
X122411074Y-56321114D01*
X122382527Y-56256109D01*
X122393656Y-56185990D01*
X122440927Y-56133019D01*
X122507493Y-56114000D01*
X124434242Y-56114000D01*
X124502363Y-56134002D01*
X124548856Y-56187658D01*
X124558960Y-56257932D01*
X124529466Y-56322512D01*
X124469817Y-56360874D01*
X124343292Y-56398112D01*
X124160131Y-56493867D01*
X123999057Y-56623373D01*
X123866205Y-56781700D01*
X123863241Y-56787092D01*
X123863238Y-56787096D01*
X123820635Y-56864591D01*
X123766636Y-56962816D01*
X123764775Y-56968683D01*
X123764774Y-56968685D01*
X123728786Y-57082134D01*
X123704142Y-57159822D01*
X123681103Y-57365214D01*
X123686252Y-57426530D01*
X123693025Y-57507181D01*
X123698398Y-57571170D01*
X123700097Y-57577095D01*
X123749930Y-57750882D01*
X123755367Y-57769844D01*
X123758183Y-57775323D01*
X123815363Y-57886583D01*
X123849840Y-57953669D01*
X123978219Y-58115643D01*
X123982913Y-58119638D01*
X124083568Y-58205302D01*
X124135614Y-58249597D01*
X124146049Y-58255429D01*
X124186532Y-58291377D01*
X124189047Y-58294840D01*
X124195548Y-58304738D01*
X124218893Y-58344212D01*
X124221000Y-58346601D01*
X124234663Y-58360264D01*
X124247504Y-58375298D01*
X124259245Y-58391458D01*
X124287733Y-58415025D01*
X124292945Y-58419337D01*
X124301726Y-58427327D01*
X124547330Y-58672932D01*
X125281072Y-59406675D01*
X125287937Y-59414219D01*
X125291847Y-59420381D01*
X125297622Y-59425804D01*
X125297626Y-59425809D01*
X125306487Y-59434130D01*
X125342451Y-59495344D01*
X125339610Y-59566284D01*
X125309326Y-59615072D01*
X124793332Y-60131066D01*
X124785783Y-60137936D01*
X124779620Y-60141847D01*
X124774195Y-60147624D01*
X124735784Y-60188527D01*
X124733030Y-60191368D01*
X124709212Y-60215186D01*
X124705550Y-60219906D01*
X124697853Y-60228919D01*
X124666453Y-60262356D01*
X124656213Y-60280982D01*
X124645367Y-60297495D01*
X124632341Y-60314287D01*
X124624359Y-60332733D01*
X124620702Y-60341184D01*
X124594160Y-60380238D01*
X121865803Y-63108595D01*
X121776708Y-63145500D01*
X120822710Y-63145500D01*
X120799482Y-63143304D01*
X120799194Y-63143286D01*
X120791410Y-63141801D01*
X120741129Y-63144965D01*
X120736578Y-63145251D01*
X120728666Y-63145500D01*
X120710420Y-63145500D01*
X120706488Y-63145997D01*
X120706483Y-63145997D01*
X120692301Y-63147788D01*
X120684426Y-63148532D01*
X120644161Y-63151066D01*
X120626423Y-63152182D01*
X120617968Y-63154929D01*
X120594826Y-63160102D01*
X120585989Y-63161219D01*
X120578624Y-63164135D01*
X120531914Y-63182629D01*
X120524466Y-63185310D01*
X120476745Y-63200815D01*
X120476742Y-63200817D01*
X120469200Y-63203267D01*
X120462504Y-63207517D01*
X120462499Y-63207519D01*
X120461694Y-63208030D01*
X120440561Y-63218798D01*
X120439658Y-63219156D01*
X120432283Y-63222076D01*
X120425869Y-63226736D01*
X120385235Y-63256258D01*
X120378692Y-63260705D01*
X120329620Y-63291847D01*
X120324195Y-63297624D01*
X120323535Y-63298327D01*
X120305742Y-63314013D01*
X120304955Y-63314584D01*
X120304950Y-63314589D01*
X120298541Y-63319245D01*
X120293488Y-63325353D01*
X120261478Y-63364047D01*
X120256243Y-63369985D01*
X120216453Y-63412356D01*
X120212635Y-63419302D01*
X120212633Y-63419304D01*
X120212166Y-63420154D01*
X120198839Y-63439765D01*
X120193166Y-63446622D01*
X120170265Y-63495288D01*
X120168415Y-63499220D01*
X120164822Y-63506272D01*
X120136812Y-63557222D01*
X120134840Y-63564901D01*
X120134839Y-63564904D01*
X120134599Y-63565839D01*
X120126566Y-63588152D01*
X120126153Y-63589029D01*
X120126151Y-63589034D01*
X120122778Y-63596203D01*
X120111879Y-63653341D01*
X120110164Y-63661012D01*
X120095700Y-63717343D01*
X120095500Y-63720522D01*
X120095500Y-63727290D01*
X120093304Y-63750518D01*
X120093286Y-63750806D01*
X120091801Y-63758590D01*
X120092299Y-63766501D01*
X120095251Y-63813422D01*
X120095500Y-63821334D01*
X120095500Y-63889579D01*
X120099125Y-63918276D01*
X120110058Y-64004819D01*
X120111219Y-64014010D01*
X120114136Y-64021376D01*
X120114136Y-64021378D01*
X120160091Y-64137445D01*
X120172076Y-64167716D01*
X120269245Y-64301458D01*
X120396622Y-64406834D01*
X120546203Y-64477222D01*
X120553986Y-64478707D01*
X120553987Y-64478707D01*
X120700804Y-64506714D01*
X120700806Y-64506714D01*
X120708590Y-64508199D01*
X120791083Y-64503009D01*
X120865666Y-64498316D01*
X120865668Y-64498316D01*
X120873577Y-64497818D01*
X120881113Y-64495369D01*
X120881115Y-64495369D01*
X120987916Y-64460667D01*
X121026852Y-64454500D01*
X121269501Y-64454500D01*
X121337622Y-64474502D01*
X121384115Y-64528158D01*
X121395501Y-64580500D01*
X121395500Y-65628545D01*
X121395500Y-66670628D01*
X121395020Y-66680815D01*
X121393428Y-66687936D01*
X121393677Y-66695858D01*
X121395438Y-66751904D01*
X121395500Y-66755861D01*
X121395500Y-66789579D01*
X121396249Y-66795509D01*
X121397179Y-66807328D01*
X121398620Y-66853169D01*
X121400832Y-66860783D01*
X121404547Y-66873569D01*
X121408556Y-66892930D01*
X121411219Y-66914010D01*
X121414136Y-66921378D01*
X121414138Y-66921385D01*
X121428102Y-66956655D01*
X121431947Y-66967882D01*
X121444741Y-67011919D01*
X121448778Y-67018745D01*
X121455556Y-67030206D01*
X121464253Y-67047956D01*
X121472076Y-67067716D01*
X121476737Y-67074131D01*
X121499034Y-67104821D01*
X121505548Y-67114738D01*
X121528893Y-67154212D01*
X121531000Y-67156601D01*
X121544663Y-67170264D01*
X121557504Y-67185298D01*
X121564585Y-67195045D01*
X121564588Y-67195048D01*
X121569245Y-67201458D01*
X121575349Y-67206508D01*
X121575351Y-67206510D01*
X121602950Y-67229342D01*
X121611729Y-67237331D01*
X122081072Y-67706675D01*
X122087937Y-67714219D01*
X122091847Y-67720381D01*
X122097624Y-67725806D01*
X122138456Y-67764150D01*
X122174422Y-67825363D01*
X122171583Y-67896303D01*
X122130843Y-67954447D01*
X122052203Y-67982000D01*
X121883910Y-67982000D01*
X121794815Y-67945095D01*
X119554905Y-65705186D01*
X119518000Y-65616091D01*
X119518000Y-63845446D01*
X119518479Y-63834464D01*
X119519628Y-63821334D01*
X119521770Y-63796848D01*
X119512272Y-63761404D01*
X119509895Y-63750679D01*
X119505436Y-63725387D01*
X119505436Y-63725386D01*
X119503521Y-63714527D01*
X119498008Y-63704978D01*
X119496927Y-63702009D01*
X119495589Y-63699141D01*
X119492737Y-63688494D01*
X119486415Y-63679465D01*
X119486413Y-63679461D01*
X119471685Y-63658427D01*
X119465786Y-63649169D01*
X119447432Y-63617380D01*
X119418500Y-63593103D01*
X119410397Y-63585677D01*
X118892551Y-63067831D01*
X118354905Y-62530186D01*
X118318000Y-62441091D01*
X118318000Y-62251158D01*
X118350584Y-62166604D01*
X118423721Y-62085803D01*
X118429197Y-62074502D01*
X118482991Y-61963470D01*
X118482991Y-61963469D01*
X118486905Y-61955391D01*
X118510947Y-61812487D01*
X118511100Y-61800000D01*
X118500020Y-61722630D01*
X118491829Y-61665438D01*
X118491829Y-61665436D01*
X118490556Y-61656551D01*
X118484142Y-61642443D01*
X118474224Y-61620631D01*
X118430577Y-61524634D01*
X118335984Y-61414854D01*
X118308052Y-61396749D01*
X118221913Y-61340916D01*
X118221911Y-61340915D01*
X118214382Y-61336035D01*
X118205785Y-61333464D01*
X118205783Y-61333463D01*
X118086997Y-61297939D01*
X118075545Y-61294514D01*
X118066569Y-61294459D01*
X118066568Y-61294459D01*
X118004179Y-61294078D01*
X117930636Y-61293629D01*
X117922005Y-61296096D01*
X117922003Y-61296096D01*
X117799933Y-61330983D01*
X117799931Y-61330984D01*
X117791302Y-61333450D01*
X117783711Y-61338239D01*
X117783710Y-61338240D01*
X117734858Y-61369064D01*
X117668746Y-61410778D01*
X117572819Y-61519394D01*
X117511233Y-61650569D01*
X117509852Y-61659438D01*
X117500013Y-61722630D01*
X117488938Y-61793756D01*
X117490102Y-61802658D01*
X117490102Y-61802661D01*
X117506564Y-61928546D01*
X117507728Y-61937445D01*
X117566091Y-62070085D01*
X117652452Y-62172825D01*
X117682001Y-62253899D01*
X117682000Y-62604553D01*
X117681521Y-62615535D01*
X117678230Y-62653151D01*
X117687728Y-62688595D01*
X117690105Y-62699318D01*
X117696479Y-62735472D01*
X117701992Y-62745021D01*
X117703073Y-62747990D01*
X117704411Y-62750858D01*
X117707263Y-62761505D01*
X117713585Y-62770534D01*
X117713587Y-62770538D01*
X117728315Y-62791572D01*
X117734221Y-62800842D01*
X117748545Y-62825652D01*
X117765283Y-62894648D01*
X117742062Y-62961739D01*
X117674050Y-63009801D01*
X117599933Y-63030983D01*
X117599931Y-63030984D01*
X117591302Y-63033450D01*
X117583711Y-63038239D01*
X117583710Y-63038240D01*
X117476339Y-63105987D01*
X117468746Y-63110778D01*
X117372819Y-63219394D01*
X117353742Y-63260027D01*
X117325870Y-63319394D01*
X117311233Y-63350569D01*
X117309852Y-63359438D01*
X117292783Y-63469064D01*
X117288938Y-63493756D01*
X117290102Y-63502658D01*
X117290102Y-63502661D01*
X117305104Y-63617380D01*
X117307728Y-63637445D01*
X117366091Y-63770085D01*
X117459335Y-63881013D01*
X117466806Y-63885986D01*
X117466807Y-63885987D01*
X117572491Y-63956336D01*
X117572495Y-63956338D01*
X117579966Y-63961311D01*
X117604782Y-63969064D01*
X117683816Y-63993756D01*
X117718285Y-64004525D01*
X117727257Y-64004689D01*
X117727260Y-64004690D01*
X117793272Y-64005900D01*
X117863173Y-64007181D01*
X117964704Y-63979500D01*
X117994319Y-63971426D01*
X117994320Y-63971426D01*
X118002982Y-63969064D01*
X118010632Y-63964367D01*
X118010634Y-63964366D01*
X118118822Y-63897939D01*
X118118825Y-63897936D01*
X118126474Y-63893240D01*
X118133372Y-63885620D01*
X118217693Y-63792463D01*
X118217694Y-63792462D01*
X118223721Y-63785803D01*
X118231337Y-63770085D01*
X118282991Y-63663470D01*
X118282991Y-63663469D01*
X118286905Y-63655391D01*
X118288395Y-63646536D01*
X118288667Y-63644921D01*
X118289377Y-63643460D01*
X118291124Y-63637986D01*
X118291914Y-63638238D01*
X118319696Y-63581064D01*
X118380323Y-63544120D01*
X118451299Y-63545817D01*
X118502015Y-63576735D01*
X118845096Y-63919816D01*
X118882001Y-64008911D01*
X118882000Y-64922739D01*
X118882000Y-65779553D01*
X118881521Y-65790535D01*
X118878230Y-65828151D01*
X118887728Y-65863595D01*
X118890105Y-65874318D01*
X118896479Y-65910472D01*
X118901992Y-65920021D01*
X118903073Y-65922990D01*
X118904411Y-65925858D01*
X118907263Y-65936505D01*
X118913585Y-65945534D01*
X118913587Y-65945538D01*
X118928315Y-65966572D01*
X118934214Y-65975830D01*
X118952568Y-66007619D01*
X118961011Y-66014703D01*
X118961012Y-66014705D01*
X118981502Y-66031898D01*
X118989605Y-66039324D01*
X121460677Y-68510397D01*
X121468103Y-68518500D01*
X121492380Y-68547432D01*
X121501923Y-68552942D01*
X121501928Y-68552946D01*
X121524155Y-68565779D01*
X121533421Y-68571682D01*
X121554463Y-68586415D01*
X121554465Y-68586416D01*
X121563494Y-68592738D01*
X121574138Y-68595590D01*
X121576999Y-68596924D01*
X121579980Y-68598009D01*
X121589527Y-68603521D01*
X121625681Y-68609896D01*
X121636408Y-68612275D01*
X121661201Y-68618918D01*
X121661205Y-68618918D01*
X121671848Y-68621770D01*
X121682823Y-68620810D01*
X121682825Y-68620810D01*
X121709464Y-68618479D01*
X121720446Y-68618000D01*
X122147679Y-68618000D01*
X122215800Y-68638002D01*
X122244128Y-68662922D01*
X122259335Y-68681013D01*
X122266806Y-68685986D01*
X122266807Y-68685987D01*
X122372491Y-68756336D01*
X122372495Y-68756338D01*
X122379966Y-68761311D01*
X122404782Y-68769064D01*
X122494478Y-68797087D01*
X122518285Y-68804525D01*
X122527257Y-68804689D01*
X122527260Y-68804690D01*
X122593272Y-68805900D01*
X122663173Y-68807181D01*
X122733077Y-68788123D01*
X122794319Y-68771426D01*
X122794320Y-68771426D01*
X122802982Y-68769064D01*
X122810632Y-68764367D01*
X122810634Y-68764366D01*
X122918822Y-68697939D01*
X122918825Y-68697936D01*
X122926474Y-68693240D01*
X122933583Y-68685387D01*
X123017693Y-68592463D01*
X123017694Y-68592462D01*
X123023721Y-68585803D01*
X123049175Y-68533267D01*
X123082991Y-68463470D01*
X123082991Y-68463469D01*
X123086905Y-68455391D01*
X123088395Y-68446536D01*
X123088540Y-68445676D01*
X123088918Y-68444898D01*
X123091124Y-68437986D01*
X123092122Y-68438304D01*
X123119569Y-68381819D01*
X123180196Y-68344874D01*
X123251173Y-68346572D01*
X123301888Y-68377489D01*
X123387868Y-68463470D01*
X123458597Y-68534199D01*
X123495501Y-68623294D01*
X123495500Y-69726707D01*
X123458595Y-69815802D01*
X122094404Y-71179994D01*
X122005309Y-71216899D01*
X121107973Y-71216899D01*
X121097786Y-71216419D01*
X121090665Y-71214827D01*
X121042515Y-71216340D01*
X121026698Y-71216837D01*
X121022741Y-71216899D01*
X120989021Y-71216899D01*
X120985095Y-71217395D01*
X120985093Y-71217395D01*
X120984765Y-71217436D01*
X120983091Y-71217648D01*
X120971272Y-71218578D01*
X120925432Y-71220019D01*
X120917816Y-71222232D01*
X120917814Y-71222232D01*
X120905038Y-71225944D01*
X120885673Y-71229955D01*
X120881115Y-71230530D01*
X120872457Y-71231624D01*
X120872455Y-71231624D01*
X120864590Y-71232618D01*
X120821938Y-71249506D01*
X120810737Y-71253341D01*
X120766681Y-71266140D01*
X120759857Y-71270176D01*
X120759854Y-71270177D01*
X120748390Y-71276957D01*
X120730643Y-71285652D01*
X120710884Y-71293475D01*
X120704473Y-71298133D01*
X120673779Y-71320433D01*
X120663859Y-71326949D01*
X120624389Y-71350292D01*
X120622000Y-71352399D01*
X120608339Y-71366060D01*
X120593306Y-71378900D01*
X120577142Y-71390644D01*
X120572089Y-71396752D01*
X120549259Y-71424349D01*
X120541269Y-71433130D01*
X120209212Y-71765186D01*
X120132341Y-71864287D01*
X120129194Y-71871560D01*
X120129192Y-71871563D01*
X120109407Y-71917285D01*
X120066687Y-72016006D01*
X120040826Y-72179285D01*
X120041572Y-72187177D01*
X120054519Y-72324141D01*
X120056383Y-72343865D01*
X120059067Y-72351320D01*
X120098481Y-72460796D01*
X120112381Y-72499406D01*
X120205302Y-72636135D01*
X120211250Y-72641379D01*
X120211251Y-72641380D01*
X120243811Y-72670085D01*
X120329307Y-72745459D01*
X120336367Y-72749056D01*
X120336368Y-72749057D01*
X120469539Y-72816911D01*
X120469541Y-72816912D01*
X120476603Y-72820510D01*
X120637936Y-72856572D01*
X120803169Y-72851380D01*
X120810781Y-72849168D01*
X120810784Y-72849168D01*
X120954306Y-72807471D01*
X120954308Y-72807470D01*
X120961919Y-72805259D01*
X121104212Y-72721107D01*
X121106601Y-72719000D01*
X121262797Y-72562804D01*
X121351892Y-72525899D01*
X122249229Y-72525899D01*
X122259416Y-72526379D01*
X122266537Y-72527971D01*
X122330504Y-72525961D01*
X122334461Y-72525899D01*
X122368181Y-72525899D01*
X122372107Y-72525403D01*
X122372109Y-72525403D01*
X122372437Y-72525362D01*
X122374111Y-72525150D01*
X122385930Y-72524220D01*
X122431770Y-72522779D01*
X122439386Y-72520566D01*
X122439388Y-72520566D01*
X122452164Y-72516854D01*
X122471529Y-72512843D01*
X122475953Y-72512284D01*
X122484753Y-72511173D01*
X122484755Y-72511173D01*
X122492612Y-72510180D01*
X122501366Y-72506714D01*
X122535260Y-72493295D01*
X122546487Y-72489452D01*
X122582903Y-72478871D01*
X122590520Y-72476658D01*
X122608806Y-72465844D01*
X122626558Y-72457147D01*
X122633180Y-72454525D01*
X122646318Y-72449323D01*
X122683427Y-72422362D01*
X122693347Y-72415846D01*
X122699027Y-72412487D01*
X122732813Y-72392506D01*
X122735202Y-72390399D01*
X122748863Y-72376738D01*
X122763897Y-72363897D01*
X122765955Y-72362402D01*
X122780060Y-72352154D01*
X122785109Y-72346050D01*
X122785112Y-72346048D01*
X122807953Y-72318438D01*
X122815942Y-72309660D01*
X124556677Y-70568926D01*
X124564218Y-70562064D01*
X124570380Y-70558153D01*
X124614201Y-70511489D01*
X124616955Y-70508648D01*
X124640788Y-70484815D01*
X124643212Y-70481690D01*
X124643219Y-70481682D01*
X124644452Y-70480092D01*
X124652162Y-70471065D01*
X124678122Y-70443421D01*
X124683547Y-70437644D01*
X124693784Y-70419024D01*
X124704632Y-70402509D01*
X124717659Y-70385714D01*
X124720805Y-70378443D01*
X124720809Y-70378437D01*
X124735870Y-70343631D01*
X124741093Y-70332969D01*
X124759368Y-70299727D01*
X124759369Y-70299726D01*
X124763188Y-70292778D01*
X124765354Y-70284344D01*
X124768473Y-70272194D01*
X124774876Y-70253491D01*
X124776034Y-70250815D01*
X124783313Y-70233995D01*
X124784719Y-70225123D01*
X124788976Y-70198239D01*
X124790487Y-70188699D01*
X124792890Y-70177095D01*
X124804300Y-70132657D01*
X124804500Y-70129478D01*
X124804500Y-70110145D01*
X124806051Y-70090434D01*
X124807934Y-70078545D01*
X124809174Y-70070716D01*
X124806425Y-70041633D01*
X124805059Y-70027185D01*
X124804500Y-70015327D01*
X124804500Y-69293756D01*
X141088938Y-69293756D01*
X141090102Y-69302658D01*
X141090102Y-69302661D01*
X141106564Y-69428546D01*
X141107728Y-69437445D01*
X141166091Y-69570085D01*
X141259335Y-69681013D01*
X141266806Y-69685986D01*
X141266807Y-69685987D01*
X141372491Y-69756336D01*
X141372495Y-69756338D01*
X141379966Y-69761311D01*
X141518285Y-69804525D01*
X141527257Y-69804689D01*
X141527260Y-69804690D01*
X141593272Y-69805900D01*
X141663173Y-69807181D01*
X141766916Y-69778897D01*
X141794319Y-69771426D01*
X141794320Y-69771426D01*
X141802982Y-69769064D01*
X141884455Y-69719040D01*
X141952972Y-69700443D01*
X142020200Y-69721528D01*
X142044100Y-69737437D01*
X142079966Y-69761311D01*
X142218285Y-69804525D01*
X142227257Y-69804689D01*
X142227260Y-69804690D01*
X142293272Y-69805900D01*
X142363173Y-69807181D01*
X142466916Y-69778897D01*
X142494319Y-69771426D01*
X142494320Y-69771426D01*
X142502982Y-69769064D01*
X142510632Y-69764367D01*
X142510634Y-69764366D01*
X142618822Y-69697939D01*
X142618825Y-69697936D01*
X142626474Y-69693240D01*
X142637542Y-69681013D01*
X142717693Y-69592463D01*
X142717694Y-69592462D01*
X142723721Y-69585803D01*
X142731337Y-69570085D01*
X142782991Y-69463470D01*
X142782991Y-69463469D01*
X142786905Y-69455391D01*
X142810947Y-69312487D01*
X142811100Y-69300000D01*
X142807655Y-69275941D01*
X142791829Y-69165438D01*
X142791829Y-69165436D01*
X142790556Y-69156551D01*
X142784142Y-69142443D01*
X142761642Y-69092958D01*
X142730577Y-69024634D01*
X142635984Y-68914854D01*
X142612603Y-68899699D01*
X142521913Y-68840916D01*
X142521911Y-68840915D01*
X142514382Y-68836035D01*
X142505785Y-68833464D01*
X142505783Y-68833463D01*
X142417349Y-68807016D01*
X142375545Y-68794514D01*
X142366569Y-68794459D01*
X142366568Y-68794459D01*
X142304179Y-68794078D01*
X142230636Y-68793629D01*
X142222005Y-68796096D01*
X142222003Y-68796096D01*
X142099933Y-68830983D01*
X142099931Y-68830984D01*
X142091302Y-68833450D01*
X142017106Y-68880265D01*
X141948824Y-68899699D01*
X141881340Y-68879435D01*
X141814382Y-68836035D01*
X141805785Y-68833464D01*
X141805783Y-68833463D01*
X141717349Y-68807016D01*
X141675545Y-68794514D01*
X141666569Y-68794459D01*
X141666568Y-68794459D01*
X141604179Y-68794078D01*
X141530636Y-68793629D01*
X141522005Y-68796096D01*
X141522003Y-68796096D01*
X141399933Y-68830983D01*
X141399931Y-68830984D01*
X141391302Y-68833450D01*
X141383714Y-68838238D01*
X141383710Y-68838240D01*
X141276339Y-68905987D01*
X141268746Y-68910778D01*
X141172819Y-69019394D01*
X141111233Y-69150569D01*
X141109852Y-69159438D01*
X141091924Y-69274580D01*
X141088938Y-69293756D01*
X124804500Y-69293756D01*
X124804500Y-68379372D01*
X124804980Y-68369185D01*
X124806572Y-68362064D01*
X124804562Y-68298097D01*
X124804500Y-68294140D01*
X124804500Y-68260420D01*
X124803751Y-68254490D01*
X124802820Y-68242662D01*
X124802308Y-68226348D01*
X124801380Y-68196831D01*
X124798244Y-68186035D01*
X124795455Y-68176437D01*
X124791444Y-68157071D01*
X124789775Y-68143856D01*
X124789775Y-68143854D01*
X124788781Y-68135989D01*
X124771893Y-68093337D01*
X124768058Y-68082136D01*
X124755259Y-68038080D01*
X124744444Y-68019793D01*
X124735747Y-68002043D01*
X124727924Y-67982283D01*
X124705812Y-67951848D01*
X124700966Y-67945178D01*
X124694450Y-67935258D01*
X124671107Y-67895787D01*
X124669001Y-67893398D01*
X124655331Y-67879729D01*
X124642490Y-67864694D01*
X124630755Y-67848541D01*
X124597050Y-67820658D01*
X124588280Y-67812676D01*
X124045545Y-67269941D01*
X124011519Y-67207629D01*
X124016584Y-67136814D01*
X124059131Y-67079978D01*
X124136950Y-67054867D01*
X124263173Y-67057181D01*
X124333077Y-67038123D01*
X124394319Y-67021426D01*
X124394320Y-67021426D01*
X124402982Y-67019064D01*
X124410632Y-67014367D01*
X124410634Y-67014366D01*
X124518822Y-66947939D01*
X124518825Y-66947936D01*
X124526474Y-66943240D01*
X124557519Y-66908942D01*
X124618060Y-66871863D01*
X124720751Y-66888612D01*
X124822490Y-66956335D01*
X124822492Y-66956336D01*
X124829966Y-66961311D01*
X124968285Y-67004525D01*
X124977257Y-67004689D01*
X124977260Y-67004690D01*
X125043272Y-67005900D01*
X125113173Y-67007181D01*
X125200216Y-66983450D01*
X125244319Y-66971426D01*
X125244320Y-66971426D01*
X125252982Y-66969064D01*
X125260632Y-66964367D01*
X125260634Y-66964366D01*
X125368822Y-66897939D01*
X125368825Y-66897936D01*
X125376474Y-66893240D01*
X125385661Y-66883091D01*
X125467693Y-66792463D01*
X125467694Y-66792462D01*
X125473721Y-66785803D01*
X125490371Y-66751439D01*
X125532991Y-66663470D01*
X125532991Y-66663469D01*
X125536905Y-66655391D01*
X125555491Y-66544917D01*
X125560140Y-66517285D01*
X125560140Y-66517282D01*
X125560947Y-66512487D01*
X125561100Y-66500000D01*
X125556661Y-66469000D01*
X125541829Y-66365438D01*
X125541829Y-66365436D01*
X125540556Y-66356551D01*
X125484921Y-66234188D01*
X125474935Y-66163897D01*
X125504535Y-66099366D01*
X125564325Y-66061082D01*
X125601930Y-66056058D01*
X125663173Y-66057181D01*
X125756697Y-66031683D01*
X125794319Y-66021426D01*
X125794320Y-66021426D01*
X125802982Y-66019064D01*
X125810632Y-66014367D01*
X125810634Y-66014366D01*
X125918822Y-65947939D01*
X125918825Y-65947936D01*
X125926474Y-65943240D01*
X125932571Y-65936505D01*
X126017693Y-65842463D01*
X126017694Y-65842462D01*
X126023721Y-65835803D01*
X126028112Y-65826741D01*
X126082991Y-65713470D01*
X126082991Y-65713469D01*
X126086905Y-65705391D01*
X126110947Y-65562487D01*
X126111100Y-65550000D01*
X126090556Y-65406551D01*
X126084142Y-65392443D01*
X126034293Y-65282808D01*
X126030577Y-65274634D01*
X125935984Y-65164854D01*
X125922304Y-65155987D01*
X125821913Y-65090916D01*
X125821911Y-65090915D01*
X125814382Y-65086035D01*
X125805785Y-65083464D01*
X125805783Y-65083463D01*
X125721990Y-65058404D01*
X125675545Y-65044514D01*
X125666569Y-65044459D01*
X125666568Y-65044459D01*
X125604179Y-65044078D01*
X125530636Y-65043629D01*
X125522005Y-65046096D01*
X125522003Y-65046096D01*
X125399933Y-65080983D01*
X125399931Y-65080984D01*
X125391302Y-65083450D01*
X125383711Y-65088239D01*
X125383710Y-65088240D01*
X125307810Y-65136130D01*
X125268746Y-65160778D01*
X125172819Y-65269394D01*
X125111233Y-65400569D01*
X125088938Y-65543756D01*
X125090102Y-65552658D01*
X125090102Y-65552661D01*
X125105222Y-65668281D01*
X125107728Y-65687445D01*
X125150211Y-65783995D01*
X125164866Y-65817301D01*
X125173994Y-65887708D01*
X125143607Y-65951873D01*
X125048768Y-65994045D01*
X125027547Y-65993915D01*
X124980636Y-65993629D01*
X124972005Y-65996096D01*
X124972003Y-65996096D01*
X124849933Y-66030983D01*
X124849931Y-66030984D01*
X124841302Y-66033450D01*
X124833711Y-66038239D01*
X124833710Y-66038240D01*
X124736833Y-66099366D01*
X124718746Y-66110778D01*
X124700685Y-66131228D01*
X124693707Y-66139129D01*
X124633620Y-66176946D01*
X124530734Y-66161451D01*
X124421913Y-66090916D01*
X124421911Y-66090915D01*
X124414382Y-66086035D01*
X124405785Y-66083464D01*
X124405783Y-66083463D01*
X124317349Y-66057016D01*
X124275545Y-66044514D01*
X124266569Y-66044459D01*
X124266568Y-66044459D01*
X124204179Y-66044078D01*
X124130636Y-66043629D01*
X124122005Y-66046096D01*
X124122003Y-66046096D01*
X123999933Y-66080983D01*
X123999931Y-66080984D01*
X123991302Y-66083450D01*
X123983711Y-66088239D01*
X123983710Y-66088240D01*
X123903057Y-66139129D01*
X123868746Y-66160778D01*
X123862803Y-66167507D01*
X123800346Y-66238226D01*
X123740260Y-66276044D01*
X123669267Y-66275374D01*
X123609906Y-66236428D01*
X123593333Y-66205719D01*
X123591131Y-66206720D01*
X123578943Y-66179914D01*
X123531152Y-66074803D01*
X123436559Y-65965023D01*
X123402952Y-65943240D01*
X123322488Y-65891085D01*
X123322486Y-65891084D01*
X123314957Y-65886204D01*
X123306360Y-65883633D01*
X123306358Y-65883632D01*
X123222565Y-65858573D01*
X123176120Y-65844683D01*
X123167144Y-65844628D01*
X123167143Y-65844628D01*
X123104754Y-65844247D01*
X123031211Y-65843798D01*
X123022580Y-65846265D01*
X123022578Y-65846265D01*
X122900508Y-65881152D01*
X122900506Y-65881153D01*
X122891877Y-65883619D01*
X122884286Y-65888409D01*
X122881949Y-65889454D01*
X122811598Y-65899011D01*
X122747249Y-65869017D01*
X122704500Y-65774437D01*
X122704500Y-64173291D01*
X122741405Y-64084196D01*
X123436987Y-63388615D01*
X125606677Y-61218926D01*
X125614218Y-61212064D01*
X125620380Y-61208153D01*
X125664201Y-61161489D01*
X125666955Y-61158648D01*
X125690788Y-61134815D01*
X125693212Y-61131690D01*
X125693219Y-61131682D01*
X125694452Y-61130092D01*
X125702162Y-61121065D01*
X125728122Y-61093421D01*
X125733547Y-61087644D01*
X125743784Y-61069024D01*
X125754632Y-61052509D01*
X125767659Y-61035714D01*
X125770805Y-61028443D01*
X125770809Y-61028437D01*
X125779299Y-61008816D01*
X125805841Y-60969760D01*
X125881845Y-60893756D01*
X151888938Y-60893756D01*
X151890102Y-60902658D01*
X151890102Y-60902661D01*
X151903984Y-61008816D01*
X151907728Y-61037445D01*
X151921624Y-61069025D01*
X151961059Y-61158648D01*
X151966091Y-61170085D01*
X152059335Y-61281013D01*
X152066806Y-61285986D01*
X152066807Y-61285987D01*
X152172491Y-61356336D01*
X152172495Y-61356338D01*
X152179966Y-61361311D01*
X152199427Y-61367391D01*
X152293396Y-61396749D01*
X152318285Y-61404525D01*
X152327257Y-61404689D01*
X152327260Y-61404690D01*
X152393272Y-61405900D01*
X152463173Y-61407181D01*
X152533077Y-61388123D01*
X152594319Y-61371426D01*
X152594320Y-61371426D01*
X152602982Y-61369064D01*
X152610632Y-61364367D01*
X152610634Y-61364366D01*
X152718822Y-61297939D01*
X152718825Y-61297936D01*
X152726474Y-61293240D01*
X152737542Y-61281013D01*
X152817693Y-61192463D01*
X152817694Y-61192462D01*
X152823721Y-61185803D01*
X152831337Y-61170085D01*
X152882991Y-61063470D01*
X152882991Y-61063469D01*
X152886905Y-61055391D01*
X152901311Y-60969760D01*
X152910140Y-60917285D01*
X152910140Y-60917282D01*
X152910947Y-60912487D01*
X152911100Y-60900000D01*
X152904321Y-60852661D01*
X152891829Y-60765438D01*
X152891829Y-60765436D01*
X152890556Y-60756551D01*
X152885532Y-60745500D01*
X152855619Y-60679712D01*
X152830577Y-60624634D01*
X152735984Y-60514854D01*
X152691164Y-60485803D01*
X152621913Y-60440916D01*
X152621911Y-60440915D01*
X152614382Y-60436035D01*
X152605785Y-60433464D01*
X152605783Y-60433463D01*
X152504301Y-60403114D01*
X152475545Y-60394514D01*
X152466569Y-60394459D01*
X152466568Y-60394459D01*
X152404179Y-60394078D01*
X152330636Y-60393629D01*
X152322005Y-60396096D01*
X152322003Y-60396096D01*
X152199933Y-60430983D01*
X152199931Y-60430984D01*
X152191302Y-60433450D01*
X152183711Y-60438239D01*
X152183710Y-60438240D01*
X152078108Y-60504871D01*
X152068746Y-60510778D01*
X151972819Y-60619394D01*
X151964344Y-60637445D01*
X151922530Y-60726508D01*
X151911233Y-60750569D01*
X151909852Y-60759438D01*
X151891838Y-60875134D01*
X151888938Y-60893756D01*
X125881845Y-60893756D01*
X126084198Y-60691404D01*
X126173293Y-60654500D01*
X146639580Y-60654500D01*
X146687645Y-60648428D01*
X146756146Y-60639775D01*
X146756149Y-60639774D01*
X146764011Y-60638781D01*
X146771377Y-60635864D01*
X146771379Y-60635864D01*
X146910348Y-60580842D01*
X146910350Y-60580841D01*
X146917717Y-60577924D01*
X146995164Y-60521656D01*
X147045045Y-60485415D01*
X147051459Y-60480755D01*
X147080182Y-60446035D01*
X147151781Y-60359487D01*
X147151784Y-60359483D01*
X147156834Y-60353378D01*
X147227222Y-60203797D01*
X147228867Y-60195173D01*
X147256714Y-60049196D01*
X147256714Y-60049194D01*
X147258199Y-60041410D01*
X147251033Y-59927520D01*
X147248316Y-59884333D01*
X147248316Y-59884331D01*
X147247818Y-59876422D01*
X147244292Y-59865568D01*
X147229302Y-59819436D01*
X147227274Y-59748469D01*
X147263937Y-59687671D01*
X147349135Y-59654500D01*
X151576708Y-59654500D01*
X151665803Y-59691405D01*
X151781062Y-59806664D01*
X151787934Y-59814216D01*
X151791847Y-59820381D01*
X151797625Y-59825807D01*
X151838538Y-59864227D01*
X151841380Y-59866982D01*
X151865186Y-59890788D01*
X151869853Y-59894408D01*
X151869898Y-59894443D01*
X151878925Y-59902153D01*
X151912356Y-59933547D01*
X151919305Y-59937367D01*
X151930973Y-59943782D01*
X151947497Y-59954636D01*
X151964286Y-59967659D01*
X151971563Y-59970808D01*
X152006369Y-59985870D01*
X152017031Y-59991093D01*
X152026132Y-59996096D01*
X152057222Y-60013188D01*
X152064898Y-60015159D01*
X152064901Y-60015160D01*
X152077806Y-60018473D01*
X152096504Y-60024874D01*
X152116005Y-60033313D01*
X152123835Y-60034553D01*
X152123838Y-60034554D01*
X152146803Y-60038191D01*
X152161301Y-60040487D01*
X152172905Y-60042890D01*
X152217343Y-60054300D01*
X152220522Y-60054500D01*
X152239855Y-60054500D01*
X152259567Y-60056051D01*
X152279284Y-60059174D01*
X152287176Y-60058428D01*
X152287177Y-60058428D01*
X152317879Y-60055526D01*
X152342860Y-60056703D01*
X152342891Y-60056216D01*
X152350804Y-60056714D01*
X152358590Y-60058199D01*
X152413421Y-60054749D01*
X152421334Y-60054500D01*
X152439580Y-60054500D01*
X152443512Y-60054003D01*
X152443517Y-60054003D01*
X152457699Y-60052212D01*
X152465574Y-60051468D01*
X152505839Y-60048934D01*
X152523577Y-60047818D01*
X152532032Y-60045071D01*
X152555174Y-60039898D01*
X152564011Y-60038781D01*
X152577476Y-60033450D01*
X152618086Y-60017371D01*
X152625534Y-60014690D01*
X152673255Y-59999185D01*
X152673258Y-59999183D01*
X152680800Y-59996733D01*
X152687496Y-59992483D01*
X152687501Y-59992481D01*
X152688306Y-59991970D01*
X152709439Y-59981202D01*
X152710342Y-59980844D01*
X152710343Y-59980843D01*
X152717717Y-59977924D01*
X152764767Y-59943741D01*
X152771310Y-59939294D01*
X152820380Y-59908153D01*
X152826466Y-59901672D01*
X152844258Y-59885987D01*
X152845045Y-59885416D01*
X152845050Y-59885411D01*
X152851459Y-59880755D01*
X152857463Y-59873498D01*
X152888522Y-59835953D01*
X152893758Y-59830014D01*
X152928120Y-59793423D01*
X152933547Y-59787644D01*
X152937834Y-59779846D01*
X152951162Y-59760234D01*
X152951782Y-59759485D01*
X152951783Y-59759484D01*
X152956834Y-59753378D01*
X152981585Y-59700780D01*
X152985178Y-59693728D01*
X153006254Y-59655391D01*
X153013188Y-59642778D01*
X153015401Y-59634161D01*
X153023434Y-59611848D01*
X153023847Y-59610971D01*
X153023849Y-59610966D01*
X153027222Y-59603797D01*
X153038121Y-59546659D01*
X153039836Y-59538988D01*
X153050338Y-59498089D01*
X153052822Y-59488414D01*
X153052822Y-59488412D01*
X153054300Y-59482657D01*
X153054500Y-59479478D01*
X153054500Y-59472710D01*
X153056696Y-59449482D01*
X153056714Y-59449194D01*
X153058199Y-59441410D01*
X153054749Y-59386578D01*
X153054500Y-59378666D01*
X153054500Y-58979372D01*
X153054980Y-58969185D01*
X153056572Y-58962064D01*
X153054562Y-58898097D01*
X153054500Y-58894140D01*
X153054500Y-58860420D01*
X153053751Y-58854490D01*
X153052820Y-58842662D01*
X153051629Y-58804757D01*
X153051380Y-58796831D01*
X153045455Y-58776437D01*
X153041444Y-58757071D01*
X153039774Y-58743848D01*
X153039774Y-58743846D01*
X153038781Y-58735989D01*
X153021896Y-58693341D01*
X153018053Y-58682114D01*
X153007472Y-58645698D01*
X153005259Y-58638081D01*
X152994445Y-58619795D01*
X152985748Y-58602043D01*
X152980843Y-58589656D01*
X152977924Y-58582283D01*
X152950963Y-58545174D01*
X152944447Y-58535254D01*
X152926959Y-58505684D01*
X152921107Y-58495788D01*
X152919001Y-58493399D01*
X152905337Y-58479735D01*
X152892496Y-58464701D01*
X152885415Y-58454955D01*
X152880755Y-58448541D01*
X152847049Y-58420657D01*
X152838270Y-58412668D01*
X152714219Y-58288617D01*
X152699355Y-58270650D01*
X152699154Y-58270422D01*
X152694698Y-58263865D01*
X152681922Y-58252601D01*
X152653479Y-58227526D01*
X152647709Y-58222107D01*
X152634814Y-58209212D01*
X152620394Y-58198027D01*
X152614304Y-58192988D01*
X152576641Y-58159784D01*
X152576637Y-58159781D01*
X152570693Y-58154541D01*
X152562767Y-58150503D01*
X152542746Y-58137797D01*
X152541978Y-58137201D01*
X152535713Y-58132341D01*
X152482340Y-58109245D01*
X152475181Y-58105876D01*
X152474118Y-58105334D01*
X152423397Y-58079490D01*
X152414710Y-58077548D01*
X152392161Y-58070221D01*
X152391271Y-58069836D01*
X152391272Y-58069836D01*
X152383994Y-58066687D01*
X152366758Y-58063957D01*
X152326567Y-58057591D01*
X152318794Y-58056108D01*
X152269800Y-58045157D01*
X152269799Y-58045157D01*
X152262064Y-58043428D01*
X152253934Y-58043683D01*
X152253166Y-58043707D01*
X152229511Y-58042219D01*
X152228545Y-58042066D01*
X152220715Y-58040826D01*
X152212823Y-58041572D01*
X152162833Y-58046297D01*
X152154934Y-58046794D01*
X152106086Y-58048329D01*
X152096830Y-58048620D01*
X152089216Y-58050832D01*
X152088287Y-58051102D01*
X152064990Y-58055546D01*
X152064022Y-58055637D01*
X152064018Y-58055638D01*
X152056135Y-58056383D01*
X152017699Y-58070221D01*
X152001436Y-58076076D01*
X151993907Y-58078522D01*
X151945699Y-58092527D01*
X151945695Y-58092529D01*
X151938080Y-58094741D01*
X151930421Y-58099271D01*
X151908962Y-58109368D01*
X151900594Y-58112381D01*
X151894035Y-58116838D01*
X151894032Y-58116840D01*
X151852504Y-58145062D01*
X151845826Y-58149300D01*
X151795788Y-58178893D01*
X151793398Y-58181000D01*
X151788617Y-58185781D01*
X151770650Y-58200645D01*
X151770422Y-58200846D01*
X151763865Y-58205302D01*
X151758621Y-58211250D01*
X151758620Y-58211251D01*
X151727526Y-58246521D01*
X151722107Y-58252291D01*
X151665803Y-58308595D01*
X151576708Y-58345500D01*
X148434086Y-58345500D01*
X148365965Y-58325498D01*
X148319472Y-58271842D01*
X148309368Y-58201568D01*
X148338705Y-58137169D01*
X148461327Y-57995110D01*
X148461328Y-57995108D01*
X148465356Y-57990442D01*
X148567445Y-57810734D01*
X148632683Y-57614620D01*
X148658587Y-57409569D01*
X148658908Y-57386583D01*
X148658951Y-57383523D01*
X148658951Y-57383519D01*
X148659000Y-57380000D01*
X148638832Y-57174306D01*
X148579094Y-56976446D01*
X148482064Y-56793958D01*
X148477164Y-56787950D01*
X148355330Y-56638567D01*
X148355327Y-56638564D01*
X148351435Y-56633792D01*
X148344545Y-56628092D01*
X148196935Y-56505978D01*
X148196931Y-56505976D01*
X148192185Y-56502049D01*
X148010379Y-56403747D01*
X147870234Y-56360365D01*
X147811074Y-56321114D01*
X147782527Y-56256109D01*
X147793656Y-56185990D01*
X147840927Y-56133019D01*
X147907493Y-56114000D01*
X151346177Y-56114000D01*
X151372656Y-56116814D01*
X151374831Y-56117282D01*
X151374838Y-56117283D01*
X151380882Y-56118582D01*
X151459951Y-56119799D01*
X151554317Y-56121252D01*
X151567565Y-56122156D01*
X151859020Y-56157545D01*
X151873986Y-56160287D01*
X152156191Y-56229845D01*
X152170716Y-56234372D01*
X152442469Y-56337434D01*
X152456338Y-56343677D01*
X152655834Y-56448380D01*
X152713680Y-56478740D01*
X152726700Y-56486610D01*
X152771462Y-56517507D01*
X152965900Y-56651719D01*
X152977877Y-56661103D01*
X153195422Y-56853832D01*
X153206180Y-56864591D01*
X153398906Y-57082134D01*
X153408287Y-57094107D01*
X153524082Y-57261865D01*
X153573387Y-57333296D01*
X153581259Y-57346317D01*
X153716326Y-57603667D01*
X153722570Y-57617542D01*
X153825630Y-57889288D01*
X153830157Y-57903814D01*
X153899713Y-58186015D01*
X153902455Y-58200981D01*
X153937844Y-58492436D01*
X153938748Y-58505683D01*
X153941418Y-58679118D01*
X153942717Y-58685162D01*
X153942718Y-58685169D01*
X153943186Y-58687344D01*
X153946000Y-58713823D01*
X153946001Y-76366173D01*
X153943187Y-76392651D01*
X153941418Y-76400882D01*
X153940234Y-76477814D01*
X153938748Y-76574316D01*
X153937844Y-76587564D01*
X153902455Y-76879019D01*
X153899713Y-76893985D01*
X153830157Y-77176186D01*
X153825630Y-77190712D01*
X153722570Y-77462458D01*
X153716326Y-77476333D01*
X153581259Y-77733683D01*
X153573388Y-77746702D01*
X153447903Y-77928500D01*
X153408290Y-77985889D01*
X153398906Y-77997866D01*
X153206180Y-78215409D01*
X153195422Y-78226168D01*
X152977877Y-78418897D01*
X152965900Y-78428281D01*
X152949447Y-78439638D01*
X152734401Y-78588075D01*
X152726702Y-78593389D01*
X152713682Y-78601259D01*
X152487122Y-78720167D01*
X152456341Y-78736322D01*
X152442469Y-78742566D01*
X152248220Y-78816235D01*
X152170717Y-78845628D01*
X152156191Y-78850155D01*
X151873986Y-78919713D01*
X151859020Y-78922455D01*
X151567565Y-78957844D01*
X151554317Y-78958748D01*
X151459951Y-78960201D01*
X151380882Y-78961418D01*
X151374838Y-78962717D01*
X151374831Y-78962718D01*
X151372656Y-78963186D01*
X151346177Y-78966000D01*
X147904703Y-78966000D01*
X147836582Y-78945998D01*
X147790089Y-78892342D01*
X147779985Y-78822068D01*
X147809479Y-78757488D01*
X147870819Y-78718641D01*
X147977032Y-78688986D01*
X147977031Y-78688986D01*
X147982960Y-78687331D01*
X148167441Y-78594143D01*
X148183249Y-78581793D01*
X148325451Y-78470692D01*
X148330307Y-78466898D01*
X148361456Y-78430812D01*
X148461327Y-78315110D01*
X148461328Y-78315108D01*
X148465356Y-78310442D01*
X148567445Y-78130734D01*
X148632683Y-77934620D01*
X148658587Y-77729569D01*
X148659000Y-77700000D01*
X148638832Y-77494306D01*
X148579094Y-77296446D01*
X148482064Y-77113958D01*
X148478169Y-77109182D01*
X148355330Y-76958567D01*
X148355327Y-76958564D01*
X148351435Y-76953792D01*
X148338841Y-76943373D01*
X148196935Y-76825978D01*
X148196931Y-76825976D01*
X148192185Y-76822049D01*
X148010379Y-76723747D01*
X147901690Y-76690102D01*
X147818829Y-76664452D01*
X147818826Y-76664451D01*
X147812942Y-76662630D01*
X147806817Y-76661986D01*
X147806816Y-76661986D01*
X147613521Y-76641670D01*
X147613520Y-76641670D01*
X147607393Y-76641026D01*
X147539805Y-76647177D01*
X147407702Y-76659199D01*
X147407699Y-76659200D01*
X147401563Y-76659758D01*
X147395657Y-76661496D01*
X147395653Y-76661497D01*
X147298462Y-76690102D01*
X147203292Y-76718112D01*
X147020131Y-76813867D01*
X146859057Y-76943373D01*
X146726205Y-77101700D01*
X146723241Y-77107092D01*
X146723238Y-77107096D01*
X146642377Y-77254183D01*
X146626636Y-77282816D01*
X146624775Y-77288683D01*
X146624774Y-77288685D01*
X146622312Y-77296446D01*
X146564142Y-77479822D01*
X146541103Y-77685214D01*
X146558398Y-77891170D01*
X146560097Y-77897095D01*
X146597934Y-78029047D01*
X146615367Y-78089844D01*
X146709840Y-78273669D01*
X146838219Y-78435643D01*
X146995614Y-78569597D01*
X147000992Y-78572603D01*
X147000994Y-78572604D01*
X147052268Y-78601260D01*
X147176030Y-78670428D01*
X147219509Y-78684555D01*
X147329111Y-78720167D01*
X147387717Y-78760240D01*
X147415354Y-78825637D01*
X147403247Y-78895594D01*
X147355241Y-78947900D01*
X147290175Y-78966000D01*
X145364703Y-78966000D01*
X145296582Y-78945998D01*
X145250089Y-78892342D01*
X145239985Y-78822068D01*
X145269479Y-78757488D01*
X145330819Y-78718641D01*
X145437032Y-78688986D01*
X145437031Y-78688986D01*
X145442960Y-78687331D01*
X145627441Y-78594143D01*
X145643249Y-78581793D01*
X145785451Y-78470692D01*
X145790307Y-78466898D01*
X145821456Y-78430812D01*
X145921327Y-78315110D01*
X145921328Y-78315108D01*
X145925356Y-78310442D01*
X146027445Y-78130734D01*
X146092683Y-77934620D01*
X146118587Y-77729569D01*
X146119000Y-77700000D01*
X146098832Y-77494306D01*
X146039094Y-77296446D01*
X145942064Y-77113958D01*
X145938169Y-77109182D01*
X145815330Y-76958567D01*
X145815327Y-76958564D01*
X145811435Y-76953792D01*
X145798841Y-76943373D01*
X145656935Y-76825978D01*
X145656931Y-76825976D01*
X145652185Y-76822049D01*
X145470379Y-76723747D01*
X145361690Y-76690102D01*
X145278829Y-76664452D01*
X145278826Y-76664451D01*
X145272942Y-76662630D01*
X145266817Y-76661986D01*
X145266816Y-76661986D01*
X145073521Y-76641670D01*
X145073520Y-76641670D01*
X145067393Y-76641026D01*
X144999805Y-76647177D01*
X144867702Y-76659199D01*
X144867699Y-76659200D01*
X144861563Y-76659758D01*
X144855657Y-76661496D01*
X144855653Y-76661497D01*
X144758462Y-76690102D01*
X144663292Y-76718112D01*
X144480131Y-76813867D01*
X144319057Y-76943373D01*
X144186205Y-77101700D01*
X144183241Y-77107092D01*
X144183238Y-77107096D01*
X144102377Y-77254183D01*
X144086636Y-77282816D01*
X144084775Y-77288683D01*
X144084774Y-77288685D01*
X144082312Y-77296446D01*
X144024142Y-77479822D01*
X144001103Y-77685214D01*
X144018398Y-77891170D01*
X144020097Y-77897095D01*
X144057934Y-78029047D01*
X144075367Y-78089844D01*
X144169840Y-78273669D01*
X144298219Y-78435643D01*
X144455614Y-78569597D01*
X144460992Y-78572603D01*
X144460994Y-78572604D01*
X144512268Y-78601260D01*
X144636030Y-78670428D01*
X144679509Y-78684555D01*
X144789111Y-78720167D01*
X144847717Y-78760240D01*
X144875354Y-78825637D01*
X144863247Y-78895594D01*
X144815241Y-78947900D01*
X144750175Y-78966000D01*
X142824703Y-78966000D01*
X142756582Y-78945998D01*
X142710089Y-78892342D01*
X142699985Y-78822068D01*
X142729479Y-78757488D01*
X142790819Y-78718641D01*
X142897032Y-78688986D01*
X142897031Y-78688986D01*
X142902960Y-78687331D01*
X143087441Y-78594143D01*
X143103249Y-78581793D01*
X143245451Y-78470692D01*
X143250307Y-78466898D01*
X143281456Y-78430812D01*
X143381327Y-78315110D01*
X143381328Y-78315108D01*
X143385356Y-78310442D01*
X143487445Y-78130734D01*
X143552683Y-77934620D01*
X143578587Y-77729569D01*
X143579000Y-77700000D01*
X143558832Y-77494306D01*
X143499094Y-77296446D01*
X143402064Y-77113958D01*
X143398169Y-77109182D01*
X143275330Y-76958567D01*
X143275327Y-76958564D01*
X143271435Y-76953792D01*
X143258841Y-76943373D01*
X143116935Y-76825978D01*
X143116931Y-76825976D01*
X143112185Y-76822049D01*
X142930379Y-76723747D01*
X142821690Y-76690102D01*
X142738829Y-76664452D01*
X142738826Y-76664451D01*
X142732942Y-76662630D01*
X142726817Y-76661986D01*
X142726816Y-76661986D01*
X142533521Y-76641670D01*
X142533520Y-76641670D01*
X142527393Y-76641026D01*
X142459805Y-76647177D01*
X142327702Y-76659199D01*
X142327699Y-76659200D01*
X142321563Y-76659758D01*
X142315657Y-76661496D01*
X142315653Y-76661497D01*
X142218462Y-76690102D01*
X142123292Y-76718112D01*
X141940131Y-76813867D01*
X141779057Y-76943373D01*
X141646205Y-77101700D01*
X141643241Y-77107092D01*
X141643238Y-77107096D01*
X141562377Y-77254183D01*
X141546636Y-77282816D01*
X141544775Y-77288683D01*
X141544774Y-77288685D01*
X141542312Y-77296446D01*
X141484142Y-77479822D01*
X141461103Y-77685214D01*
X141478398Y-77891170D01*
X141480097Y-77897095D01*
X141517934Y-78029047D01*
X141535367Y-78089844D01*
X141629840Y-78273669D01*
X141758219Y-78435643D01*
X141915614Y-78569597D01*
X141920992Y-78572603D01*
X141920994Y-78572604D01*
X141972268Y-78601260D01*
X142096030Y-78670428D01*
X142139509Y-78684555D01*
X142249111Y-78720167D01*
X142307717Y-78760240D01*
X142335354Y-78825637D01*
X142323247Y-78895594D01*
X142275241Y-78947900D01*
X142210175Y-78966000D01*
X140284703Y-78966000D01*
X140216582Y-78945998D01*
X140170089Y-78892342D01*
X140159985Y-78822068D01*
X140189479Y-78757488D01*
X140250819Y-78718641D01*
X140357032Y-78688986D01*
X140357031Y-78688986D01*
X140362960Y-78687331D01*
X140547441Y-78594143D01*
X140563249Y-78581793D01*
X140705451Y-78470692D01*
X140710307Y-78466898D01*
X140741456Y-78430812D01*
X140841327Y-78315110D01*
X140841328Y-78315108D01*
X140845356Y-78310442D01*
X140947445Y-78130734D01*
X141012683Y-77934620D01*
X141038587Y-77729569D01*
X141039000Y-77700000D01*
X141018832Y-77494306D01*
X140959094Y-77296446D01*
X140862064Y-77113958D01*
X140858169Y-77109182D01*
X140735330Y-76958567D01*
X140735327Y-76958564D01*
X140731435Y-76953792D01*
X140718841Y-76943373D01*
X140576935Y-76825978D01*
X140576931Y-76825976D01*
X140572185Y-76822049D01*
X140390379Y-76723747D01*
X140281690Y-76690102D01*
X140198829Y-76664452D01*
X140198826Y-76664451D01*
X140192942Y-76662630D01*
X140186817Y-76661986D01*
X140186816Y-76661986D01*
X139993521Y-76641670D01*
X139993520Y-76641670D01*
X139987393Y-76641026D01*
X139919805Y-76647177D01*
X139787702Y-76659199D01*
X139787699Y-76659200D01*
X139781563Y-76659758D01*
X139775657Y-76661496D01*
X139775653Y-76661497D01*
X139678462Y-76690102D01*
X139583292Y-76718112D01*
X139400131Y-76813867D01*
X139239057Y-76943373D01*
X139106205Y-77101700D01*
X139103241Y-77107092D01*
X139103238Y-77107096D01*
X139022377Y-77254183D01*
X139006636Y-77282816D01*
X139004775Y-77288683D01*
X139004774Y-77288685D01*
X139002312Y-77296446D01*
X138944142Y-77479822D01*
X138921103Y-77685214D01*
X138938398Y-77891170D01*
X138940097Y-77897095D01*
X138977934Y-78029047D01*
X138995367Y-78089844D01*
X139089840Y-78273669D01*
X139218219Y-78435643D01*
X139375614Y-78569597D01*
X139380992Y-78572603D01*
X139380994Y-78572604D01*
X139432268Y-78601260D01*
X139556030Y-78670428D01*
X139599509Y-78684555D01*
X139709111Y-78720167D01*
X139767717Y-78760240D01*
X139795354Y-78825637D01*
X139783247Y-78895594D01*
X139735241Y-78947900D01*
X139670175Y-78966000D01*
X137744703Y-78966000D01*
X137676582Y-78945998D01*
X137630089Y-78892342D01*
X137619985Y-78822068D01*
X137649479Y-78757488D01*
X137710819Y-78718641D01*
X137817032Y-78688986D01*
X137817031Y-78688986D01*
X137822960Y-78687331D01*
X138007441Y-78594143D01*
X138023249Y-78581793D01*
X138165451Y-78470692D01*
X138170307Y-78466898D01*
X138201456Y-78430812D01*
X138301327Y-78315110D01*
X138301328Y-78315108D01*
X138305356Y-78310442D01*
X138407445Y-78130734D01*
X138472683Y-77934620D01*
X138498587Y-77729569D01*
X138499000Y-77700000D01*
X138478832Y-77494306D01*
X138419094Y-77296446D01*
X138322064Y-77113958D01*
X138318169Y-77109182D01*
X138195330Y-76958567D01*
X138195327Y-76958564D01*
X138191435Y-76953792D01*
X138131200Y-76903961D01*
X138091463Y-76845130D01*
X138089840Y-76774152D01*
X138126849Y-76713564D01*
X138168812Y-76690102D01*
X138168430Y-76689220D01*
X138175705Y-76686072D01*
X138183318Y-76683860D01*
X138201604Y-76673046D01*
X138219356Y-76664349D01*
X138223697Y-76662630D01*
X138239116Y-76656525D01*
X138276225Y-76629564D01*
X138286145Y-76623048D01*
X138292033Y-76619566D01*
X138325611Y-76599708D01*
X138328000Y-76597601D01*
X138341661Y-76583940D01*
X138356695Y-76571099D01*
X138366444Y-76564016D01*
X138372858Y-76559356D01*
X138400747Y-76525644D01*
X138408736Y-76516865D01*
X139431845Y-75493756D01*
X140938938Y-75493756D01*
X140940102Y-75502658D01*
X140940102Y-75502661D01*
X140956564Y-75628546D01*
X140957728Y-75637445D01*
X141016091Y-75770085D01*
X141109335Y-75881013D01*
X141116806Y-75885986D01*
X141116807Y-75885987D01*
X141222491Y-75956336D01*
X141222495Y-75956338D01*
X141229966Y-75961311D01*
X141368285Y-76004525D01*
X141377257Y-76004689D01*
X141377260Y-76004690D01*
X141443272Y-76005900D01*
X141513173Y-76007181D01*
X141610556Y-75980631D01*
X141644319Y-75971426D01*
X141644320Y-75971426D01*
X141652982Y-75969064D01*
X141660632Y-75964367D01*
X141660634Y-75964366D01*
X141768822Y-75897939D01*
X141768825Y-75897936D01*
X141776474Y-75893240D01*
X141787542Y-75881013D01*
X141867693Y-75792463D01*
X141867694Y-75792462D01*
X141873721Y-75785803D01*
X141881337Y-75770085D01*
X141932991Y-75663470D01*
X141932991Y-75663469D01*
X141936905Y-75655391D01*
X141960947Y-75512487D01*
X141961100Y-75500000D01*
X141946375Y-75397177D01*
X141941829Y-75365438D01*
X141941829Y-75365436D01*
X141940556Y-75356551D01*
X141934142Y-75342443D01*
X141914844Y-75300000D01*
X141880577Y-75224634D01*
X141785984Y-75114854D01*
X141741252Y-75085860D01*
X141671913Y-75040916D01*
X141671911Y-75040915D01*
X141664382Y-75036035D01*
X141655785Y-75033464D01*
X141655783Y-75033463D01*
X141561915Y-75005391D01*
X141525545Y-74994514D01*
X141516569Y-74994459D01*
X141516568Y-74994459D01*
X141454179Y-74994078D01*
X141380636Y-74993629D01*
X141372005Y-74996096D01*
X141372003Y-74996096D01*
X141249933Y-75030983D01*
X141249931Y-75030984D01*
X141241302Y-75033450D01*
X141233711Y-75038239D01*
X141233710Y-75038240D01*
X141192359Y-75064331D01*
X141118746Y-75110778D01*
X141022819Y-75219394D01*
X140998451Y-75271297D01*
X140987236Y-75295185D01*
X140961233Y-75350569D01*
X140959852Y-75359438D01*
X140947506Y-75438732D01*
X140938938Y-75493756D01*
X139431845Y-75493756D01*
X140706664Y-74218938D01*
X140714216Y-74212066D01*
X140720381Y-74208153D01*
X140764226Y-74161463D01*
X140766981Y-74158621D01*
X140790788Y-74134814D01*
X140794443Y-74130102D01*
X140802153Y-74121075D01*
X140828121Y-74093422D01*
X140833547Y-74087644D01*
X140843787Y-74069018D01*
X140854633Y-74052505D01*
X140867659Y-74035713D01*
X140885871Y-73993626D01*
X140891086Y-73982980D01*
X140913188Y-73942778D01*
X140918476Y-73922184D01*
X140924877Y-73903489D01*
X140930165Y-73891268D01*
X140933313Y-73883994D01*
X140940485Y-73838710D01*
X140942893Y-73827088D01*
X140952820Y-73788425D01*
X140952822Y-73788415D01*
X140954300Y-73782657D01*
X140954500Y-73779478D01*
X140954500Y-73760145D01*
X140956051Y-73740434D01*
X140957934Y-73728545D01*
X140959174Y-73720716D01*
X140955059Y-73677183D01*
X140954500Y-73665326D01*
X140954500Y-71630500D01*
X140974502Y-71562379D01*
X141028158Y-71515886D01*
X141080500Y-71504500D01*
X145179038Y-71504500D01*
X145268134Y-71541405D01*
X145491351Y-71764623D01*
X145590451Y-71841494D01*
X145597724Y-71844641D01*
X145597727Y-71844643D01*
X145731801Y-71902661D01*
X145742170Y-71907148D01*
X145746059Y-71907764D01*
X145747255Y-71908173D01*
X145750278Y-71909370D01*
X145757222Y-71913188D01*
X145764901Y-71915160D01*
X145764902Y-71915160D01*
X145804084Y-71925220D01*
X145917343Y-71954300D01*
X145920522Y-71954500D01*
X147339580Y-71954500D01*
X147387645Y-71948428D01*
X147456146Y-71939775D01*
X147456149Y-71939774D01*
X147464011Y-71938781D01*
X147471377Y-71935864D01*
X147471379Y-71935864D01*
X147610348Y-71880842D01*
X147610350Y-71880841D01*
X147617717Y-71877924D01*
X147626473Y-71871563D01*
X147745045Y-71785415D01*
X147751459Y-71780755D01*
X147764339Y-71765186D01*
X147851781Y-71659487D01*
X147851784Y-71659483D01*
X147856834Y-71653378D01*
X147927222Y-71503797D01*
X147931101Y-71483463D01*
X147956714Y-71349196D01*
X147956714Y-71349194D01*
X147958199Y-71341410D01*
X147952416Y-71249502D01*
X147948316Y-71184333D01*
X147948316Y-71184331D01*
X147947818Y-71176422D01*
X147925057Y-71106371D01*
X147899184Y-71026741D01*
X147899183Y-71026738D01*
X147896733Y-71019199D01*
X147808153Y-70879619D01*
X147799331Y-70871334D01*
X147693420Y-70771877D01*
X147687644Y-70766453D01*
X147542778Y-70686812D01*
X147382657Y-70645700D01*
X147379478Y-70645500D01*
X146275624Y-70645500D01*
X146186529Y-70608596D01*
X146021258Y-70443326D01*
X146014395Y-70435784D01*
X146010483Y-70429619D01*
X146004337Y-70423847D01*
X145963794Y-70385775D01*
X145960952Y-70383020D01*
X145937144Y-70359212D01*
X145932432Y-70355557D01*
X145923405Y-70347847D01*
X145895752Y-70321879D01*
X145889974Y-70316453D01*
X145871348Y-70306213D01*
X145854835Y-70295367D01*
X145838043Y-70282341D01*
X145795956Y-70264129D01*
X145785310Y-70258914D01*
X145745108Y-70236812D01*
X145724514Y-70231524D01*
X145705822Y-70225124D01*
X145686324Y-70216687D01*
X145678494Y-70215447D01*
X145678488Y-70215445D01*
X145641038Y-70209513D01*
X145629418Y-70207107D01*
X145593119Y-70197788D01*
X145584987Y-70195700D01*
X145581808Y-70195500D01*
X145562474Y-70195500D01*
X145542763Y-70193949D01*
X145530874Y-70192066D01*
X145523045Y-70190826D01*
X145515153Y-70191572D01*
X145479512Y-70194941D01*
X145467655Y-70195500D01*
X140372710Y-70195500D01*
X140349482Y-70193304D01*
X140349194Y-70193286D01*
X140341410Y-70191801D01*
X140291505Y-70194941D01*
X140286578Y-70195251D01*
X140278666Y-70195500D01*
X140260420Y-70195500D01*
X140256488Y-70195997D01*
X140256483Y-70195997D01*
X140242301Y-70197788D01*
X140234426Y-70198532D01*
X140199499Y-70200730D01*
X140176423Y-70202182D01*
X140167968Y-70204929D01*
X140144826Y-70210102D01*
X140135989Y-70211219D01*
X140128624Y-70214135D01*
X140081914Y-70232629D01*
X140074466Y-70235310D01*
X140026745Y-70250815D01*
X140026742Y-70250817D01*
X140019200Y-70253267D01*
X140012504Y-70257517D01*
X140012499Y-70257519D01*
X140011694Y-70258030D01*
X139990561Y-70268798D01*
X139989658Y-70269156D01*
X139982283Y-70272076D01*
X139975869Y-70276736D01*
X139935235Y-70306258D01*
X139928692Y-70310705D01*
X139879620Y-70341847D01*
X139874195Y-70347624D01*
X139873535Y-70348327D01*
X139855745Y-70364011D01*
X139848541Y-70369245D01*
X139811474Y-70414051D01*
X139806240Y-70419988D01*
X139771881Y-70456576D01*
X139771879Y-70456579D01*
X139766454Y-70462356D01*
X139762635Y-70469303D01*
X139762634Y-70469304D01*
X139762171Y-70470146D01*
X139748838Y-70489766D01*
X139743166Y-70496622D01*
X139718401Y-70549251D01*
X139714821Y-70556275D01*
X139713789Y-70558153D01*
X139690632Y-70600272D01*
X139690630Y-70600278D01*
X139686812Y-70607222D01*
X139684841Y-70614898D01*
X139684839Y-70614903D01*
X139684599Y-70615839D01*
X139676566Y-70638152D01*
X139676153Y-70639029D01*
X139676151Y-70639034D01*
X139672778Y-70646203D01*
X139661879Y-70703341D01*
X139660164Y-70711012D01*
X139645700Y-70767343D01*
X139645500Y-70770522D01*
X139645500Y-70777290D01*
X139643304Y-70800518D01*
X139643286Y-70800806D01*
X139641801Y-70808590D01*
X139642299Y-70816501D01*
X139645251Y-70863422D01*
X139645500Y-70871334D01*
X139645500Y-71470523D01*
X139645501Y-72449323D01*
X139645501Y-73376707D01*
X139608596Y-73465802D01*
X137687202Y-75387196D01*
X137598107Y-75424101D01*
X135486867Y-75424101D01*
X135418746Y-75404099D01*
X135372253Y-75350443D01*
X135361134Y-75306292D01*
X135361040Y-75304857D01*
X135361100Y-75300000D01*
X135342494Y-75170085D01*
X135341829Y-75165438D01*
X135341829Y-75165436D01*
X135340556Y-75156551D01*
X135334142Y-75142443D01*
X135325010Y-75122360D01*
X135280577Y-75024634D01*
X135185984Y-74914854D01*
X135174830Y-74907624D01*
X135071913Y-74840916D01*
X135071911Y-74840915D01*
X135064382Y-74836035D01*
X135055785Y-74833464D01*
X135055783Y-74833463D01*
X134971990Y-74808404D01*
X134925545Y-74794514D01*
X134916569Y-74794459D01*
X134916568Y-74794459D01*
X134854179Y-74794078D01*
X134780636Y-74793629D01*
X134772005Y-74796096D01*
X134772003Y-74796096D01*
X134649933Y-74830983D01*
X134649931Y-74830984D01*
X134641302Y-74833450D01*
X134633711Y-74838239D01*
X134633710Y-74838240D01*
X134528108Y-74904871D01*
X134518746Y-74910778D01*
X134422819Y-75019394D01*
X134393053Y-75082795D01*
X134368166Y-75135803D01*
X134361233Y-75150569D01*
X134359852Y-75159438D01*
X134341054Y-75280169D01*
X134338938Y-75293756D01*
X134339836Y-75300627D01*
X134319306Y-75367512D01*
X134265086Y-75413346D01*
X134214148Y-75424101D01*
X124692024Y-75424101D01*
X124623903Y-75404099D01*
X124577410Y-75350443D01*
X124567306Y-75280169D01*
X124598609Y-75213546D01*
X124623721Y-75185803D01*
X124629003Y-75174902D01*
X124682991Y-75063470D01*
X124682991Y-75063469D01*
X124686905Y-75055391D01*
X124704882Y-74948535D01*
X124710140Y-74917285D01*
X124710140Y-74917282D01*
X124710947Y-74912487D01*
X124711019Y-74906653D01*
X124711040Y-74904871D01*
X124711100Y-74900000D01*
X124709529Y-74889025D01*
X124691829Y-74765438D01*
X124691829Y-74765436D01*
X124690556Y-74756551D01*
X124630577Y-74624634D01*
X124535984Y-74514854D01*
X124501925Y-74492778D01*
X124421913Y-74440916D01*
X124421911Y-74440915D01*
X124414382Y-74436035D01*
X124405785Y-74433464D01*
X124405783Y-74433463D01*
X124321990Y-74408404D01*
X124275545Y-74394514D01*
X124266569Y-74394459D01*
X124266568Y-74394459D01*
X124204179Y-74394078D01*
X124130636Y-74393629D01*
X124122005Y-74396096D01*
X124122003Y-74396096D01*
X123999933Y-74430983D01*
X123999931Y-74430984D01*
X123991302Y-74433450D01*
X123983711Y-74438239D01*
X123983710Y-74438240D01*
X123876339Y-74505987D01*
X123868746Y-74510778D01*
X123772819Y-74619394D01*
X123769003Y-74627523D01*
X123767759Y-74629416D01*
X123713642Y-74675371D01*
X123643271Y-74684773D01*
X123578987Y-74654637D01*
X123547746Y-74612393D01*
X123534296Y-74582811D01*
X123534292Y-74582805D01*
X123530577Y-74574634D01*
X123435984Y-74464854D01*
X123399599Y-74441270D01*
X123321913Y-74390916D01*
X123321911Y-74390915D01*
X123314382Y-74386035D01*
X123305785Y-74383464D01*
X123305783Y-74383463D01*
X123221990Y-74358404D01*
X123175545Y-74344514D01*
X123166569Y-74344459D01*
X123166568Y-74344459D01*
X123104179Y-74344078D01*
X123030636Y-74343629D01*
X123022005Y-74346096D01*
X123022003Y-74346096D01*
X122899933Y-74380983D01*
X122899931Y-74380984D01*
X122891302Y-74383450D01*
X122883711Y-74388239D01*
X122883710Y-74388240D01*
X122812037Y-74433463D01*
X122768746Y-74460778D01*
X122672819Y-74569394D01*
X122611233Y-74700569D01*
X122609852Y-74709438D01*
X122590541Y-74833463D01*
X122588938Y-74843756D01*
X122590102Y-74852658D01*
X122590102Y-74852661D01*
X122606564Y-74978546D01*
X122607728Y-74987445D01*
X122666091Y-75120085D01*
X122671869Y-75126958D01*
X122671869Y-75126959D01*
X122679303Y-75135803D01*
X122740836Y-75209005D01*
X122747578Y-75217026D01*
X122776099Y-75282042D01*
X122764943Y-75352156D01*
X122717651Y-75405109D01*
X122651127Y-75424101D01*
X113255692Y-75424101D01*
X113187571Y-75404099D01*
X113141078Y-75350443D01*
X113130974Y-75280169D01*
X113166597Y-75209005D01*
X113289743Y-75085860D01*
X113606683Y-74768920D01*
X113614219Y-74762063D01*
X113620380Y-74758153D01*
X113664202Y-74711488D01*
X113666956Y-74708647D01*
X113690788Y-74684815D01*
X113693212Y-74681690D01*
X113693219Y-74681682D01*
X113694452Y-74680092D01*
X113702162Y-74671065D01*
X113728122Y-74643421D01*
X113733547Y-74637644D01*
X113743784Y-74619024D01*
X113754632Y-74602509D01*
X113767659Y-74585714D01*
X113770805Y-74578443D01*
X113770809Y-74578437D01*
X113785870Y-74543631D01*
X113791093Y-74532969D01*
X113809368Y-74499727D01*
X113809369Y-74499726D01*
X113813188Y-74492778D01*
X113818473Y-74472193D01*
X113824876Y-74453491D01*
X113833313Y-74433995D01*
X113840487Y-74388699D01*
X113842890Y-74377095D01*
X113854300Y-74332657D01*
X113854500Y-74329478D01*
X113854500Y-74310145D01*
X113856051Y-74290434D01*
X113857934Y-74278545D01*
X113859174Y-74270716D01*
X113855059Y-74227183D01*
X113854500Y-74215326D01*
X113854500Y-74093756D01*
X124688938Y-74093756D01*
X124690102Y-74102658D01*
X124690102Y-74102661D01*
X124706386Y-74227183D01*
X124707728Y-74237445D01*
X124766091Y-74370085D01*
X124859335Y-74481013D01*
X124866806Y-74485986D01*
X124972491Y-74556336D01*
X124972495Y-74556338D01*
X124979966Y-74561311D01*
X125118285Y-74604525D01*
X125127257Y-74604689D01*
X125127260Y-74604690D01*
X125193272Y-74605900D01*
X125263173Y-74607181D01*
X125368603Y-74578437D01*
X125394319Y-74571426D01*
X125394320Y-74571426D01*
X125402982Y-74569064D01*
X125410632Y-74564367D01*
X125410634Y-74564366D01*
X125518822Y-74497939D01*
X125518825Y-74497936D01*
X125526474Y-74493240D01*
X125537542Y-74481013D01*
X125617693Y-74392463D01*
X125617694Y-74392462D01*
X125623721Y-74385803D01*
X125627950Y-74377076D01*
X125682991Y-74263470D01*
X125682991Y-74263469D01*
X125686905Y-74255391D01*
X125702948Y-74160035D01*
X125710140Y-74117285D01*
X125710140Y-74117282D01*
X125710947Y-74112487D01*
X125711100Y-74100000D01*
X125709331Y-74087644D01*
X125691829Y-73965438D01*
X125691829Y-73965436D01*
X125690556Y-73956551D01*
X125684142Y-73942443D01*
X125665684Y-73901848D01*
X125630577Y-73824634D01*
X125535984Y-73714854D01*
X125477520Y-73676959D01*
X125421913Y-73640916D01*
X125421911Y-73640915D01*
X125414382Y-73636035D01*
X125405785Y-73633464D01*
X125405783Y-73633463D01*
X125286997Y-73597939D01*
X125275545Y-73594514D01*
X125266569Y-73594459D01*
X125266568Y-73594459D01*
X125204179Y-73594078D01*
X125130636Y-73593629D01*
X125122005Y-73596096D01*
X125122003Y-73596096D01*
X124999933Y-73630983D01*
X124999931Y-73630984D01*
X124991302Y-73633450D01*
X124983711Y-73638239D01*
X124983710Y-73638240D01*
X124897773Y-73692463D01*
X124868746Y-73710778D01*
X124772819Y-73819394D01*
X124711233Y-73950569D01*
X124709852Y-73959438D01*
X124690971Y-74080701D01*
X124688938Y-74093756D01*
X113854500Y-74093756D01*
X113854500Y-73443756D01*
X125838938Y-73443756D01*
X125840102Y-73452658D01*
X125840102Y-73452661D01*
X125853536Y-73555391D01*
X125857728Y-73587445D01*
X125894611Y-73671269D01*
X125910341Y-73707016D01*
X125916091Y-73720085D01*
X126009335Y-73831013D01*
X126016806Y-73835986D01*
X126016807Y-73835987D01*
X126122491Y-73906336D01*
X126122495Y-73906338D01*
X126129966Y-73911311D01*
X126154782Y-73919064D01*
X126255623Y-73950569D01*
X126268285Y-73954525D01*
X126277257Y-73954689D01*
X126277260Y-73954690D01*
X126343272Y-73955900D01*
X126413173Y-73957181D01*
X126524945Y-73926708D01*
X126544319Y-73921426D01*
X126544320Y-73921426D01*
X126552982Y-73919064D01*
X126560632Y-73914367D01*
X126560634Y-73914366D01*
X126668822Y-73847939D01*
X126668825Y-73847936D01*
X126676474Y-73843240D01*
X126687542Y-73831013D01*
X126767693Y-73742463D01*
X126767694Y-73742462D01*
X126773721Y-73735803D01*
X126781337Y-73720085D01*
X126832991Y-73613470D01*
X126832991Y-73613469D01*
X126836905Y-73605391D01*
X126857024Y-73485803D01*
X126860140Y-73467285D01*
X126860140Y-73467282D01*
X126860947Y-73462487D01*
X126861100Y-73450000D01*
X126854321Y-73402661D01*
X126841829Y-73315438D01*
X126841829Y-73315436D01*
X126840556Y-73306551D01*
X126834142Y-73292443D01*
X126817822Y-73256551D01*
X126780577Y-73174634D01*
X126685984Y-73064854D01*
X126595164Y-73005987D01*
X126571913Y-72990916D01*
X126571911Y-72990915D01*
X126564382Y-72986035D01*
X126555785Y-72983464D01*
X126555783Y-72983463D01*
X126471990Y-72958404D01*
X126425545Y-72944514D01*
X126416569Y-72944459D01*
X126416568Y-72944459D01*
X126354179Y-72944078D01*
X126280636Y-72943629D01*
X126272005Y-72946096D01*
X126272003Y-72946096D01*
X126149933Y-72980983D01*
X126149931Y-72980984D01*
X126141302Y-72983450D01*
X126133711Y-72988239D01*
X126133710Y-72988240D01*
X126080750Y-73021656D01*
X126018746Y-73060778D01*
X125922819Y-73169394D01*
X125861233Y-73300569D01*
X125859852Y-73309438D01*
X125841252Y-73428897D01*
X125838938Y-73443756D01*
X113854500Y-73443756D01*
X113854500Y-72430500D01*
X113874502Y-72362379D01*
X113928158Y-72315886D01*
X113980500Y-72304500D01*
X115094827Y-72304500D01*
X115109637Y-72305373D01*
X115142579Y-72309272D01*
X115151844Y-72307580D01*
X115151847Y-72307580D01*
X115200774Y-72298645D01*
X115204675Y-72297995D01*
X115253948Y-72290587D01*
X115253950Y-72290586D01*
X115263258Y-72289187D01*
X115269824Y-72286034D01*
X115276986Y-72284726D01*
X115285340Y-72280386D01*
X115285344Y-72280385D01*
X115329510Y-72257442D01*
X115333051Y-72255673D01*
X115377933Y-72234121D01*
X115377934Y-72234121D01*
X115386423Y-72230044D01*
X115391716Y-72225151D01*
X115391865Y-72225051D01*
X115398233Y-72221743D01*
X115404600Y-72216305D01*
X115443352Y-72177553D01*
X115446918Y-72174123D01*
X115479838Y-72143692D01*
X115486754Y-72137299D01*
X115490308Y-72131181D01*
X115495322Y-72125583D01*
X116997816Y-70623090D01*
X117008898Y-70613241D01*
X117034961Y-70592695D01*
X117051389Y-70568926D01*
X117068635Y-70543974D01*
X117070916Y-70540782D01*
X117106090Y-70493160D01*
X117108502Y-70486290D01*
X117112644Y-70480298D01*
X117130505Y-70423823D01*
X117131735Y-70420135D01*
X117151360Y-70364249D01*
X117151643Y-70357050D01*
X117151676Y-70356879D01*
X117153843Y-70350028D01*
X117154500Y-70341680D01*
X117154500Y-70286824D01*
X117154597Y-70281876D01*
X117155387Y-70261771D01*
X117156725Y-70227724D01*
X117154912Y-70220888D01*
X117154500Y-70213398D01*
X117154500Y-66583325D01*
X117155373Y-66568514D01*
X117158166Y-66544917D01*
X117159273Y-66535566D01*
X117156550Y-66520656D01*
X117154500Y-66498019D01*
X117154500Y-66483327D01*
X117155373Y-66468518D01*
X117158166Y-66444919D01*
X117159273Y-66435566D01*
X117152238Y-66397044D01*
X117148641Y-66377347D01*
X117147991Y-66373445D01*
X117140587Y-66324198D01*
X117140586Y-66324196D01*
X117139187Y-66314888D01*
X117136034Y-66308322D01*
X117134726Y-66301160D01*
X117118225Y-66269394D01*
X117107446Y-66248644D01*
X117105676Y-66245103D01*
X117102374Y-66238226D01*
X117080044Y-66191723D01*
X117075152Y-66186431D01*
X117075053Y-66186284D01*
X117071744Y-66179914D01*
X117066305Y-66173546D01*
X117027553Y-66134794D01*
X117024123Y-66131228D01*
X116993692Y-66098308D01*
X116987299Y-66091392D01*
X116981181Y-66087838D01*
X116975583Y-66082824D01*
X116887812Y-65995053D01*
X116877957Y-65983964D01*
X116867795Y-65971074D01*
X116857409Y-65957899D01*
X116849664Y-65952546D01*
X116849662Y-65952544D01*
X116808701Y-65924234D01*
X116805483Y-65921934D01*
X116765447Y-65892363D01*
X116765441Y-65892360D01*
X116757873Y-65886770D01*
X116751005Y-65884358D01*
X116745012Y-65880216D01*
X116688543Y-65862357D01*
X116684794Y-65861106D01*
X116642534Y-65846265D01*
X116628962Y-65841499D01*
X116621760Y-65841216D01*
X116621591Y-65841183D01*
X116614742Y-65839017D01*
X116606394Y-65838360D01*
X116551546Y-65838360D01*
X116546599Y-65838263D01*
X116492437Y-65836135D01*
X116485600Y-65837948D01*
X116478111Y-65838360D01*
X116451546Y-65838360D01*
X116446599Y-65838263D01*
X116392437Y-65836135D01*
X116385600Y-65837948D01*
X116378111Y-65838360D01*
X116364911Y-65838360D01*
X116319888Y-65828461D01*
X116319758Y-65828895D01*
X116180921Y-65787374D01*
X116171946Y-65787319D01*
X116171945Y-65787319D01*
X116153840Y-65787209D01*
X116106504Y-65786920D01*
X116038509Y-65766502D01*
X115992344Y-65712564D01*
X115981275Y-65660922D01*
X115981275Y-64956147D01*
X115981755Y-64945960D01*
X115983347Y-64938839D01*
X115981337Y-64874872D01*
X115981275Y-64870915D01*
X115981275Y-64837195D01*
X115980526Y-64831265D01*
X115979595Y-64819437D01*
X115979584Y-64819064D01*
X115978155Y-64773606D01*
X115972230Y-64753212D01*
X115968219Y-64733846D01*
X115966550Y-64720631D01*
X115966550Y-64720629D01*
X115965556Y-64712764D01*
X115948668Y-64670112D01*
X115944833Y-64658911D01*
X115932034Y-64614855D01*
X115921219Y-64596568D01*
X115912522Y-64578818D01*
X115904699Y-64559058D01*
X115877741Y-64521953D01*
X115871225Y-64512033D01*
X115868663Y-64507701D01*
X115847882Y-64472562D01*
X115845775Y-64470173D01*
X115832112Y-64456510D01*
X115819271Y-64441476D01*
X115812190Y-64431730D01*
X115807530Y-64425316D01*
X115773824Y-64397432D01*
X115765045Y-64389443D01*
X115097533Y-63721931D01*
X115090666Y-63714384D01*
X115086754Y-63708220D01*
X115040064Y-63664375D01*
X115037222Y-63661620D01*
X115013415Y-63637813D01*
X115008703Y-63634158D01*
X114999676Y-63626448D01*
X114972023Y-63600480D01*
X114966245Y-63595054D01*
X114947619Y-63584814D01*
X114931106Y-63573968D01*
X114914314Y-63560942D01*
X114872227Y-63542730D01*
X114861581Y-63537515D01*
X114821379Y-63515413D01*
X114800785Y-63510125D01*
X114782093Y-63503725D01*
X114762595Y-63495288D01*
X114754765Y-63494048D01*
X114754759Y-63494046D01*
X114717309Y-63488114D01*
X114705689Y-63485708D01*
X114675071Y-63477847D01*
X114661258Y-63474301D01*
X114658079Y-63474101D01*
X114638745Y-63474101D01*
X114619034Y-63472550D01*
X114607145Y-63470667D01*
X114599316Y-63469427D01*
X114591424Y-63470173D01*
X114555783Y-63473542D01*
X114543926Y-63474101D01*
X114401895Y-63474101D01*
X114312800Y-63437197D01*
X113814219Y-62938617D01*
X113799340Y-62920631D01*
X113799151Y-62920417D01*
X113794698Y-62913864D01*
X113753472Y-62877519D01*
X113747702Y-62872100D01*
X113639219Y-62763617D01*
X113624355Y-62745650D01*
X113624154Y-62745422D01*
X113619698Y-62738865D01*
X113578478Y-62702526D01*
X113572709Y-62697107D01*
X113244008Y-62368406D01*
X113244001Y-62368398D01*
X112598233Y-61722630D01*
X111883863Y-61008261D01*
X111849838Y-60945949D01*
X111853570Y-60893756D01*
X122288938Y-60893756D01*
X122290102Y-60902658D01*
X122290102Y-60902661D01*
X122303984Y-61008816D01*
X122307728Y-61037445D01*
X122321624Y-61069025D01*
X122361059Y-61158648D01*
X122366091Y-61170085D01*
X122459335Y-61281013D01*
X122466806Y-61285986D01*
X122466807Y-61285987D01*
X122572491Y-61356336D01*
X122572495Y-61356338D01*
X122579966Y-61361311D01*
X122599427Y-61367391D01*
X122693396Y-61396749D01*
X122718285Y-61404525D01*
X122727257Y-61404689D01*
X122727260Y-61404690D01*
X122793272Y-61405900D01*
X122863173Y-61407181D01*
X122933077Y-61388123D01*
X122994319Y-61371426D01*
X122994320Y-61371426D01*
X123002982Y-61369064D01*
X123010632Y-61364367D01*
X123010634Y-61364366D01*
X123118822Y-61297939D01*
X123118825Y-61297936D01*
X123126474Y-61293240D01*
X123137542Y-61281013D01*
X123217693Y-61192463D01*
X123217694Y-61192462D01*
X123223721Y-61185803D01*
X123231337Y-61170085D01*
X123282991Y-61063470D01*
X123282991Y-61063469D01*
X123286905Y-61055391D01*
X123301311Y-60969760D01*
X123310140Y-60917285D01*
X123310140Y-60917282D01*
X123310947Y-60912487D01*
X123311100Y-60900000D01*
X123304321Y-60852661D01*
X123291829Y-60765438D01*
X123291829Y-60765436D01*
X123290556Y-60756551D01*
X123285532Y-60745500D01*
X123255619Y-60679712D01*
X123230577Y-60624634D01*
X123135984Y-60514854D01*
X123091164Y-60485803D01*
X123021913Y-60440916D01*
X123021911Y-60440915D01*
X123014382Y-60436035D01*
X123005785Y-60433464D01*
X123005783Y-60433463D01*
X122904301Y-60403114D01*
X122875545Y-60394514D01*
X122866569Y-60394459D01*
X122866568Y-60394459D01*
X122804179Y-60394078D01*
X122730636Y-60393629D01*
X122722005Y-60396096D01*
X122722003Y-60396096D01*
X122599933Y-60430983D01*
X122599931Y-60430984D01*
X122591302Y-60433450D01*
X122583711Y-60438239D01*
X122583710Y-60438240D01*
X122478108Y-60504871D01*
X122468746Y-60510778D01*
X122372819Y-60619394D01*
X122364344Y-60637445D01*
X122322530Y-60726508D01*
X122311233Y-60750569D01*
X122309852Y-60759438D01*
X122291838Y-60875134D01*
X122288938Y-60893756D01*
X111853570Y-60893756D01*
X111854902Y-60875134D01*
X111879542Y-60834612D01*
X111917693Y-60792463D01*
X111917694Y-60792462D01*
X111923721Y-60785803D01*
X111937894Y-60756551D01*
X111982991Y-60663470D01*
X111982991Y-60663469D01*
X111986905Y-60655391D01*
X112007169Y-60534945D01*
X112010140Y-60517285D01*
X112010140Y-60517282D01*
X112010947Y-60512487D01*
X112011100Y-60500000D01*
X112009206Y-60486771D01*
X111991829Y-60365438D01*
X111991829Y-60365436D01*
X111990556Y-60356551D01*
X111984142Y-60342443D01*
X111963825Y-60297760D01*
X111930577Y-60224634D01*
X111835984Y-60114854D01*
X111759745Y-60065438D01*
X111721913Y-60040916D01*
X111721911Y-60040915D01*
X111714382Y-60036035D01*
X111705785Y-60033464D01*
X111705783Y-60033463D01*
X111621990Y-60008404D01*
X111575545Y-59994514D01*
X111566569Y-59994459D01*
X111566568Y-59994459D01*
X111504179Y-59994078D01*
X111430636Y-59993629D01*
X111422005Y-59996096D01*
X111422003Y-59996096D01*
X111299933Y-60030983D01*
X111299931Y-60030984D01*
X111291302Y-60033450D01*
X111283711Y-60038239D01*
X111283710Y-60038240D01*
X111176339Y-60105987D01*
X111168746Y-60110778D01*
X111072819Y-60219394D01*
X111011233Y-60350569D01*
X111009852Y-60359438D01*
X110992624Y-60470085D01*
X110988938Y-60493756D01*
X110990102Y-60502658D01*
X110990102Y-60502661D01*
X110992586Y-60521656D01*
X111003037Y-60601568D01*
X111003245Y-60603162D01*
X110992245Y-60673301D01*
X110945071Y-60726359D01*
X110878309Y-60745500D01*
X110734383Y-60745500D01*
X110645288Y-60708595D01*
X110616405Y-60679712D01*
X110579500Y-60590617D01*
X110579500Y-59883214D01*
X110612086Y-59798657D01*
X110617700Y-59792455D01*
X110623721Y-59785803D01*
X110666651Y-59697195D01*
X110682991Y-59663470D01*
X110682991Y-59663469D01*
X110686905Y-59655391D01*
X110710947Y-59512487D01*
X110711100Y-59500000D01*
X110708617Y-59482657D01*
X110691829Y-59365438D01*
X110691829Y-59365436D01*
X110690556Y-59356551D01*
X110684142Y-59342443D01*
X110634293Y-59232808D01*
X110630577Y-59224634D01*
X110535984Y-59114854D01*
X110522304Y-59105987D01*
X110421913Y-59040916D01*
X110421911Y-59040915D01*
X110414382Y-59036035D01*
X110405785Y-59033464D01*
X110405783Y-59033463D01*
X110321990Y-59008404D01*
X110275545Y-58994514D01*
X110266569Y-58994459D01*
X110266568Y-58994459D01*
X110204179Y-58994078D01*
X110130636Y-58993629D01*
X110122005Y-58996096D01*
X110122003Y-58996096D01*
X109999933Y-59030983D01*
X109999931Y-59030984D01*
X109991302Y-59033450D01*
X109868746Y-59110778D01*
X109772819Y-59219394D01*
X109711233Y-59350569D01*
X109709852Y-59359438D01*
X109691472Y-59477484D01*
X109688938Y-59493756D01*
X109690102Y-59502658D01*
X109690102Y-59502661D01*
X109704802Y-59615072D01*
X109707728Y-59637445D01*
X109766091Y-59770085D01*
X109790953Y-59799662D01*
X109820500Y-59880735D01*
X109820501Y-60590615D01*
X109783596Y-60679710D01*
X109754711Y-60708595D01*
X109665616Y-60745500D01*
X108672655Y-60745500D01*
X108604534Y-60725498D01*
X108558041Y-60671842D01*
X108547937Y-60601568D01*
X108579240Y-60534945D01*
X108617693Y-60492463D01*
X108617694Y-60492462D01*
X108623721Y-60485803D01*
X108628006Y-60476960D01*
X108682991Y-60363470D01*
X108682991Y-60363469D01*
X108686905Y-60355391D01*
X108708418Y-60227520D01*
X108710140Y-60217285D01*
X108710140Y-60217282D01*
X108710947Y-60212487D01*
X108711100Y-60200000D01*
X108709662Y-60189955D01*
X108691829Y-60065438D01*
X108691829Y-60065436D01*
X108690556Y-60056551D01*
X108684142Y-60042443D01*
X108663069Y-59996096D01*
X108630577Y-59924634D01*
X108535984Y-59814854D01*
X108528449Y-59809970D01*
X108421913Y-59740916D01*
X108421911Y-59740915D01*
X108414382Y-59736035D01*
X108405785Y-59733464D01*
X108405783Y-59733463D01*
X108296497Y-59700780D01*
X108275545Y-59694514D01*
X108266569Y-59694459D01*
X108266568Y-59694459D01*
X108204179Y-59694078D01*
X108130636Y-59693629D01*
X108122005Y-59696096D01*
X108122003Y-59696096D01*
X107999933Y-59730983D01*
X107999931Y-59730984D01*
X107991302Y-59733450D01*
X107983711Y-59738239D01*
X107983710Y-59738240D01*
X107887956Y-59798657D01*
X107868746Y-59810778D01*
X107772819Y-59919394D01*
X107769004Y-59927520D01*
X107720429Y-60030983D01*
X107711233Y-60050569D01*
X107709852Y-60059438D01*
X107697021Y-60141847D01*
X107688938Y-60193756D01*
X107690102Y-60202658D01*
X107690102Y-60202661D01*
X107704747Y-60314652D01*
X107707728Y-60337445D01*
X107728078Y-60383694D01*
X107756083Y-60447339D01*
X107766091Y-60470085D01*
X107771870Y-60476960D01*
X107823536Y-60538425D01*
X107852057Y-60603441D01*
X107840901Y-60673556D01*
X107793608Y-60726508D01*
X107727085Y-60745500D01*
X106826000Y-60745500D01*
X106757879Y-60725498D01*
X106711386Y-60671842D01*
X106700000Y-60619500D01*
X106700000Y-57700000D01*
X106694681Y-57700000D01*
X106694409Y-57699074D01*
X106660136Y-57645745D01*
X106660136Y-57574748D01*
X106687616Y-57525692D01*
X106717693Y-57492463D01*
X106717694Y-57492462D01*
X106723721Y-57485803D01*
X106731337Y-57470085D01*
X106782991Y-57363470D01*
X106782991Y-57363469D01*
X106786905Y-57355391D01*
X106810947Y-57212487D01*
X106811100Y-57200000D01*
X106807421Y-57174306D01*
X106791829Y-57065438D01*
X106791829Y-57065436D01*
X106790556Y-57056551D01*
X106762006Y-56993756D01*
X113088938Y-56993756D01*
X113090102Y-57002658D01*
X113090102Y-57002661D01*
X113102061Y-57094111D01*
X113107728Y-57137445D01*
X113166091Y-57270085D01*
X113259335Y-57381013D01*
X113266806Y-57385986D01*
X113266807Y-57385987D01*
X113372491Y-57456336D01*
X113372495Y-57456338D01*
X113379966Y-57461311D01*
X113390743Y-57464678D01*
X113483816Y-57493756D01*
X113518285Y-57504525D01*
X113527257Y-57504689D01*
X113527260Y-57504690D01*
X113593272Y-57505900D01*
X113663173Y-57507181D01*
X113695234Y-57498440D01*
X113766215Y-57499819D01*
X113825184Y-57539356D01*
X113853311Y-57603667D01*
X113857728Y-57637445D01*
X113916091Y-57770085D01*
X114009335Y-57881013D01*
X114016806Y-57885986D01*
X114016807Y-57885987D01*
X114122491Y-57956336D01*
X114122495Y-57956338D01*
X114129966Y-57961311D01*
X114154782Y-57969064D01*
X114238150Y-57995110D01*
X114268285Y-58004525D01*
X114277257Y-58004689D01*
X114277260Y-58004690D01*
X114343272Y-58005900D01*
X114413173Y-58007181D01*
X114494233Y-57985081D01*
X114544319Y-57971426D01*
X114544320Y-57971426D01*
X114552982Y-57969064D01*
X114560632Y-57964367D01*
X114560634Y-57964366D01*
X114668822Y-57897939D01*
X114668825Y-57897936D01*
X114676474Y-57893240D01*
X114687542Y-57881013D01*
X114767693Y-57792463D01*
X114767694Y-57792462D01*
X114773721Y-57785803D01*
X114781337Y-57770085D01*
X114832991Y-57663470D01*
X114832991Y-57663469D01*
X114836905Y-57655391D01*
X114844446Y-57610567D01*
X114875473Y-57546709D01*
X114971009Y-57505492D01*
X115015105Y-57506300D01*
X115063173Y-57507181D01*
X115141585Y-57485803D01*
X115194319Y-57471426D01*
X115194320Y-57471426D01*
X115202982Y-57469064D01*
X115210632Y-57464367D01*
X115210634Y-57464366D01*
X115318822Y-57397939D01*
X115318825Y-57397936D01*
X115326474Y-57393240D01*
X115335270Y-57383523D01*
X115417693Y-57292463D01*
X115417694Y-57292462D01*
X115423721Y-57285803D01*
X115429372Y-57274141D01*
X115482991Y-57163470D01*
X115482991Y-57163469D01*
X115486905Y-57155391D01*
X115502497Y-57062714D01*
X115510140Y-57017285D01*
X115510140Y-57017282D01*
X115510947Y-57012487D01*
X115511100Y-57000000D01*
X115510315Y-56994514D01*
X115491829Y-56865438D01*
X115491829Y-56865436D01*
X115490556Y-56856551D01*
X115484142Y-56842443D01*
X115453422Y-56774880D01*
X115430577Y-56724634D01*
X115335984Y-56614854D01*
X115305620Y-56595173D01*
X115221913Y-56540916D01*
X115221911Y-56540915D01*
X115214382Y-56536035D01*
X115205785Y-56533464D01*
X115205783Y-56533463D01*
X115100740Y-56502049D01*
X115075545Y-56494514D01*
X115066569Y-56494459D01*
X115066568Y-56494459D01*
X115004179Y-56494078D01*
X114930636Y-56493629D01*
X114922005Y-56496096D01*
X114922003Y-56496096D01*
X114799933Y-56530983D01*
X114799931Y-56530984D01*
X114791302Y-56533450D01*
X114668746Y-56610778D01*
X114662803Y-56617507D01*
X114659139Y-56621656D01*
X114572819Y-56719394D01*
X114511233Y-56850569D01*
X114509852Y-56859438D01*
X114505463Y-56887625D01*
X114475218Y-56951857D01*
X114380194Y-56994237D01*
X114367802Y-56994161D01*
X114280636Y-56993629D01*
X114272005Y-56996096D01*
X114272003Y-56996096D01*
X114255765Y-57000737D01*
X114184770Y-57000224D01*
X114125323Y-56961410D01*
X114096414Y-56897452D01*
X114091829Y-56865437D01*
X114091828Y-56865434D01*
X114090556Y-56856551D01*
X114084142Y-56842443D01*
X114053422Y-56774880D01*
X114030577Y-56724634D01*
X113935984Y-56614854D01*
X113905620Y-56595173D01*
X113821913Y-56540916D01*
X113821911Y-56540915D01*
X113814382Y-56536035D01*
X113805785Y-56533464D01*
X113805783Y-56533463D01*
X113700740Y-56502049D01*
X113675545Y-56494514D01*
X113666569Y-56494459D01*
X113666568Y-56494459D01*
X113604179Y-56494078D01*
X113530636Y-56493629D01*
X113522005Y-56496096D01*
X113522003Y-56496096D01*
X113399933Y-56530983D01*
X113399931Y-56530984D01*
X113391302Y-56533450D01*
X113268746Y-56610778D01*
X113262803Y-56617507D01*
X113259139Y-56621656D01*
X113172819Y-56719394D01*
X113111233Y-56850569D01*
X113109852Y-56859438D01*
X113092842Y-56968685D01*
X113088938Y-56993756D01*
X106762006Y-56993756D01*
X106742634Y-56951151D01*
X106732647Y-56880863D01*
X106743943Y-56844064D01*
X106744729Y-56842443D01*
X106771544Y-56787096D01*
X106782991Y-56763470D01*
X106782991Y-56763469D01*
X106786905Y-56755391D01*
X106809116Y-56623373D01*
X106810140Y-56617285D01*
X106810140Y-56617282D01*
X106810947Y-56612487D01*
X106811100Y-56600000D01*
X106802639Y-56540916D01*
X106791829Y-56465438D01*
X106791829Y-56465436D01*
X106790556Y-56456551D01*
X106782231Y-56438240D01*
X106746823Y-56360365D01*
X106730577Y-56324634D01*
X106724715Y-56317831D01*
X106719881Y-56310272D01*
X106722371Y-56308680D01*
X106699208Y-56257588D01*
X106709505Y-56187342D01*
X106756146Y-56133815D01*
X106823974Y-56114000D01*
X119354242Y-56114000D01*
X119422363Y-56134002D01*
G37*
%TD.AperFunction*%
%TA.AperFunction,Conductor*%
G36*
X136674006Y-76753103D02*
G01*
X136720499Y-76806759D01*
X136730603Y-76877033D01*
X136697588Y-76942140D01*
X136699057Y-76943373D01*
X136566205Y-77101700D01*
X136563241Y-77107092D01*
X136563238Y-77107096D01*
X136482377Y-77254183D01*
X136466636Y-77282816D01*
X136464775Y-77288683D01*
X136464774Y-77288685D01*
X136462312Y-77296446D01*
X136404142Y-77479822D01*
X136381103Y-77685214D01*
X136398398Y-77891170D01*
X136400097Y-77897095D01*
X136437934Y-78029047D01*
X136455367Y-78089844D01*
X136549840Y-78273669D01*
X136678219Y-78435643D01*
X136835614Y-78569597D01*
X136840992Y-78572603D01*
X136840994Y-78572604D01*
X136892268Y-78601260D01*
X137016030Y-78670428D01*
X137059509Y-78684555D01*
X137169111Y-78720167D01*
X137227717Y-78760240D01*
X137255354Y-78825637D01*
X137243247Y-78895594D01*
X137195241Y-78947900D01*
X137130175Y-78966000D01*
X135204703Y-78966000D01*
X135136582Y-78945998D01*
X135090089Y-78892342D01*
X135079985Y-78822068D01*
X135109479Y-78757488D01*
X135170819Y-78718641D01*
X135277032Y-78688986D01*
X135277031Y-78688986D01*
X135282960Y-78687331D01*
X135467441Y-78594143D01*
X135483249Y-78581793D01*
X135625451Y-78470692D01*
X135630307Y-78466898D01*
X135661456Y-78430812D01*
X135761327Y-78315110D01*
X135761328Y-78315108D01*
X135765356Y-78310442D01*
X135867445Y-78130734D01*
X135932683Y-77934620D01*
X135958587Y-77729569D01*
X135959000Y-77700000D01*
X135938832Y-77494306D01*
X135879094Y-77296446D01*
X135782064Y-77113958D01*
X135776468Y-77107096D01*
X135692304Y-77003902D01*
X135651435Y-76953792D01*
X135646684Y-76949861D01*
X135644723Y-76947887D01*
X135610914Y-76885457D01*
X135616225Y-76814660D01*
X135658968Y-76757972D01*
X135734127Y-76733101D01*
X136605885Y-76733101D01*
X136674006Y-76753103D01*
G37*
%TD.AperFunction*%
%TA.AperFunction,Conductor*%
G36*
X134134006Y-76753103D02*
G01*
X134180499Y-76806759D01*
X134190603Y-76877033D01*
X134157588Y-76942140D01*
X134159057Y-76943373D01*
X134026205Y-77101700D01*
X134023241Y-77107092D01*
X134023238Y-77107096D01*
X133942377Y-77254183D01*
X133926636Y-77282816D01*
X133924775Y-77288683D01*
X133924774Y-77288685D01*
X133922312Y-77296446D01*
X133864142Y-77479822D01*
X133841103Y-77685214D01*
X133858398Y-77891170D01*
X133860097Y-77897095D01*
X133897934Y-78029047D01*
X133915367Y-78089844D01*
X134009840Y-78273669D01*
X134138219Y-78435643D01*
X134295614Y-78569597D01*
X134300992Y-78572603D01*
X134300994Y-78572604D01*
X134352268Y-78601260D01*
X134476030Y-78670428D01*
X134519509Y-78684555D01*
X134629111Y-78720167D01*
X134687717Y-78760240D01*
X134715354Y-78825637D01*
X134703247Y-78895594D01*
X134655241Y-78947900D01*
X134590175Y-78966000D01*
X132664703Y-78966000D01*
X132596582Y-78945998D01*
X132550089Y-78892342D01*
X132539985Y-78822068D01*
X132569479Y-78757488D01*
X132630819Y-78718641D01*
X132737032Y-78688986D01*
X132737031Y-78688986D01*
X132742960Y-78687331D01*
X132927441Y-78594143D01*
X132943249Y-78581793D01*
X133085451Y-78470692D01*
X133090307Y-78466898D01*
X133121456Y-78430812D01*
X133221327Y-78315110D01*
X133221328Y-78315108D01*
X133225356Y-78310442D01*
X133327445Y-78130734D01*
X133392683Y-77934620D01*
X133418587Y-77729569D01*
X133419000Y-77700000D01*
X133398832Y-77494306D01*
X133339094Y-77296446D01*
X133242064Y-77113958D01*
X133236468Y-77107096D01*
X133152304Y-77003902D01*
X133111435Y-76953792D01*
X133106684Y-76949861D01*
X133104723Y-76947887D01*
X133070914Y-76885457D01*
X133076225Y-76814660D01*
X133118968Y-76757972D01*
X133194127Y-76733101D01*
X134065885Y-76733101D01*
X134134006Y-76753103D01*
G37*
%TD.AperFunction*%
%TA.AperFunction,Conductor*%
G36*
X131594006Y-76753103D02*
G01*
X131640499Y-76806759D01*
X131650603Y-76877033D01*
X131617588Y-76942140D01*
X131619057Y-76943373D01*
X131486205Y-77101700D01*
X131483241Y-77107092D01*
X131483238Y-77107096D01*
X131402377Y-77254183D01*
X131386636Y-77282816D01*
X131384775Y-77288683D01*
X131384774Y-77288685D01*
X131382312Y-77296446D01*
X131324142Y-77479822D01*
X131301103Y-77685214D01*
X131318398Y-77891170D01*
X131320097Y-77897095D01*
X131357934Y-78029047D01*
X131375367Y-78089844D01*
X131469840Y-78273669D01*
X131598219Y-78435643D01*
X131755614Y-78569597D01*
X131760992Y-78572603D01*
X131760994Y-78572604D01*
X131812268Y-78601260D01*
X131936030Y-78670428D01*
X131979509Y-78684555D01*
X132089111Y-78720167D01*
X132147717Y-78760240D01*
X132175354Y-78825637D01*
X132163247Y-78895594D01*
X132115241Y-78947900D01*
X132050175Y-78966000D01*
X130124703Y-78966000D01*
X130056582Y-78945998D01*
X130010089Y-78892342D01*
X129999985Y-78822068D01*
X130029479Y-78757488D01*
X130090819Y-78718641D01*
X130197032Y-78688986D01*
X130197031Y-78688986D01*
X130202960Y-78687331D01*
X130387441Y-78594143D01*
X130403249Y-78581793D01*
X130545451Y-78470692D01*
X130550307Y-78466898D01*
X130581456Y-78430812D01*
X130681327Y-78315110D01*
X130681328Y-78315108D01*
X130685356Y-78310442D01*
X130787445Y-78130734D01*
X130852683Y-77934620D01*
X130878587Y-77729569D01*
X130879000Y-77700000D01*
X130858832Y-77494306D01*
X130799094Y-77296446D01*
X130702064Y-77113958D01*
X130696468Y-77107096D01*
X130612304Y-77003902D01*
X130571435Y-76953792D01*
X130566684Y-76949861D01*
X130564723Y-76947887D01*
X130530914Y-76885457D01*
X130536225Y-76814660D01*
X130578968Y-76757972D01*
X130654127Y-76733101D01*
X131525885Y-76733101D01*
X131594006Y-76753103D01*
G37*
%TD.AperFunction*%
%TA.AperFunction,Conductor*%
G36*
X129054006Y-76753103D02*
G01*
X129100499Y-76806759D01*
X129110603Y-76877033D01*
X129077588Y-76942140D01*
X129079057Y-76943373D01*
X128946205Y-77101700D01*
X128943241Y-77107092D01*
X128943238Y-77107096D01*
X128862377Y-77254183D01*
X128846636Y-77282816D01*
X128844775Y-77288683D01*
X128844774Y-77288685D01*
X128842312Y-77296446D01*
X128784142Y-77479822D01*
X128761103Y-77685214D01*
X128778398Y-77891170D01*
X128780097Y-77897095D01*
X128817934Y-78029047D01*
X128835367Y-78089844D01*
X128929840Y-78273669D01*
X129058219Y-78435643D01*
X129215614Y-78569597D01*
X129220992Y-78572603D01*
X129220994Y-78572604D01*
X129272268Y-78601260D01*
X129396030Y-78670428D01*
X129439509Y-78684555D01*
X129549111Y-78720167D01*
X129607717Y-78760240D01*
X129635354Y-78825637D01*
X129623247Y-78895594D01*
X129575241Y-78947900D01*
X129510175Y-78966000D01*
X127584703Y-78966000D01*
X127516582Y-78945998D01*
X127470089Y-78892342D01*
X127459985Y-78822068D01*
X127489479Y-78757488D01*
X127550819Y-78718641D01*
X127657032Y-78688986D01*
X127657031Y-78688986D01*
X127662960Y-78687331D01*
X127847441Y-78594143D01*
X127863249Y-78581793D01*
X128005451Y-78470692D01*
X128010307Y-78466898D01*
X128041456Y-78430812D01*
X128141327Y-78315110D01*
X128141328Y-78315108D01*
X128145356Y-78310442D01*
X128247445Y-78130734D01*
X128312683Y-77934620D01*
X128338587Y-77729569D01*
X128339000Y-77700000D01*
X128318832Y-77494306D01*
X128259094Y-77296446D01*
X128162064Y-77113958D01*
X128156468Y-77107096D01*
X128072304Y-77003902D01*
X128031435Y-76953792D01*
X128026684Y-76949861D01*
X128024723Y-76947887D01*
X127990914Y-76885457D01*
X127996225Y-76814660D01*
X128038968Y-76757972D01*
X128114127Y-76733101D01*
X128985885Y-76733101D01*
X129054006Y-76753103D01*
G37*
%TD.AperFunction*%
%TA.AperFunction,Conductor*%
G36*
X126514006Y-76753103D02*
G01*
X126560499Y-76806759D01*
X126570603Y-76877033D01*
X126537588Y-76942140D01*
X126539057Y-76943373D01*
X126406205Y-77101700D01*
X126403241Y-77107092D01*
X126403238Y-77107096D01*
X126322377Y-77254183D01*
X126306636Y-77282816D01*
X126304775Y-77288683D01*
X126304774Y-77288685D01*
X126302312Y-77296446D01*
X126244142Y-77479822D01*
X126221103Y-77685214D01*
X126238398Y-77891170D01*
X126240097Y-77897095D01*
X126277934Y-78029047D01*
X126295367Y-78089844D01*
X126389840Y-78273669D01*
X126518219Y-78435643D01*
X126675614Y-78569597D01*
X126680992Y-78572603D01*
X126680994Y-78572604D01*
X126732268Y-78601260D01*
X126856030Y-78670428D01*
X126899509Y-78684555D01*
X127009111Y-78720167D01*
X127067717Y-78760240D01*
X127095354Y-78825637D01*
X127083247Y-78895594D01*
X127035241Y-78947900D01*
X126970175Y-78966000D01*
X125044703Y-78966000D01*
X124976582Y-78945998D01*
X124930089Y-78892342D01*
X124919985Y-78822068D01*
X124949479Y-78757488D01*
X125010819Y-78718641D01*
X125117032Y-78688986D01*
X125117031Y-78688986D01*
X125122960Y-78687331D01*
X125307441Y-78594143D01*
X125323249Y-78581793D01*
X125465451Y-78470692D01*
X125470307Y-78466898D01*
X125501456Y-78430812D01*
X125601327Y-78315110D01*
X125601328Y-78315108D01*
X125605356Y-78310442D01*
X125707445Y-78130734D01*
X125772683Y-77934620D01*
X125798587Y-77729569D01*
X125799000Y-77700000D01*
X125778832Y-77494306D01*
X125719094Y-77296446D01*
X125622064Y-77113958D01*
X125616468Y-77107096D01*
X125532304Y-77003902D01*
X125491435Y-76953792D01*
X125486684Y-76949861D01*
X125484723Y-76947887D01*
X125450914Y-76885457D01*
X125456225Y-76814660D01*
X125498968Y-76757972D01*
X125574127Y-76733101D01*
X126445885Y-76733101D01*
X126514006Y-76753103D01*
G37*
%TD.AperFunction*%
%TA.AperFunction,Conductor*%
G36*
X123974006Y-76753103D02*
G01*
X124020499Y-76806759D01*
X124030603Y-76877033D01*
X123997588Y-76942140D01*
X123999057Y-76943373D01*
X123866205Y-77101700D01*
X123863241Y-77107092D01*
X123863238Y-77107096D01*
X123782377Y-77254183D01*
X123766636Y-77282816D01*
X123764775Y-77288683D01*
X123764774Y-77288685D01*
X123762312Y-77296446D01*
X123704142Y-77479822D01*
X123681103Y-77685214D01*
X123698398Y-77891170D01*
X123700097Y-77897095D01*
X123737934Y-78029047D01*
X123755367Y-78089844D01*
X123849840Y-78273669D01*
X123978219Y-78435643D01*
X124135614Y-78569597D01*
X124140992Y-78572603D01*
X124140994Y-78572604D01*
X124192268Y-78601260D01*
X124316030Y-78670428D01*
X124359509Y-78684555D01*
X124469111Y-78720167D01*
X124527717Y-78760240D01*
X124555354Y-78825637D01*
X124543247Y-78895594D01*
X124495241Y-78947900D01*
X124430175Y-78966000D01*
X122504703Y-78966000D01*
X122436582Y-78945998D01*
X122390089Y-78892342D01*
X122379985Y-78822068D01*
X122409479Y-78757488D01*
X122470819Y-78718641D01*
X122577032Y-78688986D01*
X122577031Y-78688986D01*
X122582960Y-78687331D01*
X122767441Y-78594143D01*
X122783249Y-78581793D01*
X122925451Y-78470692D01*
X122930307Y-78466898D01*
X122961456Y-78430812D01*
X123061327Y-78315110D01*
X123061328Y-78315108D01*
X123065356Y-78310442D01*
X123167445Y-78130734D01*
X123232683Y-77934620D01*
X123258587Y-77729569D01*
X123259000Y-77700000D01*
X123238832Y-77494306D01*
X123179094Y-77296446D01*
X123082064Y-77113958D01*
X123076468Y-77107096D01*
X122992304Y-77003902D01*
X122951435Y-76953792D01*
X122946684Y-76949861D01*
X122944723Y-76947887D01*
X122910914Y-76885457D01*
X122916225Y-76814660D01*
X122958968Y-76757972D01*
X123034127Y-76733101D01*
X123905885Y-76733101D01*
X123974006Y-76753103D01*
G37*
%TD.AperFunction*%
%TA.AperFunction,Conductor*%
G36*
X121434006Y-76753103D02*
G01*
X121480499Y-76806759D01*
X121490603Y-76877033D01*
X121457588Y-76942140D01*
X121459057Y-76943373D01*
X121326205Y-77101700D01*
X121323241Y-77107092D01*
X121323238Y-77107096D01*
X121242377Y-77254183D01*
X121226636Y-77282816D01*
X121224775Y-77288683D01*
X121224774Y-77288685D01*
X121222312Y-77296446D01*
X121164142Y-77479822D01*
X121141103Y-77685214D01*
X121158398Y-77891170D01*
X121160097Y-77897095D01*
X121197934Y-78029047D01*
X121215367Y-78089844D01*
X121309840Y-78273669D01*
X121438219Y-78435643D01*
X121595614Y-78569597D01*
X121600992Y-78572603D01*
X121600994Y-78572604D01*
X121652268Y-78601260D01*
X121776030Y-78670428D01*
X121819509Y-78684555D01*
X121929111Y-78720167D01*
X121987717Y-78760240D01*
X122015354Y-78825637D01*
X122003247Y-78895594D01*
X121955241Y-78947900D01*
X121890175Y-78966000D01*
X119964703Y-78966000D01*
X119896582Y-78945998D01*
X119850089Y-78892342D01*
X119839985Y-78822068D01*
X119869479Y-78757488D01*
X119930819Y-78718641D01*
X120037032Y-78688986D01*
X120037031Y-78688986D01*
X120042960Y-78687331D01*
X120227441Y-78594143D01*
X120243249Y-78581793D01*
X120385451Y-78470692D01*
X120390307Y-78466898D01*
X120421456Y-78430812D01*
X120521327Y-78315110D01*
X120521328Y-78315108D01*
X120525356Y-78310442D01*
X120627445Y-78130734D01*
X120692683Y-77934620D01*
X120718587Y-77729569D01*
X120719000Y-77700000D01*
X120698832Y-77494306D01*
X120639094Y-77296446D01*
X120542064Y-77113958D01*
X120536468Y-77107096D01*
X120452304Y-77003902D01*
X120411435Y-76953792D01*
X120406684Y-76949861D01*
X120404723Y-76947887D01*
X120370914Y-76885457D01*
X120376225Y-76814660D01*
X120418968Y-76757972D01*
X120494127Y-76733101D01*
X121365885Y-76733101D01*
X121434006Y-76753103D01*
G37*
%TD.AperFunction*%
%TA.AperFunction,Conductor*%
G36*
X113814006Y-76753103D02*
G01*
X113860499Y-76806759D01*
X113870603Y-76877033D01*
X113837588Y-76942140D01*
X113839057Y-76943373D01*
X113706205Y-77101700D01*
X113703241Y-77107092D01*
X113703238Y-77107096D01*
X113622377Y-77254183D01*
X113606636Y-77282816D01*
X113604775Y-77288683D01*
X113604774Y-77288685D01*
X113602312Y-77296446D01*
X113544142Y-77479822D01*
X113521103Y-77685214D01*
X113538398Y-77891170D01*
X113540097Y-77897095D01*
X113577934Y-78029047D01*
X113595367Y-78089844D01*
X113689840Y-78273669D01*
X113818219Y-78435643D01*
X113975614Y-78569597D01*
X113980992Y-78572603D01*
X113980994Y-78572604D01*
X114032268Y-78601260D01*
X114156030Y-78670428D01*
X114199509Y-78684555D01*
X114309111Y-78720167D01*
X114367717Y-78760240D01*
X114395354Y-78825637D01*
X114383247Y-78895594D01*
X114335241Y-78947900D01*
X114270175Y-78966000D01*
X112344703Y-78966000D01*
X112276582Y-78945998D01*
X112230089Y-78892342D01*
X112219985Y-78822068D01*
X112249479Y-78757488D01*
X112310819Y-78718641D01*
X112417032Y-78688986D01*
X112417031Y-78688986D01*
X112422960Y-78687331D01*
X112607441Y-78594143D01*
X112623249Y-78581793D01*
X112765451Y-78470692D01*
X112770307Y-78466898D01*
X112801456Y-78430812D01*
X112901327Y-78315110D01*
X112901328Y-78315108D01*
X112905356Y-78310442D01*
X113007445Y-78130734D01*
X113072683Y-77934620D01*
X113098587Y-77729569D01*
X113099000Y-77700000D01*
X113078832Y-77494306D01*
X113019094Y-77296446D01*
X112922064Y-77113958D01*
X112916468Y-77107096D01*
X112832304Y-77003902D01*
X112809654Y-76976130D01*
X112782100Y-76910700D01*
X112794295Y-76840758D01*
X112818202Y-76807400D01*
X112855598Y-76770004D01*
X112944692Y-76733101D01*
X113745885Y-76733101D01*
X113814006Y-76753103D01*
G37*
%TD.AperFunction*%
%TA.AperFunction,Conductor*%
G36*
X105843862Y-56134002D02*
G01*
X105890355Y-56187658D01*
X105900459Y-56257932D01*
X105881054Y-56309175D01*
X105878761Y-56312666D01*
X105872819Y-56319394D01*
X105869003Y-56327521D01*
X105864077Y-56335021D01*
X105861370Y-56333243D01*
X105824854Y-56374501D01*
X105757079Y-56393791D01*
X105730636Y-56393629D01*
X105722005Y-56396096D01*
X105722003Y-56396096D01*
X105599933Y-56430983D01*
X105599931Y-56430984D01*
X105591302Y-56433450D01*
X105583711Y-56438239D01*
X105583710Y-56438240D01*
X105488668Y-56498208D01*
X105468746Y-56510778D01*
X105372819Y-56619394D01*
X105369004Y-56627520D01*
X105325870Y-56719394D01*
X105311233Y-56750569D01*
X105309852Y-56759438D01*
X105290946Y-56880863D01*
X105288938Y-56893756D01*
X105290102Y-56902658D01*
X105290102Y-56902661D01*
X105306564Y-57028546D01*
X105307728Y-57037445D01*
X105329901Y-57087837D01*
X105355731Y-57146539D01*
X105366091Y-57170085D01*
X105459335Y-57281013D01*
X105466806Y-57285986D01*
X105466807Y-57285987D01*
X105572491Y-57356336D01*
X105572495Y-57356338D01*
X105579966Y-57361311D01*
X105588539Y-57363989D01*
X105588538Y-57363989D01*
X105697205Y-57397939D01*
X105718285Y-57404525D01*
X105727256Y-57404689D01*
X105727260Y-57404690D01*
X105759564Y-57405282D01*
X105827307Y-57426530D01*
X105863284Y-57463706D01*
X105866091Y-57470085D01*
X105871869Y-57476958D01*
X105871869Y-57476959D01*
X105885290Y-57492925D01*
X105913811Y-57557940D01*
X105902655Y-57628055D01*
X105855363Y-57681007D01*
X105788839Y-57700000D01*
X104100000Y-57700000D01*
X104100000Y-59624864D01*
X104079998Y-59692985D01*
X104026342Y-59739478D01*
X103987470Y-59750142D01*
X103972010Y-59751804D01*
X103919668Y-59763190D01*
X103807324Y-59819425D01*
X103753668Y-59865918D01*
X103748798Y-59873495D01*
X103748796Y-59873498D01*
X103696652Y-59954636D01*
X103676291Y-59986319D01*
X103656289Y-60054440D01*
X103655648Y-60058899D01*
X103655647Y-60058903D01*
X103651144Y-60090220D01*
X103646000Y-60126000D01*
X103646000Y-60188650D01*
X103644500Y-60208035D01*
X103640643Y-60232808D01*
X103638938Y-60243756D01*
X103640102Y-60252658D01*
X103640102Y-60252661D01*
X103644936Y-60289623D01*
X103646000Y-60305961D01*
X103646000Y-60313520D01*
X103646643Y-60331576D01*
X103646724Y-60332708D01*
X103646725Y-60332733D01*
X103647686Y-60346205D01*
X103647916Y-60349438D01*
X103649838Y-60367391D01*
X103651678Y-60380238D01*
X103652173Y-60383694D01*
X103651702Y-60422440D01*
X103651487Y-60423719D01*
X103651266Y-60425035D01*
X103648627Y-60446035D01*
X103646881Y-60466939D01*
X103646000Y-60488081D01*
X103646000Y-60788650D01*
X103644500Y-60808035D01*
X103640362Y-60834612D01*
X103638938Y-60843756D01*
X103640102Y-60852658D01*
X103640102Y-60852661D01*
X103644936Y-60889623D01*
X103646000Y-60905961D01*
X103646000Y-61313520D01*
X103646643Y-61331576D01*
X103646724Y-61332708D01*
X103646725Y-61332733D01*
X103647309Y-61340916D01*
X103647916Y-61349438D01*
X103648036Y-61350558D01*
X103648036Y-61350559D01*
X103649474Y-61363989D01*
X103649838Y-61367391D01*
X103649991Y-61368463D01*
X103649994Y-61368483D01*
X103651373Y-61378110D01*
X103651145Y-61415356D01*
X103640319Y-61484883D01*
X103640319Y-61484887D01*
X103638938Y-61493756D01*
X103640102Y-61502658D01*
X103640102Y-61502661D01*
X103644936Y-61539623D01*
X103646000Y-61555961D01*
X103646000Y-61624000D01*
X103646360Y-61627347D01*
X103646360Y-61627351D01*
X103650455Y-61665438D01*
X103651804Y-61677990D01*
X103663190Y-61730332D01*
X103719425Y-61842676D01*
X103765918Y-61896332D01*
X103773495Y-61901202D01*
X103773498Y-61901204D01*
X103878739Y-61968838D01*
X103878741Y-61968839D01*
X103886319Y-61973709D01*
X103894963Y-61976247D01*
X103894965Y-61976248D01*
X103920723Y-61983811D01*
X103954440Y-61993711D01*
X103958899Y-61994352D01*
X103958903Y-61994353D01*
X103990220Y-61998856D01*
X104026000Y-62004000D01*
X104062865Y-62004000D01*
X104067902Y-62004405D01*
X104068285Y-62004525D01*
X104213173Y-62007181D01*
X104221487Y-62004914D01*
X104236231Y-62004000D01*
X104562679Y-62004000D01*
X104605296Y-62012129D01*
X104607222Y-62013188D01*
X104614897Y-62015159D01*
X104614898Y-62015159D01*
X104627806Y-62018473D01*
X104646504Y-62024874D01*
X104666005Y-62033313D01*
X104673835Y-62034553D01*
X104673838Y-62034554D01*
X104696803Y-62038191D01*
X104711301Y-62040487D01*
X104722905Y-62042890D01*
X104767343Y-62054300D01*
X104770522Y-62054500D01*
X104789855Y-62054500D01*
X104809567Y-62056051D01*
X104829284Y-62059174D01*
X104837176Y-62058428D01*
X104872817Y-62055059D01*
X104884674Y-62054500D01*
X107298550Y-62054500D01*
X107366671Y-62074502D01*
X107413164Y-62128158D01*
X107423268Y-62198432D01*
X107387645Y-62269595D01*
X106421169Y-63236071D01*
X106358857Y-63270097D01*
X106286463Y-63259583D01*
X106285241Y-63263063D01*
X106285235Y-63263061D01*
X106285234Y-63263060D01*
X106281935Y-63261901D01*
X106275378Y-63259155D01*
X106269156Y-63254709D01*
X106220104Y-63240039D01*
X106214456Y-63238204D01*
X106173593Y-63223853D01*
X106173586Y-63223851D01*
X106166107Y-63221225D01*
X106157735Y-63220500D01*
X106154999Y-63220500D01*
X106154731Y-63220488D01*
X106148190Y-63218532D01*
X106126251Y-63219394D01*
X106100571Y-63220403D01*
X106095624Y-63220500D01*
X105781958Y-63220500D01*
X105713425Y-63200232D01*
X105621913Y-63140916D01*
X105621911Y-63140915D01*
X105614382Y-63136035D01*
X105605785Y-63133464D01*
X105605783Y-63133463D01*
X105513908Y-63105987D01*
X105475545Y-63094514D01*
X105466569Y-63094459D01*
X105466568Y-63094459D01*
X105404179Y-63094078D01*
X105330636Y-63093629D01*
X105322005Y-63096096D01*
X105322003Y-63096096D01*
X105199933Y-63130983D01*
X105199931Y-63130984D01*
X105191302Y-63133450D01*
X105183711Y-63138239D01*
X105183710Y-63138240D01*
X105125450Y-63175000D01*
X105068746Y-63210778D01*
X105062803Y-63217507D01*
X105060160Y-63220500D01*
X104972819Y-63319394D01*
X104957475Y-63352076D01*
X104933942Y-63402201D01*
X104911233Y-63450569D01*
X104909852Y-63459438D01*
X104890475Y-63583886D01*
X104888938Y-63593756D01*
X104890102Y-63602658D01*
X104890102Y-63602661D01*
X104906151Y-63725387D01*
X104907728Y-63737445D01*
X104966091Y-63870085D01*
X104985352Y-63892998D01*
X105013872Y-63958011D01*
X104983342Y-64057479D01*
X104972819Y-64069394D01*
X104911233Y-64200569D01*
X104909852Y-64209436D01*
X104909852Y-64209437D01*
X104899414Y-64276475D01*
X104869169Y-64340707D01*
X104809539Y-64378238D01*
X104791302Y-64383450D01*
X104783711Y-64388239D01*
X104783710Y-64388240D01*
X104699337Y-64441476D01*
X104668746Y-64460778D01*
X104662803Y-64467507D01*
X104658339Y-64472562D01*
X104572819Y-64569394D01*
X104511233Y-64700569D01*
X104509852Y-64709438D01*
X104491860Y-64824991D01*
X104488938Y-64843756D01*
X104490102Y-64852658D01*
X104490102Y-64852661D01*
X104502584Y-64948109D01*
X104507728Y-64987445D01*
X104519179Y-65013470D01*
X104551109Y-65086035D01*
X104566091Y-65120085D01*
X104571866Y-65126955D01*
X104576012Y-65133616D01*
X104595029Y-65202018D01*
X104575163Y-65266740D01*
X104572819Y-65269394D01*
X104511233Y-65400569D01*
X104488938Y-65543756D01*
X104490102Y-65552658D01*
X104490102Y-65552661D01*
X104505222Y-65668281D01*
X104507728Y-65687445D01*
X104566091Y-65820085D01*
X104659335Y-65931013D01*
X104666806Y-65935986D01*
X104666807Y-65935987D01*
X104772491Y-66006336D01*
X104772495Y-66006338D01*
X104779966Y-66011311D01*
X104804782Y-66019064D01*
X104894478Y-66047087D01*
X104918285Y-66054525D01*
X104927257Y-66054689D01*
X104927260Y-66054690D01*
X104993272Y-66055900D01*
X105063173Y-66057181D01*
X105156697Y-66031683D01*
X105194319Y-66021426D01*
X105194320Y-66021426D01*
X105202982Y-66019064D01*
X105210632Y-66014367D01*
X105210634Y-66014366D01*
X105318822Y-65947939D01*
X105318825Y-65947936D01*
X105326474Y-65943240D01*
X105332571Y-65936505D01*
X105417693Y-65842463D01*
X105417694Y-65842462D01*
X105423721Y-65835803D01*
X105428112Y-65826741D01*
X105482991Y-65713470D01*
X105482991Y-65713469D01*
X105486905Y-65705391D01*
X105510947Y-65562487D01*
X105511100Y-65550000D01*
X105490556Y-65406551D01*
X105486841Y-65398380D01*
X105434294Y-65282808D01*
X105434292Y-65282805D01*
X105430577Y-65274634D01*
X105424732Y-65267850D01*
X105404884Y-65199697D01*
X105424396Y-65136130D01*
X105423721Y-65135803D01*
X105431337Y-65120085D01*
X105482991Y-65013470D01*
X105482991Y-65013469D01*
X105486905Y-65005391D01*
X105500810Y-64922738D01*
X105531836Y-64858881D01*
X105586309Y-64825516D01*
X105586082Y-64824991D01*
X105589779Y-64823391D01*
X105591918Y-64822081D01*
X105594319Y-64821426D01*
X105594320Y-64821426D01*
X105602982Y-64819064D01*
X105726474Y-64743240D01*
X105732500Y-64736583D01*
X105739016Y-64731173D01*
X105804205Y-64703049D01*
X105874250Y-64714633D01*
X105926913Y-64762248D01*
X105945501Y-64828116D01*
X105945500Y-65842130D01*
X105945500Y-66856052D01*
X105925498Y-66924173D01*
X105871842Y-66970666D01*
X105783398Y-66976769D01*
X105675545Y-66944514D01*
X105666569Y-66944459D01*
X105666568Y-66944459D01*
X105604179Y-66944078D01*
X105530636Y-66943629D01*
X105522005Y-66946096D01*
X105522003Y-66946096D01*
X105399933Y-66980983D01*
X105399931Y-66980984D01*
X105391302Y-66983450D01*
X105383711Y-66988239D01*
X105383710Y-66988240D01*
X105335363Y-67018745D01*
X105268746Y-67060778D01*
X105262803Y-67067507D01*
X105260526Y-67070085D01*
X105172819Y-67169394D01*
X105111233Y-67300569D01*
X105109852Y-67309438D01*
X105096641Y-67394287D01*
X105088938Y-67443756D01*
X105090102Y-67452658D01*
X105090102Y-67452661D01*
X105091982Y-67467035D01*
X105107728Y-67587445D01*
X105166091Y-67720085D01*
X105259335Y-67831013D01*
X105266806Y-67835986D01*
X105266807Y-67835987D01*
X105372491Y-67906336D01*
X105372495Y-67906338D01*
X105379966Y-67911311D01*
X105388539Y-67913989D01*
X105388538Y-67913989D01*
X105488102Y-67945095D01*
X105518285Y-67954525D01*
X105527257Y-67954689D01*
X105527260Y-67954690D01*
X105593272Y-67955900D01*
X105663173Y-67957181D01*
X105786359Y-67923596D01*
X105857340Y-67924975D01*
X105916310Y-67964512D01*
X105945500Y-68045159D01*
X105945500Y-68866680D01*
X105944627Y-68881489D01*
X105940728Y-68914433D01*
X105942420Y-68923698D01*
X105942420Y-68923699D01*
X105951356Y-68972631D01*
X105952006Y-68976534D01*
X105957412Y-69012487D01*
X105960813Y-69035111D01*
X105963966Y-69041677D01*
X105965274Y-69048840D01*
X105969617Y-69057200D01*
X105992552Y-69101353D01*
X105994320Y-69104891D01*
X106015878Y-69149785D01*
X106015880Y-69149788D01*
X106019956Y-69158276D01*
X106024848Y-69163567D01*
X106024948Y-69163716D01*
X106028257Y-69170087D01*
X106033695Y-69176454D01*
X106072465Y-69215224D01*
X106075894Y-69218790D01*
X106112701Y-69258608D01*
X106118819Y-69262162D01*
X106124411Y-69267170D01*
X106902136Y-70044896D01*
X106902151Y-70044910D01*
X106905048Y-70047807D01*
X106914903Y-70058896D01*
X106935451Y-70084961D01*
X106943198Y-70090315D01*
X106943202Y-70090319D01*
X106984167Y-70118632D01*
X106987387Y-70120933D01*
X107027408Y-70150493D01*
X107027413Y-70150495D01*
X107034987Y-70156090D01*
X107041855Y-70158502D01*
X107047848Y-70162644D01*
X107104311Y-70180501D01*
X107108060Y-70181752D01*
X107163898Y-70201361D01*
X107171100Y-70201644D01*
X107171269Y-70201677D01*
X107178118Y-70203843D01*
X107186466Y-70204500D01*
X107188934Y-70204500D01*
X107191407Y-70204597D01*
X107191379Y-70205311D01*
X107226988Y-70213368D01*
X107227631Y-70211311D01*
X107333843Y-70244494D01*
X107365950Y-70254525D01*
X107374922Y-70254689D01*
X107374925Y-70254690D01*
X107440937Y-70255900D01*
X107510838Y-70257181D01*
X107585549Y-70236812D01*
X107641984Y-70221426D01*
X107641985Y-70221426D01*
X107650647Y-70219064D01*
X107658297Y-70214367D01*
X107658299Y-70214366D01*
X107766487Y-70147939D01*
X107766490Y-70147936D01*
X107774139Y-70143240D01*
X107783719Y-70132657D01*
X107865358Y-70042463D01*
X107865359Y-70042462D01*
X107871386Y-70035803D01*
X107875562Y-70027185D01*
X107930656Y-69913470D01*
X107930656Y-69913469D01*
X107934570Y-69905391D01*
X107951093Y-69807181D01*
X107957805Y-69767285D01*
X107957805Y-69767282D01*
X107958612Y-69762487D01*
X107958765Y-69750000D01*
X107954688Y-69721528D01*
X107939494Y-69615438D01*
X107939494Y-69615436D01*
X107938221Y-69606551D01*
X107928788Y-69585803D01*
X107881957Y-69482805D01*
X107878242Y-69474634D01*
X107876410Y-69472507D01*
X107857425Y-69407325D01*
X107890009Y-69323047D01*
X107923721Y-69285803D01*
X107929159Y-69274580D01*
X107982991Y-69163470D01*
X107982991Y-69163469D01*
X107986905Y-69155391D01*
X108008418Y-69027520D01*
X108010140Y-69017285D01*
X108010140Y-69017282D01*
X108010947Y-69012487D01*
X108011100Y-69000000D01*
X108007740Y-68976534D01*
X107991829Y-68865438D01*
X107991829Y-68865436D01*
X107990556Y-68856551D01*
X107935550Y-68735571D01*
X107925564Y-68665282D01*
X107936859Y-68628483D01*
X107982991Y-68533267D01*
X107982991Y-68533266D01*
X107986905Y-68525188D01*
X108010947Y-68382284D01*
X108011100Y-68369797D01*
X108002893Y-68312487D01*
X107991829Y-68235235D01*
X107991829Y-68235233D01*
X107990556Y-68226348D01*
X107930577Y-68094431D01*
X107897050Y-68055521D01*
X107867736Y-67990858D01*
X107879110Y-67918336D01*
X107881216Y-67913989D01*
X107886525Y-67903032D01*
X107901726Y-67812676D01*
X107909760Y-67764926D01*
X107909760Y-67764923D01*
X107910567Y-67760128D01*
X107910720Y-67747641D01*
X107906111Y-67715454D01*
X107891449Y-67613079D01*
X107891449Y-67613077D01*
X107890176Y-67604192D01*
X107878516Y-67578546D01*
X107833913Y-67480449D01*
X107830197Y-67472275D01*
X107768307Y-67400448D01*
X107738993Y-67335787D01*
X107749292Y-67265541D01*
X107797830Y-67210828D01*
X107826474Y-67193240D01*
X107837542Y-67181013D01*
X107917693Y-67092463D01*
X107917694Y-67092462D01*
X107923721Y-67085803D01*
X107931337Y-67070085D01*
X107982991Y-66963470D01*
X107982991Y-66963469D01*
X107986905Y-66955391D01*
X108010947Y-66812487D01*
X108011100Y-66800000D01*
X108010409Y-66795178D01*
X108010409Y-66795171D01*
X108003380Y-66746092D01*
X108013523Y-66675824D01*
X108060045Y-66622194D01*
X108124149Y-66602292D01*
X108153169Y-66601380D01*
X108160785Y-66599167D01*
X108160787Y-66599167D01*
X108173563Y-66595455D01*
X108192928Y-66591444D01*
X108197352Y-66590885D01*
X108206152Y-66589774D01*
X108206154Y-66589774D01*
X108214011Y-66588781D01*
X108221376Y-66585865D01*
X108256659Y-66571896D01*
X108267886Y-66568053D01*
X108304302Y-66557472D01*
X108311919Y-66555259D01*
X108330205Y-66544445D01*
X108347957Y-66535748D01*
X108349881Y-66534986D01*
X108367717Y-66527924D01*
X108404826Y-66500963D01*
X108414746Y-66494447D01*
X108454212Y-66471107D01*
X108456601Y-66469000D01*
X108470262Y-66455339D01*
X108485296Y-66442498D01*
X108495045Y-66435415D01*
X108501459Y-66430755D01*
X108529348Y-66397043D01*
X108537337Y-66388264D01*
X108590788Y-66334813D01*
X108806664Y-66118938D01*
X108814216Y-66112066D01*
X108820381Y-66108153D01*
X108864227Y-66061462D01*
X108866982Y-66058620D01*
X108890788Y-66034814D01*
X108894443Y-66030102D01*
X108902153Y-66021075D01*
X108928121Y-65993422D01*
X108933547Y-65987644D01*
X108943787Y-65969018D01*
X108954633Y-65952505D01*
X108967659Y-65935713D01*
X108972626Y-65924234D01*
X108985871Y-65893628D01*
X108991093Y-65882968D01*
X109009370Y-65849723D01*
X109009370Y-65849722D01*
X109013188Y-65842778D01*
X109018473Y-65822193D01*
X109024876Y-65803491D01*
X109025464Y-65802133D01*
X109033313Y-65783995D01*
X109040487Y-65738699D01*
X109042890Y-65727095D01*
X109054300Y-65682657D01*
X109054500Y-65679478D01*
X109054500Y-65660145D01*
X109056051Y-65640434D01*
X109057934Y-65628545D01*
X109059174Y-65620716D01*
X109055059Y-65577183D01*
X109054500Y-65565326D01*
X109054500Y-64923292D01*
X109091405Y-64834197D01*
X109105596Y-64820006D01*
X109194691Y-64783101D01*
X112198690Y-64783101D01*
X112221918Y-64785297D01*
X112222206Y-64785315D01*
X112229990Y-64786800D01*
X112284821Y-64783350D01*
X112292734Y-64783101D01*
X112705892Y-64783101D01*
X112729120Y-64785297D01*
X112729408Y-64785315D01*
X112737192Y-64786800D01*
X112792023Y-64783350D01*
X112799936Y-64783101D01*
X113955892Y-64783101D01*
X113979120Y-64785297D01*
X113979408Y-64785315D01*
X113987192Y-64786800D01*
X114042023Y-64783350D01*
X114049936Y-64783101D01*
X114255309Y-64783101D01*
X114344405Y-64820006D01*
X114635372Y-65110974D01*
X114672276Y-65200069D01*
X114672275Y-66635972D01*
X114672275Y-69416340D01*
X114672276Y-69416368D01*
X114672275Y-69949933D01*
X114635370Y-70039028D01*
X114365803Y-70308595D01*
X114276708Y-70345500D01*
X111229365Y-70345500D01*
X111219186Y-70345020D01*
X111212063Y-70343428D01*
X111204137Y-70343677D01*
X111148096Y-70345438D01*
X111144139Y-70345500D01*
X111110420Y-70345500D01*
X111106494Y-70345996D01*
X111106492Y-70345996D01*
X111106164Y-70346037D01*
X111104490Y-70346249D01*
X111092671Y-70347179D01*
X111046830Y-70348620D01*
X111026426Y-70354548D01*
X111007069Y-70358556D01*
X110993854Y-70360225D01*
X110993851Y-70360226D01*
X110985989Y-70361219D01*
X110978621Y-70364136D01*
X110978614Y-70364138D01*
X110943344Y-70378102D01*
X110932116Y-70381947D01*
X110888080Y-70394741D01*
X110881259Y-70398775D01*
X110881257Y-70398776D01*
X110869792Y-70405556D01*
X110852037Y-70414254D01*
X110839656Y-70419156D01*
X110839651Y-70419159D01*
X110832283Y-70422076D01*
X110806442Y-70440850D01*
X110795174Y-70449037D01*
X110785255Y-70455552D01*
X110750896Y-70475872D01*
X110750888Y-70475878D01*
X110745788Y-70478894D01*
X110743398Y-70481000D01*
X110729735Y-70494663D01*
X110714701Y-70507504D01*
X110711182Y-70510061D01*
X110698541Y-70519245D01*
X110671135Y-70552374D01*
X110670658Y-70552950D01*
X110662668Y-70561730D01*
X110343332Y-70881066D01*
X110335783Y-70887936D01*
X110329620Y-70891847D01*
X110324195Y-70897624D01*
X110285784Y-70938527D01*
X110283030Y-70941368D01*
X110259212Y-70965186D01*
X110255550Y-70969906D01*
X110247853Y-70978919D01*
X110216453Y-71012356D01*
X110206213Y-71030982D01*
X110195367Y-71047495D01*
X110182341Y-71064287D01*
X110164130Y-71106371D01*
X110158914Y-71117020D01*
X110136812Y-71157222D01*
X110133818Y-71168884D01*
X110131525Y-71177813D01*
X110125124Y-71196508D01*
X110116687Y-71216006D01*
X110115447Y-71223836D01*
X110115445Y-71223842D01*
X110109513Y-71261292D01*
X110107107Y-71272912D01*
X110102577Y-71290559D01*
X110095700Y-71317343D01*
X110095500Y-71320522D01*
X110095500Y-71339856D01*
X110093949Y-71359567D01*
X110090826Y-71379285D01*
X110091572Y-71387177D01*
X110094941Y-71422818D01*
X110095500Y-71434675D01*
X110095500Y-71776146D01*
X110075498Y-71844267D01*
X110021842Y-71890760D01*
X109943397Y-71896171D01*
X109943062Y-71898419D01*
X109942311Y-71898307D01*
X109938437Y-71896513D01*
X109933393Y-71896861D01*
X109925545Y-71894514D01*
X109925538Y-71894512D01*
X109926581Y-71891024D01*
X109877885Y-71868475D01*
X109841189Y-71810973D01*
X109840556Y-71806551D01*
X109834142Y-71792443D01*
X109821748Y-71765186D01*
X109780577Y-71674634D01*
X109685984Y-71564854D01*
X109612937Y-71517507D01*
X109571913Y-71490916D01*
X109571911Y-71490915D01*
X109564382Y-71486035D01*
X109555785Y-71483464D01*
X109555783Y-71483463D01*
X109471990Y-71458404D01*
X109425545Y-71444514D01*
X109416569Y-71444459D01*
X109416568Y-71444459D01*
X109354179Y-71444078D01*
X109280636Y-71443629D01*
X109272005Y-71446096D01*
X109272003Y-71446096D01*
X109149933Y-71480983D01*
X109149931Y-71480984D01*
X109141302Y-71483450D01*
X109133711Y-71488239D01*
X109133710Y-71488240D01*
X109080750Y-71521656D01*
X109018746Y-71560778D01*
X108922819Y-71669394D01*
X108919004Y-71677520D01*
X108870536Y-71780755D01*
X108861233Y-71800569D01*
X108859852Y-71809438D01*
X108841472Y-71927484D01*
X108838938Y-71943756D01*
X108840102Y-71952658D01*
X108840102Y-71952661D01*
X108853536Y-72055391D01*
X108857728Y-72087445D01*
X108916091Y-72220085D01*
X109009335Y-72331013D01*
X109016806Y-72335986D01*
X109016807Y-72335987D01*
X109122491Y-72406336D01*
X109122495Y-72406338D01*
X109129966Y-72411311D01*
X109258068Y-72451333D01*
X109268285Y-72454525D01*
X109267852Y-72455910D01*
X109323225Y-72482396D01*
X109357476Y-72537556D01*
X109357728Y-72537445D01*
X109361343Y-72545661D01*
X109361344Y-72545664D01*
X109403460Y-72641380D01*
X109416091Y-72670085D01*
X109509335Y-72781013D01*
X109516809Y-72785988D01*
X109551957Y-72809385D01*
X109597580Y-72863782D01*
X109596193Y-72967820D01*
X109561158Y-73042443D01*
X109557343Y-73050569D01*
X109555962Y-73059438D01*
X109536753Y-73182808D01*
X109535048Y-73193756D01*
X109536212Y-73202658D01*
X109536212Y-73202661D01*
X109550960Y-73315438D01*
X109553838Y-73337445D01*
X109612201Y-73470085D01*
X109705445Y-73581013D01*
X109712916Y-73585986D01*
X109712917Y-73585987D01*
X109818601Y-73656336D01*
X109818605Y-73656338D01*
X109826076Y-73661311D01*
X109964395Y-73704525D01*
X109973367Y-73704689D01*
X109973370Y-73704690D01*
X110039382Y-73705900D01*
X110109283Y-73707181D01*
X110187695Y-73685803D01*
X110240429Y-73671426D01*
X110240430Y-73671426D01*
X110249092Y-73669064D01*
X110256742Y-73664367D01*
X110256744Y-73664366D01*
X110364932Y-73597939D01*
X110364935Y-73597936D01*
X110372584Y-73593240D01*
X110383652Y-73581013D01*
X110463803Y-73492463D01*
X110463804Y-73492462D01*
X110469831Y-73485803D01*
X110477447Y-73470085D01*
X110529101Y-73363470D01*
X110529101Y-73363469D01*
X110533015Y-73355391D01*
X110550650Y-73250569D01*
X110556250Y-73217285D01*
X110556250Y-73217282D01*
X110557057Y-73212487D01*
X110557210Y-73200000D01*
X110553578Y-73174634D01*
X110537939Y-73065438D01*
X110537939Y-73065436D01*
X110536666Y-73056551D01*
X110530252Y-73042443D01*
X110518914Y-73017507D01*
X110476687Y-72924634D01*
X110382094Y-72814854D01*
X110345417Y-72791081D01*
X110299134Y-72737245D01*
X110289303Y-72666932D01*
X110300558Y-72630411D01*
X110332991Y-72563469D01*
X110336905Y-72555391D01*
X110338394Y-72546539D01*
X110341079Y-72538127D01*
X110380845Y-72479312D01*
X110446096Y-72451333D01*
X110514761Y-72462427D01*
X110546203Y-72477222D01*
X110553986Y-72478707D01*
X110553987Y-72478707D01*
X110700804Y-72506714D01*
X110700806Y-72506714D01*
X110708590Y-72508199D01*
X110791083Y-72503009D01*
X110865666Y-72498316D01*
X110865668Y-72498316D01*
X110873577Y-72497818D01*
X110881113Y-72495369D01*
X110881115Y-72495369D01*
X111023258Y-72449184D01*
X111023261Y-72449183D01*
X111030800Y-72446733D01*
X111170380Y-72358153D01*
X111238932Y-72285154D01*
X111278119Y-72243425D01*
X111278122Y-72243421D01*
X111283547Y-72237644D01*
X111363188Y-72092778D01*
X111404300Y-71932657D01*
X111404500Y-71929478D01*
X111404500Y-71780500D01*
X111424502Y-71712379D01*
X111478158Y-71665886D01*
X111530500Y-71654500D01*
X111829054Y-71654500D01*
X111897175Y-71674502D01*
X111943668Y-71728158D01*
X111953554Y-71799885D01*
X111940949Y-71880842D01*
X111938938Y-71893756D01*
X111940102Y-71902658D01*
X111940102Y-71902661D01*
X111956564Y-72028546D01*
X111957728Y-72037445D01*
X112016091Y-72170085D01*
X112109335Y-72281013D01*
X112116806Y-72285986D01*
X112116807Y-72285987D01*
X112222491Y-72356336D01*
X112222495Y-72356338D01*
X112229966Y-72361311D01*
X112254782Y-72369064D01*
X112348575Y-72398367D01*
X112368285Y-72404525D01*
X112421811Y-72405506D01*
X112489553Y-72426753D01*
X112535055Y-72481252D01*
X112545501Y-72531485D01*
X112545500Y-73242443D01*
X112545500Y-73926708D01*
X112508595Y-74015803D01*
X111651935Y-74872463D01*
X111644384Y-74879335D01*
X111638221Y-74883246D01*
X111632797Y-74889022D01*
X111632793Y-74889025D01*
X111624697Y-74897646D01*
X111621485Y-74900662D01*
X111619619Y-74901847D01*
X111615106Y-74906653D01*
X111575776Y-74948535D01*
X111573021Y-74951377D01*
X111549212Y-74975186D01*
X111545553Y-74979903D01*
X111537850Y-74988923D01*
X111506453Y-75022357D01*
X111502635Y-75029301D01*
X111502634Y-75029303D01*
X111496217Y-75040976D01*
X111485368Y-75057492D01*
X111472341Y-75074287D01*
X111469195Y-75081558D01*
X111469191Y-75081564D01*
X111454130Y-75116370D01*
X111448907Y-75127032D01*
X111435968Y-75150569D01*
X111426812Y-75167223D01*
X111424841Y-75174899D01*
X111424840Y-75174902D01*
X111421527Y-75187807D01*
X111415126Y-75206505D01*
X111406687Y-75226006D01*
X111405447Y-75233836D01*
X111405446Y-75233839D01*
X111399514Y-75271297D01*
X111397110Y-75282906D01*
X111385700Y-75327344D01*
X111385500Y-75330523D01*
X111385500Y-75349856D01*
X111383949Y-75369567D01*
X111380826Y-75389285D01*
X111381572Y-75397177D01*
X111384941Y-75432818D01*
X111385500Y-75444675D01*
X111385500Y-75980631D01*
X111385020Y-75990813D01*
X111383428Y-75997936D01*
X111383677Y-76005860D01*
X111384683Y-76037868D01*
X111383194Y-76061535D01*
X111380826Y-76076487D01*
X111381572Y-76084379D01*
X111384941Y-76120021D01*
X111385500Y-76131878D01*
X111385500Y-76599856D01*
X111383949Y-76619566D01*
X111382366Y-76629564D01*
X111380826Y-76639285D01*
X111382623Y-76658294D01*
X111384941Y-76682822D01*
X111385500Y-76694678D01*
X111385500Y-76813502D01*
X111365498Y-76881623D01*
X111338451Y-76911699D01*
X111303861Y-76939509D01*
X111303853Y-76939517D01*
X111299057Y-76943373D01*
X111166205Y-77101700D01*
X111163241Y-77107092D01*
X111163238Y-77107096D01*
X111082377Y-77254183D01*
X111066636Y-77282816D01*
X111064775Y-77288683D01*
X111064774Y-77288685D01*
X111062312Y-77296446D01*
X111004142Y-77479822D01*
X110981103Y-77685214D01*
X110998398Y-77891170D01*
X111000097Y-77897095D01*
X111037934Y-78029047D01*
X111055367Y-78089844D01*
X111149840Y-78273669D01*
X111278219Y-78435643D01*
X111435614Y-78569597D01*
X111440992Y-78572603D01*
X111440994Y-78572604D01*
X111492268Y-78601260D01*
X111616030Y-78670428D01*
X111659509Y-78684555D01*
X111769111Y-78720167D01*
X111827717Y-78760240D01*
X111855354Y-78825637D01*
X111843247Y-78895594D01*
X111795241Y-78947900D01*
X111730175Y-78966000D01*
X110475178Y-78966000D01*
X110407057Y-78945998D01*
X110360564Y-78892342D01*
X110350460Y-78822068D01*
X110405176Y-78735235D01*
X110483141Y-78683141D01*
X110490363Y-78672332D01*
X110532390Y-78609435D01*
X110532391Y-78609433D01*
X110539285Y-78599115D01*
X110559000Y-78500000D01*
X110559000Y-76900000D01*
X110539285Y-76800885D01*
X110532391Y-76790567D01*
X110532390Y-76790565D01*
X110490034Y-76727175D01*
X110483141Y-76716859D01*
X110449945Y-76694678D01*
X110409435Y-76667610D01*
X110409433Y-76667609D01*
X110399115Y-76660715D01*
X110300000Y-76641000D01*
X108700000Y-76641000D01*
X108600885Y-76660715D01*
X108590567Y-76667609D01*
X108590565Y-76667610D01*
X108550055Y-76694678D01*
X108516859Y-76716859D01*
X108509966Y-76727175D01*
X108467610Y-76790565D01*
X108467609Y-76790567D01*
X108460715Y-76800885D01*
X108441000Y-76900000D01*
X108441000Y-78500000D01*
X108460715Y-78599115D01*
X108467609Y-78609433D01*
X108467610Y-78609435D01*
X108509637Y-78672332D01*
X108516859Y-78683141D01*
X108594824Y-78735235D01*
X108640351Y-78789711D01*
X108649200Y-78860154D01*
X108618559Y-78924199D01*
X108524822Y-78966000D01*
X105753823Y-78966000D01*
X105727344Y-78963186D01*
X105725169Y-78962718D01*
X105725162Y-78962717D01*
X105719118Y-78961418D01*
X105642186Y-78960234D01*
X105545684Y-78958748D01*
X105532436Y-78957844D01*
X105240981Y-78922455D01*
X105226015Y-78919713D01*
X104943814Y-78850157D01*
X104929288Y-78845630D01*
X104657542Y-78742570D01*
X104643667Y-78736326D01*
X104386317Y-78601259D01*
X104373296Y-78593387D01*
X104333045Y-78565604D01*
X104134107Y-78428287D01*
X104122134Y-78418906D01*
X103904591Y-78226180D01*
X103893832Y-78215422D01*
X103701103Y-77997877D01*
X103691719Y-77985900D01*
X103592393Y-77842003D01*
X103526610Y-77746700D01*
X103518740Y-77733680D01*
X103518421Y-77733072D01*
X103383674Y-77476333D01*
X103377433Y-77462466D01*
X103311527Y-77288685D01*
X103274370Y-77190712D01*
X103269845Y-77176191D01*
X103200287Y-76893986D01*
X103197545Y-76879020D01*
X103162156Y-76587565D01*
X103161252Y-76574317D01*
X103159799Y-76479951D01*
X103158582Y-76400882D01*
X103157283Y-76394838D01*
X103157282Y-76394831D01*
X103156814Y-76392656D01*
X103154000Y-76366177D01*
X103154000Y-73393756D01*
X107388938Y-73393756D01*
X107390102Y-73402658D01*
X107390102Y-73402661D01*
X107406564Y-73528546D01*
X107407728Y-73537445D01*
X107466091Y-73670085D01*
X107559335Y-73781013D01*
X107566806Y-73785986D01*
X107566807Y-73785987D01*
X107672491Y-73856336D01*
X107672495Y-73856338D01*
X107679966Y-73861311D01*
X107704782Y-73869064D01*
X107752570Y-73883994D01*
X107818285Y-73904525D01*
X107827257Y-73904689D01*
X107827260Y-73904690D01*
X107893272Y-73905900D01*
X107963173Y-73907181D01*
X108033077Y-73888123D01*
X108094319Y-73871426D01*
X108094320Y-73871426D01*
X108102982Y-73869064D01*
X108110632Y-73864367D01*
X108110634Y-73864366D01*
X108218822Y-73797939D01*
X108218825Y-73797936D01*
X108226474Y-73793240D01*
X108236054Y-73782657D01*
X108317693Y-73692463D01*
X108317694Y-73692462D01*
X108323721Y-73685803D01*
X108327898Y-73677183D01*
X108382991Y-73563470D01*
X108382991Y-73563469D01*
X108386905Y-73555391D01*
X108410947Y-73412487D01*
X108411100Y-73400000D01*
X108405869Y-73363470D01*
X108391829Y-73265438D01*
X108391829Y-73265436D01*
X108390556Y-73256551D01*
X108384142Y-73242443D01*
X108368310Y-73207624D01*
X108330577Y-73124634D01*
X108235984Y-73014854D01*
X108222304Y-73005987D01*
X108121913Y-72940916D01*
X108121911Y-72940915D01*
X108114382Y-72936035D01*
X108105785Y-72933464D01*
X108105783Y-72933463D01*
X108021990Y-72908404D01*
X107975545Y-72894514D01*
X107966569Y-72894459D01*
X107966568Y-72894459D01*
X107904179Y-72894078D01*
X107830636Y-72893629D01*
X107822005Y-72896096D01*
X107822003Y-72896096D01*
X107699933Y-72930983D01*
X107699931Y-72930984D01*
X107691302Y-72933450D01*
X107683711Y-72938239D01*
X107683710Y-72938240D01*
X107612037Y-72983463D01*
X107568746Y-73010778D01*
X107472819Y-73119394D01*
X107411233Y-73250569D01*
X107409852Y-73259438D01*
X107391593Y-73376707D01*
X107388938Y-73393756D01*
X103154000Y-73393756D01*
X103154000Y-71893756D01*
X106388938Y-71893756D01*
X106390102Y-71902658D01*
X106390102Y-71902661D01*
X106406564Y-72028546D01*
X106407728Y-72037445D01*
X106466091Y-72170085D01*
X106559335Y-72281013D01*
X106566806Y-72285986D01*
X106566807Y-72285987D01*
X106672491Y-72356336D01*
X106672495Y-72356338D01*
X106679966Y-72361311D01*
X106704782Y-72369064D01*
X106798575Y-72398367D01*
X106818285Y-72404525D01*
X106827257Y-72404689D01*
X106827260Y-72404690D01*
X106893272Y-72405900D01*
X106963173Y-72407181D01*
X107074835Y-72376738D01*
X107094319Y-72371426D01*
X107094320Y-72371426D01*
X107102982Y-72369064D01*
X107110632Y-72364367D01*
X107110634Y-72364366D01*
X107218822Y-72297939D01*
X107218825Y-72297936D01*
X107226474Y-72293240D01*
X107232684Y-72286380D01*
X107317693Y-72192463D01*
X107317694Y-72192462D01*
X107323721Y-72185803D01*
X107328575Y-72175786D01*
X107382991Y-72063470D01*
X107382991Y-72063469D01*
X107386905Y-72055391D01*
X107403881Y-71954487D01*
X107410140Y-71917285D01*
X107410140Y-71917282D01*
X107410947Y-71912487D01*
X107411013Y-71907148D01*
X107411040Y-71904871D01*
X107411100Y-71900000D01*
X107410315Y-71894514D01*
X107391829Y-71765438D01*
X107391829Y-71765436D01*
X107390556Y-71756551D01*
X107384142Y-71742443D01*
X107354623Y-71677520D01*
X107330577Y-71624634D01*
X107235984Y-71514854D01*
X107206916Y-71496013D01*
X107121913Y-71440916D01*
X107121911Y-71440915D01*
X107114382Y-71436035D01*
X107105785Y-71433464D01*
X107105783Y-71433463D01*
X107021990Y-71408404D01*
X106975545Y-71394514D01*
X106966569Y-71394459D01*
X106966568Y-71394459D01*
X106904179Y-71394078D01*
X106830636Y-71393629D01*
X106822005Y-71396096D01*
X106822003Y-71396096D01*
X106699933Y-71430983D01*
X106699931Y-71430984D01*
X106691302Y-71433450D01*
X106683711Y-71438239D01*
X106683710Y-71438240D01*
X106612037Y-71483463D01*
X106568746Y-71510778D01*
X106472819Y-71619394D01*
X106411233Y-71750569D01*
X106409852Y-71759438D01*
X106390949Y-71880842D01*
X106388938Y-71893756D01*
X103154000Y-71893756D01*
X103154000Y-58713823D01*
X103156814Y-58687344D01*
X103157282Y-58685169D01*
X103157283Y-58685162D01*
X103158582Y-58679118D01*
X103161252Y-58505683D01*
X103162156Y-58492435D01*
X103197545Y-58200980D01*
X103200287Y-58186014D01*
X103269845Y-57903809D01*
X103274372Y-57889283D01*
X103316971Y-57776959D01*
X103377434Y-57617531D01*
X103383678Y-57603659D01*
X103389147Y-57593240D01*
X103518742Y-57346317D01*
X103526611Y-57333298D01*
X103526613Y-57333296D01*
X103691719Y-57094100D01*
X103701103Y-57082123D01*
X103893832Y-56864578D01*
X103904591Y-56853820D01*
X104122134Y-56661094D01*
X104134107Y-56651713D01*
X104373299Y-56486611D01*
X104386317Y-56478741D01*
X104643667Y-56343674D01*
X104657542Y-56337430D01*
X104929288Y-56234370D01*
X104943814Y-56229843D01*
X105226015Y-56160287D01*
X105240981Y-56157545D01*
X105532436Y-56122156D01*
X105545684Y-56121252D01*
X105642186Y-56119766D01*
X105719118Y-56118582D01*
X105725162Y-56117283D01*
X105725169Y-56117282D01*
X105727344Y-56116814D01*
X105753823Y-56114000D01*
X105775741Y-56114000D01*
X105843862Y-56134002D01*
G37*
%TD.AperFunction*%
%TA.AperFunction,Conductor*%
G36*
X111115804Y-62091405D02*
G01*
X112110303Y-63085905D01*
X112144329Y-63148217D01*
X112139264Y-63219033D01*
X112110303Y-63264095D01*
X111972197Y-63402201D01*
X111909885Y-63436227D01*
X111839070Y-63431162D01*
X111782234Y-63388615D01*
X111758375Y-63330969D01*
X111741829Y-63215438D01*
X111741829Y-63215436D01*
X111740556Y-63206551D01*
X111680577Y-63074634D01*
X111585984Y-62964854D01*
X111499231Y-62908623D01*
X111471913Y-62890916D01*
X111471911Y-62890915D01*
X111464382Y-62886035D01*
X111455785Y-62883464D01*
X111455783Y-62883463D01*
X111371990Y-62858404D01*
X111325545Y-62844514D01*
X111316569Y-62844459D01*
X111316568Y-62844459D01*
X111254179Y-62844078D01*
X111180636Y-62843629D01*
X111172005Y-62846096D01*
X111172003Y-62846096D01*
X111049933Y-62880983D01*
X111049931Y-62880984D01*
X111041302Y-62883450D01*
X111033711Y-62888239D01*
X111033710Y-62888240D01*
X110919269Y-62960448D01*
X110850984Y-62979883D01*
X110783032Y-62959314D01*
X110736988Y-62905273D01*
X110727779Y-62832983D01*
X110743315Y-62740637D01*
X110743315Y-62740634D01*
X110744122Y-62735839D01*
X110744275Y-62723352D01*
X110741293Y-62702526D01*
X110725004Y-62588790D01*
X110725004Y-62588788D01*
X110723731Y-62579903D01*
X110663752Y-62447986D01*
X110569159Y-62338206D01*
X110561625Y-62333323D01*
X110561622Y-62333320D01*
X110488974Y-62286232D01*
X110442690Y-62232396D01*
X110432859Y-62162084D01*
X110462603Y-62097618D01*
X110557506Y-62054500D01*
X111026709Y-62054500D01*
X111115804Y-62091405D01*
G37*
%TD.AperFunction*%
%TA.AperFunction,Conductor*%
G36*
X132122363Y-56134002D02*
G01*
X132168856Y-56187658D01*
X132178960Y-56257932D01*
X132149466Y-56322512D01*
X132089817Y-56360874D01*
X131963292Y-56398112D01*
X131780131Y-56493867D01*
X131619057Y-56623373D01*
X131486205Y-56781700D01*
X131483241Y-56787092D01*
X131483238Y-56787096D01*
X131440635Y-56864591D01*
X131386636Y-56962816D01*
X131384775Y-56968683D01*
X131384774Y-56968685D01*
X131348786Y-57082134D01*
X131324142Y-57159822D01*
X131301103Y-57365214D01*
X131306252Y-57426530D01*
X131313025Y-57507181D01*
X131318398Y-57571170D01*
X131320097Y-57577095D01*
X131369930Y-57750882D01*
X131375367Y-57769844D01*
X131378183Y-57775323D01*
X131435363Y-57886583D01*
X131469840Y-57953669D01*
X131598219Y-58115643D01*
X131602913Y-58119638D01*
X131607505Y-58123546D01*
X131646418Y-58182929D01*
X131647049Y-58253923D01*
X131609197Y-58313988D01*
X131525842Y-58345500D01*
X130654086Y-58345500D01*
X130585965Y-58325498D01*
X130539472Y-58271842D01*
X130529368Y-58201568D01*
X130558705Y-58137169D01*
X130681327Y-57995110D01*
X130681328Y-57995108D01*
X130685356Y-57990442D01*
X130787445Y-57810734D01*
X130852683Y-57614620D01*
X130878587Y-57409569D01*
X130878908Y-57386583D01*
X130878951Y-57383523D01*
X130878951Y-57383519D01*
X130879000Y-57380000D01*
X130858832Y-57174306D01*
X130799094Y-56976446D01*
X130702064Y-56793958D01*
X130697164Y-56787950D01*
X130575330Y-56638567D01*
X130575327Y-56638564D01*
X130571435Y-56633792D01*
X130564545Y-56628092D01*
X130416935Y-56505978D01*
X130416931Y-56505976D01*
X130412185Y-56502049D01*
X130230379Y-56403747D01*
X130090234Y-56360365D01*
X130031074Y-56321114D01*
X130002527Y-56256109D01*
X130013656Y-56185990D01*
X130060927Y-56133019D01*
X130127493Y-56114000D01*
X132054242Y-56114000D01*
X132122363Y-56134002D01*
G37*
%TD.AperFunction*%
%TA.AperFunction,Conductor*%
G36*
X134662363Y-56134002D02*
G01*
X134708856Y-56187658D01*
X134718960Y-56257932D01*
X134689466Y-56322512D01*
X134629817Y-56360874D01*
X134503292Y-56398112D01*
X134320131Y-56493867D01*
X134159057Y-56623373D01*
X134026205Y-56781700D01*
X134023241Y-56787092D01*
X134023238Y-56787096D01*
X133980635Y-56864591D01*
X133926636Y-56962816D01*
X133924775Y-56968683D01*
X133924774Y-56968685D01*
X133888786Y-57082134D01*
X133864142Y-57159822D01*
X133841103Y-57365214D01*
X133846252Y-57426530D01*
X133853025Y-57507181D01*
X133858398Y-57571170D01*
X133860097Y-57577095D01*
X133909930Y-57750882D01*
X133915367Y-57769844D01*
X133918183Y-57775323D01*
X133975363Y-57886583D01*
X134009840Y-57953669D01*
X134138219Y-58115643D01*
X134142913Y-58119638D01*
X134147505Y-58123546D01*
X134186418Y-58182929D01*
X134187049Y-58253923D01*
X134149197Y-58313988D01*
X134065842Y-58345500D01*
X133194086Y-58345500D01*
X133125965Y-58325498D01*
X133079472Y-58271842D01*
X133069368Y-58201568D01*
X133098705Y-58137169D01*
X133221327Y-57995110D01*
X133221328Y-57995108D01*
X133225356Y-57990442D01*
X133327445Y-57810734D01*
X133392683Y-57614620D01*
X133418587Y-57409569D01*
X133418908Y-57386583D01*
X133418951Y-57383523D01*
X133418951Y-57383519D01*
X133419000Y-57380000D01*
X133398832Y-57174306D01*
X133339094Y-56976446D01*
X133242064Y-56793958D01*
X133237164Y-56787950D01*
X133115330Y-56638567D01*
X133115327Y-56638564D01*
X133111435Y-56633792D01*
X133104545Y-56628092D01*
X132956935Y-56505978D01*
X132956931Y-56505976D01*
X132952185Y-56502049D01*
X132770379Y-56403747D01*
X132630234Y-56360365D01*
X132571074Y-56321114D01*
X132542527Y-56256109D01*
X132553656Y-56185990D01*
X132600927Y-56133019D01*
X132667493Y-56114000D01*
X134594242Y-56114000D01*
X134662363Y-56134002D01*
G37*
%TD.AperFunction*%
%TA.AperFunction,Conductor*%
G36*
X129582363Y-56134002D02*
G01*
X129628856Y-56187658D01*
X129638960Y-56257932D01*
X129609466Y-56322512D01*
X129549817Y-56360874D01*
X129423292Y-56398112D01*
X129240131Y-56493867D01*
X129079057Y-56623373D01*
X128946205Y-56781700D01*
X128943241Y-56787092D01*
X128943238Y-56787096D01*
X128900635Y-56864591D01*
X128846636Y-56962816D01*
X128844775Y-56968683D01*
X128844774Y-56968685D01*
X128808786Y-57082134D01*
X128784142Y-57159822D01*
X128761103Y-57365214D01*
X128766252Y-57426530D01*
X128773025Y-57507181D01*
X128778398Y-57571170D01*
X128780097Y-57577095D01*
X128829930Y-57750882D01*
X128835367Y-57769844D01*
X128838183Y-57775323D01*
X128895363Y-57886583D01*
X128929840Y-57953669D01*
X129058219Y-58115643D01*
X129062913Y-58119638D01*
X129067505Y-58123546D01*
X129106418Y-58182929D01*
X129107049Y-58253923D01*
X129069197Y-58313988D01*
X128985842Y-58345500D01*
X128114086Y-58345500D01*
X128045965Y-58325498D01*
X127999472Y-58271842D01*
X127989368Y-58201568D01*
X128018705Y-58137169D01*
X128141327Y-57995110D01*
X128141328Y-57995108D01*
X128145356Y-57990442D01*
X128247445Y-57810734D01*
X128312683Y-57614620D01*
X128338587Y-57409569D01*
X128338908Y-57386583D01*
X128338951Y-57383523D01*
X128338951Y-57383519D01*
X128339000Y-57380000D01*
X128318832Y-57174306D01*
X128259094Y-56976446D01*
X128162064Y-56793958D01*
X128157164Y-56787950D01*
X128035330Y-56638567D01*
X128035327Y-56638564D01*
X128031435Y-56633792D01*
X128024545Y-56628092D01*
X127876935Y-56505978D01*
X127876931Y-56505976D01*
X127872185Y-56502049D01*
X127690379Y-56403747D01*
X127550234Y-56360365D01*
X127491074Y-56321114D01*
X127462527Y-56256109D01*
X127473656Y-56185990D01*
X127520927Y-56133019D01*
X127587493Y-56114000D01*
X129514242Y-56114000D01*
X129582363Y-56134002D01*
G37*
%TD.AperFunction*%
%TA.AperFunction,Conductor*%
G36*
X137202363Y-56134002D02*
G01*
X137248856Y-56187658D01*
X137258960Y-56257932D01*
X137229466Y-56322512D01*
X137169817Y-56360874D01*
X137043292Y-56398112D01*
X136860131Y-56493867D01*
X136699057Y-56623373D01*
X136566205Y-56781700D01*
X136563241Y-56787092D01*
X136563238Y-56787096D01*
X136520635Y-56864591D01*
X136466636Y-56962816D01*
X136464775Y-56968683D01*
X136464774Y-56968685D01*
X136428786Y-57082134D01*
X136404142Y-57159822D01*
X136381103Y-57365214D01*
X136386252Y-57426530D01*
X136393025Y-57507181D01*
X136398398Y-57571170D01*
X136400097Y-57577095D01*
X136449930Y-57750882D01*
X136455367Y-57769844D01*
X136458183Y-57775323D01*
X136515363Y-57886583D01*
X136549840Y-57953669D01*
X136678219Y-58115643D01*
X136682913Y-58119638D01*
X136687505Y-58123546D01*
X136726418Y-58182929D01*
X136727049Y-58253923D01*
X136689197Y-58313988D01*
X136605842Y-58345500D01*
X135734086Y-58345500D01*
X135665965Y-58325498D01*
X135619472Y-58271842D01*
X135609368Y-58201568D01*
X135638705Y-58137169D01*
X135761327Y-57995110D01*
X135761328Y-57995108D01*
X135765356Y-57990442D01*
X135867445Y-57810734D01*
X135932683Y-57614620D01*
X135958587Y-57409569D01*
X135958908Y-57386583D01*
X135958951Y-57383523D01*
X135958951Y-57383519D01*
X135959000Y-57380000D01*
X135938832Y-57174306D01*
X135879094Y-56976446D01*
X135782064Y-56793958D01*
X135777164Y-56787950D01*
X135655330Y-56638567D01*
X135655327Y-56638564D01*
X135651435Y-56633792D01*
X135644545Y-56628092D01*
X135496935Y-56505978D01*
X135496931Y-56505976D01*
X135492185Y-56502049D01*
X135310379Y-56403747D01*
X135170234Y-56360365D01*
X135111074Y-56321114D01*
X135082527Y-56256109D01*
X135093656Y-56185990D01*
X135140927Y-56133019D01*
X135207493Y-56114000D01*
X137134242Y-56114000D01*
X137202363Y-56134002D01*
G37*
%TD.AperFunction*%
%TA.AperFunction,Conductor*%
G36*
X139742363Y-56134002D02*
G01*
X139788856Y-56187658D01*
X139798960Y-56257932D01*
X139769466Y-56322512D01*
X139709817Y-56360874D01*
X139583292Y-56398112D01*
X139400131Y-56493867D01*
X139239057Y-56623373D01*
X139106205Y-56781700D01*
X139103241Y-56787092D01*
X139103238Y-56787096D01*
X139060635Y-56864591D01*
X139006636Y-56962816D01*
X139004775Y-56968683D01*
X139004774Y-56968685D01*
X138968786Y-57082134D01*
X138944142Y-57159822D01*
X138921103Y-57365214D01*
X138926252Y-57426530D01*
X138933025Y-57507181D01*
X138938398Y-57571170D01*
X138940097Y-57577095D01*
X138989930Y-57750882D01*
X138995367Y-57769844D01*
X138998183Y-57775323D01*
X139055363Y-57886583D01*
X139089840Y-57953669D01*
X139218219Y-58115643D01*
X139222913Y-58119638D01*
X139227505Y-58123546D01*
X139266418Y-58182929D01*
X139267049Y-58253923D01*
X139229197Y-58313988D01*
X139145842Y-58345500D01*
X138274086Y-58345500D01*
X138205965Y-58325498D01*
X138159472Y-58271842D01*
X138149368Y-58201568D01*
X138178705Y-58137169D01*
X138301327Y-57995110D01*
X138301328Y-57995108D01*
X138305356Y-57990442D01*
X138407445Y-57810734D01*
X138472683Y-57614620D01*
X138498587Y-57409569D01*
X138498908Y-57386583D01*
X138498951Y-57383523D01*
X138498951Y-57383519D01*
X138499000Y-57380000D01*
X138478832Y-57174306D01*
X138419094Y-56976446D01*
X138322064Y-56793958D01*
X138317164Y-56787950D01*
X138195330Y-56638567D01*
X138195327Y-56638564D01*
X138191435Y-56633792D01*
X138184545Y-56628092D01*
X138036935Y-56505978D01*
X138036931Y-56505976D01*
X138032185Y-56502049D01*
X137850379Y-56403747D01*
X137710234Y-56360365D01*
X137651074Y-56321114D01*
X137622527Y-56256109D01*
X137633656Y-56185990D01*
X137680927Y-56133019D01*
X137747493Y-56114000D01*
X139674242Y-56114000D01*
X139742363Y-56134002D01*
G37*
%TD.AperFunction*%
%TA.AperFunction,Conductor*%
G36*
X127042363Y-56134002D02*
G01*
X127088856Y-56187658D01*
X127098960Y-56257932D01*
X127069466Y-56322512D01*
X127009817Y-56360874D01*
X126883292Y-56398112D01*
X126700131Y-56493867D01*
X126539057Y-56623373D01*
X126406205Y-56781700D01*
X126403241Y-56787092D01*
X126403238Y-56787096D01*
X126360635Y-56864591D01*
X126306636Y-56962816D01*
X126304775Y-56968683D01*
X126304774Y-56968685D01*
X126268786Y-57082134D01*
X126244142Y-57159822D01*
X126221103Y-57365214D01*
X126226252Y-57426530D01*
X126233025Y-57507181D01*
X126238398Y-57571170D01*
X126240097Y-57577095D01*
X126289930Y-57750882D01*
X126295367Y-57769844D01*
X126298183Y-57775323D01*
X126355363Y-57886583D01*
X126389840Y-57953669D01*
X126518219Y-58115643D01*
X126522913Y-58119638D01*
X126527505Y-58123546D01*
X126566418Y-58182929D01*
X126567049Y-58253923D01*
X126529197Y-58313988D01*
X126445842Y-58345500D01*
X126123294Y-58345500D01*
X126034199Y-58308596D01*
X125874906Y-58149303D01*
X125713329Y-57987727D01*
X125679304Y-57925414D01*
X125692868Y-57836394D01*
X125704398Y-57816097D01*
X125707445Y-57810734D01*
X125772683Y-57614620D01*
X125798587Y-57409569D01*
X125798908Y-57386583D01*
X125798951Y-57383523D01*
X125798951Y-57383519D01*
X125799000Y-57380000D01*
X125778832Y-57174306D01*
X125719094Y-56976446D01*
X125622064Y-56793958D01*
X125617164Y-56787950D01*
X125495330Y-56638567D01*
X125495327Y-56638564D01*
X125491435Y-56633792D01*
X125484545Y-56628092D01*
X125336935Y-56505978D01*
X125336931Y-56505976D01*
X125332185Y-56502049D01*
X125150379Y-56403747D01*
X125010234Y-56360365D01*
X124951074Y-56321114D01*
X124922527Y-56256109D01*
X124933656Y-56185990D01*
X124980927Y-56133019D01*
X125047493Y-56114000D01*
X126974242Y-56114000D01*
X127042363Y-56134002D01*
G37*
%TD.AperFunction*%
%TA.AperFunction,Conductor*%
G36*
X147362363Y-56134002D02*
G01*
X147408856Y-56187658D01*
X147418960Y-56257932D01*
X147389466Y-56322512D01*
X147329817Y-56360874D01*
X147203292Y-56398112D01*
X147020131Y-56493867D01*
X146859057Y-56623373D01*
X146726205Y-56781700D01*
X146723241Y-56787092D01*
X146723238Y-56787096D01*
X146680635Y-56864591D01*
X146626636Y-56962816D01*
X146624775Y-56968683D01*
X146624774Y-56968685D01*
X146588786Y-57082134D01*
X146564142Y-57159822D01*
X146541103Y-57365214D01*
X146546252Y-57426530D01*
X146553025Y-57507181D01*
X146558398Y-57571170D01*
X146560097Y-57577095D01*
X146609930Y-57750882D01*
X146615367Y-57769844D01*
X146618183Y-57775323D01*
X146675363Y-57886583D01*
X146709840Y-57953669D01*
X146838219Y-58115643D01*
X146842913Y-58119638D01*
X146847505Y-58123546D01*
X146886418Y-58182929D01*
X146887049Y-58253923D01*
X146849197Y-58313988D01*
X146765842Y-58345500D01*
X145894086Y-58345500D01*
X145825965Y-58325498D01*
X145779472Y-58271842D01*
X145769368Y-58201568D01*
X145798705Y-58137169D01*
X145921327Y-57995110D01*
X145921328Y-57995108D01*
X145925356Y-57990442D01*
X146027445Y-57810734D01*
X146092683Y-57614620D01*
X146118587Y-57409569D01*
X146118908Y-57386583D01*
X146118951Y-57383523D01*
X146118951Y-57383519D01*
X146119000Y-57380000D01*
X146098832Y-57174306D01*
X146039094Y-56976446D01*
X145942064Y-56793958D01*
X145937164Y-56787950D01*
X145815330Y-56638567D01*
X145815327Y-56638564D01*
X145811435Y-56633792D01*
X145804545Y-56628092D01*
X145656935Y-56505978D01*
X145656931Y-56505976D01*
X145652185Y-56502049D01*
X145470379Y-56403747D01*
X145330234Y-56360365D01*
X145271074Y-56321114D01*
X145242527Y-56256109D01*
X145253656Y-56185990D01*
X145300927Y-56133019D01*
X145367493Y-56114000D01*
X147294242Y-56114000D01*
X147362363Y-56134002D01*
G37*
%TD.AperFunction*%
%TA.AperFunction,Conductor*%
G36*
X144822363Y-56134002D02*
G01*
X144868856Y-56187658D01*
X144878960Y-56257932D01*
X144849466Y-56322512D01*
X144789817Y-56360874D01*
X144663292Y-56398112D01*
X144480131Y-56493867D01*
X144319057Y-56623373D01*
X144186205Y-56781700D01*
X144183241Y-56787092D01*
X144183238Y-56787096D01*
X144140635Y-56864591D01*
X144086636Y-56962816D01*
X144084775Y-56968683D01*
X144084774Y-56968685D01*
X144048786Y-57082134D01*
X144024142Y-57159822D01*
X144001103Y-57365214D01*
X144006252Y-57426530D01*
X144013025Y-57507181D01*
X144018398Y-57571170D01*
X144020097Y-57577095D01*
X144069930Y-57750882D01*
X144075367Y-57769844D01*
X144078183Y-57775323D01*
X144135363Y-57886583D01*
X144169840Y-57953669D01*
X144298219Y-58115643D01*
X144302913Y-58119638D01*
X144307505Y-58123546D01*
X144346418Y-58182929D01*
X144347049Y-58253923D01*
X144309197Y-58313988D01*
X144225842Y-58345500D01*
X143354086Y-58345500D01*
X143285965Y-58325498D01*
X143239472Y-58271842D01*
X143229368Y-58201568D01*
X143258705Y-58137169D01*
X143381327Y-57995110D01*
X143381328Y-57995108D01*
X143385356Y-57990442D01*
X143487445Y-57810734D01*
X143552683Y-57614620D01*
X143578587Y-57409569D01*
X143578908Y-57386583D01*
X143578951Y-57383523D01*
X143578951Y-57383519D01*
X143579000Y-57380000D01*
X143558832Y-57174306D01*
X143499094Y-56976446D01*
X143402064Y-56793958D01*
X143397164Y-56787950D01*
X143275330Y-56638567D01*
X143275327Y-56638564D01*
X143271435Y-56633792D01*
X143264545Y-56628092D01*
X143116935Y-56505978D01*
X143116931Y-56505976D01*
X143112185Y-56502049D01*
X142930379Y-56403747D01*
X142790234Y-56360365D01*
X142731074Y-56321114D01*
X142702527Y-56256109D01*
X142713656Y-56185990D01*
X142760927Y-56133019D01*
X142827493Y-56114000D01*
X144754242Y-56114000D01*
X144822363Y-56134002D01*
G37*
%TD.AperFunction*%
%TA.AperFunction,Conductor*%
G36*
X142282363Y-56134002D02*
G01*
X142328856Y-56187658D01*
X142338960Y-56257932D01*
X142309466Y-56322512D01*
X142249817Y-56360874D01*
X142123292Y-56398112D01*
X141940131Y-56493867D01*
X141779057Y-56623373D01*
X141646205Y-56781700D01*
X141643241Y-56787092D01*
X141643238Y-56787096D01*
X141600635Y-56864591D01*
X141546636Y-56962816D01*
X141544775Y-56968683D01*
X141544774Y-56968685D01*
X141508786Y-57082134D01*
X141484142Y-57159822D01*
X141461103Y-57365214D01*
X141466252Y-57426530D01*
X141473025Y-57507181D01*
X141478398Y-57571170D01*
X141480097Y-57577095D01*
X141529930Y-57750882D01*
X141535367Y-57769844D01*
X141538183Y-57775323D01*
X141595363Y-57886583D01*
X141629840Y-57953669D01*
X141758219Y-58115643D01*
X141762913Y-58119638D01*
X141767505Y-58123546D01*
X141806418Y-58182929D01*
X141807049Y-58253923D01*
X141769197Y-58313988D01*
X141685842Y-58345500D01*
X140814086Y-58345500D01*
X140745965Y-58325498D01*
X140699472Y-58271842D01*
X140689368Y-58201568D01*
X140718705Y-58137169D01*
X140841327Y-57995110D01*
X140841328Y-57995108D01*
X140845356Y-57990442D01*
X140947445Y-57810734D01*
X141012683Y-57614620D01*
X141038587Y-57409569D01*
X141038908Y-57386583D01*
X141038951Y-57383523D01*
X141038951Y-57383519D01*
X141039000Y-57380000D01*
X141018832Y-57174306D01*
X140959094Y-56976446D01*
X140862064Y-56793958D01*
X140857164Y-56787950D01*
X140735330Y-56638567D01*
X140735327Y-56638564D01*
X140731435Y-56633792D01*
X140724545Y-56628092D01*
X140576935Y-56505978D01*
X140576931Y-56505976D01*
X140572185Y-56502049D01*
X140390379Y-56403747D01*
X140250234Y-56360365D01*
X140191074Y-56321114D01*
X140162527Y-56256109D01*
X140173656Y-56185990D01*
X140220927Y-56133019D01*
X140287493Y-56114000D01*
X142214242Y-56114000D01*
X142282363Y-56134002D01*
G37*
%TD.AperFunction*%
%TD*%
%TA.AperFunction,Conductor*%
%TO.N,+1V2*%
G36*
X105142121Y-60020002D02*
G01*
X105188614Y-60073658D01*
X105200000Y-60126000D01*
X105200000Y-61624000D01*
X105179998Y-61692121D01*
X105126342Y-61738614D01*
X105074000Y-61750000D01*
X104026000Y-61750000D01*
X103957879Y-61729998D01*
X103911386Y-61676342D01*
X103900000Y-61624000D01*
X103900000Y-61488081D01*
X103901746Y-61467177D01*
X103910140Y-61417285D01*
X103910140Y-61417282D01*
X103910947Y-61412487D01*
X103911100Y-61400000D01*
X103901273Y-61331382D01*
X103900000Y-61313520D01*
X103900000Y-60488081D01*
X103901746Y-60467177D01*
X103910140Y-60417285D01*
X103910140Y-60417282D01*
X103910947Y-60412487D01*
X103911100Y-60400000D01*
X103901273Y-60331382D01*
X103900000Y-60313520D01*
X103900000Y-60126000D01*
X103920002Y-60057879D01*
X103973658Y-60011386D01*
X104026000Y-60000000D01*
X105074000Y-60000000D01*
X105142121Y-60020002D01*
G37*
%TD.AperFunction*%
%TD*%
M02*
